<svg width="273.143" height="113.023" viewBox="0 0 72.269364 29.904456" xmlns="http://www.w3.org/2000/svg">
    <g fill-rule="evenodd">
        <path d="M41.595 18.097h-.002a.56.56 0 0 0-.364.134.673.673 0 0 0-.185.253h.006a.685.685 0 0 1 .184-.253.567.567 0 0 1 .36-.134zm.005 0h-.005c.138.001.23.049.291.15a.358.358 0 0 1 .042.188c0 .015-.003.033-.005.049h.006l.003-.049a.36.36 0 0 0-.04-.188c-.062-.103-.154-.15-.293-.15z" fill="#bd0000"/>
        <path d="M.001 29.892h1.065l.478-1.998h1.73l.222-.856H1.76l.289-1.285h1.848l.222-.999H1.2L0 29.892zm4.775 0l.32-1.341c.168-.726.524-1.37 1.196-1.37.06 0 .118.03.163.037l.26-1.029c-.06 0-.126-.007-.2-.007-.496 0-.911.348-1.188.848H5.3c.041-.244.077-.476.104-.705h-.918c-.053.296-.134.877-.258 1.401l-.523 2.166h1.072zm4.736-.962c-.296.143-.633.106-1.025.106-.31 0-.55-.054-.68-.16a.829.829 0 0 1-.092-.41c1.446.038 2.357-.296 2.403-1.21.034-.689-.47-1.074-1.201-1.074-1.308 0-2.164 1.153-2.22 2.263-.048.97.454 1.447 1.49 1.447.398 0 .926-.045 1.359-.175l-.034-.788zm-.391-1.673c-.018.34-.437.36-1.263.352.09-.298.392-.57.887-.57.244 0 .384.092.376.218zm4.174 1.673c-.296.143-.632.106-1.023.106-.312 0-.55-.054-.681-.16a.83.83 0 0 1-.093-.41c1.447.038 2.358-.296 2.405-1.21.034-.689-.47-1.074-1.202-1.074-1.309 0-2.165 1.153-2.22 2.263-.048.97.455 1.447 1.49 1.447.399 0 .927-.045 1.36-.175l-.036-.788zm-.39-1.673c-.017.34-.437.36-1.264.352.091-.298.392-.57.887-.57.244 0 .386.092.377.218zm5.898 2.635c.009-.452.117-1.163.23-1.63l.458-1.937c-.291-.099-.745-.143-1.182-.143-1.772 0-2.651 1.313-2.713 2.543-.038.772.38 1.167 1.03 1.167.422 0 .897-.204 1.267-.817h.015c-.028.295-.062.582-.08.817h.975zm-.732-2.038c-.208.908-.634 1.182-.95 1.182-.296 0-.424-.21-.407-.515.034-.69.58-1.483 1.267-1.483.112 0 .199-.02.28-.04l-.19.856zm1.431 1.87c.205.16.636.161 1.086.168.96.008 1.685-.412 1.728-1.183.024-.513-.374-.817-.764-1.021-.28-.136-.422-.266-.415-.417.01-.204.201-.233.482-.233.317 0 .571.039.717.067l.288-.773c-.164-.099-.492-.15-.913-.15-.932 0-1.614.492-1.653 1.24-.023.462.31.774.712.985.326.167.437.295.428.476-.01.183-.172.153-.468.153a6.77 6.77 0 0 1-.933-.077l-.295.765zm5.693.168l.864-3.568H25l-.869 3.568h1.063zm.496-3.996c.362 0 .685-.3.705-.813.017-.348-.209-.471-.541-.471-.347 0-.664.225-.682.562-.017.34.208.722.518.722zm1.546 3.996l.376-1.607c.196-.818.617-1.105.964-1.105.274 0 .354.117.34.287a2.55 2.55 0 0 1-.056.41l-.48 2.015h1.065l.505-2.114c.038-.182.081-.455.09-.62.031-.644-.29-.878-.88-.878-.475 0-.935.22-1.3.696h-.014l.097-.652h-.939c-.061.305-.14.675-.25 1.106l-.583 2.462h1.065zm4.581 0h1.064l.48-1.998h1.728l.223-.856h-1.737l.288-1.285h1.848l.223-.999h-2.918l-1.2 5.138zm4.775 0l.32-1.341c.168-.726.523-1.37 1.196-1.37.06 0 .118.03.162.037l.26-1.029c-.06 0-.126-.007-.2-.007-.495 0-.91.348-1.187.848h-.029c.042-.244.077-.476.105-.705h-.918c-.052.296-.134.877-.258 1.401l-.523 2.166h1.072zm4.735-.962c-.295.143-.632.106-1.024.106-.31 0-.55-.054-.681-.16a.829.829 0 0 1-.091-.41c1.445.038 2.357-.296 2.403-1.21.034-.689-.47-1.074-1.202-1.074-1.307 0-2.163 1.153-2.219 2.263-.048.97.455 1.447 1.49 1.447.398 0 .928-.045 1.359-.175l-.035-.788zm-.39-1.673c-.018.34-.437.36-1.264.352.09-.298.393-.57.888-.57.244 0 .384.092.375.218zm4.174 1.673c-.296.143-.633.106-1.024.106-.31 0-.55-.054-.68-.16a.83.83 0 0 1-.093-.41c1.447.038 2.357-.296 2.405-1.21.034-.689-.47-1.074-1.202-1.074-1.309 0-2.165 1.153-2.22 2.263-.048.97.455 1.447 1.49 1.447.399 0 .927-.045 1.36-.175l-.036-.788zm-.39-1.673c-.017.34-.437.36-1.264.352.09-.298.392-.57.887-.57.244 0 .386.092.377.218zm4.62-2.645l-.4 1.621c-.146-.06-.336-.051-.485-.051-1.367 0-2.334 1.17-2.399 2.437-.042.894.434 1.273 1.048 1.273.43 0 .882-.19 1.224-.68h.015l-.082.68h.968c.044-.428.137-.937.241-1.403l.926-3.877h-1.056zm-.833 3.485c-.167.703-.561.939-.872.939-.31 0-.483-.216-.461-.6.035-.71.524-1.398 1.159-1.398.178 0 .33.027.415.067l-.241.992zm3.261 1.795c1.241 0 2.199-.94 2.266-2.22.041-.848-.487-1.49-1.462-1.49-1.287 0-2.21 1.042-2.274 2.3-.045.917.546 1.41 1.47 1.41zm.167-.856c-.363 0-.563-.231-.541-.576.028-.576.384-1.422.996-1.422.422 0 .552.324.535.642-.031.628-.414 1.356-.99 1.356zm3.422.856l.385-1.63c.161-.726.564-1.224.925-1.224.26 0 .331.19.318.438a2.9 2.9 0 0 1-.066.416l-.476 2h1.027l.386-1.636c.177-.75.556-1.218.91-1.218.244 0 .346.174.334.423a2.317 2.317 0 0 1-.074.446l-.462 1.985H59.6l.498-2.113c.039-.19.083-.485.09-.637.032-.628-.275-.96-.829-.96-.474 0-.935.214-1.284.665-.013-.325-.246-.665-.822-.665-.467 0-.912.211-1.27.69h-.013l.095-.547h-.916c-.06.305-.133.675-.244 1.106l-.574 2.461h1.028z" fill="#636" stroke-width="1pt"/>
    </g>
    <path d="M45.237 20.316c.058.149.116.297.176.443.093.197.2.386.33.563.697.948 1.866 1.468 3.35 1.597h1.595a14.04 14.04 0 0 0 1.58-.22 19.953 19.953 0 0 0 2.988-.848 26.715 26.715 0 0 0 2.42-1.023 34.23 34.23 0 0 0 5.453-3.3 36.205 36.205 0 0 0 3.172-2.626c1.29-1.244 2.265-2.506 2.816-3.615.575-1.155.69-2.142.218-2.764-.288-.382-.77-.587-1.392-.635 2.8-2.101 4.432-4.65 3.846-6.257-.186-.513-.595-.895-1.181-1.107a3.443 3.443 0 0 0-.874-.18h-.862c-1.203.087-2.953.518-4.438 1.245" stroke="#663266" stroke-width=".714" fill="none"/>
    <path d="M6.233.904L1.269 22.561h47.969c-1.423-.124-2.546-.623-3.216-1.534a3.24 3.24 0 0 1-.316-.54c-.057-.14-.111-.28-.165-.423a4.293 4.293 0 0 1-.174-1.494c.071-1.496.773-3.275 1.989-5.138 1.292-1.98 3.163-4.055 5.481-5.98.52-.432 1.057-.858 1.619-1.272a34.588 34.588 0 0 1 2.096-1.423c2.582-1.625 5.157-2.762 7.44-3.34-2.182.711-4.631 1.919-7.052 3.563l-.259.179a31.51 31.51 0 0 0-3.621 2.917c-3.417 3.212-5.223 6.54-4.402 8.491.059.134.128.262.21.384.882 1.297 3.067 1.521 5.838.825.188-.047.376-.1.57-.156.885-.256 1.825-.6 2.792-1.026a27.305 27.305 0 0 0 .776-.357c3.054-1.517 5.402-3.263 5.91-4.313.111-.228.138-.422.062-.575-.362-.735-2.899-.238-5.972 1.093-.246.107-.496.217-.749.334a21.64 21.64 0 0 1 1.73-1.454 21.8 21.8 0 0 1 1.807-1.23c2.8-2.113 4.215-4.111 3.92-4.853-.055-.14-.174-.236-.357-.294-.583-.186-1.649.036-2.943.566-1.068.438-2.294 1.087-3.537 1.896l-.17.111-.03.018-.598.397.343-.629c.51-.933 1.34-1.906 2.373-2.81a16.855 16.855 0 0 1 2.555-1.828c.353-.207.705-.398 1.057-.571a15.68 15.68 0 0 1 1.075-.473c1.024-.405 2.15-.916 3.002-.983-.078 0-2.543.265-2.543.265H6.233zm38.664.031c-.14 2.135.274 5.262 1.213 8.733.167.618.35 1.246.549 1.882.124.393.252.779.383 1.16-.077.113-.154.225-.227.338-1.172 1.796-1.857 3.493-2.03 4.969a30.591 30.591 0 0 1-1.079-5.401 32.876 32.876 0 0 1-.138-1.637c-.231-3.917.28-7.467 1.33-10.044zM21.514 3.714h5.356c.45 0 .8.084 1.048.254.247.17.34.392.28.66L27.57 7.47h-1.86l.611-2.765h-4.656l-1.681 7.6-.607 2.751h4.652l.004-.017.933-4.21H22.78l.21-.95h4.045l-1.16 5.253a.743.743 0 0 1-.08.21c-.096.174-.262.323-.495.446-.323.17-.709.254-1.16.254h-5.27c-.451 0-.8-.084-1.048-.254-.247-.17-.341-.387-.281-.656l2.323-10.503c.06-.268.247-.49.571-.66.012-.006.025-.007.036-.013a2.433 2.433 0 0 1 1.044-.241zm8.268 0h6.641c.445 0 .795.084 1.044.254.25.17.345.392.285.66l-1.24 5.602c-.058.267-.25.484-.575.655-.326.172-.709.259-1.155.259h-4.826l-.932 4.206-.152.69h-1.82l.139-.624 2.591-11.702zm9.174 0h1.82l-2.06 9.308-.451 2.033h4.353c.046.334.099.662.156.986h-6.547l.517-2.337 2.212-9.99zm-7.573.99l-1.208 5.45h4.535l1.205-5.45h-4.532zm-9.671 12.863h.053c.211 0 .396.037.544.107a.645.645 0 0 1 .335.33.807.807 0 0 1 .044.477l-.013.067h-.522l.005-.062c.013-.123-.002-.22-.05-.286a.306.306 0 0 0-.022-.027.29.29 0 0 0-.044-.035.644.644 0 0 0-.335-.072c-.195 0-.342.034-.441.103-.098.067-.159.142-.179.232-.02.091.013.14.036.165l.004.004c.03.025.13.083.442.156.282.069.47.13.575.183a.68.68 0 0 1 .33.317.693.693 0 0 1 .036.441 1.006 1.006 0 0 1-.237.442 1.197 1.197 0 0 1-.45.321c-.18.074-.377.116-.58.116-.257 0-.463-.039-.624-.116a.72.72 0 0 1-.361-.37.909.909 0 0 1-.045-.54l.013-.062h.513l-.004.062a.563.563 0 0 0 .031.286c.03.068.087.125.178.17a.82.82 0 0 0 .357.07.97.97 0 0 0 .34-.058.593.593 0 0 0 .236-.142.396.396 0 0 0 .102-.192.214.214 0 0 0-.013-.156c-.027-.046-.081-.086-.165-.12l-.437-.13c-.244-.061-.409-.12-.504-.178a.625.625 0 0 1-.272-.295.635.635 0 0 1-.023-.388.944.944 0 0 1 .219-.423c.114-.13.261-.232.437-.3a1.57 1.57 0 0 1 .49-.097zm4.682.009c.029-.002.055 0 .085 0l.321.035.107.01-.156.396-.031.063-.245-.023c-.073 0-.126.012-.16.036l-.01.009a.157.157 0 0 0-.018.018.42.42 0 0 0-.067.17l-.017.07h.383l-.098.442h-.375l-.379 1.7h-.517l.379-1.7h-.299l.098-.441h.295c.014-.062.035-.139.035-.139a1.09 1.09 0 0 1 .107-.316.674.674 0 0 1 .562-.33zm1.236.022l-.17.763h.335l-.098.441h-.335l-.24 1.075s-.019.114-.019.147v.009h.005l.053.005.246-.018-.027.397.004.071-.352.04a.572.572 0 0 1-.317-.071.316.316 0 0 1-.142-.205c-.003-.016-.01-.039-.01-.072 0-.064.013-.173.054-.361l.228-1.017h-.246l.099-.441h.245l.102-.455.415-.219.17-.089zm-16.435.018h2.007l-.112.5h-1.467l-.147.66h1.271l-.112.499h-1.27l-.273 1.226h-.54l.643-2.885zm2.69.705c.02-.003.041 0 .062 0 .128 0 .247.039.36.12l.072.049-.276.455-.076-.054a.326.326 0 0 0-.178-.053.278.278 0 0 0-.157.053.394.394 0 0 0-.133.148 1.41 1.41 0 0 0-.134.365l-.241 1.097h-.517l.477-2.14h.482l-.023.089c.023-.017.047-.04.067-.054a.55.55 0 0 1 .214-.075zm1.533 0c.032-.003.062 0 .094 0 .291 0 .512.102.656.303.09.13.138.29.138.481 0 .106-.013.22-.04.344l-.04.156h-1.454a.984.984 0 0 0-.005.09c0 .11.023.198.072.262a.32.32 0 0 0 .08.08.396.396 0 0 0 .218.059c.106 0 .199-.03.286-.085a.753.753 0 0 0 .232-.254h.553l-.05.107a1.226 1.226 0 0 1-.436.5 1.183 1.183 0 0 1-.647.182c-.315 0-.55-.102-.696-.303-.144-.197-.175-.47-.098-.812.077-.348.231-.626.455-.82.2-.175.429-.271.682-.29zm2.324 0c.031-.003.062 0 .094 0 .29 0 .511.102.655.303.09.13.139.29.139.481 0 .105-.014.217-.04.34l-.04.16h-1.455l-.004.058v.031c0 .022.003.043.004.063a.387.387 0 0 0 .067.2c.008.01.014.023.022.032.066.07.158.107.277.107.106 0 .2-.03.285-.085a.752.752 0 0 0 .232-.254h.558l-.054.107a1.226 1.226 0 0 1-.437.5 1.183 1.183 0 0 1-.646.182c-.316 0-.55-.102-.696-.303a.802.802 0 0 1-.138-.486 1.612 1.612 0 0 1 .04-.326c.077-.347.226-.626.45-.82.2-.175.433-.271.687-.29zm6.329 0c.032-.003.06 0 .093 0 .297 0 .525.1.674.298.147.199.182.466.107.803-.059.263-.143.475-.259.629a1.218 1.218 0 0 1-.977.495c-.302 0-.527-.103-.673-.303a.798.798 0 0 1-.143-.486c0-.106.012-.218.04-.344.086-.382.26-.674.518-.86.188-.137.397-.215.62-.232zm7.836 0c.037-.003.072 0 .111 0 .18 0 .321.018.428.062a.47.47 0 0 1 .241.187.512.512 0 0 1 .067.272l-.053.326-.099.441a4.865 4.865 0 0 0-.107.571.575.575 0 0 0 .023.205l.035.116h-.526l-.022-.067c-.009-.03-.006-.07-.01-.107-.099.062-.2.116-.289.148a1.26 1.26 0 0 1-.41.071c-.243 0-.423-.063-.531-.187a.474.474 0 0 1-.12-.33.743.743 0 0 1 .156-.45.835.835 0 0 1 .24-.215c.089-.053.188-.09.29-.116l.317-.053c.244-.029.426-.064.558-.103a.263.263 0 0 1 .008-.031c.021-.092.019-.161-.004-.196l-.009-.01-.018-.017c-.053-.043-.145-.063-.267-.063a.593.593 0 0 0-.313.067.582.582 0 0 0-.191.241h-.54l.05-.107a1.14 1.14 0 0 1 .235-.366.985.985 0 0 1 .375-.218c.115-.038.24-.063.375-.071zm2.26 0c.021-.003.043 0 .063 0 .13 0 .252.039.366.12l.067.049-.277.455-.075-.054a.315.315 0 0 0-.174-.053.296.296 0 0 0-.16.053.396.396 0 0 0-.13.148c-.059.11-.104.233-.134.365l-.245 1.097h-.518l.478-2.14h.481l-.018.089c.023-.017.046-.04.067-.054a.526.526 0 0 1 .21-.075zm1.53 0c.032-.003.062 0 .094 0 .291 0 .513.102.656.303.091.13.138.29.138.481 0 .106-.017.22-.044.344l-.036.156H35.05c-.003.03-.009.062-.009.09 0 .11.024.198.071.262l.027.032a.372.372 0 0 0 .277.107.52.52 0 0 0 .285-.085.767.767 0 0 0 .232-.254h.558l-.054.107a1.236 1.236 0 0 1-.437.5 1.183 1.183 0 0 1-.647.182c-.315 0-.545-.102-.691-.303-.144-.197-.178-.47-.103-.812.077-.348.227-.626.45-.82.203-.175.434-.271.688-.29zm-7.809.04h.531l.067 1.289.04-.09.584-1.2h.486l.045 1.263.665-1.262h.526l-1.16 2.14h-.477l-.049-1.226-.598 1.226h-.49l-.17-2.14zm-12.46.405a.565.565 0 0 0-.34.134.658.658 0 0 0-.182.254h.878c.002-.015.005-.034.005-.049a.37.37 0 0 0-.04-.187c-.063-.103-.156-.152-.295-.152h-.027zm2.323 0a.565.565 0 0 0-.339.134.673.673 0 0 0-.183.254h.879c.001-.015.004-.034.004-.049a.355.355 0 0 0-.04-.187.36.36 0 0 0-.044-.058.33.33 0 0 0-.25-.094h-.027zm17.973 0a.577.577 0 0 0-.352.134.688.688 0 0 0-.183.254h.874c.002-.015.005-.034.005-.049a.355.355 0 0 0-.04-.187c-.062-.101-.156-.15-.295-.152h-.009zm-11.684.01a.592.592 0 0 0-.33.16c-.123.111-.212.286-.264.517a1.2 1.2 0 0 0-.03.255c0 .1.019.18.057.24a.346.346 0 0 0 .299.147.562.562 0 0 0 .392-.164c.123-.113.21-.29.264-.527.048-.217.041-.379-.027-.481-.066-.1-.162-.148-.295-.148-.022 0-.045-.002-.066 0zm8.059.78c-.122.033-.258.06-.438.085-.134.02-.23.04-.285.062a.318.318 0 0 0-.12.085.264.264 0 0 0-.063.116.314.314 0 0 0-.004.049v.017a.18.18 0 0 0 .004.022l.005.009c.001.004.002.01.004.013l.009.014.013.017c.036.04.107.058.21.058a.71.71 0 0 0 .321-.07.625.625 0 0 0 .237-.206.832.832 0 0 0 .107-.272zM4.858 15.98l11.97-12.358h1.954l-2.89 12.358h-1.608l.82-3.557h-5.017l-3.41 3.557h-1.82m6.45-4.83h4.103l.757-3.103c.306-1.23.6-2.256.883-3.076-.565.708-1.313 1.548-2.243 2.52l-3.5 3.659" fill="#636" fill-rule="evenodd"/>
</svg>
