<svg xmlns="http://www.w3.org/2000/svg" viewBox="0 0 101 121">
    <path d="M28.71 28.63c3.515 0 7.757.726 12.726 2.18 5.015 1.453 8.343 2.18 9.984 2.18 2.11 0 5.555-.82 10.336-2.462 4.78-1.64 8.93-2.46 12.445-2.46 5.767 0 10.9 1.546 15.4 4.64 2.53 1.78 5.04 4.195 7.523 7.242-3.75 3.188-6.492 6.024-8.226 8.508-3.14 4.5-4.71 9.47-4.71 14.906 0 5.953 1.663 11.32 4.99 16.102 3.33 4.78 7.126 7.804 11.393 9.07-1.783 5.766-4.736 11.794-8.86 18.074-6.235 9.42-12.423 14.13-18.563 14.13-2.438 0-5.813-.77-10.125-2.32-4.266-1.55-7.875-2.32-10.828-2.32-2.954 0-6.4.8-10.336 2.39-3.89 1.64-7.055 2.46-9.493 2.46-7.36 0-14.578-6.23-21.656-18.7C3.63 89.92.09 77.825.09 65.966c0-11.016 2.695-19.992 8.086-26.93 5.437-6.938 12.28-10.406 20.53-10.406M73.007.927c.187.61.305 1.15.352 1.617.046.47.07.938.07 1.407 0 3-.703 6.282-2.11 9.845-1.406 3.562-3.632 6.867-6.68 9.914-2.624 2.577-5.226 4.31-7.804 5.202-1.64.516-4.125.914-7.453 1.195.095-7.125 1.946-13.29 5.556-18.492 3.656-5.203 9.68-8.766 18.07-10.687"/>
</svg>
