<svg width="512" height="512" preserveAspectRatio="xMidYMid" viewBox="0 0 1 1" xmlns="http://www.w3.org/2000/svg">
    <defs>
        <linearGradient id="a" x2="0%" y2="100%">
            <stop stop-color="#f9aa4b" offset="0"/>
            <stop stop-color="#f7931a" offset="1"/>
        </linearGradient>
    </defs>
    <path transform="scale(.01563)" d="M63.036 39.74C58.762 56.885 41.4 67.318 24.254 63.043 7.116 58.768-3.316 41.404.96 24.262 5.23 7.117 22.593-3.318 39.733.957 56.878 5.23 67.31 22.597 63.036 39.74z" fill="url(#a)"/>
    <path d="M.72.43C.73.36.68.326.61.302l.023-.09L.578.2.556.286a2.296 2.296 0 0 0-.044-.01l.022-.09L.48.175l-.023.09A1.836 1.836 0 0 1 .422.256L.346.236l-.014.06.04.01c.022.005.026.02.025.03L.372.44s.003 0 .005.002H.37L.337.583C.333.59.326.6.31.597L.27.587.244.65l.072.018.04.01-.024.09.056.015.022-.09c.015.004.03.008.044.01L.43.794.485.81.507.72C.6.733.67.727.7.642.726.573.7.535.65.51A.09.09 0 0 0 .72.43zM.596.604C.578.673.463.635.425.627l.03-.12c.04.008.158.027.14.098zM.612.428C.597.49.502.458.47.45L.498.34c.03.01.13.023.114.088z" fill="#FFF"/>
</svg>
