<svg xmlns:rdf="http://www.w3.org/1999/02/22-rdf-syntax-ns#" xmlns="http://www.w3.org/2000/svg" height="39.915" width="45.855" version="1.0" xmlns:cc="http://creativecommons.org/ns#" xmlns:dc="http://purl.org/dc/elements/1.1/" viewBox="0 0 45.855244 39.915382">
<defs>
<linearGradient id="linearGradient34576" x1="185.99" gradientUnits="userSpaceOnUse" y1="193.33" gradientTransform="matrix(.068188 0 0 .068188 22.511 27.029)" x2="190.46" y2="-458.06">
<stop stop-color="#FFF" offset="0"/>
<stop stop-color="#FFF" stop-opacity="0" offset="1"/>
</linearGradient>
<radialGradient id="radialGradient35494" gradientUnits="userSpaceOnUse" cy="38.984" cx="28.019" gradientTransform="matrix(1 0 0 .34286 0 25.618)" r="15.468">
<stop offset="0"/>
<stop stop-opacity="0" offset="1"/>
</radialGradient>
<linearGradient id="linearGradient39161" y2="34.375" gradientUnits="userSpaceOnUse" y1="18.875" x2="29.875" x1="31.188">
<stop stop-color="#FFF" offset="0"/>
<stop stop-color="#DADADA" offset="1"/>
</linearGradient>
<radialGradient id="radialGradient39177" gradientUnits="userSpaceOnUse" cy="19.669" cx="26.109" gradientTransform="matrix(1.6472 0 0 1.2679 -15.474 -5.7979)" r="20.279">
<stop stop-color="#FFF" offset="0"/>
<stop stop-color="#FFF" stop-opacity="0" offset="1"/>
</radialGradient>
</defs>
<g transform="translate(-1.9907 -4.3716)">
<path opacity=".54857" style="color:#000000" d="m43.487 38.984a15.468 5.3033 0 1 1 -30.936 0 15.468 5.3033 0 1 1 30.936 0z" transform="matrix(1.2743 0 0 1.3771 -7.5691 -16.702)" fill="url(#radialGradient35494)"/>
<path d="m16.048 28.093c0.01 0.577 0.197 1.698 0.472 2.578 0.581 1.854 1.566 3.573 2.939 5.086 1.407 1.553 3.138 2.804 5.139 3.69 2.105 0.932 4.385 1.408 6.75 1.404 2.366-0.005 4.645-0.489 6.749-1.427 2-0.895 3.731-2.149 5.138-3.706 1.369-1.52 2.352-3.241 2.934-5.096 0.294-0.938 0.477-1.889 0.553-2.845 0.073-0.94 0.042-1.884-0.092-2.824-0.26-1.836-0.896-3.557-1.872-5.128-0.896-1.441-2.048-2.704-3.418-3.767l0.002-0.002-13.828-10.619c-0.012-0.0098-0.023-0.0195-0.035-0.0283-0.909-0.696-2.435-0.694-3.432 0.0049-1.011 0.7057-1.092 1.8092-0.196 2.5482 1.9 1.4997 3.792 3.0685 5.703 4.5675l-17.552-0.012c-1.995 0-3.1683 0.948-3.4155 2.334-0.218 1.223 0.748 2.738 2.4805 2.738 2.956 0.004 5.942-0.007 8.909-0.013l-15.902 11.765c-0.0206 0.015-0.0411 0.029-0.0616 0.045-1.4974 1.148-1.9832 3.059-1.04 4.268 0.9598 1.23 2.9978 1.231 4.5147 0.006l8.6778-7.102s-0.125 0.96-0.117 1.535z" fill-rule="evenodd" stroke="#ce5c00" fill="#f57900"/>
<path style="color:#000000" d="m42.75 25.75a11.562 10.125 0 1 1 -23.125 0 11.562 10.125 0 1 1 23.125 0z" transform="matrix(.82162 0 0 .83951 5.8757 3.8827)" fill="url(#linearGradient39161)"/>
<path opacity=".48571" d="m25.797 6.0268c-0.405 0.0005-0.819 0.1257-1.095 0.3196-0.001 0.0007-0.002 0.0014-0.002 0.0021-0.281 0.1957-0.337 0.368-0.346 0.4603-0.008 0.0923-0.013 0.1673 0.19 0.3346 0.019 0.0157 0.037 0.032 0.055 0.049 0.125 0.101 5.705 4.6386 5.705 4.6386 0.373 0.304 0.516 0.811 0.355 1.265s-0.589 0.382-1.071 0.384c-5.634 0.051-17.61 0.019-17.61 0.019-0.953 0.001-2.3471 0.517-2.4134 1.586-0.0636 1.025 0.9094 1.457 1.5784 1.457l8.83-0.017c0.489 0 0.923 0.222 1.081 0.684 0.157 0.462 0.003 0.532-0.384 0.83l-15.901 12.205c-0.0014 0.002-0.0029 0.003-0.0043 0.005-0.064 0.048-0.0848 0.062-0.0618 0.044-0.5537 0.425-0.8961 0.981-1.0186 1.477-0.1224 0.496-0.0465 0.883 0.1876 1.183 0.4788 0.613 1.7693 0.732 2.898-0.179l8.6727-7.098c0.362-0.296 0.868-0.341 1.276-0.113 0.408 0.227 0.637 0.681 0.576 1.144 0 0-0.113 0.98-0.107 1.37 0.193 2.637 1.449 4.915 3.116 6.915 2.877 3.173 6.849 4.556 11.042 4.72 4.203-0.044 8.186-1.663 11.042-4.758 5.219-6.386 3.942-13.364-1.747-17.994-4.497-3.658-9.214-7.0808-13.821-10.62-0.004-0.0035-0.009-0.0071-0.013-0.0106-0.007-0.0049-0.014-0.0099-0.021-0.015-0.211-0.1611-0.585-0.2882-0.989-0.2876z" stroke="url(#linearGradient34576)" fill="none"/>
<path fill-rule="evenodd" fill="#3465a4" d="m26.007 24.754c0.075-1.361 0.739-2.563 1.739-3.413 0.983-0.836 2.304-1.347 3.747-1.347 1.441 0 2.762 0.511 3.745 1.347 1.001 0.85 1.665 2.051 1.74 3.412 0.077 1.401-0.483 2.702-1.464 3.665-1.001 0.982-2.427 1.598-4.021 1.598-1.596 0-3.022-0.616-4.023-1.598-0.982-0.963-1.54-2.264-1.463-3.664z"/>
<path opacity="0.52" d="m25.812 6.0312c-0.404 0.0006-0.848 0.1186-1.124 0.3126-0.281 0.1956-0.336 0.3764-0.344 0.4687-0.009 0.0923-0.016 0.1765 0.187 0.3437 0.019 0.0158 0.045 0.0144 0.063 0.0313 0.124 0.101 5.718 4.6565 5.718 4.6565 0.374 0.304 0.505 0.796 0.344 1.25-0.16 0.454-0.58 0.373-1.062 0.375-5.634 0.051-17.625 0.031-17.625 0.031-0.953 0.001-2.3402 0.525-2.4065 1.594-0.0636 1.025 0.9245 1.437 1.5935 1.437h8.813c0.488 0 0.936 0.226 1.093 0.688 0.158 0.462-0.019 0.514-0.406 0.812l-15.875 12.219c-0.0014 0.001-0.0298-0.001-0.0312 0-0.064 0.049-0.0542 0.049-0.0312 0.031-0.5537 0.425-0.9088 1.004-1.0313 1.5s-0.0466 0.856 0.1875 1.157c0.4788 0.613 1.7776 0.754 2.9062-0.157 0.0001 0 8.6568-7.093 8.6568-7.093 0.361-0.296 0.872-0.353 1.281-0.126 0.408 0.228 0.623 0.693 0.562 1.157 0 0-0.099 0.953-0.093 1.343 0.094 1.302 0.451 2.522 0.989 3.665 2.623 4.594 9.594-12.334 26.011-10.696-0.848-1.487-2.037-2.846-3.532-4.062-4.496-3.659-9.236-7.0861-13.844-10.625-0.007-0.0049-0.024-0.0262-0.031-0.0313-0.21-0.1612-0.564-0.2818-0.969-0.2813z" fill-rule="evenodd" fill="url(#radialGradient39177)"/>
</g>
</svg>
