<svg xmlns="http://www.w3.org/2000/svg" height="39.915" width="45.855" version="1" viewBox="0 0 45.855244 39.915382"><defs><linearGradient id="c" x1="185.99" gradientUnits="userSpaceOnUse" y1="193.33" gradientTransform="matrix(.0682 0 0 .0682 22.51 27.03)" x2="190.46" y2="-458.06"><stop stop-color="#FFF" offset="0"/><stop stop-color="#FFF" stop-opacity="0" offset="1"/></linearGradient><radialGradient id="a" gradientUnits="userSpaceOnUse" cy="38.984" cx="28.019" gradientTransform="matrix(1 0 0 .34286 0 25.618)" r="15.468"><stop offset="0"/><stop stop-opacity="0" offset="1"/></radialGradient><linearGradient id="b" y2="34.375" gradientUnits="userSpaceOnUse" y1="18.875" x2="29.875" x1="31.188"><stop stop-color="#FFF" offset="0"/><stop stop-color="#DADADA" offset="1"/></linearGradient><radialGradient id="d" gradientUnits="userSpaceOnUse" cy="19.669" cx="26.109" gradientTransform="matrix(1.6472 0 0 1.268 -15.474 -5.798)" r="20.279"><stop stop-color="#FFF" offset="0"/><stop stop-color="#FFF" stop-opacity="0" offset="1"/></radialGradient></defs><path opacity=".549" d="M43.487 38.984a15.468 5.303 0 1 1-30.936 0 15.468 5.303 0 1 1 30.937 0z" transform="matrix(1.2743 0 0 1.377 -9.56 -21.074)" fill="url(#a)" color="#000"/><path d="M14.057 23.72c.01.578.197 1.7.472 2.58a13.59 13.59 0 0 0 2.938 5.085 15.185 15.185 0 0 0 5.14 3.69 16.527 16.527 0 0 0 6.75 1.404 16.583 16.583 0 0 0 6.748-1.428 15.3 15.3 0 0 0 5.138-3.706c1.37-1.52 2.352-3.24 2.934-5.096.294-.938.477-1.89.553-2.845a13.154 13.154 0 0 0-1.964-7.952 14.367 14.367 0 0 0-3.417-3.766v-.002L25.524 1.064l-.035-.027c-.91-.696-2.435-.694-3.432.005-1.01.706-1.092 1.81-.196 2.548 1.9 1.5 3.792 3.07 5.703 4.568L10.01 8.146c-1.994 0-3.167.948-3.414 2.334-.218 1.223.748 2.738 2.48 2.738 2.956.004 5.942-.007 8.91-.013L2.082 24.97l-.06.045c-1.5 1.148-1.985 3.06-1.04 4.268.958 1.23 2.996 1.23 4.513.006l8.678-7.103s-.125.96-.117 1.535z" fill-rule="evenodd" stroke="#ce5c00" fill="#f57900"/><path d="M42.75 25.75a11.562 10.125 0 1 1-23.125 0 11.562 10.125 0 1 1 23.125 0z" transform="matrix(.82162 0 0 .8395 3.885 -.49)" fill="url(#b)" color="#000"/><path opacity=".486" d="M25.797 6.027c-.405 0-.82.125-1.095.32H24.7c-.28.197-.337.37-.346.462-.008.09-.013.166.19.333.02.016.037.032.055.05l5.704 4.638c.373.305.516.812.355 1.266s-.59.382-1.072.384c-5.634.05-17.61.02-17.61.02-.953 0-2.347.516-2.413 1.585-.064 1.025.91 1.457 1.578 1.457l8.83-.017c.49 0 .923.222 1.08.684.158.46.004.53-.383.83L4.77 30.243l-.005.005c-.064.047-.085.06-.062.043-.554.425-.896.98-1.02 1.477-.12.496-.045.883.19 1.183.478.613 1.768.732 2.897-.18l8.673-7.097a1.138 1.138 0 0 1 1.852 1.03s-.113.98-.107 1.37c.193 2.638 1.45 4.916 3.116 6.916 2.877 3.173 6.85 4.556 11.042 4.72 4.203-.044 8.186-1.663 11.042-4.758 5.22-6.386 3.942-13.364-1.747-17.994-4.496-3.658-9.213-7.08-13.82-10.62l-.013-.01a1.364 1.364 0 0 1-.02-.016c-.212-.16-.586-.288-.99-.287z" stroke="url(#c)" fill="none" transform="translate(-1.99 -4.372)"/><path fill-rule="evenodd" fill="#3465a4" d="M24.017 20.382c.075-1.36.74-2.563 1.74-3.413.982-.837 2.303-1.348 3.746-1.348 1.44 0 2.762.51 3.745 1.347 1 .85 1.665 2.05 1.74 3.41.077 1.402-.483 2.703-1.464 3.666-1 .982-2.427 1.598-4.02 1.598-1.597 0-3.023-.616-4.024-1.598-.982-.963-1.54-2.264-1.463-3.664z"/><path opacity=".52" d="M25.812 6.03c-.404.002-.848.12-1.124.314-.28.195-.336.376-.344.468-.01.093-.016.177.187.344.02.016.046.015.064.032l5.718 4.656c.374.304.505.796.344 1.25-.16.454-.58.373-1.062.375-5.634.05-17.625.03-17.625.03-.954 0-2.34.525-2.407 1.594-.064 1.025.924 1.437 1.593 1.437h8.813c.487 0 .935.227 1.092.69.158.46-.02.513-.406.81L4.78 30.25h-.03c-.064.05-.054.05-.03.03-.555.426-.91 1.005-1.033 1.5s-.046.857.188 1.158c.48.613 1.777.754 2.906-.157l8.658-7.092a1.15 1.15 0 0 1 1.28-.126c.41.228.624.693.563 1.157 0 0-.098.952-.092 1.342.094 1.302.45 2.522.99 3.665C20.8 36.32 27.77 19.393 44.187 21.03c-.848-1.486-2.037-2.845-3.532-4.06-4.496-3.66-9.236-7.087-13.844-10.626-.007-.005-.024-.026-.03-.03-.21-.162-.565-.283-.97-.283z" fill-rule="evenodd" fill="url(#d)" transform="translate(-1.99 -4.372)"/></svg>