<svg xmlns:rdf="http://www.w3.org/1999/02/22-rdf-syntax-ns#" xmlns="http://www.w3.org/2000/svg" version="1.1" xml:space="preserve" enable-background="new 0 0 128 128" y="0px" x="0px" xmlns:cc="http://creativecommons.org/ns#" xmlns:dc="http://purl.org/dc/elements/1.1/" viewBox="0 0 120 120"><linearGradient id="SVGID_1_" y2="113" gradientUnits="userSpaceOnUse" y1="3" gradientTransform="translate(-4,-3)" x2="64" x1="64"><stop stop-color="#29ABE2" offset="0"/><stop stop-color="#28A9E1" offset=".4757"/><stop stop-color="#23A2DC" offset=".6639"/><stop stop-color="#1A96D4" offset=".8012"/><stop stop-color="#0E85C9" offset=".913"/><stop stop-color="#0071BC" offset="1"/></linearGradient><path fill="url(#SVGID_1_)" d="m120 85.973c0 13.217-10.81 24.027-24.027 24.027h-71.946c-13.215 0-24.027-10.81-24.027-24.027v-61.946c0-13.215 10.812-24.027 24.027-24.027h71.945c13.218 0 24.028 10.812 24.028 24.027v61.946z"/><path fill="#115a91" d="m95.973 110h-71.946c-13.215 0-24.027-10.81-24.027-24.027v10c0 13.217 10.812 24.027 24.027 24.027h71.945c13.218 0 24.028-10.81 24.028-24.027v-10c0 13.217-10.81 24.027-24.027 24.027z"/><path fill="#fff" d="m106 83.966c0 6.646-5.39 12.034-12.034 12.034h-67.932c-6.646 0-12.034-5.388-12.034-12.034v-57.932c0-6.646 5.388-12.034 12.034-12.034h67.932c6.644 0 12.034 5.388 12.034 12.034v57.932z"/><path fill="#4d4d4d" d="m55 24v14h-17v32h17v15h-32v-61h32z"/><path fill="#4d4d4d" d="m95 24v61h-32v-15h18v-32h-18v-14h32z"/></svg>
