<svg xmlns:rdf="http://www.w3.org/1999/02/22-rdf-syntax-ns#" xmlns="http://www.w3.org/2000/svg" enable-background="new 0 0 128 128" xml:space="preserve" version="1.1" y="0px" x="0px" xmlns:cc="http://creativecommons.org/ns#" xmlns:dc="http://purl.org/dc/elements/1.1/" viewBox="0 0 128 128"><metadata><rdf:RDF><cc:Work rdf:about=""><dc:format>image/svg+xml</dc:format><dc:type rdf:resource="http://purl.org/dc/dcmitype/StillImage"/><dc:title/></cc:Work></rdf:RDF></metadata><linearGradient id="SVGID_1_" y2="113" gradientUnits="userSpaceOnUse" x2="64" y1="3" x1="64"><stop stop-color="#29ABE2" offset="0"/><stop stop-color="#28A9E1" offset="0.4757"/><stop stop-color="#23A2DC" offset="0.6639"/><stop stop-color="#1A96D4" offset="0.8012"/><stop stop-color="#0E85C9" offset="0.913"/><stop stop-color="#0071BC" offset="1"/></linearGradient><path d="M124,88.973c0,13.217-10.81,24.027-24.027,24.027h-71.946c-13.215,0-24.027-10.81-24.027-24.027v-61.946c0-13.215,10.812-24.027,24.027-24.027h71.945c13.218,0,24.028,10.812,24.028,24.027v61.946z" fill="url(#SVGID_1_)"/><path d="M99.973,113h-71.946c-13.215,0-24.027-10.81-24.027-24.027v10c0,13.217,10.812,24.027,24.027,24.027h71.945c13.218,0,24.028-10.81,24.028-24.027v-10c0,13.217-10.81,24.027-24.027,24.027z" fill="#115A91"/><path d="M110,86.966c0,6.646-5.39,12.034-12.034,12.034h-67.932c-6.646,0-12.034-5.388-12.034-12.034v-57.932c0-6.646,5.388-12.034,12.034-12.034h67.932c6.644,0,12.034,5.388,12.034,12.034v57.932z" fill="#FFF"/><path d="M59,27v14h-17v32h17v15h-32v-61h32z" fill="#4D4D4D"/><path d="M99,27v61h-32v-15h18v-32h-18v-14h32z" fill="#4D4D4D"/></svg>
