<svg id="chrome" xmlns="http://www.w3.org/2000/svg" enable-background="new 0 0 648.371 170.775" xml:space="preserve" viewBox="0 0 170.21801 170.27679" width="100%" height="100%" version="1.1" y="0px" x="0px">
<circle cy="85.713" transform="translate(2.1317774e-4,-0.24996129)" cx="85.314" r="83.805" fill="#FFF"/>
<path fill-opacity="0.1" d="m138.64,100.7c0-29.454-23.877-53.331-53.33-53.331-29.454,0-53.331,23.877-53.331,53.331h15.237c0-21.039,17.055-38.094,38.093-38.094s38.093,17.055,38.093,38.094"/>
<circle fill-opacity="0.1" cy="96.379" transform="translate(2.1317774e-4,-0.24996129)" cx="89.123" r="28.951"/>
<linearGradient id="circle53_2_" y2="581.44" gradientUnits="userSpaceOnUse" x2="-175.67" gradientTransform="matrix(82,0,0,-82,14489.971,47794.699)" y1="582.2" x1="-175.67">
<stop stop-color="#81B4E0" offset="0"/>
<stop stop-color="#0C5A94" offset="1"/>
</linearGradient>
<circle cy="85.712" transform="translate(2.1317774e-4,-0.24996129)" cx="85.314" r="31.236" fill="url(#circle53_2_)"/>
<linearGradient id="path55_2_" y2="181.06" gradientUnits="userSpaceOnUse" x2="-114.52" gradientTransform="matrix(1,0,0,-1,202.50021,250.52594)" y1="250.39" x1="-114.52">
<stop stop-color="#F06B59" offset="0"/>
<stop stop-color="#DF2227" offset="1"/>
</linearGradient>
<path fill="url(#path55_2_)" d="m161.5,47.369c-20.975-42.2-72.188-59.407-114.39-38.433-13.159,6.54-24.405,16.367-32.65,28.53l34.284,59.425c-6.314-20.068,4.837-41.456,24.905-47.769,3.529-1.11,7.203-1.701,10.902-1.752"/>
<linearGradient id="path57_2_" y2="162.31" gradientUnits="userSpaceOnUse" x2="-146.69" gradientTransform="matrix(1,0,0,-1,202.50021,250.52594)" y1="104.41" x1="-181.74">
<stop stop-color="#388B41" offset="0"/>
<stop stop-color="#4CB749" offset="1"/>
</linearGradient>
<path fill="url(#path57_2_)" d="m14.461,37.466c-26.241,39.144-15.781,92.148,23.363,118.39,12.111,8.119,26.1,12.999,40.633,14.175l35.808-60.948c-13.389,16.228-37.397,18.529-53.625,5.14-5.512-4.547-9.634-10.552-11.895-17.33"/>
<linearGradient id="path59_2_" y2="188.15" gradientUnits="userSpaceOnUse" x2="-101.67" gradientTransform="matrix(1,0,0,-1,202.50021,250.52594)" y1="98.252" x1="-64.337">
<stop stop-color="#E4B022" offset="0"/>
<stop stop-color="#FCD209" offset="0.3"/>
</linearGradient>
<path fill="url(#path59_2_)" d="m78.457,170.03c46.991,3.552,87.965-31.662,91.518-78.653,1.146-15.162-1.779-30.354-8.476-44.007h-76.948c21.037,0.097,38.014,17.23,37.917,38.268-0.039,8.511-2.928,16.766-8.205,23.444"/>
<linearGradient id="path61_2_" y2="216.87" gradientUnits="userSpaceOnUse" x2="-170.14" gradientTransform="matrix(1,0,0,-1,202.50021,250.52594)" y1="155.92" x1="-170.14">
<stop stop-color="#000" stop-opacity="0.15" offset="0"/>
<stop stop-color="#000" stop-opacity="0.06" offset="0.3"/>
<stop stop-color="#000" stop-opacity="0.03" offset="1"/>
</linearGradient>
<path fill="url(#path61_2_)" d="m14.461,37.466,34.284,59.425c-2.54-8.547-2-17.714,1.523-25.904l-34.284-35.807"/>
<linearGradient id="path63_2_" y2="93.575" gradientUnits="userSpaceOnUse" x2="-127.91" gradientTransform="matrix(1,0,0,-1,202.50021,250.52594)" y1="136.24" x1="-86.009">
<stop stop-color="#000" stop-opacity="0.15" offset="0"/>
<stop stop-color="#000" stop-opacity="0.06" offset="0.3"/>
<stop stop-color="#000" stop-opacity="0.03" offset="1"/>
</linearGradient>
<path fill="url(#path63_2_)" d="m78.457,170.03,35.808-60.948c-5.65,6.737-13.456,11.312-22.094,12.951l-15.238,47.997"/>
<linearGradient id="path65_2_" y2="184.15" gradientUnits="userSpaceOnUse" x2="-80.521" gradientTransform="matrix(1,0,0,-1,202.50021,250.52594)" y1="123.96" x1="-86.616">
<stop stop-color="#000" stop-opacity="0.15" offset="0"/>
<stop stop-color="#000" stop-opacity="0.06" offset="0.3"/>
<stop stop-color="#000" stop-opacity="0.03" offset="1"/>
</linearGradient>
<path fill="url(#path65_2_)" d="M161.5,47.369h-76.948c11.59,0.054,22.526,5.381,29.712,14.476l48.759-12.19"/>
</svg>
