<svg xmlns="http://www.w3.org/2000/svg" viewBox="0 0 89.1875 83.971909"><title>Cyangenmod&apos;s Cid</title><path fill="#6199b9" d="M13.53 0a2.953 2.953 0 0 0-2.938 2.938v17.75C3.662 23.828-.002 28.846-.002 36.532v26.97c0 15.306 14.51 20.012 40.5 20.436v.032h1.625c.814.007 1.634 0 2.47 0s1.654.007 2.468 0h.126c26.938-.267 42-4.866 42-20.47V36.533c0-7.08-3.127-11.892-9.03-15.062V2.94c0-1.612-1.296-2.94-2.907-2.94-1.61 0-2.908 1.327-2.908 2.94v16.187c-7.38-2.233-17.394-3.063-29.75-3.063-1.39 0-2.73.01-4.062.03h-.03c-9.667.16-17.73.898-24.063 2.564V2.938c0-1.61-1.295-2.937-2.906-2.937zm-2.875 43.906l24.938 4.813c.156 1.329.11 2.707-.156 4.092-1.394 7.23-8.365 11.956-15.594 10.562C12.613 61.98 7.855 55.01 9.25 47.78c.266-1.385.766-2.7 1.405-3.875zm67.875 0c.64 1.176 1.14 2.49 1.406 3.875 1.394 7.23-3.362 14.2-10.594 15.595-7.23 1.394-14.2-3.334-15.594-10.562a13.355 13.355 0 0 1-.156-4.094l24.938-4.813zm-39.062 24.72h10.25c.005.076.03.14.03.218a3.75 3.75 0 0 1-3.75 3.75h-2.81a3.75 3.75 0 0 1-3.75-3.75c0-.08.025-.14.03-.22z"/></svg>