<svg xmlns:rdf="http://www.w3.org/1999/02/22-rdf-syntax-ns#" xmlns="http://www.w3.org/2000/svg" height="100%" width="100%" version="1.1" xmlns:cc="http://creativecommons.org/ns#" xmlns:dc="http://purl.org/dc/elements/1.1/" viewBox="0 0 89.1875 83.971909">
<title>Cyangenmod&apos;s Cid</title>
<g transform="translate(-277.04 -529.61)">
<path fill="#6199b9" d="m290.57 529.61c-1.61 0-2.9375 1.3262-2.9375 2.9375v17.75c-6.93 3.14-10.594 8.1588-10.594 15.844v26.969c0 15.308 14.509 20.014 40.5 20.438v0.0312h1.625c0.81375 0.007 1.6338 0 2.4688 0s1.655 0.007 2.4688 0h0.125c26.938-0.26625 42-4.8662 42-20.469v-26.969c0-7.0788-3.1275-11.892-9.0312-15.062v-18.531c0-1.6112-1.295-2.9375-2.9062-2.9375-1.61 0-2.9062 1.3262-2.9062 2.9375v16.188c-7.38-2.2325-17.394-3.0625-29.75-3.0625-1.3912 0-2.73 0.009-4.0625 0.0312h-0.0312c-9.6662 0.1575-17.729 0.89625-24.062 2.5625v-15.719c0-1.6112-1.295-2.9375-2.9062-2.9375zm-2.875 43.906 24.938 4.8125c0.15625 1.33 0.11125 2.7088-0.15625 4.0938-1.3938 7.2288-8.365 11.956-15.594 10.562-7.2312-1.3938-11.988-8.365-10.594-15.594 0.2675-1.385 0.7675-2.6988 1.4062-3.875zm67.875 0c0.63875 1.1762 1.1388 2.49 1.4062 3.875 1.3938 7.2288-3.3625 14.2-10.594 15.594-7.2288 1.3938-14.2-3.3338-15.594-10.562-0.2675-1.385-0.3125-2.7638-0.15625-4.0938l24.938-4.8125zm-39.062 24.719h10.25c0.005 0.0775 0.0312 0.13995 0.0312 0.21875 0 2.0712-1.6788 3.75-3.75 3.75h-2.8125c-2.07 0-3.75-1.6788-3.75-3.75 0-0.0788 0.0263-0.14125 0.0312-0.21875z"/>
</g>
</svg>
