<svg xmlns="http://www.w3.org/2000/svg" xmlns:xlink="http://www.w3.org/1999/xlink" viewBox="0 0 100 100">
    <defs>
        <linearGradient id="h" y2="21.27" gradientUnits="userSpaceOnUse" y1="26.652" gradientTransform="matrix(1.0254 0 0 .9573 0 -.807)" x2="-2.758" x1="73.362">
            <stop stop-color="#FFF" offset="0"/>
            <stop stop-color="#FFF" stop-opacity="0" offset="1"/>
        </linearGradient>
        <linearGradient id="f" y2="22.133" gradientUnits="userSpaceOnUse" y1="22.133" gradientTransform="matrix(.95775 0 0 1.028 1 -.572)" x2="14.511" x1="6.587">
            <stop stop-color="#d6e3f0" offset="0"/>
            <stop stop-color="#95b1cf" offset="1"/>
        </linearGradient>
        <linearGradient id="e" y2="84.287" gradientUnits="userSpaceOnUse" x2="10.22" gradientTransform="matrix(2.2627 0 0 .44194 1 -.875)" y1="93.338" x1="10.496">
            <stop stop-color="#FFF" offset="0"/>
            <stop stop-color="#cbcbcb" offset="1"/>
        </linearGradient>
        <linearGradient id="g" y2="4.953" gradientUnits="userSpaceOnUse" x2="41.219" gradientTransform="matrix(.254 0 0 3.7598 .79 .15)" y1="4.953" x1="35.433">
            <stop stop-opacity=".069" offset="0"/>
            <stop stop-color="#FFF" offset="1"/>
        </linearGradient>
        <linearGradient id="b" y2="609.51" gradientUnits="userSpaceOnUse" y1="366.65" gradientTransform="matrix(2.7744 0 0 1.9697 -1892.2 -872.89)" x2="302.86" x1="302.86">
            <stop stop-opacity="0" offset="0"/>
            <stop offset=".5"/>
            <stop stop-opacity="0" offset="1"/>
        </linearGradient>
        <radialGradient id="c" xlink:href="#a" gradientUnits="userSpaceOnUse" cy="486.65" cx="605.71" gradientTransform="matrix(2.7744 0 0 1.9697 -1891.6 -872.89)" r="117.14"/>
        <linearGradient id="a">
            <stop offset="0"/>
            <stop stop-opacity="0" offset="1"/>
        </linearGradient>
        <radialGradient id="d" xlink:href="#a" gradientUnits="userSpaceOnUse" cy="486.65" cx="605.71" gradientTransform="matrix(-2.7744 0 0 1.9697 112.76 -872.89)" r="117.14"/>
    </defs>
    <g stroke-linejoin="round" stroke-linecap="round" color="#000">
        <path d="M33.096 4.652h7.425c.708 0 1.238.177 1.415 1.06l.884 6.895c.087 1.06-.377 1.414-1.327 1.414H32.92l.176-9.368z" fill-rule="evenodd" stroke="#c4a000" fill="#edd400" transform="matrix(2.22792 0 0 2.2061 -6.125 -8.328)"/>
        <path opacity=".485" d="M34.103 5.64h6.36c.31 0 .477.03.523.32l.792 6.385c.07.43.182.675-.14.69h-7.674l.14-7.396z" stroke="#FFF" fill="none" transform="matrix(2.22792 0 0 2.2061 -6.125 -8.328)"/>
        <path d="M35.596 12.402h7.425c.708 0 1.238.177 1.415 1.06l.884 6.895c.087 1.06-.377 1.414-1.327 1.414H35.42l.176-9.368z" fill-rule="evenodd" stroke="#727e0a" fill="#9db029" transform="matrix(2.22792 0 0 2.2061 -6.125 -8.328)"/>
        <path opacity=".485" d="M36.603 13.39h6.36c.31 0 .477.03.523.32l.792 6.385c.07.43.182.675-.14.69h-7.674l.14-7.396z" stroke="#FFF" fill="none" transform="matrix(2.22792 0 0 2.2061 -6.125 -8.328)"/>
        <path d="M36.065 20.776h8.445c.805 0 1.408.22 1.61 1.316l1.004 8.557c.1 1.315-.427 1.754-1.508 1.754h-9.752l.2-11.628z" fill-rule="evenodd" stroke="#c00" fill="#ef2929" transform="matrix(2.22792 0 0 2.2061 -6.125 -8.328)"/>
        <path opacity=".485" d="M37.21 21.764h7.234c.35 0 .542.038.594.41l.9 8.117c.08.55.208.86-.16.878H37.05l.16-9.404z" stroke="#FFF" fill="none" transform="matrix(2.22792 0 0 2.2061 -6.125 -8.328)"/>
    </g>
    <g color="#000">
        <path opacity=".402" fill="url(#b)" d="M-1559.3-150.7h1339.6v478.36h-1339.6z" transform="matrix(.0469 0 0 .04604 89.346 80.9)"/>
        <path opacity=".402" d="M-219.62-150.68v478.33c142.87.9 345.4-107.17 345.4-239.2s-159.44-239.13-345.4-239.13z" fill="url(#c)" transform="matrix(.0469 0 0 .04604 89.346 80.9)"/>
        <path opacity=".402" d="M-1559.3-150.68v478.33c-142.87.9-345.4-107.17-345.4-239.2s159.44-239.13 345.4-239.13z" fill="url(#d)" transform="matrix(.0469 0 0 .04604 89.346 80.9)"/>
        <path stroke-linejoin="round" d="M6.364 5.52c.09-1.916 1.008-2.966 2.715-2.97l29.326-.09c.246-.002.568.2.593.45l3.258 32.957-1.316.057.63 6.445c.06.623-.182 1.158-1.072 1.162l-30.71.145c-2.534.012-5.137-2.078-5.015-4.654l1.59-33.505z" stroke="#364878" stroke-linecap="round" fill="#5b6b94" transform="matrix(2.22792 0 0 2.2061 -6.125 -8.328)"/>
        <path fill="url(#e)" d="M40.125 34.875L10.938 35c-1.557.178-2.813 1.396-2.813 3s1.256 2.822 2.813 3l29.188.125v-.063c-1.656-.078-3-1.387-3-3.062s1.344-2.984 3-3.063v-.062z" transform="matrix(2.22792 0 0 2.2061 -6.125 -8.328)"/>
        <path fill="url(#f)" d="M9.688 2.813c-1.707 0-2.638 1.008-2.72 2.86L5.314 37.827c-.092 3.078 1.826 4.828 3.812 5.33-4.25-1.63-3.688-8.992 1.625-8.96h30.898L38.336 3.242c-.026-.24-.348-.43-.594-.43H9.686z" transform="matrix(2.22792 0 0 2.2061 -6.125 -8.328)"/>
        <path opacity=".48" transform="matrix(2.22792 0 -.07982 2.2047 -6.125 -8.328)" fill="url(#g)" d="M9.79 3.97h2v29.604h-2z"/>
    </g>
    <path d="M9.875 3.334c-1.684 0-2.337.732-2.417 2.554l-1.3 29.89c.935-1.608 2.44-2.184 4.854-2.184h29.95L38.138 3.757c-.023-.237-.343-.424-.586-.424H9.876z" stroke="url(#h)" stroke-linecap="round" stroke-miterlimit="20" fill="none" color="#000" transform="matrix(2.22792 0 0 2.2061 -6.125 -8.328)"/>
    <path d="M40.942 32.222c-.168 2.473.32 4.42 1.464 5.837 1.145 1.4 2.8 2.1 4.966 2.1 2.15 0 3.882-.71 5.2-2.127 1.337-1.418 2.088-3.355 2.254-5.81.164-2.422-.334-4.34-1.495-5.76-1.16-1.435-2.805-2.152-4.936-2.152-2.113 0-3.846.71-5.2 2.128-1.336 1.418-2.087 3.346-2.252 5.784m13.752 7.756c-1.138 1.332-2.41 2.318-3.816 2.958-1.387.622-2.98.934-4.778.934-3.004 0-5.377-1.073-7.117-3.217-1.723-2.162-2.467-4.972-2.232-8.43.235-3.46 1.37-6.27 3.402-8.43 2.032-2.163 4.542-3.244 7.528-3.244 1.8 0 3.357.328 4.675.985 1.32.64 2.45 1.617 3.39 2.93l.23-3.397h3.747l-1.292 19.09c2.575-.38 4.644-1.53 6.207-3.45 1.58-1.938 2.475-4.437 2.682-7.498.124-1.85-.037-3.588-.486-5.214a13.235 13.235 0 0 0-2.183-4.513 16.303 16.303 0 0 0-6.3-5.19c-2.52-1.21-5.318-1.814-8.392-1.814a22.76 22.76 0 0 0-6.24.855 20.878 20.878 0 0 0-5.644 2.49 20.718 20.718 0 0 0-6.916 6.952 20.308 20.308 0 0 0-2.935 9.287c-.186 2.75.137 5.326.97 7.73a17.304 17.304 0 0 0 3.943 6.355 16.95 16.95 0 0 0 6.088 4.098c2.346.95 4.89 1.426 7.632 1.426 2.253 0 4.488-.38 6.705-1.14a22.458 22.458 0 0 0 6.218-3.218l2.163 2.88a26.973 26.973 0 0 1-7.41 3.84c-2.63.898-5.27 1.348-7.926 1.348-3.23 0-6.24-.57-9.026-1.712a20.963 20.963 0 0 1-7.316-4.93 20.084 20.084 0 0 1-4.6-7.496c-.977-2.853-1.354-5.914-1.133-9.183a24.242 24.242 0 0 1 2.39-9 24.877 24.877 0 0 1 5.593-7.524 25.43 25.43 0 0 1 8.148-5.033 26.034 26.034 0 0 1 9.5-1.764c3.7 0 7.082.752 10.14 2.257 3.078 1.504 5.596 3.64 7.557 6.407a17.622 17.622 0 0 1 2.612 5.525c.563 1.99.772 4.047.628 6.174-.308 4.548-1.94 8.137-4.895 10.765-2.955 2.63-6.88 3.996-11.778 4.1l.27-3.995" fill="#ad7fa8"/>
</svg>
