<svg xmlns="http://www.w3.org/2000/svg" viewBox="0 0 99.999597 100.0002" height="100%" width="100%" version="1.1">
<g transform="matrix(0.10204037,0,0,0.10204106,1.7249971e-5,-1.7250029e-5)">
<circle stroke-width="100" d="M 930,490 C 930,733.00529 733.00529,930 490,930 246.99471,930 50,733.00529 50,490 50,246.99471 246.99471,50 490,50 733.00529,50 930,246.99471 930,490 z" cy="490" stroke="#333" cx="490" r="440" fill="none"/>
<path d="m486,215c-130,0-239,91-267,213h131c24-52,76-88,136-88,83,0,150,67,150,150s-67,150-150,150c-60,0-112-36-136-87h-131c28,121,137,212,267,212,152,0,275-123,275-275s-123-275-275-275z" fill="#333"/>
</g>
</svg>
