<svg xmlns="http://www.w3.org/2000/svg" viewBox="0 0 297.45001 419.87601" height="419.88" width="297.45">
    <title>
        CSS3 Logo
    </title>
    <g fill="none">
        <path fill="#131313" d="M233.09 15.546H208.4l25.675 27.86v13.26h-52.882V41.14h25.67l-25.67-27.86V0h51.896v15.546zm-62.38 0h-24.687l25.673 27.86v13.26h-52.882V41.14h25.672l-25.672-27.86V0h51.897v15.546zm-61.767.63h-26.64V40.49h26.64v16.176H63.37V0h45.573v16.177z"/>
        <path fill="#1572b6" d="M27.07 386.155L0 82.535h297.45l-27.096 303.57-121.81 33.77-121.47-33.72z"/>
        <path fill="#33a9dc" d="M148.73 394.065l98.426-27.288 23.157-259.42h-121.58v286.7z"/>
        <path fill="#fff" d="M148.726 217.36H198l3.404-38.13h-52.678v-37.24H242.1l-.892 9.99-9.152 102.62h-83.33v-37.235z"/>
        <path fill="#ebebeb" d="M148.95 314.065l-.164.046-41.472-11.198-2.652-29.698h-37.38L72.5 331.68l76.277 21.177.172-.048v-38.745z"/>
        <path fill="#fff" d="M194.84 253.025l-4.485 49.87-41.532 11.21v38.742l76.34-21.158.56-6.29 6.477-72.375h-37.36z"/>
        <path fill="#ebebeb" d="M148.855 141.99v37.238H58.907l-.746-8.37-1.696-18.877-.89-9.99h93.28zm-.129 75.375v37.239h-40.948l-.745-8.37-1.698-18.877-.89-9.99h44.28z"/>
    </g>
</svg>
