<svg xmlns:rdf="http://www.w3.org/1999/02/22-rdf-syntax-ns#" xmlns="http://www.w3.org/2000/svg" viewBox="0 0 297.45001 419.87601" height="419.88" width="297.45" version="1.1" xmlns:cc="http://creativecommons.org/ns#" xmlns:dc="http://purl.org/dc/elements/1.1/">
<title>CSS3 Logo</title>
<g fill="none" transform="translate(-.071 -.135)">
<path fill="#131313" d="m233.16 15.681h-24.688l25.674 27.859v13.261h-52.882v-15.526h25.669l-25.669-27.86v-13.28h51.896v15.546zm-62.378 0h-24.688l25.673 27.859v13.261h-52.882v-15.526h25.672l-25.672-27.86v-13.28h51.897v15.546zm-61.768 0.631h-26.64v24.313h26.64v16.176h-45.574v-56.666h45.574v16.177z"/>
<path fill="#1572b6" d="m27.142 386.29-27.071-303.62h297.45l-27.096 303.57-121.81 33.77-121.47-33.72z"/>
<path fill="#33a9dc" d="m148.8 394.2 98.427-27.288 23.157-259.42h-121.58v286.7z"/>
<g transform="translate(55,142)">
<path fill="#fff" d="m93.797 75.496h49.275l3.403-38.132h-52.678v-37.239h0.129 93.246l-0.893 9.991-9.152 102.62h-83.33v-37.236z"/>
<path fill="#ebebeb" d="m94.02 172.2-0.163 0.046-41.472-11.199-2.652-29.698h-20.151-17.228l5.216 58.467 76.278 21.176 0.172-0.048v-38.744z"/>
<path fill="#fff" d="m139.91 111.16-4.484 49.87-41.532 11.21v38.742l76.339-21.158 0.56-6.29 6.478-72.374h-37.361z"/>
<path fill="#ebebeb" d="m93.926 0.125v23.128 14.019 0.092h-89.828-0.119l-0.747-8.37-1.697-18.878-0.89-9.991h93.281z"/>
<path fill="#ebebeb" d="m93.797 75.5v23.129 14.017 0.092h-40.828-0.119l-0.746-8.369-1.698-18.878-0.89-9.991h44.281z"/>
</g>
</g>
</svg>
