<svg xmlns:rdf="http://www.w3.org/1999/02/22-rdf-syntax-ns#" xmlns="http://www.w3.org/2000/svg" height="305.44" width="149.35" version="1.1" xmlns:cc="http://creativecommons.org/ns#" xmlns:dc="http://purl.org/dc/elements/1.1/" viewBox="0 0 149.34726 305.44214">
<g fill="#6199b9" transform="translate(-279.19 -442.8)">
<path d="m43.719 0c-1.61 0-2.9375 1.295-2.9375 2.9062v17.781c-6.93 3.14-10.562 8.1275-10.562 15.812v17.5 4.5312 4.9688c0 15.308 14.509 20.014 40.5 20.438v0.03125h1.5938c0.81375 0.007 1.6338 0 2.4688 0s1.655 0.0075 2.4688 0h0.125c26.938-0.26625 42-4.8662 42-20.469v-4.9688-4.5312-17.5c0-7.0788-3.0962-11.892-9-15.062v-18.531c0-1.611-1.33-2.906-2.94-2.906s-2.9062 1.295-2.9062 2.9062v16.188c-7.38-2.2325-17.394-3.0625-29.75-3.0625-1.3912 0-2.73 0.0401-4.0625 0.0625-9.6662 0.1575-17.76 0.89625-24.094 2.5625v-15.75c0.001-1.611-1.294-2.906-2.905-2.906zm-2.875 43.906 24.938 4.8125c0.156 1.331 0.11 2.71-0.157 4.094-1.394 7.229-8.365 11.957-15.594 10.563-7.231-1.394-11.956-8.396-10.562-15.625 0.2675-1.385 0.73625-2.6675 1.375-3.8438zm67.906 0c0.63875 1.1762 1.1075 2.4588 1.375 3.8438 1.3938 7.2288-3.3312 14.231-10.562 15.625-7.229 1.394-14.232-3.334-15.625-10.563-0.268-1.384-0.313-2.763-0.157-4.093l24.969-4.813zm-39.094 24.688h10.25c0.005 0.0775 0.03125 0.13995 0.03125 0.21875 0 2.0712-1.6788 3.75-3.75 3.75h-2.8125c-2.07 0-3.75-1.6788-3.75-3.75 0-0.07875 0.02625-0.14125 0.03125-0.21875z" transform="translate(279.19 442.8)"/>
<path d="m162.94 70.625c-15.412 0.76375-23.669 2.3575-27.719 3.75-5.5662 1.91-11.061 5.7125-13.406 11.844l-26.601 70.901c-3.1462 7.125 2.5362 10.116 7.3125 8.8125 5.1375-1.405 9.6225-3.2362 13.219-11.875 1.9638-4.715 17.906-45.219 17.906-45.219l-9.8125 174.31h13.312c6.1375 0 14.042-6.435 15.375-21.344l5.9062-81.375h4.5 0.65625 3.5625 1.5312 0.0312 0.5625 0.0312 1.5312 3.5625 0.65625 4.5l5.9062 81.375c1.3312 14.909 9.2375 21.344 15.375 21.344h13.281l-9.7812-174.31s15.942 40.504 17.906 45.219c3.595 8.6388 8.08 10.47 13.219 11.875 4.7762 1.3037 10.429-1.6875 7.2812-8.8125l-26.56-70.901c-2.35-6.131-7.84-9.934-13.41-11.844-4.05-1.3925-12.308-2.9862-27.719-3.75h-12.125zm6.06 26.906c11.536 0 20.938 9.3688 20.938 20.906 0 11.539-9.4012 20.938-20.938 20.938-11.539 0-20.938-9.3987-20.938-20.938 0-11.538 9.3987-20.906 20.938-20.906zm0 4.3125c-9.1613 0-16.625 7.435-16.625 16.594 0 9.1613 7.4637 16.625 16.625 16.625 9.1575 0 16.625-7.4638 16.625-16.625 0-9.1588-7.4675-16.594-16.625-16.594z" transform="translate(184.88 465.08)"/>
</g>
</svg>
