<svg xmlns="http://www.w3.org/2000/svg" height="305.44" width="149.35" viewBox="0 0 149.34726 305.44214"><g fill="#6199b9"><path d="M43.72 0c-1.61 0-2.938 1.295-2.938 2.906v17.78c-6.93 3.14-10.562 8.13-10.562 15.813v27c0 15.307 14.51 20.013 40.5 20.437v.03h1.593c.814.008 1.634 0 2.47 0s1.654.01 2.468 0h.126c26.938-.265 42-4.865 42-20.468v-27c0-7.08-3.096-11.893-9-15.063V2.907c0-1.612-1.33-2.907-2.94-2.907s-2.906 1.295-2.906 2.907v16.188c-7.38-2.233-17.394-3.063-29.75-3.063-1.39 0-2.73.04-4.063.063-9.666.157-17.76.896-24.094 2.562V2.907A2.897 2.897 0 0 0 43.718 0zm-2.876 43.906l24.938 4.813c.156 1.33.11 2.708-.157 4.093C64.23 60.04 57.26 64.77 50.03 63.374c-7.23-1.393-11.955-8.395-10.56-15.624a13.308 13.308 0 0 1 1.374-3.843zm67.906 0a13.307 13.307 0 0 1 1.375 3.844c1.394 7.23-3.33 14.23-10.562 15.625-7.23 1.394-14.232-3.334-15.625-10.563a13.34 13.34 0 0 1-.157-4.093l24.97-4.814zM69.656 68.594h10.25c.005.077.03.14.03.22a3.75 3.75 0 0 1-3.75 3.75h-2.81a3.75 3.75 0 0 1-3.75-3.75c0-.08.025-.142.03-.22zM68.63 92.905c-15.412.764-23.67 2.357-27.72 3.75-5.565 1.91-11.06 5.712-13.405 11.844l-26.6 70.9c-3.147 7.125 2.535 10.116 7.31 8.812 5.14-1.405 9.624-3.236 13.22-11.875 1.964-4.715 17.906-45.22 17.906-45.22l-9.81 174.31h13.31c6.138 0 14.043-6.434 15.376-21.343l5.906-81.375H85.25l5.906 81.374c1.33 14.91 9.238 21.344 15.375 21.344h13.28l-9.78-174.31s15.942 40.504 17.906 45.22c3.595 8.638 8.08 10.47 13.22 11.874 4.775 1.304 10.428-1.687 7.28-8.812l-26.56-70.9c-2.35-6.132-7.84-9.935-13.41-11.845-4.05-1.393-12.308-2.986-27.72-3.75H68.62zm6.06 26.906c11.536 0 20.938 9.37 20.938 20.907 0 11.54-9.4 20.938-20.938 20.938-11.54 0-20.938-9.4-20.938-20.938 0-11.538 9.4-20.906 20.938-20.906zm0 4.313c-9.16 0-16.625 7.435-16.625 16.594 0 9.162 7.464 16.625 16.625 16.625 9.158 0 16.625-7.463 16.625-16.625 0-9.158-7.468-16.594-16.625-16.594z"/></g></svg>