<!-- Created with Inkscape (http://www.inkscape.org/) -->
<svg xmlns:rdf="http://www.w3.org/1999/02/22-rdf-syntax-ns#" xmlns="http://www.w3.org/2000/svg" version="1.1" xmlns:cc="http://creativecommons.org/ns#" xmlns:dc="http://purl.org/dc/elements/1.1/" viewBox="0 0 149.34737 305.44214">
<defs></defs>
<metadata>
<rdf:RDF>
<cc:Work rdf:about="">
<dc:format>image/svg+xml</dc:format>
<dc:type rdf:resource="http://purl.org/dc/dcmitype/StillImage"/>
<dc:title/>
<cc:license rdf:resource="http://www.apache.org/licenses/LICENSE-2.0"/>
<dc:date>2014-01-28</dc:date>
<dc:source>http://upload.wikimedia.org/wikipedia/commons/5/56/CyanogenMod_Cid.svg</dc:source>
<dc:relation>Original</dc:relation>
<dc:language>English</dc:language>
<dc:description>Cyangenmod&apos;s Cid mascot, introduced in April 2012 to replace the previous mascot Andy</dc:description>
<dc:creator>
<cc:Agent>
<dc:title>CyanogenMod Team</dc:title>
</cc:Agent>
</dc:creator>
<dc:contributor>
<cc:Agent>
<dc:title>CyanogenMod Team, shgysk8zer0@gmail.com</dc:title>
</cc:Agent>
</dc:contributor>
<dc:subject>
<rdf:Bag>
<rdf:li>CyanogenMod</rdf:li>
<rdf:li>Android</rdf:li>
<rdf:li>Cid</rdf:li>
</rdf:Bag>
</dc:subject>
<dc:publisher>
<cc:Agent>
<dc:title>http://commons.wikimedia.org/wiki/Main_Page</dc:title>
</cc:Agent>
</dc:publisher>
<dc:identifier>Cid</dc:identifier>
<dc:rights>
<cc:Agent>
<dc:title>CyanogenMod</dc:title>
</cc:Agent>
</dc:rights>
</cc:Work>
</rdf:RDF>
</metadata>
<metadata>
<rdf:RDF>
<cc:Work rdf:about="">
<dc:format>image/svg+xml</dc:format>
<dc:type rdf:resource="http://purl.org/dc/dcmitype/StillImage"/>
<dc:title/>
</cc:Work>
</rdf:RDF>
</metadata>
<g fill-rule="nonzero" transform="translate(-279.19142,-442.79752)" fill="#6199b9">
<path d="M43.71875,0c-1.61,0-2.9375,1.295-2.9375,2.90625v17.78125c-6.93,3.14-10.5625,8.1275-10.5625,15.8125v17.5,4.53125,4.96875c0,15.3075,14.50875,20.01375,40.5,20.4375v0.03125h1.59375c0.81375,0.007,1.63375,0,2.46875,0s1.655,0.0075,2.46875,0h0.125c26.9375-0.26625,42-4.86625,42-20.46875v-4.96875-4.53125-17.5c0-7.07875-3.09625-11.8925-9-15.0625v-18.53125c0-1.61125-1.32625-2.90625-2.9375-2.90625-1.61,0-2.90625,1.295-2.90625,2.90625v16.1875c-7.38-2.2325-17.39375-3.0625-29.75-3.0625-1.39125,0-2.73,0.0401-4.0625,0.0625-9.66625,0.1575-17.76,0.89625-24.09375,2.5625v-15.75c0-1.61125-1.295-2.90625-2.90625-2.90625zm-2.875,43.90625l24.9375,4.8125c0.15625,1.33,0.11125,2.70875-0.15625,4.09375-1.39375,7.22875-8.365,11.95625-15.59375,10.5625-7.23125-1.39375-11.95625-8.39625-10.5625-15.625,0.2675-1.385,0.73625-2.6675,1.375-3.84375zm67.90625,0c0.63875,1.17625,1.1075,2.45875,1.375,3.84375,1.39375,7.22875-3.33125,14.23125-10.5625,15.625-7.22875,1.39375-14.23125-3.33375-15.625-10.5625-0.2675-1.385-0.3125-2.76375-0.15625-4.09375l24.96875-4.8125zm-39.09375,24.6875h10.25c0.005,0.0775,0.03125,0.13995,0.03125,0.21875,0,2.07125-1.67875,3.75-3.75,3.75h-2.8125c-2.07,0-3.75-1.67875-3.75-3.75,0-0.07875,0.02625-0.14125,0.03125-0.21875z" transform="translate(279.19142,442.79752)"/>
<path d="m162.9375,70.625c-15.4125,0.76375-23.66875,2.3575-27.71875,3.75-5.56625,1.91-11.06125,5.7125-13.40625,11.84375l-26.59375,70.90625c-3.14625,7.125,2.53625,10.11624,7.3125,8.8125,5.13749-1.405,9.6225-3.23625,13.21875-11.875,1.96375-4.715,17.90625-45.21875,17.90625-45.21875l-9.8125,174.3125h13.3125c6.13749,0,14.0425-6.43501,15.375-21.34375l5.90625-81.375h4.5,0.65625,3.5625,1.53125,0.0312,0.5625,0.0312,1.53125,3.5625,0.65625,4.5l5.90625,81.375c1.33125,14.90874,9.2375,21.34375,15.375,21.34375h13.28125l-9.78125-174.3125s15.9425,40.50375,17.90625,45.21875c3.595,8.63875,8.08,10.46999,13.21875,11.875,4.77625,1.30374,10.42875-1.6875,7.28125-8.8125l-26.5624-70.90625c-2.3475-6.13125-7.83875-9.93375-13.40625-11.84375-4.05-1.3925-12.3075-2.98625-27.71875-3.75h-12.125zm6.0625,26.90625c11.53625,0,20.9375,9.36875,20.9375,20.90625,0,11.53876-9.40125,20.9375-20.9375,20.9375-11.53876,0-20.9375-9.39874-20.9375-20.9375,0-11.5375,9.39874-20.90625,20.9375-20.90625zm0,4.3125c-9.16126,0-16.625,7.435-16.625,16.59375,0,9.16126,7.46374,16.625,16.625,16.625,9.15749,0,16.625-7.46375,16.625-16.625,0-9.15875-7.46751-16.59375-16.625-16.59375z" transform="translate(184.87885,465.08342)"/>
</g>
</svg>
