<svg xmlns="http://www.w3.org/2000/svg" viewBox="0 0 300 121">
    <path d="M38.866 26.308C17.72 26.308.1 35.278.1 62.344c0 21.442 11.85 34.944 39.312 34.944 32.326 0 34.398-21.294 34.398-21.294H58.146S54.788 87.46 38.456 87.46c-13.302 0-22.87-8.986-22.87-21.58H75.45v-7.904c0-12.46-7.91-31.668-36.582-31.668zm-.546 10.1c12.662 0 21.294 7.758 21.294 19.384h-43.68c0-12.343 11.266-19.383 22.385-19.383z" fill="#e53238"/>
    <path d="M75.438.1v83.597c0 4.745-.34 11.408-.34 11.408h14.94s.538-4.785.538-9.16c0 0 7.38 11.548 27.45 11.548 21.136 0 35.49-14.673 35.49-35.695 0-19.557-13.185-35.286-35.455-35.286-20.853 0-27.333 11.26-27.333 11.26V.1zM114.2 36.853c14.352 0 23.478 10.652 23.478 24.946 0 15.327-10.54 25.354-23.376 25.354-15.318 0-23.58-11.96-23.58-25.22 0-12.353 7.413-25.08 23.477-25.08z" fill="#0064d2"/>
    <path d="M190.65 26.308c-31.812 0-33.852 17.42-33.852 20.202h15.834s.83-10.17 16.926-10.17c10.46 0 18.564 4.788 18.564 13.992v3.276h-18.564c-24.645 0-37.674 7.21-37.674 21.84 0 14.4 12.038 22.233 28.307 22.233 22.172 0 29.315-12.25 29.315-12.25 0 4.873.376 9.675.376 9.675h14.077s-.546-5.952-.546-9.76V52.43c0-21.58-17.407-26.122-32.76-26.122zm17.472 37.128v4.368c0 5.697-3.515 19.86-24.212 19.86-11.333 0-16.192-5.655-16.192-12.216 0-11.935 16.364-12.012 40.404-12.012z" fill="#f5af02"/>
    <path d="M214.88 29.04h17.813l25.565 51.218 25.506-51.217H299.9l-46.46 91.184h-16.925l13.406-25.42z" fill="#86b817"/>
</svg>
