<svg width="209" height="250" version="1.1" viewBox="0 0 113.32 135.44" xmlns="http://www.w3.org/2000/svg">
	<path d="m11.318 26.233h12.721a1.318 1.318 0 001.315-1.314c0-.005-.154-10.902-.154-13.929v-.037c0-2.487.521-4.656 1.433-6.476l.433-.815a.267.267 0 00-.145.079l-24.7 24.493a.277.277 0 00-.092.145c.511-.253 1.21-.6 1.308-.643 2.149-.972 4.758-1.503 7.881-1.503z" fill="#74bb44"/>
	<path d="m46.037.0010066c-6.2053-.24192-14.702 1.1696-16.291 8.3446-.87648 6.1245.552 12.453-.50494 18.523-2.0757 4.4437-7.443 2.7098-11.325 3.0594-5.7756.08583-13.087-.98582-16.504 4.8909-3.0707 7.0782-.36275 14.966.48911 22.26 2.0043 9.7907 3.0239 20.097 7.5883 29.115 3.3801 4.9605 10.151 5.1991 15.399 6.93 8.0077 1.7507 16.137 3.6235 24.335 3.8716 6.5049-2.1238 6.2408-11.014 7.5286-16.64-.01143-1.9541.66742-10.249.91876-3.9469-.65738 7.3226 4.1937 14.761 11.973 14.91 6.3389 2.0517 15.333-.35359 19.234 6.3435 2.6393 6.1812 2.8141 13.402 1.475 19.914-3.0484 5.8534-11.122 3.3931-16.482 3.8848-7.9182 1.3279-8.148-12.381-.07516-10.923 6.4552 1.8306 2.5671-6.2709 4.1627-9.5512-6.5588-.17224-15.434-1.301-19.468 5.2232-3.0408 6.5675-2.8722 14.553-.68783 21.356 3.2819 7.5357 12.731 7.5697 19.756 7.8431 7.8264-.16095 17.667 1.3524 23.127-5.6815 7.7547-11.401 9.331-25.606 11.327-38.92 2.6099-18.875.75995-37.989-.54346-56.894-.83894-6.6627-.2515-15.464-7.271-18.993-11.884-3.9332-24.671-4.567-37.115-4.2748-.76576-7.102-8.1748-9.9939-14.425-10.3-2.1968-.25084-4.4091-.35577-6.6198-.34465zm40.09 56.257c5.3198-2.0714 10.294 10.368 5.3886 9.017-3.4929-2.3441-11.243.51232-12.127-2.2749.51776-3.4297 2.9125-6.8917 6.738-6.7421z" fill="#74bb44"/>
</svg>
