<svg width="19.73" height="17.002" viewBox="0 0 19.730391 17.001995" xmlns="http://www.w3.org/2000/svg">
	<path d="M2.08 9.409L9.3 2.901l7.297 6.508-7.246 6.305z" fill="#fff"/>
	<path d="M8.44.592L.592 8.44c-.79.789-.79 2.066 0 2.855l5.707 5.707h7.133l5.707-5.707c.789-.79.789-2.066 0-2.856L11.29.592a2.013 2.013 0 0 0-2.852 0zm2.14 13.555l-.715.715a1.007 1.007 0 0 1-1.426 0l-.714-.715 1.43-1.426zm.711-4.992L7.725 12.72a1.007 1.007 0 0 1-1.426 0l-.715-.71 4.281-4.282zm0-4.282L5.584 10.58a1.007 1.007 0 0 1-1.426 0l-.715-.71 6.422-6.422z" fill="#88be35"/>
</svg>

