<svg xmlns="http://www.w3.org/2000/svg" viewBox="0 0 183.436 170.826" xml:space="preserve">
    <path fill="none" d="M183.432 89.959a34.224 34.224 0 0 0-1.334-8.975c-.901-3.114-2.23-6.177-3.96-9.13 1.092-6.758.659-13.689-1.293-20.634a52.553 52.553 0 0 0-4.658-11.274c-1.858-3.346-4.149-6.63-6.808-9.762a71.035 71.035 0 0 0-10.168-9.771c-3.486-2.747-7.374-5.301-11.558-7.591-7.209-3.946-14.975-7.019-23.083-9.133C112.945 1.701 104.78.5 96.302.12 94.507.041 92.693 0 90.909 0c-5.665 0-11.351.411-16.901 1.223a115.53 115.53 0 0 0-13.534 2.798 103.661 103.661 0 0 0-13.178 4.543c-4.808 2.035-9.322 4.378-13.417 6.965-4.412 2.787-8.502 5.96-12.158 9.43-2.899 2.752-5.481 5.651-7.674 8.618a55.498 55.498 0 0 0-6.011 10.228C3.237 54.494 2.171 65.255 4.855 75.84c-1.278 2-2.296 3.965-3.088 5.95-.592 1.485-1.401 3.773-1.596 6.482-.317 4.391-.128 7.032.042 8.637.333 3.151 1.017 5.92 2.092 8.466a23.678 23.678 0 0 0 3.401 5.698c-.004 5.271.282 9.628.896 13.697 1.658 10.979 6.794 20.282 15.266 27.651 4.024 3.5 8.628 6.417 14.075 8.919 5.796 2.662 12.181 4.704 19.522 6.243 8.669 1.818 17.734 2.833 27.715 3.104 3.439.093 6.638.139 9.78.139 9.007 0 17.141-.382 24.867-1.166 6.781-.689 12.409-1.619 17.71-2.928 6.693-1.652 12.44-3.876 17.568-6.798 8.917-5.081 15.441-12.349 19.391-21.602 2.111-4.945 3.553-10.188 4.41-16.029.666-4.539.908-9.172.735-14.094a19.046 19.046 0 0 0 2.272-2.926c1.256-1.991 2.15-4.232 2.657-6.659.616-2.951.906-5.866.862-8.665z"/>
    <path d="M173.954 83.388c-.899-3.108-2.287-5.99-4.047-8.692-.474-.728-.658-1.389-.47-2.279 1.343-6.341.995-12.63-.755-18.853-1.889-6.72-5.305-12.61-9.8-17.904-5.448-6.416-12.031-11.427-19.381-15.45-13.617-7.456-28.306-10.998-43.731-11.691a109.08 109.08 0 0 0-20.718 1.023c-8.509 1.244-16.751 3.418-24.674 6.771-8.536 3.613-16.346 8.365-23.092 14.769-4.932 4.682-9.028 9.992-11.824 16.221-4.232 9.425-5.189 19.102-2.002 29.042.265.827.092 1.412-.395 2.077-1.489 2.036-2.795 4.184-3.733 6.539-.515 1.291-.927 2.607-1.027 4.003-.172 2.389-.234 4.781.018 7.165.455 4.306 1.817 8.219 5.054 11.288.181.171.324.381.485.573 0 1.019.002 2.025 0 3.03-.008 4.218.171 8.417.803 12.603 1.374 9.101 5.583 16.602 12.502 22.62 3.637 3.163 7.719 5.63 12.088 7.636 5.688 2.612 11.646 4.38 17.759 5.662 8.651 1.814 17.416 2.691 26.234 2.93 11.207.304 22.41.147 33.582-.988 5.579-.567 11.112-1.384 16.558-2.728 5.396-1.332 10.595-3.186 15.444-5.95 7.244-4.128 12.584-9.967 15.861-17.644 1.912-4.478 3.125-9.158 3.831-13.971.724-4.938.85-9.899.54-14.875-.035-.559-.005-1.122-.005-1.68.277-.229.509-.441.761-.624 2.407-1.746 3.853-4.108 4.456-6.994.952-4.566.984-9.112-.322-13.629zM25.87 54.851c1.457-4.008 3.659-7.581 6.39-10.84 3.801-4.534 8.35-8.186 13.371-11.271 6.978-4.287 14.527-7.192 22.458-9.141 9.052-2.223 18.25-3.033 27.545-2.583 11.875.575 23.304 3.097 34.088 8.223 3.31 1.573 6.398 3.515 9.185 5.907 2.226 1.91 4.011 4.165 5.223 6.852 1.557 3.45 1.801 7.067 1.137 10.724-1.438 7.927-5.544 14.206-12.025 18.963-3.062 2.247-6.396 4.006-9.876 5.495-1.966.841-3.965 1.606-5.939 2.43-.695.29-1.378.621-2.033.992a4 4 0 0 0-1.007.831c-.41.466-.342 1.172.2 1.477.59.332 1.246.592 1.906.742 2.236.508 4.515.413 6.773.244a87.102 87.102 0 0 0 18.35-3.342c4.801-1.424 9.319-3.445 13.369-6.433.198-.146.428-.252.649-.365.036-.018.103.026.284.079-.133.339-.239.679-.393.995-1.517 3.097-3.65 5.717-6.226 7.99-3.044 2.685-6.469 4.784-10.111 6.547-5.639 2.73-11.577 4.576-17.678 5.911-6.961 1.522-14.013 2.365-21.128 2.782-7.055.413-14.101.37-21.142-.129-9.633-.683-19.127-2.177-28.327-5.23-4.191-1.391-8.239-3.11-12.056-5.342-2.673-1.563-5.169-3.365-7.393-5.528-3.469-3.373-5.944-7.326-6.877-12.122-.987-5.064-.475-10.022 1.283-14.858zm131.885 66.225c-.765 3.911-2.589 7.332-5.152 10.365-2.382 2.819-5.246 5.059-8.41 6.934-4.693 2.78-9.76 4.638-15.008 6.032-5.789 1.537-11.68 2.494-17.637 3.108-7.902.814-15.822 1.131-23.76 1.008-6.677-.103-13.335-.525-19.946-1.496-6.928-1.017-13.722-2.574-20.219-5.257-4.268-1.763-8.291-3.954-11.869-6.9-4.679-3.852-8.141-8.547-9.866-14.42-.66-2.245-1.048-4.533-1.006-6.881.006-.362.071-.724.115-1.144.59 0 1.084-.05 1.565.009 2.26.276 4.527.297 6.789.133 5.883-.428 11.207 1.103 16.057 4.416 2.92 1.995 5.599 4.282 8.158 6.709 2.009 1.906 3.968 3.864 5.939 5.81 2.301 2.271 4.848 4.199 7.756 5.633 3.268 1.612 6.71 2.52 10.369 2.454 3.388-.061 6.585-.933 9.625-2.413 2.448-1.192 4.668-2.727 6.753-4.468.724-.604 1.448-1.214 2.21-1.769 3.767-2.747 7.981-3.55 12.536-2.84 2.558.399 5.01 1.201 7.488 1.914 2.355.678 4.713 1.375 7.111 1.867 2.544.522 5.123.509 7.676-.147 2.614-.671 4.531-2.18 5.556-4.674.595-1.447.998-2.974 1.466-4.472.393-1.26.705-2.546 1.139-3.791 1.144-3.281 3.408-5.363 6.808-6.175 2.739-.654 5.479-1.301 8.331-1.978.091.39.214.678.218.967.054 3.845-.052 7.685-.792 11.466z"/>
</svg>
