<svg xmlns="http://www.w3.org/2000/svg" enable-background="new 0 0 498.8 72" xml:space="preserve" viewBox="0 0 498.8 72" height="100%" width="100%" version="1.1"><rect ry="9.0264" height="72.636" width="493" y="-.75736" x="3" fill="#502d16"/><g fill="#fff"><path d="m27.2 28.5h-4c-1.4 0-2.1-0.6-2.1-1.8s0.7-1.8 2.1-1.8h4v-3.5c0-6.1 3.1-9.1 9.3-9.1 2.5 0 4.6 0.5 6.3 1.4 2.1 1.3 3.2 3.2 3.2 5.6 0 1.6-0.6 2.3-1.8 2.3-0.8 0-1.5-0.5-1.9-1.4-0.5-1.6-1-2.5-1.3-2.9-0.7-0.9-2.2-1.4-4.4-1.4-3.8 0-5.6 1.9-5.6 5.6v3.4h7.3c1.6 0 2.4 0.6 2.4 1.8s-0.8 1.8-2.4 1.8h-7.3v22.9c0 1.4-0.6 2.1-1.8 2.1s-1.8-0.7-1.8-2.1v-22.9z"/><path d="m59.7 49.4v-20.9h-5.4c-1.5 0-2.2-0.6-2.2-1.8s0.7-1.8 2.2-1.8h7.2c1.2 0 1.9 1.1 1.9 3.1 2.2-2.4 4.6-3.7 7.1-3.7 2.1 0 3.7 0.6 4.9 1.9s1.8 3 1.8 5c0 1.4-0.6 2.1-1.8 2.1-0.7 0-1.2-0.5-1.5-1.4-0.5-1.7-0.8-2.6-0.9-2.7-0.5-0.9-1.5-1.4-2.8-1.4-1.4 0-2.7 0.5-3.9 1.5-0.7 0.5-1.7 1.6-3 3.2v16.7h6.8c1.5 0 2.2 0.6 2.2 1.7 0 1.2-0.7 1.9-2.2 1.9h-15.9c-1.5 0-2.2-0.6-2.2-1.8s0.7-1.8 2.2-1.8h5.5z"/><path d="m87 39.6v4c0 4.3 3 6.4 9.1 6.4 2.2 0 4-0.2 5.4-0.7 0.7-0.2 2-0.9 3.7-2.1 1.1-1 1.9-1.5 2.2-1.5 1 0 1.5 0.5 1.5 1.6s-0.7 2.2-2.2 3.4c-2.4 1.9-6 2.9-10.8 2.9-8.4 0-12.6-3.3-12.6-9.9v-10c0-2.3 0.9-4.3 2.6-5.9 2.3-2.2 5.7-3.2 10.3-3.2 8.2 0 12.3 4.1 12.3 12.2 0 2-0.8 3-2.3 3h-19.2zm0-3.6h17.9c0-5.4-3-8.1-9.1-8.1-2.2 0-4.2 0.5-6 1.5-1.8 1.3-2.8 2.8-2.8 4.5v2.1z"/><path d="m118.4 39.6v4c0 4.3 3 6.4 9.1 6.4 2.2 0 4-0.2 5.4-0.7 0.7-0.2 2-0.9 3.7-2.1 1.1-1 1.9-1.5 2.2-1.5 1 0 1.5 0.5 1.5 1.6s-0.7 2.2-2.2 3.4c-2.4 1.9-6 2.9-10.8 2.9-8.4 0-12.6-3.3-12.6-9.9v-10c0-2.3 0.9-4.3 2.6-5.9 2.3-2.2 5.7-3.2 10.3-3.2 8.2 0 12.3 4.1 12.3 12.2 0 2-0.8 3-2.3 3h-19.2zm0-3.6h17.9c0-5.4-3-8.1-9.1-8.1-2.2 0-4.2 0.5-6 1.5-1.9 1.3-2.8 2.8-2.8 4.5v2.1z"/><path d="m146.5 41.9v-15.6c0-8.2 4.3-12.2 13-12.2 3.5 0 6.3 0.8 8.5 2.3 2.5 1.9 3.7 4.5 3.7 7.7 0 1.5-0.6 2.3-1.9 2.3-0.9 0-1.5-0.7-1.9-2.2-0.2-1.2-0.7-2.4-1.4-3.5-1.1-2-3.5-2.9-7.3-2.9-3.2 0-5.5 0.8-6.9 2.4-1.3 1.5-2 3.8-2 7.1v13c0 3.4 0.7 5.8 2.1 7.3 1.5 1.6 3.8 2.5 7 2.5 4.9 0 7.7-1.7 8.4-5.1 0.3-1.3 0.4-1.9 0.4-2 0.3-0.7 0.8-1.1 1.5-1.1 1.2 0 1.9 0.8 1.9 2.3 0 3.1-1.3 5.5-3.9 7.4-2.1 1.4-4.8 2.1-8.2 2.1-4 0-7.1-0.9-9.4-2.8-2.4-2.1-3.6-5.1-3.6-9z"/><path d="m177.5 44.1v-10.3c0-6.3 4.2-9.4 12.6-9.4s12.6 3.1 12.6 9.4v10.3c0 6.3-4.1 9.4-12.4 9.4-8.6 0-12.8-3.1-12.8-9.4zm21.5 0v-10.3c0-3.9-3-5.9-9.1-5.9-5.8 0-8.8 2-8.8 5.9v10.3c0 3.9 3 5.9 9 5.8 6 0 8.9-1.9 8.9-5.8z"/><path d="m230.2 50.1c-1.7 1.3-3.2 2.1-4.5 2.6-1.4 0.5-3.1 0.8-5.1 0.8-3.4 0-6.1-0.7-8.2-2.1-2.4-1.6-3.6-4-3.6-7.3v-10.5c0-3.1 1.2-5.5 3.5-7.1 2-1.4 4.7-2.1 7.9-2.1 2.1 0 3.9 0.2 5.3 0.7s2.9 1.4 4.5 2.7v-12.9c0-1.7 0.6-2.6 1.7-2.6 1.2 0 1.9 0.9 1.9 2.6v36.7c0 1.3-0.6 1.9-1.7 1.9-0.7 0-1.2-0.4-1.4-1.2-0.2-0.6-0.3-1.3-0.3-2.2zm-0.2-4.2v-14.4c-1.8-1.3-3.2-2.2-4.3-2.6-1.5-0.6-3.1-0.9-4.9-0.9-2.3 0-4.2 0.4-5.6 1.3-1.8 1.1-2.7 2.7-2.7 4.7v9.9c0 2.1 0.9 3.7 2.8 4.8 1.5 0.8 3.4 1.3 5.7 1.3 1.9 0 3.6-0.3 5-0.9 1.2-0.8 2.5-1.8 4-3.2z"/><path d="m243.8 39.6v4c0 4.3 3 6.4 9.1 6.4 2.2 0 4-0.2 5.4-0.7 0.7-0.2 2-0.9 3.7-2.1 1.1-1 1.9-1.5 2.2-1.5 1 0 1.5 0.5 1.5 1.6s-0.7 2.2-2.2 3.4c-2.4 1.9-6 2.9-10.8 2.9-8.4 0-12.6-3.3-12.6-9.9v-10c0-2.3 0.9-4.3 2.6-5.9 2.3-2.2 5.7-3.2 10.3-3.2 8.2 0 12.3 4.1 12.3 12.2 0 2-0.8 3-2.3 3h-19.2zm0-3.6h17.9c0-5.4-3-8.1-9.1-8.1-2.2 0-4.2 0.5-6 1.5-1.9 1.3-2.8 2.8-2.8 4.5v2.1z"/><path d="m271.9 41.9v-15.6c0-8.2 4.3-12.2 13-12.2 3.5 0 6.3 0.8 8.5 2.3 2.5 1.9 3.7 4.5 3.7 7.7 0 1.5-0.6 2.3-1.9 2.3-0.9 0-1.5-0.7-1.9-2.2-0.2-1.2-0.7-2.4-1.4-3.5-1.1-2-3.5-2.9-7.3-2.9-3.2 0-5.5 0.8-6.9 2.4-1.3 1.5-2 3.8-2 7.1v13c0 3.4 0.7 5.8 2.1 7.3 1.5 1.6 3.8 2.5 7 2.5 4.9 0 7.7-1.7 8.4-5.1 0.3-1.3 0.4-1.9 0.4-2 0.3-0.7 0.8-1.1 1.5-1.1 1.2 0 1.9 0.8 1.9 2.3 0 3.1-1.3 5.5-3.9 7.4-2.1 1.4-4.8 2.1-8.2 2.1-4 0-7.1-0.9-9.4-2.8-2.3-2.1-3.6-5.1-3.6-9z"/><path d="m323.1 50.1c-1.8 1.3-3.2 2.2-4.2 2.6-1.3 0.5-2.9 0.8-4.9 0.8-3 0-5.5-0.6-7.4-1.9-2.2-1.5-3.4-3.7-3.4-6.6s1.2-5.2 3.5-6.8c2-1.5 4.6-2.2 7.6-2.2 2.5 0 5.3 0.6 8.5 1.7v-4.4c0-2.1-1-3.6-3-4.5-1.4-0.6-3.1-0.9-5.1-0.9-4.7 0-7.2 1.3-7.7 3.9-0.2 1.2-0.4 1.8-0.4 1.9-0.3 0.6-0.8 0.9-1.5 0.9-1.3 0-2-0.7-2-2.1 0-1.9 0.7-3.6 2.2-5.2 1.8-2 5.1-3 9.7-3 3.7 0 6.4 0.6 8.2 1.8 2.1 1.5 3.2 4 3.2 7.5v12.8c0 1.5 0.3 2.5 0.9 3 0.1 0.1 0.7 0.4 1.7 0.8 0.6 0.3 0.9 0.8 0.9 1.7 0 1-0.5 1.5-1.6 1.5-0.3 0-0.8-0.1-1.6-0.4-1.4-0.5-2.3-0.8-2.5-0.9-0.5-0.3-0.9-1-1.1-2zm-0.2-3.8v-5.3c-2.8-0.9-5.5-1.4-7.9-1.4-5.4 0-8.1 1.7-8.1 5.2 0 1.8 0.8 3.2 2.4 4 1.3 0.7 2.9 1.1 4.9 1.1 1.7 0 3.3-0.3 4.7-1 1.1-0.4 2.4-1.3 4-2.6z"/><path d="m337.1 27.4c0.9-1.1 1.7-1.9 2.3-2.2 0.8-0.5 1.8-0.8 3.1-0.8 2 0 3.7 1 5.2 3.1 1-1.2 1.9-2 2.7-2.4 0.9-0.5 2.1-0.7 3.5-0.7 4.3 0 6.5 2.1 6.5 6.3v20.3c0 1.7-0.6 2.5-1.9 2.5-1.2 0-1.8-0.8-1.8-2.5v-19.1c0-2.6-1.1-4-3.2-4-1.6 0-3.2 1-4.6 2.9v20.2c0 1.7-0.6 2.5-1.8 2.5s-1.8-0.8-1.8-2.5v-18.7c0-2.9-1.2-4.3-3.5-4.3-1.5 0-2.9 1-4.4 2.9v20.1c0 1.7-0.6 2.5-1.9 2.5-1.2 0-1.8-0.8-1.8-2.5v-24.8c0-1.2 0.5-1.8 1.5-1.8 0.5 0 1 0.4 1.3 1.1 0.4 0.5 0.6 1.2 0.6 1.9z"/><path d="m369.6 27.4c2.8-2 6.1-3 9.7-3 7.6 0 11.4 3.2 11.4 9.5v10.4c0 3-1.1 5.3-3.2 7-1.9 1.5-4.5 2.3-7.8 2.3-3.9 0-7.2-1-10.1-3.1v11.8c0 1.8-0.6 2.7-1.8 2.7s-1.8-0.9-1.8-2.7v-35.2c0-1.8 0.5-2.7 1.5-2.7 0.5 0 1 0.4 1.4 1.1 0.2 0.6 0.5 1.3 0.7 1.9zm0 19c2.6 2.3 5.8 3.5 9.5 3.5 2.3 0 4.1-0.4 5.5-1.3 1.7-1 2.5-2.5 2.5-4.4v-10.4c0-2.2-0.9-3.7-2.7-4.7-1.4-0.7-3.3-1.1-5.6-1.1-2.1 0-3.8 0.3-5.1 0.9-1.2 0.5-2.5 1.6-4.1 3.2v14.3z"/><path d="m403.1 36.5c0-7.9 2.7-14.9 8.2-21.1 2-2.3 3.6-3.4 4.7-3.4 0.4 0 0.8 0.1 1.1 0.4s0.5 0.6 0.5 1c0 0.6-0.7 1.5-2.1 2.9-5.7 5.5-8.6 12.3-8.6 20.4 0 9 3 16.3 8.9 21.9 1.2 1.1 1.8 2 1.8 2.7 0 0.4-0.2 0.8-0.5 1.1s-0.7 0.5-1.1 0.5c-1.4 0-3.3-1.6-5.8-4.8-4.8-5.9-7.1-13.1-7.1-21.6z"/><path d="m478.8 38.5c0 7.9-2.7 14.9-8.2 21.1-2 2.3-3.6 3.4-4.7 3.4-0.4 0-0.8-0.1-1.1-0.4s-0.5-0.7-0.5-1.1c0-0.6 0.7-1.5 2.1-2.8 5.7-5.5 8.6-12.3 8.6-20.4 0-9-3-16.3-8.9-21.9-1.2-1.1-1.8-2-1.8-2.7 0-0.4 0.2-0.8 0.5-1.1s0.7-0.5 1.1-0.5c1.3 0 3.3 1.6 5.8 4.8 4.7 6 7.1 13.2 7.1 21.6z"/></g><g transform="translate(-4.8946e-8 2)" fill="#f9f9f9"><line y2="54.1" x2="459.1" y1="54.1" x1="424.4"/><path d="m459 56.2h-34.7c-1.1 0-2.1-0.9-2.1-2.1s0.9-2.1 2.1-2.1h34.7c1.1 0 2.1 0.9 2.1 2.1s-0.9 2.1-2.1 2.1z"/></g><path d="m452.35 28.079c-0.56036-1.8831-1.4398-3.6508-2.8022-5.0597-0.3609-0.37315-0.74714-0.72137-1.1321-1.0692-0.30173-0.27257-1.0497-0.71418-1.2056-1.081 0.79404 1.8687 1.5898 3.8071 0.99013 5.8559-0.27089 0.92675-1.2961 3.1462-2.6315 2.5804-1.2631-0.53542-1.1161-3.1825-1.2247-4.2521-0.26708-2.6243-0.84687-5.2435-2.2465-7.515-0.76236-1.2374-1.761-2.3378-3.0182-3.0841-1.6511-0.97999-3.3634-1.6388-5.2423-0.92844 0.41371-0.15636 1.5032 1.0958 1.7064 1.3371 0.65841 0.78053 1.2069 1.7039 1.5006 2.6856 0.59671 1.9946 0.0761 4.2661-0.62079 6.1673-1.4423 3.9348-3.8486 7.4736-5.0035 11.52-0.40274 1.4102-0.67911 2.8597-0.75476 4.3261-0.23749 4.6194 2.1607 8.8508 5.9594 11.435 0.86209 0.58614 2.3948 1.3202 3.4864 0.94238-3.1885-1.7052-4.2488-3.1061-4.7411-5.113-1.1414-4.6527 3.2126-7.6071 5.0956-11.287 0.50119-0.97957 0.86504-2.0559 0.73826-3.1669-0.0473-0.41414-0.51894-2.451-1.1444-2.3509 1.8958-0.30384 3.1301 0.95802 3.7788 2.6044 0.68333 1.7343 1.0894 3.516 0.78771 5.3606-0.101 0.61698-0.56501 2.5444 0.32836 2.6695 1.2297 0.17284 2.2854-1.4588 2.0331-3.0329-0.12974-0.7239-0.25905-1.8526-0.25905-1.8531 1.3067 1.6097 1.8991 3.2206 2.091 4.9874 0.34315 3.1623-1.0041 7.3185-3.5384 9.8992 1.0654-1.0852 2.4215-1.8353 3.45-2.9941 1.0506-1.1828 1.8522-2.5512 2.4789-3.9994 1.403-3.2413 2.2224-6.9052 1.9942-10.444-0.10818-1.6887-0.35413-3.4593-0.85406-5.1387z" fill="#fff"/></svg>
