<svg xmlns="http://www.w3.org/2000/svg" viewBox="0 0 100.00001 67.371197">
    <path d="M0 32.41C0 21.974 3.567 12.727 10.832 4.537c2.642-3.038 4.756-4.49 6.21-4.49.527 0 1.055.13 1.452.527s.66.793.66 1.32c0 .794-.924 1.982-2.774 3.832C8.85 12.99 5.02 21.974 5.02 32.674c0 11.89 3.962 21.532 11.756 28.93 1.585 1.453 2.378 2.642 2.378 3.567 0 .53-.264 1.057-.66 1.454s-.925.66-1.454.66c-1.85 0-4.36-2.113-7.66-6.34-6.342-7.8-9.38-17.3-9.38-28.5zm100 2.6c0 10.436-3.567 19.683-10.832 27.873-2.642 3.038-4.756 4.49-6.21 4.49-.527 0-1.055-.13-1.452-.527s-.66-.925-.66-1.453c0-.793.924-1.982 2.774-3.7 7.53-7.264 11.36-16.247 11.36-26.947 0-11.89-3.962-21.532-11.756-28.93-1.585-1.453-2.378-2.642-2.378-3.567 0-.53.264-1.057.66-1.454s.925-.66 1.454-.66c1.717 0 4.36 2.113 7.66 6.34C96.83 14.402 100 23.913 100 35.01zm-30.063 27.9h-34.7c-1.1 0-2.1-.9-2.1-2.1s.9-2.1 2.1-2.1h34.7c1.1 0 2.1.9 2.1 2.1s-.9 2.1-2.1 2.1zm-4.882-41.7c-.74-2.488-1.902-4.823-3.702-6.684-.476-.493-.987-.953-1.495-1.412-.4-.36-1.387-.944-1.593-1.428 1.05 2.468 2.1 5.03 1.308 7.735-.358 1.226-1.712 4.158-3.476 3.41-1.67-.707-1.474-4.204-1.618-5.617-.354-3.467-1.12-6.927-2.968-9.927-1.008-1.635-2.327-3.09-3.987-4.074-2.182-1.295-4.444-2.165-6.925-1.227.546-.207 1.985 1.448 2.254 1.766.87 1.032 1.594 2.252 1.982 3.55.788 2.634.1 5.635-.82 8.146-1.905 5.198-5.084 9.873-6.61 15.218-.532 1.863-.897 3.778-.997 5.715-.314 6.1 2.854 11.69 7.872 15.104 1.138.774 3.163 1.744 4.605 1.245-4.212-2.254-5.612-4.104-6.263-6.755-1.508-6.147 4.244-10.05 6.73-14.91.664-1.295 1.144-2.717.977-4.185-.062-.547-.685-3.238-1.51-3.105 2.503-.402 4.134 1.265 4.99 3.44.904 2.29 1.44 4.645 1.04 7.08-.132.817-.745 3.363.435 3.528 1.625.228 3.02-1.927 2.686-4.007a49.71 49.71 0 0 1-.34-2.448c1.725 2.127 2.507 4.255 2.76 6.59.454 4.176-1.326 9.667-4.673 13.076 1.407-1.434 3.198-2.425 4.557-3.955 1.388-1.564 2.447-3.37 3.275-5.285 1.852-4.28 2.935-9.12 2.633-13.797-.143-2.23-.468-4.57-1.128-6.788z"/>
</svg>
