<svg xmlns="http://www.w3.org/2000/svg" version="1.1" viewBox="0 0 100.00001 67.371197">
<g transform="translate(0 -984.99)">
<path d="m0 1017.4c0-10.436 3.5667-19.683 10.832-27.873 2.642-3.0383 4.7556-4.4914 6.2087-4.4914 0.5284 0 1.0568 0.1321 1.4531 0.5284s0.6605 0.7926 0.6605 1.321c0 0.79261-0.9247 1.9815-2.7741 3.8309-7.5297 7.2655-11.361 16.248-11.361 26.948 0 11.889 3.963 21.532 11.757 28.93 1.5852 1.4531 2.3778 2.642 2.3778 3.5667 0 0.5284-0.2642 1.0568-0.6605 1.4531s-0.9247 0.6605-1.4531 0.6605c-1.8494 0-4.3593-2.1136-7.6618-6.3408-6.3409-7.8-9.3792-17.3-9.3792-28.5z"/>
<path d="m100 1020c0 10.436-3.5667 19.683-10.832 27.873-2.642 3.0383-4.7556 4.4914-6.2087 4.4914-0.5284 0-1.0568-0.1321-1.4531-0.5284s-0.66051-0.9247-0.66051-1.4531c0-0.7926 0.92471-1.9815 2.7741-3.6988 7.5297-7.2655 11.361-16.248 11.361-26.948 0-11.889-3.963-21.532-11.757-28.93-1.5852-1.4531-2.3778-2.642-2.3778-3.5667 0-0.52841 0.26421-1.0568 0.66051-1.4531s0.9247-0.6605 1.4531-0.6605c1.7173 0 4.3593 2.1136 7.6618 6.3408 6.2087 7.926 9.3791 17.437 9.3791 28.534z"/>
<path d="m69.937 1047.9h-34.7c-1.1 0-2.1-0.9-2.1-2.1s0.9-2.1 2.1-2.1h34.7c1.1 0 2.1 0.9 2.1 2.1s-0.9 2.1-2.1 2.1z"/>
<path d="m65.055 1006.2c-0.74024-2.4876-1.9019-4.8227-3.7017-6.6839-0.47675-0.49293-0.98698-0.95293-1.4955-1.4124-0.39859-0.36007-1.3867-0.94344-1.5927-1.428 1.0489 2.4686 2.1001 5.0293 1.308 7.7357-0.35785 1.2242-1.7121 4.1561-3.4762 3.4086-1.6686-0.7073-1.4743-4.2041-1.6178-5.6171-0.35281-3.4667-1.1187-6.9267-2.9676-9.9273-1.0071-1.6346-2.3262-3.0882-3.987-4.0741-2.1811-1.2946-4.4431-2.1649-6.925-1.2265 0.54651-0.20656 1.9857 1.4475 2.2542 1.7663 0.86976 1.0311 1.5944 2.2508 1.9823 3.5477 0.78826 2.6349 0.10053 5.6355-0.82007 8.1471-1.9053 5.1978-5.084 9.8726-6.6096 15.218-0.53202 1.8629-0.89711 3.7777-0.99704 5.7148-0.31373 6.1022 2.8543 11.692 7.8724 15.105 1.1388 0.7743 3.1636 1.744 4.6055 1.2449-4.212-2.2525-5.6126-4.1031-6.263-6.7542-1.5078-6.1463 4.2438-10.049 6.7313-14.911 0.66207-1.294 1.1427-2.7159 0.97524-4.1835-0.06248-0.5471-0.68552-3.2378-1.5117-3.1055 2.5043-0.4014 4.1349 1.2655 4.9918 3.4405 0.90268 2.291 1.4392 4.6446 1.0406 7.0813-0.13342 0.8151-0.74638 3.3612 0.43376 3.5265 1.6245 0.2283 3.019-1.9271 2.6857-4.0066-0.17139-0.9563-0.34221-2.4473-0.34221-2.4479 1.7261 2.1264 2.5088 4.2544 2.7622 6.5884 0.4533 4.1774-1.3264 9.6678-4.6742 13.077 1.4073-1.4336 3.1988-2.4245 4.5575-3.9552 1.3878-1.5625 2.4468-3.3701 3.2747-5.2833 1.8534-4.2817 2.9358-9.1217 2.6344-13.797-0.14291-2.2308-0.46781-4.5698-1.1282-6.7883z"/>
</g>
</svg>
