<svg xmlns="http://www.w3.org/2000/svg" viewBox="0 0 498.8 72"><rect ry="9.026" height="72.636" width="493" y="-.757" x="3" fill="#502d16"/><g fill="#fff"><path d="M27.2 28.5h-4c-1.4 0-2.1-.6-2.1-1.8s.7-1.8 2.1-1.8h4v-3.5c0-6.1 3.1-9.1 9.3-9.1 2.5 0 4.6.5 6.3 1.4 2.1 1.3 3.2 3.2 3.2 5.6 0 1.6-.6 2.3-1.8 2.3-.8 0-1.5-.5-1.9-1.4-.5-1.6-1-2.5-1.3-2.9-.7-.9-2.2-1.4-4.4-1.4-3.8 0-5.6 1.9-5.6 5.6v3.4h7.3c1.6 0 2.4.6 2.4 1.8s-.8 1.8-2.4 1.8H31v22.9c0 1.4-.6 2.1-1.8 2.1s-1.8-.7-1.8-2.1V28.5zM59.7 49.4V28.5h-5.4c-1.5 0-2.2-.6-2.2-1.8s.7-1.8 2.2-1.8h7.2c1.2 0 1.9 1.1 1.9 3.1 2.2-2.4 4.6-3.7 7.1-3.7 2.1 0 3.7.6 4.9 1.9s1.8 3 1.8 5c0 1.4-.6 2.1-1.8 2.1-.7 0-1.2-.5-1.5-1.4-.5-1.7-.8-2.6-.9-2.7-.5-.9-1.5-1.4-2.8-1.4-1.4 0-2.7.5-3.9 1.5-.7.5-1.7 1.6-3 3.2v16.7h6.8c1.5 0 2.2.6 2.2 1.7 0 1.2-.7 1.9-2.2 1.9H54.2c-1.5 0-2.2-.6-2.2-1.8s.7-1.8 2.2-1.8h5.5zM87 39.6v4c0 4.3 3 6.4 9.1 6.4 2.2 0 4-.2 5.4-.7.7-.2 2-.9 3.7-2.1 1.1-1 1.9-1.5 2.2-1.5 1 0 1.5.5 1.5 1.6s-.7 2.2-2.2 3.4c-2.4 1.9-6 2.9-10.8 2.9-8.4 0-12.6-3.3-12.6-9.9v-10c0-2.3.9-4.3 2.6-5.9 2.3-2.2 5.7-3.2 10.3-3.2 8.2 0 12.3 4.1 12.3 12.2 0 2-.8 3-2.3 3H87zm0-3.6h17.9c0-5.4-3-8.1-9.1-8.1-2.2 0-4.2.5-6 1.5-1.8 1.3-2.8 2.8-2.8 4.5V36zM118.4 39.6v4c0 4.3 3 6.4 9.1 6.4 2.2 0 4-.2 5.4-.7.7-.2 2-.9 3.7-2.1 1.1-1 1.9-1.5 2.2-1.5 1 0 1.5.5 1.5 1.6s-.7 2.2-2.2 3.4c-2.4 1.9-6 2.9-10.8 2.9-8.4 0-12.6-3.3-12.6-9.9v-10c0-2.3.9-4.3 2.6-5.9 2.3-2.2 5.7-3.2 10.3-3.2 8.2 0 12.3 4.1 12.3 12.2 0 2-.8 3-2.3 3h-19.2zm0-3.6h17.9c0-5.4-3-8.1-9.1-8.1-2.2 0-4.2.5-6 1.5-1.9 1.3-2.8 2.8-2.8 4.5V36zM146.5 41.9V26.3c0-8.2 4.3-12.2 13-12.2 3.5 0 6.3.8 8.5 2.3 2.5 1.9 3.7 4.5 3.7 7.7 0 1.5-.6 2.3-1.9 2.3-.9 0-1.5-.7-1.9-2.2-.2-1.2-.7-2.4-1.4-3.5-1.1-2-3.5-2.9-7.3-2.9-3.2 0-5.5.8-6.9 2.4-1.3 1.5-2 3.8-2 7.1v13c0 3.4.7 5.8 2.1 7.3 1.5 1.6 3.8 2.5 7 2.5 4.9 0 7.7-1.7 8.4-5.1.3-1.3.4-1.9.4-2 .3-.7.8-1.1 1.5-1.1 1.2 0 1.9.8 1.9 2.3 0 3.1-1.3 5.5-3.9 7.4-2.1 1.4-4.8 2.1-8.2 2.1-4 0-7.1-.9-9.4-2.8-2.4-2.1-3.6-5.1-3.6-9zM177.5 44.1V33.8c0-6.3 4.2-9.4 12.6-9.4s12.6 3.1 12.6 9.4v10.3c0 6.3-4.1 9.4-12.4 9.4-8.6 0-12.8-3.1-12.8-9.4zm21.5 0V33.8c0-3.9-3-5.9-9.1-5.9-5.8 0-8.8 2-8.8 5.9v10.3c0 3.9 3 5.9 9 5.8 6 0 8.9-1.9 8.9-5.8zM230.2 50.1c-1.7 1.3-3.2 2.1-4.5 2.6-1.4.5-3.1.8-5.1.8-3.4 0-6.1-.7-8.2-2.1-2.4-1.6-3.6-4-3.6-7.3V33.6c0-3.1 1.2-5.5 3.5-7.1 2-1.4 4.7-2.1 7.9-2.1 2.1 0 3.9.2 5.3.7s2.9 1.4 4.5 2.7V14.9c0-1.7.6-2.6 1.7-2.6 1.2 0 1.9.9 1.9 2.6v36.7c0 1.3-.6 1.9-1.7 1.9-.7 0-1.2-.4-1.4-1.2-.2-.6-.3-1.3-.3-2.2zm-.2-4.2V31.5c-1.8-1.3-3.2-2.2-4.3-2.6-1.5-.6-3.1-.9-4.9-.9-2.3 0-4.2.4-5.6 1.3-1.8 1.1-2.7 2.7-2.7 4.7v9.9c0 2.1.9 3.7 2.8 4.8 1.5.8 3.4 1.3 5.7 1.3 1.9 0 3.6-.3 5-.9 1.2-.8 2.5-1.8 4-3.2zM243.8 39.6v4c0 4.3 3 6.4 9.1 6.4 2.2 0 4-.2 5.4-.7.7-.2 2-.9 3.7-2.1 1.1-1 1.9-1.5 2.2-1.5 1 0 1.5.5 1.5 1.6s-.7 2.2-2.2 3.4c-2.4 1.9-6 2.9-10.8 2.9-8.4 0-12.6-3.3-12.6-9.9v-10c0-2.3.9-4.3 2.6-5.9 2.3-2.2 5.7-3.2 10.3-3.2 8.2 0 12.3 4.1 12.3 12.2 0 2-.8 3-2.3 3h-19.2zm0-3.6h17.9c0-5.4-3-8.1-9.1-8.1-2.2 0-4.2.5-6 1.5-1.9 1.3-2.8 2.8-2.8 4.5V36zM271.9 41.9V26.3c0-8.2 4.3-12.2 13-12.2 3.5 0 6.3.8 8.5 2.3 2.5 1.9 3.7 4.5 3.7 7.7 0 1.5-.6 2.3-1.9 2.3-.9 0-1.5-.7-1.9-2.2-.2-1.2-.7-2.4-1.4-3.5-1.1-2-3.5-2.9-7.3-2.9-3.2 0-5.5.8-6.9 2.4-1.3 1.5-2 3.8-2 7.1v13c0 3.4.7 5.8 2.1 7.3 1.5 1.6 3.8 2.5 7 2.5 4.9 0 7.7-1.7 8.4-5.1.3-1.3.4-1.9.4-2 .3-.7.8-1.1 1.5-1.1 1.2 0 1.9.8 1.9 2.3 0 3.1-1.3 5.5-3.9 7.4-2.1 1.4-4.8 2.1-8.2 2.1-4 0-7.1-.9-9.4-2.8-2.3-2.1-3.6-5.1-3.6-9zM323.1 50.1c-1.8 1.3-3.2 2.2-4.2 2.6-1.3.5-2.9.8-4.9.8-3 0-5.5-.6-7.4-1.9-2.2-1.5-3.4-3.7-3.4-6.6s1.2-5.2 3.5-6.8c2-1.5 4.6-2.2 7.6-2.2 2.5 0 5.3.6 8.5 1.7v-4.4c0-2.1-1-3.6-3-4.5-1.4-.6-3.1-.9-5.1-.9-4.7 0-7.2 1.3-7.7 3.9-.2 1.2-.4 1.8-.4 1.9-.3.6-.8.9-1.5.9-1.3 0-2-.7-2-2.1 0-1.9.7-3.6 2.2-5.2 1.8-2 5.1-3 9.7-3 3.7 0 6.4.6 8.2 1.8 2.1 1.5 3.2 4 3.2 7.5v12.8c0 1.5.3 2.5.9 3 .1.1.7.4 1.7.8.6.3.9.8.9 1.7 0 1-.5 1.5-1.6 1.5-.3 0-.8-.1-1.6-.4-1.4-.5-2.3-.8-2.5-.9-.5-.3-.9-1-1.1-2zm-.2-3.8V41c-2.8-.9-5.5-1.4-7.9-1.4-5.4 0-8.1 1.7-8.1 5.2 0 1.8.8 3.2 2.4 4 1.3.7 2.9 1.1 4.9 1.1 1.7 0 3.3-.3 4.7-1 1.1-.4 2.4-1.3 4-2.6zM337.1 27.4c.9-1.1 1.7-1.9 2.3-2.2.8-.5 1.8-.8 3.1-.8 2 0 3.7 1 5.2 3.1 1-1.2 1.9-2 2.7-2.4.9-.5 2.1-.7 3.5-.7 4.3 0 6.5 2.1 6.5 6.3V51c0 1.7-.6 2.5-1.9 2.5-1.2 0-1.8-.8-1.8-2.5V31.9c0-2.6-1.1-4-3.2-4-1.6 0-3.2 1-4.6 2.9V51c0 1.7-.6 2.5-1.8 2.5s-1.8-.8-1.8-2.5V32.3c0-2.9-1.2-4.3-3.5-4.3-1.5 0-2.9 1-4.4 2.9V51c0 1.7-.6 2.5-1.9 2.5-1.2 0-1.8-.8-1.8-2.5V26.2c0-1.2.5-1.8 1.5-1.8.5 0 1 .4 1.3 1.1.4.5.6 1.2.6 1.9zM369.6 27.4c2.8-2 6.1-3 9.7-3 7.6 0 11.4 3.2 11.4 9.5v10.4c0 3-1.1 5.3-3.2 7-1.9 1.5-4.5 2.3-7.8 2.3-3.9 0-7.2-1-10.1-3.1v11.8c0 1.8-.6 2.7-1.8 2.7s-1.8-.9-1.8-2.7V27.1c0-1.8.5-2.7 1.5-2.7.5 0 1 .4 1.4 1.1.2.6.5 1.3.7 1.9zm0 19c2.6 2.3 5.8 3.5 9.5 3.5 2.3 0 4.1-.4 5.5-1.3 1.7-1 2.5-2.5 2.5-4.4V33.8c0-2.2-.9-3.7-2.7-4.7-1.4-.7-3.3-1.1-5.6-1.1-2.1 0-3.8.3-5.1.9-1.2.5-2.5 1.6-4.1 3.2v14.3zM403.1 36.5c0-7.9 2.7-14.9 8.2-21.1 2-2.3 3.6-3.4 4.7-3.4.4 0 .8.1 1.1.4s.5.6.5 1c0 .6-.7 1.5-2.1 2.9-5.7 5.5-8.6 12.3-8.6 20.4 0 9 3 16.3 8.9 21.9 1.2 1.1 1.8 2 1.8 2.7 0 .4-.2.8-.5 1.1s-.7.5-1.1.5c-1.4 0-3.3-1.6-5.8-4.8-4.8-5.9-7.1-13.1-7.1-21.6zM478.8 38.5c0 7.9-2.7 14.9-8.2 21.1-2 2.3-3.6 3.4-4.7 3.4-.4 0-.8-.1-1.1-.4s-.5-.7-.5-1.1c0-.6.7-1.5 2.1-2.8 5.7-5.5 8.6-12.3 8.6-20.4 0-9-3-16.3-8.9-21.9-1.2-1.1-1.8-2-1.8-2.7 0-.4.2-.8.5-1.1s.7-.5 1.1-.5c1.3 0 3.3 1.6 5.8 4.8 4.7 6 7.1 13.2 7.1 21.6z"/></g><g fill="#f9f9f9"><path d="M424.4 56.1h34.7M459 58.2h-34.7c-1.1 0-2.1-.9-2.1-2.1s.9-2.1 2.1-2.1H459c1.1 0 2.1.9 2.1 2.1s-.9 2.1-2.1 2.1z"/></g><path d="M452.35 28.08c-.56-1.884-1.44-3.652-2.802-5.06-.36-.374-.747-.722-1.132-1.07-.302-.272-1.05-.714-1.206-1.08.794 1.868 1.59 3.806.99 5.855-.27.927-1.296 3.146-2.63 2.58-1.264-.535-1.117-3.182-1.226-4.252-.267-2.624-.847-5.243-2.246-7.515-.763-1.237-1.76-2.338-3.02-3.084-1.65-.98-3.362-1.64-5.24-.928.413-.157 1.502 1.096 1.705 1.337.66.78 1.207 1.704 1.5 2.685.598 1.995.077 4.267-.62 6.168-1.442 3.935-3.848 7.473-5.003 11.52-.403 1.41-.68 2.86-.755 4.326-.238 4.62 2.16 8.85 5.96 11.435.86.586 2.394 1.32 3.486.942-3.188-1.706-4.248-3.107-4.74-5.114-1.142-4.652 3.212-7.607 5.095-11.287.5-.98.865-2.057.74-3.168-.05-.414-.52-2.45-1.146-2.35 1.895-.304 3.13.957 3.778 2.604.683 1.734 1.09 3.516.788 5.36-.1.617-.565 2.545.328 2.67 1.23.173 2.285-1.46 2.033-3.033a37.62 37.62 0 0 1-.26-1.853c1.308 1.61 1.9 3.22 2.092 4.987.342 3.163-1.005 7.32-3.54 9.9 1.066-1.086 2.422-1.836 3.45-2.995 1.05-1.182 1.853-2.55 2.48-4 1.403-3.24 2.222-6.904 1.994-10.443-.108-1.69-.354-3.46-.854-5.14z" fill="#fff"/></svg>