<!-- Created with Inkscape (http://www.inkscape.org/) -->
<svg xmlns:rdf="http://www.w3.org/1999/02/22-rdf-syntax-ns#" xmlns="http://www.w3.org/2000/svg" xml:space="preserve" version="1.1" xmlns:cc="http://creativecommons.org/ns#" xmlns:dc="http://purl.org/dc/elements/1.1/" viewBox="0 0 114.8625 114.8625"><title>Git Logo</title><metadata><rdf:RDF><cc:Work rdf:about=""><dc:format>image/svg+xml</dc:format><dc:type rdf:resource="http://purl.org/dc/dcmitype/StillImage"/><dc:title>Git Logo</dc:title><dc:creator><cc:Agent><dc:title>Jason Long</dc:title></cc:Agent></dc:creator><cc:license rdf:resource="http://creativecommons.org/licenses/by-sa/3.0/"/><dc:publisher><cc:Agent><dc:title>http://git-scm.com/downloads/logos</dc:title></cc:Agent></dc:publisher><dc:description>Orange logomark for light backgrounds</dc:description><dc:source>http://git-scm.com/images/logos/downloads/Git-Icon-1788C.eps</dc:source></cc:Work><cc:License rdf:about="http://creativecommons.org/licenses/by-sa/3.0/"><cc:permits rdf:resource="http://creativecommons.org/ns#Reproduction"/><cc:permits rdf:resource="http://creativecommons.org/ns#Distribution"/><cc:requires rdf:resource="http://creativecommons.org/ns#Notice"/><cc:requires rdf:resource="http://creativecommons.org/ns#Attribution"/><cc:permits rdf:resource="http://creativecommons.org/ns#DerivativeWorks"/><cc:requires rdf:resource="http://creativecommons.org/ns#ShareAlike"/></cc:License></rdf:RDF></metadata><g transform="matrix(1.25,0,0,-1.25,0,114.8625)"><g transform="scale(0.1,0.1)"><path fill-rule="nonzero" fill="#f03c2e" d="M901.543,500.352,500.352,901.527c-23.094,23.11-60.567,23.11-83.692,0l-83.301-83.316,105.672-105.676c24.563,8.293,52.727,2.727,72.297-16.847,19.688-19.696,25.203-48.102,16.699-72.75l101.856-101.844c24.648,8.496,53.066,3.004,72.754-16.711,27.5-27.492,27.5-72.059,0-99.574-27.52-27.516-72.078-27.516-99.61,0-20.683,20.703-25.8,51.097-15.312,76.582l-95,94.992v-249.969c6.699-3.32,13.027-7.742,18.613-13.312,27.5-27.497,27.5-72.059,0-99.598-27.5-27.488-72.09-27.488-99.57,0-27.5,27.539-27.5,72.101,0,99.598,6.797,6.789,14.668,11.925,23.066,15.363v252.281c-8.398,3.438-16.25,8.531-23.066,15.367-20.828,20.821-25.84,51.395-15.156,76.977l-104.18,104.195-275.0978-275.074c-23.10545-23.129-23.10545-60.602,0-83.711l401.2108-401.1758c23.098-23.10545,60.559-23.10545,83.692,0l399.316,399.3168c23.113,23.113,23.113,60.605,0,83.711"/></g></g></svg>
