<svg xmlns="http://www.w3.org/2000/svg" height="114.86" width="114.86" viewBox="0 0 114.86033 114.85804"><title>Git Logo</title><path fill="#f03c2e" d="M112.693 52.316L62.543 2.17a7.398 7.398 0 0 0-10.46 0L41.67 12.583l13.21 13.208c3.07-1.036 6.59-.34 9.036 2.106a8.79 8.79 0 0 1 2.088 9.094l12.73 12.73c3.082-1.06 6.634-.374 9.095 2.09a8.8 8.8 0 0 1 0 12.447 8.802 8.802 0 0 1-14.366-9.574L61.59 42.812V74.06a8.863 8.863 0 0 1 2.325 1.662c3.438 3.438 3.438 9.008 0 12.45-3.437 3.436-9.01 3.436-12.446 0-3.438-3.442-3.438-9.012 0-12.45a8.79 8.79 0 0 1 2.882-1.92V42.267a8.724 8.724 0 0 1-2.883-1.92c-2.604-2.603-3.23-6.425-1.895-9.623L36.552 17.7 2.165 52.082a7.402 7.402 0 0 0 0 10.464l50.152 50.147a7.4 7.4 0 0 0 10.462 0L112.69 62.78a7.4 7.4 0 0 0 0-10.465"/></svg>