<svg xmlns="http://www.w3.org/2000/svg" viewBox="0 0 150.97 147.24187" height="147.24" width="150.97"><g fill="#1b1817"><path fill-rule="evenodd" d="M75.485.005C33.8.005 0 33.8 0 75.49c0 33.35 21.63 61.645 51.62 71.626 3.774.7 5.16-1.637 5.16-3.63 0-1.8-.07-7.747-.104-14.055-21 4.567-25.43-8.905-25.43-8.905-3.435-8.724-8.382-11.045-8.382-11.045-6.85-4.685.516-4.59.516-4.59 7.58.534 11.57 7.78 11.57 7.78 6.734 11.54 17.66 8.204 21.968 6.275.678-4.878 2.633-8.21 4.792-10.094-16.766-1.906-34.39-8.38-34.39-37.304 0-8.24 2.948-14.975 7.776-20.26-.783-1.902-3.367-9.58.733-19.977 0 0 6.338-2.03 20.76 7.737 6.023-1.672 12.48-2.51 18.895-2.54 6.415.03 12.878.868 18.91 2.54 14.408-9.766 20.738-7.738 20.738-7.738 4.108 10.396 1.525 18.074.74 19.975 4.84 5.286 7.768 12.02 7.768 20.26 0 28.995-17.658 35.377-34.466 37.246 2.707 2.344 5.12 6.937 5.12 13.98 0 10.1-.086 18.23-.086 20.715 0 2.01 1.357 4.362 5.183 3.622 29.98-9.992 51.58-38.277 51.58-71.617C150.97 33.8 117.174.005 75.485.005"/><path d="M28.598 108.38c-.167.376-.757.49-1.294.23-.55-.246-.855-.758-.678-1.134.163-.385.753-.492 1.3-.235.548.247.86.764.672 1.14M31.647 111.792c-.36.334-1.065.18-1.54-.348-.496-.527-.587-1.232-.222-1.57.37-.333 1.054-.177 1.547.35.495.532.592 1.23.215 1.568M34.623 116.142c-.463.323-1.22.022-1.688-.65-.463-.672-.463-1.477.01-1.8.47-.322 1.215-.03 1.69.634.46.683.46 1.488-.012 1.817M38.71 120.343c-.414.456-1.295.333-1.94-.29-.66-.608-.844-1.472-.43-1.928.42-.457 1.306-.33 1.956.29.655.606.854 1.476.414 1.928M44.335 122.78c-.184.59-1.03.86-1.886.607-.855-.258-1.414-.95-1.24-1.547.176-.595 1.03-.875 1.89-.606.853.257 1.413.945 1.235 1.546M50.51 123.23c.02.623-.704 1.14-1.6 1.15-.904.02-1.635-.484-1.645-1.096 0-.63.71-1.14 1.61-1.155.9-.02 1.635.483 1.635 1.1M56.26 122.255c.107.606-.516 1.23-1.408 1.396-.876.162-1.687-.214-1.798-.815-.11-.623.525-1.246 1.4-1.407.893-.156 1.692.21 1.806.827"/></g></svg>