<svg xmlns="http://www.w3.org/2000/svg" height="143.97" width="147.6" viewBox="0 0 147.605 143.976">
    <defs>
        <linearGradient id="c" y2="44.263" gradientUnits="userSpaceOnUse" x2="9.704" gradientTransform="matrix(.90507 0 0 .883 -136.04 146.34)" y1="-102.98" x1="9.704">
            <stop stop-color="#a64bb2" offset="0"/>
            <stop stop-color="#442372" offset="1"/>
        </linearGradient>
        <linearGradient id="b" y2="185.51" gradientUnits="userSpaceOnUse" x2="-354.2" gradientTransform="matrix(.9925 0 0 .99538 223.49 8.636)" y1="42.944" x1="-352.73">
            <stop stop-color="#fdfdfd" offset="0"/>
            <stop stop-color="#e0e0e0" offset="1"/>
        </linearGradient>
        <linearGradient id="a" y2="191" gradientUnits="userSpaceOnUse" x2="-129.54" gradientTransform="matrix(.99266 0 0 1.0197 -.388 -.991)" y1="50.155" x1="-127.72">
            <stop stop-opacity=".102" offset="0"/>
            <stop stop-opacity=".416" offset="1"/>
        </linearGradient>
    </defs>
    <g transform="translate(200.41 -50.218)">
        <ellipse rx="73.803" ry="71.988" cy="122.21" cx="-126.6" fill="url(#a)"/>
        <ellipse rx="72.958" ry="71.267" cy="122.18" cx="-126.7" fill="url(#b)"/>
        <path d="M-127.25 55.406c-37.728 0-68.319 29.841-68.319 66.653 0 29.448 19.577 54.432 46.72 63.245 3.416.618 4.67-1.446 4.67-3.205 0-1.59-.063-6.84-.094-12.41-19.006 4.032-23.016-7.863-23.016-7.863-3.109-7.704-7.586-9.753-7.586-9.753-6.2-4.137.467-4.053.467-4.053 6.86.471 10.472 6.87 10.472 6.87 6.095 10.19 15.984 7.244 19.883 5.54.613-4.307 2.383-7.249 4.337-8.913-15.174-1.683-31.125-7.4-31.125-32.939 0-7.276 2.668-13.223 7.038-17.889-.709-1.68-3.048-8.459.663-17.64 0 0 5.736-1.792 18.79 6.832 5.45-1.476 11.294-2.216 17.1-2.243 5.806.027 11.656.767 17.115 2.243 13.04-8.623 18.77-6.833 18.77-6.833 3.717 9.18 1.38 15.96.669 17.638 4.38 4.668 7.03 10.614 7.03 17.89 0 25.601-15.982 31.237-31.194 32.887 2.45 2.07 4.634 6.126 4.634 12.344 0 8.919-.077 16.097-.077 18.291 0 1.775 1.228 3.852 4.69 3.199 27.135-8.823 46.685-33.798 46.685-63.237-.001-36.813-30.59-66.654-68.32-66.654" fill-rule="evenodd" fill="url(#c)"/>
    </g>
</svg>
