<svg xmlns:rdf="http://www.w3.org/1999/02/22-rdf-syntax-ns#" xmlns="http://www.w3.org/2000/svg" xml:space="preserve" viewBox="0 0 150.97 147.24187" height="147.24" width="150.97" version="1.1" xmlns:cc="http://creativecommons.org/ns#" xmlns:dc="http://purl.org/dc/elements/1.1/"><g fill="#1b1817" transform="matrix(1.25 0 0 -1.25 -395.09 565.13)"><path fill-rule="evenodd" d="m376.46 452.1c-33.347 0-60.388-27.035-60.388-60.388 0-26.68 17.303-49.316 41.297-57.301 3.018-0.559 4.126 1.31 4.126 2.905 0 1.439-0.056 6.197-0.082 11.243-16.8-3.653-20.345 7.125-20.345 7.125-2.747 6.979-6.705 8.836-6.705 8.836-5.479 3.748 0.413 3.671 0.413 3.671 6.064-0.426 9.257-6.224 9.257-6.224 5.386-9.231 14.127-6.562 17.573-5.019 0.543 3.902 2.107 6.567 3.834 8.075-13.413 1.526-27.513 6.705-27.513 29.844 0 6.592 2.359 11.98 6.222 16.209-0.627 1.521-2.694 7.663 0.586 15.981 0 0 5.071 1.622 16.61-6.191 4.817 1.338 9.983 2.009 15.115 2.033 5.132-0.024 10.302-0.695 15.128-2.033 11.526 7.813 16.59 6.191 16.59 6.191 3.287-8.318 1.22-14.46 0.593-15.981 3.872-4.229 6.214-9.617 6.214-16.209 0-23.195-14.127-28.301-27.574-29.796 2.166-1.874 4.096-5.549 4.096-11.183 0-8.08-0.069-14.583-0.069-16.572 0-1.608 1.086-3.49 4.147-2.898 23.982 7.994 41.263 30.622 41.263 57.294 0 33.353-27.037 60.388-60.388 60.388"/><g><path d="m338.95 365.4c-0.133-0.301-0.605-0.391-1.035-0.185-0.439 0.198-0.684 0.607-0.542 0.908 0.13 0.308 0.602 0.394 1.04 0.188 0.438-0.197 0.688-0.61 0.537-0.911"/><path d="m341.39 362.67c-0.288-0.267-0.852-0.143-1.233 0.279-0.396 0.421-0.469 0.985-0.177 1.255 0.297 0.267 0.843 0.142 1.238-0.279 0.396-0.426 0.473-0.984 0.172-1.255"/><path d="m343.77 359.19c-0.37-0.25801-0.976-0.017-1.35 0.52-0.37 0.538-0.37 1.182 0.009 1.44 0.374 0.25799 0.971 0.025 1.35-0.50701 0.369-0.54599 0.369-1.19-0.009-1.453"/><path d="m347.04 355.83c-0.331-0.365-1.036-0.267-1.552 0.232-0.528 0.486-0.675 1.177-0.344 1.542 0.336 0.366 1.045 0.263 1.565-0.231 0.524-0.486 0.683-1.182 0.331-1.543"/><path d="m351.54 353.88c-0.147-0.473-0.825-0.687-1.509-0.486-0.683 0.207-1.13 0.76-0.992 1.238 0.142 0.476 0.824 0.7 1.513 0.485 0.682-0.206 1.13-0.756 0.988-1.237"/><path d="m356.48 353.52c0.017-0.498-0.563-0.911-1.281-0.92-0.722-0.016-1.307 0.387-1.315 0.877 0 0.503 0.568 0.911 1.289 0.924 0.718 0.014 1.307-0.387 1.307-0.881"/><path d="m361.08 354.3c0.086-0.485-0.413-0.984-1.126-1.117-0.701-0.129-1.35 0.172-1.439 0.653-0.087 0.498 0.42 0.997 1.121 1.126 0.714 0.124 1.353-0.168 1.444-0.662"/></g></g></svg>
