<svg xmlns:rdf="http://www.w3.org/1999/02/22-rdf-syntax-ns#" xmlns="http://www.w3.org/2000/svg" version="1.0" xmlns:cc="http://creativecommons.org/ns#" xmlns:dc="http://purl.org/dc/elements/1.1/" viewBox="0 0 70 92">
<g fill="#0093dd">
<g>
<rect height="47.1" width="70" y="44.9" x="0"/>
<rect height="19.485" width="15.009" y="25.469" x="4.7397"/>
<rect height="19.24" width="15.185" y="25.695" x="50.118"/>
</g>
<path d="m35.625 0c-22.469 0.16165-30.875 20.998-30.875 25.562 6.147 0 12.812 0.344 14.219 0.344h0.719c1.678-6.87 7.865-11.968 15.25-11.968 7.352 0 13.507 5.051 15.218 11.874h0.969c12.639 0 14.125 0.094 14.125 0.094s-5.049-26.082-29.625-25.906z" fill-rule="evenodd"/>
</g>
<path d="m10.269 25.206c11.422-23.289 27.432-20.049 36.689-18.614 0 0.0001-12.173-5.8296-23.874-0.0819-11.475 5.6369-12.815 18.696-12.815 18.696z" fill-rule="evenodd" fill="#fff"/>
<path d="m-0.25 68.25s7.789-8.701 14.062-11c8.188-3 18.188-2.062 34.75-5.375 5.863-1.173 7.688-2.625 16.626-7.25 0.754-0.391 5.374-0.313 5.374-0.313l-0.374 6.25c-10.188 10.688-33.438 16.657-35.376 16.563 19.668 2.638 30.166-7.557 34.438-8.187-9.938 21.124-45.188 20.062-45.188 20.062 20.438 5.562 37.063-2.75 37.063-2.75-9.313 15.406-43.687 13.312-43.687 13.312-3.594 0.313-6.5 2.626-6.5 2.626l-11.063 0.312-0.125-24.25z" fill-rule="evenodd" fill="#fff"/>
</svg>
