<svg xmlns="http://www.w3.org/2000/svg" width="101.257" height="30.294" viewBox="0 0 26.791 8.015">
    <g fill="#00b964">
        <path d="M26.16 3.637c.034-.077.063-.147.095-.216.014-.03.062-.045.092-.033.017.007.011.02.011.033l.001.403c0 .026-.008.034-.034.034-.025 0-.033-.009-.033-.034v-.286c0-.015.003-.03-.006-.05-.03.073-.069.137-.092.208-.005.017-.01.031-.032.033-.021.002-.032-.008-.04-.027-.023-.057-.049-.113-.074-.168-.005-.011-.007-.025-.024-.031-.008.017-.004.035-.004.052v.265c0 .026-.006.038-.035.038-.03 0-.03-.016-.03-.038v-.387c0-.017-.01-.045.02-.045.028 0 .063-.018.08.023l.092.202.013.024zM25.676 3.654c0-.052-.003-.104 0-.155.004-.043-.012-.055-.052-.05-.022.002-.045-.001-.067 0-.024.001-.036-.004-.036-.032 0-.029.015-.03.037-.03h.307c.024 0 .035.007.035.033 0 .027-.014.03-.035.03-.026-.001-.053.002-.08-.001-.032-.003-.043.008-.043.042.002.108 0 .215.001.323 0 .026 0 .045-.036.045-.036-.001-.031-.023-.031-.045v-.16zM19.684 4.674a1.092 1.092 0 01.9-.316c.116.01.227.037.333.084a.848.848 0 01.357.311c.015.023.023.027.04.001a.888.888 0 01.659-.397c.274-.034.528.02.74.21.106.096.166.22.19.361.017.095.025.19.024.285.001.483 0 .966.002 1.449 0 .04-.012.05-.052.05a48.424 48.424 0 00-.762 0c-.037 0-.047-.009-.047-.046.001-.38.002-.761 0-1.142a1.18 1.18 0 00-.028-.27c-.074-.312-.427-.314-.585-.167a.501.501 0 00-.143.332c-.012.106-.008.213-.008.32v.93c0 .032-.006.043-.04.043h-.776c-.036 0-.044-.011-.044-.045.002-.385.001-.77.001-1.154 0-.079-.002-.157-.018-.235a.323.323 0 00-.255-.27.38.38 0 00-.42.16.495.495 0 00-.064.27c-.003.407-.004.814-.002 1.221 0 .044-.012.053-.054.053a48.424 48.424 0 00-.762 0c-.036 0-.044-.01-.044-.045V4.431c0-.037.012-.043.045-.043h.77c.037 0 .046.011.044.045-.002.077 0 .154 0 .241zM17.102 6.476c-.053.051-.104.101-.162.143a.904.904 0 01-.439.16 1.16 1.16 0 01-.702-.13c-.347-.189-.572-.473-.634-.869-.05-.324-.013-.638.174-.917.2-.3.48-.482.841-.535.265-.04.515.003.746.142.061.037.113.086.17.135.01-.017.006-.034.006-.05L17.1 3.003c0-.043.011-.054.054-.054.257.002.514.002.77 0 .033 0 .043.008.043.042v3.68c0 .032-.006.043-.04.043a51.147 51.147 0 00-.784 0c-.034 0-.044-.01-.043-.043.002-.065 0-.13 0-.194zm-.517-.404c.031 0 .063.003.093-.001a.524.524 0 00.432-.667.55.55 0 00-.82-.293.5.5 0 00-.24.53.52.52 0 00.535.43zM4.854 4.302c.309 0 .566.04.802.168.328.178.56.438.643.81a1.2 1.2 0 01-.675 1.366c-.187.088-.386.13-.592.144-.22.015-.437.003-.65-.053-.39-.104-.69-.326-.855-.7a1.175 1.175 0 01.206-1.288c.214-.23.478-.36.784-.415.125-.021.252-.033.337-.032zm.023.708a.596.596 0 00-.125.01c-.316.061-.555.424-.383.764.117.23.359.344.626.296a.545.545 0 00.431-.654.56.56 0 00-.549-.417zM12.973 4.676c.059-.07.126-.133.2-.187a.845.845 0 01.416-.145c.191-.02.38-.012.562.059a.75.75 0 01.49.602c.014.08.017.158.017.238v1.424c0 .037-.01.046-.046.046a48.97 48.97 0 00-.767 0c-.043 0-.05-.013-.05-.052.002-.39.002-.78 0-1.17 0-.082-.007-.163-.024-.242a.307.307 0 00-.248-.25.44.44 0 00-.454.137.416.416 0 00-.09.236c-.012.1-.006.199-.006.298v.998c0 .035-.008.045-.044.045a50.053 50.053 0 00-.775 0c-.036 0-.043-.011-.043-.045V4.432c0-.038.01-.046.046-.046.257.002.514.002.771 0 .034 0 .046.007.045.044-.002.078 0 .157 0 .246zM11.557 5.192c0 .245.005.489-.002.733a.788.788 0 01-.428.712c-.17.093-.353.138-.544.16a2.71 2.71 0 01-.445.015c-.272-.012-.537-.057-.773-.206a.786.786 0 01-.379-.613 1.82 1.82 0 01-.007-.189V4.436c0-.037.007-.05.047-.05.257.002.514.002.77 0 .039 0 .05.008.05.049l-.001 1.284c0 .07.007.137.035.201a.34.34 0 00.26.2.58.58 0 00.314-.016c.142-.05.216-.153.235-.3.009-.063.008-.128.008-.192v-1.18c0-.037.009-.046.046-.046.257.002.513.002.77 0 .035 0 .045.008.045.044v.762h-.001zM25.19 5.703h-.846c-.05 0-.053.005-.047.054.006.047.01.094.022.14.04.147.127.248.274.294.127.039.256.047.385.008a.43.43 0 00.225-.162c.017-.022.033-.033.062-.033h.741c.041 0 .043.013.032.047-.13.385-.406.606-.793.703a1.7 1.7 0 01-.383.045 1.74 1.74 0 01-.656-.096c-.414-.157-.676-.45-.754-.888a1.291 1.291 0 01.169-.95c.142-.224.341-.38.593-.46.34-.11.687-.118 1.03-.02.426.12.678.414.793.833.041.149.047.301.045.454 0 .034-.02.03-.041.03h-.851zm-.39-.465h.446c.018 0 .04.005.032-.026a.493.493 0 00-.185-.292.521.521 0 00-.337-.079.444.444 0 00-.43.362c-.008.031 0 .035.028.035h.446zM7.168 5.888v-.775c0-.035-.007-.046-.043-.045-.076.003-.152 0-.227.001-.026 0-.034-.008-.034-.034V4.42c0-.029.01-.035.036-.034.075.002.15-.002.224.002.039.002.046-.012.045-.048a5.42 5.42 0 010-.307c.007-.214.043-.422.163-.603.16-.241.386-.394.67-.458a.966.966 0 01.584.04c.036.015.047.032.047.071-.002.203-.001.407-.001.61 0 .06 0 .06-.05.034a.556.556 0 00-.287-.067.256.256 0 00-.251.245c-.014.148-.007.297-.01.445-.001.03.01.038.038.038l.518-.001c.032 0 .043.007.043.042-.002.197-.002.395 0 .593 0 .036-.008.049-.047.049-.165-.002-.331-.001-.497-.001-.062 0-.055-.007-.055.057v1.529c0 .057 0 .057-.057.057h-.766c-.033 0-.043-.007-.042-.042v-.783zM26.55.802c-.164-.198-.552-.247-.792-.134-.05.024-.103.043-.148.076l-1.44 1.044c-.103.09-.195.191-.21.323-.013.12 0 .22.105.328.239.243.66.244.86.122.185-.112 1.402-1.012 1.6-1.158l.052-.052a.451.451 0 00-.026-.55zM20.494 2.402c.105-.107.119-.207.105-.328-.014-.132-.107-.233-.21-.323L18.95.707c-.045-.033-.097-.052-.148-.076-.24-.113-.628-.064-.792.134a.45.45 0 00-.026.549l.051.051c.198.147 1.416 1.047 1.6 1.16.2.121.622.12.86-.123zM22.29 2.13c.307 0 .565-.14.638-.4a.421.421 0 00.015-.11l.006-.937.001-.023c0-.36-.29-.528-.655-.528-.362 0-.656.195-.66.551v.944c0 .037.003.074.011.11.063.27.327.392.644.392zM24.19 2.833c-.488-.243-1.134-.395-1.977-.395-1.413 0-2.36.445-2.842 1.093h.007l-.002.003h5.686a2.471 2.471 0 00-.872-.7zM2.077 6.448c-.042.034-.076.064-.112.092a.954.954 0 01-.527.208 1.227 1.227 0 01-.786-.175A1.067 1.067 0 01.15 5.79a1.289 1.289 0 01.12-.81c.191-.363.49-.583.901-.643.215-.032.425-.014.625.077.09.04.165.101.233.17l.037.044.012-.008c0-.063.002-.125 0-.188-.001-.031.006-.044.041-.044.258.002.517.002.775 0 .029 0 .038.007.038.038 0 .76.002 1.522-.003 2.283a1.115 1.115 0 01-.104.514c-.123.24-.316.405-.556.518a1.615 1.615 0 01-.594.138 1.881 1.881 0 01-.75-.088 1.213 1.213 0 01-.702-.588.617.617 0 01-.056-.171C.161 7 .166 6.99.2 6.99c.215.002.43 0 .645 0h.244c.017 0 .032 0 .04.022.051.138.162.2.3.218.135.017.268.006.391-.062a.477.477 0 00.25-.4c.01-.103.008-.208.007-.321zm-.509-.368a.541.541 0 10.002-1.083.547.547 0 00-.547.543c-.002.28.24.545.545.54z"/>
    </g>
</svg>
