<svg
   fill="none"
   height="15.989"
   viewBox="0 0 28.615074 15.989"
   width="28.615074"
   version="1.1"
   xmlns="http://www.w3.org/2000/svg"
   xmlns:svg="http://www.w3.org/2000/svg">
  <path
     clip-rule="evenodd"
     d="m 14.3022,10.3805 c 4.1515,0 7.7733,2.2566 9.7131,5.6085 H 4.5895 c 1.9397,-3.3519 5.5615,-5.6085 9.7127,-5.6085 z M 25.4593,5.00219 c 0.7196,-0.71962 1.8968,-0.71962 2.616,0 0.7197,0.71925 0.7197,1.89641 0,2.61604 l -2.7881,2.78817 c -0.7193,0.7192 -1.8964,0.7192 -2.6161,0 L 22.6077,10.3397 C 21.9526,9.61585 21.9737,8.48781 22.6711,7.79036 Z M 0.6061,4.93875 C 1.33,4.28323 2.458,4.30437 3.1555,5.00219 L 5.944,7.79036 c 0.7193,0.71925 0.7193,1.89641 0,2.61604 -0.7196,0.7192 -1.8968,0.7192 -2.616,0 L 0.5394,7.61823 c -0.7192,-0.71963 -0.7192,-1.89679 0,-2.61604 z M 14.2789,0 14.3588,0.00171783 C 15.3397,0.0439453 16.1287,0.859306 16.1287,1.85014 v 3.94275 c 0,1.01761 -0.8322,1.85014 -1.8498,1.85014 -1.0173,0 -1.8498,-0.83253 -1.8498,-1.85014 V 1.85014 C 12.4291,0.832526 13.2616,0 14.2789,0 Z"
     fill="#02a95c"
     fill-rule="evenodd"></path>
</svg>
