<svg xmlns:rdf="http://www.w3.org/1999/02/22-rdf-syntax-ns#" xmlns="http://www.w3.org/2000/svg" version="1.1" xml:space="preserve" height="100%" width="100%" enable-background="new 0 0 134.658 131.646" y="0px" x="0px" xmlns:cc="http://creativecommons.org/ns#" xmlns:dc="http://purl.org/dc/elements/1.1/" viewBox="0 0 134.658 131.646"><path fill="#DC4A38" d="m126.52 4.109h-118.38c-2.177 0-3.94 1.763-3.94 3.938v115.55c0 2.179 1.763 3.942 3.94 3.942h118.37c2.177 0 3.94-1.764 3.94-3.942v-115.54c0-2.176-1.77-3.939-3.94-3.939z"/><path fill="#FFF" d="m70.479 71.845l-3.983-3.093c-1.213-1.006-2.872-2.334-2.872-4.765 0-2.441 1.659-3.993 3.099-5.43 4.64-3.652 9.276-7.539 9.276-15.73 0-8.423-5.3-12.854-7.84-14.956h6.849l7.189-4.517h-21.779c-5.976 0-14.588 1.414-20.893 6.619-4.752 4.1-7.07 9.753-7.07 14.842 0 8.639 6.633 17.396 18.346 17.396 1.106 0 2.316-0.109 3.534-0.222-0.547 1.331-1.1 2.439-1.1 4.32 0 3.431 1.763 5.535 3.317 7.528-4.977 0.342-14.268 0.893-21.117 5.103-6.523 3.879-8.508 9.525-8.508 13.51 0 8.202 7.731 15.842 23.762 15.842 19.01 0 29.074-10.519 29.074-20.932 0.001-7.649-4.419-11.415-9.284-15.513zm-14.479-12.738c-9.51 0-13.818-12.294-13.818-19.712 0-2.888 0.547-5.87 2.428-8.199 1.773-2.218 4.861-3.657 7.744-3.657 9.168 0 13.923 12.404 13.923 20.382 0 1.996-0.22 5.533-2.762 8.09-1.778 1.774-4.753 3.096-7.515 3.096zm0.109 44.543c-11.826 0-19.452-5.657-19.452-13.523 0-7.864 7.071-10.524 9.504-11.405 4.64-1.561 10.611-1.779 11.607-1.779 1.105 0 1.658 0 2.538 0.111 8.407 5.983 12.056 8.965 12.056 14.629 0 6.859-5.639 11.967-16.253 11.967z"/><polygon points="98.393 58.938 98.393 47.863 92.923 47.863 92.923 58.938 81.866 58.938 81.866 64.469 92.923 64.469 92.923 75.612 98.393 75.612 98.393 64.469 109.51 64.469 109.51 58.938" fill="#FFF"/></svg>
