<svg id="svg2" xmlns:rdf="http://www.w3.org/1999/02/22-rdf-syntax-ns#" xmlns="http://www.w3.org/2000/svg" xml:space="preserve" viewBox="0 0 1000 750" version="1.1" xmlns:cc="http://creativecommons.org/ns#" xmlns:xlink="http://www.w3.org/1999/xlink" xmlns:dc="http://purl.org/dc/elements/1.1/"><metadata id="metadata8"><rdf:RDF><cc:Work rdf:about=""><dc:format>image/svg+xml</dc:format><dc:type rdf:resource="http://purl.org/dc/dcmitype/StillImage"/><dc:title/></cc:Work></rdf:RDF></metadata><defs id="defs6"><clipPath id="clipPath16" clipPathUnits="userSpaceOnUse"><path id="path18" d="M0,600,800,600,800,0,0,0,0,600z"/></clipPath><clipPath id="clipPath24" clipPathUnits="userSpaceOnUse"><path id="path26" d="M94,595,707,595,707,7,94,7,94,595z"/></clipPath><clipPath id="clipPath28" clipPathUnits="userSpaceOnUse"><path id="path30" d="M94,595,707,595,707,7,94,7,94,595z"/></clipPath><mask id="mask32" height="1" width="1" y="0" x="0" maskUnits="userSpaceOnUse"><g id="g34"><g id="g36" clip-path="url(#clipPath28)"><g id="g38"><g id="g40" transform="matrix(613,0,0,588,94,7)"/></g></g></g></mask><mask id="mask44" height="1" width="1" y="0" x="0" maskUnits="userSpaceOnUse"/><clipPath id="clipPath82" clipPathUnits="userSpaceOnUse"><path id="path84" d="m150.18,464.98-31.293-17.372,563.56,0-30.054,17.741,3.985,14.046-511.42,1.24,5.223-15.655z"/></clipPath><linearGradient id="linearGradient90" gradientUnits="userSpaceOnUse" gradientTransform="matrix(0,33.027344,33.027344,0,400.66455,447.61035)"><stop id="stop92" stop-color="#6b6c6f" offset="0"/><stop id="stop94" stop-color="#adafb1" offset="1"/></linearGradient><clipPath id="clipPath102" clipPathUnits="userSpaceOnUse"><path id="path104" d="M0,600,800,600,800,0,0,0,0,600z"/></clipPath><clipPath id="clipPath146" clipPathUnits="userSpaceOnUse"><path id="path148" d="m495,491,50,0,0-102-50,0,0,102z"/></clipPath><clipPath id="clipPath150" clipPathUnits="userSpaceOnUse"><path id="path152" d="m495,491,50,0,0-102-50,0,0,102z"/></clipPath><mask id="mask154" height="1" width="1" y="0" x="0" maskUnits="userSpaceOnUse"><g id="g156"><g id="g158" clip-path="url(#clipPath150)"><g id="g160"><g id="g162" transform="matrix(50,0,0,102,495,389)"/></g></g></g></mask><mask id="mask166" height="1" width="1" y="0" x="0" maskUnits="userSpaceOnUse"/><clipPath id="clipPath192" clipPathUnits="userSpaceOnUse"><path id="path194" d="m251,494,50,0,0-105-50,0,0,105z"/></clipPath><clipPath id="clipPath196" clipPathUnits="userSpaceOnUse"><path id="path198" d="m251,494,50,0,0-105-50,0,0,105z"/></clipPath><mask id="mask200" height="1" width="1" y="0" x="0" maskUnits="userSpaceOnUse"><g id="g202"><g id="g204" clip-path="url(#clipPath196)"><g id="g206"><g id="g208" transform="matrix(50,0,0,105,251,389)"/></g></g></g></mask><mask id="mask212" height="1" width="1" y="0" x="0" maskUnits="userSpaceOnUse"/><linearGradient id="linearGradient246" gradientUnits="userSpaceOnUse" gradientTransform="matrix(-1.53e-5,182.69482,182.69482,1.53e-5,397.80811,400.25293)"><stop id="stop248" stop-color="#9ea0a3" offset="0"/><stop id="stop250" stop-color="#FFF" offset="0.87117"/><stop id="stop252" stop-color="#FFF" offset="1"/></linearGradient><linearGradient id="linearGradient268" gradientUnits="userSpaceOnUse" gradientTransform="matrix(-44.919617,195.18993,195.18993,44.919632,399.18799,224.02832)"><stop id="stop270" stop-color="#d6ffa1" offset="0"/><stop id="stop272" stop-color="#00a3b5" offset="1"/></linearGradient><linearGradient id="linearGradient288" gradientUnits="userSpaceOnUse" gradientTransform="matrix(114.96594,-196.34709,-196.34709,-114.96593,393.56836,358.0166)"><stop id="stop290" stop-color="#ff177b" offset="0"/><stop id="stop292" stop-color="#ffec73" offset="1"/></linearGradient><linearGradient id="linearGradient308" gradientUnits="userSpaceOnUse" gradientTransform="matrix(-69.483948,268.0954,268.0954,69.483948,359.28076,149.94043)"><stop id="stop310" stop-color="#63ffd4" offset="0"/><stop id="stop312" stop-color="#064aa2" offset="1"/></linearGradient><linearGradient id="linearGradient328" gradientUnits="userSpaceOnUse" gradientTransform="matrix(-240.85071,-32.992401,-32.992401,240.85071,499.41406,167.5127)"><stop id="stop330" stop-color="#ff4521" offset="0"/><stop id="stop332" stop-color="#8a33db" offset="1"/></linearGradient></defs><g id="g10" transform="matrix(1.25,0,0,-1.25,0,750)"><g id="g12"><g id="g14" clip-path="url(#clipPath16)"><g id="g20"><g id="g48"><g id="g50" opacity="0.5" clip-path="url(#clipPath24)"><g id="g52"><g id="g56" mask="url(#mask32)"><g id="g58" transform="matrix(613,0,0,588,94,7)"/></g></g></g></g></g><g id="g62" transform="translate(300.3696,511.2739)"><path id="path64" fill-rule="nonzero" fill="#FFF" d="m0,0c43.935,58.078,103.72,50.141,103.72,50.141,73.143-6.233,97.653-50.262,105.24-78.682l-223.01,1.416c4.506,14.21,14.05,27.125,14.05,27.125m390.96-64.229-28.103,17.359-0.825,17.359-135.81,0.861c-2.459,10.743-5.483,18.788-5.483,18.788s-8.142,26.36-45.862,55.077c-37.718,28.718-76.08,26.146-76.08,26.146s-41.575,5.358-81.65-28.289c-33.406-28.033-43.434-48.629-47.96-70.091l-130.63,0.829,2.304-15.053-31.95-18.739s15.685-247.33,4.526-425.8l572.14,0.496s-8.679,131.74,5.373,421.05"/></g><g id="g66" transform="translate(501.4473,479.3975)"><path id="path68" fill-rule="nonzero" fill="#918f95" d="m0,0s-4.274,50.109-31.64,61.226l-8.892,13.339-35.913,13.853-52.847,0.684-36.257-23.942s-36.771-21.207-37.283-65.16l-22.232,0.685,39.163,64.816,37.625,24.286,24.798,6.84,45.492-1.539,18.129-8.209,25.997-10.603,39.676-39.165,11.973-37.111h-17.787z"/></g><g id="g70" transform="translate(138.9395,485.084)"><path id="path72" fill-rule="nonzero" fill="#FFF" d="m0,0,2.304-15.053-31.95-18.739s15.685-247.33,4.526-425.8l572.14,0.496s-8.68,131.74,5.373,421.05l-28.1,17.36-0.83,17.359-523.46,3.321z"/></g><g id="g74" transform="translate(685.9541,25.9697)"><path id="path76" fill-rule="nonzero" fill="#d7d7da" d="m0,0-572.14-0.474,1.215-6.529,569.52,0l1.4,7.003z"/></g></g></g><g id="g78"><g id="g80" clip-path="url(#clipPath82)"><g id="g86"><g id="g88"><path id="path96" fill="url(#linearGradient90)" d="m150.18,464.98-31.293-17.372,563.56,0-30.054,17.741,3.985,14.046-511.42,1.24,5.223-15.655z"/></g></g></g></g><g id="g98"><g id="g100" clip-path="url(#clipPath102)"><g id="g106" transform="translate(146.1958,477.1118)"><path id="path108" fill-rule="nonzero" fill="#2d2d2d" d="m0,0,3.681-12.169,0.031-17.295,9.45,0l-13.162,29.464z"/></g><g id="g110" transform="translate(681.2021,447.6104)"><path id="path112" fill-rule="nonzero" fill="#797b82" d="M0,0-28.813,16.466-28.813,0"/></g><g id="g114" transform="translate(149.877,464.8145)"><path id="path116" fill-rule="nonzero" fill="#797b82" d="m0,0,0.031-17.167-30.956,0l30.925,17.167z"/></g><g id="g118" transform="translate(289.8193,402.7378)"><path id="path120" fill-rule="nonzero" fill="#6e6d71" d="m0,0c0,7.336-5.947,13.284-13.284,13.284s-13.284-5.948-13.284-13.284,5.947-13.284,13.284-13.284,13.284,5.948,13.284,13.284"/></g><g id="g122" transform="translate(268.8223,412.7031)"><path id="path124" fill-rule="nonzero" fill="#3f4040" d="m0,0-0.929-19.95s-4.425,2.989-4.64,9.72c-0.214,6.731,5.569,10.23,5.569,10.23"/></g><g id="g126" transform="translate(289.6753,400.7783)"><path id="path128" fill-rule="nonzero" fill="#3f4040" d="m0,0s-0.929-6.587-6.616-9.615c-7.081-3.768-12.525-0.28-12.525-0.28"/></g><g id="g130" transform="translate(536.5254,402.728)"><path id="path132" fill-rule="nonzero" fill="#6e6d71" d="m0,0c0,8.01-7.011,14.503-15.658,14.503-8.651,0-15.661-6.493-15.661-14.503s7.01-14.503,15.661-14.503c8.647,0,15.658,6.493,15.658,14.503"/></g><g id="g134" transform="translate(525.6768,388.9136)"><path id="path136" fill-rule="nonzero" fill="#a4a1a0" d="M0,0s-15.499,3.048-18.134,6.819c-2.693,3.854,2.031-5.736,6.509-6.819,6.49-1.571,11.625,0,11.625,0"/></g><g id="g138" transform="translate(530.0352,392.4531)"><path id="path140" fill-rule="nonzero" fill="#43434a" d="m0,0s4.558,5.875,1.613,13.469-13.484,9.454-14.879,10.229,11.438,1.24,15.792-3.409c4.357-4.65,3.967-9.164,3.892-11.249-0.121-3.262-2.484-8.377-7.195-11.013"/></g><g id="g142"><g id="g170"><g id="g172" opacity="0.5" clip-path="url(#clipPath146)"><g id="g174"><g id="g178" mask="url(#mask154)"><g id="g180" transform="matrix(50,0,0,102,495,389)"/></g></g></g></g></g><g id="g184" transform="translate(510.6592,477.1768)"><path id="path186" fill-rule="nonzero" fill="#FFF" d="m0,0,15.921-0.102s4.394-30.978,3.1-70.224l-16.717-0.588s7.896,53.247-2.304,70.914"/></g><g id="g188"><g id="g216"><g id="g218" opacity="0.5" clip-path="url(#clipPath192)"><g id="g220"><g id="g224" mask="url(#mask200)"><g id="g226" transform="matrix(50,0,0,105,251,389)"/></g></g></g></g></g><g id="g230" transform="translate(285.0293,479.3916)"><path id="path232" fill-rule="nonzero" fill="#FFF" d="m0,0-16.207,1.07s-4.44-32.559-0.183-71.679l14.37-2.52s-2.904,53.859,2.02,73.129"/></g></g></g><g id="g234"><g id="g236"><g id="g242"><g id="g244"><path id="path254" fill="url(#linearGradient246)" d="m317.52,554.35c-40.077-33.647-46.506-56.578-50.149-83.152s0-63.864,0-63.864,0.428-7.286,7.93-7.072c7.5,0.214,7.713,6.005,7.713,6.005s0,48.858,1.072,66.646c1.071,17.788,16.289,38.365,16.289,38.365,43.934,58.078,103.72,50.141,103.72,50.141,85.508-7.287,104.56-66.235,107.8-91.502,3.218-25.084,1.072-63.65,1.072-63.65s0.214-6.01,7.715-6.01c7.5,0,9.002,6.644,9.002,6.644s0.428,33.432,0,53.149c-0.429,19.716-8.574,41.366-8.574,41.366s-8.141,26.36-45.862,55.077c-37.718,28.718-76.079,26.146-76.079,26.146s-2.424,0.312-6.67,0.312c-13.328,0-44.587-3.083-74.98-28.601"/></g></g></g></g><g id="g256"><g id="g258"><g id="g264"><g id="g266"><path id="path274" fill="url(#linearGradient268)" d="m297.7,342.26,128.59-128.58,40.28,40.292-157,86.317c-3.048,1.67-5.933,2.463-8.516,2.463-1.188,0-2.312-0.168-3.359-0.496"/></g></g></g></g><g id="g276"><g id="g278"><g id="g284"><g id="g286"><path id="path294" fill="url(#linearGradient288)" d="m426.3,213.68,40.48-40.488,53.593,29.468c10.871,5.991,10.871,15.762,0,21.731l-53.786,29.581-40.287-40.292z"/></g></g></g></g><g id="g296"><g id="g298"><g id="g304"><g id="g306"><path id="path314" fill="url(#linearGradient308)" d="m289.82,328.62,0.036-230.17c0-7.228,2.991-11.997,7.635-13.586l128.79,128.81-128.59,128.59c-4.773-1.497-7.871-6.329-7.871-13.641"/></g></g></g></g><g id="g316"><g id="g318"><g id="g324"><g id="g326"><path id="path334" fill="url(#linearGradient328)" d="m297.49,84.861c3.343-1.13,7.531-0.61,12.086,1.898l157.18,86.436-40.477,40.474-128.79-128.81z"/></g></g></g></g></g></svg>
