<svg xmlns:rdf="http://www.w3.org/1999/02/22-rdf-syntax-ns#" xmlns="http://www.w3.org/2000/svg" xml:space="preserve" viewBox="0 0 727.56488 704.98035" height="704.98" width="727.56" version="1.1" xmlns:cc="http://creativecommons.org/ns#" xmlns:dc="http://purl.org/dc/elements/1.1/"><defs><clipPath id="clipPath16" clipPathUnits="userSpaceOnUse"><path d="m0 600h800v-600h-800v600z"/></clipPath><clipPath id="clipPath24" clipPathUnits="userSpaceOnUse"><path d="m94 595h613v-588h-613v588z"/></clipPath><clipPath id="clipPath28" clipPathUnits="userSpaceOnUse"><path d="m94 595h613v-588h-613v588z"/></clipPath><mask id="mask32" height="1" width="1" y="0" x="0" maskUnits="userSpaceOnUse"><g clip-path="url(#clipPath28)"/></mask><clipPath id="clipPath82" clipPathUnits="userSpaceOnUse"><path d="m150.18 464.98-31.293-17.372h563.56l-30.054 17.741 3.985 14.046-511.42 1.24 5.223-15.655z"/></clipPath><linearGradient id="linearGradient90" gradientUnits="userSpaceOnUse" gradientTransform="matrix(0 33.027 33.027 0 400.66 447.61)"><stop stop-color="#6b6c6f" offset="0"/><stop stop-color="#adafb1" offset="1"/></linearGradient><clipPath id="clipPath102" clipPathUnits="userSpaceOnUse"><path d="m0 600h800v-600h-800v600z"/></clipPath><clipPath id="clipPath146" clipPathUnits="userSpaceOnUse"><path d="m495 491h50v-102h-50v102z"/></clipPath><clipPath id="clipPath150" clipPathUnits="userSpaceOnUse"><path d="m495 491h50v-102h-50v102z"/></clipPath><mask id="mask154" height="1" width="1" y="0" x="0" maskUnits="userSpaceOnUse"><g clip-path="url(#clipPath150)"/></mask><clipPath id="clipPath192" clipPathUnits="userSpaceOnUse"><path d="m251 494h50v-105h-50v105z"/></clipPath><clipPath id="clipPath196" clipPathUnits="userSpaceOnUse"><path d="m251 494h50v-105h-50v105z"/></clipPath><mask id="mask200" height="1" width="1" y="0" x="0" maskUnits="userSpaceOnUse"><g clip-path="url(#clipPath196)"/></mask><linearGradient id="linearGradient246" gradientUnits="userSpaceOnUse" gradientTransform="matrix(-.0000153 182.69 182.69 .0000153 397.81 400.25)"><stop stop-color="#9ea0a3" offset="0"/><stop stop-color="#FFF" offset=".87117"/><stop stop-color="#FFF" offset="1"/></linearGradient><linearGradient id="linearGradient268" gradientUnits="userSpaceOnUse" gradientTransform="matrix(-44.92 195.19 195.19 44.92 399.19 224.03)"><stop stop-color="#d6ffa1" offset="0"/><stop stop-color="#00a3b5" offset="1"/></linearGradient><linearGradient id="linearGradient288" gradientUnits="userSpaceOnUse" gradientTransform="matrix(114.97 -196.35 -196.35 -114.97 393.57 358.02)"><stop stop-color="#ff177b" offset="0"/><stop stop-color="#ffec73" offset="1"/></linearGradient><linearGradient id="linearGradient308" gradientUnits="userSpaceOnUse" gradientTransform="matrix(-69.484 268.1 268.1 69.484 359.28 149.94)"><stop stop-color="#63ffd4" offset="0"/><stop stop-color="#064aa2" offset="1"/></linearGradient><linearGradient id="linearGradient328" gradientUnits="userSpaceOnUse" gradientTransform="matrix(-240.85 -32.992 -32.992 240.85 499.41 167.51)"><stop stop-color="#ff4521" offset="0"/><stop stop-color="#8a33db" offset="1"/></linearGradient></defs><g transform="matrix(1.25 0 0 -1.25 -136.6 728.69)"><g clip-path="url(#clipPath16)"><g opacity=".5" clip-path="url(#clipPath24)"><g mask="url(#mask32)"/></g><g transform="translate(300.37 511.27)"><path fill="#fff" d="m0 0c43.935 58.078 103.72 50.141 103.72 50.141 73.143-6.233 97.653-50.262 105.24-78.682l-223.01 1.416c4.506 14.21 14.05 27.125 14.05 27.125m390.96-64.229-28.103 17.359-0.825 17.359-135.81 0.861c-2.459 10.743-5.483 18.788-5.483 18.788s-8.142 26.36-45.862 55.077c-37.718 28.718-76.08 26.146-76.08 26.146s-41.575 5.358-81.65-28.289c-33.406-28.033-43.434-48.629-47.96-70.091l-130.63 0.829 2.304-15.053-31.95-18.739s15.685-247.33 4.526-425.8l572.14 0.496s-8.679 131.74 5.373 421.05"/></g><g transform="translate(501.45 479.4)"><path fill="#918f95" d="m0 0s-4.274 50.109-31.64 61.226l-8.892 13.339-35.913 13.853-52.847 0.684-36.257-23.942s-36.771-21.207-37.283-65.16l-22.232 0.685 39.163 64.816 37.625 24.286 24.798 6.84 45.492-1.539 18.129-8.209 25.99-10.603 39.676-39.165 11.973-37.111h-17.787z"/></g><g transform="translate(138.94 485.08)"><path fill="#fff" d="m0 0 2.304-15.053-31.95-18.739s15.685-247.33 4.526-425.8l572.14 0.496s-8.68 131.74 5.373 421.05l-28.1 17.36-0.83 17.359-523.46 3.321z"/></g><g transform="translate(685.95 25.97)"><path fill="#d7d7da" d="m0 0-572.14-0.474 1.215-6.529h569.52l1.4 7.003z"/></g></g><g clip-path="url(#clipPath82)"><path fill="url(#linearGradient90)" d="m150.18 464.98-31.293-17.372h563.56l-30.054 17.741 3.985 14.046-511.42 1.24 5.223-15.655z"/></g><g clip-path="url(#clipPath102)"><g transform="translate(146.2 477.11)"><path fill="#2d2d2d" d="m0 0 3.681-12.169 0.031-17.295h9.45l-13.162 29.464z"/></g><g transform="translate(681.2 447.61)"><path fill="#797b82" d="m0 0-28.813 16.466v-16.466"/></g><g transform="translate(149.88 464.81)"><path fill="#797b82" d="m0 0 0.031-17.167h-30.956l30.925 17.167z"/></g><g transform="translate(289.82 402.74)"><path fill="#6e6d71" d="m0 0c0 7.336-5.947 13.284-13.284 13.284s-13.284-5.948-13.284-13.284 5.947-13.284 13.284-13.284 13.284 5.948 13.284 13.284"/></g><g transform="translate(268.82 412.7)"><path fill="#3f4040" d="m0 0-0.929-19.95s-4.425 2.989-4.64 9.72c-0.214 6.731 5.569 10.23 5.569 10.23"/></g><g transform="translate(289.68 400.78)"><path fill="#3f4040" d="m0 0s-0.929-6.587-6.616-9.615c-7.081-3.768-12.525-0.28-12.525-0.28"/></g><g transform="translate(536.53 402.73)"><path fill="#6e6d71" d="m0 0c0 8.01-7.011 14.503-15.658 14.503-8.651 0-15.661-6.493-15.661-14.503s7.01-14.503 15.661-14.503c8.647 0 15.658 6.493 15.658 14.503"/></g><g transform="translate(525.68 388.91)"><path fill="#a4a1a0" d="m0 0s-15.499 3.048-18.134 6.819c-2.693 3.854 2.031-5.736 6.509-6.819 6.49-1.571 11.625 0 11.625 0"/></g><g transform="translate(530.04 392.45)"><path fill="#43434a" d="m0 0s4.558 5.875 1.613 13.469-13.484 9.454-14.879 10.229 11.438 1.24 15.792-3.409c4.357-4.65 3.967-9.164 3.892-11.249-0.121-3.262-2.484-8.377-7.195-11.013"/></g><g opacity=".5" clip-path="url(#clipPath146)"><g mask="url(#mask154)"/></g><g transform="translate(510.66 477.18)"><path fill="#fff" d="m0 0 15.921-0.102s4.394-30.978 3.1-70.224l-16.717-0.588s7.896 53.247-2.304 70.914"/></g><g opacity=".5" clip-path="url(#clipPath192)"><g mask="url(#mask200)"/></g><g transform="translate(285.03 479.39)"><path fill="#fff" d="m0 0-16.207 1.07s-4.44-32.559-0.183-71.679l14.37-2.52s-2.904 53.859 2.02 73.129"/></g></g><path fill="url(#linearGradient246)" d="m317.52 554.35c-40.077-33.647-46.506-56.578-50.149-83.152s0-63.864 0-63.864 0.428-7.286 7.93-7.072c7.5 0.214 7.713 6.005 7.713 6.005s0 48.858 1.072 66.646c1.071 17.788 16.289 38.365 16.289 38.365 43.934 58.078 103.72 50.141 103.72 50.141 85.508-7.287 104.56-66.235 107.8-91.502 3.218-25.084 1.072-63.65 1.072-63.65s0.214-6.01 7.715-6.01c7.5 0 9.002 6.644 9.002 6.644s0.428 33.432 0 53.149c-0.429 19.716-8.574 41.366-8.574 41.366s-8.141 26.36-45.862 55.077c-37.718 28.718-76.079 26.146-76.079 26.146s-2.424 0.312-6.67 0.312c-13.328 0-44.587-3.083-74.98-28.601"/><path fill="url(#linearGradient268)" d="m297.7 342.26 128.59-128.58 40.28 40.292-157 86.317c-3.048 1.67-5.933 2.463-8.516 2.463-1.188 0-2.312-0.168-3.359-0.496"/><path fill="url(#linearGradient288)" d="m426.3 213.68 40.48-40.488 53.593 29.468c10.871 5.991 10.871 15.762 0 21.731l-53.78 29.58-40.29-40.29z"/><path fill="url(#linearGradient308)" d="m289.82 328.62 0.036-230.17c0-7.228 2.991-11.997 7.635-13.586l128.79 128.81-128.59 128.59c-4.773-1.497-7.871-6.329-7.871-13.641"/><path fill="url(#linearGradient328)" d="m297.49 84.861c3.343-1.13 7.531-0.61 12.086 1.898l157.18 86.436-40.477 40.474-128.79-128.81z"/></g></svg>
