<svg xmlns:rdf="http://www.w3.org/1999/02/22-rdf-syntax-ns#" xmlns="http://www.w3.org/2000/svg" enable-background="new 0 0 841.89 595.28" xml:space="preserve" height="129.16" viewBox="0 0 561.79998 129.16047" width="561.8" version="1.1" y="0px" x="0px" xmlns:cc="http://creativecommons.org/ns#" xmlns:dc="http://purl.org/dc/elements/1.1/"><g fill="#808285"><rect height="57.875" width="4.75" y="33.809" x="468.88"/><path d="m515.63 84.809v-23.25s-0.333-12.629-16.5-12.629-16.625 11.879-16.625 11.879l5.125-0.016s-0.25-8.109 11.375-8.109 11.5 9.375 11.5 9.375v5.609l-9.5 0.016c-13.563 0-20.25 5.188-20.25 12.5s4.063 12.5 14 12.5 15.5-7 15.5-7c0 2.875 1.5 6 1.5 6h5.5s-1.625-3.562-1.625-6.875zm-5.125-8.312c0 8.438-10.188 12.125-15.313 12.125s-9.375-2.438-9.375-8.063 6.688-9.313 14.813-9.313h9.875v5.251z"/><path d="m520.55 49.934h5l15.5 35.584 15.084-35.584h5.666s-19.749 46.458-21.583 50.833-6.209 8.417-11.583 8.417c-2.418 0-4.834-1.417-4.834-1.417l1.334-3.75s1.209 0.667 3.583 0.667 6.5-5.5 6.5-5.5l3-7.167-17.667-42.083z"/><path d="m443.93 48.93c-8.874 0-14.819 7.28-14.984 7.484v-6.48h-4.75v57.75h4.75v-22.846c0.163 0.272 4.798 7.85 15.109 7.85 10.5 0 18.625-6.75 18.625-22.211s-9.75-21.543-18.75-21.543zm-0.75 39.879c-8.616 0-14.069-8.829-14.234-9.1v-18.047c0.166-0.225 6.472-8.729 14.859-8.729 7.625 0 14 7.75 14 17.873s-5.875 18.003-14.625 18.003z"/></g><linearGradient id="SVGID_1_" y2="252.48" gradientUnits="userSpaceOnUse" x2="210.54" gradientTransform="translate(-124.7 -206.6)" y1="284.51" x1="226.86"><stop stop-color="#FCD08F" offset="0"/><stop stop-color="#F79673" offset="1"/></linearGradient><path fill="url(#SVGID_1_)" d="m89.178 84.522c15.287-8.367 26.962-14.758 28.024-15.34 3.168-1.734 6.487-6.159 0-9.696-2.085-1.139-13.446-7.334-28.042-15.297l-20.075 20.229 20.093 20.104z"/><linearGradient id="SVGID_2_" y2="346.37" gradientUnits="userSpaceOnUse" x2="140.99" gradientTransform="translate(-124.7 -206.6)" y1="279.74" x1="203.13"><stop stop-color="#E74047" offset="0"/><stop stop-color="#7F50A0" offset="1"/></linearGradient><path fill="url(#SVGID_2_)" d="m69.084 64.418-64.208 64.702c1.45 0.184 3.194-0.2 5.2-1.298 4.153-2.273 48.753-26.686 79.102-43.298l-20.094-20.102z"/><linearGradient id="SVGID_3_" y2="196.31" gradientUnits="userSpaceOnUse" x2="140.34" gradientTransform="translate(-124.7 -206.6)" y1="261.67" x1="203.46"><stop stop-color="#E6FFAB" offset="0"/><stop stop-color="#47BEBC" offset="1"/></linearGradient><path fill="url(#SVGID_3_)" d="m69.084 64.418 20.075-20.229l-79.083-43.146c-1.717-0.93664-3.589-1.2636-5.246-0.89464l64.254 64.27z"/><linearGradient id="SVGID_4_" y2="206.75" gradientUnits="userSpaceOnUse" x2="159.24" gradientTransform="translate(-124.7 -206.6)" y1="335.72" x1="159.24"><stop stop-color="#84E9DB" offset="0"/><stop stop-color="#197491" offset="1"/></linearGradient><path fill="url(#SVGID_4_)" d="m69.084 64.418-64.255-64.269c-2.654 0.59236-4.829 2.8894-4.829 7.5064v113.75c0 4.348 1.711 7.406 4.875 7.711l64.209-64.702z"/><g fill="#808285"><path d="m201.15 37.895s-6.938-7.057-24.286-7.057c-21.121 0-33.395 16.221-33.395 31.582 0 13.426 9.281 30.38 32.354 30.38 11.927 0 25.327-4.388 25.327-4.388v-10.415c0-5.119 3.47-6.885 3.47-6.885h-18.475l-6.506 3.615c3.492-0.882 12.751-0.774 12.751-0.774v12.908s-4.099 2.323-10.321 2.323c-18 0-29.665-15.791-29.665-30.206 0-17.598 12.577-25.043 23.505-25.043 10.93 0 17.088 8.09 17.088 8.09l-1.996 3.271 3.21-0.86 6.939-6.541z"/><path d="m230.51 49.096c-12.38 0-22.468 8.987-22.468 22.103 0 9.446 7.612 20.818 21.092 20.818 13.482 0 22.93-8.986 22.93-21.643s-9.172-21.278-21.554-21.278zm0.917 40.169c-10.217 0-15.041-15.773-15.041-23.753 0-7.979 5.412-13.665 11.647-13.665 8.896 0 15.041 10.497 15.041 22.745 0.001 4.218-1.429 14.673-11.647 14.673z"/><path d="m278.69 49.118c-12.375 0-22.458 8.983-22.458 22.092 0 9.441 7.608 20.808 21.083 20.808 13.476 0 22.917-8.981 22.917-21.632s-9.166-21.268-21.542-21.268zm0.916 40.149c-10.211 0-15.033-15.767-15.033-23.742 0-7.974 5.41-13.657 11.642-13.657 8.893 0 15.034 10.492 15.034 22.732 0 4.217-1.429 14.667-11.643 14.667z"/><path d="m335.78 88.975c-4.419-3.05-5.284-4.509-5.284-5.83 0-1.32 0.047-2.39 3.189-5.373 3.142-2.984 6.014-6.104 6.014-11.753 0-8.382-5.648-12.117-5.648-12.117l5.374-0.181 5.374-3.189h-20.951c-10.75 0-18.858 8.291-18.858 17.219 0 6.285 5.329 13.8 15.852 13.8 1.093 0 1.822-0.228 1.822-0.228s-0.637 1.391-0.637 3.235c0 3.007 2.595 5.694 2.595 5.694s-24.278 0.022-24.278 15.577c0 9.404 10.613 12.936 19.313 12.936 8.701 0 23.595-4.69 23.595-16.672-0.002-5.715-3.051-10.065-7.472-13.118zm-11.524-10.157c-6.354 0-11.41-9.496-11.41-15.235 0-5.74 2.869-9.84 7.925-9.84 5.058 0 11.068 5.808 11.068 16.398 0 3.69-1.227 8.677-7.583 8.677zm-0.477 36.075c-2.938 0-15.441-1.161-15.441-11.067s14.414-10.83 16.088-10.83c1.676 0 3.109 0.24 3.109 0.24 4.443 3.928 9.361 5.876 9.361 12.023 0 8.816-10.181 9.634-13.117 9.634z"/><path d="m343.72 31.004 5.993-3.27h13.148c-3.064 1.635-4.212 2.93-4.291 10.559-0.079 7.627-0.478 46.482-0.478 46.482 0 2.908 2.529 3.696 4.808 3.696 2.074 0 3.025 0.403 3.025 0.403l-2.791 1.941h-15.942s2.289-2.046 2.317-4.087l0.818-55.708-6.607-0.016z"/><path d="m401.87 60.253s-2.211-11.323-15.652-11.323-20.44 10.588-20.44 20.991c0 10.402 6.169 22.096 21.544 22.096 10.772 0 15.652-8.01 15.652-8.01s-5.156 3.039-10.865 3.039c-8.56 0-18.505-9.024-18.505-22.28 0-8.932 6.228-12.522 10.129-12.522 7.826 0 9.251 7.044 8.563 8.286-0.691 1.243-18.415 8.471-18.415 8.471l7.089-0.369 20.9-8.379z"/></g></svg>
