<svg xmlns="http://www.w3.org/2000/svg" height="129.16" viewBox="0 0 561.79998 129.16047" width="561.8">
    <path d="M468.88 33.81h4.75v57.874h-4.75zm46.75 51V61.56s-.333-12.63-16.5-12.63-16.625 11.88-16.625 11.88l5.125-.017s-.25-8.11 11.375-8.11 11.5 9.376 11.5 9.376v5.608l-9.5.016c-13.563 0-20.25 5.188-20.25 12.5s4.063 12.5 14 12.5 15.5-7 15.5-7c0 2.875 1.5 6 1.5 6h5.5s-1.625-3.562-1.625-6.875zm-5.125-8.313c0 8.438-10.188 12.125-15.313 12.125s-9.375-2.438-9.375-8.063 6.688-9.314 14.813-9.314h9.875v5.25zm10.045-26.563h5l15.5 35.584 15.084-35.584h5.666s-19.75 46.458-21.583 50.833-6.21 8.417-11.583 8.417c-2.418 0-4.834-1.417-4.834-1.417l1.334-3.75s1.21.667 3.583.667 6.5-5.5 6.5-5.5l3-7.167-17.667-42.083zm-76.62-1.004c-8.874 0-14.82 7.28-14.984 7.484v-6.48h-4.75v57.75h4.75V84.838c.163.272 4.798 7.85 15.11 7.85 10.5 0 18.624-6.75 18.624-22.21s-9.75-21.544-18.75-21.544zm-.75 39.88c-8.616 0-14.07-8.83-14.234-9.1V61.66c.166-.225 6.472-8.73 14.86-8.73 7.624 0 14 7.75 14 17.874S451.93 88.81 443.18 88.81z" fill="#808285"/>
    <linearGradient id="a" y2="252.48" gradientUnits="userSpaceOnUse" x2="210.54" gradientTransform="translate(-124.7 -206.6)" y1="284.51" x1="226.86">
        <stop stop-color="#FCD08F" offset="0"/>
        <stop stop-color="#F79673" offset="1"/>
    </linearGradient>
    <path fill="url(#a)" d="M89.178 84.522l28.024-15.34c3.168-1.734 6.487-6.16 0-9.696-2.085-1.14-13.446-7.334-28.042-15.297L69.085 64.417l20.093 20.104z"/>
    <linearGradient id="b" y2="346.37" gradientUnits="userSpaceOnUse" x2="140.99" gradientTransform="translate(-124.7 -206.6)" y1="279.74" x1="203.13">
        <stop stop-color="#E74047" offset="0"/>
        <stop stop-color="#7F50A0" offset="1"/>
    </linearGradient>
    <path fill="url(#b)" d="M69.084 64.418L4.876 129.12c1.45.184 3.194-.2 5.2-1.298l79.102-43.298-20.094-20.102z"/>
    <linearGradient id="c" y2="196.31" gradientUnits="userSpaceOnUse" x2="140.34" gradientTransform="translate(-124.7 -206.6)" y1="261.67" x1="203.46">
        <stop stop-color="#E6FFAB" offset="0"/>
        <stop stop-color="#47BEBC" offset="1"/>
    </linearGradient>
    <path fill="url(#c)" d="M69.084 64.418l20.075-20.23L10.075 1.044C8.36.106 6.486-.22 4.83.148l64.254 64.27z"/>
    <linearGradient id="d" y2="206.75" gradientUnits="userSpaceOnUse" x2="159.24" gradientTransform="translate(-124.7 -206.6)" y1="335.72" x1="159.24">
        <stop stop-color="#84E9DB" offset="0"/>
        <stop stop-color="#197491" offset="1"/>
    </linearGradient>
    <path fill="url(#d)" d="M69.084 64.418L4.83.148C2.174.742 0 3.04 0 7.656v113.75c0 4.348 1.71 7.406 4.875 7.71l64.21-64.7z"/>
    <path d="M201.15 37.895s-6.938-7.057-24.286-7.057c-21.12 0-33.395 16.22-33.395 31.582 0 13.426 9.28 30.38 32.353 30.38 11.927 0 25.327-4.388 25.327-4.388V77.997c0-5.12 3.47-6.885 3.47-6.885h-18.475l-6.506 3.615c3.49-.882 12.75-.774 12.75-.774V86.86s-4.1 2.324-10.32 2.324c-18 0-29.666-15.79-29.666-30.206 0-17.598 12.577-25.043 23.505-25.043 10.93 0 17.087 8.09 17.087 8.09L191 45.295l3.21-.86 6.94-6.54zm29.36 11.201c-12.38 0-22.468 8.987-22.468 22.103 0 9.445 7.612 20.817 21.092 20.817 13.482 0 22.93-8.986 22.93-21.643s-9.172-21.278-21.554-21.278zm.917 40.17c-10.217 0-15.04-15.774-15.04-23.754 0-7.98 5.41-13.665 11.646-13.665 8.896 0 15.04 10.497 15.04 22.745.002 4.218-1.428 14.673-11.646 14.673zm47.263-40.148c-12.375 0-22.458 8.983-22.458 22.092 0 9.44 7.608 20.808 21.083 20.808 13.476 0 22.917-8.98 22.917-21.632s-9.166-21.268-21.542-21.268zm.916 40.15c-10.21 0-15.033-15.768-15.033-23.743 0-7.974 5.41-13.657 11.642-13.657 8.893 0 15.034 10.492 15.034 22.732 0 4.217-1.43 14.667-11.644 14.667zm56.174-.293c-4.42-3.05-5.284-4.51-5.284-5.83 0-1.32.047-2.39 3.19-5.373 3.14-2.984 6.013-6.104 6.013-11.753 0-8.383-5.65-12.118-5.65-12.118l5.375-.18 5.374-3.19h-20.952c-10.75 0-18.858 8.29-18.858 17.22 0 6.284 5.33 13.8 15.852 13.8 1.093 0 1.822-.23 1.822-.23s-.637 1.392-.637 3.236c0 3.007 2.595 5.694 2.595 5.694s-24.278.022-24.278 15.577c0 9.403 10.613 12.935 19.313 12.935s23.595-4.69 23.595-16.672c-.002-5.715-3.05-10.065-7.472-13.118zm-11.524-10.157c-6.354 0-11.41-9.496-11.41-15.235 0-5.74 2.87-9.84 7.925-9.84 5.06 0 11.07 5.808 11.07 16.398 0 3.69-1.228 8.678-7.584 8.678zm-.477 36.075c-2.94 0-15.442-1.16-15.442-11.067s14.414-10.83 16.088-10.83c1.676 0 3.11.24 3.11.24 4.442 3.928 9.36 5.876 9.36 12.023 0 8.815-10.18 9.633-13.117 9.633zm19.941-83.889l5.993-3.27h13.148c-3.063 1.635-4.21 2.93-4.29 10.56-.08 7.626-.478 46.48-.478 46.48 0 2.91 2.53 3.697 4.808 3.697 2.074 0 3.025.404 3.025.404l-2.79 1.94H347.19s2.29-2.045 2.317-4.086l.817-55.708-6.607-.016zm58.15 29.249s-2.21-11.323-15.652-11.323-20.44 10.588-20.44 20.99c0 10.403 6.17 22.097 21.544 22.097 10.772 0 15.652-8.01 15.652-8.01s-5.156 3.04-10.865 3.04c-8.56 0-18.506-9.025-18.506-22.28 0-8.933 6.228-12.523 10.13-12.523 7.825 0 9.25 7.044 8.562 8.286-.69 1.243-18.415 8.47-18.415 8.47l7.09-.368 20.9-8.38z" fill="#808285"/>
</svg>
