<svg xmlns="http://www.w3.org/2000/svg" viewBox="0 0 727.56488 704.98035" height="704.98" width="727.56"><defs><clipPath id="d"><path d="M0 600h800V0H0v600z"/></clipPath><clipPath id="e"><path d="M94 595h613V7H94v588z"/></clipPath><clipPath id="a"><path d="M94 595h613V7H94v588z"/></clipPath><clipPath id="g"><path d="M150.18 464.98l-31.293-17.372h563.56l-30.054 17.74 3.985 14.047-511.42 1.24 5.223-15.655z"/></clipPath><linearGradient id="h" gradientUnits="userSpaceOnUse" gradientTransform="matrix(0 33.027 33.027 0 400.66 447.61)"><stop stop-color="#6b6c6f" offset="0"/><stop stop-color="#adafb1" offset="1"/></linearGradient><clipPath id="i"><path d="M0 600h800V0H0v600z"/></clipPath><clipPath id="j"><path d="M495 491h50V389h-50v102z"/></clipPath><clipPath id="b"><path d="M495 491h50V389h-50v102z"/></clipPath><clipPath id="l"><path d="M251 494h50V389h-50v105z"/></clipPath><clipPath id="c"><path d="M251 494h50V389h-50v105z"/></clipPath><linearGradient id="n" gradientUnits="userSpaceOnUse" gradientTransform="scale(182.69) rotate(90 -.007 2.184)"><stop stop-color="#9ea0a3" offset="0"/><stop stop-color="#FFF" offset=".871"/><stop stop-color="#FFF" offset="1"/></linearGradient><linearGradient id="o" gradientUnits="userSpaceOnUse" gradientTransform="scale(200.3) rotate(102.96 .55 1.352)"><stop stop-color="#d6ffa1" offset="0"/><stop stop-color="#00a3b5" offset="1"/></linearGradient><linearGradient id="p" gradientUnits="userSpaceOnUse" gradientTransform="scale(227.53) rotate(-59.65 2.237 -.722)"><stop stop-color="#ff177b" offset="0"/><stop stop-color="#ffec73" offset="1"/></linearGradient><linearGradient id="q" gradientUnits="userSpaceOnUse" gradientTransform="scale(276.958) rotate(104.53 .44 .773)"><stop stop-color="#63ffd4" offset="0"/><stop stop-color="#064aa2" offset="1"/></linearGradient><linearGradient id="r" gradientUnits="userSpaceOnUse" gradientTransform="scale(243.1) rotate(-172.2 1.05 .275)"><stop stop-color="#ff4521" offset="0"/><stop stop-color="#8a33db" offset="1"/></linearGradient></defs><g clip-path="url(#d)" transform="matrix(1.25 0 0 -1.25 -136.6 728.69)"><path fill="#fff" d="M300.37 511.27c43.935 58.078 103.72 50.14 103.72 50.14 73.143-6.232 97.653-50.26 105.24-78.68l-223.01 1.415c4.506 14.21 14.05 27.125 14.05 27.125m390.96-64.23l-28.103 17.36-.825 17.36-135.81.86c-2.46 10.743-5.483 18.788-5.483 18.788s-8.143 26.36-45.863 55.077c-37.718 28.718-76.08 26.146-76.08 26.146s-41.575 5.36-81.65-28.288c-33.406-28.033-43.434-48.63-47.96-70.09l-130.63.828 2.304-15.053-31.95-18.74s15.686-247.33 4.527-425.8l572.14.497s-8.68 131.74 5.373 421.05"/><path fill="#918f95" d="M501.45 479.4s-4.274 50.11-31.64 61.226l-8.892 13.34-35.913 13.852-52.847.684L335.9 544.56s-36.77-21.207-37.282-65.16l-22.232.685L315.55 544.9l37.624 24.287 24.798 6.84 45.492-1.54 18.13-8.208 25.99-10.604 39.675-39.165 11.972-37.11h-17.787z"/><path fill="#fff" d="M138.94 485.08l2.304-15.053-31.95-18.74s15.685-247.33 4.526-425.8l572.14.497s-8.68 131.74 5.373 421.05l-28.1 17.36-.83 17.36-523.46 3.32z"/><path fill="#d7d7da" d="M685.95 25.97l-572.14-.474 1.215-6.53h569.52l1.4 7.004z"/></g><g clip-path="url(#g)" transform="matrix(1.25 0 0 -1.25 -136.6 728.69)"><path fill="url(#h)" d="M150.18 464.98l-31.293-17.372h563.56l-30.054 17.74 3.985 14.047-511.42 1.24 5.223-15.655z"/></g><g clip-path="url(#i)" transform="matrix(1.25 0 0 -1.25 -136.6 728.69)"><path fill="#2d2d2d" d="M146.2 477.11l3.68-12.17.032-17.294h9.45L146.2 477.11z"/><path fill="#797b82" d="M681.2 447.61l-28.813 16.466V447.61M149.88 464.81l.03-17.167h-30.955l30.925 17.167z"/><path fill="#6e6d71" d="M289.82 402.74c0 7.336-5.947 13.284-13.284 13.284s-13.284-5.948-13.284-13.284 5.947-13.284 13.284-13.284 13.284 5.948 13.284 13.284"/><path fill="#3f4040" d="M268.82 412.7l-.93-19.95s-4.424 2.99-4.64 9.72c-.213 6.73 5.57 10.23 5.57 10.23M289.68 400.78s-.93-6.587-6.616-9.615c-7.08-3.768-12.525-.28-12.525-.28"/><path fill="#6e6d71" d="M536.53 402.73c0 8.01-7.01 14.503-15.658 14.503-8.65 0-15.66-6.493-15.66-14.503s7.01-14.503 15.66-14.503c8.647 0 15.658 6.493 15.658 14.503"/><path fill="#a4a1a0" d="M525.68 388.91s-15.5 3.048-18.134 6.82c-2.693 3.853 2.03-5.737 6.51-6.82 6.49-1.57 11.624 0 11.624 0"/><path fill="#43434a" d="M530.04 392.45s4.558 5.875 1.613 13.47-13.484 9.453-14.88 10.228 11.44 1.24 15.793-3.41c4.357-4.65 3.967-9.163 3.892-11.248-.12-3.262-2.484-8.377-7.195-11.013"/><path fill="#fff" d="M510.66 477.18l15.92-.102s4.395-30.978 3.1-70.224l-16.716-.588s7.896 53.247-2.304 70.914M285.03 479.39l-16.207 1.07s-4.44-32.56-.183-71.68l14.37-2.52s-2.904 53.86 2.02 73.13"/></g><path fill="url(#n)" d="M317.52 554.35c-40.077-33.647-46.506-56.578-50.15-83.152s0-63.864 0-63.864.43-7.286 7.93-7.072c7.5.214 7.714 6.005 7.714 6.005s0 48.858 1.072 66.646c1.07 17.788 16.29 38.365 16.29 38.365 43.933 58.078 103.72 50.14 103.72 50.14 85.507-7.286 104.56-66.234 107.8-91.5 3.217-25.085 1.07-63.65 1.07-63.65s.215-6.01 7.716-6.01c7.5 0 9.002 6.643 9.002 6.643s.428 33.433 0 53.15c-.43 19.716-8.574 41.366-8.574 41.366s-8.14 26.36-45.862 55.077c-37.718 28.718-76.08 26.146-76.08 26.146s-2.423.31-6.67.31c-13.327 0-44.586-3.082-74.98-28.6" transform="matrix(1.25 0 0 -1.25 -136.6 728.69)"/><path fill="url(#o)" d="M297.7 342.26l128.59-128.58 40.28 40.292-157 86.317c-3.048 1.67-5.933 2.462-8.516 2.462-1.188 0-2.312-.168-3.36-.496" transform="matrix(1.25 0 0 -1.25 -136.6 728.69)"/><path fill="url(#p)" d="M426.3 213.68l40.48-40.488 53.593 29.468c10.87 5.99 10.87 15.762 0 21.73l-53.78 29.58-40.29-40.29z" transform="matrix(1.25 0 0 -1.25 -136.6 728.69)"/><path fill="url(#q)" d="M289.82 328.62l.036-230.17c0-7.228 2.99-11.997 7.635-13.586l128.79 128.81-128.59 128.59c-4.772-1.497-7.87-6.33-7.87-13.64" transform="matrix(1.25 0 0 -1.25 -136.6 728.69)"/><path fill="url(#r)" d="M297.49 84.86c3.343-1.13 7.53-.61 12.086 1.9l157.18 86.435-40.477 40.474L297.49 84.86z" transform="matrix(1.25 0 0 -1.25 -136.6 728.69)"/></svg>