<svg width="284.186" height="141.192" viewBox="0 0 75.191353 37.356823" xmlns="http://www.w3.org/2000/svg">
    <g fill-rule="evenodd">
        <path d="M36.278 22.63h-.002a.7.7 0 0 0-.454.168.84.84 0 0 0-.232.315h.007a.856.856 0 0 1 .23-.315.708.708 0 0 1 .451-.168z" fill-opacity=".941"/>
        <path d="M8.414 1.15l-6.2 27.055h43.612c-1.777-.155-3.18-.78-4.017-1.917a4.047 4.047 0 0 1-.395-.674 23.362 23.362 0 0 1-.207-.529 5.364 5.364 0 0 1-.217-1.866c.09-1.869.966-4.091 2.485-6.419 1.613-2.473 3.952-5.065 6.847-7.471.65-.539 1.32-1.07 2.023-1.588a43.187 43.187 0 0 1 2.618-1.777c3.225-2.03 6.443-3.452 9.293-4.173-2.724.889-5.784 2.397-8.808 4.451-.109.074-.216.15-.323.223a39.348 39.348 0 0 0-4.524 3.644c-4.268 4.013-6.524 8.172-5.499 10.608.073.168.16.328.262.48 1.102 1.62 3.832 1.9 7.293 1.03.235-.059.47-.126.713-.195a28.22 28.22 0 0 0 3.488-1.282 34.137 34.137 0 0 0 .969-.445c3.815-1.896 6.748-4.077 7.382-5.388.14-.285.173-.528.078-.719-.453-.918-3.621-.298-7.46 1.365-.308.134-.62.272-.936.418a27.003 27.003 0 0 1 2.162-1.816 27.24 27.24 0 0 1 2.256-1.538c3.498-2.639 5.267-5.135 4.897-6.061-.07-.175-.217-.295-.445-.368-.73-.232-2.06.045-3.677.707-1.334.547-2.866 1.359-4.419 2.368l-.211.14-.04.022-.746.496.429-.786c.637-1.165 1.673-2.38 2.964-3.51a21.052 21.052 0 0 1 3.192-2.284c.44-.258.88-.497 1.32-.713.452-.22.903-.417 1.344-.59 1.279-.507 2.5-.814 3.565-.898H8.414zm31.991.039c-.175 2.667.342 6.572 1.515 10.909.21.772.436 1.557.686 2.351a60 60 0 0 0 .479 1.449c-.096.141-.193.282-.284.423-1.464 2.243-2.32 4.363-2.535 6.207a38.218 38.218 0 0 1-1.349-6.747 41.04 41.04 0 0 1-.172-2.045c-.29-4.893.35-9.328 1.66-12.547zM11.195 4.66h6.689c.564 0 1 .106 1.31.318.308.213.424.489.35.824l-.785 3.55h-2.323l.763-3.455h-5.817l-2.1 9.494-.758 3.437h5.811l.006-.022 1.165-5.26h-2.73l.262-1.186h5.053l-1.449 6.563a.926.926 0 0 1-.1.262c-.12.217-.328.404-.618.557-.403.212-.886.318-1.449.318H7.89c-.563 0-.999-.106-1.309-.318-.308-.212-.426-.483-.35-.819L9.132 5.802c.075-.336.308-.611.713-.825.014-.008.03-.009.045-.016.369-.185.803-.29 1.303-.301zm10.328 0h8.296c.556 0 .993.106 1.304.318.312.213.431.489.356.824L29.93 12.8c-.073.333-.312.605-.718.819-.407.214-.885.323-1.443.323H21.74l-1.164 5.254-.19.863h-2.273l.173-.78L21.523 4.66zm11.46 0h2.273l-2.574 11.628-.562 2.54h5.437c.057.418.124.827.195 1.232h-8.179l.647-2.92 2.763-12.48zm-9.46 1.237l-1.51 6.808h5.666l1.504-6.808h-5.66zm-4.764 15.232h.067a1.6 1.6 0 0 1 .68.134c.198.092.34.23.418.412.076.176.096.377.055.596l-.016.084h-.652l.006-.078c.017-.154-.002-.274-.061-.357a.429.429 0 0 0-.028-.033.365.365 0 0 0-.056-.045c-.091-.057-.234-.089-.418-.089-.244 0-.427.043-.552.128-.12.084-.197.178-.222.29-.025.114.016.174.044.206l.006.006c.036.03.162.103.552.195.353.086.587.162.719.228.2.102.339.234.412.396.073.16.089.348.044.552a1.25 1.25 0 0 1-.295.551 1.494 1.494 0 0 1-.563.401 1.903 1.903 0 0 1-.724.145c-.32 0-.578-.048-.78-.145a.898.898 0 0 1-.451-.462 1.135 1.135 0 0 1-.056-.674l.017-.078h.64l-.005.078a.703.703 0 0 0 .039.356.432.432 0 0 0 .222.212c.122.059.273.09.446.09.155 0 .297-.027.424-.073a.747.747 0 0 0 .295-.179.495.495 0 0 0 .128-.24c.018-.076.014-.14-.017-.194-.034-.057-.1-.108-.206-.15l-.546-.162c-.305-.077-.51-.15-.63-.223a.78.78 0 0 1-.34-.368.793.793 0 0 1-.027-.484 1.18 1.18 0 0 1 .273-.53 1.37 1.37 0 0 1 .546-.373c.194-.073.398-.115.613-.123zm5.85.011c.035-.003.069 0 .106 0l.401.045.134.01-.195.497-.04.078-.306-.028a.357.357 0 0 0-.2.044c-.003.002-.008.01-.011.011a.18.18 0 0 0-.022.023.527.527 0 0 0-.084.211l-.022.09h.479l-.123.551h-.468l-.473 2.123h-.647s.42-1.886.474-2.123h-.373l.122-.552h.368c.018-.076.044-.172.044-.172.04-.179.08-.307.134-.396a.84.84 0 0 1 .702-.412zm1.543.028l-.211.953h.418l-.123.551h-.418l-.3 1.343s-.023.143-.023.184v.012h.006l.067.006.306-.023-.033.496.006.09-.44.05c-.175 0-.303-.029-.396-.09a.394.394 0 0 1-.178-.256c-.004-.02-.011-.048-.011-.089 0-.08.015-.216.067-.451l.284-1.27h-.307l.123-.552h.306l.129-.568.518-.273.211-.112zm-20.53.022h2.507l-.14.624H6.156l-.183.825H7.56l-.139.624H5.833l-.34 1.532H4.82l.803-3.605zm3.36.88c.024-.003.052 0 .077 0 .16 0 .309.05.451.15l.09.062-.346.569-.095-.067a.407.407 0 0 0-.223-.067.348.348 0 0 0-.195.067.493.493 0 0 0-.167.183c-.075.138-.13.292-.167.457l-.3 1.37H7.46l.596-2.673h.602l-.028.111c.029-.021.059-.05.084-.067a.689.689 0 0 1 .267-.095zm1.916 0c.039-.003.077 0 .117 0 .363 0 .639.128.819.38.112.162.172.362.172.601 0 .132-.016.274-.05.43l-.05.194H10.09a1.09 1.09 0 0 0-.006.111c0 .14.028.249.089.33a.42.42 0 0 0 .1.1.495.495 0 0 0 .273.072.643.643 0 0 0 .357-.106.94.94 0 0 0 .29-.318h.69l-.061.134a1.53 1.53 0 0 1-.546.624c-.23.148-.505.229-.808.229-.394 0-.687-.128-.869-.38-.18-.245-.219-.585-.123-1.013.097-.435.289-.783.569-1.025a1.44 1.44 0 0 1 .852-.362zm2.902 0c.04-.003.078 0 .117 0 .364 0 .64.128.82.38.112.162.172.362.172.601 0 .13-.016.27-.05.423l-.05.201h-1.816l-.006.072v.04c0 .027.004.053.006.078a.482.482 0 0 0 .083.25c.01.013.018.028.028.04a.452.452 0 0 0 .346.133c.131 0 .25-.036.356-.106a.94.94 0 0 0 .29-.317h.696l-.067.134a1.53 1.53 0 0 1-.546.624c-.23.148-.504.228-.807.228-.395 0-.688-.127-.87-.379-.117-.16-.172-.365-.172-.607a1.992 1.992 0 0 1 .05-.407c.097-.433.283-.783.563-1.025.25-.217.541-.338.858-.362zm7.906 0c.04-.003.077 0 .117 0 .371 0 .656.126.842.374.183.248.228.582.133 1.003-.073.328-.178.593-.323.785a1.51 1.51 0 0 1-.546.457 1.512 1.512 0 0 1-.674.162c-.378 0-.66-.13-.841-.38a.997.997 0 0 1-.179-.606c0-.132.015-.273.05-.43.108-.477.326-.841.647-1.075a1.51 1.51 0 0 1 .774-.29zm9.79 0c.046-.003.09 0 .139 0 .224 0 .4.023.534.078a.592.592 0 0 1 .301.234.64.64 0 0 1 .084.34l-.067.407-.123.552c-.105.47-.128.647-.133.713a.728.728 0 0 0 .028.256l.044.145h-.657l-.028-.084c-.01-.039-.008-.089-.011-.133a1.98 1.98 0 0 1-.362.183c-.166.058-.338.09-.513.09-.303 0-.527-.08-.663-.234a.592.592 0 0 1-.15-.413.929.929 0 0 1 .195-.563c.085-.11.186-.2.3-.267.111-.066.234-.113.363-.145l.395-.067c.305-.035.533-.08.697-.128l.01-.039c.027-.114.023-.2-.005-.245l-.011-.011c-.006-.006-.016-.017-.023-.022-.067-.053-.181-.078-.334-.078-.173 0-.3.028-.39.083a.727.727 0 0 0-.24.301h-.674l.062-.134c.08-.185.175-.339.295-.456.12-.118.28-.21.468-.273.143-.048.3-.08.468-.09zm2.824 0c.025-.003.053 0 .078 0a.77.77 0 0 1 .457.15l.083.062-.345.569-.095-.067a.393.393 0 0 0-.217-.067.37.37 0 0 0-.2.067.495.495 0 0 0-.162.183 1.83 1.83 0 0 0-.167.457l-.307 1.37H32.8l.596-2.673h.602l-.022.111c.028-.021.056-.05.083-.067a.658.658 0 0 1 .262-.095zm1.911 0c.039-.003.077 0 .117 0 .364 0 .64.128.819.38.114.162.173.362.173.601 0 .132-.022.274-.056.43l-.045.194h-1.816c-.004.037-.011.078-.011.111 0 .14.03.249.09.33a.29.29 0 0 0 .033.038l.022.023c.08.072.188.11.323.11a.643.643 0 0 0 .357-.105.959.959 0 0 0 .29-.317h.696l-.067.133a1.544 1.544 0 0 1-.546.624 1.477 1.477 0 0 1-.808.229c-.394 0-.682-.128-.864-.38-.18-.245-.222-.585-.128-1.013.096-.435.283-.783.563-1.025a1.46 1.46 0 0 1 .858-.363zm-9.756.05h.663l.084 1.61c.027-.056.047-.104.05-.11l.73-1.5h.607l.056 1.577c.018-.032.83-1.576.83-1.576h.658l-1.449 2.674h-.596l-.061-1.532-.747 1.532h-.613l-.212-2.674zm-15.567.508a.703.703 0 0 0-.423.167.821.821 0 0 0-.228.317h1.097c.002-.02.006-.043.006-.061a.461.461 0 0 0-.05-.234c-.078-.128-.195-.19-.368-.19h-.033zm2.903 0a.703.703 0 0 0-.423.167.84.84 0 0 0-.229.317h1.098c.002-.02.006-.043.006-.061a.444.444 0 0 0-.05-.234.446.446 0 0 0-.056-.072.412.412 0 0 0-.312-.117h-.033zm22.453 0a.72.72 0 0 0-.44.167.86.86 0 0 0-.228.317h1.092c.002-.02.006-.043.006-.061a.444.444 0 0 0-.05-.234c-.077-.127-.195-.188-.368-.19h-.011zm-14.597.01a.74.74 0 0 0-.412.201c-.154.14-.265.358-.329.647a1.478 1.478 0 0 0-.039.317.55.55 0 0 0 .072.301.433.433 0 0 0 .373.184c.18 0 .34-.067.491-.206.153-.141.263-.362.329-.658.06-.27.052-.473-.034-.601-.082-.125-.202-.184-.367-.184-.028 0-.057-.003-.084 0zm10.068.976a4.2 4.2 0 0 1-.546.106 1.893 1.893 0 0 0-.356.078.397.397 0 0 0-.15.105.33.33 0 0 0-.079.145.48.48 0 0 0-.006.062v.022a.14.14 0 0 0 .006.028l.006.011c.002.005.003.012.006.017a.285.285 0 0 0 .011.017c.005.006.011.016.017.022.044.05.133.072.262.072.14 0 .276-.026.4-.089a.78.78 0 0 0 .296-.256 1.04 1.04 0 0 0 .134-.34z" fill="#bd0000"/>
        <path d="M36.284 22.63h-.005c.173.002.287.06.364.187a.447.447 0 0 1 .051.236c0 .017-.003.04-.005.06h.007c0-.02.004-.043.004-.06a.449.449 0 0 0-.05-.236c-.077-.128-.193-.187-.366-.187z" fill-opacity=".941"/>
    </g>
    <path d="M.001 37.363h1.33l.598-2.496h2.16l.279-1.07h-2.17l.36-1.604h2.309l.278-1.248H1.5L.001 37.363zm5.966 0l.4-1.676c.21-.907.654-1.711 1.493-1.711.075 0 .148.037.204.046l.324-1.285c-.075 0-.157-.01-.25-.01-.618 0-1.137.436-1.483 1.06H6.62c.051-.305.096-.594.13-.88H5.603c-.066.37-.167 1.096-.322 1.75l-.653 2.706h1.339zm5.916-1.203c-.37.18-.79.134-1.28.134-.387 0-.687-.068-.85-.2a1.035 1.035 0 0 1-.115-.514c1.806.049 2.945-.369 3.002-1.51.043-.86-.586-1.342-1.5-1.342-1.634 0-2.704 1.44-2.773 2.827-.06 1.211.567 1.808 1.861 1.808.498 0 1.157-.057 1.697-.219l-.042-.984zm-.489-2.09c-.021.425-.545.45-1.578.44.113-.372.49-.712 1.11-.712.304 0 .479.115.468.272zm5.216 2.09c-.37.18-.79.134-1.28.134-.388 0-.686-.068-.85-.2a1.037 1.037 0 0 1-.116-.514c1.808.049 2.946-.369 3.005-1.51.042-.86-.587-1.342-1.502-1.342-1.634 0-2.704 1.44-2.774 2.827-.059 1.211.569 1.808 1.862 1.808.499 0 1.158-.057 1.699-.219l-.045-.984zm-.488-2.09c-.021.425-.545.45-1.58.44.115-.372.491-.712 1.11-.712.305 0 .481.115.47.272zm7.369 3.293c.01-.565.146-1.453.287-2.036l.572-2.42c-.363-.124-.93-.18-1.476-.18-2.214 0-3.312 1.641-3.389 3.178-.048.964.474 1.458 1.287 1.458.526 0 1.12-.255 1.582-1.021h.02c-.036.369-.08.727-.102 1.021h1.22zm-.914-2.546c-.26 1.134-.792 1.477-1.188 1.477-.369 0-.53-.262-.508-.644.043-.861.724-1.852 1.583-1.852.14 0 .248-.025.35-.05l-.237 1.07zm1.786 2.336c.257.2.795.201 1.357.21 1.2.01 2.105-.515 2.159-1.478.03-.642-.467-1.021-.954-1.276-.351-.17-.528-.332-.519-.52.013-.256.252-.291.603-.291.396 0 .713.048.895.083l.36-.966c-.205-.123-.615-.187-1.141-.187-1.164 0-2.017.615-2.065 1.55-.028.577.387.965.89 1.23.406.208.546.368.535.595-.013.228-.216.19-.585.19-.433 0-.913-.056-1.166-.096l-.369.956zm7.114.21l1.078-4.457h-1.32l-1.087 4.457h1.329zm.618-4.992c.453 0 .856-.374.881-1.016.022-.435-.26-.588-.676-.588-.433 0-.829.281-.852.702-.021.424.26.902.647.902zm1.931 4.992l.471-2.007c.244-1.022.77-1.38 1.203-1.38.343 0 .443.146.427.358a3.187 3.187 0 0 1-.072.512l-.599 2.517h1.33l.631-2.64c.049-.228.102-.569.113-.776.039-.804-.362-1.096-1.1-1.096-.592 0-1.168.274-1.623.87h-.018l.122-.815h-1.174a25.44 25.44 0 0 1-.313 1.382l-.728 3.075h1.33zm5.724 0h1.33l.598-2.496h2.16l.278-1.07h-2.17l.36-1.604h2.309l.278-1.248h-3.646l-1.498 6.418zm5.965 0l.4-1.676c.21-.907.654-1.711 1.493-1.711.075 0 .148.037.204.046l.324-1.285c-.075 0-.157-.01-.25-.01-.618 0-1.137.436-1.483 1.06h-.035c.051-.305.096-.594.13-.88H45.35c-.064.37-.167 1.096-.322 1.75l-.653 2.706h1.339zm5.915-1.203c-.368.18-.79.134-1.28.134-.386 0-.686-.068-.85-.2a1.035 1.035 0 0 1-.114-.514c1.806.049 2.945-.369 3.002-1.51.043-.86-.586-1.342-1.5-1.342-1.634 0-2.704 1.44-2.773 2.827-.06 1.211.569 1.808 1.861 1.808.498 0 1.159-.057 1.697-.219l-.042-.984zm-.488-2.09c-.021.425-.545.45-1.578.44.113-.372.49-.712 1.11-.712.304 0 .479.115.468.272zm5.215 2.09c-.369.18-.79.134-1.278.134-.389 0-.687-.068-.85-.2a1.037 1.037 0 0 1-.117-.514c1.808.049 2.946-.369 3.005-1.51.042-.86-.587-1.342-1.502-1.342-1.634 0-2.704 1.44-2.774 2.827-.059 1.211.569 1.808 1.862 1.808.499 0 1.158-.057 1.699-.219l-.045-.984zm-.487-2.09c-.021.425-.545.45-1.58.44.115-.372.491-.712 1.11-.712.305 0 .481.115.47.272zm5.772-3.303l-.501 2.025c-.182-.075-.42-.064-.605-.064-1.708 0-2.917 1.462-2.997 3.045-.053 1.116.542 1.59 1.309 1.59.536 0 1.102-.237 1.53-.85h.017l-.101.85h1.209c.055-.535.17-1.171.3-1.752l1.158-4.844h-1.32zM60.6 35.12c-.208.88-.7 1.174-1.089 1.174-.387 0-.603-.27-.576-.75.045-.887.655-1.746 1.448-1.746.223 0 .414.033.519.083l-.302 1.24zm4.074 2.243c1.551 0 2.748-1.175 2.832-2.774.051-1.059-.608-1.861-1.826-1.861-1.608 0-2.762 1.301-2.842 2.874-.055 1.144.683 1.761 1.836 1.761zm.209-1.07c-.453 0-.703-.288-.676-.72.036-.718.48-1.775 1.245-1.775.527 0 .69.404.668.802-.039.784-.517 1.694-1.237 1.694zm4.275 1.07l.482-2.036c.201-.907.704-1.53 1.155-1.53.325 0 .414.238.398.548-.01.16-.045.34-.082.519l-.596 2.5H71.8l.481-2.046c.221-.936.696-1.52 1.138-1.52.305 0 .431.217.417.527-.009.18-.046.378-.093.558l-.577 2.48h1.292l.622-2.64c.048-.237.104-.606.113-.795.039-.785-.344-1.2-1.036-1.2-.592 0-1.168.267-1.605.83-.016-.406-.306-.83-1.027-.83-.583 0-1.139.264-1.585.86h-.018l.12-.682h-1.145a22.94 22.94 0 0 1-.305 1.382l-.716 3.075h1.283z" fill="#bd0000" fill-rule="evenodd" stroke-width="1pt"/>
    <path d="M40.83 25.4c.072.186.145.372.22.554.116.246.25.483.412.703.871 1.185 2.33 1.834 4.184 1.995h1.993c.63-.05 1.29-.14 1.975-.275a24.703 24.703 0 0 0 3.732-1.06 33.375 33.375 0 0 0 3.023-1.277c2.236-1.071 4.546-2.454 6.812-4.122a45.194 45.194 0 0 0 3.963-3.28c1.612-1.554 2.829-3.132 3.518-4.517.717-1.443.86-2.676.273-3.453-.36-.477-.964-.732-1.74-.793C72.693 7.251 74.73 4.067 74 2.06c-.232-.64-.743-1.118-1.476-1.383a4.3 4.3 0 0 0-1.092-.225h-1.076c-1.504.108-3.69.647-5.544 1.556" fill="none" stroke="#bd0000" stroke-width=".891"/>
</svg>
