<svg width="75.191mm" height="37.357mm" version="1.1" viewBox="0 0 75.191353 37.356823" xmlns="http://www.w3.org/2000/svg">
<g transform="translate(-7.4349e-8 -259.64)">
<g fill-rule="evenodd">
<g transform="matrix(.17829 0 0 .17829 35.59 282.27)" fill-opacity=".94118" stroke-width="1pt">
<path d="m3.86 0h-0.01c-0.94 0-1.77 0.31-2.55 0.94-0.58 0.46-0.98 1.08-1.3 1.77h0.04c0.32-0.69 0.72-1.31 1.29-1.77 0.78-0.63 1.61-0.93 2.53-0.94z" fill-opacity=".94118"/>
</g>
<path d="m8.4141 260.79l-6.201 27.055h6e-3 28.687 14.92c-1.7775-0.1551-3.1808-0.77911-4.017-1.9166-0.1551-0.21038-0.28325-0.43702-0.39557-0.67415-0.0713-0.17471-0.13839-0.351-0.20614-0.52928-0.17829-0.56695-0.24938-1.1961-0.21729-1.8664 0.0891-1.8684 0.96587-4.091 2.4849-6.4183 1.6135-2.4734 3.9519-5.0657 6.8473-7.4713 0.64896-0.53878 1.32-1.0708 2.0224-1.5879 0.86825-0.6388 1.7432-1.2271 2.6186-1.7773 3.2252-2.0305 6.4424-3.4513 9.2932-4.173-2.7242 0.88876-5.7847 2.3976-8.8084 4.4516-0.10875 0.0735-0.21617 0.14869-0.32314 0.22286-1.6777 1.1624-3.1976 2.397-4.524 3.6437-4.2682 4.0132-6.5242 8.1717-5.499 10.608 0.0731 0.16759 0.16023 0.3276 0.26185 0.47914 1.1018 1.6206 3.8325 1.9008 7.293 1.0307 0.23534-0.0588 0.47067-0.12547 0.71314-0.195 1.1054-0.31914 2.279-0.75014 3.4877-1.2814 0.2906-0.12837 0.58433-0.2603 0.88028-0.40115 0.0303-0.0143 0.0588-0.0285 0.0891-0.0446 3.8153-1.8957 6.7475-4.077 7.3822-5.3876 0.13907-0.28508 0.17249-0.52813 0.078-0.71872-0.45284-0.91817-3.6217-0.29787-7.4602 1.365-0.30843 0.13371-0.62043 0.2713-0.936 0.41785 0.25673-0.23836 0.52394-0.47762 0.79671-0.71314 0.43502-0.37476 0.88542-0.74122 1.365-1.1031 0.75058-0.56838 1.5094-1.0822 2.2564-1.5377 3.498-2.639 5.2664-5.1354 4.8973-6.0617-0.0695-0.17455-0.21751-0.29462-0.44572-0.36772-0.72919-0.23194-2.0601 0.0449-3.6772 0.70758-1.3336 0.54698-2.8653 1.3582-4.4182 2.3679l-0.21171 0.13929-0.039 0.0223-0.74658 0.49586c0-1e-5 0.429-0.78558 0.429-0.78558 0.63649-1.1651 1.6732-2.3807 2.964-3.51 0.9467-0.82565 2.0282-1.6036 3.1924-2.2843 0.44036-0.2578 0.88006-0.49724 1.3204-0.71315 0.45106-0.22036 0.90234-0.41621 1.3427-0.59057 1.2794-0.50597 2.5007-0.8134 3.5657-0.897h-2.9919-10.084-44.466-3.5267zm31.991 0.039c-0.17472 2.6666 0.34231 6.5724 1.5154 10.909 0.2086 0.77162 0.43569 1.5569 0.68529 2.3512 0.15511 0.49046 0.31512 0.97326 0.47914 1.4486-0.0963 0.14156-0.19321 0.28223-0.28414 0.42343-1.4637 2.2432-2.3193 4.3631-2.535 6.2066-0.61865-2.0717-1.0844-4.3409-1.3483-6.747-0.0749-0.68943-0.13349-1.3712-0.17272-2.0447-0.28882-4.8927 0.34989-9.3279 1.6603-12.547zm-29.211 3.471c0.0334-7.9e-4 0.0663 0 0.10029 0h6.591c0.56338 0 0.99907 0.10559 1.3093 0.31758 0.30843 0.21323 0.4241 0.48904 0.351 0.82457l-0.78558 3.549h-2.3233l0.76328-3.4543h-5.8166s-2.1004 9.4937-2.1004 9.4937l-0.75772 3.4376h5.811l6e-3 -0.0223 1.1644-5.2594h-2.73l0.26185-1.1867h5.0533l-1.4486 6.5632c-0.0196 0.0934-0.0539 0.17807-0.10029 0.26186-0.11945 0.21751-0.32782 0.40382-0.61843 0.55714-0.40292 0.21217-0.88519 0.31757-1.4486 0.31757 0 1e-5 -6.5855 0-6.5855 0-0.56338 1e-5 -0.99907-0.10541-1.3093-0.31757-0.30844-0.21215-0.42588-0.48311-0.351-0.819l2.9027-13.121c0.0749-0.33554 0.30843-0.61135 0.71314-0.82458 0.0143-8e-3 0.0303-9e-3 0.0446-0.0167 0.36939-0.18503 0.8029-0.28903 1.3037-0.30086zm10.329 0h8.2959c0.55625 0 0.99349 0.10559 1.3037 0.31758 0.312 0.21323 0.43146 0.48904 0.35657 0.82457 1e-5 0-1.5488 6.9977-1.5488 6.9977-0.0731 0.33339-0.31223 0.60542-0.71872 0.819-0.40649 0.2143-0.88497 0.32315-1.443 0.32315h-6.0283l-1.1644 5.2539s-0.18943 0.86357-0.18943 0.86357h-2.2732l0.17271-0.78 3.237-14.619zm11.46 0h2.2732l-2.574 11.628c0 1e-5 -0.56272 2.5406-0.56272 2.5406h5.4377c0.057 0.41701 0.12368 0.82658 0.195 1.2313h-8.1789l0.64629-2.9194 2.7634-12.48zm-9.4603 1.2369s-1.5099 6.8083-1.5099 6.8083c0-1e-5 5.6662 0 5.6662 0 0-1e-5 1.5043-6.8083 1.5043-6.8083h-5.6606zm-4.7636 15.232c0.0222-8.5e-4 0.0445 0 0.0669 0 0.26387 0 0.4943 0.0464 0.67972 0.13371 0.1979 0.0927 0.33941 0.23043 0.41786 0.41229 0.0767 0.1765 0.0967 0.37685 0.0557 0.59614l-0.0167 0.0836h-0.65186l6e-3 -0.078c0.0168-0.15321-2e-3 -0.2737-0.0613-0.35657-8e-3 -0.0104-0.0189-0.0241-0.0279-0.0334-0.0147-0.015-0.0368-0.0322-0.0557-0.0446-0.0912-0.0575-0.23389-0.0891-0.41786-0.0891-0.24425 0-0.42677 0.0426-0.55157 0.12814-0.12124 0.0838-0.1979 0.1774-0.22286 0.28972-0.025 0.1141 0.016 0.17405 0.0446 0.20614 8.7e-4 8.5e-4 5e-3 5e-3 6e-3 6e-3 0.0361 0.0308 0.16157 0.10296 0.55157 0.195 0.35301 0.0856 0.58679 0.16246 0.71872 0.22843 0.19968 0.10162 0.33919 0.23333 0.41229 0.39557 0.0731 0.16046 0.0891 0.34833 0.0446 0.55157-0.0446 0.1979-0.14553 0.38042-0.29529 0.55158-0.14797 0.17115-0.33629 0.30665-0.56271 0.40114-0.22465 0.0927-0.47112 0.14486-0.72429 0.14486-0.32092 0-0.57854-0.0486-0.78-0.14486-0.21038-0.0998-0.36215-0.2574-0.45129-0.46243-0.0856-0.19968-0.10385-0.42633-0.0557-0.67414 0-1e-5 0.0167-0.078 0.0167-0.078h0.64072l-6e-3 0.078c-0.016 0.14798-2.3e-4 0.26743 0.039 0.35657 0.0374 0.0856 0.10875 0.15645 0.22285 0.21172 0.12124 0.0588 0.27278 0.0891 0.44572 0.0891 0.15511 0 0.29685-0.0261 0.42343-0.0724 0.1248-0.0446 0.22397-0.10341 0.29529-0.17829 0.0695-0.0749 0.11031-0.15399 0.12814-0.23957 0.0178-0.0767 0.0136-0.14152-0.0167-0.195-0.0339-0.0571-0.10096-0.10764-0.20614-0.15043l-0.54601-0.16157c-0.30486-0.0767-0.51012-0.14976-0.62957-0.22286-0.16224-0.0963-0.27924-0.21974-0.33986-0.36772-0.0606-0.14619-0.0671-0.30821-0.0279-0.48471 0.041-0.18898 0.13216-0.36883 0.273-0.52929 0.14263-0.16224 0.32671-0.28949 0.54601-0.37328 0.19388-0.0727 0.39792-0.11535 0.61285-0.12258zm5.85 0.0111c0.0353-3e-3 0.0684 0 0.10586 0l0.40114 0.0446 0.13371 0.0111c1e-5 0-0.195 0.49585-0.195 0.49585l-0.039 0.078-0.30642-0.0279c-0.0905 0-0.15695 0.014-0.20058 0.0446-3e-3 2e-3 -8e-3 9e-3 -0.0111 0.0111-6e-3 5e-3 -0.0157 0.0141-0.0223 0.0223-0.0268 0.0352-0.0595 0.0981-0.0836 0.21172 0 0-0.0116 0.0481-0.0223 0.0891h0.47915s-0.12258 0.55156-0.12258 0.55156h-0.468c-0.0357 0.16046-0.47357 2.1227-0.47357 2.1227 0-1e-5 -0.64629 0-0.64629 0 0-1e-5 0.42009-1.8856 0.47358-2.1227h-0.37329l0.12257-0.55156h0.36772c0.0178-0.0767 0.0446-0.17272 0.0446-0.17272 0.0392-0.17829 0.0802-0.30643 0.13371-0.39557 0.0731-0.12302 0.17628-0.22598 0.30643-0.30086 0.1072-0.0623 0.24277-0.0995 0.39557-0.11143zm1.5433 0.0279c-1e-5 0-0.16893 0.76016-0.21172 0.95271h0.41786l-0.12257 0.55157h-0.41786c-0.0339 0.15333-0.30086 1.3427-0.30086 1.3427 1e-5 0-0.0223 0.14285-0.0223 0.18386 3e-5 1e-3 -1.1e-4 5e-3 0 6e-3 9e-5 2.9e-4 -1.2e-4 5e-3 0 6e-3 1.8e-4 2.9e-4 5e-3 -2.2e-4 6e-3 0l0.0669 6e-3 0.30643-0.0223s-0.0334 0.49585-0.0334 0.49585c1e-5 0 6e-3 0.0891 6e-3 0.0891s-0.44014 0.0502-0.44014 0.0502c-0.17472 0-0.30287-0.0285-0.39557-0.0891-0.0981-0.0642-0.15511-0.14931-0.17829-0.25628-4e-3 -0.0196-0.0112-0.0481-0.0112-0.0891 0-0.0802 0.0152-0.21595 0.0669-0.45129 0 0 0.23422-1.0492 0.28414-1.2703h-0.30643l0.12257-0.55157h0.30643c0.0285-0.12837 0.12814-0.56829 0.12814-0.56829l0.51815-0.273 0.21172-0.11143zm-20.531 0.0223h2.5072l-0.13929 0.624h-1.833c-0.0285 0.12658-0.14285 0.63915-0.18386 0.82457h1.5879l-0.13929 0.624h-1.5879c-0.0339 0.15511-0.33985 1.5322-0.33985 1.5322h-0.67415l0.80229-3.6047zm3.3596 0.88029c0.0252-3e-3 0.0526 0 0.078 0 0.16046 0 0.30866 0.0488 0.45129 0.15042l0.0891 0.0613s-0.34543 0.56829-0.34543 0.56829l-0.0947-0.0669c-0.0695-0.0446-0.14442-0.0669-0.22286-0.0669-0.0677 0-0.13082 0.0241-0.195 0.0669-0.0677 0.0446-0.12436 0.10363-0.16715 0.18386-0.0749 0.13728-0.1297 0.29105-0.16714 0.45686l-0.30086 1.3706h-0.64628l0.59614-2.6743h0.60172s-0.0207 0.0811-0.0279 0.11143c0.0285-0.0214 0.0586-0.0508 0.0836-0.0669 0.0864-0.0515 0.17757-0.0837 0.26743-0.0947zm1.9166 0c0.0389-3e-3 0.0772 0 0.117 0 0.36371 0 0.63894 0.12747 0.819 0.37885 0.11232 0.16224 0.17272 0.36281 0.17272 0.60172 0 0.13193-0.0163 0.27389-0.0501 0.429l-0.0502 0.195h-1.8163c-4e-3 0.0374-6e-3 0.0775-6e-3 0.11143 0 0.13906 0.0285 0.24848 0.0891 0.32871 0.0288 0.0392 0.0622 0.0745 0.10029 0.10029 0.0718 0.0468 0.16449 0.0724 0.273 0.0724 0.13193-1e-5 0.24781-0.0363 0.35657-0.10586 0.10341-0.066 0.20236-0.17138 0.28972-0.31757h0.69085l-0.0613 0.13371c-0.13193 0.26743-0.31601 0.47603-0.546 0.624-0.22999 0.14798-0.50477 0.22843-0.80786 0.22843-0.39401 0-0.68729-0.12747-0.86914-0.37885-0.18007-0.24604-0.21885-0.58612-0.12257-1.014 0.0963-0.43502 0.28837-0.78267 0.56828-1.0251 0.25089-0.21754 0.53557-0.3382 0.85243-0.36214zm2.9027 0c0.0389-3e-3 0.0772 0 0.117 0 0.36371 0 0.63894 0.12747 0.81901 0.37885 0.11232 0.16224 0.17271 0.36281 0.17271 0.60172 0 0.13015-0.0163 0.2701-0.0501 0.42343l-0.0501 0.20057h-1.8163c-2e-3 0.0249-4e-3 0.0475-6e-3 0.0724-1e-3 9e-3 5.8e-4 0.0236 0 0.0334-5e-5 2e-3 0 4e-3 0 6e-3 0 0.0268 4e-3 0.053 6e-3 0.078 9e-3 0.10162 0.0354 0.18653 0.0836 0.25071 9e-3 0.0125 0.0178 0.0279 0.0279 0.039 0.0817 0.0874 0.19723 0.13372 0.34543 0.13372 0.13193 0 0.2496-0.0363 0.35657-0.10586 0.10341-0.066 0.20236-0.17138 0.28972-0.31757h0.69643l-0.0669 0.13371c-0.13193 0.26743-0.31601 0.47603-0.546 0.624-0.22999 0.14798-0.50478 0.22843-0.80786 0.22843-0.39401 0-0.6873-0.12747-0.86915-0.37885-0.11767-0.16046-0.17271-0.36482-0.17271-0.60729 0-0.0374 2e-3 -0.0778 6e-3 -0.117 7e-3 -0.0927 0.0214-0.18631 0.0446-0.28972 0.0963-0.43323 0.2828-0.78267 0.56271-1.0251 0.25088-0.21754 0.54114-0.3382 0.858-0.36214zm7.9059 0c0.0398-3e-3 0.0764 0 0.117 0 0.37083 0 0.65587 0.12546 0.84129 0.37328 0.18363 0.24782 0.2282 0.5821 0.13371 1.0029-0.0731 0.32805-0.17873 0.59302-0.32314 0.78557-0.14442 0.19255-0.3285 0.34989-0.54601 0.45686-0.21572 0.10697-0.44415 0.16157-0.67414 0.16157-0.37797 0-0.65944-0.12926-0.84129-0.37885-0.11767-0.15868-0.17828-0.36304-0.17828-0.60729 0-0.13193 0.0145-0.27211 0.0501-0.429 0.10697-0.47781 0.32537-0.84174 0.64628-1.0753 0.23556-0.17004 0.4957-0.26829 0.77443-0.28971zm9.789 0c0.047-3e-3 0.0905 0 0.13928 0 0.22465 0 0.40115 0.0227 0.53486 0.078 0.14263 0.0571 0.24381 0.13772 0.30086 0.234 0.0553 0.0909 0.0836 0.20257 0.0836 0.33985 0 1e-5 -0.0669 0.40672-0.0669 0.40672l-0.12257 0.55157c-0.10519 0.47068-0.12836 0.64718-0.13371 0.71315-5e-3 0.0891 3e-3 0.17606 0.0279 0.25629 0-1e-5 0.0446 0.14485 0.0446 0.14485h-0.65744s-0.0279-0.0836-0.0279-0.0836c-0.0107-0.0392-8e-3 -0.0891-0.0111-0.13371-0.1248 0.0767-0.24982 0.14463-0.36214 0.18385-0.1658 0.0571-0.33785 0.0891-0.51257 0.0891-0.30308 0-0.5275-0.0789-0.663-0.234-0.10341-0.1141-0.15043-0.25361-0.15043-0.41228 0-0.0606 8e-3 -0.12346 0.0223-0.18943 0.0303-0.1355 0.0854-0.26097 0.17272-0.37329 0.0856-0.11054 0.18675-0.20146 0.30085-0.26743 0.11054-0.066 0.23378-0.11276 0.36215-0.14485 0 0 0.39557-0.0669 0.39557-0.0669 0.30487-0.0357 0.53241-0.08 0.69643-0.12815 4e-3 -0.0178 0.0111-0.039 0.0111-0.039 0.0258-0.11471 0.0226-0.20093-6e-3 -0.24514-2e-3 -3e-3 -9e-3 -9e-3 -0.0111-0.0111-6e-3 -6e-3 -0.0153-0.0165-0.0223-0.0223-0.0671-0.0531-0.1814-0.078-0.33429-0.078-0.17293 0-0.30085 0.0283-0.38999 0.0836-0.0874 0.0553-0.16826 0.15645-0.23958 0.30086h-0.67414l0.0613-0.13371c0.0802-0.18542 0.17583-0.33919 0.29528-0.45686 0.11946-0.11767 0.2808-0.20882 0.468-0.273 0.14347-0.0474 0.30012-0.0788 0.468-0.0891zm2.8247 0c0.0251-3e-3 0.0526 0 0.078 0 0.16224 0 0.31423 0.0488 0.45686 0.15042l0.0836 0.0613s-0.34543 0.56829-0.34543 0.56829l-0.0947-0.0669c-0.0695-0.0446-0.14062-0.0669-0.21729-0.0669-0.0677 0-0.1346 0.0241-0.20057 0.0669-0.0677 0.0446-0.117 0.10363-0.16157 0.18386-0.0731 0.13728-0.1297 0.29105-0.16714 0.45686l-0.30643 1.3706h-0.64629l0.59615-2.6743h0.60171s-0.0152 0.0811-0.0223 0.11143c0.0285-0.0214 0.0568-0.0508 0.0836-0.0669 0.085-0.0515 0.17206-0.0837 0.26186-0.0947zm1.911 0c0.0389-3e-3 0.0772 0 0.117 0 0.36371 0 0.64072 0.12747 0.81901 0.37885 0.1141 0.16224 0.17271 0.36281 0.17271 0.60172 0 0.13193-0.0219 0.27389-0.0557 0.429l-0.0446 0.195h-1.8163c-4e-3 0.0374-0.0111 0.0775-0.0111 0.11143 0 0.13906 0.0303 0.24848 0.0891 0.32871 9e-3 0.0125 0.0233 0.0279 0.0334 0.039 6e-3 6e-3 0.0161 0.0165 0.0223 0.0223 0.0797 0.0725 0.18818 0.11143 0.32314 0.11143 0.13194 0 0.24782-0.0363 0.35658-0.10585 0.10341-0.066 0.20057-0.17138 0.28971-0.31758h0.69643l-0.0669 0.13372c-0.13193 0.26743-0.31779 0.47602-0.546 0.624-0.23177 0.14798-0.50299 0.22843-0.80786 0.22843-0.39401 0-0.68172-0.12748-0.86357-0.37886-0.18007-0.24604-0.22264-0.58612-0.12815-1.014 0.0963-0.43502 0.28282-0.78268 0.56272-1.0252 0.25247-0.21753 0.54143-0.33819 0.858-0.36214zm-9.7556 0.0501h0.663s0.0818 1.587 0.0836 1.6101c0.0267-0.0568 0.0475-0.10464 0.0502-0.11143 0 1e-5 0.72986-1.4987 0.72986-1.4987h0.60728s0.0557 1.5678 0.0557 1.5767c0.0178-0.0321 0.83015-1.5767 0.83015-1.5767h0.65743s-1.4486 2.6743-1.4486 2.6743c1e-5 -1e-5 -0.59614 0-0.59614 0 0-1e-5 -0.0577-1.4501-0.0613-1.5322-0.24604 0.50455-0.74657 1.5322-0.74657 1.5322 0-1e-5 -0.61286 0-0.61286 0 0-1e-5 -0.21172-2.6743-0.21172-2.6743zm-15.567 0.50699c-0.15358 6e-3 -0.29306 0.0618-0.42343 0.16714-0.10341 0.082-0.17316 0.19456-0.22843 0.31757 0 1e-5 1.0976 0 1.0976 0 2e-3 -0.0196 6e-3 -0.0435 6e-3 -0.0613 0-0.10162-0.018-0.18051-0.0501-0.234-0.0784-0.12837-0.19478-0.18943-0.36771-0.18943-0.0104 0-0.0232-5.5e-4 -0.0334 0zm2.9027 0c-0.15358 6e-3 -0.29306 0.0618-0.42343 0.16714-0.10341 0.082-0.17138 0.19456-0.22843 0.31757 0 1e-5 1.0976 0 1.0976 0 2e-3 -0.0196 6e-3 -0.0435 6e-3 -0.0613 0-0.10162-0.0163-0.18051-0.0501-0.234-0.0156-0.0261-0.0366-0.052-0.0557-0.0724-0.0744-0.0769-0.17689-0.117-0.312-0.117-0.0104 0-0.0232-5.6e-4 -0.0334 0zm22.453 0c-0.15793 5e-3 -0.30542 0.0583-0.44014 0.16714-0.10163 0.082-0.17138 0.19456-0.22843 0.31757 0 1e-5 1.092 0 1.092 0 2e-3 -0.0196 6e-3 -0.0435 6e-3 -0.0613 0-0.10162-0.0163-0.18051-0.0501-0.234-0.0767-0.12658-0.19478-0.18764-0.36772-0.18943-5e-3 6e-5 -6e-3 -1.5e-4 -0.0111 0zm-14.597 0.0111c-0.14738 0.0175-0.28442 0.0847-0.41229 0.20057-0.15332 0.13907-0.26453 0.35746-0.32871 0.64629-0.0267 0.12123-0.039 0.22486-0.039 0.31757 0 0.12658 0.0243 0.22598 0.0724 0.30085 0.0128 0.0192 0.0298 0.0395 0.0446 0.0557 0.0793 0.0841 0.18993 0.12815 0.32871 0.12815 0.18007-1e-5 0.33875-0.0671 0.49029-0.20615 0.15333-0.14085 0.26275-0.36147 0.32871-0.65742 0.0606-0.271 0.0522-0.47336-0.0334-0.60172-0.082-0.1248-0.20191-0.18386-0.36771-0.18386-0.0281 0-0.0563-3e-3 -0.0836 0zm10.068 0.975c-0.15154 0.041-0.32136 0.0755-0.546 0.10586-0.16759 0.025-0.28704 0.0513-0.35657 0.078-0.0606 0.0249-0.10943 0.0595-0.15043 0.10586-0.0392 0.0446-0.0655 0.0914-0.078 0.14485-3e-3 0.0214-6e-3 0.0435-6e-3 0.0613 0 1e-3 -4e-5 4e-3 0 6e-3 1.8e-4 4e-3 -5.3e-4 0.0126 0 0.0167 1e-3 8e-3 3e-3 0.0203 6e-3 0.0279 7.9e-4 2e-3 5e-3 9e-3 6e-3 0.0111 2e-3 5e-3 3e-3 0.0121 6e-3 0.0167 3e-3 5e-3 8e-3 0.0124 0.0111 0.0167 5e-3 6e-3 0.011 0.0163 0.0167 0.0223 0.0446 0.0499 0.13349 0.0724 0.26186 0.0724 0.14084 1e-5 0.27634-0.0267 0.40114-0.0891 0.12302-0.0606 0.22219-0.1511 0.29528-0.25628 0.0535-0.0749 0.0963-0.1901 0.13372-0.33986z" fill="#bd0000"/>
<g transform="matrix(.17829 0 0 .17829 36.279 282.27)" fill-opacity=".94118" stroke-width="1pt">
<path d="m0.03 0h-0.03c0.97 0.01 1.61 0.34 2.04 1.05 0.19 0.3 0.29 0.75 0.29 1.32 0 0.1-0.02 0.23-0.03 0.34h0.04c0-0.11 0.02-0.24 0.02-0.34 0-0.57-0.09-1.02-0.28-1.32-0.43-0.72-1.08-1.05-2.05-1.05z" fill-opacity=".94118"/>
</g>
</g>
<g transform="matrix(.17829 0 0 .17829 -22.308 209.75)" fill="#bd0000" fill-rule="evenodd" stroke-width="1pt">
<g transform="translate(125.13 453.39)">
<path d="m0 36h7.46l3.35-14h12.12l1.56-6h-12.17s2.02-9 2.02-9h12.95l1.56-7h-20.45l-8.4 36z" fill="#bd0000"/>
</g>
<g transform="translate(151.08 463.39)">
<path d="m7.51 26s2.24-9.4 2.24-9.4c1.18-5.09 3.67-9.6 8.38-9.6 0.42 0 0.83 0.21 1.14 0.26 0 0 1.82-7.21 1.82-7.21-0.42 0-0.88-0.05-1.4-0.05-3.47 0-6.38 2.44-8.32 5.94h-0.2c0.29-1.71 0.54-3.33 0.73-4.94h-6.43c-0.37 2.08-0.94 6.15-1.81 9.82l-3.66 15.18h7.51z" fill="#bd0000"/>
</g>
<g transform="translate(171.71 463.39)">
<path d="m20.06 19.25c-2.07 1.01-4.43 0.75-7.18 0.75-2.17 0-3.85-0.38-4.77-1.12-0.48-0.81-0.68-2.07-0.64-2.88 10.13 0.27 16.52-2.07 16.84-8.47 0.24-4.83-3.29-7.53-8.42-7.53-9.16 0-15.16 8.08-15.55 15.86-0.34 6.79 3.18 10.14 10.44 10.14 2.79 0 6.49-0.32 9.52-1.23l-0.24-5.52zm-2.74-11.72c-0.12 2.38-3.06 2.52-8.85 2.47 0.63-2.09 2.75-4 6.22-4 1.71 0 2.69 0.65 2.63 1.53z" fill="#bd0000"/>
</g>
<g transform="translate(198.23 463.39)">
<path d="m20.05 19.25c-2.07 1.01-4.43 0.75-7.17 0.75-2.18 0-3.85-0.38-4.77-1.12-0.48-0.81-0.69-2.07-0.65-2.88 10.14 0.27 16.52-2.07 16.85-8.47 0.24-4.83-3.29-7.53-8.42-7.53-9.17 0-15.17 8.08-15.56 15.86-0.33 6.79 3.19 10.14 10.44 10.14 2.8 0 6.5-0.32 9.53-1.23l-0.25-5.52zm-2.73-11.72c-0.12 2.38-3.06 2.52-8.86 2.47 0.64-2.09 2.75-4 6.22-4 1.71 0 2.7 0.65 2.64 1.53z" fill="#bd0000"/>
</g>
<g transform="translate(234.14 463.39)">
<path d="m22.74 26c0.06-3.17 0.82-8.15 1.61-11.42l3.21-13.58c-2.04-0.69-5.22-1-8.28-1-12.42 0-18.58 9.2-19.01 17.82-0.27 5.41 2.66 8.18 7.22 8.18 2.95 0 6.28-1.43 8.87-5.73h0.11c-0.2 2.07-0.44 4.08-0.57 5.73h6.84zm-5.13-14.28c-1.46 6.36-4.44 8.28-6.66 8.28-2.07 0-2.97-1.47-2.85-3.61 0.24-4.83 4.06-10.39 8.88-10.39 0.78 0 1.39-0.14 1.96-0.28 0 0-1.33 6-1.33 6z" fill="#bd0000"/>
</g>
<g transform="translate(261.77 463.39)">
<path d="m0 24.82c1.44 1.12 4.46 1.13 7.61 1.18 6.73 0.05 11.81-2.89 12.11-8.29 0.17-3.6-2.62-5.73-5.35-7.16-1.97-0.95-2.96-1.86-2.91-2.92 0.07-1.43 1.41-1.63 3.38-1.63 2.22 0 4 0.27 5.02 0.47l2.02-5.42c-1.15-0.69-3.45-1.05-6.4-1.05-6.53 0-11.31 3.45-11.58 8.69-0.16 3.24 2.17 5.42 4.99 6.9 2.28 1.17 3.06 2.07 3 3.34-0.07 1.28-1.21 1.07-3.28 1.07-2.43 0-5.12-0.32-6.54-0.54l-2.07 5.36z" fill="#bd0000"/>
</g>
<g transform="translate(294.22 452.39)">
<path d="m7.45 37l6.05-25h-7.41l-6.09 25h7.45zm3.47-28c2.54 0 4.8-2.1 4.94-5.7 0.12-2.44-1.46-3.3-3.79-3.3-2.43 0-4.65 1.58-4.78 3.94-0.12 2.38 1.46 5.06 3.63 5.06z" fill="#bd0000"/>
</g>
<g transform="translate(308.51 464.08)">
<path d="m7.46 25.31l2.64-11.26c1.37-5.73 4.32-7.74 6.75-7.74 1.92 0 2.48 0.82 2.39 2.01-0.05 0.96-0.2 1.97-0.4 2.87l-3.36 14.12h7.46l3.54-14.81c0.27-1.28 0.57-3.19 0.63-4.35 0.22-4.51-2.03-6.15-6.17-6.15-3.32 0-6.55 1.54-9.1 4.88h-0.1l0.68-4.57h-6.58c-0.43 2.14-0.98 4.73-1.76 7.75l-4.08 17.25h7.46z" fill="#bd0000"/>
</g>
<g transform="translate(348.07 453.39)">
<path d="m0 36h7.46l3.36-14h12.11l1.56-6h-12.17s2.02-9 2.02-9h12.95l1.56-7h-20.45l-8.4 36z" fill="#bd0000"/>
</g>
<g transform="translate(374.02 463.39)">
<path d="m7.51 26s2.24-9.4 2.24-9.4c1.18-5.09 3.67-9.6 8.38-9.6 0.42 0 0.83 0.21 1.14 0.26 0 0 1.82-7.21 1.82-7.21-0.42 0-0.88-0.05-1.4-0.05-3.47 0-6.38 2.44-8.32 5.94h-0.2c0.29-1.71 0.54-3.33 0.73-4.94h-6.43c-0.36 2.08-0.94 6.15-1.81 9.82l-3.66 15.18h7.51z" fill="#bd0000"/>
</g>
<g transform="translate(394.65 463.39)">
<path d="m20.06 19.25c-2.07 1.01-4.43 0.75-7.18 0.75-2.17 0-3.85-0.38-4.77-1.12-0.48-0.81-0.68-2.07-0.64-2.88 10.13 0.27 16.52-2.07 16.84-8.47 0.24-4.83-3.29-7.53-8.42-7.53-9.16 0-15.16 8.08-15.55 15.86-0.34 6.79 3.19 10.14 10.44 10.14 2.79 0 6.5-0.32 9.52-1.23l-0.24-5.52zm-2.74-11.72c-0.12 2.38-3.06 2.52-8.85 2.47 0.63-2.09 2.75-4 6.22-4 1.71 0 2.69 0.65 2.63 1.53z" fill="#bd0000"/>
</g>
<g transform="translate(421.17 463.39)">
<path d="m20.05 19.25c-2.07 1.01-4.43 0.75-7.17 0.75-2.18 0-3.85-0.38-4.77-1.12-0.48-0.81-0.69-2.07-0.65-2.88 10.14 0.27 16.52-2.07 16.85-8.47 0.24-4.83-3.29-7.53-8.42-7.53-9.17 0-15.17 8.08-15.56 15.86-0.33 6.79 3.19 10.14 10.44 10.14 2.8 0 6.5-0.32 9.53-1.23l-0.25-5.52zm-2.73-11.72c-0.12 2.38-3.06 2.52-8.86 2.47 0.64-2.09 2.75-4 6.22-4 1.71 0 2.7 0.65 2.64 1.53z" fill="#bd0000"/>
</g>
<g transform="translate(447.55 452.39)">
<path d="m23.31 0l-2.81 11.36c-1.02-0.42-2.35-0.36-3.39-0.36-9.58 0-16.36 8.2-16.81 17.08-0.3 6.26 3.04 8.92 7.34 8.92 3.01 0 6.18-1.33 8.58-4.77h0.1l-0.57 4.77h6.78c0.31-3 0.96-6.57 1.69-9.83l6.49-27.17h-7.4zm-5.84 24.42c-1.17 4.93-3.93 6.58-6.11 6.58-2.17 0-3.38-1.51-3.23-4.2 0.25-4.98 3.67-9.8 8.12-9.8 1.25 0 2.32 0.19 2.91 0.47l-1.69 6.95z" fill="#bd0000"/>
</g>
<g transform="translate(477.26 463.39)">
<path d="m10.61 26c8.7 0 15.41-6.59 15.88-15.56 0.29-5.94-3.41-10.44-10.24-10.44-9.02 0-15.49 7.3-15.94 16.12-0.31 6.42 3.83 9.88 10.3 9.88zm1.17-6c-2.54 0-3.94-1.62-3.79-4.04 0.2-4.03 2.69-9.96 6.98-9.96 2.96 0 3.87 2.27 3.75 4.5-0.22 4.4-2.9 9.5-6.94 9.5z" fill="#bd0000"/>
</g>
<g transform="translate(505.82 463.39)">
<path d="m7.2 26l2.7-11.42c1.13-5.09 3.95-8.58 6.48-8.58 1.82 0 2.32 1.33 2.23 3.07-0.05 0.9-0.25 1.91-0.46 2.91l-3.34 14.02h7.2l2.7-11.47c1.24-5.25 3.9-8.53 6.38-8.53 1.71 0 2.42 1.22 2.34 2.96-0.05 1.01-0.26 2.12-0.52 3.13l-3.24 13.91h7.25l3.49-14.81c0.27-1.33 0.58-3.4 0.63-4.46 0.22-4.4-1.93-6.73-5.81-6.73-3.32 0-6.55 1.5-9 4.66-0.09-2.28-1.72-4.66-5.76-4.66-3.27 0-6.39 1.48-8.89 4.83h-0.1l0.67-3.83h-6.42c-0.42 2.14-0.93 4.73-1.71 7.75l-4.02 17.25h7.2z" fill="#bd0000"/>
</g>
</g>
<path d="m40.83 285.04c0.0724 0.18606 0.14475 0.37182 0.22014 0.55351 0.1161 0.24683 0.25029 0.4831 0.41163 0.70369 0.87151 1.1847 2.3311 1.8333 4.1841 1.9948h1.9933c0.63025-0.0491 1.2907-0.14083 1.9752-0.27472 1.1806-0.23085 2.4321-0.58548 3.7318-1.0594 0.98459-0.35901 1.9963-0.78375 3.0231-1.2774 2.2361-1.0719 4.546-2.4544 6.8122-4.1228 0.74636-0.54899 1.4626-1.1123 2.1501-1.6851 0.63026-0.52441 1.2349-1.057 1.8124-1.5954 1.6118-1.5533 2.8286-3.131 3.5177-4.5162 0.71771-1.4425 0.86096-2.6759 0.27291-3.4529-0.36036-0.47691-0.96348-0.73249-1.74-0.79265 3.4981-2.6248 5.5366-5.8088 4.8054-7.8163-0.23221-0.64067-0.74335-1.1186-1.4761-1.383-0.32568-0.11715-0.69208-0.19133-1.0916-0.22511h-1.0766c-1.5033 0.10841-3.6893 0.64669-5.5439 1.5556" fill="none" stroke="#bd0000" stroke-width=".89143"/>
</g>
</svg>
