<svg xmlns="http://www.w3.org/2000/svg" viewBox="0 0 362.73401 512" height="512" width="362.73">
    <title>
        HTML5 Logo
    </title>
    <path fill="#e44d26" d="M329.687 470.82L181.147 512l-148.14-41.12L0 100.62h362.737z"/>
    <path fill="#f16529" d="M181.367 130.89v349.63l120.03-33.27 28.24-316.36z"/>
    <path fill="#ebebeb" d="M181.367 221.72V176.3H67.497l1.09 12.19 11.16 125.14h101.62v-45.41h-60.09l-4.15-46.5zm-54.01 114.61h-45.58l6.36 71.3 93.02 25.83.21-.06v-47.25l-.2.06-50.57-13.66z"/>
    <path d="M33.75 0h23.076v22.8h21.11V0h23.078v69.044H77.937v-23.12h-21.11v23.12H33.75V0zm97.61 22.896h-20.316V0h63.72v22.896H154.44v46.148h-23.08V22.896zM184.88 0h24.06l14.8 24.26L238.53 0h24.072v69.044H239.62V34.822l-15.877 24.55h-.397l-15.888-24.55v34.222h-22.58V0zm89.21 0h23.084v46.222h32.453v22.822H274.09V0z"/>
    <path fill="#fff" d="M231.857 372.52l-50.65 13.67v47.25l93.1-25.81.68-7.67 10.67-119.55 1.11-12.19h-105.56v45.41h55.92zm-50.65-150.8h109.69l.91-10.21 2.07-23.02 1.09-12.19h-113.76v45.3z"/>
</svg>
