<svg xmlns="http://www.w3.org/2000/svg" viewBox="0 0 109.4 100.77">
    <defs>
        <radialGradient id="a" gradientUnits="userSpaceOnUse" cy="169.84" cx="157.01" gradientTransform="matrix(.869 .495 -.4095 .719 90.126 -29.997)" r="175.43">
            <stop stop-color="#3DC5F1" offset=".471"/>
            <stop stop-color="#31A5DC" offset=".79"/>
            <stop stop-color="#1E71B8" offset="1"/>
        </radialGradient>
        <radialGradient id="b" gradientUnits="userSpaceOnUse" cy="195.98" cx="171.78" gradientTransform="matrix(.71 .704 -1.8774 1.8936 417.71 -296.07)" r="78.794">
            <stop stop-color="#FFCC09" offset=".638"/>
            <stop stop-color="#F2ED7E" stop-opacity=".96" offset=".871"/>
            <stop stop-color="#F3EC79" stop-opacity=".806" offset=".892"/>
            <stop stop-color="#F4E76A" stop-opacity=".619" offset=".917"/>
            <stop stop-color="#F7E051" stop-opacity=".415" offset=".944"/>
            <stop stop-color="#FBD730" stop-opacity=".2" offset=".973"/>
            <stop stop-color="#FFCC09" stop-opacity="0" offset="1"/>
        </radialGradient>
        <radialGradient id="c" gradientUnits="userSpaceOnUse" cy="204.36" cx="188.84" gradientTransform="matrix(.7015 .7127 -1.8844 1.855 441.46 -309.29)" r="89.173">
            <stop stop-color="#F2ED7E" stop-opacity="0" offset=".558"/>
            <stop stop-color="#FFCC09" offset=".74"/>
            <stop stop-color="#F2ED7E" stop-opacity=".96" offset=".871"/>
            <stop stop-color="#F3EB77" stop-opacity=".817" offset=".89"/>
            <stop stop-color="#F5E562" stop-opacity=".603" offset=".919"/>
            <stop stop-color="#F9DC40" stop-opacity=".344" offset=".954"/>
            <stop stop-color="#FECF12" stop-opacity=".052" offset=".993"/>
            <stop stop-color="#FFCC09" stop-opacity="0" offset="1"/>
        </radialGradient>
    </defs>
    <path d="M204.01 271.92c-20.214 0-37.787-11.293-46.766-27.908a52.902 52.902 0 0 1-6.356-25.215v-.244h171.06c.508-4.504.795-9.072.795-13.71 0-66.793-54.145-120.94-120.94-120.94-66.792 0-120.94 54.143-120.94 120.94 0 66.79 54.145 120.94 120.94 120.94 53.076 0 98.134-34.208 114.41-81.767h-65.447c-8.977 16.615-26.552 27.908-46.764 27.908zm-2.2-133.18c27.135 0 49.305 21.23 50.828 47.983h-101.66c1.523-26.754 23.694-47.983 50.83-47.983z" fill="url(#a)" transform="translate(-15.177 -25.7) scale(.38462)"/>
    <path d="M63.45 79.367c-7.773 0-14.532-4.344-17.986-10.734a20.347 20.347 0 0 1-2.445-9.7v-.092h65.792c.196-1.732.306-3.49.306-5.273 0-25.69-20.825-46.516-46.516-46.516-25.69 0-46.512 20.826-46.512 46.517 0 25.69 20.825 46.516 46.516 46.516 20.414 0 37.744-13.157 44.004-31.45H81.438C77.985 75.026 71.225 79.37 63.45 79.37zm-.846-51.224c10.437 0 18.964 8.165 19.55 18.455h-39.1c.586-10.29 9.113-18.455 19.55-18.455z" stroke="#FFF" stroke-miterlimit="10" stroke-width=".565" fill="none" opacity=".5"/>
    <path d="M63.29 78.886c-7.775 0-14.534-4.344-17.988-10.734a20.347 20.347 0 0 1-2.444-9.698v-.094h65.793c.196-1.732.306-3.49.306-5.274 0-25.69-20.825-46.516-46.516-46.516-25.69 0-46.515 20.825-46.515 46.516 0 25.69 20.825 46.516 46.515 46.516 20.415 0 37.745-13.156 44.005-31.45H81.273C77.82 74.545 71.06 78.888 63.286 78.888zm-.847-51.224c10.437 0 18.964 8.165 19.55 18.455h-39.1c.585-10.29 9.112-18.455 19.55-18.455z" stroke="#0f5ea8" stroke-miterlimit="10" stroke-width=".565" fill="none"/>
    <path d="M63.132 78.728c-7.775 0-14.534-4.343-17.988-10.734a20.347 20.347 0 0 1-2.445-9.698v-.094h65.793c.195-1.732.305-3.49.305-5.273 0-25.69-20.825-46.517-46.516-46.517-25.69 0-46.516 20.825-46.516 46.516 0 25.688 20.826 46.515 46.516 46.515 20.414 0 37.745-13.157 44.005-31.45H81.12c-3.45 6.39-10.21 10.735-17.985 10.735zm-.847-51.224c10.437 0 18.964 8.166 19.55 18.456h-39.1c.585-10.29 9.112-18.456 19.55-18.456z" stroke="#231f20" stroke-miterlimit="10" stroke-width=".565" fill="none" opacity=".1"/>
    <path opacity=".25" d="M139.4 309.66c-26.33 11.25-48.316 15.49-59.485 3.38-22.308-22.31 9.695-90.48 71.475-152.26 61.79-61.784 129.96-93.787 152.26-71.48 9.52 9.523 7.495 26.87.76 49.583-.643 2.164 2.585 7.85 3.517 5.79 12.92-28.586 11.1-54.197-3.66-68.96-22.89-22.893-122.08 1.053-181.77 70.604C102.05 167.44 54.19 227.55 54.01 292.737c.84 7.687 2.227 59.7 93.635 20.915 0 0-10.04-5.79-7.398-4.468z" fill="url(#b)" transform="translate(-15.177 -25.7) scale(.38462)"/>
    <path d="M38.44 93.4c-10.274 4.685-18.687 5.494-22.88 1.3-8.58-8.58 3.728-34.8 27.492-58.56C66.816 12.374 93.037.065 101.614 8.646c3.662 3.662 3.508 10.544.292 19.07.47.73.923 1.47 1.353 2.227 4.318-11.264 4.27-20.844-1.41-26.522-8.804-8.805-42.227-.618-67.89 25.045C8.3 54.13.206 87.645 8.916 96.357c6.636 6.636 18.684 5.495 32.513-1.307a47.423 47.423 0 0 1-2.992-1.645z" fill="#ffcc09"/>
    <path d="M139.4 309.66c-26.71 12.176-48.584 14.28-59.485 3.38-22.308-22.31 9.694-90.48 71.48-152.26 61.784-61.785 129.96-93.788 152.26-71.48 9.52 9.522 9.118 27.415.758 49.583a122.68 122.68 0 0 1 3.518 5.79c11.23-29.286 11.104-54.193-3.662-68.958-22.89-22.89-109.79-1.605-176.51 65.118-66.723 66.723-87.764 153.86-65.12 176.51 17.253 17.254 48.578 14.29 84.533-3.396a123.3 123.3 0 0 1-7.778-4.278z" fill="url(#c)" transform="translate(-15.177 -25.7) scale(.38462)"/>
</svg>
