<svg xmlns:rdf="http://www.w3.org/1999/02/22-rdf-syntax-ns#" xmlns="http://www.w3.org/2000/svg" viewBox="0 0 109.4 100.77" height="100%" width="100%" version="1.1" xmlns:cc="http://creativecommons.org/ns#" xmlns:dc="http://purl.org/dc/elements/1.1/">
<metadata>
<rdf:RDF>
<cc:Work rdf:about="">
<dc:format>image/svg+xml</dc:format>
<dc:type rdf:resource="http://purl.org/dc/dcmitype/StillImage"/>
<dc:title/>
</cc:Work>
</rdf:RDF>
</metadata>
<defs>
<radialGradient id="radialGradient3275" gradientUnits="userSpaceOnUse" cy="169.84" cx="157.01" gradientTransform="matrix(0.869,0.4949,-0.4095,0.7191,90.1259,-29.9967)" r="175.43">
<stop stop-color="#3DC5F1" offset="0.4713"/>
<stop stop-color="#31A5DC" offset="0.7905"/>
<stop stop-color="#1E71B8" offset="1"/>
</radialGradient>
<radialGradient id="radialGradient3277" gradientUnits="userSpaceOnUse" cy="195.98" cx="171.78" gradientTransform="matrix(0.7101,0.7041,-1.8774,1.8936,417.7134,-296.0714)" r="78.794">
<stop stop-color="#FFCC09" offset="0.638"/>
<stop stop-color="#F2ED7E" stop-opacity="0.96" offset="0.8712"/>
<stop stop-color="#F3EC79" stop-opacity="0.8057" offset="0.8919"/>
<stop stop-color="#F4E76A" stop-opacity="0.6187" offset="0.917"/>
<stop stop-color="#F7E051" stop-opacity="0.4146" offset="0.9444"/>
<stop stop-color="#FBD730" stop-opacity="0.2" offset="0.9732"/>
<stop stop-color="#FFCC09" stop-opacity="0" offset="1"/>
</radialGradient>
<radialGradient id="radialGradient3279" gradientUnits="userSpaceOnUse" cy="204.36" cx="188.84" gradientTransform="matrix(0.7015,0.7127,-1.8844,1.8549,441.4625,-309.2913)" r="89.173">
<stop stop-color="#F2ED7E" stop-opacity="0" offset="0.5583"/>
<stop stop-color="#FFCC09" offset="0.7398"/>
<stop stop-color="#F2ED7E" stop-opacity="0.96" offset="0.8712"/>
<stop stop-color="#F3EB77" stop-opacity="0.8174" offset="0.8903"/>
<stop stop-color="#F5E562" stop-opacity="0.6033" offset="0.919"/>
<stop stop-color="#F9DC40" stop-opacity="0.3442" offset="0.9538"/>
<stop stop-color="#FECF12" stop-opacity="0.0522" offset="0.993"/>
<stop stop-color="#FFCC09" stop-opacity="0" offset="1"/>
</radialGradient>
</defs>
<g transform="translate(15.74869,-265.30153)">
<g transform="matrix(0.38462212,0,0,0.38462212,-30.92626,239.595)">
<g>
<path d="m204.01,271.92c-20.214,0-37.787-11.293-46.766-27.908-4.052-7.502-6.356-16.09-6.356-25.215v-0.244h171.06c0.508-4.504,0.795-9.072,0.795-13.711,0-66.792-54.145-120.94-120.94-120.94-66.792,0-120.94,54.144-120.94,120.94,0,66.791,54.145,120.94,120.94,120.94,53.076,0,98.134-34.207,114.41-81.766h-65.447c-8.977,16.615-26.552,27.908-46.764,27.908zm-2.201-133.18c27.136,0,49.306,21.229,50.829,47.983h-101.66c1.523-26.754,23.694-47.983,50.831-47.983z" fill="url(#radialGradient3275)"/>
<g opacity="0.5">
<path d="m204.43,273.17c-20.213,0-37.786-11.293-46.766-27.908-4.052-7.502-6.356-16.09-6.356-25.215v-0.244h171.06c0.508-4.504,0.795-9.072,0.795-13.711,0-66.792-54.145-120.94-120.94-120.94-66.791,0-120.93,54.143-120.93,120.94,0,66.791,54.145,120.94,120.94,120.94,53.076,0,98.134-34.207,114.41-81.766h-65.447c-8.978,16.615-26.553,27.908-46.765,27.908zm-2.201-133.18c27.136,0,49.306,21.229,50.829,47.983h-101.66c1.524-26.754,23.694-47.983,50.831-47.983z" stroke="#FFF" stroke-miterlimit="10" stroke-width="1.46889997" fill="none"/>
</g>
<path d="m204.01,271.92c-20.214,0-37.787-11.293-46.766-27.908-4.052-7.502-6.356-16.09-6.356-25.215v-0.244h171.06c0.508-4.504,0.795-9.072,0.795-13.711,0-66.792-54.145-120.94-120.94-120.94-66.792,0-120.94,54.144-120.94,120.94,0,66.791,54.145,120.94,120.94,120.94,53.076,0,98.134-34.207,114.41-81.766h-65.447c-8.977,16.615-26.552,27.908-46.764,27.908zm-2.201-133.18c27.136,0,49.306,21.229,50.829,47.983h-101.66c1.523-26.754,23.694-47.983,50.831-47.983z" stroke="#0f5ea8" stroke-miterlimit="10" stroke-width="1.46889997" fill="none"/>
<g opacity="0.1">
<path d="m203.6,271.51c-20.214,0-37.787-11.293-46.767-27.908-4.052-7.502-6.356-16.09-6.356-25.215v-0.244h171.06c0.508-4.504,0.795-9.072,0.795-13.711,0-66.792-54.145-120.94-120.94-120.94-66.792,0-120.94,54.144-120.94,120.94,0,66.791,54.145,120.94,120.94,120.94,53.076,0,98.134-34.207,114.41-81.766h-65.43c-8.976,16.615-26.551,27.908-46.763,27.908zm-2.201-133.18c27.136,0,49.306,21.229,50.829,47.983h-101.66c1.523-26.755,23.693-47.983,50.831-47.983z" stroke="#231f20" stroke-miterlimit="10" stroke-width="1.46889997" fill="none"/>
</g>
</g>
<path opacity="0.25" d="M139.4,309.66c-26.33,11.25-48.316,15.49-59.485,3.38-22.308-22.31,9.695-90.48,71.475-152.26,61.79-61.784,129.96-93.787,152.26-71.48,9.5202,9.5228,7.4948,26.869,0.759,49.583-0.64161,2.1636,2.5865,7.85,3.518,5.789,12.919-28.585,11.101-54.196-3.66-68.96-22.889-22.892-122.08,1.0538-181.77,70.605-20.448,21.124-68.306,81.234-68.487,146.42,0.84135,7.6867,2.2275,59.7,93.635,20.915,0,0-10.039-5.7886-7.3976-4.4677z" fill="url(#radialGradient3277)"/>
<path d="m139.4,309.66c-26.71,12.176-48.584,14.281-59.485,3.379-22.308-22.309,9.694-90.48,71.479-152.26,61.785-61.784,129.96-93.787,152.26-71.479,9.521,9.522,9.119,27.415,0.759,49.583,1.224,1.896,2.398,3.824,3.518,5.789,11.229-29.285,11.103-54.192-3.663-68.957-22.891-22.891-109.79-1.605-176.51,65.118-66.723,66.723-87.764,153.86-65.12,176.51,17.253,17.254,48.578,14.289,84.533-3.396-2.651-1.334-5.243-2.764-7.779-4.278z" fill="#ffcc09"/>
<path d="m139.4,309.66c-26.71,12.176-48.584,14.281-59.485,3.379-22.308-22.309,9.694-90.48,71.479-152.26,61.785-61.784,129.96-93.787,152.26-71.479,9.521,9.522,9.119,27.415,0.759,49.583,1.224,1.896,2.398,3.824,3.518,5.789,11.229-29.285,11.103-54.192-3.663-68.957-22.891-22.891-109.79-1.605-176.51,65.118-66.723,66.723-87.764,153.86-65.12,176.51,17.253,17.254,48.578,14.289,84.533-3.396-2.651-1.334-5.243-2.764-7.779-4.278z" fill="url(#radialGradient3279)"/>
</g>
</g>
</svg>
