<svg xmlns="http://www.w3.org/2000/svg" height="359.13" width="363.91" version="1" viewBox="0 0 363.91489 359.12854">
    <path d="M148.39 12.33L14.05 149.8c-45.39 56.21 30.89 49.67 63.59 65.86 11.73 11.99-44.96 20.84-33.23 32.84 11.73 11.99 70.93 23.1 82.68 35.09 11.73 11.99-24.01 24.71-12.28 36.7s38.86.63 43.94 28.31c3.62 19.78 48.89 8.5 71.03-7.7 11.73-12-22.44-10.87-10.71-22.86 29.17-29.83 56.33-10.84 66.31-40.73 4.93-14.77-42.94-22.77-31.19-34.76 33.75-19.71 150.4-32.54 95.05-87.89L209.99 12.33c-17.03-16.35-45.45-16.53-61.6 0zM302.7 277.31c0 6.82 50.25 11.29 50.25-1.61-7.16-20.72-44.31-19.32-50.25 1.61zM76.34 313.55c11.9 10.29 30.28-2.56 35.79-16.92-11.53-15.32-54.69.55-35.79 16.92zm220.06-22.23c-15.34 13.76 1.72 27.72 16.84 18.83 3.37-3.42-.09-15.41-16.84-18.83z"/>
    <path fill="#fff" d="M116.24 223.1c3.59 2.23 57.89 13.26 71.16 15.46 4.6.97 1.34 5.71-5 8.91-14.3 3.8-83.66-24.37-66.16-24.37zm85.63-201.13l53.15 53.98c5.04 5.15 4.97 15.13 2.15 18l-26.39-21.11-5.19 31.26-22.05-11.64-35.31 22.31-11.69-47.03-18.97 32.82h-29c-11.82 0-13.21-15-2.47-25.74 18.76-20.25 40.29-40.89 51.99-52.85 11.76-12.02 32.25-11.68 43.78 0z"/>
</svg>
