<svg viewBox="0 0 100 100" xmlns="http://www.w3.org/2000/svg">
    <path d="M29.427 0l-.226 9.325c15.562.484 31.04 6.398 42.266 17.329 11.975 11.285 18.691 27.498 19.205 43.86.919.788 3.242.021 4.686.226 1.378-.387 4.23.622 4.642-.678.024-21.143-10.416-41.72-26.975-54.73C60.82 5.43 45.118.002 29.427 0zm-.2 21.87v9.514c11.33.404 22.521 5.406 29.785 14.24 6.04 6.931 9.219 16.08 9.639 25.203h9.508c-.084-14.637-7.138-28.924-18.597-38.011-8.436-7.004-19.42-10.775-30.336-10.947zm.205 20.83C14.658 41.778 1.047 54.373.099 68.997c-.82 9.507 3.542 19.028 11.04 24.87 10.912 9.209 28.643 7.818 38.273-2.637 9.965-9.91 10.699-27.374 1.598-38.078-5.1-6.442-13.343-10.527-21.578-10.452zm7.646 11.405c5.284.148 9.905 5.452 8.365 10.778-1.084 6.856-11.163 9.234-15.14 3.476-5.054-5.369-.227-14.375 6.775-14.254z" fill-rule="evenodd"/>
</svg>
