<svg xmlns="http://www.w3.org/2000/svg" version="1.1" xmlns:xlink="http://www.w3.org/1999/xlink" viewBox="0 0 100 100">
	<defs>
		<radialGradient id="c" gradientUnits="userSpaceOnUse" cy="578.09" cx="158.43" gradientTransform="matrix(0 -1.5247 1.4181 0 -792.23 348.25)" r="65">
			<stop stop-color="#fd5" offset="0"/>
			<stop stop-color="#fd5" offset=".1"/>
			<stop stop-color="#ff543e" offset=".5"/>
			<stop stop-color="#c837ab" offset="1"/>
		</radialGradient>
		<radialGradient id="d" gradientUnits="userSpaceOnUse" cy="473.45" cx="147.69" gradientTransform="matrix(.13377 .66830 -2.7547 .55172 1268.7 -353.73)" r="65">
			<stop stop-color="#3771c8" offset="0"/>
			<stop stop-color="#3771c8" offset=".128"/>
			<stop stop-color="#60f" stop-opacity="0" offset="1"/>
		</radialGradient>
	</defs>
	<path stroke-width=".76919" fill="url(#c)" d="m51.017-1.011c-20.875 0-26.98.021540-28.166.12001-4.2838.35618-6.9495 1.0309-9.8535 2.4771-2.238 1.1117-4.003 2.4002-5.745 4.2066-3.1725 3.2941-5.0952 7.3463-5.7912 12.164-.3384 2.338-.4368 2.815-.4568 14.761-.007691 3.9819 0 9.2223 0 16.251 0 20.863.023073 26.964.12305 28.149.34609 4.1696.99981 6.7929 2.3842 9.6624 2.6457 5.4928 7.6986 9.6162 13.651 11.155 2.0612.53081 4.3376.82315 7.2602.96162 1.2382.05385 13.859.09232 26.487.09232s25.257-.01539 26.464-.07693c3.384-.15924 5.349-.42311 7.5217-.98470a20.935 20.94 0 0 0 13.651 -11.178c1.3574-2.8002 2.0458-5.5235 2.3572-9.4754.0677-.86161.0961-14.599.0961-28.318 0-13.721-.0308-27.433-.0984-28.295-.31-4.015-1.002-6.715-2.403-9.569-1.15-2.3368-2.426-4.0816-4.28-5.8655-3.308-3.1603-7.353-5.0836-12.174-5.779-2.335-.33772-2.801-.43773-14.752-.4585z"/>
	<path stroke-width=".76919" fill="url(#d)" d="m51.017-1.011c-20.875 0-26.98.021540-28.166.12001-4.2838.35618-6.9495 1.0309-9.8535 2.4771-2.238 1.1117-4.003 2.4002-5.745 4.2066-3.1725 3.2941-5.0952 7.3463-5.7912 12.164-.3384 2.338-.4368 2.815-.4568 14.761-.007691 3.9819 0 9.2223 0 16.251 0 20.863.023073 26.964.12305 28.149.34609 4.1696.99981 6.7929 2.3842 9.6624 2.6457 5.4928 7.6986 9.6162 13.651 11.155 2.0612.53081 4.3376.82315 7.2602.96162 1.2382.05385 13.859.09232 26.487.09232s25.257-.01539 26.464-.07693c3.384-.15924 5.349-.42311 7.5217-.98470a20.935 20.94 0 0 0 13.651 -11.178c1.3574-2.8002 2.0458-5.5235 2.3572-9.4754.0677-.86161.0961-14.599.0961-28.318 0-13.721-.0308-27.433-.0984-28.295-.31-4.015-1.002-6.715-2.403-9.569-1.15-2.3368-2.426-4.0816-4.28-5.8655-3.308-3.1603-7.353-5.0836-12.174-5.779-2.335-.33772-2.801-.43773-14.752-.4585z"/>
	<g transform="matrix(.60224 0 0 .60224 19.674 26.757)">
		<circle stroke-width="11.803" stroke="#fff" cy="36.415" cx="52.017" r="26.379" fill="none"/>
		<rect rx="31" ry="31" height="112.33" width="112.84" stroke="#fff" y="-19.251" x="-4.4034" stroke-width="11.959" fill="none"/>
		<circle cy="4.0097" cx="85.587" r="7.4945" fill="#fff"/>
	</g>
</svg>
