<svg xmlns="http://www.w3.org/2000/svg" viewBox="0 0 1052 1052"><path fill="#F0DB4F" d="M0 0h1052v1052H0z"/><path d="M965.9 801.1c-7.7-48-39-88.3-131.7-125.9-32.2-14.8-68.1-25.4-78.8-49.8-3.8-14.2-4.3-22.2-1.9-30.8 6.9-27.9 40.2-36.6 66.6-28.6 17 5.7 33.1 18.8 42.8 39.7 45.4-29.4 45.3-29.2 77-49.4-11.6-18-17.8-26.3-25.4-34-27.3-30.5-64.5-46.2-124-45-10.3 1.3-20.7 2.7-31 4-29.7 7.5-58 23.1-74.6 44-49.8 56.5-35.6 155.4 25 196.1 59.7 44.8 147.4 55 158.6 96.9 10.9 51.3-37.7 67.9-86 62-35.6-7.4-55.4-25.5-76.8-58.4-39.4 22.8-39.4 22.8-79.9 46.1 9.6 21 19.7 30.5 35.8 48.7 76.2 77.3 266.9 73.5 301.1-43.5 1.4-4 10.6-30.8 3.2-72.1zm-394-317.6h-98.4c0 85-.4 169.4-.4 254.4 0 54.1 2.8 103.7-6 118.9-14.4 29.9-51.7 26.2-68.7 20.4-17.3-8.5-26.1-20.6-36.3-37.7-2.8-4.9-4.9-8.7-5.6-9-26.7 16.3-53.3 32.7-80 49 13.3 27.3 32.9 51 58 66.4 37.5 22.5 87.9 29.4 140.6 17.3 34.3-10 63.9-30.7 79.4-62.2 22.4-41.3 17.6-91.3 17.4-146.6.5-90.2 0-180.4 0-270.9z" fill="#323330"/></svg>