<svg preserveAspectRatio="xMidYMid" version="1.1" viewBox="0 0 512 209" xmlns="http://www.w3.org/2000/svg">
<defs>
<linearGradient id="c" x1="23.962%" x2="68.784%" y1="46.043%" y2="55.602%">
<stop stop-color="#919191" offset="0"/>
<stop stop-color="#fff" offset="1"/>
</linearGradient>
<linearGradient id="b" x1="26.427%" x2="67.132%" y1="42.381%" y2="51.906%">
<stop stop-color="#900" offset="0"/>
<stop stop-color="#E80000" offset="1"/>
</linearGradient>
<linearGradient id="a" x1="50%" x2="50%" y1="99.822%" y2="-.043524%">
<stop stop-color="#1A1A1A" offset="0"/>
<stop stop-color="#4A4A4C" offset=".4026"/>
<stop stop-color="#333" offset="1"/>
</linearGradient>
</defs>
<g transform="translate(394.23)">
<path d="m65.073 4.2916c-0.099805 0.39922-0.099805 0.79844 0 1.1977 0 0 1.2975 8.4834-0.19961 12.276l-61.48 159.99c-4.3914 11.777 1.4971 24.851 13.274 29.343 11.777 4.4912 24.851-1.2975 29.542-12.975l61.48-159.99c1.1977-3.094 8.0842-9.1821 8.0842-9.1821 0.29942-0.29942 0.59883-0.59883 0.79844-0.89825v-0.099805c0-0.099805 0.099805-0.099805 0.099805-0.19961 1.5969-4.092-8.683-11.877-22.855-17.366-14.172-5.4893-27.047-6.5871-28.644-2.3953 0 0-0.099805 0.099805-0.099805 0.29942z" opacity=".1"/>
<path d="m63.276 2.8943c-0.099805 0.39922-0.099805 0.79844 0 1.1977 0 0 1.2975 8.4834-0.19961 12.276l-61.48 159.99c-4.3914 11.777 1.4971 24.851 13.274 29.343 11.777 4.4912 24.851-1.2975 29.542-12.975l61.48-159.99c1.1977-3.094 8.0842-9.1821 8.0842-9.1821 0.29942-0.29942 0.59883-0.59883 0.79844-0.89825v-0.099805c0-0.099805 0.099806-0.099805 0.099806-0.19961 1.5969-4.092-8.683-11.877-22.855-17.366-14.172-5.4893-27.047-6.5871-28.644-2.3953 0 0.099805 0 0.19961-0.099805 0.29942z" fill="url(#c)"/>
<path d="m82.639 75.253l-44.413 115.37c-3.2936 8.2838-12.775 12.575-21.258 9.2819-8.4834-3.2936-12.975-12.975-9.8807-21.258l28.345-73.756s3.4932-5.6889 10.48-9.7809 12.675-3.1938 20.36-6.5871c7.7848-3.3934 16.368-13.274 16.368-13.274z" fill="url(#b)"/>
<path d="m104.18 19.019c0.88466-2.3085-5.4829-6.9152-14.222-10.29-8.7395-3.3743-16.541-4.2383-17.426-1.9298-0.88465 2.3085 5.4829 6.9152 14.222 10.29 8.7395 3.3743 16.541 4.2383 17.426 1.9298z" fill="#333"/>
<path d="m62.863 4.0805s1.289 8.4595-0.19831 12.241l-61.078 159.54c-4.3627 11.744 1.4873 24.781 13.187 29.26 1.9831 0.79619 4.0653 1.2938 6.1475 1.3933-7.8331-5.9714-11.204-16.521-7.6347-26.274l59.888-156.35s-8.2297-7.6633-10.312-19.805z" fill="#fff" opacity=".3"/>
<g transform="translate(25.78 104.5)" fill="#fff" opacity=".5">
<ellipse cx="17.451" cy="2.4881" rx="1.7847" ry="1.7914"/>
<ellipse cx="29.052" cy="15.327" rx="2.6771" ry="2.6871"/>
<ellipse cx="11.303" cy="30.653" rx="5.0568" ry="5.0757"/>
<ellipse cx="3.1729" cy="40.009" rx="2.6771" ry="2.6871"/>
<ellipse cx="13.782" cy="59.913" rx="1.7847" ry="1.7914"/>
</g>
</g>
<path d="m120.46 97.135c2.6947 2.1895 7.5852 0.89571 10.879-2.6871 3.4932-3.7819 3.9922-8.6586 1.2975-10.848s-7.5852-0.89571-10.879 2.8862c-3.4932 3.7819-4.092 8.559-1.2975 10.649zm-8.0842 7.0662c-0.69864 0-1.9961 1.2938-0.89825 1.7914 1.4971 0.49762 2.1957 1.7914 2.1957 3.5829-1.2975 7.4643-10.579 15.924-14.172 18.81-0.89825 0.89572 0.39922 2.8862 1.2975 2.1895 1.9961-1.5924 6.1879-4.8767 9.5813-9.2557-5.5891 12.44-16.568 28.563-20.759 34.236-16.368 22.592-41.219 43.392-58.286 43.392-13.673 0-25.251-9.2557-27.746-22.791-0.19961-1.4929-2.1957-1.7914-1.7965 0.19905 3.094 18.611 17.466 25.876 34.832 25.876 19.063 0 41.419-13.734 53.795-27.867 19.961-22.791 32.836-49.065 29.442-63.894-1.3973-5.4738-5.2897-6.3695-7.4854-6.27zm122.66 49.662c5.2897-1.2938 9.5813-4.18 9.5813-8.7581 0-0.49762-0.89824-0.49762-0.89824 0 0 2.6871-3.094 4.9762-6.5871 5.4738-8.184 1.2938-24.352-8.2605-31.938-18.113 8.184 3.0852 24.851-1.3933 32.736-7.0662 7.2858-5.2748 10.18-11.047 10.679-15.725 0.89825-7.7629-7.5852-12.341-19.462-7.7629-7.5852 3.0852-16.667 9.7533-26.149 22.293 9.9805-16.421 29.642-43.293 48.904-60.411 23.454-20.8 37.028-16.82 15.969 5.2748-8.683 9.0567-25.051 20.8-36.329 25.876-3.4932 1.4929-1.7965 3.4833 0.69864 2.3886 11.977-5.2748 27.945-16.123 37.627-25.18 28.544-27.369 4.6908-47.97-26.848-19.009-21.458 19.706-35.431 40.307-47.607 67.079-4.1918 5.0757-7.2858 9.2557-11.078 12.44-0.49902 0.3981-0.79844 0.79619-1.0979 1.1943-10.48 8.9571-26.947 21.099-37.227 21.199-7.2858 0.19905-10.38-5.2748-9.0823-12.341 1.9961-11.047 13.474-24.085 23.255-28.563 12.675-5.7724 20.161 5.4738 3.4932 14.431-6.3875 3.2843-13.973 5.0757-17.067 5.0757-3.593 0-3.2936 1.4929-0.19961 1.5924 5.0901 0.19905 13.274-1.9905 18.664-4.4786 17.067-8.161 18.165-23.388-0.39922-23.886-20.161-0.69667-44.313 16.421-44.114 38.018 0.19961 9.7533 7.9844 15.028 18.664 15.028 17.865-0.19905 33.734-13.734 46.809-25.677 1.8963-1.5924 3.6928-3.2843 5.4893-5.0757-4.591 11.545-6.8866 22.293-5.7887 30.255 0.69864 5.7724 3.9922 8.4595 6.5871 10.649 0.49903 0.3981 1.5969 0 0.89825-1.0948-3.7926-4.4786-2.6947-17.914 2.4951-30.952 4.3914 8.7581 21.458 19.805 39.323 15.824zm-21.458-37.72c20.859-18.611 29.043-1.9905 15.769 8.161-6.8866 5.2748-20.56 9.2557-24.851 6.6681l-0.89825-0.49762c-0.49902-0.89571-1.0979-1.7914-1.4971-2.6871 3.4932-4.2795 7.4854-8.0614 11.478-11.644zm115.97-21.199c8.3836 0.89571 4.8904-9.2557-3.593-6.6681-3.7926 1.0948-7.4854 8.36-10.18 14.63-8.3836 12.44-22.356 29.459-32.137 38.416-8.683 7.4643-16.667 9.4548-6.8866-4.4786 3.9922-5.5733 9.0823-11.545 11.977-17.516 6.8866-15.028-7.7848-21.696-19.662-12.64-6.8866 5.2748-16.168 16.123-23.454 22.094-1.9961 1.5924-1.4971 3.981 0.49902 2.3886 5.7887-4.6776 15.969-15.426 24.752-21.696 7.2858-5.5733 10.18-1.9905 5.9883 2.6871-5.7887 6.6681-15.969 18.312-18.564 25.677-3.593 11.047 0.69864 15.924 7.9844 15.924 9.9805 0 24.851-15.526 34.832-27.867 3.2936-4.18 6.8866-9.0567 9.9805-13.734-8.683 16.82-17.765 33.838-29.043 49.264-15.969 21.696-35.93 38.018-54.893 38.018-13.673 0-25.45-9.2557-27.945-22.791-0.19961-1.4929-1.9961-1.7914-1.7965 0.19905 3.094 18.611 17.466 25.876 34.832 25.876 19.063 0 37.427-11.047 50.302-24.582 25.949-27.369 29.043-58.122 37.028-75.34 3.7926-7.8624 7.186-8.161 9.9805-7.8624zm105.59-26.274c3.7926-6.469 3.593-11.545-5.2897-11.545-6.6869 0.19905-18.863 4.8767-24.552 9.2557-1.2975 1.2938-0.69864 1.9905 0.89825 1.2938 1.0979-0.3981 2.3953-1.0948 3.593-1.5924 6.3875-3.4833 3.7926 3.7819 2.3953 6.469-7.5852 13.237-21.059 31.848-28.145 41.103-3.3934 4.5781-7.186 9.0567-10.879 12.938-6.7867 6.469-20.26 17.914-30.54 21.696-33.035 12.341 9.0823-43.79 12.575-48.369 7.7848-9.7533 25.251-26.772 30.54-35.331 3.7926-6.469 3.593-11.545-5.2897-11.545-6.6869 0.19905-18.863 4.8767-24.552 9.2557-1.2975 1.2938-0.69864 1.9905 0.89825 1.2938 1.0979-0.3981 2.3953-1.0948 3.593-1.5924 6.3875-3.4833 3.7926 3.7819 2.3953 6.469-7.5852 13.237-21.059 31.848-28.145 41.103-5.7887 7.7629-12.875 15.526-18.364 19.905-2.1957 1.7914-0.89824 3.4833 1.2975 1.9905 1.9961-1.2938 4.8904-4.18 8.184-7.5638-5.9883 11.943-10.879 28.762 4.8904 30.753 13.474 1.7914 29.442-11.843 39.822-21.995 1.0979-1.0948 2.3953-2.3886 3.6928-3.6824 0.29942-0.29857 0.59883-0.59714 0.89824-0.89571-5.9883 11.943-10.879 28.762 4.8904 30.753 17.266 2.3886 38.724-20.8 47.008-29.36 1.5969-1.5924 1.0979-4.379-1.5969-1.5924-4.8904 5.0757-21.458 20.104-33.435 24.582-33.035 12.341 9.0823-43.79 12.575-48.369 7.8846-9.9524 25.35-26.971 30.64-35.43z" opacity=".1"/>
<path d="m118.67 95.443c2.6947 2.1895 7.5852 0.89571 10.879-2.6871 3.4932-3.7819 3.9922-8.6586 1.2975-10.848-2.6947-2.1895-7.5852-0.89571-10.879 2.8862-3.4932 3.7819-3.9922 8.4595-1.2975 10.649zm-7.9844 7.0662c-0.69864 0-1.9961 1.2938-0.89825 1.7914 1.4971 0.49762 2.1957 1.7914 2.1957 3.5829-1.2975 7.4643-10.579 15.924-14.172 18.81-0.89825 0.89571 0.39922 2.8862 1.2975 2.1895 1.9961-1.5924 6.1879-4.8767 9.5813-9.2557-5.5891 12.44-16.568 28.563-20.759 34.236-16.368 22.592-41.219 43.392-58.286 43.392-13.673 0-25.251-9.2557-27.746-22.791-0.19961-1.4929-2.1957-1.7914-1.7965 0.19905 3.094 18.611 17.466 25.876 34.832 25.876 19.063 0 41.419-13.734 53.795-27.867 19.961-22.791 32.836-49.065 29.442-63.894-1.4971-5.5733-5.2897-6.469-7.4854-6.27zm122.56 49.662c5.2897-1.2938 9.5813-4.18 9.5813-8.7581 0-0.49762-0.89825-0.49762-0.89825 0 0 2.6871-3.094 4.9762-6.5871 5.4738-8.184 1.2938-24.352-8.2605-31.938-18.113 8.184 3.0852 24.851-1.3933 32.736-7.0662 7.2858-5.2748 10.18-11.047 10.679-15.725 0.89824-7.7629-7.5852-12.341-19.462-7.7629-7.5852 3.0852-16.667 9.7533-26.149 22.293 9.9805-16.421 29.642-43.293 48.904-60.411 23.454-20.8 37.028-16.82 15.969 5.2748-8.683 9.0567-25.051 20.8-36.329 25.876-3.4932 1.4929-1.7965 3.4833 0.69864 2.3886 11.977-5.2748 27.945-16.123 37.627-25.18 28.544-27.369 4.6908-47.97-26.848-19.009-21.458 19.606-35.431 40.307-47.607 67.079-4.1918 5.0757-7.2858 9.2557-11.078 12.44-0.49903 0.3981-0.79844 0.79619-1.0979 1.1943-10.48 8.9571-26.947 21.099-37.227 21.199-7.2858 0.19905-10.38-5.2748-9.0823-12.341 1.9961-11.047 13.474-24.085 23.255-28.563 12.675-5.7724 20.161 5.4738 3.4932 14.431-6.3875 3.2843-13.973 5.0757-17.067 5.0757-3.593 0-3.2936 1.4929-0.19961 1.5924 5.0901 0.19905 13.274-1.9905 18.664-4.4786 17.067-8.161 18.165-23.388-0.39922-23.886-20.161-0.69667-44.313 16.421-44.114 38.018 0.19961 9.7533 7.9844 15.028 18.664 15.028 17.865-0.19905 33.734-13.734 46.809-25.677 1.8963-1.5924 3.6928-3.2843 5.4893-5.0757-4.591 11.545-6.8866 22.293-5.7887 30.255 0.69864 5.7724 3.9922 8.4595 6.5871 10.649 0.49903 0.3981 1.5969 0 0.89825-1.0948-3.7926-4.4786-2.6947-17.914 2.4951-30.952 4.4912 8.7581 21.558 19.805 39.323 15.824zm-21.458-37.819c20.859-18.611 29.043-1.9905 15.769 8.161-6.8866 5.2748-20.56 9.2557-24.851 6.6681l-0.89825-0.49762c-0.49902-0.89572-1.0979-1.7914-1.4971-2.6871 3.4932-4.18 7.4854-8.0614 11.478-11.644zm115.97-21.099c8.3836 0.89571 4.8904-9.2557-3.593-6.6681-3.7926 1.0948-7.4854 8.36-10.18 14.63-8.3836 12.44-22.356 29.459-32.137 38.416-8.683 7.4643-16.667 9.4548-6.8866-4.4786 3.9922-5.5733 9.0823-11.545 11.977-17.516 6.8866-15.028-7.7848-21.696-19.662-12.64-6.8866 5.2748-16.168 16.123-23.454 22.094-1.9961 1.5924-1.4971 3.981 0.49902 2.3886 5.7887-4.6776 15.969-15.426 24.752-21.696 7.2858-5.5733 10.18-1.9905 5.9883 2.6871-5.7887 6.6681-15.969 18.312-18.564 25.677-3.593 11.047 0.69864 15.924 7.9844 15.924 9.9805 0 24.851-15.526 34.832-27.867 3.2936-4.18 6.8865-9.0567 9.9805-13.734-8.683 16.82-17.765 33.838-29.043 49.264-15.969 21.696-35.93 38.018-54.893 38.018-13.673 0-25.45-9.2557-27.945-22.791-0.19961-1.4929-1.9961-1.7914-1.7965 0.19905 3.094 18.611 17.466 25.876 34.832 25.876 19.063 0 37.427-11.047 50.302-24.582 25.949-27.369 29.043-58.122 37.028-75.34 3.7926-7.8624 7.2858-8.2605 9.9805-7.8624zm105.59-26.374c3.7926-6.469 3.593-11.545-5.2897-11.545-6.6869 0.19905-18.863 4.8767-24.552 9.2557-1.2975 1.2938-0.69864 1.9905 0.89824 1.2938 1.0979-0.3981 2.3953-1.0948 3.593-1.5924 6.3875-3.4833 3.7926 3.7819 2.3953 6.469-7.5852 13.237-21.059 31.848-28.145 41.103-3.3934 4.5781-7.186 9.0567-10.879 12.938-6.7867 6.469-20.26 17.914-30.54 21.696-33.035 12.341 9.0823-43.79 12.575-48.369 7.7848-9.7533 25.251-26.772 30.54-35.331 3.7926-6.469 3.593-11.545-5.2897-11.545-6.6869 0.19905-18.863 4.8767-24.552 9.2557-1.2975 1.2938-0.69864 1.9905 0.89825 1.2938 1.0979-0.3981 2.3953-1.0948 3.593-1.5924 6.3875-3.4833 3.7926 3.7819 2.3953 6.469-7.5852 13.237-21.059 31.848-28.145 41.103-5.7887 7.7629-12.875 15.526-18.364 19.905-2.1957 1.7914-0.89825 3.4833 1.2975 1.9905 1.9961-1.2938 4.8904-4.18 8.184-7.5638-5.9883 11.943-10.879 28.762 4.8904 30.753 13.474 1.7914 29.442-11.843 39.822-21.995 1.0979-1.0948 2.3953-2.3886 3.6928-3.6824 0.29942-0.29857 0.59883-0.59714 0.89824-0.89572-5.9883 11.943-10.879 28.762 4.8904 30.753 17.266 2.3886 38.724-20.8 47.008-29.36 1.5969-1.5924 1.0979-4.379-1.5969-1.5924-4.8904 5.0757-21.458 20.104-33.435 24.582-33.035 12.341 9.0823-43.79 12.575-48.369 7.9844-9.9524 25.35-26.971 30.64-35.43z" fill="url(#a)"/>
</svg>
