<svg preserveAspectRatio="xMidYMid" viewBox="0 0 512 209" xmlns="http://www.w3.org/2000/svg">
    <defs>
        <linearGradient id="a" x1="23.962%" x2="68.784%" y1="46.043%" y2="55.602%">
            <stop stop-color="#919191" offset="0"/>
            <stop stop-color="#fff" offset="1"/>
        </linearGradient>
        <linearGradient id="b" x1="26.427%" x2="67.132%" y1="42.381%" y2="51.906%">
            <stop stop-color="#900" offset="0"/>
            <stop stop-color="#E80000" offset="1"/>
        </linearGradient>
        <linearGradient id="c" x1="50%" x2="50%" y1="99.822%" y2="-.044%">
            <stop stop-color="#1A1A1A" offset="0"/>
            <stop stop-color="#4A4A4C" offset=".403"/>
            <stop stop-color="#333" offset="1"/>
        </linearGradient>
    </defs>
    <path d="M459.303 4.292c-.1.399-.1.798 0 1.197 0 0 1.298 8.484-.2 12.276l-61.48 159.99c-4.391 11.777 1.497 24.851 13.274 29.343 11.777 4.491 24.851-1.297 29.542-12.975l61.48-159.99c1.198-3.094 8.085-9.182 8.085-9.182.299-.3.598-.599.798-.898v-.1c0-.1.1-.1.1-.2 1.597-4.091-8.683-11.876-22.855-17.365C473.875.898 461-.2 459.403 3.992c0 0-.1.1-.1.3z" opacity=".1"/>
    <path d="M63.276 2.894c-.1.4-.1.799 0 1.198 0 0 1.298 8.483-.2 12.276l-61.48 159.99c-4.391 11.777 1.497 24.851 13.274 29.343 11.777 4.491 24.851-1.298 29.542-12.975l61.48-159.99c1.198-3.094 8.085-9.182 8.085-9.182.299-.3.598-.599.798-.898v-.1c0-.1.1-.1.1-.2 1.597-4.092-8.683-11.877-22.855-17.366C77.848-.5 64.973-1.597 63.376 2.595c0 .1 0 .2-.1.3z" fill="url(#a)" transform="translate(394.23)"/>
    <path d="M82.639 75.253l-44.413 115.37c-3.294 8.284-12.775 12.575-21.258 9.282-8.483-3.294-12.975-12.975-9.88-21.258l28.344-73.756s3.493-5.689 10.48-9.781 12.675-3.194 20.36-6.587c7.785-3.394 16.368-13.274 16.368-13.274z" fill="url(#b)" transform="translate(394.23)"/>
    <path d="M498.41 19.019c.885-2.308-5.483-6.915-14.222-10.29-8.74-3.374-16.541-4.238-17.426-1.93-.885 2.309 5.483 6.915 14.222 10.29 8.74 3.374 16.541 4.238 17.426 1.93z" fill="#333"/>
    <path d="M457.093 4.08s1.289 8.46-.198 12.241l-61.078 159.54c-4.363 11.744 1.487 24.781 13.187 29.26 1.983.797 4.065 1.294 6.147 1.394a23.035 23.035 0 0 1-7.635-26.274l59.888-156.35s-8.23-7.664-10.312-19.805z" fill="#fff" opacity=".3"/>
    <g transform="translate(420.01 104.5)" fill="#fff" opacity=".5">
        <ellipse cx="17.451" cy="2.488" rx="1.785" ry="1.791"/>
        <ellipse cx="29.052" cy="15.327" rx="2.677" ry="2.687"/>
        <ellipse cx="11.303" cy="30.653" rx="5.057" ry="5.076"/>
        <ellipse cx="3.173" cy="40.009" rx="2.677" ry="2.687"/>
        <ellipse cx="13.782" cy="59.913" rx="1.785" ry="1.791"/>
    </g>
    <path d="M120.46 97.135c2.695 2.19 7.585.896 10.879-2.687 3.493-3.782 3.992-8.659 1.298-10.848s-7.586-.896-10.88 2.886c-3.493 3.782-4.091 8.56-1.297 10.65zm-8.084 7.066c-.699 0-1.996 1.294-.898 1.792 1.497.497 2.195 1.791 2.195 3.583-1.297 7.464-10.579 15.923-14.172 18.81-.898.895.4 2.886 1.298 2.189 1.996-1.592 6.188-4.877 9.581-9.256-5.589 12.44-16.568 28.563-20.759 34.236-16.368 22.592-41.219 43.392-58.286 43.392-13.673 0-25.251-9.255-27.746-22.79-.2-1.494-2.196-1.792-1.796.198 3.094 18.611 17.466 25.876 34.832 25.876 19.063 0 41.419-13.734 53.795-27.867 19.96-22.79 32.836-49.065 29.442-63.894-1.398-5.473-5.29-6.37-7.486-6.27zm122.66 49.662c5.29-1.294 9.581-4.18 9.581-8.758 0-.498-.898-.498-.898 0 0 2.687-3.094 4.976-6.587 5.474-8.184 1.294-24.352-8.26-31.938-18.113 8.184 3.085 24.85-1.393 32.736-7.066 7.286-5.275 10.18-11.047 10.679-15.725.898-7.763-7.585-12.341-19.462-7.763-7.585 3.085-16.667 9.753-26.15 22.293 9.981-16.421 29.643-43.293 48.905-60.411 23.454-20.8 37.028-16.82 15.969 5.275-8.683 9.056-25.051 20.8-36.33 25.876-3.492 1.493-1.796 3.483.7 2.388 11.976-5.275 27.944-16.123 37.626-25.18 28.544-27.369 4.691-47.97-26.848-19.009-21.458 19.706-35.43 40.307-47.607 67.08-4.191 5.075-7.285 9.255-11.078 12.44-.499.397-.798.795-1.097 1.194-10.48 8.957-26.947 21.098-37.227 21.198-7.286.2-10.38-5.274-9.083-12.34 1.996-11.048 13.474-24.086 23.255-28.564 12.675-5.772 20.161 5.474 3.493 14.431-6.387 3.285-13.973 5.076-17.067 5.076-3.593 0-3.293 1.493-.2 1.593 5.09.199 13.275-1.99 18.665-4.479 17.067-8.161 18.165-23.388-.4-23.886-20.16-.697-44.312 16.421-44.113 38.018.2 9.753 7.984 15.028 18.664 15.028 17.865-.199 33.734-13.734 46.809-25.677 1.896-1.592 3.692-3.284 5.489-5.076-4.591 11.545-6.887 22.293-5.789 30.255.699 5.773 3.992 8.46 6.587 10.65.5.397 1.597 0 .899-1.096-3.793-4.478-2.695-17.914 2.495-30.952 4.391 8.759 21.458 19.805 39.323 15.824zm-21.458-37.72c20.859-18.61 29.043-1.99 15.769 8.161-6.887 5.275-20.56 9.256-24.851 6.668l-.898-.497c-.5-.896-1.098-1.792-1.498-2.687 3.494-4.28 7.486-8.062 11.478-11.644zm115.97-21.199c8.383.896 4.89-9.255-3.593-6.668-3.793 1.095-7.486 8.36-10.18 14.63-8.384 12.44-22.356 29.46-32.137 38.416-8.683 7.464-16.667 9.455-6.887-4.478 3.992-5.574 9.083-11.545 11.977-17.516 6.887-15.028-7.785-21.696-19.662-12.64-6.886 5.274-16.168 16.123-23.454 22.094-1.996 1.592-1.497 3.98.5 2.388 5.788-4.677 15.968-15.426 24.751-21.696 7.286-5.573 10.18-1.99 5.989 2.687-5.79 6.668-15.97 18.312-18.564 25.677-3.593 11.047.698 15.924 7.984 15.924 9.98 0 24.85-15.526 34.832-27.867 3.294-4.18 6.887-9.056 9.98-13.734-8.683 16.82-17.765 33.838-29.043 49.264-15.969 21.696-35.93 38.018-54.893 38.018-13.673 0-25.45-9.255-27.945-22.79-.2-1.494-1.996-1.792-1.796.198 3.094 18.611 17.466 25.876 34.832 25.876 19.063 0 37.427-11.047 50.302-24.582 25.949-27.369 29.043-58.122 37.028-75.34 3.793-7.862 7.186-8.16 9.98-7.862zm105.59-26.274c3.792-6.469 3.593-11.545-5.29-11.545-6.687.2-18.863 4.877-24.552 9.256-1.297 1.294-.699 1.99.898 1.294 1.098-.398 2.396-1.095 3.593-1.593 6.388-3.483 3.793 3.782 2.396 6.47-7.586 13.236-21.06 31.847-28.145 41.102a140.63 140.63 0 0 1-10.88 12.938c-6.786 6.47-20.26 17.914-30.54 21.696-33.034 12.341 9.083-43.79 12.576-48.369 7.784-9.753 25.25-26.772 30.54-35.33 3.792-6.47 3.593-11.546-5.29-11.546-6.687.2-18.863 4.877-24.552 9.256-1.298 1.294-.699 1.99.898 1.294 1.098-.398 2.396-1.095 3.593-1.593 6.388-3.483 3.793 3.782 2.396 6.47-7.586 13.236-21.06 31.847-28.145 41.102-5.79 7.763-12.875 15.526-18.364 19.905-2.196 1.792-.899 3.484 1.297 1.99 1.996-1.293 4.89-4.18 8.184-7.563-5.988 11.943-10.879 28.762 4.89 30.753 13.474 1.792 29.442-11.843 39.822-21.995l3.693-3.682.898-.896c-5.988 11.943-10.879 28.762 4.89 30.753 17.267 2.389 38.725-20.8 47.009-29.36 1.597-1.592 1.098-4.379-1.597-1.592-4.89 5.075-21.458 20.104-33.435 24.582-33.035 12.34 9.082-43.79 12.575-48.37 7.885-9.952 25.35-26.97 30.64-35.43z" opacity=".1"/>
    <path d="M118.67 95.443c2.695 2.19 7.585.896 10.879-2.687 3.493-3.782 3.992-8.659 1.298-10.848-2.695-2.19-7.586-.896-10.88 2.886-3.493 3.782-3.992 8.46-1.297 10.65zm-7.984 7.066c-.699 0-1.996 1.294-.899 1.792 1.497.497 2.196 1.791 2.196 3.582-1.297 7.465-10.579 15.924-14.172 18.81-.898.896.4 2.887 1.298 2.19 1.996-1.592 6.187-4.877 9.58-9.256-5.588 12.44-16.567 28.563-20.758 34.236-16.368 22.592-41.22 43.392-58.286 43.392-13.673 0-25.251-9.255-27.746-22.79-.2-1.494-2.196-1.792-1.797.198 3.094 18.611 17.466 25.876 34.832 25.876 19.063 0 41.42-13.734 53.795-27.867 19.961-22.79 32.836-49.065 29.442-63.894-1.497-5.573-5.29-6.469-7.485-6.27zm122.56 49.662c5.29-1.294 9.58-4.18 9.58-8.758 0-.498-.897-.498-.897 0 0 2.687-3.094 4.976-6.587 5.474-8.184 1.294-24.352-8.26-31.938-18.113 8.184 3.085 24.85-1.393 32.736-7.066 7.285-5.275 10.18-11.047 10.679-15.725.898-7.763-7.586-12.341-19.462-7.763-7.586 3.085-16.667 9.753-26.15 22.293 9.981-16.421 29.643-43.293 48.905-60.411 23.454-20.8 37.028-16.82 15.969 5.275-8.683 9.056-25.051 20.8-36.33 25.876-3.493 1.493-1.796 3.483.7 2.388 11.976-5.275 27.944-16.123 37.626-25.18 28.544-27.369 4.691-47.97-26.848-19.009-21.458 19.606-35.43 40.307-47.607 67.08-4.192 5.075-7.286 9.255-11.078 12.44-.499.397-.798.795-1.098 1.193-10.48 8.958-26.947 21.1-37.227 21.2-7.286.199-10.38-5.275-9.082-12.342 1.996-11.047 13.474-24.085 23.255-28.563 12.675-5.772 20.161 5.474 3.493 14.431-6.387 3.285-13.973 5.076-17.067 5.076-3.593 0-3.293 1.493-.2 1.593 5.09.199 13.275-1.99 18.665-4.479 17.067-8.161 18.165-23.388-.4-23.886-20.16-.697-44.313 16.421-44.114 38.018.2 9.753 7.985 15.028 18.664 15.028 17.865-.2 33.734-13.734 46.81-25.677 1.896-1.592 3.692-3.284 5.489-5.076-4.591 11.545-6.887 22.293-5.789 30.255.699 5.773 3.992 8.46 6.587 10.65.5.397 1.597 0 .898-1.095-3.792-4.48-2.694-17.914 2.495-30.952 4.492 8.758 21.558 19.805 39.323 15.824zm-21.458-37.819c20.859-18.61 29.043-1.99 15.769 8.161-6.887 5.275-20.56 9.256-24.851 6.668l-.899-.497c-.499-.896-1.098-1.792-1.497-2.687 3.493-4.18 7.486-8.062 11.478-11.644zm115.97-21.099c8.383.896 4.89-9.256-3.593-6.668-3.793 1.095-7.486 8.36-10.18 14.63-8.384 12.44-22.356 29.46-32.137 38.416-8.683 7.464-16.667 9.455-6.887-4.478 3.992-5.574 9.082-11.545 11.977-17.516 6.887-15.028-7.785-21.696-19.662-12.64-6.887 5.274-16.168 16.123-23.454 22.094-1.996 1.592-1.497 3.98.499 2.388 5.789-4.677 15.969-15.426 24.752-21.696 7.286-5.573 10.18-1.99 5.988 2.687-5.788 6.668-15.969 18.312-18.564 25.677-3.593 11.047.699 15.924 7.985 15.924 9.98 0 24.85-15.526 34.832-27.867 3.293-4.18 6.886-9.056 9.98-13.734-8.683 16.82-17.765 33.838-29.043 49.264-15.969 21.696-35.93 38.018-54.893 38.018-13.673 0-25.45-9.255-27.945-22.79-.2-1.494-1.996-1.792-1.796.198 3.094 18.611 17.466 25.876 34.832 25.876 19.063 0 37.427-11.047 50.302-24.582 25.949-27.369 29.043-58.122 37.028-75.34 3.792-7.862 7.286-8.26 9.98-7.862zm105.59-26.374c3.792-6.469 3.593-11.545-5.29-11.545-6.687.2-18.863 4.877-24.552 9.256-1.298 1.294-.699 1.99.898 1.294 1.098-.398 2.395-1.095 3.593-1.593 6.388-3.483 3.793 3.782 2.395 6.47-7.585 13.236-21.059 31.847-28.145 41.102a140.63 140.63 0 0 1-10.879 12.938c-6.786 6.47-20.26 17.914-30.54 21.696-33.035 12.341 9.083-43.79 12.575-48.369 7.785-9.753 25.251-26.772 30.54-35.33 3.793-6.47 3.593-11.546-5.29-11.546-6.686.2-18.862 4.877-24.551 9.256-1.298 1.294-.699 1.99.898 1.294 1.098-.398 2.395-1.095 3.593-1.593 6.387-3.483 3.793 3.782 2.395 6.47-7.585 13.236-21.059 31.847-28.145 41.102-5.788 7.763-12.875 15.526-18.364 19.905-2.195 1.792-.898 3.484 1.298 1.99 1.996-1.293 4.89-4.18 8.184-7.563-5.989 11.943-10.88 28.762 4.89 30.753 13.474 1.792 29.442-11.843 39.822-21.995l3.693-3.682.898-.896c-5.988 11.943-10.879 28.762 4.89 30.753 17.267 2.389 38.725-20.8 47.009-29.36 1.597-1.592 1.098-4.379-1.597-1.592-4.89 5.075-21.458 20.104-33.435 24.582-33.035 12.34 9.082-43.79 12.575-48.37 7.984-9.952 25.35-26.97 30.64-35.43z" fill="url(#c)"/>
</svg>
