<svg width="100" height="100" version="1.1" viewBox="0 0 100 100" xmlns="http://www.w3.org/2000/svg">
	<path d="m57.4 26.9v-26.9h-15v26.9l7.5 10.3z" fill="#fff"/>
	<path d="m42.4 73.1v26.9h15v-26.9l-7.5-10.3z" fill="#fff"/>
	<path d="m57.4 73.1 15.8 21.8 12.2-8.9-15.9-21.7-12.1-4z" fill="#00F2E6"/>
	<path d="m42.4 26.9-15.8-21.8-12.2 8.9l15.9 21.7 12.1 4z" fill="#00F2E6"/>
	<path d="m30.3 35.7-25.6-8.3-4.7 14.3 25.6 8.3 12.2-3.9z" fill="#00B9F1"/>
	<path d="m62 53.9 7.5 10.4 25.6 8.3 4.7-14.3-25.6-8.3z" fill="#00B9F1"/>
	<path d="m74.2 50 25.6-8.3-4.7-14.3-25.6 8.3-7.5 10.4z" fill="#D63AFF"/>
	<path d="m25.6 50-25.6 8.3 4.7 14.3 25.6-8.3 7.5-10.4z" fill="#D63AFF"/>
	<path d="m30.3 64.3-15.9 21.7 12.2 8.9 15.8-21.8v-12.8z" fill="#FB015B"/>
	<path d="m69.5 35.7 15.9-21.7-12.2-8.9-15.8 21.8v12.8z" fill="#FB015B"/>
</svg>
