<svg width="100" height="100" viewBox="0 0 100 100" xmlns="http://www.w3.org/2000/svg">
    <path d="M57.4 26.9V0h-15v26.9l7.5 10.3zM42.4 73.1V100h15V73.1l-7.5-10.3z" fill="#fff"/>
    <path d="M57.4 73.1l15.8 21.8L85.4 86 69.5 64.3l-12.1-4zM42.4 26.9L26.6 5.1 14.4 14l15.9 21.7 12.1 4z" fill="#00F2E6"/>
    <path d="M30.3 35.7L4.7 27.4 0 41.7 25.6 50l12.2-3.9zM62 53.9l7.5 10.4 25.6 8.3 4.7-14.3L74.2 50z" fill="#00B9F1"/>
    <path d="M74.2 50l25.6-8.3-4.7-14.3-25.6 8.3L62 46.1zM25.6 50L0 58.3l4.7 14.3 25.6-8.3 7.5-10.4z" fill="#D63AFF"/>
    <path d="M30.3 64.3L14.4 86l12.2 8.9 15.8-21.8V60.3zM69.5 35.7L85.4 14 73.2 5.1 57.4 26.9v12.8z" fill="#FB015B"/>
</svg>
