<svg xmlns="http://www.w3.org/2000/svg" height="48" width="48" version="1" viewBox="0 0 100 100"><defs><linearGradient id="a" y2="15.3" gradientUnits="userSpaceOnUse" y1="84.508" x2="81.182" x1="9.512"><stop stop-color="#226e23" offset="0"/><stop stop-color="#63ab3a" offset="1"/></linearGradient></defs><path d="M.13.13h65.105c-8.33.847-16.16 5.37-20.92 12.258-3.913 5.394-5.508 12.085-5.612 18.67C32.23 24.244 25.538 17.64 18.958 10.93c-6.276.08-12.55.194-18.828.256V.13z" stroke="#FFF" stroke-miterlimit="10" stroke-width=".09974" fill="none"/><path d="M65.235.13h5.01c9.473 1.36 17.982 7.364 22.44 15.82 4.502 9.57 4.25 21.375-1.58 30.33-5.223 8.528-15.1 13.727-25.077 13.415 1.496 1.55 2.97 3.123 4.458 4.684 3.708 3.89 7.328 7.864 11.036 11.756-.047 6.44-.174 12.877-.218 19.316-7.008.105-14.017-.104-21.024.076-4.272-4.458-8.553-8.91-12.73-13.456-1.647-1.784-3.333-3.533-5.005-5.292.08 2.7.166 5.4.258 8.1-3.905.02-7.81.004-11.714.01-2.833 3.22-5.664 6.442-8.46 9.695-6.097.134-12.197.006-18.296.08a74.933 74.933 0 0 1-4.204-.26V73.732c5.88-7.096 12.9-13.208 19.217-19.928C13.02 46.552 5.99 39.86.13 32.24V11.187c6.276-.062 12.552-.175 18.827-.256 6.58 6.71 13.272 13.313 19.746 20.125.104-6.584 1.7-13.275 5.61-18.67C49.076 5.5 56.906.978 65.235.13z" stroke="#000" stroke-miterlimit="10" stroke-width=".09974" fill="none"/><path d="M65.235.13h5.01c9.473 1.36 17.982 7.364 22.44 15.82 4.502 9.57 4.25 21.375-1.58 30.33-5.223 8.528-15.1 13.727-25.077 13.415 1.496 1.55 2.97 3.123 4.458 4.684 3.708 3.89 7.328 7.864 11.036 11.756-.047 6.44-.174 12.877-.218 19.316-7.008.105-14.017-.104-21.024.076-4.272-4.458-8.553-8.91-12.73-13.456-1.647-1.784-3.333-3.533-5.005-5.292.08 2.7.166 5.4.258 8.1-3.905.02-7.81.004-11.714.01-2.833 3.22-5.664 6.442-8.46 9.695-6.097.134-12.197.006-18.296.08a74.933 74.933 0 0 1-4.204-.26V73.732c5.88-7.096 12.9-13.208 19.217-19.928C13.02 46.552 5.99 39.86.13 32.24V11.187c6.276-.062 12.552-.175 18.827-.256 6.58 6.71 13.272 13.313 19.746 20.125.104-6.584 1.7-13.275 5.61-18.67C49.076 5.5 56.906.978 65.235.13z"/><path d="M70.246.13H99.87v29.86c-1.727-4.88-2.483-11.013-7.186-14.04C88.227 7.495 79.718 1.49 70.246.13z" stroke="#FFF" stroke-miterlimit="10" stroke-width=".09974" fill="none"/><path d="M50.15 10.25C56.448 3.9 66.426 1.424 74.88 4.5c12.84 4.193 20.296 19.61 16.05 32.343-2.958 11.164-14.224 19.72-25.902 18.377-2.907.398-5.478-2.092-8.332-1.195.747 1.28 1.7 2.418 2.738 3.472 6.146 6.495 12.27 13.013 18.296 19.62-.126 4.678-.098 9.36-.247 14.038-5.28-.013-10.558-.073-15.837-.02C54.483 83.9 47.672 76.326 40.603 69l-2.164.044c.217 3.86.32 7.726.43 11.59-3.245.006-6.487-.023-9.73.035-2.61 3.303-5.63 6.256-8.226 9.57-5.65.22-11.307.05-16.96.095.005-5.554.022-11.107-.008-16.66 6.767-6.746 13.388-13.64 20.258-20.28C17.608 45.79 10.674 38.47 3.857 31.06a2058.69 2058.69 0 0 1-.246-17.087c4.55.038 9.102-.015 13.652-.047 7.533 7.59 14.987 15.26 22.51 22.86l2.853-2.86C41.25 25.452 43.89 16.243 50.15 10.25z" stroke="#FFF" stroke-miterlimit="10" stroke-width=".09974" fill="none"/><path fill="#FFF" d="M50.15 10.25C56.448 3.9 66.426 1.424 74.88 4.5c12.84 4.193 20.296 19.61 16.05 32.343-2.958 11.164-14.224 19.72-25.902 18.377-2.907.398-5.478-2.092-8.332-1.195.747 1.28 1.7 2.418 2.738 3.472 6.146 6.495 12.27 13.013 18.296 19.62-.126 4.678-.098 9.36-.247 14.038-5.28-.013-10.558-.073-15.837-.02C54.483 83.9 47.672 76.326 40.603 69l-2.164.044c.217 3.86.32 7.726.43 11.59-3.245.006-6.487-.023-9.73.035-2.61 3.303-5.63 6.256-8.226 9.57-5.65.22-11.307.05-16.96.095.005-5.554.022-11.107-.008-16.66 6.767-6.746 13.388-13.64 20.258-20.28C17.608 45.79 10.674 38.47 3.857 31.06a2058.69 2058.69 0 0 1-.246-17.087c4.55.038 9.102-.015 13.652-.047 7.533 7.59 14.987 15.26 22.51 22.86l2.853-2.86C41.25 25.452 43.89 16.243 50.15 10.25z"/><path d="M62 8.93c7.74-2.428 16.564 1.628 20.74 8.39 6.36 9.493 3.644 24.147-6.406 30.01-5.955 3.92-13.958 3.38-19.848-.394-2.383 3.135-5.575 5.67-7.633 9.02l.208.587c7.623 7.56 15.246 15.125 22.88 22.676-.178 2.07.463 4.357-.35 6.295-2.376.273-4.785.233-7.167.097-2.05-1.278-3.447-3.34-5.132-5.032-5.037-5.71-10.518-11.007-15.655-16.625-3.033.03-6.06.233-9.08.51-.088 3.47-.01 6.944-.084 10.416-2.96.32-6.035.322-8.88 1.26-2.894 2.96-5.716 5.99-8.56 8.995-2.772.082-5.544.077-8.315.02.275-2.73-1.075-6.265 1.528-8.202 7.81-7.66 14.996-15.94 22.914-23.486C25.553 44.863 17.105 37.014 9.24 28.64c-1.184-2.264-.307-5.08-.535-7.565 2.388.004 4.776-.008 7.164-.003 7.425 7.622 14.957 15.145 22.207 22.935.722.808 1.527 1.54 2.436 2.136 2.49-3.183 5.534-5.966 7.714-9.37-.664-3.83-1.97-7.734-.72-11.615 1.256-7.54 6.967-14.38 14.493-16.23z" stroke="#4C9138" stroke-miterlimit="10" stroke-width=".09974" fill="none"/><path fill="url(#a)" d="M62.03 8.822c7.76-2.433 16.61 1.633 20.796 8.412 6.377 9.52 3.653 24.21-6.423 30.09-5.97 3.93-13.995 3.387-19.9-.396-2.39 3.143-5.59 5.686-7.653 9.045l.21.587c7.64 7.58 15.283 15.165 22.938 22.735-.18 2.077.464 4.37-.352 6.313-2.382.273-4.797.233-7.185.097-2.054-1.28-3.455-3.35-5.145-5.045-5.05-5.726-10.546-11.036-15.696-16.668-3.042.03-6.077.233-9.104.51-.09 3.48-.01 6.963-.085 10.444-2.97.32-6.05.322-8.905 1.262-2.9 2.967-5.73 6.005-8.582 9.02-2.778.08-5.557.076-8.336.02.276-2.738-1.077-6.283 1.532-8.225 7.83-7.68 15.035-15.982 22.973-23.547C25.49 44.85 17.02 36.98 9.135 28.586c-1.188-2.27-.31-5.095-.538-7.586 2.395.004 4.79-.008 7.183-.003 7.446 7.642 14.997 15.184 22.266 22.995.724.81 1.53 1.544 2.442 2.14 2.498-3.19 5.55-5.98 7.735-9.394-.666-3.84-1.976-7.754-.723-11.645 1.26-7.558 6.986-14.418 14.53-16.27z" transform="translate(.13 .13) scale(.9974)"/><path d="M71.642 16.92c4.722.04 11.07 3.646 10.134 9.137 1.182 6.003-6.75 10.705-11.775 7.61-7.054-3.03-6.17-15.474 1.642-16.748z" stroke="#000" stroke-miterlimit="10" stroke-width=".09974" fill="none"/><path d="M71.642 16.92c4.722.04 11.07 3.646 10.134 9.137 1.182 6.003-6.75 10.705-11.775 7.61-7.054-3.03-6.17-15.474 1.642-16.748z"/><path d="M92.684 15.95c4.703 3.027 5.46 9.16 7.186 14.04v6.626c-.996 9.322-5.933 18.4-14.108 23.267-4.544 2.98-9.99 3.845-15.275 4.497-1.488-1.56-2.963-3.134-4.46-4.685 9.978.312 19.855-4.887 25.078-13.415 5.83-8.955 6.082-20.76 1.58-30.33z" stroke="#C7C7C7" stroke-miterlimit="10" stroke-width=".09974" fill="none"/><path fill="#C7C7C7" d="M92.684 15.95c4.703 3.027 5.46 9.16 7.186 14.04v6.626c-.996 9.322-5.933 18.4-14.108 23.267-4.544 2.98-9.99 3.845-15.275 4.497-1.488-1.56-2.963-3.134-4.46-4.685 9.978.312 19.855-4.887 25.078-13.415 5.83-8.955 6.082-20.76 1.58-30.33z"/><path d="M69.99 18.11c4.706-2.326 9.882 3.25 8.5 7.9-.804 4.02-6.13 6.95-9.555 3.994-4.443-2.656-3.57-9.937 1.056-11.895z" stroke="#FFF" stroke-miterlimit="10" stroke-width=".09974" fill="none"/><path fill="#FFF" d="M69.99 18.11c4.706-2.326 9.882 3.25 8.5 7.9-.804 4.02-6.13 6.95-9.555 3.994-4.443-2.656-3.57-9.937 1.056-11.895z"/><g fill="none" stroke-miterlimit="10" stroke-width=".1"><path d="M.13 32.24c5.862 7.62 12.89 14.312 19.218 21.564C13.03 60.524 6.008 66.636.13 73.732V32.24zM85.762 59.883c8.175-4.866 13.112-13.945 14.108-23.267V99.87H85.26c-.063-6.323.367-12.65.122-18.966-1.053-1.765-2.495-3.248-3.86-4.768-3.708-3.892-7.328-7.865-11.035-11.756 5.284-.652 10.73-1.517 15.275-4.497z" stroke="#FFF" stroke-width=".09974"/><path d="M81.522 76.136c1.365 1.52 2.807 3.003 3.86 4.768.245 6.316-.185 12.643-.123 18.966H64.206c-1.343-1.418-2.606-2.906-3.927-4.342 7.007-.18 14.016.03 21.024-.075.044-6.44.17-12.878.218-19.317z" stroke="#C7C7C7" stroke-width=".09974"/></g><path fill="#C7C7C7" d="M81.522 76.136c1.365 1.52 2.807 3.003 3.86 4.768.245 6.316-.185 12.643-.123 18.966H64.206c-1.343-1.418-2.606-2.906-3.927-4.342 7.007-.18 14.016.03 21.024-.075.044-6.44.17-12.878.218-19.317z"/><path d="M42.545 76.78c1.672 1.76 3.358 3.508 5.005 5.292-1.465 2.12-.62 4.876-1.152 7.273-3.703-.116-7.408-.066-11.113-.096-3.435 2.867-5.56 7.235-9.288 9.642-7.155.225-14.345.26-21.5-.06l-.163-4.165c6.1-.076 12.2.052 18.297-.082 2.796-3.253 5.627-6.475 8.46-9.694 3.903-.006 7.808.01 11.713-.01-.092-2.7-.177-5.4-.258-8.1z" stroke="#C7C7C7" stroke-miterlimit="10" stroke-width=".09974" fill="none"/><path fill="#C7C7C7" d="M42.545 76.78c1.672 1.76 3.358 3.508 5.005 5.292-1.465 2.12-.62 4.876-1.152 7.273-3.703-.116-7.408-.066-11.113-.096-3.435 2.867-5.56 7.235-9.288 9.642-7.155.225-14.345.26-21.5-.06l-.163-4.165c6.1-.076 12.2.052 18.297-.082 2.796-3.253 5.627-6.475 8.46-9.694 3.903-.006 7.808.01 11.713-.01-.092-2.7-.177-5.4-.258-8.1z"/><path d="M46.398 89.345c.533-2.397-.313-5.154 1.152-7.273 4.177 4.547 8.458 8.998 12.73 13.456 1.32 1.436 2.584 2.924 3.927 4.342H.13v-5.465c1.4.127 2.8.214 4.204.262.055 1.387.11 2.775.162 4.165 7.156.32 14.347.285 21.5.06 3.728-2.407 5.855-6.775 9.29-9.643 3.704.03 7.41-.02 11.113.095z" stroke="#FFF" stroke-miterlimit="10" stroke-width=".09974" fill="none"/></svg>