<!-- Created with Inkscape (http://www.inkscape.org/) -->
<svg xmlns:rdf="http://www.w3.org/1999/02/22-rdf-syntax-ns#" xmlns="http://www.w3.org/2000/svg" height="48" width="48" version="1.0" xmlns:cc="http://creativecommons.org/ns#" xmlns:xlink="http://www.w3.org/1999/xlink" viewBox="0 0 100 100" xmlns:dc="http://purl.org/dc/elements/1.1/">
<metadata>
<rdf:RDF>
<cc:Work rdf:about="">
<dc:format>image/svg+xml</dc:format>
<dc:type rdf:resource="http://purl.org/dc/dcmitype/StillImage"/>
<dc:title/>
</cc:Work>
</rdf:RDF>
</metadata>
<defs>
<linearGradient id="linearGradient3261" y2="15.3" gradientUnits="userSpaceOnUse" x2="81.182" y1="84.508" x1="9.5116">
<stop stop-color="#226e23" offset="0"/>
<stop stop-color="#63ab3a" offset="1"/>
</linearGradient>
</defs>
<g transform="matrix(0.997403, 0, 0, 0.997403, 0.12987, 0.12987)">
<path stroke-linejoin="miter" d="M0,0h65.275c-8.351,0.84961-16.201,5.3831-20.976,12.29-3.922,5.408-5.521,12.117-5.625,18.718-6.491-6.83-13.2-13.45-19.797-20.178-6.292,0.081-12.584,0.195-18.877,0.257v-11.087z" stroke="#FFF" stroke-linecap="butt" stroke-miterlimit="10" stroke-width="0.1" fill="none"/>
<path stroke-linejoin="miter" d="M65.275,0h5.024c9.497,1.3629,18.028,7.3833,22.496,15.862,4.515,9.593,4.261,21.43-1.583,30.408-5.236,8.551-15.139,13.763-25.142,13.45,1.5,1.555,2.979,3.132,4.47,4.697,3.717,3.902,7.347,7.885,11.064,11.787-0.047,6.456-0.174,12.911-0.218,19.367-7.027,0.105-14.054-0.105-21.079,0.076-4.283-4.47-8.575-8.933-12.763-13.491-1.652-1.789-3.342-3.542-5.018-5.306,0.081,2.706,0.166,5.413,0.258,8.12-3.915,0.022-7.83,0.005-11.744,0.012-2.84,3.227-5.678,6.458-8.48,9.719-6.114,0.135-12.23,0.006-18.345,0.082-1.4076-0.048-2.8127-0.135-4.2153-0.262v-20.727c5.8945-7.115,12.934-13.242,19.268-19.98-6.343-7.271-13.391-13.979-19.268-21.621v-21.106c6.2927-0.062,12.585-0.176,18.877-0.257,6.597,6.728,13.306,13.348,19.797,20.178,0.104-6.601,1.703-13.31,5.625-18.718,4.775-6.9069,12.625-11.44,20.976-12.29z" stroke="#000" stroke-linecap="butt" stroke-miterlimit="10" stroke-width="0.1" fill="none"/>
<path fill-rule="nonzero" fill="#000" d="M65.275,0h5.024c9.497,1.3629,18.028,7.3833,22.496,15.862,4.515,9.593,4.261,21.43-1.583,30.408-5.236,8.551-15.139,13.763-25.142,13.45,1.5,1.555,2.979,3.132,4.47,4.697,3.717,3.902,7.347,7.885,11.064,11.787-0.047,6.456-0.174,12.911-0.218,19.367-7.027,0.105-14.054-0.105-21.079,0.076-4.283-4.47-8.575-8.933-12.763-13.491-1.652-1.789-3.342-3.542-5.018-5.306,0.081,2.706,0.166,5.413,0.258,8.12-3.915,0.022-7.83,0.005-11.744,0.012-2.84,3.227-5.678,6.458-8.48,9.719-6.114,0.135-12.23,0.006-18.345,0.082-1.4076-0.048-2.8127-0.135-4.2153-0.262v-20.727c5.8945-7.115,12.934-13.242,19.268-19.98-6.343-7.271-13.391-13.979-19.268-21.621v-21.106c6.2927-0.062,12.585-0.176,18.877-0.257,6.597,6.728,13.306,13.348,19.797,20.178,0.104-6.601,1.703-13.31,5.625-18.718,4.775-6.9069,12.625-11.44,20.976-12.29z"/>
<path stroke-linejoin="miter" d="M70.299,0h29.701v29.939c-1.731-4.895-2.489-11.043-7.205-14.077-4.468-8.4787-12.999-14.499-22.496-15.862z" stroke="#FFF" stroke-linecap="butt" stroke-miterlimit="10" stroke-width="0.1" fill="none"/>
<path stroke-linejoin="miter" d="M50.152,10.146c6.312-6.3667,16.316-8.8478,24.792-5.7659,12.873,4.2053,20.35,19.663,16.094,32.429-2.967,11.193-14.262,19.772-25.971,18.425-2.914,0.399-5.492-2.098-8.353-1.198,0.749,1.282,1.705,2.424,2.745,3.481,6.162,6.512,12.302,13.046,18.343,19.671-0.126,4.69-0.098,9.384-0.247,14.074-5.293-0.013-10.586-0.073-15.879-0.019-7.181-7.255-14.01-14.848-21.097-22.194-0.543,0.011-1.628,0.034-2.17,0.045,0.219,3.871,0.321,7.746,0.431,11.621-3.252,0.005-6.503-0.024-9.754,0.034-2.616,3.313-5.646,6.273-8.248,9.596-5.665,0.219-11.336,0.051-17.004,0.095,0.0047-5.568,0.0218-11.136-0.0075-16.703,6.7841-6.764,13.422-13.677,20.31-20.334-6.613-7.623-13.565-14.962-20.4-22.392-0.1067-5.71-0.1874-11.421-0.2467-17.132,4.5625,0.038,9.125-0.015,13.687-0.047,7.553,7.61,15.026,15.299,22.568,22.921,0.954-0.956,1.908-1.912,2.861-2.87-1.379-8.494,1.268-17.727,7.546-23.737z" stroke="#FFF" stroke-linecap="butt" stroke-miterlimit="10" stroke-width="0.1" fill="none"/>
<path fill-rule="nonzero" fill="#FFF" d="M50.152,10.146c6.312-6.3667,16.316-8.8478,24.792-5.7659,12.873,4.2053,20.35,19.663,16.094,32.429-2.967,11.193-14.262,19.772-25.971,18.425-2.914,0.399-5.492-2.098-8.353-1.198,0.749,1.282,1.705,2.424,2.745,3.481,6.162,6.512,12.302,13.046,18.343,19.671-0.126,4.69-0.098,9.384-0.247,14.074-5.293-0.013-10.586-0.073-15.879-0.019-7.181-7.255-14.01-14.848-21.097-22.194-0.543,0.011-1.628,0.034-2.17,0.045,0.219,3.871,0.321,7.746,0.431,11.621-3.252,0.005-6.503-0.024-9.754,0.034-2.616,3.313-5.646,6.273-8.248,9.596-5.665,0.219-11.336,0.051-17.004,0.095,0.0047-5.568,0.0218-11.136-0.0075-16.703,6.7841-6.764,13.422-13.677,20.31-20.334-6.613-7.623-13.565-14.962-20.4-22.392-0.1067-5.71-0.1874-11.421-0.2467-17.132,4.5625,0.038,9.125-0.015,13.687-0.047,7.553,7.61,15.026,15.299,22.568,22.921,0.954-0.956,1.908-1.912,2.861-2.87-1.379-8.494,1.268-17.727,7.546-23.737z"/>
<path stroke-linejoin="miter" d="M62.031,8.822c7.76-2.4331,16.608,1.633,20.795,8.412,6.377,9.519,3.653,24.211-6.423,30.09-5.971,3.929-13.995,3.387-19.9-0.396-2.389,3.143-5.589,5.686-7.653,9.045l0.209,0.587c7.642,7.58,15.284,15.165,22.939,22.735-0.179,2.077,0.464,4.37-0.352,6.313-2.382,0.273-4.797,0.233-7.185,0.097-2.055-1.281-3.456-3.35-5.146-5.045-5.051-5.726-10.546-11.036-15.696-16.668-3.041,0.029-6.076,0.233-9.103,0.511-0.089,3.48-0.011,6.962-0.085,10.443-2.97,0.321-6.052,0.322-8.906,1.262-2.9,2.967-5.729,6.005-8.582,9.019-2.778,0.082-5.557,0.077-8.3357,0.02,0.2758-2.737-1.0772-6.282,1.5317-8.224,7.83-7.681,15.036-15.982,22.974-23.547-7.624-8.626-16.094-16.496-23.978-24.891-1.188-2.27-0.3086-5.094-0.5375-7.585,2.3945,0.004,4.7885-0.008,7.1825-0.003,7.446,7.642,14.997,15.184,22.266,22.995,0.724,0.81,1.531,1.544,2.442,2.141,2.498-3.191,5.549-5.981,7.735-9.395-0.666-3.839-1.976-7.754-0.723-11.645,1.26-7.558,6.986-14.418,14.531-16.271z" stroke="#4C9138" stroke-linecap="butt" stroke-miterlimit="10" stroke-width="0.1" fill="none"/>
<path fill-rule="nonzero" fill="url(#linearGradient3261)" d="M62.031,8.822c7.76-2.4331,16.608,1.633,20.795,8.412,6.377,9.519,3.653,24.211-6.423,30.09-5.971,3.929-13.995,3.387-19.9-0.396-2.389,3.143-5.589,5.686-7.653,9.045l0.209,0.587c7.642,7.58,15.284,15.165,22.939,22.735-0.179,2.077,0.464,4.37-0.352,6.313-2.382,0.273-4.797,0.233-7.185,0.097-2.055-1.281-3.456-3.35-5.146-5.045-5.051-5.726-10.546-11.036-15.696-16.668-3.041,0.029-6.076,0.233-9.103,0.511-0.089,3.48-0.011,6.962-0.085,10.443-2.97,0.321-6.052,0.322-8.906,1.262-2.9,2.967-5.729,6.005-8.582,9.019-2.778,0.082-5.557,0.077-8.3357,0.02,0.2758-2.737-1.0772-6.282,1.5317-8.224,7.83-7.681,15.036-15.982,22.974-23.547-7.624-8.626-16.094-16.496-23.978-24.891-1.188-2.27-0.3086-5.094-0.5375-7.585,2.3945,0.004,4.7885-0.008,7.1825-0.003,7.446,7.642,14.997,15.184,22.266,22.995,0.724,0.81,1.531,1.544,2.442,2.141,2.498-3.191,5.549-5.981,7.735-9.395-0.666-3.839-1.976-7.754-0.723-11.645,1.26-7.558,6.986-14.418,14.531-16.271z"/>
<path stroke-linejoin="miter" d="M71.698,16.833c4.735,0.042,11.1,3.656,10.161,9.162,1.185,6.018-6.769,10.732-11.806,7.628-7.073-3.035-6.186-15.513,1.645-16.79z" stroke="#000" stroke-linecap="butt" stroke-miterlimit="10" stroke-width="0.1" fill="none"/>
<path fill-rule="nonzero" fill="#000" d="M71.698,16.833c4.735,0.042,11.1,3.656,10.161,9.162,1.185,6.018-6.769,10.732-11.806,7.628-7.073-3.035-6.186-15.513,1.645-16.79z"/>
<path stroke-linejoin="miter" d="M92.795,15.862c4.716,3.034,5.474,9.182,7.205,14.077v6.642c-0.999,9.346-5.948,18.449-14.145,23.328-4.556,2.988-10.017,3.855-15.315,4.508-1.491-1.565-2.97-3.142-4.47-4.697,10.003,0.313,19.906-4.899,25.142-13.45,5.844-8.978,6.098-20.815,1.583-30.408z" stroke="#C7C7C7" stroke-linecap="butt" stroke-miterlimit="10" stroke-width="0.1" fill="none"/>
<path fill-rule="nonzero" fill="#C7C7C7" d="M92.795,15.862c4.716,3.034,5.474,9.182,7.205,14.077v6.642c-0.999,9.346-5.948,18.449-14.145,23.328-4.556,2.988-10.017,3.855-15.315,4.508-1.491-1.565-2.97-3.142-4.47-4.697,10.003,0.313,19.906-4.899,25.142-13.45,5.844-8.978,6.098-20.815,1.583-30.408z"/>
<path stroke-linejoin="miter" d="M70.043,18.026c4.717-2.331,9.907,3.26,8.52,7.92-0.805,4.031-6.144,6.971-9.579,4.006-4.454-2.663-3.579-9.963,1.059-11.926z" stroke="#FFF" stroke-linecap="butt" stroke-miterlimit="10" stroke-width="0.1" fill="none"/>
<path fill-rule="nonzero" fill="#FFF" d="M70.043,18.026c4.717-2.331,9.907,3.26,8.52,7.92-0.805,4.031-6.144,6.971-9.579,4.006-4.454-2.663-3.579-9.963,1.059-11.926z"/>
<path stroke-linejoin="miter" d="M0,32.193c5.8771,7.642,12.925,14.35,19.268,21.621-6.334,6.738-13.374,12.865-19.268,19.98v-41.601z" stroke="#FFF" stroke-linecap="butt" stroke-miterlimit="10" stroke-width="0.1" fill="none"/>
<path stroke-linejoin="miter" d="M85.855,59.909c8.197-4.879,13.146-13.982,14.145-23.328v63.419h-14.649c-0.062-6.339,0.369-12.683,0.123-19.015-1.056-1.77-2.501-3.257-3.87-4.781-3.717-3.902-7.347-7.885-11.064-11.787,5.298-0.653,10.759-1.52,15.315-4.508z" stroke="#FFF" stroke-linecap="butt" stroke-miterlimit="10" stroke-width="0.1" fill="none"/>
<path stroke-linejoin="miter" d="M81.604,76.204c1.369,1.524,2.814,3.011,3.87,4.781,0.246,6.332-0.185,12.676-0.123,19.015h-21.107c-1.346-1.422-2.613-2.914-3.937-4.353,7.025-0.181,14.052,0.029,21.079-0.076,0.044-6.456,0.171-12.911,0.218-19.367z" stroke="#C7C7C7" stroke-linecap="butt" stroke-miterlimit="10" stroke-width="0.1" fill="none"/>
<path fill-rule="nonzero" fill="#C7C7C7" d="M81.604,76.204c1.369,1.524,2.814,3.011,3.87,4.781,0.246,6.332-0.185,12.676-0.123,19.015h-21.107c-1.346-1.422-2.613-2.914-3.937-4.353,7.025-0.181,14.052,0.029,21.079-0.076,0.044-6.456,0.171-12.911,0.218-19.367z"/>
<path stroke-linejoin="miter" d="M42.526,76.85c1.676,1.764,3.366,3.517,5.018,5.306-1.469,2.124-0.621,4.888-1.155,7.292-3.713-0.117-7.428-0.067-11.142-0.097-3.444,2.876-5.576,7.255-9.313,9.668-7.173,0.226-14.382,0.261-21.557-0.06-0.0529-1.393-0.1068-2.785-0.162-4.176,6.1147-0.076,12.231,0.053,18.345-0.082,2.802-3.261,5.64-6.492,8.48-9.719,3.914-0.007,7.829,0.01,11.744-0.012-0.092-2.707-0.177-5.414-0.258-8.12z" stroke="#C7C7C7" stroke-linecap="butt" stroke-miterlimit="10" stroke-width="0.1" fill="none"/>
<path fill-rule="nonzero" fill="#C7C7C7" d="M42.526,76.85c1.676,1.764,3.366,3.517,5.018,5.306-1.469,2.124-0.621,4.888-1.155,7.292-3.713-0.117-7.428-0.067-11.142-0.097-3.444,2.876-5.576,7.255-9.313,9.668-7.173,0.226-14.382,0.261-21.557-0.06-0.0529-1.393-0.1068-2.785-0.162-4.176,6.1147-0.076,12.231,0.053,18.345-0.082,2.802-3.261,5.64-6.492,8.48-9.719,3.914-0.007,7.829,0.01,11.744-0.012-0.092-2.707-0.177-5.414-0.258-8.12z"/>
<path stroke-linejoin="miter" d="M46.389,89.448c0.534-2.404-0.314-5.168,1.155-7.292,4.188,4.558,8.48,9.021,12.763,13.491,1.324,1.439,2.591,2.931,3.937,4.353h-64.244v-5.479c1.4026,0.127,2.8077,0.214,4.2153,0.262,0.0552,1.391,0.1091,2.783,0.162,4.176,7.1747,0.321,14.384,0.286,21.557,0.06,3.737-2.413,5.869-6.792,9.313-9.668,3.714,0.03,7.429-0.02,11.142,0.097z" stroke="#FFF" stroke-linecap="butt" stroke-miterlimit="10" stroke-width="0.1" fill="none"/>
</g>
</svg>
