<svg width="213.33" height="194.9" viewBox="0 0 213.33333 194.89906" xmlns="http://www.w3.org/2000/svg">
    <path d="M106.66 14.222C47.75 14.222-.004 61.977-.004 120.886c0 20.338 5.695 39.344 15.572 55.517l27.866-29.587 141.036.881-1.021 47.209c18.494-19.183 29.871-45.271 29.871-74.02 0-58.91-47.755-106.664-106.664-106.664" fill="#33a0ff"/>
    <path d="M58.448 44.621c-5.199-.318-9.183-4.81-8.88-10.014l.705-11.396c.31-4.985 4.467-8.892 9.463-8.892.187 0 .374.006.562.018l11.39.705a9.4 9.4 0 0 1 6.513 3.181 9.404 9.404 0 0 1 2.356 6.875l-.699 11.352a6.872 6.872 0 0 1-.255 1.46l-.405 1.982-7.494 5.55z" fill="#3dcc8e"/>
    <path d="M59.728 8.596c-8.013 0-14.678 6.263-15.174 14.26l-.706 11.376-.001.022-.001.02c-.486 8.345 5.906 15.549 14.247 16.06l11.167.69 4.163.257 3.354-2.482 4.056-3.002 3.524-2.609.809-3.956c.16-.607.333-1.424.396-2.424l.699-11.362a15.09 15.09 0 0 0-3.786-11.021 15.087 15.087 0 0 0-10.457-5.097l-11.357-.704h-.016l-.017-.002a15.6 15.6 0 0 0-.9-.026m8.504 24.827l.418-6.767-6.768-.418-.42 6.768 6.77.417m-8.504-13.381c.075 0 .15.003.227.007l11.37.705c.996.06 1.915.507 2.577 1.257.667.754.999 1.72.935 2.721l-.7 11.366c-.01.176-.082.33-.115.498L69.966 39.6l-11.173-.69a3.764 3.764 0 0 1-3.52-3.97l.706-11.374a3.755 3.755 0 0 1 3.749-3.523" fill="#282828"/>
    <path d="M106.66 69.514c-44.535 0-80.638 36.103-80.638 80.638 0 16.56 4.995 31.953 13.556 44.758h137.41c7.231-13.21 10.317-28.849 10.317-44.758 0-41.218-36.103-80.638-80.638-80.638" fill="#fff"/>
    <path d="M106.66 63.78c-47.62 0-86.362 38.743-86.362 86.363 0 16.373 4.581 31.698 12.528 44.757h13.796c-9.34-12.495-14.876-27.992-14.876-44.757 0-41.309 33.606-74.916 74.914-74.916 19.62 0 38.414 8.215 52.916 23.13 13.981 14.377 22 33.253 22 51.786 0 12.689-2.096 29.932-11.207 44.757h13.065c6.305-12.691 9.588-27.866 9.588-44.757 0-21.488-9.199-43.271-25.238-59.767-16.677-17.15-38.385-26.595-61.124-26.595" fill="#282827"/>
    <path d="M90.38 173.551a7.741 7.741 0 1 1-7.741-7.741 7.74 7.74 0 0 1 7.741 7.741M138.42 173.551c0 4.276-3.466 7.742-7.742 7.742s-7.741-3.466-7.741-7.742 3.465-7.74 7.741-7.74 7.741 3.465 7.741 7.74" fill="#282827"/>
    <path d="M18.676 170.485l42.97-45.572-10.343 32.424c33.547-24.413 68.765-20.553 93.563-13.27 26.32 7.728 44.748-15.518 26.708-40.316-8.571-11.786-20.33-21.57-33.685-27.505-35.03-15.561-70.25-6.488-94.007 17.511-25.168 25.424-25.206 53.622-25.206 76.728" fill="#ff6f21"/>
    <path d="M102.62 74.274c-4.988 0-9.941.497-14.809 1.499-14.846 3.053-28.63 10.665-39.862 22.011-18.656 18.846-22.534 39.074-23.339 58.064l50.136-53.173-13.273 41.61c24.944-13.042 53.464-14.971 85.005-5.71 10.037 2.947 19.134.713 23.743-5.828 4.735-6.721 3.51-16.302-3.275-25.63-8.107-11.146-19.252-20.251-31.381-25.64-10.757-4.78-21.933-7.203-32.945-7.203M12.953 184.898v-14.413c0-23.889 0-53.619 26.86-80.754C52.64 76.775 68.44 68.07 85.506 64.56c17.964-3.696 36.881-1.464 54.707 6.454 13.937 6.192 26.72 16.623 35.992 29.368 9.657 13.277 10.95 28.204 3.374 38.956-7.406 10.513-21.662 14.522-36.326 10.218-33.817-9.93-63.622-5.755-88.581 12.408L40.538 172.25l8.006-25.1z" fill="#282827"/>
    <path d="M127.246 65.22c-5.094 13.275-19.867 20.687-33.555 16.834C78.27 77.71 70.128 65.318 72.082 49.599c1.945-15.633 12.51-29.34 24.686-46.235-10.002 21.291-1.505 23.286 1.183 23.18 2.656-.106 6.533.347 12.052 2.178 15.035 4.99 22.983 21.542 17.243 36.499" fill="#ff6f21"/>
    <path d="M87.767 26.182c-5.282 8.282-8.992 15.98-10.005 24.125-1.604 12.897 4.93 22.706 17.481 26.239 10.896 3.068 22.605-2.807 26.66-13.373 2.2-5.73 1.97-11.93-.645-17.454-2.617-5.53-7.254-9.637-13.058-11.563-5.093-1.69-8.264-1.958-10.021-1.892-3.945.155-7.587-1.682-9.733-4.92-.248-.373-.475-.76-.679-1.162m13.302 62.616a32.88 32.88 0 0 1-8.929-1.234c-8.887-2.502-15.99-7.449-20.538-14.305-4.534-6.834-6.332-15.26-5.2-24.366 2-16.075 11.908-29.771 23.38-45.63L92.126.02l9.822 5.78c-4.848 10.32-4.292 14.142-4.037 15.014 3.9-.119 8.574.712 13.894 2.477 8.801 2.921 15.833 9.147 19.8 17.532 3.965 8.378 4.314 17.773.985 26.451-5.05 13.158-17.928 21.524-31.52 21.524" fill="#282827"/>
    <path d="M112.78 115.913a6.62 6.62 0 0 1-5.148-2.443l-3.85-4.716c-2.233-2.733-1.913-6.731.667-9.08a6.52 6.52 0 0 1-2.184-1.738l-.878-1.076a6.634 6.634 0 0 1 .94-9.324l.553-.452-5.64-6.922c-2.508-3.072-2.048-7.617 1.027-10.13a7.229 7.229 0 0 1 4.556-1.625 7.18 7.18 0 0 1 5.576 2.643l24.056 29.609c2.504 3.068 2.044 7.613-1.03 10.125a7.23 7.23 0 0 1-2.934 1.438 7.219 7.219 0 0 1-1.622.184 7.178 7.178 0 0 1-4.981-1.997l-4.908 4.007a6.662 6.662 0 0 1-4.2 1.497" fill="#3dcc8e"/>
    <path d="M112.02 68.087a11.845 11.845 0 0 0-9.199-4.358c-2.725 0-5.391.95-7.507 2.672-5.086 4.154-5.843 11.654-1.7 16.729l3.133 3.846c-2.301 3.957-2.052 9.099 1.01 12.85l.59.722c-1.385 3.654-.84 7.933 1.805 11.172l3.85 4.717a11.281 11.281 0 0 0 8.775 4.162c2.603 0 5.147-.905 7.163-2.552l2.306-1.882a11.908 11.908 0 0 0 12.14-1.75c5.073-4.146 5.83-11.646 1.69-16.72l-24.033-29.58zm-9.199 5.007c.73 0 1.454.317 1.952.928l24.046 29.594a2.52 2.52 0 0 1-3.905 3.186l-2.394-2.95-8.503 6.94a1.959 1.959 0 0 1-2.76-.279l-3.85-4.716a1.939 1.939 0 0 1 .276-2.728l8.543-6.974-3.49-4.304-4.227 3.453a1.86 1.86 0 0 1-2.617-.264l-.88-1.079a1.943 1.943 0 0 1 .275-2.733l4.177-3.41-8.596-10.55a2.519 2.519 0 0 1 1.953-4.114" fill="#282828"/>
</svg>
