<svg version="1.1" viewBox="0 0 580 70" xmlns="http://www.w3.org/2000/svg">
  <g fill="#05ce78">
    <path d="m523 15.9v31.4c0 7.5 6.0465 13.7 13.403 13.7 6.0465 0 10.783-3.7 12.496-9l1.4109 2.5c2.5194 4.2 6.9535 6.5 11.488 6.5 7.3566 0 13.202-5.8 13.202-13.2 0-2.5-0.60465-4.9-2.0155-7.1l-5.2403-8.3c3.8295-2.9 6.1473-7.5 6.1473-13.1 0-10.3-8.2636-18.3-18.845-18.3h-17.434c-9.4729 0-14.612 5.1-14.612 14.9"/>
    <path d="m519 49.503c0-5.7478-3.6765-10.084-8.7442-11.092 2.2854-1.5126 3.6765-4.0335 3.6765-7.3612s-1.2918-5.8486-3.6765-7.3612c5.167-1.0084 8.7442-5.2436 8.7442-11.092 0-6.4536-5.167-11.596-11.427-11.596h-20.867c-9.5391 0-14.706 5.1427-14.706 14.924v30.151c0 9.8821 5.167 14.924 14.706 14.924h20.867c6.26 0.10084 11.427-5.0419 11.427-11.496"/>
    <path d="m455.8 47.5v-20.7c6.7-0.3 12.2-5.9 12.2-12.9 0-7.2-5.8-12.9-12.9-12.9h-27.2c-7.1 0-12.9 5.6-12.9 12.9 0 7 5.5 12.5 12.2 12.9v20.7c0 7.4 6.3 13.5 14.1 13.5 8.3 0 14.5-6.1 14.5-13.5"/>
    <path d="m362 15.9v31.4c0 7.5 6.0465 13.7 13.403 13.7 6.0465 0 10.783-3.7 12.496-9l1.4109 2.5c2.5194 4.2 6.9535 6.5 11.488 6.5 7.3566 0 13.202-5.8 13.202-13.2 0-2.5-0.60465-4.9-2.0155-7.1l-5.2403-8.3c3.8295-2.9 6.1473-7.5 6.1473-13.1 0-10.3-8.2636-18.3-18.845-18.3h-17.434c-9.3721 0-14.612 5.1-14.612 14.9"/>
    <path d="m328.92 49.57c3.4116 7.053 8.2281 10.43 14.148 10.43 10.636 0 18.162-9.6358 13.546-20.464l-12.342-28.609c-3.0103-7.053-7.5257-10.927-15.252-10.927-7.626 0-12.141 3.8742-15.252 10.927l-12.342 28.609c-4.7161 10.828 2.9099 20.464 13.446 20.464 5.8199 0 10.636-3.3775 14.048-10.43"/>
    <path d="m293.78 47.5v-20.7c6.7127-0.3 12.223-5.9 12.223-12.9 0-7.2-5.811-12.9-12.924-12.9h-27.151c-7.1134 0-12.924 5.6-12.924 12.9 0 7 5.5104 12.5 12.223 12.9v20.7c0 7.4 6.3119 13.5 14.127 13.5 8.1153 0 14.427-6.1 14.427-13.5"/>
    <path d="m253 41.536c0-6.0197-3.0063-10.234-7.5157-14.247l-3.7077-3.3109c5.4113-0.80263 9.0188-4.4145 9.0188-9.7319 0-8.9293-7.1148-14.247-22.146-14.247-14.731 0-23.349 7.4243-23.349 19.163 0 6.0197 3.1065 10.133 7.6159 14.247l3.6075 3.3109h-0.10021c-6.714 0-11.424 3.9128-11.424 10.033 0 8.8289 7.4154 14.247 23.248 14.247 15.532 0 24.752-7.5247 24.752-19.464"/>
    <path d="m202 46.566c0-2.786-0.80748-5.4725-2.5234-7.8605l-6.4598-8.8555 6.4598-8.8555c1.7159-2.2885 2.5234-5.0745 2.5234-7.8605 0-7.363-6.157-13.035-13.424-13.035-4.2393 0-8.4785 2.0895-11.103 5.6715l-3.129 4.378c-1.2112-5.8705-6.3589-10.149-12.92-10.149-7.5701 0-13.424 5.97-13.424 13.333v33.333c0 7.363 5.9551 13.333 13.424 13.333 6.4598 0 11.507-3.98 12.819-9.7511l2.8262 3.98c2.6243 3.781 6.9645 5.771 11.204 5.771 7.5701 0.0995 13.727-6.0695 13.727-13.433"/>
    <path d="m143 43.51c0-6.3576-3.1813-10.828-9.5439-13.51 6.3626-2.6821 9.5439-7.053 9.5439-13.51 0-9.6358-8.0526-16.49-20.977-16.49-17.298 0-30.023 12.815-30.023 30s12.725 30 30.023 30c12.924 0 20.977-6.8543 20.977-16.49"/>
    <path d="m72.55 0c-8.0833 0-14.55 6.5781-14.55 14.352v31.296c0 7.8738 6.4666 14.352 14.449 14.352 8.1843 0 14.55-6.5781 14.55-14.352v-31.296c0.10104-7.7741-6.3656-14.352-14.449-14.352"/>
    <path d="m54 46.566c0-2.786-0.80597-5.4725-2.5187-7.8605l-6.4478-8.8555 6.4478-8.8555c1.7127-2.2885 2.5187-5.0745 2.5187-7.8605 0-7.363-6.1455-13.035-13.399-13.035-4.2313 0-8.4627 2.0895-11.082 5.6715l-3.2239 4.378c-1.209-5.8705-6.347-10.149-12.896-10.149-7.556 0-13.399 5.97-13.399 13.333v33.333c0 7.363 5.944 13.333 13.399 13.333 6.4478 0 11.485-3.98 12.795-9.7511l2.8209 3.98c2.6194 3.781 6.9515 5.771 11.183 5.771 7.6567 0.0995 13.802-6.0695 13.802-13.433"/>
  </g>
</svg>
