<svg xmlns="http://www.w3.org/2000/svg" version="1" viewBox="0 0 100 100">
    <defs>
        <linearGradient id="a" x1="-344.15" gradientUnits="userSpaceOnUse" y1="274.71" gradientTransform="matrix(-.25168 0 0 .2517 299.55 394.93)" x2="-395.85" y2="425.4">
            <stop stop-color="#FFF" offset="0"/>
            <stop stop-color="#FFF" stop-opacity="0" offset="1"/>
        </linearGradient>
    </defs>
    <g transform="translate(-373.64 -474.34)">
        <rect fill-rule="evenodd" rx="15.101" transform="scale(-1 1)" ry="15.102" width="100" y="474.34" x="-473.64" height="100" fill="#ce0000"/>
        <path opacity=".554" d="M447.22 478.62h-47.16c-12.483 0-22.533 10.132-22.533 22.718v46.014c.404 9.824 1.958 3.614 4.917-7.266 3.438-12.644 14.636-23.696 28.273-31.978 10.41-6.322 22.06-10.358 43.266-10.742 12.027-.218 10.965-15.61-6.764-18.745z" fill-rule="evenodd" fill="url(#a)"/>
        <path d="M422.89 540.97c-3.516 4.086-8.492 5.738-14.437 5.775-14.603.492-21.39-12.56-21.732-22.493.1-9.688 8.15-21.617 21.277-21.885 9.386.27 16.05 3.122 21.428 17.174 2.247 5.88 3.787 10.432 6.23 15.655 4.155 8.598 9.372 11.347 14.286 11.55 5.258.03 13.284-3.37 13.07-12.614-.274-7.273-7.998-9.985-12.31-11.246-5.11-1.294-9.81-3.05-11.094-10.79-.425-3.92 2.76-9.66 9.422-9.728 2.867.1 5.072.032 7.295 2.128" stroke="#fff" stroke-width="7.66" fill="none"/>
        <path fill="#fff" d="M458.58 501.38c1.25 1.02 1.777 2.104 3.546 4.46l-6.07 4.62c-.67-1.184-1.148-2.234-2.527-3.277l5.05-5.8zm-33.14 42.47c.987-1.194 1.81-2.429 2.394-3.724l-3.952-7.105c-1.098 2.103-2.577 3.977-4.18 5.777l5.738 5.053z"/>
    </g>
</svg>
