<svg xmlns:rdf="http://www.w3.org/1999/02/22-rdf-syntax-ns#" xmlns="http://www.w3.org/2000/svg" version="1.0" xmlns:cc="http://creativecommons.org/ns#" xmlns:dc="http://purl.org/dc/elements/1.1/" viewBox="0 0 100 100">
<defs>
<linearGradient id="linearGradient2449" x1="-344.15" gradientUnits="userSpaceOnUse" y1="274.71" gradientTransform="matrix(-.25168 0 0 .25170 299.55 394.93)" x2="-395.85" y2="425.4">
<stop stop-color="#FFF" offset="0"/>
<stop stop-color="#FFF" stop-opacity="0" offset="1"/>
</linearGradient>
</defs>
<g transform="translate(-373.64 -474.34)">
<rect fill-rule="evenodd" rx="15.101" transform="scale(-1,1)" ry="15.102" width="100" y="474.34" x="-473.64" height="100" fill="#ce0000"/>
<path opacity=".55365" d="m447.22 478.62h-47.16c-12.483 0-22.533 10.132-22.533 22.718v46.014c0.40407 9.8243 1.9583 3.6136 4.9168-7.2661 3.4384-12.644 14.636-23.696 28.273-31.978 10.409-6.3217 22.059-10.358 43.266-10.742 12.027-0.2178 10.965-15.61-6.7636-18.745z" fill-rule="evenodd" fill="url(#linearGradient2449)"/>
<path d="m422.89 540.97c-3.516 4.0859-8.4919 5.7384-14.437 5.7753-14.603 0.49167-21.391-12.56-21.732-22.493 0.0997-9.6879 8.148-21.617 21.276-21.885 9.3862 0.27063 16.051 3.1222 21.428 17.174 2.247 5.8795 3.7868 10.431 6.2308 15.654 4.1538 8.5977 9.3715 11.347 14.285 11.551 5.257 0.028 13.283-3.3715 13.069-12.615-0.27428-7.2741-7.9974-9.9865-12.31-11.247-5.1102-1.2942-9.8107-3.0496-11.094-10.791-0.42482-3.9181 2.7604-9.6602 9.4222-9.7269 2.8673 0.0989 5.0716 0.0316 7.2946 2.1278" stroke="#fff" stroke-width="7.6596" fill="none"/>
<path fill="#fff" d="m458.58 501.38c1.2492 1.0197 1.7774 2.1045 3.5461 4.4599l-6.0714 4.6211c-0.66853-1.1846-1.1471-2.2352-2.5253-3.2778l5.05-5.8z"/>
<path fill="#fff" d="m425.44 543.85c0.98723-1.1938 1.8112-2.4285 2.3936-3.7236l-3.9512-7.1052c-1.0986 2.1018-2.5772 3.9756-4.1792 5.7753l5.7369 5.0534z"/>
</g>
</svg>
