<svg width="67.819mm" height="29.346mm" version="1.1" viewBox="0 0 67.818619 29.346104" xmlns="http://www.w3.org/2000/svg">
<g transform="translate(-1.7563e-7 -267.65)">
<g transform="matrix(.21325 0 0 .21325 -98.84 160.6)">
<g fill-rule="evenodd">
<path d="m640.37 585.38h-6e-3c-0.61745 0-1.1625 0.20354-1.6748 0.61733-0.38093 0.30205-0.64359 0.70934-0.85374 1.1625h0.0263c0.21016-0.45318 0.47282-0.86047 0.84723-1.1625 0.51232-0.41379 1.0574-0.61082 1.6616-0.61733z" fill="#bd0000"/>
<path d="m640.39 585.38h-0.0198c0.63708 7e-3 1.0574 0.22328 1.3398 0.68959 0.12477 0.19703 0.19052 0.49257 0.19052 0.86687 0 0.0658-0.0131 0.15114-0.0198 0.22339h0.0263c0-0.0722 0.0131-0.15764 0.0131-0.22339 0-0.3743-0.0591-0.66984-0.1839-0.86687-0.28241-0.47293-0.70922-0.68959-1.3463-0.68959z" fill="#bd0000"/>
<g transform="matrix(.38515 0 0 .38515 759.95 896.79)" fill="#008033" stroke-width="1pt">
<g transform="matrix(1.7052 0 0 1.7052 -769.68 -729)">
<path d="m0 36h7.46l3.35-14h12.12l1.56-6h-12.17s2.02-9 2.02-9h12.95l1.56-7h-20.45l-8.4 36z" fill="#008033"/>
</g>
<g transform="matrix(1.7052 0 0 1.7052 -725.43 -711.94)">
<path d="m7.51 26s2.24-9.4 2.24-9.4c1.18-5.09 3.67-9.6 8.38-9.6 0.42 0 0.83 0.21 1.14 0.26 0 0 1.82-7.21 1.82-7.21-0.42 0-0.88-0.05-1.4-0.05-3.47 0-6.38 2.44-8.32 5.94h-0.2c0.29-1.71 0.54-3.33 0.73-4.94h-6.43c-0.37 2.08-0.94 6.15-1.81 9.82l-3.66 15.18h7.51z" fill="#008033"/>
</g>
<g transform="matrix(1.7052 0 0 1.7052 -690.25 -711.94)">
<path d="m20.06 19.25c-2.07 1.01-4.43 0.75-7.18 0.75-2.17 0-3.85-0.38-4.77-1.12-0.48-0.81-0.68-2.07-0.64-2.88 10.13 0.27 16.52-2.07 16.84-8.47 0.24-4.83-3.29-7.53-8.42-7.53-9.16 0-15.16 8.08-15.55 15.86-0.34 6.79 3.18 10.14 10.44 10.14 2.79 0 6.49-0.32 9.52-1.23l-0.24-5.52zm-2.74-11.72c-0.12 2.38-3.06 2.52-8.85 2.47 0.63-2.09 2.75-4 6.22-4 1.71 0 2.69 0.65 2.63 1.53z" fill="#008033"/>
</g>
<g transform="matrix(1.7052 0 0 1.7052 -645.03 -711.94)">
<path d="m20.05 19.25c-2.07 1.01-4.43 0.75-7.17 0.75-2.18 0-3.85-0.38-4.77-1.12-0.48-0.81-0.69-2.07-0.65-2.88 10.14 0.27 16.52-2.07 16.85-8.47 0.24-4.83-3.29-7.53-8.42-7.53-9.17 0-15.17 8.08-15.56 15.86-0.33 6.79 3.19 10.14 10.44 10.14 2.8 0 6.5-0.32 9.53-1.23l-0.25-5.52zm-2.73-11.72c-0.12 2.38-3.06 2.52-8.86 2.47 0.64-2.09 2.75-4 6.22-4 1.71 0 2.7 0.65 2.64 1.53z" fill="#008033"/>
</g>
<g transform="matrix(1.7052 0 0 1.7052 -583.8 -711.94)">
<path d="m22.74 26c0.06-3.17 0.82-8.15 1.61-11.42l3.21-13.58c-2.04-0.69-5.22-1-8.28-1-12.42 0-18.58 9.2-19.01 17.82-0.27 5.41 2.66 8.18 7.22 8.18 2.95 0 6.28-1.43 8.87-5.73h0.11c-0.2 2.07-0.44 4.08-0.57 5.73h6.84zm-5.13-14.28c-1.46 6.36-4.44 8.28-6.66 8.28-2.07 0-2.97-1.47-2.85-3.61 0.24-4.83 4.06-10.39 8.88-10.39 0.78 0 1.39-0.14 1.96-0.28 0 0-1.33 6-1.33 6z" fill="#008033"/>
</g>
<g transform="matrix(1.7052 0 0 1.7052 -536.68 -711.94)">
<path d="m0 24.82c1.44 1.12 4.46 1.13 7.61 1.18 6.73 0.05 11.81-2.89 12.11-8.29 0.17-3.6-2.62-5.73-5.35-7.16-1.97-0.95-2.96-1.86-2.91-2.92 0.07-1.43 1.41-1.63 3.38-1.63 2.22 0 4 0.27 5.02 0.47l2.02-5.42c-1.15-0.69-3.45-1.05-6.4-1.05-6.53 0-11.31 3.45-11.58 8.69-0.16 3.24 2.17 5.42 4.99 6.9 2.28 1.17 3.06 2.07 3 3.34-0.07 1.28-1.21 1.07-3.28 1.07-2.43 0-5.12-0.32-6.54-0.54l-2.07 5.36z" fill="#008033"/>
</g>
<g transform="matrix(1.7052 0 0 1.7052 -481.35 -730.7)">
<path d="m7.45 37l6.05-25h-7.41l-6.09 25h7.45zm3.47-28c2.54 0 4.8-2.1 4.94-5.7 0.12-2.44-1.46-3.3-3.79-3.3-2.43 0-4.65 1.58-4.78 3.94-0.12 2.38 1.46 5.06 3.63 5.06z" fill="#008033"/>
</g>
<g transform="matrix(1.7052 0 0 1.7052 -456.98 -710.77)">
<path d="m7.46 25.31l2.64-11.26c1.37-5.73 4.32-7.74 6.75-7.74 1.92 0 2.48 0.82 2.39 2.01-0.05 0.96-0.2 1.97-0.4 2.87l-3.36 14.12h7.46l3.54-14.81c0.27-1.28 0.57-3.19 0.63-4.35 0.22-4.51-2.03-6.15-6.17-6.15-3.32 0-6.55 1.54-9.1 4.88h-0.1l0.68-4.57h-6.58c-0.43 2.14-0.98 4.73-1.76 7.75l-4.08 17.25h7.46z" fill="#008033"/>
</g>
<g transform="matrix(1.7052 0 0 1.7052 -389.52 -729)">
<path d="m0 36h7.46l3.36-14h12.11l1.56-6h-12.17s2.02-9 2.02-9h12.95l1.56-7h-20.45l-8.4 36z" fill="#008033"/>
</g>
<g transform="matrix(1.7052 0 0 1.7052 -345.27 -711.94)">
<path d="m7.51 26s2.24-9.4 2.24-9.4c1.18-5.09 3.67-9.6 8.38-9.6 0.42 0 0.83 0.21 1.14 0.26 0 0 1.82-7.21 1.82-7.21-0.42 0-0.88-0.05-1.4-0.05-3.47 0-6.38 2.44-8.32 5.94h-0.2c0.29-1.71 0.54-3.33 0.73-4.94h-6.43c-0.36 2.08-0.94 6.15-1.81 9.82l-3.66 15.18h7.51z" fill="#008033"/>
</g>
<g transform="matrix(1.7052 0 0 1.7052 -310.09 -711.94)">
<path d="m20.06 19.25c-2.07 1.01-4.43 0.75-7.18 0.75-2.17 0-3.85-0.38-4.77-1.12-0.48-0.81-0.68-2.07-0.64-2.88 10.13 0.27 16.52-2.07 16.84-8.47 0.24-4.83-3.29-7.53-8.42-7.53-9.16 0-15.16 8.08-15.55 15.86-0.34 6.79 3.19 10.14 10.44 10.14 2.79 0 6.5-0.32 9.52-1.23l-0.24-5.52zm-2.74-11.72c-0.12 2.38-3.06 2.52-8.85 2.47 0.63-2.09 2.75-4 6.22-4 1.71 0 2.69 0.65 2.63 1.53z" fill="#008033"/>
</g>
<g transform="matrix(1.7052 0 0 1.7052 -264.87 -711.94)">
<path d="m20.05 19.25c-2.07 1.01-4.43 0.75-7.17 0.75-2.18 0-3.85-0.38-4.77-1.12-0.48-0.81-0.69-2.07-0.65-2.88 10.14 0.27 16.52-2.07 16.85-8.47 0.24-4.83-3.29-7.53-8.42-7.53-9.17 0-15.17 8.08-15.56 15.86-0.33 6.79 3.19 10.14 10.44 10.14 2.8 0 6.5-0.32 9.53-1.23l-0.25-5.52zm-2.73-11.72c-0.12 2.38-3.06 2.52-8.86 2.47 0.64-2.09 2.75-4 6.22-4 1.71 0 2.7 0.65 2.64 1.53z" fill="#008033"/>
</g>
<g transform="matrix(1.7052 0 0 1.7052 -219.88 -730.7)">
<path d="m23.31 0l-2.81 11.36c-1.02-0.42-2.35-0.36-3.39-0.36-9.58 0-16.36 8.2-16.81 17.08-0.3 6.26 3.04 8.92 7.34 8.92 3.01 0 6.18-1.33 8.58-4.77h0.1l-0.57 4.77h6.78c0.31-3 0.96-6.57 1.69-9.83l6.49-27.17h-7.4zm-5.84 24.42c-1.17 4.93-3.93 6.58-6.11 6.58-2.17 0-3.38-1.51-3.23-4.2 0.25-4.98 3.67-9.8 8.12-9.8 1.25 0 2.32 0.19 2.91 0.47l-1.69 6.95z" fill="#008033"/>
</g>
<g transform="matrix(1.7052 0 0 1.7052 -169.22 -711.94)">
<path d="m10.61 26c8.7 0 15.41-6.59 15.88-15.56 0.29-5.94-3.41-10.44-10.24-10.44-9.02 0-15.49 7.3-15.94 16.12-0.31 6.42 3.83 9.88 10.3 9.88zm1.17-6c-2.54 0-3.94-1.62-3.79-4.04 0.2-4.03 2.69-9.96 6.98-9.96 2.96 0 3.87 2.27 3.75 4.5-0.22 4.4-2.9 9.5-6.94 9.5z" fill="#008033"/>
</g>
<g transform="matrix(1.7052 0 0 1.7052 -120.52 -711.94)">
<path d="m7.2 26l2.7-11.42c1.13-5.09 3.95-8.58 6.48-8.58 1.82 0 2.32 1.33 2.23 3.07-0.05 0.9-0.25 1.91-0.46 2.91l-3.34 14.02h7.2l2.7-11.47c1.24-5.25 3.9-8.53 6.38-8.53 1.71 0 2.42 1.22 2.34 2.96-0.05 1.01-0.26 2.12-0.52 3.13l-3.24 13.91h7.25l3.49-14.81c0.27-1.33 0.58-3.4 0.63-4.46 0.22-4.4-1.93-6.73-5.81-6.73-3.32 0-6.55 1.5-9 4.66-0.09-2.28-1.72-4.66-5.76-4.66-3.27 0-6.39 1.48-8.89 4.83h-0.1l0.67-3.83h-6.42c-0.42 2.14-0.93 4.73-1.71 7.75l-4.02 17.25h7.2z" fill="#008033"/>
</g>
</g>
</g>
<path d="m657.14 595.59c0.26666 0.68536 0.53332 1.3697 0.81093 2.039 0.42773 0.90933 0.92212 1.7796 1.5164 2.5923 3.2105 4.3641 8.5872 6.7536 15.414 7.3485h7.3429c2.3218-0.18105 4.7546-0.51871 7.2764-1.012 4.3492-0.85042 8.9594-2.1568 13.747-3.9026 3.627-1.3224 7.3541-2.8871 11.137-4.7057 8.2372-3.9487 16.747-9.0416 25.095-15.188 2.7495-2.0224 5.3878-4.0976 7.9206-6.2077 2.3218-1.9319 4.5492-3.8937 6.6765-5.8772 5.9377-5.7222 10.42-11.534 12.958-16.637 2.644-5.314 3.1716-9.8574 1.0054-12.72-1.3276-1.7569-3.5493-2.6984-6.4098-2.92 12.886-9.6692 20.396-21.398 17.702-28.794-0.85545-2.3601-2.7384-4.1209-5.4378-5.0946-1.1997-0.43149-2.5496-0.70489-4.0214-0.82931h-3.9659c-5.5378 0.39941-13.591 2.3823-20.423 5.7305" fill-opacity="0" stroke="#007f32" stroke-width="3.2839"/>
<path d="m493.52 506.25l-22.073 99.665h43.453 105.68 54.964c-6.5481-0.57144-11.718-2.8701-14.798-7.0603-0.57144-0.77509-1.0435-1.61-1.4573-2.4835-0.26266-0.64358-0.5098-1.293-0.75933-1.9498-0.65683-2.0885-0.91869-4.4061-0.80043-6.8756 0.3283-6.883 3.558-15.07 9.1538-23.644 5.9438-9.1113 14.558-18.661 25.224-27.523 2.3906-1.9848 4.8625-3.9447 7.4502-5.8495 3.1985-2.3531 6.4216-4.5204 9.6464-6.5472 11.881-7.48 23.732-12.714 34.234-15.373-10.035 3.274-21.31 8.8321-32.449 16.399-0.40056 0.27054-0.79632 0.5477-1.1904 0.82098-6.1803 4.2822-11.779 8.83-16.666 13.423-15.723 14.784-24.034 30.103-20.257 39.078 0.26928 0.61733 0.59027 1.2068 0.96469 1.7651 4.0588 5.97 14.118 7.0019 26.866 3.7969 0.86698-0.21678 1.7338-0.4622 2.6271-0.71836 4.072-1.1756 8.3952-2.7634 12.848-4.7205 1.0705-0.47293 2.1526-0.95888 3.2428-1.4778 0.11164-0.0525 0.21677-0.10502 0.32841-0.16415 14.055-6.9834 24.856-15.019 27.195-19.847 0.5122-1.0502 0.63537-1.9456 0.28732-2.6476-1.6682-3.3824-13.342-1.0973-27.482 5.0284-1.1363 0.49257-2.2855 0.99951-3.4481 1.5393 0.94575-0.87805 1.9301-1.7595 2.935-2.6271 1.6025-1.3806 3.2616-2.7305 5.0284-4.0638 2.7651-2.0938 5.5604-3.9866 8.3123-5.6646 12.886-9.7216 19.4-18.918 18.041-22.33-0.25604-0.64302-0.80122-1.0852-1.642-1.3545-2.6861-0.85453-7.5889 0.1653-13.546 2.6065-4.9126 2.015-10.555 5.0035-16.276 8.7228l-0.77989 0.51311-0.14371 0.0821-2.7502 1.8266 1.5803-2.894c2.3448-4.292 6.1638-8.7701 10.919-12.93 3.4874-3.0416 7.4716-5.9073 11.76-8.4149 1.6222-0.94974 3.242-1.8318 4.8642-2.6271 1.6616-0.81185 3.3241-1.5333 4.9463-2.1756 4.7131-1.8639 9.8905-4.2177 13.814-4.5256-0.35729 0-11.7 1.2213-11.7 1.2213h-37.149-163.8-57.194zm162.05 0.14372c-0.64358 9.8233 1.261 24.212 5.5826 40.186 0.76835 2.8425 1.605 5.7353 2.5245 8.6612 0.57144 1.8068 1.1608 3.5853 1.7651 5.3362-0.35466 0.52144-0.71184 1.0397-1.0468 1.5599-5.3922 8.2635-8.5438 16.073-9.3385 22.864-2.279-7.6317-3.9948-15.991-4.9668-24.855-0.27591-2.5398-0.49177-5.051-0.63628-7.5323-1.064-18.024 1.289-34.362 6.1162-46.22zm-107.61 12.786c0.12306-3e-3 0.24429 0 0.3694 0h24.28c2.0754 0 3.6804 0.38903 4.8232 1.1699 1.1362 0.78547 1.5623 1.8015 1.293 3.0376l-2.894 13.074h-8.5585l2.8118-12.725h-21.427l-7.7375 34.973-2.7913 12.663h21.407l0.0205-0.0822c0 1.1e-4 4.2895-19.375 4.2895-19.375 0-1.2e-4 -10.057 0-10.057 0 0-1.2e-4 0.96458-4.3717 0.96458-4.3717h18.615l-5.3364 24.177c-0.0723 0.34416-0.19863 0.65603-0.3694 0.96469-0.44005 0.80123-1.2077 1.4875-2.2782 2.0523-1.4843 0.7816-3.2608 1.1699-5.3362 1.1699h-24.26c-2.0754 0-3.6804-0.38834-4.8231-1.1699-1.1363-0.78148-1.5689-1.7796-1.293-3.017l10.693-48.334c0.27579-1.236 1.1363-2.2521 2.6271-3.0376 0.0525-0.0282 0.11164-0.0347 0.16415-0.0615 1.3608-0.68171 2.9578-1.0648 4.8027-1.1084zm38.052 0h30.56c2.0491 0 3.6599 0.38903 4.8027 1.1699 1.1494 0.78547 1.5894 1.8015 1.3135 3.0376l-5.7058 25.778c-0.26917 1.2282-1.1502 2.2302-2.6476 3.017-1.4974 0.78947-3.26 1.1904-5.3157 1.1904h-22.207l-4.2896 19.354-0.69781 3.1813h-8.3738l0.63617-2.8734 11.925-53.855zm42.218 0h8.3739l-9.4821 42.834-2.073 9.359h20.032c0.21026 1.5361 0.45569 3.0449 0.71835 4.5358h-30.129c1.1e-4 0 2.3809-10.755 2.3809-10.755l10.18-45.974zm-34.85 4.5564l-5.562 25.081h20.873l5.5416-25.081h-20.853zm-44.509 59.194c0.082-3e-3 0.1638 0 0.24633 0 0.972 0 1.8208 0.17066 2.5039 0.49257 0.72897 0.34142 1.2503 0.84883 1.5393 1.5188 0.28241 0.65021 0.35627 1.3882 0.20524 2.196l-0.0616 0.30786h-2.4013l0.0205-0.28732c0.0621-0.56447-8e-3 -1.0083-0.22579-1.3135-0.0284-0.0384-0.0695-0.0888-0.10262-0.12317-0.0542-0.0554-0.13562-0.11848-0.20525-0.16415-0.33595-0.21163-0.86161-0.32841-1.5393-0.32841-0.89974 0-1.5721 0.15684-2.0319 0.47202-0.44656 0.30866-0.72897 0.65351-0.82098 1.0673-0.0919 0.42031 0.0591 0.64119 0.16427 0.75934 3e-3 3e-3 0.0166 0.0169 0.0204 0.0206 0.1331 0.11346 0.5953 0.37932 2.032 0.71835 1.3003 0.31529 2.1616 0.5985 2.6475 0.84153 0.73559 0.3743 1.2495 0.85956 1.5188 1.4571 0.26929 0.59108 0.32842 1.2832 0.16427 2.0319-0.16427 0.72908-0.53617 1.4014-1.0879 2.0319-0.54507 0.63058-1.2388 1.1296-2.0729 1.4778-0.8276 0.34142-1.7356 0.53354-2.6682 0.53354-1.1822 0-2.1312-0.17899-2.8733-0.53354-0.77509-0.3678-1.3341-0.94826-1.6625-1.7036-0.31529-0.73559-0.38252-1.5705-0.20524-2.4834l0.0615-0.28732h2.3603l-0.0205 0.28732c-0.0591 0.54507-8e-4 0.98512 0.14371 1.3135 0.1379 0.31528 0.40068 0.57635 0.82098 0.77988 0.44656 0.21677 1.0049 0.32841 1.642 0.32841 0.57132 0 1.0934-0.096 1.5598-0.26677 0.4598-0.16426 0.82509-0.38092 1.0879-0.65683 0.25604-0.27579 0.40637-0.56722 0.47201-0.8825 0.0656-0.28241 0.05-0.52133-0.0616-0.71836-0.12477-0.21015-0.37191-0.39656-0.75934-0.5542l-2.0113-0.59519c-1.1231-0.28241-1.8792-0.55169-2.3192-0.82098-0.5977-0.35466-1.0287-0.80944-1.252-1.3545-0.22328-0.53856-0.24714-1.1355-0.10263-1.7857 0.15103-0.69609 0.48686-1.3586 1.0057-1.9497 0.52544-0.59769 1.2035-1.0665 2.0114-1.3752 0.71424-0.2678 1.4659-0.42487 2.2577-0.45147zm21.55 0.041c0.1299-0.01 0.25205 0 0.39006 0l1.4777 0.16427 0.49256 0.041-0.71835 1.8266-0.14361 0.28732-1.1288-0.10262c-0.33332 0-0.57818 0.0515-0.7389 0.16426-0.0106 8e-3 -0.0312 0.0324-0.0411 0.041-0.0215 0.019-0.0576 0.0518-0.0821 0.0821-0.0987 0.12967-0.21917 0.36128-0.30776 0.77999-1.1e-4 0-0.0428 0.17728-0.0822 0.32842h1.7651l-0.45158 2.0318h-1.724c-0.13128 0.59119-1.7446 7.8197-1.7446 7.8197h-2.3807s1.5474-6.9461 1.7446-7.8197h-1.3752l0.45158-2.0318h1.3546c0.0656-0.28241 0.16415-0.63628 0.16415-0.63628 0.14452-0.65683 0.29554-1.1288 0.49256-1.4573 0.26929-0.45318 0.64941-0.83239 1.1288-1.1083 0.39485-0.22944 0.89426-0.36665 1.4571-0.41049zm5.6852 0.10262s-0.62224 2.8004-0.77988 3.5097h1.5393l-0.45158 2.0318h-1.5393c-0.12476 0.56482-1.1082 4.9464-1.1082 4.9464s-0.0822 0.52624-0.0822 0.67726c1.2e-4 5e-3 -3.4e-4 0.0168 0 0.0205 3.5e-4 1e-3 -4.5e-4 0.0192 0 0.0205 6.9e-4 1e-3 0.0198-9.2e-4 0.0206 0l0.24634 0.0204s1.1287-0.0821 1.1287-0.0821-0.12306 1.8267-0.12306 1.8267 0.0206 0.32841 0.0206 0.32841l-1.6214 0.1847c-0.6437 0-1.1157-0.10502-1.4572-0.32842-0.36118-0.23641-0.57145-0.54998-0.65683-0.94403-0.0131-0.0723-0.041-0.17739-0.041-0.32841 0-0.29554 0.0558-0.79553 0.24622-1.6625 0 0 0.86287-3.865 1.0468-4.6795h-1.1288l0.45158-2.0318h1.1287c0.10513-0.47293 0.47213-2.0935 0.47213-2.0935l1.9087-1.0057 0.77988-0.41049zm-75.632 0.0821h9.2359l-0.51312 2.2988h-6.7524c-0.10513 0.46631-0.52624 2.3545-0.67726 3.0376h5.8494l-0.51311 2.2987h-5.8495c-0.12466 0.57144-1.2519 5.6441-1.2519 5.6441h-2.4835l2.9555-13.279zm12.376 3.2428c0.0927-0.0113 0.19394 0 0.28732 0 0.59119 0 1.1371 0.17978 1.6625 0.5542l0.32841 0.22579s-1.2726 2.0934-1.2726 2.0934l-0.34884-0.24634c-0.25616-0.16415-0.53195-0.24623-0.82098-0.24623-0.24954 0-0.48195 0.0887-0.71836 0.24623-0.24953 0.16426-0.45809 0.38183-0.61573 0.67737-0.2759 0.50569-0.47784 1.0721-0.61573 1.6829l-1.1083 5.0489h-2.3807s2.196-9.8515 2.196-9.8515h2.2166s-0.0764 0.29873-0.10263 0.41037c0.10502-0.0788 0.21587-0.18709 0.30787-0.24622 0.31814-0.18984 0.65409-0.30833 0.98513-0.34896zm7.0604 0c0.14326-0.0109 0.28447 0 0.43092 0 1.3399 0 2.3537 0.46961 3.0171 1.3957 0.41369 0.59758 0.63617 1.3365 0.63617 2.2166 0 0.48594-0.0599 1.009-0.1847 1.5803l-0.1847 0.71836h-6.6909c-0.0131 0.13789-0.0206 0.28572-0.0206 0.41049 0 0.51231 0.10513 0.91538 0.32841 1.2109 0.10605 0.14452 0.22911 0.27465 0.3694 0.3694 0.2646 0.1726 0.60603 0.26688 1.0057 0.26688 0.48606 0 0.91299-0.1339 1.3135-0.38994 0.38093-0.24303 0.74553-0.63137 1.0673-1.1699h2.545l-0.22579 0.49257c-0.48595 0.98524-1.1641 1.7536-2.0114 2.2988-0.84723 0.54507-1.8595 0.84141-2.976 0.84141-1.4514 0-2.5319-0.4695-3.2017-1.3956-0.66333-0.90637-0.80625-2.1592-0.45158-3.7354 0.35467-1.6026 1.0624-2.8832 2.0935-3.7765 0.92417-0.80134 1.9729-1.2458 3.1402-1.3341zm10.693 0c0.14337-0.0109 0.28446 0 0.43103 0 1.3398 0 2.3537 0.46961 3.017 1.3957 0.4138 0.59758 0.63628 1.3365 0.63628 2.2166 0 0.47943-0.0599 0.99494-0.1847 1.5598 0 0-0.1847 0.73891-0.1847 0.73891h-6.691c-6e-3 0.0919-0.0139 0.17488-0.0204 0.26677-5e-3 0.0345 2e-3 0.0869 0 0.12317-2.3e-4 6e-3 0 0.0148 0 0.0205 0 0.0985 0.0139 0.19542 0.0204 0.28731 0.0329 0.37442 0.13059 0.6872 0.30798 0.9236 0.0337 0.046 0.0654 0.10274 0.10251 0.14372 0.30091 0.32179 0.72658 0.49256 1.2726 0.49256 0.48606 0 0.91949-0.1339 1.3135-0.38994 0.38093-0.24303 0.74541-0.63137 1.0672-1.1699h2.5656s-0.24622 0.49257-0.24622 0.49257c-0.48606 0.98524-1.1641 1.7536-2.0115 2.2988-0.84723 0.54507-1.8594 0.84141-2.9759 0.84141-1.4516 0-2.5319-0.4695-3.2018-1.3956-0.43343-0.59108-0.63628-1.3439-0.63628-2.2372 0-0.13789 7e-3 -0.28652 0.0205-0.43103 0.0264-0.34143 0.0789-0.68628 0.16426-1.0672 0.35467-1.596 1.0418-2.8832 2.0729-3.7765 0.92428-0.80134 1.9935-1.2458 3.1607-1.3341zm29.124 0c0.14668-0.0112 0.28161 0 0.43103 0 1.366 0 2.416 0.46219 3.0991 1.3752 0.67646 0.91287 0.84073 2.1443 0.49256 3.6943-0.26928 1.2085-0.65831 2.1846-1.1904 2.894-0.53194 0.70934-1.2101 1.2889-2.0114 1.6829-0.79472 0.39405-1.6362 0.59518-2.4835 0.59518-1.3923 0-2.4292-0.47612-3.0991-1.3956-0.43354-0.58446-0.65682-1.3373-0.65682-2.2372 0-0.48594 0.0534-1.0024 0.18481-1.5803 0.39405-1.7602 1.1986-3.1008 2.3807-3.9612 0.86778-0.62646 1.8261-0.98832 2.8529-1.0673zm36.061 0c0.17317-0.0106 0.33355 0 0.51311 0 0.8276 0 1.4778 0.0838 1.9704 0.28731 0.52544 0.21027 0.89815 0.50741 1.1083 0.86208 0.20353 0.33492 0.30787 0.7462 0.30787 1.252l-0.24634 1.4982-0.45147 2.0319c-0.38755 1.7338-0.47293 2.3841-0.49268 2.6271-0.0196 0.32841 0.0107 0.6486 0.10274 0.94414l0.16415 0.53355h-2.4218l-0.10262-0.30787c-0.0394-0.1444-0.028-0.3283-0.0411-0.49256-0.45969 0.28241-0.92029 0.53286-1.3341 0.67737-0.61071 0.21015-1.2446 0.3283-1.8882 0.3283-1.1165 0-1.9432-0.29063-2.4424-0.86196-0.38092-0.4203-0.55421-0.93433-0.55421-1.5188 0-0.22328 0.0297-0.4549 0.0822-0.69781 0.11164-0.49918 0.31438-0.96138 0.63617-1.3752 0.31529-0.40718 0.68799-0.7421 1.1084-0.98513 0.40718-0.24303 0.86116-0.4154 1.334-0.53366l1.4573-0.24622c1.1231-0.13139 1.9614-0.29474 2.5656-0.47213 0.0131-0.0656 0.041-0.14361 0.041-0.14361 0.0952-0.42258 0.0833-0.74027-0.0204-0.90305-8e-3 -0.0105-0.0325-0.0321-0.0411-0.0411-0.0222-0.0236-0.0563-0.0607-0.0821-0.0821-0.24702-0.19554-0.66824-0.28732-1.2315-0.28732-0.63708 0-1.1083 0.10422-1.4367 0.30787-0.3218 0.20353-0.61985 0.57624-0.88251 1.1083h-2.4835l0.22579-0.49257c0.29554-0.68308 0.64781-1.2495 1.0878-1.683 0.44006-0.43343 1.0344-0.76926 1.724-1.0057 0.52852-0.17442 1.1057-0.29017 1.724-0.32841zm10.406 0c0.0926-0.0113 0.19395 0 0.28732 0 0.59759 0 1.1575 0.17978 1.6829 0.5542l0.30786 0.22579-1.2724 2.0934-0.34896-0.24634c-0.25616-0.16415-0.51802-0.24623-0.80043-0.24623-0.24954 0-0.49588 0.0887-0.73891 0.24623-0.24953 0.16426-0.43103 0.38183-0.59518 0.67737-0.26929 0.50569-0.47773 1.0721-0.61573 1.6829l-1.1288 5.0489h-2.3807s2.196-9.8515 2.196-9.8515h2.2166s-0.0558 0.29873-0.0821 0.41037c0.10514-0.0788 0.20936-0.18709 0.30787-0.24622 0.313-0.18984 0.63388-0.30833 0.96469-0.34896zm7.0397 0c0.14326-0.0109 0.28447 0 0.43104 0 1.3398 0 2.3603 0.46961 3.017 1.3957 0.42042 0.59758 0.63628 1.3365 0.63628 2.2166 0 0.48594-0.0805 1.009-0.20524 1.5803l-0.16415 0.71836h-6.691c-0.0131 0.13789-0.041 0.28572-0.041 0.41049 0 0.51231 0.11164 0.91538 0.32841 1.2109 0.0337 0.046 0.0859 0.10274 0.12306 0.14372 0.0216 0.023 0.0594 0.0607 0.0822 0.0821 0.2936 0.26688 0.69313 0.41048 1.1904 0.41048 0.48594 0 0.91287-0.1339 1.3135-0.38994 0.38093-0.24303 0.7389-0.63137 1.0672-1.1699h2.5656l-0.24623 0.49257c-0.48605 0.98524-1.1707 1.7536-2.0115 2.2988-0.85374 0.54507-1.8529 0.84141-2.9759 0.84141-1.4514 0-2.5113-0.4695-3.1813-1.3956-0.66333-0.90637-0.82006-2.1592-0.47201-3.7354 0.35467-1.6026 1.0417-2.8832 2.0729-3.7765 0.93011-0.80134 1.9946-1.2458 3.1607-1.3341zm-35.938 0.18481h2.4423s0.30136 5.846 0.30786 5.9314c0.0985-0.20935 0.175-0.38549 0.18481-0.41049 0 0 2.6886-5.5209 2.6886-5.5209h2.2372s0.20524 5.7755 0.20524 5.8082c0.0656-0.11815 3.0581-5.8082 3.0581-5.8082h2.4218s-5.3362 9.8515-5.3362 9.8515h-2.1962s-0.21255-5.342-0.22568-5.6441c-0.90636 1.8587-2.7502 5.6441-2.7502 5.6441h-2.2577s-0.77988-9.8515-0.77988-9.8515zm-57.345 1.8676c-0.56573 0.0239-1.0795 0.22784-1.5598 0.61573-0.38093 0.30216-0.63788 0.71676-0.84153 1.1698 0 1.1e-4 4.0432 0 4.0432 0 7e-3 -0.0721 0.0205-0.16004 0.0205-0.22568 0-0.37442-0.0666-0.66505-0.18469-0.86207-0.28903-0.47282-0.71756-0.69781-1.3546-0.69781-0.0381 0-0.0854-2e-3 -0.12317 0zm10.693 0c-0.56573 0.0239-1.0796 0.22784-1.5599 0.61573-0.38092 0.30216-0.63126 0.71676-0.84152 1.1698 0 1.1e-4 4.0434 0 4.0434 0 6e-3 -0.0721 0.0204-0.16004 0.0204-0.22568 0-0.37442-0.0599-0.66505-0.1847-0.86207-0.0573-0.096-0.13492-0.19155-0.20524-0.26678-0.27419-0.28332-0.65158-0.43103-1.1494-0.43103-0.0381 0-0.0854-2e-3 -0.12306 0zm82.712 0c-0.58183 0.0179-1.1252 0.21495-1.6214 0.61573-0.37442 0.30216-0.63138 0.71676-0.84153 1.1698 0 1.1e-4 4.0228 0 4.0228 0 7e-3 -0.0721 0.0204-0.16004 0.0204-0.22568 0-0.37442-0.0599-0.66505-0.1847-0.86207-0.28241-0.46631-0.71744-0.69119-1.3546-0.69781-0.0188 2.3e-4 -0.0223-5.7e-4 -0.041 0zm-53.773 0.0411c-0.54291 0.0645-1.0477 0.31209-1.5188 0.73879-0.56482 0.51231-0.97439 1.3168-1.2109 2.3809-0.0985 0.44656-0.1436 0.8284-0.1436 1.1698 0 0.46631 0.0895 0.83251 0.26677 1.1083 0.0473 0.0709 0.10982 0.14566 0.16415 0.20524 0.292 0.31004 0.69975 0.47213 1.2109 0.47213 0.66334 0 1.2479-0.24713 1.8062-0.75945 0.56482-0.51881 0.96789-1.3316 1.2109-2.4218 0.22328-0.99826 0.19212-1.7437-0.12317-2.2166-0.30216-0.45968-0.74381-0.67726-1.3546-0.67726-0.10365 0-0.2073-0.012-0.30787 0zm37.087 3.5917c-0.55831 0.15113-1.1839 0.2783-2.0115 0.38994-0.61733 0.092-1.0574 0.18892-1.3135 0.28743-0.22328 0.0919-0.40307 0.21917-0.55409 0.38994-0.14452 0.16415-0.24143 0.33652-0.28732 0.53366-0.0131 0.0788-0.0205 0.16004-0.0205 0.22568 0 5e-3 -1.1e-4 0.0153 0 0.0205 6.9e-4 0.0156-2e-3 0.0465 0 0.0615 4e-3 0.0298 0.0123 0.0749 0.0205 0.10262 3e-3 9e-3 0.0171 0.0322 0.0204 0.0411 7e-3 0.0177 0.0116 0.0447 0.0205 0.0615 9e-3 0.0167 0.03 0.0457 0.0411 0.0616 0.0172 0.0236 0.0406 0.0599 0.0615 0.0821 0.16426 0.1839 0.49176 0.26678 0.96469 0.26678 0.51882 0 1.018-0.0985 1.4777-0.3283 0.45318-0.2234 0.81846-0.55672 1.0877-0.94415 0.19703-0.27591 0.35467-0.70032 0.49268-1.252zm-110.48-17.13 12.974-56.872h7.6323l-11.491 50.432h29.633l-1.4828 6.4398h-37.266" fill="#008033" fill-rule="evenodd"/>
</g>
</g>
</svg>
