<svg width="256.324" height="110.914" viewBox="0 0 67.818619 29.346104" xmlns="http://www.w3.org/2000/svg">
    <g fill-rule="evenodd">
        <path d="M37.719 17.782h-.001a.55.55 0 0 0-.358.132.66.66 0 0 0-.182.248h.006a.672.672 0 0 1 .18-.248.556.556 0 0 1 .355-.132zm.004 0h-.004c.136.002.225.048.286.147.026.042.04.105.04.185 0 .014-.003.032-.004.048h.006l.002-.048a.352.352 0 0 0-.039-.185c-.06-.1-.151-.147-.287-.147z" fill="#bd0000"/>
        <path d="M.003 29.357h1.045l.469-1.96h1.697l.219-.84H1.728l.283-1.261h1.814l.219-.98H1.179l-1.176 5.04zm4.687.001l.313-1.317c.165-.712.514-1.344 1.174-1.344.058 0 .116.03.16.036l.254-1.01c-.059 0-.123-.006-.196-.006-.486 0-.893.341-1.165.831h-.028c.04-.239.075-.466.102-.691h-.9c-.052.29-.132.86-.254 1.375l-.513 2.126H4.69zm4.646-.945c-.29.141-.62.105-1.005.105-.304 0-.54-.054-.668-.157a.813.813 0 0 1-.09-.404c1.419.038 2.314-.29 2.359-1.186.033-.676-.461-1.054-1.18-1.054-1.283 0-2.123 1.131-2.178 2.22-.047.952.446 1.42 1.463 1.42.39 0 .909-.044 1.333-.171l-.034-.773zm-.383-1.642c-.017.333-.429.353-1.24.346.088-.293.385-.56.871-.56.24 0 .377.09.369.214zm4.096 1.642c-.29.141-.62.105-1.004.105-.305 0-.54-.054-.668-.157a.815.815 0 0 1-.091-.404c1.42.038 2.313-.29 2.36-1.186.033-.676-.461-1.054-1.18-1.054-1.284 0-2.124 1.131-2.179 2.22-.046.952.447 1.42 1.462 1.42.392 0 .91-.044 1.335-.171l-.035-.773zm-.382-1.642c-.017.333-.429.353-1.241.346.09-.293.385-.56.87-.56.24 0 .38.09.37.214zm5.788 2.587c.008-.444.115-1.142.225-1.6l.45-1.901c-.286-.097-.731-.14-1.16-.14-1.74 0-2.602 1.288-2.662 2.495-.038.758.372 1.146 1.011 1.146.413 0 .88-.2 1.242-.803h.016c-.028.29-.062.572-.08.803h.958zm-.719-2c-.204.89-.622 1.16-.932 1.16-.29 0-.416-.206-.4-.506.034-.676.569-1.455 1.244-1.455.11 0 .195-.02.275-.04l-.187.841zm1.404 1.835c.202.157.625.158 1.066.165.942.007 1.654-.405 1.696-1.161.024-.504-.367-.803-.75-1.003-.275-.133-.414-.26-.407-.409.01-.2.198-.228.473-.228.311 0 .56.038.704.066l.282-.76c-.16-.096-.483-.146-.896-.146-.914 0-1.584.483-1.622 1.217-.022.453.304.759.7.966.318.164.428.29.42.468-.01.179-.17.15-.46.15-.34 0-.717-.045-.916-.076l-.29.75zm5.588.165l.847-3.502h-1.038l-.852 3.502h1.043zm.486-3.922c.356 0 .672-.294.692-.798.017-.342-.205-.462-.531-.462-.34 0-.651.221-.67.552-.016.333.205.708.509.708zm1.516 3.921l.37-1.577c.193-.802.606-1.084.946-1.084.269 0 .347.115.335.282a2.503 2.503 0 0 1-.056.402l-.47 1.977h1.044l.496-2.074c.038-.18.08-.447.088-.609.03-.632-.284-.861-.864-.861-.465 0-.918.215-1.275.683h-.014l.096-.64h-.922c-.06.3-.137.662-.246 1.085l-.572 2.416h1.045zm4.497 0h1.045l.47-1.96h1.696l.219-.84h-1.705l.283-1.261h1.814l.218-.98h-2.864l-1.176 5.041zm4.686.001l.314-1.317c.165-.712.514-1.344 1.173-1.344.06 0 .117.03.16.036l.255-1.01c-.059 0-.123-.006-.196-.006-.486 0-.894.341-1.165.831h-.028c.04-.239.075-.466.102-.691h-.9c-.051.29-.132.86-.254 1.375l-.513 2.126h1.052zm4.647-.945c-.29.141-.62.105-1.005.105-.304 0-.54-.054-.669-.157a.813.813 0 0 1-.09-.404c1.42.038 2.315-.29 2.36-1.186.033-.676-.461-1.054-1.18-1.054-1.283 0-2.123 1.131-2.178 2.22-.047.952.447 1.42 1.462 1.42.391 0 .91-.044 1.334-.171l-.034-.773zm-.384-1.642c-.016.333-.428.353-1.24.346.09-.293.386-.56.872-.56.24 0 .377.09.368.214zm4.097 1.642c-.29.141-.62.105-1.004.105-.306 0-.54-.054-.668-.157a.815.815 0 0 1-.091-.404c1.42.038 2.313-.29 2.36-1.186.033-.676-.461-1.054-1.18-1.054-1.284 0-2.124 1.131-2.18 2.22-.045.952.448 1.42 1.463 1.42.392 0 .91-.044 1.335-.171l-.035-.773zm-.383-1.642c-.016.333-.428.353-1.24.346.09-.293.385-.56.87-.56.24 0 .379.09.37.214zm4.535-2.595l-.394 1.59c-.143-.058-.33-.05-.475-.05-1.342 0-2.291 1.149-2.354 2.392-.042.877.426 1.25 1.028 1.25.421 0 .865-.187 1.202-.668h.014l-.08.668h.95c.043-.42.134-.92.236-1.377l.909-3.805h-1.036zm-.818 3.42c-.164.69-.55.921-.856.921-.304 0-.473-.211-.452-.588.035-.697.514-1.372 1.137-1.372.175 0 .325.026.407.065l-.236.974zm3.2 1.762c1.218 0 2.158-.923 2.224-2.18.04-.831-.478-1.461-1.434-1.461-1.264 0-2.17 1.022-2.233 2.257-.043.9.537 1.384 1.443 1.384zm.164-.84c-.356 0-.552-.227-.531-.566.028-.565.377-1.395.977-1.395.415 0 .542.318.526.63-.031.616-.407 1.33-.972 1.33zm3.358.84l.378-1.6c.158-.712.553-1.201.908-1.201.255 0 .325.186.312.43a2.846 2.846 0 0 1-.064.407l-.468 1.964h1.008l.378-1.606c.174-.736.547-1.195.894-1.195.24 0 .339.17.328.414a2.274 2.274 0 0 1-.073.439l-.454 1.948h1.015l.49-2.074c.037-.187.08-.476.087-.625.031-.616-.27-.942-.813-.942-.465 0-.918.21-1.26.652-.013-.32-.242-.652-.807-.652-.458 0-.895.207-1.246.676h-.014l.094-.536h-.899c-.059.3-.13.662-.24 1.085l-.562 2.416h1.008z" fill="#008033" stroke-width="1pt"/>
    </g>
    <path d="M41.295 19.96c.057.146.114.292.173.434.091.194.197.38.323.553.685.93 1.832 1.44 3.287 1.567h1.566c.495-.038 1.014-.11 1.552-.216a19.58 19.58 0 0 0 2.932-.832 26.217 26.217 0 0 0 2.375-1.003 33.594 33.594 0 0 0 5.351-3.24 35.52 35.52 0 0 0 3.113-2.576c1.266-1.22 2.222-2.46 2.763-3.548.564-1.133.676-2.102.215-2.713-.284-.374-.757-.575-1.367-.622 2.748-2.062 4.35-4.563 3.775-6.14-.183-.504-.584-.88-1.16-1.087a3.379 3.379 0 0 0-.858-.177h-.845c-1.181.085-2.899.508-4.355 1.222" stroke="#007f32" stroke-width=".7" fill="none"/>
    <path d="M6.403.908L1.696 22.16H45.22c-1.396-.121-2.498-.612-3.155-1.505a3.18 3.18 0 0 1-.31-.53 18.273 18.273 0 0 1-.163-.416 4.213 4.213 0 0 1-.17-1.466c.07-1.468.758-3.214 1.952-5.042 1.267-1.943 3.104-3.98 5.379-5.87a36.05 36.05 0 0 1 1.589-1.247 34.079 34.079 0 0 1 2.057-1.396c2.533-1.595 5.06-2.711 7.3-3.278-2.14.698-4.544 1.883-6.92 3.497l-.254.175a30.922 30.922 0 0 0-3.554 2.863c-3.353 3.152-5.125 6.419-4.32 8.333.058.132.126.257.206.376.866 1.273 3.011 1.493 5.73.81.184-.046.37-.099.56-.153.868-.25 1.79-.59 2.74-1.007a26.803 26.803 0 0 0 .761-.35c2.997-1.49 5.3-3.203 5.8-4.232.109-.224.135-.415.06-.565-.355-.721-2.844-.234-5.86 1.072-.242.105-.487.213-.735.329a21.217 21.217 0 0 1 1.698-1.427c.59-.447 1.186-.85 1.773-1.208C60.13 7.85 61.52 5.89 61.23 5.162c-.055-.137-.171-.232-.35-.289-.573-.182-1.619.035-2.889.556-1.048.43-2.25 1.067-3.47 1.86l-.167.11-.03.017-.587.39.337-.618c.5-.915 1.314-1.87 2.328-2.757a16.54 16.54 0 0 1 2.508-1.794 14.859 14.859 0 0 1 2.092-1.025c1.005-.397 2.11-.9 2.946-.965-.076 0-2.495.26-2.495.26H6.404zm34.557.03c-.137 2.095.27 5.164 1.19 8.57a46.06 46.06 0 0 0 .915 2.985c-.075.111-.151.222-.223.333-1.15 1.762-1.822 3.427-1.991 4.875a30.02 30.02 0 0 1-1.06-5.3 32.237 32.237 0 0 1-.135-1.606c-.227-3.844.275-7.328 1.304-9.857zM18.012 3.665h5.257c.443 0 .785.083 1.029.25.242.167.333.384.275.647l-.617 2.788h-1.825l.6-2.713h-4.57l-1.65 7.458-.595 2.7h4.565l.004-.017.915-4.132h-2.144l.205-.932h3.97l-1.138 5.155a.729.729 0 0 1-.079.206c-.094.17-.257.317-.486.438-.316.166-.695.25-1.138.25h-5.173c-.443 0-.785-.084-1.029-.25-.242-.167-.334-.38-.275-.644l2.28-10.307c.059-.263.242-.48.56-.648.011-.006.024-.007.035-.013.29-.145.63-.227 1.024-.236zm8.115 0h6.517c.437 0 .78.083 1.024.25.245.167.34.384.28.647l-1.217 5.497c-.057.262-.245.476-.564.644-.32.168-.695.254-1.134.254h-4.735l-.915 4.127-.149.678h-1.786l.136-.612 2.543-11.485zm9.003 0h1.786L34.894 12.8l-.442 1.996h4.271c.045.328.098.65.154.967h-6.425l.507-2.293 2.171-9.804zm-7.432.972l-1.186 5.348h4.451l1.182-5.348h-4.447zM18.207 17.26h.052c.208 0 .389.036.534.105a.634.634 0 0 1 .328.324c.06.138.076.296.044.468l-.013.066h-.512l.004-.062c.014-.12-.001-.215-.048-.28a.295.295 0 0 0-.022-.026.285.285 0 0 0-.043-.035.632.632 0 0 0-.329-.07c-.192 0-.335.033-.433.1-.095.067-.155.14-.175.228-.02.09.013.137.035.162l.004.005c.029.024.127.08.434.153.277.067.46.127.564.18.157.08.267.183.324.31a.68.68 0 0 1 .035.433.988.988 0 0 1-.232.434c-.116.134-.264.24-.442.315a1.49 1.49 0 0 1-.569.114c-.252 0-.454-.039-.613-.114a.706.706 0 0 1-.354-.364.892.892 0 0 1-.044-.53l.013-.06h.504l-.005.06c-.012.117 0 .21.03.281a.34.34 0 0 0 .176.166c.095.047.214.07.35.07.122 0 .233-.02.333-.057a.587.587 0 0 0 .232-.14.389.389 0 0 0 .1-.188c.014-.06.011-.111-.013-.153-.026-.045-.08-.085-.162-.118l-.429-.127c-.24-.06-.4-.118-.494-.175a.613.613 0 0 1-.267-.29.623.623 0 0 1-.022-.38.927.927 0 0 1 .214-.416 1.08 1.08 0 0 1 .43-.293c.152-.057.312-.09.48-.096zm4.595.009c.028-.003.054 0 .083 0l.316.035.105.008-.154.39-.03.061-.24-.022c-.072 0-.124.011-.158.035l-.01.009a.163.163 0 0 0-.017.018.414.414 0 0 0-.065.166l-.018.07h.376l-.096.433h-.367l-.372 1.668h-.508l.372-1.668h-.293l.096-.433h.289a4.2 4.2 0 0 1 .035-.136c.03-.14.063-.24.105-.31a.66.66 0 0 1 .551-.324zm1.213.021l-.167.749h.329l-.097.433h-.328l-.236 1.055s-.018.112-.018.144v.009h.005l.052.005.24-.018-.025.39.004.07-.346.039a.561.561 0 0 1-.31-.07.31.31 0 0 1-.14-.201c-.003-.016-.01-.038-.01-.07 0-.063.013-.17.053-.355l.223-.998h-.24l.096-.433h.24l.101-.447.407-.214.167-.088zm-16.129.018h1.97l-.11.49h-1.44l-.144.648h1.247l-.11.49H8.053c-.026.122-.267 1.204-.267 1.204h-.53l.631-2.832zm2.64.692c.02-.003.04 0 .06 0 .127 0 .243.038.355.118l.07.048-.271.446-.075-.052a.32.32 0 0 0-.175-.053.273.273 0 0 0-.153.053.387.387 0 0 0-.131.144 1.383 1.383 0 0 0-.132.36l-.236 1.076H9.33l.469-2.101h.472l-.021.087c.022-.016.046-.04.065-.052a.541.541 0 0 1 .21-.075zm1.505 0c.03-.003.06 0 .092 0 .286 0 .502.1.643.297a.812.812 0 0 1 .136.473c0 .103-.013.215-.04.337l-.039.153h-1.427a.966.966 0 0 0-.004.088c0 .109.022.195.07.258a.37.37 0 0 0 .079.079.393.393 0 0 0 .214.056.505.505 0 0 0 .28-.083.739.739 0 0 0 .228-.25h.543l-.049.106a1.2 1.2 0 0 1-.428.49 1.16 1.16 0 0 1-.635.18c-.31 0-.54-.1-.683-.298-.141-.193-.172-.46-.096-.797.075-.341.226-.615.446-.805.197-.17.421-.266.67-.284zm2.28 0c.03-.003.06 0 .092 0 .286 0 .502.1.644.297a.812.812 0 0 1 .135.473c0 .102-.013.212-.04.332l-.039.158h-1.426l-.005.057v.031c0 .02.003.041.005.06.007.08.027.147.065.198.007.01.014.022.022.03a.355.355 0 0 0 .271.105.502.502 0 0 0 .28-.083.739.739 0 0 0 .228-.25h.547l-.052.106c-.104.21-.248.374-.43.49a1.16 1.16 0 0 1-.634.18c-.31 0-.54-.1-.683-.298a.787.787 0 0 1-.135-.477 1.586 1.586 0 0 1 .04-.32c.075-.34.221-.615.441-.805a1.15 1.15 0 0 1 .674-.285zm6.21 0c.032-.003.061 0 .093 0 .291 0 .515.098.66.293.145.194.18.457.106.788-.058.257-.14.465-.254.617a1.196 1.196 0 0 1-.959.486c-.297 0-.518-.102-.66-.298a.783.783 0 0 1-.14-.477c0-.104.01-.214.039-.337.084-.376.255-.661.508-.845.185-.133.389-.21.608-.227zm7.69 0c.038-.003.072 0 .11 0 .177 0 .315.017.42.06a.465.465 0 0 1 .237.185.505.505 0 0 1 .066.267l-.053.32-.096.432c-.083.37-.101.509-.105.56a.564.564 0 0 0 .022.202l.035.114h-.517l-.022-.066c-.008-.03-.006-.07-.009-.105-.098.06-.196.114-.284.145-.13.044-.265.07-.403.07-.238 0-.414-.062-.52-.184a.465.465 0 0 1-.119-.324.73.73 0 0 1 .153-.442.82.82 0 0 1 .237-.21c.087-.052.183-.089.284-.114l.311-.053a3.41 3.41 0 0 0 .547-.1.26.26 0 0 1 .009-.03c.02-.091.018-.159-.004-.194l-.01-.008-.017-.018c-.052-.041-.142-.061-.262-.061a.582.582 0 0 0-.307.066.571.571 0 0 0-.188.236h-.53l.049-.105a1.12 1.12 0 0 1 .232-.359.967.967 0 0 1 .367-.214c.113-.038.236-.062.368-.07zm2.22 0c.02-.003.041 0 .061 0 .128 0 .247.038.36.118l.065.048-.272.446-.074-.052a.31.31 0 0 0-.17-.053.29.29 0 0 0-.158.053.389.389 0 0 0-.127.144 1.438 1.438 0 0 0-.131.36l-.241 1.076h-.508l.468-2.101h.473l-.017.087c.022-.016.044-.04.065-.052a.517.517 0 0 1 .206-.075zm1.501 0c.03-.003.06 0 .092 0 .286 0 .503.1.644.297a.8.8 0 0 1 .135.473c0 .103-.017.215-.044.337l-.035.153h-1.426c-.003.03-.01.061-.01.088 0 .109.025.195.07.258l.027.03a.365.365 0 0 0 .271.105.506.506 0 0 0 .28-.083.753.753 0 0 0 .228-.25h.547l-.052.106a1.21 1.21 0 0 1-.43.49 1.16 1.16 0 0 1-.634.18c-.31 0-.535-.1-.678-.298-.142-.193-.175-.46-.1-.797.075-.341.221-.614.441-.805a1.15 1.15 0 0 1 .674-.284zm-7.664.039h.521l.066 1.265.04-.088.573-1.177h.477l.044 1.239.652-1.24h.516L26.02 20.14h-.468l-.048-1.204-.587 1.204h-.481l-.167-2.101zm-12.228.398a.555.555 0 0 0-.333.131.645.645 0 0 0-.18.25h.863c.001-.015.004-.034.004-.048a.362.362 0 0 0-.04-.184c-.06-.1-.152-.149-.288-.149h-.026zm2.28 0a.555.555 0 0 0-.333.131.66.66 0 0 0-.18.25h.863c.001-.015.004-.034.004-.048a.348.348 0 0 0-.039-.184.351.351 0 0 0-.044-.057.324.324 0 0 0-.245-.092h-.026zm17.638 0a.566.566 0 0 0-.346.131.675.675 0 0 0-.179.25h.858c.001-.015.004-.034.004-.048a.348.348 0 0 0-.04-.184c-.06-.1-.152-.147-.288-.149h-.009zm-11.467.009a.581.581 0 0 0-.324.157c-.12.11-.208.281-.258.508a1.16 1.16 0 0 0-.03.25c0 .1.018.177.056.236.01.015.024.031.035.044.063.066.15.1.259.1a.552.552 0 0 0 .385-.161c.12-.111.206-.284.258-.517.048-.213.04-.372-.026-.473-.065-.098-.159-.144-.29-.144-.021 0-.043-.003-.065 0zm7.909.766a3.29 3.29 0 0 1-.429.083c-.132.02-.226.04-.28.061a.312.312 0 0 0-.118.083.259.259 0 0 0-.062.114.308.308 0 0 0-.004.048v.018c0 .006.003.016.004.022l.005.009c.001.003.002.01.004.013l.009.013.013.017c.035.04.105.057.206.057.11 0 .217-.02.315-.07a.613.613 0 0 0 .232-.201.818.818 0 0 0 .105-.267zM4.84 15.559L7.607 3.43h1.627l-2.45 10.755h6.32l-.317 1.373H4.84" fill="#008033" fill-rule="evenodd"/>
</svg>
