<svg xmlns="http://www.w3.org/2000/svg" height="105.67" width="541.49" xmlns:xlink="http://www.w3.org/1999/xlink" viewBox="0 0 541.49461 105.67179">
    <title>
        LibreOffice external Logo
    </title>
    <defs>
        <linearGradient id="a">
            <stop stop-color="#666" offset="0"/>
            <stop stop-color="#333" offset="1"/>
        </linearGradient>
        <linearGradient id="j" x1="121.31" xlink:href="#a" gradientUnits="userSpaceOnUse" y1="976.38" gradientTransform="translate(0 -.106)" x2="121.31" y2="992.42"/>
        <linearGradient id="k" x1="110.97" xlink:href="#a" gradientUnits="userSpaceOnUse" y1="976.3" gradientTransform="matrix(1.004 0 0 1.0096 -1.5 -9.366)" x2="110.97" y2="992.38"/>
        <linearGradient id="l" x1="294.34" gradientUnits="userSpaceOnUse" y1="256.58" gradientTransform="matrix(7.979 0 0 8.0124 -2383.6 -3106.5)" x2="294.42" y2="243.14">
            <stop stop-color="#B3B3B3" offset="0"/>
            <stop stop-color="#E6E6E6" offset="1"/>
        </linearGradient>
        <linearGradient id="m" x1="209.06" gradientUnits="userSpaceOnUse" y1="-765.46" gradientTransform="matrix(4 0 0 4 -875 1971.9)" x2="209.06" y2="-781.62">
            <stop stop-color="#FFF" stop-opacity=".588" offset="0"/>
            <stop stop-color="#FFF" stop-opacity=".863" offset="1"/>
        </linearGradient>
        <linearGradient id="n" x1="78.822" xlink:href="#b" gradientUnits="userSpaceOnUse" y1="-1194.6" gradientTransform="rotate(45 -301.58 -1986.094) scale(.52407 1)" x2="144" y2="-1194.6"/>
        <linearGradient id="b">
            <stop stop-opacity="0" offset="0"/>
            <stop offset=".493"/>
            <stop stop-opacity="0" offset="1"/>
        </linearGradient>
        <linearGradient id="o" x1="30.744" xlink:href="#b" gradientUnits="userSpaceOnUse" y1="-1194.6" gradientTransform="rotate(45 -322.1 -1977.594) scale(.52407 1)" x2="144" y2="-1194.6"/>
        <linearGradient id="p" x1="-17" xlink:href="#b" gradientUnits="userSpaceOnUse" y1="-1194.6" gradientTransform="matrix(.67702 0 0 .99998 -1170.1 1881.6)" x2="144" y2="-1194.6"/>
        <linearGradient id="q" x1="-17" xlink:href="#b" gradientUnits="userSpaceOnUse" y1="-1194.6" gradientTransform="matrix(.34162 0 0 .99998 619.81 2262.3)" x2="144" y2="-1194.6"/>
        <linearGradient id="r" x1="152" xlink:href="#c" gradientUnits="userSpaceOnUse" y1="-1192.6" gradientTransform="translate(622.69 -608.23) scale(.39024)" x2="113.88" y2="-1230.8"/>
        <linearGradient id="c">
            <stop offset="0"/>
            <stop stop-opacity=".361" offset=".455"/>
            <stop stop-opacity="0" offset="1"/>
        </linearGradient>
        <linearGradient id="s" x1="152" xlink:href="#c" gradientUnits="userSpaceOnUse" y1="-1192.6" gradientTransform="translate(-659.32 -608.23) scale(.39024)" x2="113.88" y2="-1230.8"/>
        <linearGradient id="t" x1="364.87" gradientUnits="userSpaceOnUse" y1="300.82" gradientTransform="matrix(1 0 0 -1 -1049 -880.59)" x2="377.85" y2="287.83">
            <stop offset="0"/>
            <stop stop-opacity="0" offset="1"/>
        </linearGradient>
        <linearGradient id="u" x1="30.744" gradientUnits="userSpaceOnUse" y1="-1194.6" gradientTransform="rotate(45 -329.135 -1977.508) scale(.52407 1)" x2="144" y2="-1194.6">
            <stop stop-opacity="0" offset="0"/>
            <stop offset=".493"/>
            <stop stop-opacity="0" offset="1"/>
        </linearGradient>
        <linearGradient id="v" x1="-17" xlink:href="#b" gradientUnits="userSpaceOnUse" y1="-1194.6" gradientTransform="matrix(.52172 0 0 1 -674.13 121.99)" x2="144" y2="-1194.6"/>
        <linearGradient id="g" x1="158.49" xlink:href="#d" gradientUnits="userSpaceOnUse" x2="158.49" y1="2022.2" y2="1982.2"/>
        <linearGradient id="d">
            <stop stop-color="#333" offset="0"/>
            <stop stop-color="gray" offset="1"/>
        </linearGradient>
        <filter id="f" color-interpolation-filters="sRGB">
            <feGaussianBlur stdDeviation="1" result="result8"/>
            <feOffset result="result11" dx="1" dy="1"/>
            <feComposite operator="in" result="result6" in2="result11" in="SourceGraphic"/>
            <feFlood result="result10" flood-color="#333"/>
            <feBlend result="result12" in2="result10" in="result6"/>
            <feComposite operator="in" result="result2" in2="SourceGraphic"/>
        </filter>
        <linearGradient id="e">
            <stop stop-color="#18a303" offset="0"/>
            <stop stop-color="#92e285" offset="1"/>
        </linearGradient>
        <filter id="h" color-interpolation-filters="sRGB">
            <feGaussianBlur stdDeviation="1" result="result8"/>
            <feOffset result="result11" dx="1" dy="1"/>
            <feComposite operator="in" result="result6" in2="result11" in="SourceGraphic"/>
            <feFlood flood-color="#106802" result="result10"/>
            <feBlend in="result6" in2="result10" result="result12"/>
            <feComposite operator="in" result="result2" in2="SourceGraphic"/>
        </filter>
        <linearGradient id="i" x1="160.77" xlink:href="#e" gradientUnits="userSpaceOnUse" x2="160.77" y1="2011.2" y2="1972.8"/>
    </defs>
    <g font-size="67.562">
        <g filter="url(#f)" fill="url(#g)" transform="matrix(1.34862 0 0 1.35424 -39.177 -2639.54)">
            <path d="M273.62 1975c-12.16 0-22.16 8.85-22.16 23.58 0 14.728 10 23.578 22.16 23.578s22.16-8.85 22.16-23.58c0-14.728-10-23.578-22.16-23.578m0 4.594c9.053 0 15.945 6.756 15.945 18.985s-6.89 18.984-15.945 18.984c-9.053 0-15.945-6.756-15.945-18.985s6.89-18.986 15.945-18.986m30.81 7.108v2.095h-5.337v4.323h5.337v28.377h5.675v-28.376h8.378v-4.325h-8.378v-2.973c0-5.878 2.5-9.324 7.027-9.324 2.094 0 3.445.338 4.73.81l.54-4.188c-1.216-.473-3.514-.946-5.338-.946-8.04 0-12.634 5.202-12.634 14.526"/>
            <path d="M323.3 1986.7v2.095h-5.337v4.323h5.337v28.377h5.675v-28.376h8.378v-4.325h-8.378v-2.973c0-5.878 2.5-9.324 7.027-9.324 2.094 0 3.445.338 4.73.81l.54-4.188c-1.217-.473-3.514-.946-5.338-.946-8.04 0-12.634 5.202-12.634 14.526m20.63 34.801h5.675v-32.7h-5.675v32.7m2.838-37.497c1.96 0 3.513-1.554 3.513-3.513s-1.553-3.513-3.512-3.513-3.514 1.553-3.514 3.513 1.554 3.513 3.514 3.513M361.4 2005c0-8.243 4.932-12.567 11.35-12.567 3.378 0 6.35.81 8.783 1.96l.54-4.325c-2.026-1.013-5.27-1.96-8.85-1.96-10.134 0-17.77 6.15-17.77 17.635 0 10.81 6.892 16.418 16.013 16.418 4.054 0 6.96-.472 10.27-1.89l-.542-4.325a21.36 21.36 0 0 1-8.715 1.892c-6.555 0-11.08-4.12-11.08-12.837m52.691 1.499c.135-1.216.203-2.23.203-3.243 0-8.378-4.392-15.066-12.837-15.066-9.12 0-15.81 7.568-15.81 17.635 0 11.08 6.688 16.418 15.81 16.418 4.053 0 7.094-.608 10.27-1.892l-.542-4.323c-2.5 1.216-6.08 1.892-8.918 1.892-6.554 0-10.81-3.987-10.945-11.42h22.77m-13.107-13.984c5 0 7.702 4.12 7.702 9.526h-17.093c.81-5.742 3.986-9.526 9.39-9.526"/>
        </g>
        <path d="M103.62 1975.7v45.807h29.66v-6.96h-20.607V1975.7h-9.053m35.13 45.8h9.053v-32.97h-9.053v32.97m4.527-35.808c2.837 0 5.202-2.297 5.202-5.202 0-2.838-2.366-5.203-5.203-5.203-2.905 0-5.203 2.365-5.203 5.203a5.162 5.162 0 0 0 5.203 5.202m20.294 6.708h-.135v-19.526h-9.054v48.645h8.852l.203-3.852h.135c2.838 3.175 5.675 4.527 10.337 4.527 8.783 0 14.593-7.905 14.593-17.77 0-9.526-5.202-16.552-14.188-16.552-4.797 0-7.635 1.418-10.742 4.526m-.135 11.89c0-5.675 2.567-9.458 7.432-9.458 5.405 0 8.107 3.85 8.107 10.134 0 6.215-2.635 10.27-7.972 10.27-4.662 0-7.567-3.65-7.567-9.46v-1.486m49.354-16.388c-4.324.27-8.445 2.905-10.337 6.553h-.135l-.203-5.877h-8.85v32.97h9.053v-12.43c0-6.622 1.216-8.987 3.31-10.473 1.825-1.284 3.987-1.825 6.96-1.96l.202-8.783m33.31 15.2c0-8.175-5-15.202-13.648-15.202-10.405 0-17.093 7.162-17.093 18.04 0 10.606 6.89 16.282 17.092 16.282 4.797 0 8.175-.743 11.35-2.162l-.946-6.756c-2.973 1.216-6.013 1.96-9.256 1.96-5.472 0-8.986-2.5-9.323-7.636h21.417c.27-1.216.405-3.107.405-4.526m-14.594-8.243c3.918 0 5.743 3.176 5.878 6.554h-12.77c.676-3.783 3.31-6.553 6.892-6.553" filter="url(#h)" fill="url(#i)" transform="matrix(1.34862 0 0 1.35424 -39.177 -2639.54)"/>
    </g>
    <g color="#000">
        <path style="text-transform:none;text-indent:0" fill="url(#j)" d="M111 977.12v14.502c0 .524.226.75.75.75h11.5c.524 0 .75-.226.75-.75v-8.98a1.013 1.013 0 0 0-.28-.72l-5.272-5.27a1.012 1.012 0 0 0-.718-.282h-5.98c-.52 0-.752.436-.75.75z" transform="matrix(6.1537 0 0 6.15154 -683.065 -6006.208)"/>
        <path style="text-transform:none;text-indent:0" fill="url(#k)" d="M120.33 976.38c-.333.107-.445.613-.188.852l3.012 3.03c.278.264.832.037.847-.348v-3.03a.523.523 0 0 0-.5-.504h-3.013a.516.516 0 0 0-.157 0z" transform="matrix(6.1537 0 0 6.15154 -683.065 -6006.208)"/>
    </g>
    <path style="text-transform:none;text-indent:0" fill="url(#l)" d="M-45-1160.6v116h91.998v-72.875l-.625-.625-41.75-42-.5-.5H-45z" color="#000" transform="translate(39.228 897.414) scale(.76924)"/>
    <path fill="url(#m)" d="M-41-1156.6H1.234l41.764 42v66H-41v-108z" transform="translate(39.228 897.414) scale(.76924)"/>
    <g color="#000">
        <path opacity=".25" d="M-618.3-1183.5l23.662 23.662-.707.707-23.662-23.663z" fill="url(#n)" transform="translate(533.08 915.883) scale(.76924)"/>
        <path opacity=".25" d="M-636.3-1184.5l41.662 41.662-.707.707-41.662-41.663z" fill="url(#o)" transform="translate(533.08 915.883) scale(.76924)"/>
        <path opacity=".25" transform="rotate(90 -191.402 724.482) scale(.76924)" fill="url(#p)" d="M-1181.6 687h109v1h-109z"/>
        <path opacity=".25" transform="rotate(180 266.54 457.942) scale(.76924)" fill="url(#q)" d="M614 1067.6h55v1h-55z"/>
        <path opacity=".15" transform="matrix(-.76924 0 0 .76924 533.08 915.883)" fill="url(#r)" d="M650-1105.6h32v32h-32z"/>
        <path opacity=".15" fill="url(#s)" d="M-632-1105.6h32v32h-32z" transform="translate(533.08 915.883) scale(.76924)"/>
        <path opacity=".1" d="M-684-1156.6v-25h25v1h-24v24z" fill="url(#t)" transform="translate(533.08 915.883) scale(.76924)"/>
        <path opacity=".1" d="M-638.3-1179.5l41.662 41.662-.707.707-41.662-41.663z" fill="url(#u)" transform="translate(533.08 915.883) scale(.76924)"/>
        <path opacity=".2" fill="url(#v)" d="M-683-1072.6h83.997v1H-683z" transform="translate(533.08 915.883) scale(.76924)"/>
    </g>
    <path d="M532.01 36.294c-.833 0-1.608.15-2.326.448-.72.3-1.377.747-1.974 1.345a6.164 6.164 0 0 0-1.354 1.992 5.933 5.933 0 0 0-.458 2.326c0 .82.153 1.592.458 2.317a6.227 6.227 0 0 0 1.354 1.973 6.226 6.226 0 0 0 1.974 1.354 5.97 5.97 0 0 0 2.326.448c.84 0 1.618-.15 2.336-.448a6.194 6.194 0 0 0 1.983-1.354 5.93 5.93 0 0 0 1.324-1.964c.3-.718.45-1.494.45-2.326 0-.846-.15-1.627-.45-2.346a6.1 6.1 0 0 0-1.325-1.973 6.065 6.065 0 0 0-1.984-1.345 6.023 6.023 0 0 0-2.336-.448m0-.982a6.9 6.9 0 0 1 2.698.524 7.1 7.1 0 0 1 2.298 1.564 7.017 7.017 0 0 1 1.554 2.288c.344.833.515 1.74.515 2.718a7.01 7.01 0 0 1-.515 2.698c-.343.826-.86 1.586-1.554 2.28a7.102 7.102 0 0 1-2.298 1.563 6.9 6.9 0 0 1-2.698.524 6.97 6.97 0 0 1-2.708-.523 7.13 7.13 0 0 1-2.288-1.564c-.693-.693-1.21-1.453-1.554-2.28a7.01 7.01 0 0 1-.515-2.697c0-.98.172-1.885.515-2.718a6.986 6.986 0 0 1 1.554-2.288 7.132 7.132 0 0 1 2.288-1.564 6.97 6.97 0 0 1 2.708-.524m-.257 3.947h-1.173v2.63h1.173c.7 0 1.185-.098 1.458-.295.28-.197.42-.534.42-1.01 0-.484-.14-.824-.42-1.02-.278-.204-.765-.306-1.457-.306m.066-.983c1.118 0 1.954.19 2.507.572.553.374.83.946.83 1.715 0 .547-.17.998-.506 1.354-.33.355-.8.587-1.41.695.152.05.334.2.543.45.217.24.47.593.763 1.057l1.306 2.126h-1.64l-1.23-1.993c-.375-.61-.68-.994-.915-1.153-.23-.166-.515-.248-.858-.248h-.63v3.394H529.1v-7.97h2.717" font-size="12.204" fill="#3c3c3c" color="#000"/>
</svg>
