<!-- Created with Inkscape (http://www.inkscape.org/) -->
<svg xmlns:rdf="http://www.w3.org/1999/02/22-rdf-syntax-ns#" xmlns="http://www.w3.org/2000/svg" version="1.1" xmlns:cc="http://creativecommons.org/ns#" xmlns:xlink="http://www.w3.org/1999/xlink" viewBox="0 0 80 98.45" xmlns:dc="http://purl.org/dc/elements/1.1/">
<title>LibreOffice external Logo</title>
<defs>
<linearGradient id="linearGradient15297-1" y2="992.38" xlink:href="#linearGradient10292-1-5" gradientUnits="userSpaceOnUse" x2="110.97" y1="976.3" x1="110.97"/>
<linearGradient id="linearGradient10292-1-5">
<stop stop-color="#666" offset="0"/>
<stop stop-color="#333" offset="1"/>
</linearGradient>
<linearGradient id="linearGradient15293-1" y2="992.42" xlink:href="#linearGradient10292-1-5" gradientUnits="userSpaceOnUse" x2="121.31" gradientTransform="matrix(1,0,0,1.00011,0,-0.10551)" y1="976.38" x1="121.31"/>
<linearGradient id="linearGradient15295-2" y2="992.38" xlink:href="#linearGradient10292-1-5" gradientUnits="userSpaceOnUse" x2="110.97" gradientTransform="matrix(1.00399,0,0,1.00959,-1.49914,-9.36636)" y1="976.3" x1="110.97"/>
<linearGradient id="linearGradient15299-0" y2="243.14" gradientUnits="userSpaceOnUse" x2="294.42" gradientTransform="matrix(7.979,0,0,8.01241,-2383.56,-3106.47)" y1="256.58" x1="294.34">
<stop stop-color="#B3B3B3" offset="0"/>
<stop stop-color="#E6E6E6" offset="1"/>
</linearGradient>
<linearGradient id="linearGradient15301-7" y2="-781.62" gradientUnits="userSpaceOnUse" x2="209.06" gradientTransform="matrix(4,0,0,4,-875,1971.91)" y1="-765.46" x1="209.06">
<stop stop-color="#FFF" stop-opacity="0.588235" offset="0"/>
<stop stop-color="#FFF" stop-opacity="0.862745" offset="1"/>
</linearGradient>
<linearGradient id="linearGradient15303-1" y2="-1194.6" xlink:href="#linearGradient8074-1-3" gradientUnits="userSpaceOnUse" x2="144" gradientTransform="matrix(0.370572,0.370572,-0.707107,0.707107,-1492.7313,-368.48139)" y1="-1194.6" x1="78.822"/>
<linearGradient id="linearGradient8074-1-3">
<stop stop-color="#000" stop-opacity="0" offset="0"/>
<stop stop-color="#000" offset="0.49306"/>
<stop stop-color="#000" stop-opacity="0" offset="1"/>
</linearGradient>
<linearGradient id="linearGradient15305-5" y2="-1194.6" xlink:href="#linearGradient8074-1-3" gradientUnits="userSpaceOnUse" x2="144" gradientTransform="matrix(0.370572,0.370572,-0.707107,0.707107,-1492.7313,-351.48139)" y1="-1194.6" x1="30.744"/>
<linearGradient id="linearGradient15307-2" y2="-1194.6" xlink:href="#linearGradient8074-1-3" gradientUnits="userSpaceOnUse" x2="144" gradientTransform="matrix(0.677019,0,0,0.999984,-1170.1404,1881.6223)" y1="-1194.6" x1="-17"/>
<linearGradient id="linearGradient15309-3" y2="-1194.6" xlink:href="#linearGradient8074-1-3" gradientUnits="userSpaceOnUse" x2="144" gradientTransform="matrix(0.341615,0,0,0.999984,619.80984,2262.2704)" y1="-1194.6" x1="-17"/>
<linearGradient id="linearGradient15311-1" y2="-1230.8" xlink:href="#linearGradient7931-6-2" gradientUnits="userSpaceOnUse" x2="113.88" gradientTransform="matrix(0.390244,0,0,0.390244,622.68524,-608.22844)" y1="-1192.6" x1="152"/>
<linearGradient id="linearGradient7931-6-2">
<stop stop-color="#000" offset="0"/>
<stop stop-color="#000" stop-opacity="0.360784" offset="0.45461"/>
<stop stop-color="#000" stop-opacity="0" offset="1"/>
</linearGradient>
<linearGradient id="linearGradient15313-8" y2="-1230.8" xlink:href="#linearGradient7931-6-2" gradientUnits="userSpaceOnUse" x2="113.88" gradientTransform="matrix(0.390244,0,0,0.390244,-659.31944,-608.22844)" y1="-1192.6" x1="152"/>
<linearGradient id="linearGradient15315-0" y2="287.83" gradientUnits="userSpaceOnUse" x2="377.85" gradientTransform="matrix(1,0,0,-1,-1049.0023,-880.58744)" y1="300.82" x1="364.87">
<stop stop-color="#000" offset="0"/>
<stop stop-color="#000" stop-opacity="0" offset="1"/>
</linearGradient>
<linearGradient id="linearGradient15317-0" y2="-1194.6" gradientUnits="userSpaceOnUse" x2="144" gradientTransform="matrix(0.370572,0.370572,-0.707107,0.707107,-1494.7313,-346.48139)" y1="-1194.6" x1="30.744">
<stop stop-color="#000" stop-opacity="0" offset="0"/>
<stop stop-color="#000" offset="0.49306"/>
<stop stop-color="#000" stop-opacity="0" offset="1"/>
</linearGradient>
<linearGradient id="linearGradient15319-5" y2="-1194.6" xlink:href="#linearGradient8074-1-3" gradientUnits="userSpaceOnUse" x2="144" gradientTransform="matrix(0.521722,0,0,1,-674.13295,121.98956)" y1="-1194.6" x1="-17"/>
</defs>
<metadata>
<rdf:RDF>
<cc:Work rdf:about="">
<dc:format>image/svg+xml</dc:format>
<dc:type rdf:resource="http://purl.org/dc/dcmitype/StillImage"/>
<dc:title>LibreOffice external Logo</dc:title>
<cc:license rdf:resource="http://wiki.documentfoundation.org/Template:CC-by-sa-LGPL-MPL"/>
<dc:source>http://www.libreoffice.org</dc:source>
<dc:publisher>
<cc:Agent>
<dc:title>The Document Foundation</dc:title>
</cc:Agent>
</dc:publisher>
<dc:creator>
<cc:Agent>
<dc:title>LibreOffice Design Team</dc:title>
</cc:Agent>
</dc:creator>
<dc:contributor>
<cc:Agent>
<dc:title>Christoph Noack, Bernhard Dippold and other members of the Design Team</dc:title>
</cc:Agent>
</dc:contributor>
<dc:subject>
<rdf:Bag>
<rdf:li>Logo; LibreOffice</rdf:li>
</rdf:Bag>
</dc:subject>
<dc:description>LibreOffice logo to be used for external references to the LibreOffice product and community. 
For details have a look at our Trademark Policy.
License: CC-by-sa-3.0, LGPL 3+, MPL 1.1 (see: http://wiki.documentfoundation.org/Template:CC-by-sa-LGPL-MPL)</dc:description>
<dc:date>February 2011</dc:date>
<dc:rights>
<cc:Agent>
<dc:title>Christoph Noack, Bernhard Dippold</dc:title>
</cc:Agent>
</dc:rights>
</cc:Work>
</rdf:RDF>
</metadata>
<g transform="translate(-23.999991,-49.541916)">
<g transform="matrix(0.76924058,0,0,0.76924058,557.0832,965.42296)">
<g transform="translate(-642.00234,-24.010444)">
<g transform="matrix(7.99974,0,0,7.9969,-938.968,-8974.56)">
<path style="color:black;direction:ltr;text-indent:0pt;text-align:start;text-transform:none;" fill="url(#linearGradient15293-1)" d="m111,977.12,0,14.502c0.00005,0.52364,0.22641,0.74996,0.74999,0.75001h11.5c0.52358-0.00005,0.74994-0.22637,0.74999-0.75001v-8.9809c0.006-0.26409-0.0975-0.52903-0.28125-0.71883l-5.2704-5.2707c-0.18978-0.18372-0.45469-0.2874-0.71875-0.28128h-5.9796c-0.51898,0-0.75228,0.43576-0.74999,0.75001z"/>
<path style="color:black;direction:ltr;text-indent:0pt;text-align:start;text-transform:none;" d="m120.33,976.38c-0.33282,0.10664-0.44483,0.61349-0.18825,0.85184l3.012,3.0288c0.27825,0.26531,0.83246,0.0383,0.84712-0.34705v-3.0288c-0.00003-0.26431-0.23916-0.50477-0.502-0.5048h-3.012c-0.0519-0.008-0.105-0.008-0.15687,0z" fill-rule="nonzero" fill="url(#linearGradient15295-2)"/>
</g>
<path style="color:black;direction:ltr;text-indent:0pt;text-align:start;text-transform:none;" d="m-45-1160.6,0,2,0,112,0,2,2,0,87.998,0,2,0,0-2,0-70,0-0.8752-0.62496-0.6248-41.749-42-0.49996-0.5-0.875,0-46.249,0-2,0z" fill-rule="nonzero" fill="url(#linearGradient15299-0)"/>
<path d="m-41-1156.6,42.234,0,41.764,42,0,66-83.997,0,0-108z" fill="url(#linearGradient15301-7)"/>
</g>
<path opacity="0.25" style="color:black;" d="m-618.3-1183.5,23.662,23.662-0.7072,0.7072-23.662-23.662z" fill-rule="nonzero" fill="url(#linearGradient15303-1)"/>
<path opacity="0.25" style="color:black;" d="m-636.3-1184.5,41.662,41.662-0.7072,0.7072-41.662-41.662z" fill-rule="nonzero" fill="url(#linearGradient15305-5)"/>
<rect opacity="0.25" style="color:black;" fill-rule="nonzero" transform="matrix(0,1,-1,0,0,0)" height="1" width="109" y="687" x="-1181.6" fill="url(#linearGradient15307-2)"/>
<rect opacity="0.25" style="color:black;" fill-rule="nonzero" transform="scale(-1,-1)" height="1" width="55" y="1067.6" x="614" fill="url(#linearGradient15309-3)"/>
<rect opacity="0.15" style="color:black;" fill-rule="nonzero" transform="scale(-1,1)" height="32" width="32" y="-1105.6" x="650" fill="url(#linearGradient15311-1)"/>
<rect opacity="0.15" style="color:black;" fill-rule="nonzero" height="32" width="32" y="-1105.6" x="-632" fill="url(#linearGradient15313-8)"/>
<path opacity="0.1" style="color:black;" d="m-684-1156.6,0-24,0-1,1,0,24,0,0,1-24,0,0,24z" fill-rule="nonzero" fill="url(#linearGradient15315-0)"/>
<path opacity="0.1" style="color:black;" d="m-638.3-1179.5,41.662,41.662-0.7072,0.7072-41.662-41.662z" fill-rule="nonzero" fill="url(#linearGradient15317-0)"/>
<rect opacity="0.2" style="color:black;" fill-rule="nonzero" height="1" width="83.997" y="-1072.6" x="-683" fill="url(#linearGradient15319-5)"/>
</g>
</g>
</svg>
