<svg xmlns:rdf="http://www.w3.org/1999/02/22-rdf-syntax-ns#" xmlns="http://www.w3.org/2000/svg" height="98.437" width="80.004" version="1.1" xmlns:cc="http://creativecommons.org/ns#" xmlns:xlink="http://www.w3.org/1999/xlink" viewBox="0 0 80.003937 98.436801" xmlns:dc="http://purl.org/dc/elements/1.1/">
<title>LibreOffice external Logo</title>
<defs>
<linearGradient id="linearGradient10292-1-5">
<stop stop-color="#666" offset="0"/>
<stop stop-color="#333" offset="1"/>
</linearGradient>
<linearGradient id="linearGradient15293-1" x1="121.31" xlink:href="#linearGradient10292-1-5" gradientUnits="userSpaceOnUse" y1="976.38" gradientTransform="matrix(1 0 0 1.0001 0 -.10551)" x2="121.31" y2="992.42"/>
<linearGradient id="linearGradient15295-2" x1="110.97" xlink:href="#linearGradient10292-1-5" gradientUnits="userSpaceOnUse" y1="976.3" gradientTransform="matrix(1.004 0 0 1.0096 -1.4991 -9.3664)" x2="110.97" y2="992.38"/>
<linearGradient id="linearGradient15299-0" x1="294.34" gradientUnits="userSpaceOnUse" y1="256.58" gradientTransform="matrix(7.979 0 0 8.0124 -2383.6 -3106.5)" x2="294.42" y2="243.14">
<stop stop-color="#B3B3B3" offset="0"/>
<stop stop-color="#E6E6E6" offset="1"/>
</linearGradient>
<linearGradient id="linearGradient15301-7" x1="209.06" gradientUnits="userSpaceOnUse" y1="-765.46" gradientTransform="matrix(4 0 0 4 -875 1971.9)" x2="209.06" y2="-781.62">
<stop stop-color="#FFF" stop-opacity=".58824" offset="0"/>
<stop stop-color="#FFF" stop-opacity=".86274" offset="1"/>
</linearGradient>
<linearGradient id="linearGradient15303-1" x1="78.822" xlink:href="#linearGradient8074-1-3" gradientUnits="userSpaceOnUse" y1="-1194.6" gradientTransform="matrix(.37057 .37057 -.70711 .70711 -1492.7 -368.48)" x2="144" y2="-1194.6"/>
<linearGradient id="linearGradient8074-1-3">
<stop stop-opacity="0" offset="0"/>
<stop offset=".49306"/>
<stop stop-opacity="0" offset="1"/>
</linearGradient>
<linearGradient id="linearGradient15305-5" x1="30.744" xlink:href="#linearGradient8074-1-3" gradientUnits="userSpaceOnUse" y1="-1194.6" gradientTransform="matrix(.37057 .37057 -.70711 .70711 -1492.7 -351.48)" x2="144" y2="-1194.6"/>
<linearGradient id="linearGradient15307-2" x1="-17" xlink:href="#linearGradient8074-1-3" gradientUnits="userSpaceOnUse" y1="-1194.6" gradientTransform="matrix(.67702 0 0 .99998 -1170.1 1881.6)" x2="144" y2="-1194.6"/>
<linearGradient id="linearGradient15309-3" x1="-17" xlink:href="#linearGradient8074-1-3" gradientUnits="userSpaceOnUse" y1="-1194.6" gradientTransform="matrix(.34162 0 0 .99998 619.81 2262.3)" x2="144" y2="-1194.6"/>
<linearGradient id="linearGradient15311-1" x1="152" xlink:href="#linearGradient7931-6-2" gradientUnits="userSpaceOnUse" y1="-1192.6" gradientTransform="matrix(.39024 0 0 .39024 622.69 -608.23)" x2="113.88" y2="-1230.8"/>
<linearGradient id="linearGradient7931-6-2">
<stop offset="0"/>
<stop stop-opacity=".36078" offset=".45461"/>
<stop stop-opacity="0" offset="1"/>
</linearGradient>
<linearGradient id="linearGradient15313-8" x1="152" xlink:href="#linearGradient7931-6-2" gradientUnits="userSpaceOnUse" y1="-1192.6" gradientTransform="matrix(.39024 0 0 .39024 -659.32 -608.23)" x2="113.88" y2="-1230.8"/>
<linearGradient id="linearGradient15315-0" x1="364.87" gradientUnits="userSpaceOnUse" y1="300.82" gradientTransform="matrix(1 0 0 -1 -1049 -880.59)" x2="377.85" y2="287.83">
<stop offset="0"/>
<stop stop-opacity="0" offset="1"/>
</linearGradient>
<linearGradient id="linearGradient15317-0" x1="30.744" gradientUnits="userSpaceOnUse" y1="-1194.6" gradientTransform="matrix(.37057 .37057 -.70711 .70711 -1494.7 -346.48)" x2="144" y2="-1194.6">
<stop stop-opacity="0" offset="0"/>
<stop offset=".49306"/>
<stop stop-opacity="0" offset="1"/>
</linearGradient>
<linearGradient id="linearGradient15319-5" x1="-17" xlink:href="#linearGradient8074-1-3" gradientUnits="userSpaceOnUse" y1="-1194.6" gradientTransform="matrix(.52172 0 0 1 -674.13 121.99)" x2="144" y2="-1194.6"/>
</defs>
<g transform="translate(-24 -49.537)">
<g transform="matrix(.76924 0 0 .76924 557.08 965.42)">
<g transform="translate(-642 -24.01)">
<g transform="matrix(7.9997 0 0 7.9969 -938.97 -8974.6)">
<path style="color:#000000;text-transform:none;text-indent:0pt" fill="url(#linearGradient15293-1)" d="m111 977.12v14.502c0.00005 0.52364 0.22641 0.74996 0.74999 0.75001h11.5c0.52358-0.00005 0.74994-0.22637 0.74999-0.75001v-8.9809c0.006-0.26409-0.0975-0.52903-0.28125-0.71883l-5.2704-5.2707c-0.18978-0.18372-0.45469-0.2874-0.71875-0.28128h-5.9796c-0.51898 0-0.75228 0.43576-0.74999 0.75001z"/>
<path style="color:#000000;text-transform:none;text-indent:0pt" fill="url(#linearGradient15295-2)" d="m120.33 976.38c-0.33282 0.10664-0.44483 0.61349-0.18825 0.85184l3.012 3.0288c0.27825 0.26531 0.83246 0.0383 0.84712-0.34705v-3.0288c-0.00003-0.26431-0.23916-0.50477-0.502-0.5048h-3.012c-0.0519-0.008-0.105-0.008-0.15687 0z"/>
</g>
<path style="color:#000000;text-transform:none;text-indent:0pt" fill="url(#linearGradient15299-0)" d="m-45-1160.6v2 112 2h2 87.998 2v-2-70-0.8752l-0.62496-0.6248-41.749-42-0.49996-0.5h-0.875-46.249-2z"/>
<path fill="url(#linearGradient15301-7)" d="m-41-1156.6h42.234l41.764 42v66h-83.997v-108z"/>
</g>
<g>
<path opacity=".25" style="color:#000000" d="m-618.3-1183.5 23.662 23.662-0.7072 0.7072-23.662-23.662z" fill="url(#linearGradient15303-1)"/>
<path opacity=".25" style="color:#000000" d="m-636.3-1184.5 41.662 41.662-0.7072 0.7072-41.662-41.662z" fill="url(#linearGradient15305-5)"/>
<rect opacity=".25" style="color:#000000" transform="rotate(90)" height="1" width="109" y="687" x="-1181.6" fill="url(#linearGradient15307-2)"/>
<rect opacity=".25" style="color:#000000" transform="scale(-1)" height="1" width="55" y="1067.6" x="614" fill="url(#linearGradient15309-3)"/>
<rect opacity=".15" style="color:#000000" transform="scale(-1,1)" height="32" width="32" y="-1105.6" x="650" fill="url(#linearGradient15311-1)"/>
<rect opacity=".15" style="color:#000000" height="32" width="32" y="-1105.6" x="-632" fill="url(#linearGradient15313-8)"/>
<path opacity=".1" style="color:#000000" d="m-684-1156.6v-24-1h1 24v1h-24v24z" fill="url(#linearGradient15315-0)"/>
<path opacity=".1" style="color:#000000" d="m-638.3-1179.5 41.662 41.662-0.7072 0.7072-41.662-41.662z" fill="url(#linearGradient15317-0)"/>
<rect opacity=".2" style="color:#000000" height="1" width="83.997" y="-1072.6" x="-683" fill="url(#linearGradient15319-5)"/>
</g>
</g>
</g>
</svg>
