<!-- Created with Inkscape (http://www.inkscape.org/) -->
<svg xmlns:rdf="http://www.w3.org/1999/02/22-rdf-syntax-ns#" xmlns="http://www.w3.org/2000/svg" version="1.1" xmlns:cc="http://creativecommons.org/ns#" xmlns:xlink="http://www.w3.org/1999/xlink" viewBox="0 0 565.15 123.99" xmlns:dc="http://purl.org/dc/elements/1.1/">
<title>LibreOffice external Logo</title>
<defs>
<linearGradient id="linearGradient15297-1" y2="992.38" xlink:href="#linearGradient10292-1-5" gradientUnits="userSpaceOnUse" x2="110.97" y1="976.3" x1="110.97"/>
<linearGradient id="linearGradient10292-1-5">
<stop stop-color="#666" offset="0"/>
<stop stop-color="#333" offset="1"/>
</linearGradient>
<linearGradient id="linearGradient15293-1" y2="992.42" xlink:href="#linearGradient10292-1-5" gradientUnits="userSpaceOnUse" x2="121.31" gradientTransform="matrix(1,0,0,1.00011,0,-0.10551)" y1="976.38" x1="121.31"/>
<linearGradient id="linearGradient15295-2" y2="992.38" xlink:href="#linearGradient10292-1-5" gradientUnits="userSpaceOnUse" x2="110.97" gradientTransform="matrix(1.00399,0,0,1.00959,-1.49914,-9.36636)" y1="976.3" x1="110.97"/>
<linearGradient id="linearGradient15299-0" y2="243.14" gradientUnits="userSpaceOnUse" x2="294.42" gradientTransform="matrix(7.979,0,0,8.01241,-2383.56,-3106.47)" y1="256.58" x1="294.34">
<stop stop-color="#B3B3B3" offset="0"/>
<stop stop-color="#E6E6E6" offset="1"/>
</linearGradient>
<linearGradient id="linearGradient15301-7" y2="-781.62" gradientUnits="userSpaceOnUse" x2="209.06" gradientTransform="matrix(4,0,0,4,-875,1971.91)" y1="-765.46" x1="209.06">
<stop stop-color="#FFF" stop-opacity="0.588235" offset="0"/>
<stop stop-color="#FFF" stop-opacity="0.862745" offset="1"/>
</linearGradient>
<linearGradient id="linearGradient15303-1" y2="-1194.6" xlink:href="#linearGradient8074-1-3" gradientUnits="userSpaceOnUse" x2="144" gradientTransform="matrix(0.370572,0.370572,-0.707107,0.707107,-1492.7313,-368.48139)" y1="-1194.6" x1="78.822"/>
<linearGradient id="linearGradient8074-1-3">
<stop stop-color="#000" stop-opacity="0" offset="0"/>
<stop stop-color="#000" offset="0.49306"/>
<stop stop-color="#000" stop-opacity="0" offset="1"/>
</linearGradient>
<linearGradient id="linearGradient15305-5" y2="-1194.6" xlink:href="#linearGradient8074-1-3" gradientUnits="userSpaceOnUse" x2="144" gradientTransform="matrix(0.370572,0.370572,-0.707107,0.707107,-1492.7313,-351.48139)" y1="-1194.6" x1="30.744"/>
<linearGradient id="linearGradient15307-2" y2="-1194.6" xlink:href="#linearGradient8074-1-3" gradientUnits="userSpaceOnUse" x2="144" gradientTransform="matrix(0.677019,0,0,0.999984,-1170.1404,1881.6223)" y1="-1194.6" x1="-17"/>
<linearGradient id="linearGradient15309-3" y2="-1194.6" xlink:href="#linearGradient8074-1-3" gradientUnits="userSpaceOnUse" x2="144" gradientTransform="matrix(0.341615,0,0,0.999984,619.80984,2262.2704)" y1="-1194.6" x1="-17"/>
<linearGradient id="linearGradient15311-1" y2="-1230.8" xlink:href="#linearGradient7931-6-2" gradientUnits="userSpaceOnUse" x2="113.88" gradientTransform="matrix(0.390244,0,0,0.390244,622.68524,-608.22844)" y1="-1192.6" x1="152"/>
<linearGradient id="linearGradient7931-6-2">
<stop stop-color="#000" offset="0"/>
<stop stop-color="#000" stop-opacity="0.360784" offset="0.45461"/>
<stop stop-color="#000" stop-opacity="0" offset="1"/>
</linearGradient>
<linearGradient id="linearGradient15313-8" y2="-1230.8" xlink:href="#linearGradient7931-6-2" gradientUnits="userSpaceOnUse" x2="113.88" gradientTransform="matrix(0.390244,0,0,0.390244,-659.31944,-608.22844)" y1="-1192.6" x1="152"/>
<linearGradient id="linearGradient15315-0" y2="287.83" gradientUnits="userSpaceOnUse" x2="377.85" gradientTransform="matrix(1,0,0,-1,-1049.0023,-880.58744)" y1="300.82" x1="364.87">
<stop stop-color="#000" offset="0"/>
<stop stop-color="#000" stop-opacity="0" offset="1"/>
</linearGradient>
<linearGradient id="linearGradient15317-0" y2="-1194.6" gradientUnits="userSpaceOnUse" x2="144" gradientTransform="matrix(0.370572,0.370572,-0.707107,0.707107,-1494.7313,-346.48139)" y1="-1194.6" x1="30.744">
<stop stop-color="#000" stop-opacity="0" offset="0"/>
<stop stop-color="#000" offset="0.49306"/>
<stop stop-color="#000" stop-opacity="0" offset="1"/>
</linearGradient>
<linearGradient id="linearGradient15319-5" y2="-1194.6" xlink:href="#linearGradient8074-1-3" gradientUnits="userSpaceOnUse" x2="144" gradientTransform="matrix(0.521722,0,0,1,-674.13295,121.98956)" y1="-1194.6" x1="-17"/>
<linearGradient id="linearGradient15279-0" y2="1982.2" xlink:href="#linearGradient4274-3-3" gradientUnits="userSpaceOnUse" x2="158.49" y1="2022.2" x1="158.49"/>
<linearGradient id="linearGradient4274-3-3">
<stop stop-color="#333" offset="0"/>
<stop stop-color="#808080" offset="1"/>
</linearGradient>
<filter id="filter4026-4-0" color-interpolation-filters="sRGB">
<feGaussianBlur stdDeviation="1" result="result8"/>
<feOffset result="result11" dx="1" dy="1"/>
<feComposite operator="in" in="SourceGraphic" in2="result11" result="result6"/>
<feFlood flood-color="rgb(51,51,51)" in="result6" flood-opacity="1" result="result10"/>
<feBlend result="result12" in="result6" in2="result10" mode="normal"/>
<feComposite operator="in" in2="SourceGraphic" result="result2"/>
</filter>
<linearGradient id="linearGradient4280-7-7">
<stop stop-color="#18a303" offset="0"/>
<stop stop-color="#92e285" offset="1"/>
</linearGradient>
<filter id="filter4195-6-9" color-interpolation-filters="sRGB">
<feGaussianBlur stdDeviation="1" result="result8"/>
<feOffset result="result11" dx="1" dy="1"/>
<feComposite operator="in" result="result6" in2="result11" in="SourceGraphic"/>
<feFlood result="result10" in="result6" flood-color="rgb(16,104,2)" flood-opacity="1"/>
<feBlend mode="normal" result="result12" in2="result10" in="result6"/>
<feComposite operator="in" result="result2" in2="SourceGraphic"/>
</filter>
<linearGradient id="linearGradient15281-5" y2="1972.8" xlink:href="#linearGradient4280-7-7" gradientUnits="userSpaceOnUse" x2="160.77" y1="2011.2" x1="160.77"/>
</defs>
<metadata>
<rdf:RDF>
<cc:Work rdf:about="">
<dc:format>image/svg+xml</dc:format>
<dc:type rdf:resource="http://purl.org/dc/dcmitype/StillImage"/>
<dc:title>LibreOffice external Logo</dc:title>
<cc:license rdf:resource="http://wiki.documentfoundation.org/Template:CC-by-sa-LGPL-MPL"/>
<dc:source>http://www.libreoffice.org</dc:source>
<dc:publisher>
<cc:Agent>
<dc:title>The Document Foundation</dc:title>
</cc:Agent>
</dc:publisher>
<dc:creator>
<cc:Agent>
<dc:title>LibreOffice Design Team</dc:title>
</cc:Agent>
</dc:creator>
<dc:contributor>
<cc:Agent>
<dc:title>Christoph Noack, Bernhard Dippold and other members of the Design Team</dc:title>
</cc:Agent>
</dc:contributor>
<dc:subject>
<rdf:Bag>
<rdf:li>Logo; LibreOffice</rdf:li>
</rdf:Bag>
</dc:subject>
<dc:description>LibreOffice logo to be used for external references to the LibreOffice product and community. 
For details have a look at our Trademark Policy.
License: CC-by-sa-3.0, LGPL 3+, MPL 1.1 (see: http://wiki.documentfoundation.org/Template:CC-by-sa-LGPL-MPL)</dc:description>
<dc:date>February 2011</dc:date>
<dc:rights>
<cc:Agent>
<dc:title>Christoph Noack, Bernhard Dippold</dc:title>
</cc:Agent>
</dc:rights>
</cc:Work>
</rdf:RDF>
</metadata>
<g transform="translate(-23.999991,-23.999812)">
<g font-size="67.56232452px" font-family="Vegur" transform="matrix(1.3513735,0,0,1.3513735,0.82254625,-2269.815)" font-stretch="normal" font-variant="normal" font-weight="normal" font-style="normal">
<g transform="matrix(0.99794294,0,0,1.0020613,4.9545742e-6,-244)" filter="url(#filter4026-4-0)" fill="url(#linearGradient15279-0)">
<path d="m273.62,1975c-12.161,0-22.16,8.8506-22.16,23.579,0,14.729,9.9992,23.579,22.16,23.579s22.16-8.8507,22.16-23.579c0-14.729-9.9992-23.579-22.16-23.579m0,4.5942c9.0534,0,15.945,6.7562,15.945,18.985s-6.8914,18.985-15.945,18.985c-9.0533,0-15.945-6.7562-15.945-18.985s6.8914-18.985,15.945-18.985"/>
<path d="m304.43,1986.7,0,2.0945-5.3374,0,0,4.324,5.3374,0,0,28.376,5.6752,0,0-28.376,8.3777,0,0-4.324-8.3777,0,0-2.9728c0-5.8779,2.4998-9.3236,7.0265-9.3236,2.0944,0,3.4457,0.3378,4.7294,0.8108l0.5405-4.1889c-1.2161-0.4729-3.5132-0.9459-5.3374-0.9459-8.0399,0-12.634,5.2023-12.634,14.526"/>
<path d="m323.3,1986.7,0,2.0945-5.3374,0,0,4.324,5.3374,0,0,28.376,5.6752,0,0-28.376,8.3777,0,0-4.324-8.3777,0,0-2.9728c0-5.8779,2.4998-9.3236,7.0265-9.3236,2.0944,0,3.4457,0.3378,4.7294,0.8108l0.54049-4.1889c-1.2161-0.4729-3.5132-0.9459-5.3374-0.9459-8.0399,0-12.634,5.2023-12.634,14.526"/>
<path d="m343.93,2021.5,5.6752,0,0-32.7-5.6752,0,0,32.7m2.8376-37.497c1.9593,0,3.5132-1.5539,3.5132-3.5132s-1.5539-3.5132-3.5132-3.5132-3.5132,1.5539-3.5132,3.5132,1.5539,3.5132,3.5132,3.5132"/>
<path d="m361.4,2005c0-8.2426,4.9321-12.567,11.35-12.567,3.3781,0,6.3509,0.8108,8.7831,1.9593l0.5405-4.3239c-2.0269-1.0135-5.2699-1.9594-8.8507-1.9594-10.134,0-17.769,6.1482-17.769,17.634,0,10.81,6.8914,16.418,16.012,16.418,4.0537,0,6.9589-0.473,10.269-1.8918l-0.5405-4.324c-2.8376,1.2837-5.8779,1.8918-8.7155,1.8918-6.5535,0-11.08-4.1213-11.08-12.837"/>
<path d="m414.09,2006.5c0.13512-1.2161,0.20268-2.2295,0.20268-3.243,0-8.3777-4.3916-15.066-12.837-15.066-9.1209,0-15.81,7.567-15.81,17.634,0,11.08,6.6887,16.418,15.81,16.418,4.0537,0,7.094-0.6081,10.269-1.8918l-0.54049-4.324c-2.4998,1.2161-6.0806,1.8918-8.9182,1.8918-6.5535,0-10.81-3.9862-10.945-11.418h22.769m-13.107-13.985c4.9996,0,7.7021,4.1213,7.7021,9.5263h-17.093c0.81075-5.7428,3.9862-9.5263,9.3912-9.5263"/>
</g>
<g transform="matrix(0.99794294,0,0,1.0020613,4.9545742e-6,-244)" filter="url(#filter4195-6-9)" fill="url(#linearGradient15281-5)">
<path d="m103.62,1975.7,0,45.807,29.66,0,0-6.9589-20.607,0,0-38.848-9.0534,0"/>
<path d="m138.75,2021.5,9.0534,0,0-32.97-9.0534,0,0,32.97m4.5267-35.808c2.8376,0,5.2023-2.2971,5.2023-5.2023,0-2.8376-2.3647-5.2023-5.2023-5.2023-2.9052,0-5.2023,2.3647-5.2023,5.2023,0,2.9052,2.2971,5.2023,5.2023,5.2023"/>
<path d="m163.57,1992.4-0.13513,0,0-19.526-9.0534,0,0,48.645,8.8507,0,0.20268-3.851,0.13513,0c2.8376,3.1754,5.6752,4.5267,10.337,4.5267,8.7831,0,14.593-7.9048,14.593-17.769,0-9.5263-5.2023-16.553-14.188-16.553-4.7969,0-7.6346,1.4188-10.742,4.5267m-0.13513,11.891c0-5.6752,2.5674-9.4587,7.4319-9.4587,5.405,0,8.1075,3.8511,8.1075,10.134,0,6.2157-2.6349,10.269-7.9724,10.269-4.6618,0-7.567-3.6483-7.567-9.4587v-1.4864"/>
<path d="m212.79,1987.9c-4.324,0.2702-8.4453,2.9052-10.337,6.5535h-0.13512l-0.20269-5.8779h-8.8507v32.97h9.0534v-12.431c0-6.6211,1.2161-8.9858,3.3106-10.472,1.8242-1.2837,3.9862-1.8242,6.9589-1.9593l0.20269-8.7831"/>
<path d="m246.1,2003.1c0-8.175-4.9996-15.202-13.648-15.202-10.405,0-17.093,7.1616-17.093,18.039,0,10.607,6.8914,16.283,17.093,16.283,4.7969,0,8.175-0.7432,11.35-2.162l-0.94587-6.7563c-2.9727,1.2161-6.013,1.9593-9.256,1.9593-5.4725,0-8.9858-2.4998-9.3236-7.6345h21.417c0.27025-1.2161,0.40537-3.1079,0.40537-4.5267m-14.593-8.2426c3.9186,0,5.7428,3.1754,5.8779,6.5536h-12.769c0.67563-3.7835,3.3106-6.5536,6.8914-6.5536"/>
</g>
</g>
<g transform="matrix(0.76924058,0,0,0.76924058,573.0832,955.88318)">
<g transform="translate(-642.00234,-24.010444)">
<g transform="matrix(7.99974,0,0,7.9969,-938.968,-8974.56)">
<path style="color:#000000;direction:ltr;text-indent:0pt;text-align:start;text-transform:none;" fill="url(#linearGradient15293-1)" d="m111,977.12,0,14.502c0.00005,0.52364,0.22641,0.74996,0.74999,0.75001h11.5c0.52358-0.00005,0.74994-0.22637,0.74999-0.75001v-8.9809c0.006-0.26409-0.0975-0.52903-0.28125-0.71883l-5.2704-5.2707c-0.18978-0.18372-0.45469-0.2874-0.71875-0.28128h-5.9796c-0.51898,0-0.75228,0.43576-0.74999,0.75001z"/>
<path style="color:#000000;direction:ltr;text-indent:0pt;text-align:start;text-transform:none;" d="m120.33,976.38c-0.33282,0.10664-0.44483,0.61349-0.18825,0.85184l3.012,3.0288c0.27825,0.26531,0.83246,0.0383,0.84712-0.34705v-3.0288c-0.00003-0.26431-0.23916-0.50477-0.502-0.5048h-3.012c-0.0519-0.008-0.105-0.008-0.15687,0z" fill-rule="nonzero" fill="url(#linearGradient15295-2)"/>
</g>
<path style="color:#000000;direction:ltr;text-indent:0pt;text-align:start;text-transform:none;" d="m-45-1160.6,0,2,0,112,0,2,2,0,87.998,0,2,0,0-2,0-70,0-0.8752-0.62496-0.6248-41.749-42-0.49996-0.5-0.875,0-46.249,0-2,0z" fill-rule="nonzero" fill="url(#linearGradient15299-0)"/>
<path d="m-41-1156.6,42.234,0,41.764,42,0,66-83.997,0,0-108z" fill="url(#linearGradient15301-7)"/>
</g>
<path opacity="0.25" style="color:#000000;" d="m-618.3-1183.5,23.662,23.662-0.7072,0.7072-23.662-23.662z" fill-rule="nonzero" fill="url(#linearGradient15303-1)"/>
<path opacity="0.25" style="color:#000000;" d="m-636.3-1184.5,41.662,41.662-0.7072,0.7072-41.662-41.662z" fill-rule="nonzero" fill="url(#linearGradient15305-5)"/>
<rect opacity="0.25" style="color:#000000;" fill-rule="nonzero" transform="matrix(0,1,-1,0,0,0)" height="1" width="109" y="687" x="-1181.6" fill="url(#linearGradient15307-2)"/>
<rect opacity="0.25" style="color:#000000;" fill-rule="nonzero" transform="scale(-1,-1)" height="1" width="55" y="1067.6" x="614" fill="url(#linearGradient15309-3)"/>
<rect opacity="0.15" style="color:#000000;" fill-rule="nonzero" transform="scale(-1,1)" height="32" width="32" y="-1105.6" x="650" fill="url(#linearGradient15311-1)"/>
<rect opacity="0.15" style="color:#000000;" fill-rule="nonzero" height="32" width="32" y="-1105.6" x="-632" fill="url(#linearGradient15313-8)"/>
<path opacity="0.1" style="color:#000000;" d="m-684-1156.6,0-24,0-1,1,0,24,0,0,1-24,0,0,24z" fill-rule="nonzero" fill="url(#linearGradient15315-0)"/>
<path opacity="0.1" style="color:#000000;" d="m-638.3-1179.5,41.662,41.662-0.7072,0.7072-41.662-41.662z" fill-rule="nonzero" fill="url(#linearGradient15317-0)"/>
<rect opacity="0.2" style="color:#000000;" fill-rule="nonzero" height="1" width="83.997" y="-1072.6" x="-683" fill="url(#linearGradient15319-5)"/>
</g>
</g>
<g transform="translate(-23.999991,-23.999812)">
<g style="enable-background:accumulate;color:#000000;letter-spacing:0px;word-spacing:0px;" font-weight="normal" fill-rule="nonzero" font-size="12.20430088px" font-stretch="normal" line-height="125%" font-variant="normal" font-family="Vegur" font-style="normal" fill="#3c3c3c">
<path style="color:#000000;enable-background:accumulate;" fill="#3c3c3c" d="m572.01,76.291c-0.8327,0.000014-1.6082,0.14939-2.3264,0.44813-0.71828,0.29876-1.3762,0.74689-1.9737,1.3444-0.59751,0.59751-1.0488,1.2618-1.3539,1.9927-0.30511,0.72464-0.45766,1.5001-0.45766,2.3264,0,0.81998,0.15255,1.5923,0.45766,2.3169,0.30511,0.71828,0.75641,1.3762,1.3539,1.9737,0.5975,0.5975,1.2554,1.0488,1.9737,1.3539,0.71827,0.29875,1.4938,0.44813,2.3264,0.44813,0.83903,0.000001,1.6177-0.14938,2.336-0.44813,0.72462-0.30511,1.3857-0.75641,1.9832-1.3539,0.59113-0.59114,1.0329-1.2459,1.3253-1.9641,0.29873-0.71827,0.44811-1.4938,0.44813-2.3264-0.00002-0.8454-0.1494-1.6272-0.44813-2.3455-0.29877-0.72462-0.74054-1.3825-1.3253-1.9737-0.59752-0.59749-1.2586-1.0456-1.9832-1.3444-0.71829-0.29874-1.497-0.44811-2.336-0.44813m0-0.98206c0.96616,0.000014,1.8656,0.17482,2.6983,0.5244,0.83904,0.34962,1.605,0.87084,2.2978,1.5637,0.69284,0.69286,1.2109,1.4556,1.5542,2.2883,0.34323,0.8327,0.51485,1.7385,0.51487,2.7174-0.00002,0.96618-0.17164,1.8656-0.51487,2.6983-0.34327,0.82634-0.86131,1.5859-1.5542,2.2788-0.69286,0.69285-1.4588,1.2141-2.2978,1.5637-0.8327,0.3496-1.7321,0.5244-2.6983,0.5244-0.96618,0-1.8688-0.1748-2.7078-0.5244-0.8327-0.3496-1.5955-0.87083-2.2883-1.5637-0.69285-0.69284-1.2109-1.4524-1.5541-2.2788-0.34325-0.83268-0.51487-1.7321-0.51487-2.6983,0-0.97888,0.17162-1.8847,0.51487-2.7174,0.34324-0.83268,0.86129-1.5954,1.5541-2.2883,0.69285-0.69284,1.4556-1.2141,2.2883-1.5637,0.83904-0.34959,1.7416-0.52439,2.7078-0.5244m-0.25744,3.9473-1.1728,0,0,2.6316,1.1728,0c0.6992,0.000007,1.1855-0.09852,1.4588-0.29557,0.27967-0.19704,0.41951-0.53393,0.41952-1.0107-0.00001-0.48308-0.13985-0.82314-0.41952-1.0202-0.27969-0.2034-0.76596-0.3051-1.4588-0.30511m0.0667-0.98206c1.1187,0.000012,1.9546,0.1907,2.5076,0.57208,0.55299,0.37504,0.8295,0.94711,0.82951,1.7162-0.00001,0.54666-0.16846,0.99796-0.50533,1.3539-0.33055,0.35597-0.80092,0.58797-1.4111,0.69603,0.15255,0.05086,0.3337,0.20023,0.54348,0.44813,0.2161,0.24155,0.47036,0.59433,0.76277,1.0583l1.3062,2.1262h-1.64l-1.23-1.9927c-0.37504-0.61021-0.68015-0.99477-0.91532-1.1537-0.22884-0.16526-0.51488-0.24789-0.85812-0.2479h-0.62928v3.3943h-1.4779v-7.9709h2.7174"/>
</g>
</g>
</svg>
