<svg xmlns="http://www.w3.org/2000/svg" height="267.953" width="323.399" viewBox="0 0 85.566 70.896">
    <path d="M72.676 70.49c-6.481-1.141-13.194-5.322-14.498-12.21-.736-5.992.412-12.142 3.413-17.4 2.824-5.816 6.629-11.145 9.105-17.117 1.782-3.497-2.357-7.761-5.57-4.91-3.991 3.849-5.616 9.39-8.118 14.213-3.263 6.687-5.9 13.736-9.89 20.035-1.962 3.095-5.374 6.418-9.358 4.986-4.42-1.353-3.248-6.525-1.803-9.71 2.462-7.27 6.619-14.08 7.547-21.792 1.613-4.425-4.9-7.655-7.147-3.33-3.19 6.741-5.657 13.812-8.698 20.627-2.536 5.706-3.27 12.02-5.724 17.734-2.297 4.468-8.187 5.058-12.63 4.52-4.808-.647-9.445-4.52-9.254-9.674-.5-7.451 2.866-14.4 4.541-21.511 2.27-7.718 4.974-15.333 8.155-22.72 2.388-4.878 6.187-10.685 12.304-10.593 5.454-.61 9.826 3.33 14.77 4.782 5.892.97 8.282-6.877 14.095-6.396 4.483-.214 6.947 5.52 11.411 4.62C70.521 2.926 76.975 2.11 81.57 5.712c4.096 3.863 2.751 10.148 1.336 14.936-3.164 10.51-10.022 19.665-12.068 30.536-.964 3.765.335 9.004 4.988 9.192 3.713.546 9.498 1.232 9.74 5.982-1.931 4.823-8.558 5.008-12.89 4.134z" fill="#ed1c40"/>
</svg>
