<svg xmlns="http://www.w3.org/2000/svg" height="202pt" width="391pt" viewBox="0 0 391 202"><path d="M.738 183.825H13.58v-50.71l19.88 44.207c2.346 5.35 5.557 7.244 11.854 7.244 6.298 0 9.385-1.893 11.732-7.244l19.88-44.208v50.71h12.842v-50.627c0-4.94-1.976-7.327-6.05-8.56-9.755-3.047-16.3-.413-19.264 6.173l-19.51 43.63-18.892-43.63c-2.84-6.586-9.508-9.22-19.263-6.174-4.076 1.234-6.052 3.622-6.052 8.56v50.63zM100.442 142.556h12.838v27.938c-.12 1.518.487 5.08 7.522 5.19 3.59.057 27.7 0 27.925 0V142.42h12.868c.06 0-.013 45.364-.012 45.557.07 11.188-13.882 13.618-20.313 13.806h-40.55v-8.64c.072 0 40.52.01 40.622 0 8.265-.874 7.29-4.982 7.288-6.365v-3.368h-27.295c-12.7-.117-20.786-5.66-20.886-12.035-.01-.59.273-28.54-.008-28.82z" fill="#00618a"/><g fill="#e48e00"><path d="M171.5 183.83h36.92c4.322 0 8.52-.904 11.855-2.47 5.556-2.55 8.273-6.007 8.273-10.536v-9.384c0-3.705-3.087-7.163-9.138-9.467-3.21-1.236-7.162-1.894-10.99-1.894h-15.56c-5.184 0-7.654-1.565-8.27-5.022-.125-.412-.125-.742-.125-1.153v-5.844c0-.33 0-.66.124-1.07.616-2.634 1.975-3.376 6.543-3.787.37 0 .864-.083 1.235-.083h36.674v-8.56h-36.057c-5.186 0-7.903.33-10.372 1.07-7.656 2.387-10.99 6.174-10.99 12.76v7.49c0 5.764 6.545 10.703 17.534 11.855 1.236.082 2.47.164 3.704.164h13.337c.495 0 .99 0 1.36.082 4.074.33 5.802 1.07 7.038 2.552.74.74.987 1.482.987 2.305v7.49c0 .906-.617 2.06-1.85 3.046-1.113.988-2.965 1.647-5.435 1.812-.494 0-.864.082-1.358.082H171.5v8.56zM308.66 168.93c0 8.81 6.544 13.75 19.757 14.737 1.234.082 2.47.164 3.704.164h33.465v-8.56h-33.71c-7.533 0-10.373-1.894-10.373-6.42v-44.29H308.66v44.37zM236.74 169.38v-30.52c0-7.755 5.445-12.458 16.21-13.943a24.63 24.63 0 0 1 3.464-.247h24.376c1.237 0 2.352.083 3.59.247 10.764 1.485 16.208 6.188 16.208 13.942v30.52c0 6.292-2.312 9.66-7.64 11.853l12.65 11.418h-14.912l-10.234-9.237-10.303.653h-13.736c-2.35 0-4.825-.33-7.548-1.073-8.166-2.227-12.126-6.517-12.126-13.612zm13.86-.74c0 .412.124.824.248 1.32.742 3.546 4.083 5.526 9.156 5.526h11.667l-10.716-9.675h14.91l9.348 8.44c1.722-.92 2.856-2.323 3.252-4.126.123-.412.123-.825.123-1.237v-29.285c0-.33 0-.743-.123-1.156-.743-3.3-4.084-5.196-9.033-5.196h-19.426c-5.69 0-9.403 2.475-9.403 6.352v29.037z"/></g><path d="M376.88 110.357c-7.89-.22-13.93.52-19.08 2.69-1.47.62-3.8.63-4.04 2.47.81.84.93 2.1 1.57 3.14 1.23 2 3.31 4.66 5.16 6.06 2.03 1.53 4.12 3.17 6.29 4.49 3.86 2.36 8.17 3.7 11.89 6.06 2.2 1.39 4.38 3.15 6.51 4.72 1.06.77 1.77 1.98 3.15 2.47v-.23c-.73-.92-.91-2.18-1.58-3.14-.97-.97-1.94-1.95-2.91-2.92-2.86-3.79-6.48-7.11-10.33-9.87-3.07-2.21-9.94-5.19-11.22-8.76-.08-.07-.15-.15-.23-.22 2.18-.25 4.73-1.04 6.74-1.58 3.37-.9 6.39-.67 9.87-1.57 1.58-.45 3.15-.89 4.72-1.34v-.9c-1.76-1.81-3.02-4.2-4.94-5.84-5.03-4.28-10.51-8.55-16.16-12.12-3.13-1.976-7.01-3.26-10.33-4.937-1.11-.564-3.07-.857-3.81-1.796-1.75-2.224-2.7-5.042-4.04-7.632-2.82-5.426-5.587-11.35-8.083-17.06-1.703-3.892-2.815-7.73-4.938-11.223-10.193-16.758-21.164-26.872-38.16-36.814-3.615-2.114-7.97-2.95-12.57-4.04l-7.407-.45c-1.507-.63-3.075-2.473-4.49-3.366-5.63-3.556-20.07-11.293-24.24-1.122-2.633 6.42 3.935 12.685 6.284 15.937 1.65 2.283 3.76 4.84 4.938 7.408.775 1.686.91 3.378 1.572 5.163 1.632 4.396 3.05 9.18 5.162 13.243 1.066 2.055 2.242 4.22 3.59 6.06.828 1.127 2.245 1.624 2.47 3.367-1.387 1.94-1.466 4.95-2.245 7.407-3.508 11.06-2.185 24.81 2.918 32.993 1.566 2.52 5.254 7.91 10.325 5.84 4.436-1.81 3.445-7.41 4.714-12.346.287-1.12.11-1.942.673-2.692v.224c1.347 2.694 2.694 5.387 4.04 8.085 2.99 4.81 8.298 9.84 12.795 13.24 2.332 1.76 4.168 4.81 7.183 5.84v-.23h-.225c-.584-.91-1.498-1.29-2.244-2.02-1.757-1.72-3.71-3.86-5.163-5.83-4.09-5.56-7.704-11.64-10.997-17.962-1.573-3.02-2.94-6.354-4.266-9.428-.51-1.186-.505-2.978-1.57-3.592-1.452 2.253-3.59 4.074-4.714 6.734-1.796 4.25-2.028 9.437-2.693 14.817-.394.14-.22.04-.45.22-3.126-.75-4.225-3.97-5.386-6.732-2.94-6.982-3.485-18.226-.9-26.263.67-2.08 3.694-8.63 2.47-10.55-.584-1.917-2.512-3.025-3.59-4.49-1.336-1.81-2.67-4.194-3.593-6.285-2.404-5.444-3.527-11.556-6.06-17.058-1.21-2.632-3.256-5.295-4.937-7.633-1.86-2.59-3.945-4.5-5.387-7.633-.513-1.113-1.21-2.896-.45-4.04.243-.773.584-1.095 1.348-1.347 1.302-1.003 4.928.334 6.284.898 3.6 1.495 6.604 2.918 9.653 4.938 1.465.97 2.945 2.848 4.714 3.367h2.02c3.16.727 6.7.226 9.652 1.122 5.218 1.586 9.894 4.053 14.14 6.735 12.94 8.17 23.517 19.798 30.753 33.67 1.163 2.233 1.667 4.365 2.692 6.734 2.07 4.778 4.675 9.694 6.733 14.366 2.054 4.66 4.056 9.365 6.955 13.244 1.53 2.04 7.43 3.133 10.1 4.265 1.88.792 4.96 1.622 6.74 2.692 3.4 2.05 6.69 4.49 9.88 6.74 1.59 1.12 6.48 3.58 6.73 5.61z" fill="#00618a"/><path d="M276.54 24.833c-1.645-.03-2.81.18-4.04.45v.223h.225c.785 1.613 2.17 2.65 3.142 4.04a6815.3 6815.3 0 0 0 2.245 4.714l.224-.224c1.39-.98 2.027-2.546 2.02-4.938-.557-.586-.64-1.32-1.122-2.02-.642-.932-1.884-1.462-2.693-2.245z" fill="#00618a" fill-rule="evenodd"/><path d="M371.61 175.023c0 5.654 4.467 9.464 9.464 9.464s9.464-3.81 9.464-9.464c0-5.653-4.467-9.463-9.464-9.463s-9.464 3.81-9.464 9.463zm16.808 0c0 4.29-3.28 7.496-7.344 7.496-4.113 0-7.344-3.207-7.344-7.497s3.23-7.496 7.344-7.496c4.064 0 7.344 3.206 7.344 7.496zm-4.794 5.4h2.12l-3.104-4.743c1.665-.177 2.926-.985 2.926-2.953 0-2.196-1.387-3.104-4.062-3.104h-4.215v10.8h1.816v-4.668h1.69l2.828 4.67zm-4.518-6.182v-3.103h2.094c1.086 0 2.398.202 2.398 1.464 0 1.514-1.186 1.64-2.55 1.64h-1.942z" fill="#e48e00" fill-rule="evenodd"/></svg>