<svg xmlns:rdf="http://www.w3.org/1999/02/22-rdf-syntax-ns#" xmlns="http://www.w3.org/2000/svg" height="202pt" width="391pt" version="1.1" xmlns:cc="http://creativecommons.org/ns#" xmlns:dc="http://purl.org/dc/elements/1.1/" viewBox="0 0 391 202">
<g fill="#00618a" transform="translate(.73828 121.59)">
<path d="m0 62.235h12.842v-50.711s19.881 44.208 19.881 44.208c2.345 5.351 5.556 7.244 11.853 7.244 6.298 0 9.385-1.893 11.732-7.244 0 0 19.88-44.208 19.88-44.208v50.711h12.842v-50.628c0-4.939-1.976-7.327-6.05-8.561-9.755-3.046-16.3-0.412-19.264 6.174l-19.51 43.63s-18.892-43.63-18.892-43.63c-2.84-6.586-9.508-9.22-19.263-6.174-4.0752 1.234-6.0508 3.622-6.0508 8.561v50.628z"/>
</g>
<g fill="#00618a" transform="translate(100.44 142.42)">
<path d="m0.002 0.136h12.838v27.938c-0.12 1.518 0.487 5.08 7.522 5.191 3.589 0.056 27.7 0 27.925 0v-33.265h12.868c0.059 0-0.013 45.364-0.012 45.557 0.071 11.188-13.882 13.618-20.313 13.806h-40.549v-8.639c0.071 0 40.519 0.008 40.621-0.002 8.265-0.873 7.289-4.981 7.288-6.364v-3.368h-27.295c-12.699-0.117-20.786-5.659-20.886-12.035-0.009-0.591 0.274-28.54-0.007-28.819z"/>
</g>
<g fill="#e48e00">
<g transform="translate(171.5 124.56)">
<path d="m0 59.271h36.92c4.322 0 8.521-0.905 11.855-2.47 5.556-2.551 8.273-6.008 8.273-10.537v-9.384c0-3.705-3.087-7.163-9.138-9.467-3.211-1.236-7.162-1.894-10.99-1.894h-15.559c-5.185 0-7.655-1.564-8.272-5.021-0.124-0.412-0.124-0.742-0.124-1.153v-5.844c0-0.33 0-0.66 0.124-1.071 0.617-2.634 1.976-3.376 6.544-3.787 0.371 0 0.864-0.083 1.235-0.083h36.674v-8.56h-36.057c-5.186 0-7.903 0.329-10.372 1.069-7.656 2.388-10.99 6.175-10.99 12.761v7.491c0 5.763 6.545 10.702 17.534 11.854 1.236 0.082 2.47 0.164 3.704 0.164h13.336c0.495 0 0.989 0 1.359 0.083 4.075 0.33 5.803 1.07 7.039 2.552 0.74 0.74 0.987 1.482 0.987 2.305v7.491c0 0.906-0.617 2.059-1.851 3.046-1.112 0.988-2.964 1.647-5.434 1.812-0.494 0-0.864 0.082-1.358 0.082h-35.439v8.561z"/>
</g>
<g transform="translate(308.66 124.56)">
<path d="m0 44.371c0 8.808 6.544 13.748 19.757 14.736 1.234 0.082 2.47 0.164 3.704 0.164h33.464v-8.561h-33.711c-7.532 0-10.372-1.894-10.372-6.421v-44.289h-12.842v44.371z"/>
</g>
<g transform="translate(236.74 124.67)">
<path d="m0 44.711v-30.522c0-7.754 5.445-12.457 16.209-13.942 1.114-0.164 2.352-0.247 3.465-0.247h24.376c1.237 0 2.352 0.083 3.589 0.247 10.765 1.485 16.209 6.188 16.209 13.942v30.522c0 6.291-2.312 9.658-7.641 11.852l12.65 11.418h-14.911s-10.234-9.238-10.234-9.238-10.303 0.653-10.303 0.653h-13.735c-2.351 0-4.825-0.331-7.548-1.073-8.166-2.227-12.126-6.517-12.126-13.612zm13.861-0.742c0 0.413 0.123 0.825 0.247 1.32 0.742 3.547 4.083 5.527 9.156 5.527h11.667s-10.717-9.675-10.717-9.675h14.911s9.347 8.438 9.347 8.438c1.722-0.918 2.856-2.322 3.252-4.125 0.123-0.412 0.123-0.825 0.123-1.237v-29.285c0-0.33 0-0.743-0.123-1.156-0.743-3.299-4.084-5.196-9.033-5.196h-19.427c-5.691 0-9.403 2.475-9.403 6.352v29.037z"/>
</g>
</g>
<g fill="#00618a" transform="translate(241.59 -4.6426)">
<path d="m135.29 115c-7.89-0.22-13.93 0.52-19.08 2.69-1.47 0.62-3.8 0.63-4.04 2.47 0.81 0.84 0.93 2.1 1.57 3.14 1.23 2 3.31 4.66 5.16 6.06 2.03 1.53 4.12 3.17 6.29 4.49 3.86 2.36 8.17 3.7 11.89 6.06 2.2 1.39 4.38 3.15 6.51 4.72 1.06 0.77 1.77 1.98 3.15 2.47v-0.23c-0.73-0.92-0.91-2.18-1.58-3.14-0.97-0.97-1.94-1.95-2.91-2.92-2.86-3.79-6.48-7.11-10.33-9.87-3.07-2.21-9.94-5.19-11.22-8.76-0.08-0.07-0.15-0.15-0.23-0.22 2.18-0.25 4.73-1.04 6.74-1.58 3.37-0.9 6.39-0.67 9.87-1.57 1.58-0.45 3.15-0.89 4.72-1.34v-0.9c-1.76-1.81-3.02-4.2-4.94-5.84-5.03-4.28-10.51-8.55-16.16-12.119-3.13-1.977-7.01-3.262-10.33-4.938-1.11-0.564-3.07-0.857-3.81-1.796-1.75-2.224-2.7-5.042-4.04-7.632-2.82-5.426-5.587-11.351-8.083-17.059-1.703-3.893-2.815-7.732-4.938-11.224-10.192-16.757-21.163-26.871-38.158-36.813-3.616-2.114-7.97-2.949-12.571-4.04-2.468-0.149-4.938-0.299-7.407-0.449-1.507-0.63-3.075-2.474-4.489-3.367-5.63-3.5567-20.071-11.293-24.241-1.122-2.633 6.42 3.935 12.685 6.284 15.937 1.649 2.283 3.76 4.841 4.938 7.408 0.775 1.686 0.909 3.378 1.572 5.163 1.632 4.396 3.051 9.179 5.162 13.243 1.067 2.056 2.243 4.222 3.592 6.06 0.827 1.128 2.244 1.625 2.468 3.368-1.386 1.939-1.465 4.95-2.244 7.407-3.508 11.061-2.185 24.81 2.918 32.993 1.566 2.52 5.254 7.91 10.325 5.84 4.436-1.81 3.445-7.41 4.714-12.346 0.287-1.12 0.111-1.943 0.673-2.693v0.224c1.347 2.694 2.694 5.387 4.041 8.085 2.99 4.81 8.297 9.84 12.794 13.24 2.332 1.76 4.168 4.81 7.183 5.84v-0.23h-0.225c-0.584-0.91-1.498-1.29-2.244-2.02-1.757-1.72-3.71-3.86-5.163-5.83-4.09-5.56-7.705-11.64-10.998-17.962-1.573-3.021-2.94-6.354-4.266-9.428-0.511-1.186-0.505-2.978-1.57-3.592-1.452 2.253-3.591 4.074-4.714 6.734-1.796 4.252-2.028 9.438-2.693 14.818-0.394 0.14-0.219 0.04-0.45 0.22-3.126-0.75-4.225-3.971-5.386-6.732-2.939-6.982-3.485-18.226-0.899-26.263 0.669-2.079 3.693-8.629 2.469-10.549-0.584-1.918-2.512-3.026-3.591-4.491-1.335-1.81-2.668-4.194-3.592-6.285-2.405-5.444-3.528-11.556-6.06-17.058-1.21-2.631-3.257-5.294-4.938-7.632-1.861-2.591-3.945-4.499-5.387-7.633-0.513-1.113-1.21-2.896-0.449-4.04 0.242-0.773 0.583-1.095 1.347-1.347 1.302-1.0038 4.928 0.334 6.284 0.898 3.6 1.495 6.604 2.918 9.653 4.938 1.464 0.971 2.944 2.848 4.713 3.367h2.02c3.16 0.727 6.7 0.226 9.652 1.122 5.218 1.586 9.894 4.053 14.141 6.735 12.938 8.169 23.516 19.798 30.752 33.67 1.164 2.233 1.668 4.365 2.693 6.734 2.069 4.777 4.675 9.693 6.733 14.365 2.054 4.661 4.056 9.365 6.955 13.244 1.53 2.039 7.43 3.133 10.1 4.265 1.88 0.792 4.96 1.622 6.74 2.692 3.4 2.05 6.69 4.49 9.88 6.74 1.59 1.12 6.48 3.58 6.73 5.61z"/>
</g>
<g fill="#00618a" transform="translate(272.5 24.803)" fill-rule="evenodd">
<path d="m4.041 0.0303c-1.646-0.0303-2.81 0.1797-4.041 0.4483v0.2246h0.225c0.785 1.6132 2.171 2.6513 3.142 4.041 0.748 1.5713 1.496 3.1426 2.245 4.7129 0.074-0.0743 0.15-0.1494 0.224-0.2237 1.39-0.9795 2.027-2.5468 2.02-4.9384-0.557-0.586-0.639-1.3213-1.122-2.0206-0.642-0.9316-1.884-1.4609-2.693-2.2441z"/>
</g>
<g fill="#e48e00" transform="translate(371.61 165.56)" fill-rule="evenodd">
<path d="m0 9.463c0 5.654 4.467 9.464 9.464 9.464s9.464-3.81 9.464-9.464c0-5.653-4.467-9.463-9.464-9.463s-9.464 3.81-9.464 9.463zm16.808 0c0 4.29-3.28 7.496-7.344 7.496-4.113 0-7.344-3.206-7.344-7.496s3.231-7.496 7.344-7.496c4.064 0 7.344 3.206 7.344 7.496zm-4.794 5.401h2.119s-3.103-4.744-3.103-4.744c1.665-0.177 2.926-0.985 2.926-2.953 0-2.196-1.387-3.104-4.062-3.104h-4.215v10.801h1.817v-4.669h1.691s2.827 4.669 2.827 4.669zm-4.518-6.183v-3.104h2.094c1.086 0 2.398 0.202 2.398 1.464 0 1.513-1.186 1.64-2.549 1.64h-1.943z"/>
</g>
</svg>
