<svg xmlns="http://www.w3.org/2000/svg" height="224.97" width="263.67" viewBox="-13.280273 -21.778809 263.66608 224.96947"><path stroke-linejoin="round" d="M117-19.28c-44.68 0-80.898 36.22-80.898 80.9 0 34.678 21.828 64.25 52.49 75.753l18.638-49.71c-10.54-3.955-18.043-14.12-18.043-26.042 0-15.357 12.45-27.808 27.81-27.808s27.81 12.45 27.81 27.81c0 11.92-7.505 22.086-18.045 26.04l18.643 49.714c30.662-11.503 52.49-41.075 52.49-75.754 0-44.677-36.22-80.896-80.9-80.896z" stroke="#20552a" stroke-width="5" fill="#40aa54"/><path fill="#20552a" d="M196.21 117.45v14.958h-3.125V117.45h-5.127v-2.388H201.3v2.388h-5.078zM220.77 123.84c-.034-.132-.092-.505-.17-1.12-.07-.5-.133-.917-.184-1.25-.08.394-.192.79-.336 1.185-.145.394-.328.8-.547 1.21l-5.04 9.238-5.04-9.434a12.826 12.826 0 0 1-.95-2.2c-.01.36-.042.74-.098 1.14-.057.398-.143.818-.257 1.255l-2.065 8.536H203.2l4.553-18.082 5.686 10.957c.087.175.22.463.4.863.18.4.398.898.653 1.495.183-.5.472-1.132.867-1.898.106-.21.184-.37.237-.473l5.555-10.944 4.66 18.083h-2.892l-2.138-8.59z"/><path d="M4.922 177.24c0 3.303-2.697 6.066-6.068 6.066-3.438 0-6.068-2.763-6.068-6.066v-8.764c0-3.302 2.697-6.067 6.068-6.067 3.37 0 6.068 2.764 6.068 6.066v8.755zm6.068 0v-8.764c0-6.81-4.787-11.46-12.135-11.46s-12.135 4.58-12.135 11.45v8.763c0 6.875 4.786 11.46 12.135 11.46s12.135-4.58 12.135-11.45zM32.56 176.56c0 3.304-2.628 6.068-6.066 6.068-3.37 0-6.067-2.764-6.067-6.068v-7.414c0-3.305 2.696-6.07 6.067-6.07 3.438 0 6.067 2.765 6.067 6.07v7.41zm6.07 0v-7.414c0-6.81-4.855-11.462-11.664-11.462-3.977 0-5.865 2.226-6.74 2.226-.27 0-.473-.27-.473-.743v-.807c0-.472-.203-.676-.674-.676h-4.046c-.472 0-.674.204-.674.676v44.154c0 .472.202.675.674.675h4.72c.47 0 .673-.204.673-.676v-15.977c0-.473.202-.742.54-.742.606 0 2.628 2.225 6.538 2.225 6.27 0 11.125-4.85 11.125-11.46zM58.583 169.15H47.798c-.607 0-.675-.27-.675-1.013 0-2.964 2.832-5.73 6.07-5.73 3.167 0 6.066 2.698 6.066 5.595-.002.81-.07 1.15-.677 1.15zm6.74 4.04v-4.718c0-6.134-5.392-11.46-12.132-11.46-6.74 0-12.134 5.326-12.134 11.46v8.764c0 6.876 4.787 11.46 12.135 11.46 3.574 0 6.405-.944 8.427-2.83 2.022-1.89 2.832-3.642 2.832-4.114 0-.202-.136-.336-.406-.47l-4.248-2.158c-.133-.068-.27-.135-.403-.135-.405 0-1.012 1.077-2.495 2.83-.742.876-2.09 1.482-3.707 1.482-3.437 0-6.067-2.763-6.067-6.066v-2.696c0-.472.202-.675.674-.675H64.65c.473 0 .674-.2.674-.67zM91.82 188.02h-4.718c-.472 0-.674-.202-.674-.674v-18.2c0-3.306-2.63-6.07-6.068-6.07-3.37 0-6.068 2.764-6.068 6.07v18.2c0 .472-.202.674-.673.674H68.9c-.473 0-.675-.202-.675-.674V158.36c0-.473.202-.677.675-.677h4.045c.472 0 .674.204.674.676v.807c0 .47.2.742.47.742.876 0 2.764-2.227 6.742-2.227 6.81 0 11.663 4.654 11.663 11.462v18.2c0 .48-.2.68-.67.68zM109.35 165.57c0 2.764 2.09 4.045 6.742 5.056 7.753 1.685 12.067 2.696 12.067 8.36 0 5.73-4.182 9.706-10.72 9.706h-2.09c-6.27 0-10.383-3.775-10.383-5.865 0-.2.137-.336.474-.472l2.63-1.28c.134-.068.268-.068.336-.068.202 0 .338.134.54.337 1.752 1.955 3.1 3.776 6.403 3.776h2.09c3.775 0 6.202-2.157 6.202-4.922 0-2.494-2.09-3.978-6.607-4.92-7.82-1.62-12.067-2.428-12.067-8.36 0-5.53 4.112-9.37 10.382-9.37h2.09c6.135 0 10.314 3.708 10.314 5.73 0 .202-.202.336-.472.472l-2.562 1.28c-.133.068-.2.068-.27.068-.202 0-.335-.135-.54-.34-1.885-2.02-3.435-3.637-6.47-3.637h-2.09c-3.9-.01-5.99 1.68-5.99 4.44zM149.93 177.64c0 3.91-3.17 7.215-7.213 7.215-4.045 0-7.147-3.304-7.147-7.215v-9.1c0-3.977 3.034-7.146 7.147-7.146 4.043 0 7.213 3.304 7.213 7.146v9.1zm4.58 0v-9.1c0-6.54-4.65-10.99-11.796-10.99-7.147 0-11.664 4.316-11.664 10.99v9.1c0 6.676 4.517 11.057 11.664 11.057 7.15 0 11.8-4.45 11.8-11.06zM180.81 188.02h-2.494c-.472 0-.675-.202-.675-.674v-2.9c0-.47-.267-.74-.538-.74-.606 0-1.28 1.08-2.493 2.293-1.35 1.278-3.372 2.02-5.597 2.02-6.135 0-10.99-4.517-10.99-11.056v-18.067c0-.472.204-.674.676-.674h3.167c.473 0 .674.202.674.674v18.067c0 3.91 3.17 7.214 7.148 7.214 4.18 0 7.28-3.236 7.28-7.214v-18.067c0-.472.202-.674.673-.674h3.17c.472 0 .674.202.674.674v28.45c0 .48-.2.68-.67.68zM201.91 163.01c-.538 0-1.415-.2-2.562-.2-4.11 0-7.145 3.098-7.145 7.076v17.46c0 .473-.2.675-.674.675h-3.238c-.472 0-.673-.2-.673-.673v-28.45c0-.47.2-.673.672-.673h2.496c.472 0 .674.202.674.674v3.37c0 .473.27.742.54.742.74 0 1.82-1.685 4.246-3.64.74-.607 2.156-1.146 3.1-1.146h2.496c.472 0 .673.202.673.674v3.44c-.01.55-.14.68-.61.68zM224.49 182.76c0 2.156-4.112 5.932-10.448 5.932-7.146 0-11.664-4.38-11.664-11.057v-9.1c0-6.675 4.518-10.99 11.664-10.99 6.27 0 10.517 3.575 10.517 5.8 0 .2-.204.404-.473.54l-2.832 1.414c-.134.066-.202.066-.27.066-.2 0-.336-.067-.538-.268-2.023-1.89-3.37-3.71-6.405-3.71-4.113 0-7.146 3.17-7.146 7.147v9.1c0 3.91 3.102 7.215 7.146 7.215 1.62 0 3.236-.674 4.45-1.822 1.415-1.347 2.02-2.29 2.425-2.29.068 0 .204 0 .338.067l2.832 1.415c.32.14.39.27.39.54zM245.79 169.48c0 .472-.2.675-.674.675h-13.01c-.472 0-.674-.203-.674-.675v-.943c0-3.978 3.034-7.147 7.145-7.147 4.046 0 7.213 3.304 7.213 7.147v.942zm4.59 3.17v-4.112c0-5.798-5.26-10.99-11.798-10.99-3.438 0-6.27 1.215-8.494 3.575-2.022 2.157-3.168 4.92-3.168 7.415v9.1c0 6.675 4.517 11.056 11.662 11.056 6.338 0 10.45-3.775 10.45-5.93 0-.27-.068-.406-.404-.54l-2.833-1.416c-.134-.068-.268-.068-.336-.068-.406 0-1.012.944-2.43 2.29-1.21 1.15-2.83 1.823-4.448 1.823-4.044 0-7.145-3.304-7.145-7.215v-3.64c0-.47.2-.674.674-.674h17.596c.48-.02.68-.22.68-.69z"/></svg>