<svg xmlns="http://www.w3.org/2000/svg" height="416.29" width="585" viewBox="0 0 585.00098 416.2868">
    <switch transform="matrix(1.0008 0 0 1.001 .027 0)">
        <g>
            <path d="M569.76 186.22c14.055 24.547 17.42 42.113 12.732 57.308-5.12 15.443-18.146 27.266-31.51 34.912-12.71 7.276-28.492 12.24-40.3 11.436l-3.71-17.663c9.645.593 22.858-1.74 36.01-9.27 19.722-11.29 28.286-29.868 12.858-56.82l-6.65-11.617-.435.25c-.052 13.128-7.15 27.665-23.587 37.072-26.296 15.053-57.94 3.488-74.877-26.1-20.57-35.933-8.666-69.517 15.883-83.567 18.405-10.538 33.663-6.76 43.5-.755l.44-.25-8.374-16.152 17.094-9.786c3.602 7.825 8.273 16.496 15.676 29.428l35.25 61.575zm-47.256-37.828c-1.755-3.065-3.606-5.793-5.986-7.92-10.027-9.387-24.503-13.326-38.754-5.168-18.403 10.536-22.646 33.625-8.472 58.386 11.792 20.6 32.57 31.986 53.17 20.196 12.054-6.9 18.525-20.503 15.314-35.247-.658-3.696-2.35-7.67-4.355-11.183l-10.916-19.065z"/>
            <path d="M408.42 259.13S138.15 389.37 92.9 407.56c-16.345 6.57-44.594-1.083-59.155-30.88-10.474-21.437-9.02-47.505 7.11-58.782 57.73-40.363 419.65-233.18 452.67-250.5 11.48-6.02 33.854 3.097 49.412 33.08 22.173 42.728 10.92 58.31-3.045 67.877-28.91 19.81-327.74 165.89-357.19 171.37-17.483 3.258-30.923-9.463-35.66-22.91-2.088-5.93-18.692-28.12 22.66-55.898 10.758-7.227 199.31-104.51 199.31-104.51" stroke="#999" stroke-width="12.22" fill="none"/>
            <path d="M50.288 289.54c-16.554 8.82-34.82 2.17-44.874-16.69-10.546-19.79-5.24-39.24 11.406-48.11 17.108-9.115 35.062-1.943 44.916 16.554 11.385 21.36 4.457 39.774-11.357 48.202l-.092.047zm-3.13-6.76c12.762-6.8 13.716-22.38 6.176-36.53-6.604-12.4-19.976-21.89-33.384-14.75-13.41 7.15-13.415 23.18-6.22 36.68 7 13.13 20.667 21.4 33.335 14.647l.093-.05zm25.638-45.24c-3.056-5.732-5.613-10.31-8.157-14.414l7.305-3.895 4.554 7.432.182-.1c.28-7.272 3.968-13.273 11.18-17.12 10.914-5.815 23.93-.995 31.175 12.6 8.574 16.088 2.917 29.318-7.533 34.884-6.01 3.203-12.475 3.325-17.522.313l-.186.097 12.96 24.322-8.138 4.337-25.822-48.457zm14.494 7.592c.592 1.11 1.325 2.263 2.146 3.132 4.394 4.9 11.455 6.125 17.19 3.07 8.6-4.585 9.848-14.273 4.378-24.536-4.78-8.972-13.495-14.183-22.096-9.598-5.546 2.955-8.75 9.648-7.07 16.59.408 1.207.772 2.557 1.313 3.576l4.14 7.766zm47.72-28.992c6.05 10.907 15.4 11.742 23.538 7.405 5.826-3.103 8.89-6.044 11.208-8.823l4.535 4.943c-2.177 2.825-6.332 7.057-13.453 10.854-13.685 7.29-26.887 2.57-34.032-10.838-7.244-13.595-4.867-28.516 8.17-35.464 14.612-7.787 25.255 3.047 29.64 11.278.888 1.664 1.484 3.008 1.792 4.03l-31.41 16.62zm20.66-18.49c-2.62-5.138-9.174-12.09-18.236-7.263-8.323 4.436-7.795 13.89-5.436 19.877l23.673-12.614zm14.83-15.39c-2.514-4.716-4.577-8.367-6.827-11.92l7.213-3.844 4.355 7.06.186-.095c.002-5.346 2.963-12.267 10.36-16.21 6.196-3.3 17.785-4.727 25.965 10.626l14.243 26.722-8.137 4.34-13.75-25.802c-3.844-7.212-9.78-11.885-17.453-7.797-5.272 2.808-7.413 8.818-6.478 14.14.173 1.213.775 2.792 1.466 4.084l14.39 27.003-8.136 4.338-17.39-32.65zm111.43-19.96c-2.078 3.006-7.3 7.69-14.883 11.73-17.57 9.366-36.616 5.265-47.555-15.264-10.447-19.605-4.22-39.783 15.105-50.082 7.675-4.09 13.558-5.087 16.275-5.11l1.464 7.648c-3.747.098-8.684 1.305-13.862 4.065-14.61 7.786-19.344 22.3-10.62 38.668 8.18 15.35 22.14 20.38 37.212 12.348 4.994-2.665 9.445-6.34 11.843-9.64l5.02 5.637zm-24.34-68.837l8.137-4.337 34.99 65.656-8.138 4.336-34.99-65.655zm32.27-.933c-3.053 1.626-6.367.307-7.896-2.56-1.527-2.868-.633-6.312 2.512-7.99 3.145-1.674 6.41-.447 7.938 2.42 1.528 2.868.775 6.355-2.462 8.08l-.092.05zm24.354 55.058l-23.853-44.76 8.14-4.335 23.853 44.758-8.14 4.338zm5.576-41.678c-3.055-5.733-5.612-10.308-8.156-14.415l7.305-3.893 4.553 7.43.184-.1c.28-7.272 3.97-13.275 11.182-17.12 10.91-5.813 23.927-.997 31.17 12.598 8.575 16.09 2.92 29.316-7.53 34.885-6.01 3.203-12.477 3.324-17.523.315l-.185.1 12.96 24.32-8.138 4.336-25.824-48.456zm14.494 7.594c.593 1.107 1.327 2.26 2.145 3.13 4.393 4.902 11.458 6.125 17.19 3.07 8.598-4.583 9.847-14.272 4.377-24.537-4.78-8.97-13.493-14.183-22.094-9.598-5.55 2.954-8.75 9.648-7.07 16.59.407 1.206.77 2.557 1.312 3.574l4.14 7.77zm54.096-30.611l3.976 23.054-8.323 4.436-12.04-73.613 9.71-5.174 54.484 50.992-8.6 4.583-17.11-16.06-22.1 11.776zM366.26 61.43L350.5 46.79c-3.463-3.378-6.36-6.584-9.206-9.698l-.276.15c1.09 4.048 2.143 8.474 2.96 12.906l3.508 21.285 18.77-10.003zm62.21-14.268c-2.81-5.27-5.317-9.753-7.812-13.77l7.12-3.793 5.052 8.588.277-.148c-1.168-7.096 1.805-13.548 7.26-16.456a9.77 9.77 0 0 1 2.368-.906l4.04 7.583c-.974.403-1.855.753-2.965 1.344-5.733 3.055-7.488 9.57-5.395 16.173a29.325 29.325 0 0 0 1.793 4.032l12.715 23.856-8.138 4.337-16.315-30.84zM457.48 0l5.716 10.727 11.653-6.21 3.3 6.196-11.653 6.21L479.36 41.06c2.957 5.546 6.205 7.854 10.735 5.438 2.22-1.183 3.415-2.057 4.422-3.068l3.672 6c-1.28 1.39-3.48 3.277-6.623 4.952-3.792 2.02-7.534 2.353-10.608 1.262-3.55-1.316-6.594-4.8-9.404-10.07l-13.01-24.413-6.936 3.696-3.303-6.195 6.938-3.696-4.38-8.23L457.485 0zm-62.44 239.91c-7.146-12.486-13.515-23.104-19.813-32.582l16.874-9.662 12.792 20.318.658-.38c-3.337-17.005 3.357-32.762 16.287-40.162 1.97-1.13 3.63-1.788 5.635-2.355l10.287 17.97c-2.32 1.034-4.416 1.946-7.047 3.453-13.587 7.776-17.333 23.596-11.808 39.346 1.192 3.098 2.73 6.296 4.61 9.58l32.367 56.54-19.285 11.038-41.557-73.104zm-31.37 105.45c-28.49 16.308-62.883 8.07-82.078-25.463-20.323-35.503-8.792-69.74 20.356-86.425 30.46-17.437 63.73-7.094 82.17 25.113 22.58 39.45 4.972 72.224-20.23 86.65l-.218.125zm-7.62-14.837c18.408-10.54 22.305-35.755 8.503-59.86-10.285-17.97-32.193-35.396-54.982-22.353-22.573 12.922-20.39 39.604-8.85 59.768 13.3 23.23 36.482 33.23 55.11 22.568l.22-.123zm-72.19 53.437c-7.45 4.268-16.098 1.364-20.613-6.527-4.517-7.89-2.425-16.942 5.248-21.335 7.668-4.39 16.19-1.698 20.83 6.408 4.52 7.89 2.64 16.814-5.245 21.33l-.22.124zM451.65 208.1l20.173-10.116 8.187 9.59-20.934 10.525-7.426-10z"/>
            <path fill="#999" d="M271.84 295.25l21.06-9.803 3.268 11.963-21.518 9.994-2.81-12.154zm6.46 19.6l6.317 10.366 20.913-9.987-6.268-10.55-20.962 10.17z"/>
        </g>
    </switch>
</svg>
