<svg xmlns:rdf="http://www.w3.org/1999/02/22-rdf-syntax-ns#" xmlns="http://www.w3.org/2000/svg" xml:space="preserve" version="1.1" xmlns:cc="http://creativecommons.org/ns#" xmlns:dc="http://purl.org/dc/elements/1.1/" viewBox="-13.2802734 -21.7788086 288 259"><metadata><rdf:RDF><cc:Work rdf:about=""><dc:format>image/svg+xml</dc:format><dc:type rdf:resource="http://purl.org/dc/dcmitype/StillImage"/><dc:title/></cc:Work></rdf:RDF></metadata><path stroke-linejoin="round" d="M130.28,2.5c-44.679,0-80.898,36.219-80.898,80.898,0,34.679,21.828,64.251,52.49,75.754l18.643-49.714c-10.54-3.9536-18.043-14.12-18.043-26.041,0-15.358,12.451-27.809,27.809-27.809s27.81,12.451,27.81,27.809c0,11.921-7.5039,22.087-18.044,26.041l18.643,49.714c30.662-11.503,52.49-41.075,52.49-75.754,0-44.677-36.22-80.896-80.9-80.896z" stroke="#20552A" stroke-width="5" fill="#40AA54"/><path d="M209.49,139.23v14.958h-3.125v-14.958h-5.127v-2.3877h13.343v2.3877h-5.0788z" fill="#20552A"/><path d="M234.05,145.62c-0.03418-0.13184-0.091797-0.50488-0.16992-1.1201-0.070312-0.5-0.13281-0.91699-0.18457-1.25-0.079102,0.39453-0.19141,0.79004-0.33594,1.1855-0.14453,0.39355-0.32715,0.79883-0.54688,1.21l-5.04,9.2373-5.041-9.4336c-0.21094-0.38672-0.39258-0.7627-0.54688-1.126-0.15332-0.36523-0.28711-0.72266-0.40137-1.0732-0.0087891,0.35938-0.041992,0.74023-0.098633,1.1387-0.056641,0.39941-0.14258,0.81934-0.25684,1.2568l-2.0654,8.5352h-2.8828l4.5527-18.083,5.6865,10.957c0.087891,0.17578,0.22168,0.46387,0.40137,0.86328,0.18066,0.39941,0.39746,0.89844,0.65234,1.4951,0.18359-0.5,0.47266-1.1318,0.86719-1.8975,0.10645-0.21094,0.18457-0.36914,0.2373-0.47363l5.5547-10.944,4.6602,18.083h-2.8925l-2.1375-8.59z" fill="#20552A"/><path d="M18.202,199.02c0,3.3027-2.6968,6.0664-6.0674,6.0664-3.438,0-6.0679-2.7637-6.0679-6.0664v-8.7637c0-3.3027,2.6968-6.0674,6.0679-6.0674,3.3706,0,6.0674,2.7646,6.0674,6.0674v8.7551zm6.068,0v-8.7637c0-6.8096-4.7866-11.461-12.135-11.461s-12.135,4.58-12.135,11.45v8.7637c0,6.876,4.7866,11.46,12.135,11.46s12.135-4.58,12.135-11.45z"/><path d="M45.841,198.34c0,3.3037-2.6289,6.0684-6.0674,6.0684-3.3706,0-6.0669-2.7646-6.0669-6.0684v-7.4141c0-3.3047,2.6963-6.0693,6.0669-6.0693,3.4385,0,6.0674,2.7646,6.0674,6.0693v7.4103zm6.068,0v-7.4141c0-6.8086-4.8535-11.462-11.663-11.462-3.9771,0-5.8647,2.2256-6.7407,2.2256-0.27002,0-0.47266-0.27051-0.47266-0.74219v-0.80762c0-0.47168-0.20215-0.67578-0.67383-0.67578h-4.0449c-0.47168,0-0.67432,0.2041-0.67432,0.67578v44.154c0,0.47266,0.20264,0.67578,0.67432,0.67578h4.7188c0.47266,0,0.67432-0.20312,0.67432-0.67578v-15.977c0-0.47266,0.20215-0.74121,0.53906-0.74121,0.60693,0,2.6294,2.2246,6.5391,2.2246,6.271,0,11.125-4.85,11.125-11.46z"/><path d="M71.863,190.93h-10.785c-0.60693,0-0.6748-0.27051-0.6748-1.0127,0-2.9648,2.8315-5.7295,6.0684-5.7295,3.168,0,6.0669,2.6973,6.0669,5.5947,0,0.81-0.067,1.15-0.675,1.15zm6.741,4.04v-4.7178c0-6.1338-5.3931-11.461-12.133-11.461-6.7417,0-12.135,5.3271-12.135,11.461v8.7637c0,6.876,4.7866,11.46,12.135,11.46,3.5728,0,6.4038-0.94434,8.4263-2.8311,2.022-1.8877,2.8315-3.6406,2.8315-4.1123,0-0.20215-0.13477-0.33691-0.40479-0.47168l-4.2476-2.1572c-0.1333-0.067383-0.26953-0.13477-0.40381-0.13477-0.40479,0-1.0117,1.0781-2.4951,2.832-0.7417,0.875-2.0889,1.4814-3.7065,1.4814-3.4385,0-6.0684-2.7637-6.0684-6.0664v-2.6963c0-0.47168,0.20264-0.6748,0.6748-0.6748h16.854c0.472,0,0.673-0.2,0.673-0.67z"/><path d="M105.1,209.8h-4.7183c-0.47168,0-0.67383-0.20215-0.67383-0.67383v-18.201c0-3.3047-2.6299-6.0693-6.0679-6.0693-3.3706,0-6.0679,2.7646-6.0679,6.0693v18.201c0,0.47168-0.20166,0.67383-0.67334,0.67383h-4.7192c-0.47217,0-0.6748-0.20215-0.6748-0.67383v-28.987c0-0.47168,0.20264-0.67578,0.6748-0.67578h4.0454c0.47217,0,0.67383,0.2041,0.67383,0.67578v0.80762c0,0.47168,0.20166,0.74219,0.47168,0.74219,0.87549,0,2.7637-2.2256,6.7412-2.2256,6.8096,0,11.663,4.6533,11.663,11.462v18.201c0,0.48-0.2,0.68-0.67,0.68z"/><path d="M122.63,187.35c0,2.7637,2.0903,4.0449,6.7417,5.0557,7.7529,1.6855,12.067,2.6963,12.067,8.3594,0,5.7295-4.1807,9.707-10.719,9.707h-2.0903c-6.269,0-10.382-3.7754-10.382-5.8652,0-0.20117,0.13623-0.33594,0.47314-0.47168l2.6284-1.2803c0.13525-0.068359,0.26904-0.068359,0.33691-0.068359,0.20215,0,0.33838,0.13477,0.54004,0.33789,1.7524,1.9541,3.1006,3.7754,6.4033,3.7754h2.0903c3.7759,0,6.2026-2.1572,6.2026-4.9219,0-2.4941-2.0898-3.9775-6.6074-4.9209-7.8188-1.6191-12.067-2.4268-12.067-8.3604,0-5.5273,4.1128-9.3701,10.382-9.3701h2.0903c6.1353,0,10.314,3.709,10.314,5.7314,0,0.20215-0.20215,0.33594-0.47168,0.47168l-2.5625,1.2803c-0.13281,0.068359-0.20117,0.068359-0.26953,0.068359-0.20215,0-0.33496-0.13574-0.53906-0.33887-1.8867-2.0215-3.4365-3.6387-6.4712-3.6387h-2.0903c-3.9-0.01-5.99,1.68-5.99,4.44z"/><path d="M163.21,199.42c0,3.9111-3.1699,7.2148-7.2129,7.2148-4.0449,0-7.1475-3.3037-7.1475-7.2148v-9.0996c0-3.9775,3.0342-7.1465,7.1475-7.1465,4.043,0,7.2129,3.3037,7.2129,7.1465v9.0985zm4.58,0v-9.0996c0-6.54-4.6504-10.989-11.796-10.989-7.1475,0-11.664,4.3145-11.664,10.989v9.0996c0,6.6758,4.5166,11.057,11.664,11.057,7.15,0,11.8-4.45,11.8-11.06z"/><path d="M194.09,209.8h-2.4941c-0.47168,0-0.6748-0.20215-0.6748-0.67383v-2.8994c0-0.47168-0.26855-0.74023-0.53906-0.74023-0.60645,0-1.2793,1.0781-2.4932,2.292-1.3486,1.2793-3.3711,2.0215-5.5957,2.0215-6.1348,0-10.989-4.5166-10.989-11.056v-18.067c0-0.47168,0.20312-0.67383,0.6748-0.67383h3.168c0.47266,0,0.67383,0.20215,0.67383,0.67383v18.067c0,3.9102,3.1699,7.2139,7.1475,7.2139,4.1787,0,7.2803-3.2363,7.2803-7.2139v-18.067c0-0.47168,0.20117-0.67383,0.67285-0.67383h3.1689c0.47168,0,0.67383,0.20215,0.67383,0.67383v28.449c0,0.48-0.2,0.68-0.67,0.68z"/><path d="M215.19,184.79c-0.53809,0-1.415-0.20117-2.5615-0.20117-4.1113,0-7.1455,3.0996-7.1455,7.0771v17.461c0,0.47168-0.20117,0.67383-0.67383,0.67383h-3.2373c-0.47168,0-0.67285-0.20215-0.67285-0.67383v-28.449c0-0.47168,0.20117-0.67383,0.67285-0.67383h2.4961c0.47168,0,0.67383,0.20215,0.67383,0.67383v3.3711c0,0.47168,0.26953,0.74121,0.54004,0.74121,0.73926,0,1.8193-1.6855,4.2461-3.6406,0.74121-0.60645,2.1562-1.1455,3.1006-1.1455h2.4951c0.47266,0,0.67383,0.20215,0.67383,0.67383v3.4395c-0.01,0.55-0.14,0.68-0.61,0.68z"/><path d="M237.77,204.54c0,2.1562-4.1123,5.9316-10.448,5.9316-7.1465,0-11.664-4.3809-11.664-11.057v-9.0996c0-6.6748,4.5176-10.989,11.664-10.989,6.2686,0,10.517,3.5742,10.517,5.7979,0,0.20117-0.20312,0.40527-0.47168,0.54004l-2.832,1.415c-0.13477,0.067383-0.20215,0.067383-0.27051,0.067383-0.20117,0-0.33594-0.067383-0.53809-0.26855-2.0225-1.8887-3.3711-3.709-6.4043-3.709-4.1133,0-7.1465,3.1689-7.1465,7.1465v9.0996c0,3.9111,3.1016,7.2148,7.1465,7.2148,1.6182,0,3.2354-0.67383,4.4492-1.8213,1.415-1.3477,2.0215-2.291,2.4258-2.291,0.067383,0,0.20312,0,0.33789,0.067383l2.832,1.415c0.32,0.14,0.39,0.27,0.39,0.54z"/><path d="M259.07,191.26c0,0.47168-0.20117,0.6748-0.67383,0.6748h-13.01c-0.47266,0-0.67383-0.20312-0.67383-0.6748v-0.94336c0-3.9775,3.0332-7.1465,7.1445-7.1465,4.0459,0,7.2129,3.3037,7.2129,7.1465v0.94221zm4.59,3.17v-4.1123c0-5.7979-5.2588-10.989-11.798-10.989-3.4375,0-6.2686,1.2139-8.4941,3.5742-2.0215,2.1572-3.168,4.9209-3.168,7.415v9.0996c0,6.6758,4.5176,11.057,11.662,11.057,6.3379,0,10.45-3.7754,10.45-5.9316,0-0.26953-0.067383-0.40527-0.4043-0.54004l-2.833-1.415c-0.13379-0.067383-0.26758-0.067383-0.33594-0.067383-0.4043,0-1.0107,0.94336-2.4277,2.291-1.2119,1.1475-2.8311,1.8213-4.4492,1.8213-4.0439,0-7.1445-3.3037-7.1445-7.2148v-3.6387c0-0.47168,0.20117-0.6748,0.67383-0.6748h17.595c0.48-0.02,0.68-0.22,0.68-0.69z"/></svg>
