<svg xmlns="http://www.w3.org/2000/svg" viewBox="0 0 87.9 77.39">
<path fill="#ff5021" d="M86.61,44.2a12.28,12.28,0,0,0-5.4-16.4,12.05,12.05,0,0,0-10-.4,13.15,13.15,0,0,0-6.3,5.8,5.85,5.85,0,0,1-8.1,1.9,5.74,5.74,0,0,1-1.9-1.9,12.14,12.14,0,1,0-.1,11.1h0A5.82,5.82,0,0,1,65,49.9a5.77,5.77,0,0,1-5.2,3h-0.3a12.15,12.15,0,1,0,12.2,12.2,12.63,12.63,0,0,0-1.3-5.4h0c-2.1-4.3-.6-9,5.4-8.8h0a12.62,12.62,0,0,0,10.8-6.7h0Z"/>
<path fill="#6699a3" d="M36.41,56a12.14,12.14,0,0,0-7.9-3h-0.2c-5-.2-7.4-4.4-5.1-8.9a12.18,12.18,0,0,0-5.5-16.3A12.53,12.53,0,0,0,12,26.5,12.2,12.2,0,0,0,0,39a13.28,13.28,0,0,0,.9,4.4,12.54,12.54,0,0,0,11.2,7.5h0c4.7,0.2,7.5,4.2,5.4,8.8h0A12.21,12.21,0,1,0,36.41,56h0Z"/>
<circle fill="#adc0c9" cx="59.51" cy="12.2" r="12.2"/>
<circle fill="#adc0c9" cx="28.41" cy="12.2" r="12.2"/>
</svg>
