<svg xmlns:rdf="http://www.w3.org/1999/02/22-rdf-syntax-ns#" xmlns="http://www.w3.org/2000/svg" version="1.1" xmlns:cc="http://creativecommons.org/ns#" xmlns:dc="http://purl.org/dc/elements/1.1/" viewBox="0 0 443.34 218.91">
<g stroke="#1d2d44" stroke-width="4" fill="none">
<circle r="21.999" cy="189.91" cx="28.999"/>
<circle r="22.001" cy="189.91" cx="296.51"/>
<path d="m67 167.7v30.074c0 7.801 6.324 14.123 14.123 14.123 7.803 0 14.125-6.322 14.125-14.123v-30.074"/>
<path d="m95.248 167.7v30.074c0 7.801 6.324 14.123 14.125 14.123s14.125-6.322 14.125-14.123v-30.074"/>
<path d="m251.26 127.7v70.078c0 7.801 6.322 14.123 14.123 14.123"/>
<path d="m140 211.91v-22.201c0-12.15 9.85-22 22-22 12.152 0 22.002 9.85 22.002 22v22.201"/>
<path d="m333.01 167.7v22.205c0 12.148 9.85 21.998 22 21.998s22.002-9.85 22.002-21.998v-22.205"/>
<path d="m234.83 141.58c-19.421 0-35.167 15.744-35.167 35.166s15.746 35.164 35.167 35.164"/>
<polyline transform="translate(-68.313 -35.263)" points="504.6 162.96 504.6 203.13 504.6 202.16"/>
<path d="m421.92 211.89h-7.848c-12.15 0-22-9.85-22-21.998 0-12.15 9.85-22 22-22l22.207-0.025s0.137 22.342 0 29.895c-0.138 7.552-7.968 14.128-14.359 14.128z"/>
</g>
<g stroke="#fff" stroke-width="4" fill="#1d2d44">
<circle r="20.332" cy="43.648" cx="220.18"/>
<circle r="37.242" cy="114.31" cx="182.9"/>
<circle r="40.261" cy="89.533" cx="224.91"/>
<circle r="37.242" cy="73.209" cx="307.02"/>
<circle r="37.241" cy="44.241" cx="266.18"/>
<circle r="21.3" cy="128.69" cx="390.11"/>
<circle r="40.261" cy="112.3" cx="344.85"/>
<circle r="21.299" cy="130.75" cx="222.45"/>
<path d="m329.79 100.41c0 28.348-22.984 51.328-51.334 51.328s-51.333-22.98-51.333-51.328c0-28.351 22.984-51.333 51.333-51.333s51.334 22.982 51.334 51.333z"/>
</g>
</svg>
