<svg xmlns="http://www.w3.org/2000/svg" version="1" viewBox="-181.235 -153.725 609.734 648">
    <linearGradient id="a" x1="698.79" gradientUnits="userSpaceOnUse" y1="-300.46" gradientTransform="matrix(1 .001 .001 -1 -610.68 38.117)" x2="868.23" y2="6.564">
        <stop stop-color="#FFF" offset="0"/>
        <stop stop-color="#E1E1E1" offset="1"/>
    </linearGradient>
    <path fill="url(#a)" d="M-46.192-137.83h278.34c61.78 43.89 132.34 109.45 180.63 180.92v428.2h-458.97v-609.12z"/>
    <path stroke="#C8C8C8" stroke-width=".5" fill="none" d="M-46.192-137.83h278.34c61.78 43.89 132.34 109.45 180.63 180.92v428.2h-458.97v-609.12z"/>
    <linearGradient id="b" x1="912.2" gradientUnits="userSpaceOnUse" y1="67.436" gradientTransform="matrix(1 0 0 -1 -610.56 39.265)" x2="938.32" y2="91.512">
        <stop stop-color="#FFF" offset="0"/>
        <stop stop-color="#C8C8C8" offset="1"/>
    </linearGradient>
    <path fill="url(#b)" d="M232.15-137.83C299.36-88.92 363.36-28.67 412.78 43.09 380.77 9.845 336.88-7.9 284.8-5.622c6.15-61.643-17.62-101.45-52.65-132.21z"/>
    <path stroke="#C8C8C8" stroke-width=".5" fill="none" d="M232.15-137.83C299.36-88.92 363.36-28.67 412.78 43.09 380.77 9.845 336.88-7.9 284.8-5.622c6.15-61.643-17.62-101.45-52.65-132.21z"/>
    <path stroke="#C8C8C8" stroke-width="6.005" fill="none" d="M-173.56-95.046h414.34v139.26h-414.34z"/>
    <path fill="#F91D0A" d="M115.93 262.79c11.188-21.93 23.903-46.636 34.08-71.44l4.024-9.793c-13.29-50.59-21.26-91.195-14.14-117.45 1.917-6.845 9.845-10.998 18.32-10.998l5.166.075h.948c11.604-.178 17.068 14.583 17.688 20.322 1.024 9.558-3.398 25.734-3.398 25.734 0-6.53.256-17.086-3.867-26.194-4.798-10.54-9.382-16.835-13.492-17.833-2.075 1.386-4.092 4.256-4.783 9.777-1.43 7.74-1.86 17.512-1.86 22.55 0 17.795 3.504 41.284 10.39 65.498 1.3-3.75 2.442-7.35 3.35-10.726 1.413-5.32 10.39-40.578 10.39-40.578s-2.262 46.935-5.422 61.136c-.677 3-1.424 5.97-2.202 9.007 11.356 31.727 29.653 60.044 51.48 80.424 8.606 8.044 19.475 14.53 29.762 20.44 22.465-3.21 43.15-4.726 60.405-4.535 22.894.302 39.7 3.688 46.504 10.39 3.333 3.26 4.685 7.194 5.105 11.605.1 1.716-.736 5.748-.98 6.76.244-1.225.244-7.25-18.134-13.115-14.473-4.627-41.562-4.483-74.067-1.023 37.597 18.394 74.225 27.533 85.833 22.054 2.838-1.383 6.28-6.1 6.28-6.1s-2.046 9.297-3.515 11.62c-1.874 2.526-5.552 5.26-9.04 6.183-18.33 4.89-66.05-6.428-107.65-30.198-46.477 6.845-97.52 19.49-138.44 32.91-40.216 70.48-70.444 102.84-95.035 90.53l-9.04-4.546c-3.676-2.102-4.237-7.22-3.387-11.386 2.867-14.027 20.456-35.154 55.787-56.25 3.803-2.302 20.743-11.26 20.743-11.26s-12.54 12.14-15.48 14.52c-28.2 23.11-49.012 52.183-48.493 63.454l.102.983c23.955-3.4 59.88-52.16 106.06-142.52m14.63 7.49c-7.714 14.528-15.254 27.998-22.215 40.366 38.506-16.133 79.95-26.457 119.4-33.79-5.302-3.662-10.45-7.54-15.292-11.637-21.725-18.393-38.288-41.34-50.294-65.487-7.61 20.51-16.66 42.31-31.6 70.55M372.81 326.1h1.487c1.65 0 3.054-.5 3.054-1.925 0-1.135-.713-1.923-2.836-1.923-.85 0-1.35.078-1.704.155v3.684zm0 6.67h-2.204v-11.865a24.5 24.5 0 0 1 4.128-.337c1.985 0 2.973.337 3.748.91.715.497 1.213 1.43 1.213 2.5 0 1.49-1.05 2.4-2.344 2.84v.136c1.076.422 1.65 1.354 2.008 2.84.337 1.845.556 2.56.85 2.977h-2.28c-.356-.416-.636-1.488-.933-3.116-.275-1.29-1.048-1.847-2.757-1.847h-1.428v4.97zm2.28 5.19c-6.277 0-11.368-5.088-11.368-11.364 0-6.28 5.09-11.37 11.368-11.37 6.276 0 11.37 5.09 11.37 11.37 0 6.28-5.09 11.36-11.37 11.36zm9.09-11.36c0-5.023-4.07-9.096-9.092-9.096s-9.094 4.072-9.094 9.096a9.095 9.095 0 0 0 9.094 9.094 9.09 9.09 0 0 0 9.09-9.09z"/>
    <path d="M167.82 413.9l-3.08-19.91c-.886-5.727-2-14.68-2.87-20.883h-.333c-.91 6.25-2.162 15.466-3.074 20.934l-3.322 19.86h12.67zm-14.35 12.95l-4.013 22.07h-14.82l18.476-91.83h18.185l16.78 91.83h-14.89l-3.945-22.07h-15.77zm68.34-18.95c0-1.237 0-2.67-.22-3.965-.606-4.547-2.83-8.63-6.375-8.63-6.125 0-8.38 9.603-8.38 20.813 0 12.873 3.21 20.22 8.16 20.22 2.267 0 4.85-1.27 6.28-6.664.332-1.082.534-2.526.534-4.205v-17.576zm15.2-53.24v75.217c0 5.975.287 13.313.513 19.05h-13.146l-.845-7.666h-.337c-2.185 4.72-7 8.737-12.726 8.737-12.59 0-18.83-15.104-18.83-34.173 0-23.24 9.316-34.55 19.455-34.55 5.3 0 8.71 2.838 10.45 6.92h.267V354.66h15.21zm31.66 82.63c5.822 0 7.238-11.898 7.238-21.755 0-9.376-1.416-21.57-7.482-21.57-6.423 0-7.777 12.194-7.777 21.57 0 11.306 1.717 21.755 7.908 21.755h.11zm-.27 12.7c-14.016 0-22.816-12.255-22.816-34.16 0-23.916 11.272-34.562 23.15-34.562 13.816 0 22.503 12.857 22.503 34.166 0 27.396-13.59 34.557-22.725 34.557h-.097zm46.55-24.83c0 1.646.267 3.2.6 4.243 1.517 5.573 4.12 6.94 6.195 6.94 5.86 0 8.245-8.107 8.245-21.08 0-11.808-2.516-19.95-8.313-19.95-2.892 0-5.324 3.42-6.15 7.077-.31 1.14-.576 2.948-.576 4.185v18.577zm-15.19-70.5h15.195v34.667h.244c3.01-5.113 6.997-8.053 12.765-8.053 11.477 0 17.23 14.195 17.23 32.732 0 23.45-8.58 35.99-19.698 35.99-5.305 0-8.846-2.557-12.033-9.043h-.314l-.868 7.973h-13.04c.205-5.53.52-13.075.52-19.05V354.65zm81.89 54.63c.065-9.347-2.452-15.878-7.266-15.878-5.502 0-7.844 8.765-8.022 15.878h15.287zM366.32 421c.178 12.03 5.99 15.96 13.21 15.96 4.567 0 8.516-1.108 11.41-2.306l2.03 11.902c-4.01 1.9-10.252 3.08-16.227 3.08-16.313 0-25.224-12.122-25.224-32.853 0-22.237 10.338-35.604 23.844-35.604 13.034 0 20.278 11.808 20.278 31.08 0 4.412-.18 6.885-.45 8.825l-28.87-.09z" fill="#1A171B"/>
    <linearGradient id="c" y2="-148.73" gradientUnits="userSpaceOnUse" y1="99.004" x2="-6.819" x1="73.675">
        <stop stop-color="#8A0000" offset=".127"/>
        <stop stop-color="#900000" stop-opacity=".999" offset=".244"/>
        <stop stop-color="#A00000" stop-opacity=".999" offset=".398"/>
        <stop stop-color="#BC0000" stop-opacity=".998" offset=".573"/>
        <stop stop-color="#E20000" stop-opacity=".997" offset=".761"/>
        <stop stop-color="#FA0000" stop-opacity=".996" offset=".867"/>
    </linearGradient>
    <path fill="url(#c)" d="M-173.74-94.495H240.6v139.26h-414.34z"/>
    <linearGradient id="d" y2="-158.55" gradientUnits="userSpaceOnUse" y1="108.82" x2="-9.8" x1="77.076">
        <stop stop-color="#5E0000" offset=".315"/>
        <stop stop-color="#830000" stop-opacity=".999" offset=".444"/>
        <stop stop-color="#AE0000" stop-opacity=".998" offset=".618"/>
        <stop stop-color="#CD0000" stop-opacity=".997" offset=".775"/>
        <stop stop-color="#E00000" stop-opacity=".996" offset=".908"/>
        <stop stop-color="#E70000" stop-opacity=".996" offset="1"/>
    </linearGradient>
    <path fill="url(#d)" d="M248.51 53.122h-429.75v-155.97h429.75v155.97zm-15.46-140.51h-398.84v125.02h398.84v-125.02z"/>
    <path fill="#FFF9F9" d="M-65.448-74.06h30.15c8.964 0 15.837 2.645 20.618 7.934 4.815 5.25 7.22 12.746 7.22 22.494 0 9.79-2.405 17.33-7.22 22.62-4.78 5.25-11.654 7.874-20.617 7.87h-11.986v32.367h-18.165V-74.06m18.166 17.43v26.056h10.052c3.52 0 6.243-1.124 8.162-3.373 1.92-2.292 2.878-5.52 2.878-9.686s-.958-7.374-2.878-9.623c-1.918-2.25-4.64-3.374-8.162-3.374h-10.052m70.775.75V1.044h6.51c7.423 0 13.086-2.437 16.985-7.31 3.932-4.875 5.9-11.957 5.9-21.245 0-9.25-1.953-16.287-5.853-21.122-3.9-4.832-9.578-7.248-17.033-7.248h-6.51M5.328-74.06h19.155c10.696 0 18.655 1.02 23.874 3.06 5.254 2.002 9.752 5.416 13.495 10.25 3.305 4.205 5.757 9.058 7.362 14.555 1.604 5.5 2.406 11.727 2.406 18.684 0 7.038-.803 13.33-2.406 18.87-1.605 5.498-4.058 10.35-7.362 14.558-3.774 4.83-8.303 8.268-13.587 10.31-5.285 1.998-13.21 2.997-23.78 2.997H5.326V-74.06m80.21 0h49.022v18.18H103.7v17.373h29.018v18.184H103.7v39.55H85.538V-74.06"/>
</svg>
