<svg xmlns:rdf="http://www.w3.org/1999/02/22-rdf-syntax-ns#" xmlns="http://www.w3.org/2000/svg" version="1.0" xml:space="preserve" height="100%" width="100%" enable-background="new -181.235 -153.725 609.734 648" y="0px" x="0px" xmlns:cc="http://creativecommons.org/ns#" xmlns:dc="http://purl.org/dc/elements/1.1/" viewBox="-181.235 -153.725 609.734 648"><linearGradient id="SVGID_1_" x1="698.79" gradientUnits="userSpaceOnUse" y1="-300.46" gradientTransform="matrix(1 .0011 .0011 -1 -610.68 38.117)" x2="868.23" y2="6.5635"><stop stop-color="#FFF" offset="0"/><stop stop-color="#E1E1E1" offset="1"/></linearGradient><path fill="url(#SVGID_1_)" d="m-46.192-137.83h278.34c61.78 43.889 132.34 109.45 180.63 180.92v428.2h-458.97v-609.12z"/><path stroke="#C8C8C8" stroke-width=".5" fill="none" d="m-46.192-137.83h278.34c61.78 43.889 132.34 109.45 180.63 180.92v428.2h-458.97v-609.12z"/><linearGradient id="SVGID_2_" x1="912.2" gradientUnits="userSpaceOnUse" y1="67.436" gradientTransform="matrix(1 0 0 -1 -610.56 39.265)" x2="938.32" y2="91.512"><stop stop-color="#FFF" offset="0"/><stop stop-color="#C8C8C8" offset="1"/></linearGradient><path fill="url(#SVGID_2_)" d="m232.15-137.83c67.21 48.91 131.21 109.16 180.63 180.92-32.01-33.245-75.9-50.99-127.98-48.712 6.15-61.643-17.62-101.45-52.65-132.21z"/><path stroke="#C8C8C8" stroke-width=".5" fill="none" d="m232.15-137.83c67.21 48.91 131.21 109.16 180.63 180.92-32.01-33.245-75.9-50.99-127.98-48.712 6.15-61.643-17.62-101.45-52.65-132.21z"/><rect height="139.26" width="414.34" stroke="#C8C8C8" y="-95.046" x="-173.56" stroke-width="6.0045" fill="none"/><path fill="#F91D0A" d="m115.93 262.79c11.188-21.929 23.903-46.636 34.08-71.441l4.024-9.792c-13.29-50.59-21.26-91.195-14.14-117.45 1.917-6.845 9.845-10.998 18.321-10.998l5.165 0.076h0.948c11.604-0.178 17.068 14.583 17.688 20.322 1.024 9.558-3.398 25.734-3.398 25.734 0-6.532 0.256-17.087-3.867-26.195-4.799-10.539-9.383-16.835-13.493-17.833-2.075 1.386-4.092 4.256-4.783 9.777-1.431 7.741-1.86 17.512-1.86 22.549 0 17.796 3.504 41.285 10.39 65.499 1.299-3.749 2.442-7.351 3.351-10.726 1.412-5.319 10.389-40.578 10.389-40.578s-2.262 46.935-5.422 61.136c-0.677 3.001-1.424 5.969-2.202 9.007 11.355 31.727 29.652 60.044 51.479 80.424 8.606 8.043 19.475 14.528 29.762 20.439 22.465-3.21 43.149-4.726 60.405-4.535 22.894 0.302 39.699 3.688 46.504 10.391 3.332 3.258 4.684 7.193 5.104 11.604 0.1 1.716-0.736 5.748-0.981 6.76 0.245-1.225 0.245-7.249-18.133-13.115-14.474-4.627-41.563-4.483-74.068-1.023 37.597 18.394 74.225 27.533 85.833 22.054 2.838-1.383 6.28-6.099 6.28-6.099s-2.046 9.296-3.515 11.62c-1.875 2.525-5.553 5.26-9.04 6.182-18.332 4.891-66.051-6.427-107.65-30.197-46.478 6.845-97.521 19.49-138.44 32.91-40.217 70.48-70.445 102.84-95.036 90.53l-9.041-4.546c-3.675-2.102-4.236-7.219-3.386-11.386 2.867-14.027 20.456-35.154 55.787-56.251 3.803-2.301 20.743-11.258 20.743-11.258s-12.541 12.138-15.479 14.52c-28.2 23.109-49.013 52.182-48.494 63.453l0.102 0.983c23.955-3.4 59.879-52.16 106.06-142.52m14.63 7.49c-7.714 14.528-15.254 27.998-22.215 40.366 38.506-16.133 79.95-26.457 119.4-33.791-5.302-3.661-10.449-7.538-15.292-11.636-21.725-18.393-38.288-41.34-50.294-65.487-7.61 20.51-16.66 42.31-31.6 70.55"/><path fill="#F91D0A" d="m372.81 326.1h1.487c1.649 0 3.054-0.499 3.054-1.925 0-1.135-0.714-1.923-2.837-1.923-0.85 0-1.349 0.078-1.704 0.155v3.684zm0 6.67h-2.204v-11.865c1.215-0.198 2.481-0.337 4.128-0.337 1.985 0 2.973 0.337 3.748 0.911 0.715 0.496 1.213 1.429 1.213 2.499 0 1.491-1.051 2.401-2.344 2.839v0.137c1.075 0.422 1.648 1.354 2.007 2.841 0.337 1.844 0.556 2.559 0.851 2.976h-2.281c-0.356-0.417-0.636-1.489-0.933-3.117-0.275-1.29-1.048-1.847-2.757-1.847h-1.428v4.97zm2.28 5.19c-6.277 0-11.368-5.088-11.368-11.364 0-6.279 5.091-11.371 11.368-11.371 6.276 0 11.369 5.092 11.369 11.371 0 6.28-5.09 11.36-11.37 11.36zm9.09-11.36c0-5.023-4.071-9.096-9.092-9.096s-9.094 4.072-9.094 9.096c0 5.021 4.072 9.094 9.094 9.094 5.02 0 9.09-4.07 9.09-9.09z"/><g fill="#1A171B"><path d="m167.82 413.9l-3.081-19.909c-0.885-5.728-2-14.68-2.869-20.884h-0.333c-0.91 6.249-2.162 15.466-3.074 20.934l-3.322 19.859h12.669zm-14.35 12.95l-4.013 22.071h-14.819l18.475-91.832h18.185l16.781 91.832h-14.89l-3.946-22.071h-15.77z"/><path d="m221.81 407.9c0-1.237 0-2.669-0.221-3.965-0.605-4.547-2.828-8.63-6.374-8.63-6.125 0-8.38 9.603-8.38 20.813 0 12.873 3.211 20.219 8.159 20.219 2.268 0 4.852-1.269 6.282-6.663 0.331-1.082 0.533-2.526 0.533-4.205v-17.575zm15.2-53.24v75.217c0 5.975 0.287 13.313 0.513 19.05h-13.146l-0.845-7.666h-0.337c-2.185 4.718-7 8.736-12.726 8.736-12.59 0-18.83-15.104-18.83-34.173 0-23.239 9.317-34.55 19.456-34.55 5.301 0 8.711 2.838 10.449 6.92h0.268v-33.534h15.209z"/><path d="m268.67 437.29c5.822 0 7.238-11.898 7.238-21.755 0-9.376-1.416-21.57-7.482-21.57-6.423 0-7.777 12.194-7.777 21.57 0 11.306 1.718 21.755 7.909 21.755h0.111zm-0.27 12.7c-14.016 0-22.816-12.255-22.816-34.159 0-23.917 11.272-34.563 23.15-34.563 13.816 0 22.503 12.857 22.503 34.166 0 27.396-13.589 34.557-22.725 34.557h-0.097z"/><path d="m314.95 425.16c0 1.646 0.267 3.201 0.6 4.243 1.517 5.573 4.121 6.941 6.195 6.941 5.859 0 8.245-8.108 8.245-21.08 0-11.809-2.516-19.951-8.313-19.951-2.892 0-5.324 3.419-6.149 7.077-0.311 1.14-0.577 2.948-0.577 4.185v18.577zm-15.19-70.5h15.195v34.667h0.244c3.011-5.113 6.998-8.053 12.766-8.053 11.477 0 17.229 14.195 17.229 32.732 0 23.451-8.58 35.99-19.697 35.99-5.305 0-8.846-2.557-12.033-9.043h-0.314l-0.868 7.973h-13.04c0.205-5.531 0.52-13.075 0.52-19.05v-75.225z"/><path d="m381.65 409.29c0.065-9.347-2.452-15.878-7.266-15.878-5.502 0-7.844 8.765-8.022 15.878h15.287zm-15.33 11.71c0.178 12.03 5.991 15.96 13.211 15.96 4.566 0 8.515-1.108 11.409-2.306l2.029 11.902c-4.01 1.9-10.251 3.08-16.226 3.08-16.313 0-25.224-12.122-25.224-32.853 0-22.237 10.339-35.604 23.845-35.604 13.034 0 20.278 11.809 20.278 31.08 0 4.413-0.181 6.886-0.449 8.826l-28.87-0.09z"/></g><linearGradient id="SVGID_3_" y2="-148.73" gradientUnits="userSpaceOnUse" y1="99.004" x2="-6.8195" x1="73.675"><stop stop-color="#8A0000" offset=".1273"/><stop stop-color="#900000" stop-opacity=".9993" offset=".2441"/><stop stop-color="#A00000" stop-opacity=".9985" offset=".3979"/><stop stop-color="#BC0000" stop-opacity=".9975" offset=".5725"/><stop stop-color="#E20000" stop-opacity=".9965" offset=".761"/><stop stop-color="#FA0000" stop-opacity=".9959" offset=".8667"/></linearGradient><rect height="139.26" width="414.34" y="-94.495" x="-173.74" fill="url(#SVGID_3_)"/><linearGradient id="SVGID_4_" y2="-158.55" gradientUnits="userSpaceOnUse" y1="108.82" x2="-9.8001" x1="77.076"><stop stop-color="#5E0000" offset=".3152"/><stop stop-color="#830000" stop-opacity=".9992" offset=".4436"/><stop stop-color="#AE0000" stop-opacity=".9982" offset=".6183"/><stop stop-color="#CD0000" stop-opacity=".9972" offset=".7755"/><stop stop-color="#E00000" stop-opacity=".9964" offset=".9081"/><stop stop-color="#E70000" stop-opacity=".9959" offset="1"/></linearGradient><path fill="url(#SVGID_4_)" d="m248.51 53.122h-429.75v-155.97h429.75v155.97zm-15.46-140.51h-398.84v125.02h398.84v-125.02z"/><path fill="#FFF9F9" d="m-65.448-74.06h30.151c8.963 0 15.836 2.645 20.617 7.934 4.815 5.25 7.221 12.746 7.221 22.494 0 9.79-2.406 17.329-7.221 22.619-4.781 5.25-11.654 7.875-20.617 7.872h-11.986v32.366h-18.165v-93.285m18.166 17.431v26.055h10.052c3.521 0 6.243-1.124 8.162-3.373 1.919-2.292 2.878-5.521 2.878-9.686 0-4.166-0.958-7.374-2.878-9.623-1.918-2.249-4.64-3.374-8.162-3.374h-10.052m70.775 0.75v56.924h6.509c7.424 0 13.087-2.437 16.986-7.311 3.932-4.874 5.899-11.956 5.899-21.244 0-9.249-1.952-16.286-5.852-21.121-3.899-4.832-9.578-7.248-17.033-7.248h-6.509m-18.166-18.18h19.155c10.696 0 18.655 1.02 23.874 3.06 5.254 2.002 9.752 5.416 13.495 10.249 3.304 4.206 5.756 9.059 7.361 14.556 1.604 5.501 2.406 11.727 2.406 18.684 0 7.039-0.803 13.331-2.406 18.871-1.605 5.498-4.058 10.35-7.362 14.558-3.774 4.831-8.303 8.268-13.587 10.309-5.285 1.999-13.211 2.998-23.781 2.998h-19.155v-93.285m80.209 0h49.023v18.181h-30.858v17.372h29.017v18.184h-29.017v39.549h-18.164v-93.286"/></svg>
