<svg version="1.1" viewBox="0 0 100 100" xmlns="http://www.w3.org/2000/svg">
	<g transform="translate(0,-197)">
		<path d="m18.466 197c-10.23 0-18.466 8.2354-18.466 18.466v63.069c0 10.23 8.2354 18.466 18.466 18.466h63.069c10.23 0 18.466-8.2354 18.466-18.466v-63.069c0-10.23-8.2354-18.466-18.466-18.466zm56.721 12.739h9.3179c.54182 0 .97774.50315.97774 1.129v10.122c0 .6258-.43592 1.1304-.97774 1.1304h-9.3179c-.54182 0-.97921-.50463-.97921-1.1304v-10.122c0-.6258.43739-1.129.97921-1.129zm-25.185 14.76a24.148 24.148 0 0 1 24.147 24.148 24.148 24.148 0 0 1 -24.147 24.147 24.148 24.148 0 0 1 -24.149 -24.147 24.148 24.148 0 0 1 24.149 -24.148zm0 9.2342a14.915 14.915 0 0 0 -14.916 14.914 14.915 14.915 0 0 0 14.916 14.914 14.915 14.915 0 0 0 14.914 -14.914 14.915 14.915 0 0 0 -14.914 -14.914z"/>
	</g>
</svg>
