<svg xmlns="http://www.w3.org/2000/svg" height="156.52" width="295.64" xmlns:xlink="http://www.w3.org/1999/xlink" viewBox="0 0 295.64062 157.5"><defs><radialGradient id="a" gradientUnits="userSpaceOnUse" cy="-48.545" cx="77.914" gradientTransform="matrix(1.509 0 0 1.3582 -41.222 75.708)" r="146"><stop stop-color="#dddce9" offset="0"/><stop stop-color="#5664a3" offset=".37"/><stop offset="1"/></radialGradient></defs><ellipse rx="146" ry="76" stroke="url(#a)" cy="78.75" cx="147.81" stroke-width="5.5" fill="#6c7eb7"/><path id="b" stroke-linejoin="round" d="M42.807 123.75l16-81h37c16 1 24 9 24 23 0 24-19 38-36 37h-18l-4 21h-19zm27-36l5-30h13c7 0 12 3 12 9-1 17-9 20-18 21h-12z" fill-rule="evenodd" stroke="#fff" stroke-width="2"/><path stroke-linejoin="round" d="M113.81 102.75l16-81h19l-4 21h18c16 1 22 9 20 19l-7 41h-20l7-37c1-5 1-8-6-8h-15l-9 45h-19z" stroke="#fff" stroke-width="2"/><use xlink:href="#b" transform="translate(134)" height="100%" width="100%"/></svg>