<svg xmlns:rdf="http://www.w3.org/1999/02/22-rdf-syntax-ns#" xmlns="http://www.w3.org/2000/svg" height="162.7mm" width="296.85mm" version="1.1" xmlns:cc="http://creativecommons.org/ns#" xmlns:xlink="http://www.w3.org/1999/xlink" xmlns:dc="http://purl.org/dc/elements/1.1/">
<defs>
<linearGradient id="linearGradient3910">
<stop stop-color="#669" offset="0"/>
<stop stop-color="#FFF" offset="1"/>
</linearGradient>
<linearGradient id="linearGradient3894">
<stop stop-color="#F90" offset="0"/>
<stop stop-color="#FFF" offset="1"/>
</linearGradient>
<linearGradient id="linearGradient3900" x1="962.81" xlink:href="#linearGradient3894" gradientUnits="userSpaceOnUse" x2="239.32" y1="487.91" y2="-422.63"/>
<linearGradient id="linearGradient3916" x1="996.75" xlink:href="#linearGradient3910" gradientUnits="userSpaceOnUse" x2="-635.19" y1="572.64" y2="-1226.6"/>
</defs>
<g stroke-linejoin="round" stroke-opacity=".85098" fill-opacity="0" transform="translate(-2.8531 -64.148)" stroke="#000" stroke-width="3.8339">
<g transform="translate(56,4.421875e-6)">
<path d="m976.34 451.43c10.718-1.278 17.603-3.578 20.415-6.898l-107.94 13.272h-0.767l-437.41 53.085h-0.256c0.512 22.97 10.464 40.575 30.624 53.594 5.365 3.564 10.974 6.375 16.082 8.164 4.588-5.366 10.21-9.698 16.586-13.273h0.255c57.169-34.699 142.14-40.066 254.43-16.584l1.275 0.511c12.255 2.55 24.25 5.609 35.733 8.931 3.565 0.51 6.376-0.257 8.676-2.301 4.076-3.066 9.186-5.352 16.072-7.141v-0.256c17.873-32.155 42.62-55.894 73.242-71.199 21.183-10.72 45.431-17.357 72.99-19.905z"/>
<path d="m573.38 152.59c-0.255-0.256-0.511-0.51-1.011-0.51-0.512 0-0.767 0-1.021 0.254-0.257 0.256-0.511 0.768-0.767 1.277l-20.415 331.49v0.256c0.256-0.256 0.51-0.256 0.51-0.256s0.257-0.252 0.511-0.252c0.769 0 1.268 0 2.033 0.252l20.671-331.49c0-0.256-0.254-0.765-0.511-1.021z"/>
<path d="m745.64 70.673c-0.256-0.257-0.512-0.768-1.021-0.768-0.512 0-0.768 0.511-1.277 0.511-0.256 0.257-0.513 0.766-0.513 1.277l-21.69 392.74h0.51 1.533c0.254 0 0.254 0 0.511-0.259v-0.246h0.512l21.181-382.03v-0.511-0.256h0.256l-0.256-0.255h0.256l-0.256-0.257c0-0.254 0-0.254 0.256-0.511-0.256 0-0.256 0-0.256-0.257v-0.252h0.256c-0.256 0-0.256 0-0.256-0.257h0.256l0.255-7.653c-0.002-0.51-0.002-0.764-0.257-1.019z"/>
</g>
<g transform="translate(56,4.421875e-6)">
<path d="m794.9 309.54-1.277-2.299-55.127-97.236c26.547 55.128 36.243 138.07 29.092 249.08l104.63-12.764-77.32-136.78z"/>
<path d="m714 461.12 25-383.05c-36.487 139.85-94.424 270.26-174.3 391.47l149.3-8.42z"/>
<path d="m544.29 478.21 21.947-323.58-115.86 333.28 93.915-9.699z"/>
<path d="m746.4 80.369-0.246 0.254v1.279l-0.255 0.257h0.255v0.51l26.794 44.396-2.813-4.075c18.883 55.369 26.803 114.84 23.738 177.61v0.251l0.254 0.256c0.257 0.512 0.768 0.766 1.021 1.277 0 0 0 0.256 0.256 0.512l24.749 43.642c0.254 0.256 0.254 0.511 0.254 1.023h0.257c0.511 0.251 0.511 0.508 1.021 0.765 37.767 33.178 80.64 55.627 127.86 67.366l11.479 18.628c0.504 0 1.017 0 1.271 0.509 0.256-0.254 0.256-0.509 0.512-0.509l-216.41-353.94z"/>
</g>
</g>
<path d="m846.41 241.45 1.277 2.299-1.277-2.299z"/>
<g fill="url(#linearGradient3916)" transform="translate(52.792 -65.794)">
<path d="m976.34 451.43c10.718-1.278 17.603-3.578 20.415-6.898l-107.94 13.272h-0.767l-437.41 53.085h-0.256c0.512 22.97 10.464 40.575 30.624 53.594 5.365 3.564 10.974 6.375 16.082 8.164 4.588-5.366 10.21-9.698 16.586-13.273h0.255c57.169-34.699 142.14-40.066 254.43-16.584l1.275 0.511c12.255 2.55 24.25 5.609 35.733 8.931 3.565 0.51 6.376-0.257 8.676-2.301 4.076-3.066 9.186-5.352 16.072-7.141v-0.256c17.873-32.155 42.62-55.894 73.242-71.199 21.183-10.72 45.431-17.357 72.99-19.905z"/>
<path d="m573.38 152.59c-0.255-0.256-0.511-0.51-1.011-0.51-0.512 0-0.767 0-1.021 0.254-0.257 0.256-0.511 0.768-0.767 1.277l-20.415 331.49v0.256c0.256-0.256 0.51-0.256 0.51-0.256s0.257-0.252 0.511-0.252c0.769 0 1.268 0 2.033 0.252l20.671-331.49c0-0.256-0.254-0.765-0.511-1.021z"/>
<path d="m745.64 70.673c-0.256-0.257-0.512-0.768-1.021-0.768-0.512 0-0.768 0.511-1.277 0.511-0.256 0.257-0.513 0.766-0.513 1.277l-21.69 392.74h0.51 1.533c0.254 0 0.254 0 0.511-0.259v-0.246h0.512l21.181-382.03v-0.511-0.256h0.256l-0.256-0.255h0.256l-0.256-0.257c0-0.254 0-0.254 0.256-0.511-0.256 0-0.256 0-0.256-0.257v-0.252h0.256c-0.256 0-0.256 0-0.256-0.257h0.256l0.255-7.653c-0.002-0.51-0.002-0.764-0.257-1.019z"/>
</g>
<path d="m798.94 14.062v0.257h0.246l-0.246-0.257z"/>
<g fill="none">
<g stroke-width="0">
<polyline transform="translate(455.87 -118.31)" points="485.73 510.31 485.48 510.31 485.22 510.31 484.96 510.31"/>
<line y2="412.42" x2="597.08" y1="412.42" x1="597.08"/>
<polyline transform="translate(455.87 -118.31)" points="390.54 359.75 390.54 359.75 391.82 362.05"/>
</g>
<g stroke-linejoin="round" transform="translate(455.87 -118.31)" stroke="#00002b" stroke-linecap="round" stroke-width="1.2">
<path d="m213.43 634.6c-5.353-2.045-11.229-3.323-17.348-3.834-12.509-0.767-27.56 4.088-45.177 14.552-17.605 10.464-38.786 14.796-64.046 12.508"/>
<path d="m145.81 632.55c-28.834 13.785-50.016 16.084-63.033 7.4-13.273-8.934-33.689-6.634-61.247 6.385"/>
<path d="m370.89 608.57c-121.47-25.01-209.01-19.15-262.6 17.86"/>
<path d="m447.44 620.56c-5.354-2.034-11.229-3.31-17.351-3.819-12.506-1.022-27.557 3.819-45.171 14.282-17.607 10.72-38.791 14.809-64.048 12.763"/>
</g>
</g>
<g fill="url(#linearGradient3900)" transform="translate(52.792 -65.794)">
<path d="m794.9 309.54-1.277-2.299-55.127-97.236c26.547 55.128 36.243 138.07 29.092 249.08l104.63-12.764-77.32-136.78z"/>
<path d="m714 461.12 25-383.05c-36.487 139.85-94.424 270.26-174.3 391.47l149.3-8.42z"/>
<path d="m544.29 478.21 21.947-323.58-115.86 333.28 93.915-9.699z"/>
<path d="m746.4 80.369-0.246 0.254v1.279l-0.255 0.257h0.255v0.51l26.794 44.396-2.813-4.075c18.883 55.369 26.803 114.84 23.738 177.61v0.251l0.254 0.256c0.257 0.512 0.768 0.766 1.021 1.277 0 0 0 0.256 0.256 0.512l24.749 43.642c0.254 0.256 0.254 0.511 0.254 1.023h0.257c0.511 0.251 0.511 0.508 1.021 0.765 37.767 33.178 80.64 55.627 127.86 67.366l11.479 18.628c0.504 0 1.017 0 1.271 0.509 0.256-0.254 0.256-0.509 0.512-0.509l-216.41-353.94z"/>
</g>
<g stroke-linejoin="round" stroke="#000">
<g transform="matrix(.61029 0 0 .61029 553.25 -97.452)" stroke-linecap="round" stroke-width="2.9" fill="none">
<path d="m284.37 208.17c-12.495-7.919-25.77-5.874-39.044 6.12-11.74-11.994-24.246-14.039-36.998-6.12"/>
<path d="m256.05 165.29c-12.762-7.653-25.269-4.855-38.021 9.185-12.506-14.04-25.27-16.838-38.032-9.185"/>
</g>
<g stroke-opacity=".48077" transform="matrix(.61029 0 0 .61029 552.93 -96.232)" stroke-linecap="round" stroke-width="2.9" fill="none">
<path d="m284.37 208.17c-12.495-7.919-25.77-5.874-39.044 6.12-11.74-11.994-24.246-14.039-36.998-6.12"/>
<path d="m256.05 165.29c-12.762-7.653-25.269-4.855-38.021 9.185-12.506-14.04-25.27-16.838-38.032-9.185"/>
</g>
<g font-size="40px" stroke-width="13.819" stroke-opacity=".85" fill-opacity="0" transform="translate(-3.2077 -65.794)">
<path d="m59.713 548.4-14.695 43.242h12.234c8.1093 0.00002 14.433-1.7109 18.971-5.1328 4.538-3.4218 8.1606-9.1172 10.868-17.086 2.6132-7.6874 2.9106-13.113 0.89209-16.277-2.0186-3.164-6.8482-4.746-14.489-4.7461zm-14.471-16.383h38.602c11.625 0.00008 19.532 3.422 23.722 10.266 4.1894 6.8438 4.2055 16.383 0.0483 28.617-1.7052 5.0157-3.95 9.6211-6.7346 13.816-2.7848 4.1953-6.1488 8.0274-10.092 11.496-4.6993 4.1719-9.6527 7.1602-14.86 8.9648-5.2076 1.8047-11.608 2.707-19.202 2.707h-17.227l-9.3428 27.492h-20.039z"/>
<path d="m142.48 504.52h19.898l-9.3428 27.492h17.789c11.156 0.00008 18.486 2.1915 21.988 6.5742 3.5023 4.3829 3.5968 11.449 0.28345 21.199l-16.343 48.094h-20.18l15.557-45.773c1.7665-5.2031 2.0192-8.7421 0.75806-10.617-1.2613-1.8749-4.4466-2.8124-9.5559-2.8125h-15.961l-20.118 59.203h-19.898z"/>
<path d="m234.37 548.4-14.695 43.242h12.234c8.1093 0.00002 14.433-1.7109 18.971-5.1328 4.538-3.4218 8.1606-9.1172 10.868-17.086 2.6132-7.6874 2.9106-13.113 0.89209-16.277-2.0186-3.164-6.8482-4.746-14.489-4.7461zm-14.471-16.383h38.602c11.625 0.00008 19.532 3.422 23.722 10.266 4.1894 6.8438 4.2055 16.383 0.0483 28.617-1.7052 5.0157-3.95 9.6211-6.7346 13.816-2.7848 4.1953-6.1488 8.0274-10.092 11.496-4.6993 4.1719-9.6527 7.1602-14.86 8.9648-5.2076 1.8047-11.608 2.707-19.202 2.707h-17.227l-9.3428 27.492h-20.039z"/>
<path d="m319.17 504.52h31.922l-0.58447 79.312 53.319-79.312h31.781l-35.125 103.36h-21.305l29.118-80.508-53.868 80.508h-23.062l0.29444-81.352-25.466 81.352h-22.148z"/>
<path d="m458.06 591.15h16.102l20.096-59.133h20.039l-25.088 73.828c-3.4102 10.031-8.2794 17.461-14.607 22.289-6.3282 4.8281-14.32 7.2422-23.977 7.2422h-39.305l5.2339-15.398h35.859c3.8437-0.00001 7.111-0.92579 9.802-2.7774 2.6909-1.8516 4.634-4.5352 5.8293-8.0508l0.43067-1.2656h-17.719c-11.344 0-18.669-2.2383-21.975-6.7148-3.3062-4.4766-3.1838-11.941 0.36695-22.395l15.891-46.758h19.828l-15.363 45.211c-1.9454 5.7188-2.365 9.4688-1.259 11.25 1.1059 1.7813 4.3776 2.6719 9.8152 2.6719z"/>
<path d="m576.92 525.05-28.639 39.797h30.797zm-3.709-20.531h23.062l8.9604 103.36h-24.188l-1.1294-24.609h-44.93l-17.574 24.609h-23.062z"/>
<path d="m666.3 591.64 14.695-43.242h-12.094c-8.1094 0.00006-14.44 1.6993-18.993 5.0977-4.5528 3.3985-8.1753 9.0586-10.868 16.98-2.6133 7.6875-2.907 13.137-0.8811 16.348 2.0258 3.211 6.8356 4.8164 14.429 4.8164zm14.449 16.242h-38.461c-11.625 0-19.532-3.4219-23.722-10.266-4.1895-6.8437-4.2056-16.383-0.0483-28.617 1.7051-5.0156 3.9499-9.621 6.7346-13.816 2.7846-4.1953 6.1486-8.0273 10.092-11.496 4.6992-4.1718 9.6643-7.1601 14.895-8.9648 5.2309-1.8046 11.62-2.707 19.167-2.707h17.156l9.3428-27.492h19.969z"/>
<path d="m724.04 532.02h76.922c11.156 0.00008 18.455 2.1798 21.896 6.5391 3.4408 4.3594 3.4957 11.438 0.16479 21.234l-16.343 48.094h-20.18l15.46-45.492c1.8954-5.5781 2.3019-9.2578 1.2195-11.039-1.0826-1.7812-4.2489-2.6718-9.4988-2.6719h-11.25l-20.118 59.203h-20.461l20.118-59.203h-23.414l-20.118 59.203h-20.18z"/>
<path d="m874.28 523.37h-21.023l6.4028-18.844h21.023zm-28.723 84.516h-21.023l25.783-75.867h21.023z"/>
<path d="m888.57 532.02h37.688c11.391 0.00008 18.795 2.1446 22.212 6.4336 3.4174 4.2891 3.4372 11.402 0.0593 21.34l-16.343 48.094h-20.039l15.508-45.633c1.9277-5.6718 2.299-9.3515 1.114-11.039-1.1851-1.6874-4.4261-2.5312-9.7229-2.5312h-16.102l-20.118 59.203h-20.039z"/>
</g>
</g>
<g stroke-linejoin="round" font-size="40px" stroke-width="3.1252" transform="translate(-3.2077 -65.794)" stroke="#fff">
<g fill="#669">
<path d="m58.067 546.17-14.695 43.242h12.234c8.1093 0.00001 14.433-1.7109 18.971-5.1328 4.538-3.4218 8.1606-9.1172 10.868-17.086 2.6132-7.6875 2.9106-13.113 0.89209-16.277-2.0186-3.164-6.8482-4.746-14.489-4.7461zm-14.471-16.383h38.602c11.625 0.00007 19.532 3.422 23.722 10.266 4.1894 6.8438 4.2055 16.383 0.0483 28.617-1.7052 5.0157-3.95 9.6211-6.7346 13.816-2.7848 4.1953-6.1488 8.0274-10.092 11.496-4.6993 4.1719-9.6527 7.1602-14.86 8.9648-5.2076 1.8047-11.608 2.707-19.202 2.707h-17.227l-9.3428 27.492h-20.039z"/>
<path d="m140.83 502.29h19.898l-9.3428 27.492h17.789c11.156 0.00007 18.486 2.1915 21.988 6.5742 3.5024 4.3829 3.5968 11.449 0.28345 21.199l-16.343 48.094h-20.18l15.557-45.773c1.7665-5.2031 2.0192-8.7421 0.75806-10.617-1.2613-1.8749-4.4466-2.8124-9.5559-2.8125h-15.961l-20.118 59.203h-19.898z"/>
<path d="m232.72 546.17-14.695 43.242h12.234c8.1093 0.00001 14.433-1.7109 18.971-5.1328 4.538-3.4218 8.1606-9.1172 10.868-17.086 2.6132-7.6875 2.9106-13.113 0.89209-16.277-2.0186-3.164-6.8482-4.746-14.489-4.7461zm-14.471-16.383h38.602c11.625 0.00007 19.532 3.422 23.722 10.266 4.1894 6.8438 4.2055 16.383 0.0483 28.617-1.7052 5.0157-3.95 9.6211-6.7346 13.816-2.7848 4.1953-6.1488 8.0274-10.092 11.496-4.6993 4.1719-9.6526 7.1602-14.86 8.9648-5.2076 1.8047-11.608 2.707-19.202 2.707h-17.227l-9.3428 27.492h-20.039z"/>
</g>
<g fill="#f90">
<path d="m317.52 502.29h31.922l-0.58447 79.312 53.319-79.312h31.781l-35.125 103.36h-21.305l29.118-80.508-53.868 80.508h-23.062l0.29443-81.352-25.466 81.352h-22.148z"/>
<path d="m456.41 588.92h16.102l20.096-59.133h20.039l-25.088 73.828c-3.4102 10.031-8.2794 17.461-14.607 22.289-6.3282 4.8281-14.32 7.2422-23.977 7.2422h-39.305l5.2339-15.398h35.859c3.8437-0.00002 7.111-0.9258 9.802-2.7774 2.6909-1.8516 4.634-4.5352 5.8294-8.0508l0.43066-1.2656h-17.719c-11.344 0-18.669-2.2383-21.975-6.7148-3.3062-4.4766-3.1838-11.941 0.36694-22.395l15.891-46.758h19.828l-15.363 45.211c-1.9454 5.7188-2.365 9.4688-1.259 11.25 1.1059 1.7813 4.3776 2.6719 9.8152 2.6719z"/>
<path d="m575.27 522.83-28.639 39.797h30.797zm-3.709-20.531h23.062l8.9604 103.36h-24.188l-1.1294-24.609h-44.93l-17.574 24.609h-23.062z"/>
<path d="m664.65 589.41 14.695-43.242h-12.094c-8.1094 0.00006-14.44 1.6993-18.993 5.0977-4.5528 3.3985-8.1753 9.0586-10.868 16.98-2.6133 7.6875-2.907 13.137-0.8811 16.348 2.0258 3.211 6.8356 4.8164 14.429 4.8164zm14.449 16.242h-38.461c-11.625 0-19.532-3.4219-23.722-10.266-4.1895-6.8437-4.2056-16.383-0.0483-28.617 1.7051-5.0156 3.9499-9.621 6.7346-13.816 2.7846-4.1953 6.1486-8.0273 10.092-11.496 4.6992-4.1718 9.6643-7.1601 14.895-8.9648 5.2309-1.8046 11.62-2.707 19.167-2.707h17.156l9.3428-27.492h19.969z"/>
<path d="m722.39 529.79h76.922c11.156 0.00007 18.455 2.1798 21.896 6.5391 3.4408 4.3594 3.4957 11.438 0.1648 21.234l-16.343 48.094h-20.18l15.46-45.492c1.8954-5.5781 2.3019-9.2578 1.2195-11.039-1.0826-1.7812-4.2489-2.6718-9.4988-2.6719h-11.25l-20.118 59.203h-20.461l20.118-59.203h-23.414l-20.118 59.203h-20.18z"/>
<path d="m872.64 521.14h-21.023l6.4028-18.844h21.023zm-28.723 84.516h-21.023l25.783-75.867h21.023z"/>
<path d="m886.92 529.79h37.688c11.391 0.00007 18.795 2.1446 22.212 6.4336 3.4174 4.2891 3.4372 11.402 0.0593 21.34l-16.343 48.094h-20.039l15.508-45.633c1.9277-5.6718 2.299-9.3515 1.114-11.039-1.1851-1.6874-4.4261-2.5312-9.7229-2.5312h-16.102l-20.118 59.203h-20.039z"/>
</g>
</g>
</svg>
