<svg xmlns="http://www.w3.org/2000/svg" height="162.7mm" width="296.85mm" xmlns:xlink="http://www.w3.org/1999/xlink">
    <defs>
        <linearGradient id="b">
            <stop stop-color="#669" offset="0"/>
            <stop stop-color="#FFF" offset="1"/>
        </linearGradient>
        <linearGradient id="a">
            <stop stop-color="#F90" offset="0"/>
            <stop stop-color="#FFF" offset="1"/>
        </linearGradient>
        <linearGradient id="d" x1="962.81" xlink:href="#a" gradientUnits="userSpaceOnUse" x2="239.32" y1="487.91" y2="-422.63"/>
        <linearGradient id="c" x1="996.75" xlink:href="#b" gradientUnits="userSpaceOnUse" x2="-635.19" y1="572.64" y2="-1226.6"/>
    </defs>
    <g stroke-linejoin="round" stroke-opacity=".851" fill-opacity="0" stroke="#000" stroke-width="3.834">
        <path d="M1029.487 387.282c10.718-1.278 17.603-3.578 20.415-6.898l-107.94 13.272h-.767l-437.41 53.085h-.256c.51 22.97 10.463 40.576 30.623 53.595 5.365 3.564 10.974 6.375 16.082 8.164 4.588-5.367 10.21-9.7 16.586-13.274h.256c57.17-34.7 142.14-40.066 254.43-16.584l1.275.51c12.256 2.55 24.25 5.61 35.734 8.932 3.565.51 6.376-.257 8.676-2.3 4.076-3.067 9.186-5.353 16.072-7.142v-.256c17.873-32.155 42.62-55.894 73.242-71.2 21.183-10.72 45.43-17.356 72.99-19.904zm-402.96-298.84c-.255-.256-.51-.51-1.01-.51-.513 0-.768 0-1.022.254-.257.256-.51.768-.767 1.277l-20.415 331.49v.256c.256-.257.51-.257.51-.257s.257-.252.51-.252c.77 0 1.27 0 2.034.253l20.67-331.49c0-.256-.253-.765-.51-1.02zm172.26-81.917c-.256-.257-.512-.768-1.02-.768-.513 0-.77.51-1.278.51a1.952 1.952 0 0 0-.514 1.278l-21.69 392.74h2.043c.253 0 .253 0 .51-.26v-.245h.512l21.18-382.03v-.767h.257l-.257-.255h.256l-.257-.257c0-.253 0-.253.256-.51-.257 0-.257 0-.257-.257v-.252h.256c-.257 0-.257 0-.257-.256h.256l.254-7.653c-.002-.51-.002-.763-.257-1.018zM848.047 245.392l-1.277-2.3-55.127-97.235c26.547 55.128 36.243 138.07 29.092 249.08l104.63-12.764-77.32-136.78zm-80.9 151.58l25-383.05c-36.487 139.85-94.424 270.26-174.3 391.47l149.3-8.42zm-169.71 17.09l21.947-323.58-115.86 333.28 93.915-9.7zM799.547 16.22l-.246.255v1.28l-.254.256h.255v.51l26.795 44.397-2.813-4.075c18.883 55.37 26.803 114.84 23.738 177.61v.25l.254.257c.257.51.768.765 1.02 1.276 0 0 0 .256.257.512l24.75 43.642c.254.256.254.51.254 1.023h.257c.512.25.512.508 1.022.765 37.767 33.178 80.64 55.627 127.86 67.366l11.48 18.628c.503 0 1.016 0 1.27.51.256-.255.256-.51.512-.51l-216.41-353.94z"/>
    </g>
    <path d="M846.41 241.45l1.277 2.3-1.277-2.3z"/>
    <path d="M976.34 451.43c10.718-1.278 17.603-3.578 20.415-6.898l-107.94 13.272h-.767l-437.41 53.085h-.256c.512 22.97 10.464 40.574 30.624 53.593 5.365 3.564 10.974 6.375 16.082 8.164 4.588-5.366 10.21-9.698 16.586-13.273h.255c57.168-34.7 142.14-40.066 254.43-16.584l1.274.51c12.255 2.55 24.25 5.61 35.733 8.932 3.565.51 6.376-.257 8.676-2.3 4.076-3.067 9.186-5.353 16.072-7.142v-.256c17.873-32.155 42.62-55.894 73.242-71.2 21.183-10.72 45.43-17.356 72.99-19.904zM573.38 152.59c-.255-.256-.51-.51-1.01-.51-.513 0-.768 0-1.022.254-.257.256-.51.768-.767 1.277L550.167 485.1v.257c.256-.256.51-.256.51-.256s.257-.25.51-.25c.77 0 1.27 0 2.034.25l20.67-331.49c0-.255-.253-.764-.51-1.02zm172.26-81.917c-.256-.257-.512-.768-1.02-.768-.513 0-.77.51-1.278.51a1.952 1.952 0 0 0-.513 1.278l-21.69 392.74h2.042c.254 0 .254 0 .51-.26v-.245h.513l21.18-382.03v-.767h.257l-.256-.254h.256l-.256-.257c0-.255 0-.255.256-.512-.256 0-.256 0-.256-.257v-.25h.256c-.256 0-.256 0-.256-.258h.256l.255-7.653c-.002-.51-.002-.765-.257-1.02z" fill="url(#c)" transform="translate(52.792 -65.794)"/>
    <path d="M798.94 14.062v.257h.246l-.246-.258z"/>
    <g fill="none">
        <path d="M941.6 392h-.77m-94.42-150.56l1.28 2.3" stroke-width="0"/>
        <path d="M669.3 516.29c-5.353-2.045-11.23-3.323-17.348-3.834-12.51-.767-27.56 4.088-45.177 14.552-17.605 10.464-38.786 14.796-64.046 12.508m58.951-25.276c-28.834 13.785-50.016 16.084-63.033 7.4-13.273-8.934-33.69-6.634-61.247 6.385m349.36-37.765c-121.47-25.01-209.01-19.15-262.6 17.86m339.15-5.87c-5.354-2.034-11.23-3.31-17.35-3.82-12.507-1.02-27.558 3.82-45.172 14.283-17.607 10.72-38.79 14.81-64.048 12.763" stroke-linejoin="round" stroke="#00002b" stroke-linecap="round" stroke-width="1.2"/>
    </g>
    <path d="M794.9 309.54l-1.277-2.3-55.127-97.235c26.547 55.128 36.243 138.07 29.092 249.08l104.63-12.764-77.32-136.78zM714 461.12l25-383.05c-36.487 139.85-94.424 270.26-174.3 391.47l149.3-8.42zm-169.71 17.09l21.947-323.58-115.86 333.28 93.915-9.7zM746.4 80.37l-.246.253v1.28l-.255.256h.254v.51l26.794 44.395-2.813-4.075c18.883 55.37 26.803 114.84 23.738 177.61v.25l.254.257c.257.512.768.766 1.02 1.277 0 0 0 .256.257.512l24.75 43.642c.253.256.253.51.253 1.023h.257c.51.252.51.51 1.02.766 37.768 33.178 80.64 55.627 127.86 67.366l11.48 18.628c.504 0 1.017 0 1.27.51.257-.255.257-.51.513-.51L746.397 80.38z" fill="url(#d)" transform="translate(52.792 -65.794)"/>
    <g stroke-linejoin="round" stroke="#000">
        <path d="M726.798 29.592c-7.625-4.833-15.727-3.585-23.828 3.735-7.165-7.32-14.797-8.568-22.58-3.735m29.125-26.169c-7.79-4.67-15.422-2.963-23.204 5.605C678.68.46 670.89-1.248 663.1 3.423" stroke-width="1.77" stroke-linecap="round" fill="none"/>
        <path d="M726.478 30.812c-7.625-4.833-15.727-3.585-23.828 3.735-7.165-7.32-14.797-8.568-22.58-3.735m29.125-26.169c-7.79-4.67-15.422-2.963-23.204 5.605-7.63-8.568-15.42-10.276-23.21-5.605" stroke-width="1.77" stroke-opacity=".481" stroke-linecap="round" fill="none"/>
        <path d="M56.505 482.606L41.81 525.848h12.234c8.11 0 14.433-1.71 18.97-5.133 4.54-3.422 8.162-9.117 10.87-17.086 2.612-7.688 2.91-13.114.89-16.278-2.017-3.164-6.847-4.746-14.488-4.746zm-14.47-16.383h38.6c11.626 0 19.533 3.422 23.723 10.266 4.19 6.843 4.206 16.382.05 28.616-1.707 5.016-3.95 9.62-6.736 13.816-2.785 4.195-6.15 8.027-10.092 11.496-4.7 4.172-9.653 7.16-14.86 8.965-5.208 1.804-11.608 2.707-19.202 2.707H36.29l-9.342 27.492H6.908zm97.237-27.497h19.898l-9.342 27.492h17.788c11.156 0 18.486 2.192 21.988 6.574 3.503 4.383 3.597 11.45.284 21.2l-16.343 48.093h-20.18l15.557-45.773c1.766-5.203 2.02-8.742.758-10.617-1.26-1.875-4.447-2.812-9.556-2.812h-15.96l-20.12 59.203h-19.897zm91.89 43.88l-14.695 43.242H228.7c8.11 0 14.434-1.71 18.972-5.133 4.538-3.422 8.16-9.117 10.868-17.086 2.614-7.688 2.91-13.114.892-16.278-2.018-3.164-6.848-4.746-14.49-4.746zm-14.47-16.383h38.6c11.626 0 19.533 3.422 23.723 10.266 4.19 6.843 4.206 16.382.05 28.616-1.707 5.016-3.95 9.62-6.736 13.816-2.786 4.195-6.15 8.027-10.093 11.496-4.7 4.172-9.653 7.16-14.86 8.965-5.208 1.804-11.608 2.707-19.202 2.707h-17.227l-9.343 27.492h-20.04zm99.27-27.497h31.922l-.584 79.312 53.32-79.312h31.78l-35.125 103.36H375.97l29.118-80.508-53.868 80.508h-23.062l.294-81.352-25.466 81.352h-22.148zm138.89 86.63h16.102l20.096-59.133h20.04L486 540.05c-3.41 10.032-8.278 17.462-14.606 22.29-6.328 4.828-14.32 7.242-23.977 7.242h-39.305l5.234-15.398h35.86c3.843 0 7.11-.926 9.8-2.777 2.692-1.852 4.635-4.535 5.83-8.05l.43-1.267H447.55c-11.344 0-18.67-2.238-21.975-6.714-3.306-4.477-3.184-11.94.367-22.395l15.89-46.757h19.83l-15.364 45.21c-1.945 5.72-2.365 9.47-1.26 11.25 1.107 1.782 4.38 2.673 9.816 2.673zm118.86-66.1l-28.64 39.797h30.798zm-3.71-20.53h23.063l8.96 103.36H577.84l-1.13-24.61h-44.93l-17.574 24.61h-23.062zm93.09 87.12l14.695-43.242h-12.094c-8.11 0-14.44 1.7-18.993 5.098-4.553 3.398-8.175 9.058-10.868 16.98-2.613 7.687-2.907 13.137-.88 16.348 2.025 3.21 6.835 4.816 14.428 4.816zm14.45 16.242H639.08c-11.625 0-19.532-3.422-23.722-10.266-4.19-6.844-4.205-16.383-.048-28.617 1.705-5.016 3.95-9.62 6.735-13.816 2.784-4.196 6.148-8.028 10.092-11.497 4.7-4.172 9.664-7.16 14.895-8.965 5.23-1.804 11.62-2.707 19.167-2.707h17.155l9.342-27.49h19.97zm43.29-75.862h76.922c11.156 0 18.455 2.18 21.896 6.54 3.44 4.358 3.496 11.437.165 21.233l-16.343 48.093h-20.18l15.46-45.492c1.895-5.577 2.302-9.257 1.22-11.038-1.083-1.78-4.25-2.672-9.5-2.672h-11.25l-20.117 59.203h-20.46l20.117-59.203h-23.414l-20.118 59.203h-20.18zm150.24-8.65H850.05l6.402-18.844h21.023zm-28.723 84.516h-21.024l25.783-75.867h21.022zm43.013-75.866h37.688c11.39 0 18.795 2.145 22.212 6.434 3.418 4.29 3.438 11.402.06 21.34l-16.343 48.094h-20.04l15.508-45.633c1.927-5.67 2.3-9.35 1.114-11.038-1.185-1.688-4.426-2.532-9.723-2.532h-16.103l-20.118 59.203h-20.04z" font-size="40" stroke-width="13.819" stroke-opacity=".85" fill-opacity="0"/>
    </g>
    <g stroke-linejoin="round" font-size="40" stroke-width="3.125" stroke="#fff">
        <path d="M54.86 480.376l-14.696 43.242h12.234c8.11 0 14.433-1.71 18.97-5.133 4.54-3.422 8.162-9.117 10.87-17.086 2.612-7.688 2.91-13.114.89-16.278-2.017-3.164-6.847-4.746-14.488-4.746zm-14.472-16.383H78.99c11.625 0 19.532 3.422 23.722 10.266 4.19 6.843 4.206 16.382.05 28.616-1.707 5.016-3.95 9.62-6.736 13.816-2.785 4.195-6.15 8.027-10.092 11.496-4.7 4.172-9.653 7.16-14.86 8.965-5.208 1.804-11.608 2.707-19.202 2.707H34.645l-9.343 27.492H5.262zm97.234-27.497h19.898l-9.342 27.492h17.79c11.155 0 18.485 2.192 21.987 6.574 3.502 4.383 3.596 11.45.283 21.2l-16.343 48.093h-20.18l15.557-45.773c1.766-5.203 2.02-8.742.758-10.617-1.26-1.875-4.447-2.812-9.556-2.812h-15.96l-20.12 59.203h-19.897zm91.89 43.88l-14.695 43.242h12.234c8.11 0 14.434-1.71 18.972-5.133 4.538-3.422 8.16-9.117 10.868-17.086 2.614-7.688 2.91-13.114.892-16.278-2.018-3.164-6.848-4.746-14.49-4.746zm-14.47-16.383h38.6c11.626 0 19.533 3.422 23.723 10.266 4.19 6.843 4.206 16.382.05 28.616-1.707 5.016-3.95 9.62-6.736 13.816-2.786 4.195-6.15 8.027-10.093 11.496-4.7 4.172-9.653 7.16-14.86 8.965-5.208 1.804-11.608 2.707-19.202 2.707h-17.227l-9.343 27.492h-20.04z" fill="#669"/>
        <path d="M314.312 436.496h31.922l-.584 79.312 53.32-79.312h31.78l-35.125 103.36H374.32l29.118-80.508-53.868 80.508h-23.062l.294-81.352-25.466 81.352h-22.148zm138.89 86.63h16.102l20.096-59.133h20.04l-25.09 73.828c-3.41 10.032-8.278 17.462-14.606 22.29-6.328 4.828-14.32 7.242-23.977 7.242h-39.305l5.234-15.398h35.86c3.843 0 7.11-.926 9.8-2.777 2.692-1.852 4.635-4.535 5.83-8.05l.43-1.267H445.9c-11.344 0-18.67-2.238-21.975-6.714-3.306-4.477-3.184-11.94.367-22.395l15.89-46.757h19.83l-15.364 45.21c-1.945 5.72-2.365 9.47-1.26 11.25 1.107 1.782 4.38 2.673 9.816 2.673zm118.86-66.09l-28.64 39.797h30.798zm-3.71-20.53h23.063l8.96 103.36H576.19l-1.13-24.61h-44.93l-17.574 24.61h-23.062zm93.09 87.11l14.695-43.242h-12.094c-8.11 0-14.44 1.7-18.993 5.098-4.553 3.398-8.175 9.058-10.868 16.98-2.613 7.687-2.907 13.137-.88 16.348 2.025 3.21 6.835 4.816 14.428 4.816zm14.45 16.242H637.43c-11.625 0-19.532-3.422-23.722-10.266-4.19-6.844-4.205-16.383-.048-28.617 1.705-5.016 3.95-9.62 6.735-13.816 2.784-4.196 6.148-8.028 10.092-11.497 4.7-4.172 9.664-7.16 14.895-8.965 5.23-1.804 11.62-2.707 19.167-2.707h17.155l9.342-27.49h19.97zm43.29-75.862h76.922c11.156 0 18.455 2.18 21.896 6.54 3.44 4.358 3.496 11.437.165 21.233l-16.343 48.093h-20.18l15.46-45.492c1.896-5.577 2.302-9.257 1.22-11.038-1.083-1.78-4.25-2.672-9.5-2.672h-11.25l-20.117 59.203h-20.46l20.117-59.203h-23.414l-20.118 59.203H693.4zm150.25-8.65H848.41l6.402-18.844h21.023zm-28.723 84.516h-21.024l25.783-75.867h21.022zm43.003-75.866H921.4c11.39 0 18.795 2.145 22.212 6.434 3.418 4.29 3.437 11.402.06 21.34l-16.343 48.094h-20.04l15.508-45.633c1.927-5.67 2.3-9.35 1.114-11.038-1.186-1.688-4.427-2.532-9.723-2.532h-16.103l-20.118 59.203h-20.04z" fill="#f90"/>
    </g>
</svg>
