<svg clip-rule="evenodd" fill-rule="evenodd" stroke-linejoin="round" stroke-miterlimit="2" viewBox="0 0 978 388" xmlns="http://www.w3.org/2000/svg">
    <path d="M719.094 322.091l28.228-71.381h81.503l-38.687-108.282 48.379-122.33L977.072 387.98h-102.18l-23.675-65.889z" fill-rule="nonzero" fill="#fff"/>
    <path d="M631.973 367.845L780.298-.036l-98.332.007L580.5 237.705 508.343-.03h-75.58l-77.469 237.734-54.638-108.337-49.444 152.328 50.204 86.15h96.773l70.01-213.196 66.743 213.195z" fill-rule="nonzero" fill="#5a0fc8"/>
    <path d="M93.337 241.598h60.569c18.349 0 34.684-2.044 49.013-6.142l15.662-48.253 43.78-134.88a107.212 107.212 0 00-11.423-14.996C228.46 12.444 195.57.01 152.276.01H-.004v367.881h93.34zM173.508 84.64c8.783 8.837 13.17 20.668 13.17 35.475 0 14.933-3.862 26.77-11.58 35.522-8.469 9.723-24.052 14.588-46.756 14.588H93.337V71.392H128.6c21.161 0 36.133 4.41 44.908 13.248z" fill-rule="nonzero" fill="#fff"/>
</svg>
