<svg xmlns="http://www.w3.org/2000/svg" xmlns:xlink="http://www.w3.org/1999/xlink" width="48" height="48">
    <defs>
        <linearGradient id="b">
            <stop stop-color="#3778ae" offset="0"/>
            <stop stop-color="#366c99" offset="1"/>
        </linearGradient>
        <linearGradient id="a">
            <stop stop-color="#fff" offset="0"/>
            <stop stop-color="#fff" stop-opacity=".165" offset="1"/>
        </linearGradient>
        <linearGradient id="c">
            <stop stop-color="#ffe253" offset="0"/>
            <stop stop-color="#ffca1c" offset="1"/>
        </linearGradient>
        <linearGradient id="d">
            <stop offset="0"/>
            <stop stop-opacity="0" offset="1"/>
        </linearGradient>
        <linearGradient x1="94.693" y1="112.511" x2="94.693" y2="64.053" id="i" xlink:href="#a" gradientUnits="userSpaceOnUse" gradientTransform="translate(-17.38 -19.412) scale(.35388)"/>
        <linearGradient x1="59.728" y1="102" x2="142.62" y2="102" id="h" xlink:href="#b" gradientUnits="userSpaceOnUse" gradientTransform="translate(-17.38 -19.412) scale(.35388)"/>
        <linearGradient x1="94.693" y1="112.511" x2="94.693" y2="64.053" id="g" xlink:href="#a" gradientUnits="userSpaceOnUse" gradientTransform="translate(-6.297 -7.945) scale(.35388)"/>
        <linearGradient x1="119.191" y1="89.13" x2="116.965" y2="169.279" id="f" xlink:href="#c" gradientUnits="userSpaceOnUse" gradientTransform="translate(-16.39 -17.997) scale(.35388)"/>
        <radialGradient cx="15.115" cy="63.965" r="12.289" fx="15.115" fy="63.965" id="e" xlink:href="#d" gradientUnits="userSpaceOnUse" gradientTransform="matrix(1.6 0 0 .55175 -.184 4.836)"/>
    </defs>
    <path d="M43.662 40.129a19.662 6.78 0 0 1-39.324 0 19.662 6.78 0 1 1 39.324 0z" fill="url(#e)"/>
    <path d="M34.08 37.58c0 2.731-2.37 4.115-4.777 4.805-3.62 1.04-6.526.881-9.551 0-2.527-.736-4.777-2.24-4.777-4.805v-9.014c0-2.594 2.162-4.809 4.777-4.809l9.398-.611c3.182 0 5.26-1.986 5.26-5.245l.866-4.357h3.582c2.781 0 4.09 2.067 4.777 4.806.956 3.804.998 6.65 0 9.615-.966 2.88-2 4.805-4.777 4.805H24.53v-.02c8.242.02 9.55-3.316 9.55 4.828z" fill="url(#f)"/>
    <path d="M28.11 38.178c0-.995.804-1.802 1.791-1.802 1 0 1.79.807 1.79 1.802 0 .998-.8 1.804-1.79 1.804-.987 0-1.79-.807-1.79-1.804z" fill="#fff"/>
    <path d="M35.266 13.544v4.226c-3.41 5.997-9.891 6.009-15.327 6.009l-2.017.205C15.088 26.42 14.998 30.33 15 33.76c6.25-6.975 12.917-7.5 16.243-7.486 6.638.03 9.764-1.603 12.934-5.194-.016-.07.016-.132 0-.203-.122-.8-.336-1.655-.56-2.546-.322-1.284-.743-2.415-1.426-3.26-.016-.015-.038-.033-.05-.05h-.05c-.024-.027-.029-.074-.05-.1-.048-.034-.053-.07-.102-.101-.016-.016-.039.016-.05 0a6.698 6.698 0 0 0-2.495-.968 31.077 31.077 0 0 0-2.444-.306h-1.68z" opacity=".837" fill="url(#g)"/>
    <path d="M34.559 37.579c0 2.732-2.85 4.116-5.256 4.806-3.62 1.04-6.525.881-9.551 0-2.527-.736-4.801-2.24-4.805-4.805l-.016-9.258c-.01-3.073 2.302-5.01 4.849-5l8.467.015c3.25 0 6.41-3.3 6.4-6.55V13.55h4.21c2.782 0 4.09 2.067 4.778 4.806.956 3.804 1 6.649 0 9.615-.966 2.88-2 5.148-4.777 5.148h-14.33v-.02l10.03.034z" fill="none" stroke="#bb9400" stroke-width="1.63"/>
    <path d="M35.465 14.358v2.394c0 3.724-3.496 7.375-7.48 7.375h-8.25c-2.85 0-4.018 2.157-4.004 4.438l.056 9.013c.01 1.045.4 1.824 1.148 2.495.748.672 1.873 1.183 3.055 1.528 2.917.85 5.576 1.002 9.064 0 1.133-.325 2.64-.94 3.398-1.596.758-.657 1.308-1.296 1.308-2.427v-3.63H23.706v-1.68l15.175.05c1.2 0 1.788-.471 2.384-1.162.597-.691 1.115-2.047 1.588-3.456.945-2.81.933-5.45 0-9.166-.326-1.298-.798-2.346-1.426-3.055-.628-.71-1.357-1.12-2.546-1.12zm1.63 1.63h1.786c.52 0 1.2.42 1.324.56.363.41.78 1.239 1.07 2.393.89 3.542.891 5.752.05 8.25-.452 1.346-.92 2.614-1.273 3-.319.339-1 .509-1.171.509l-4.787-.051H22.077v4.938h10.052v2c0 .727-.973 1.179-1.141 1.324-.487.422-1.35.836-2.342 1.12-3.223.927-5.5.786-8.199 0-1.02-.297-1.906-.734-2.407-1.16-.5-.425-.531-.774-.623-1.284l-.056-9.013c-.013-2.023.645-2.809 2.374-2.809h8.25c4.923 0 9.11-4.35 9.11-9.005v-.772z" opacity=".384" fill="#fff"/>
    <path d="M13.985 7.32c0-2.732.732-4.218 4.777-4.926 2.746-.481 6.267-.542 9.551 0 2.594.428 4.778 2.36 4.778 4.926v9.013c0 2.644-2.12 4.81-4.778 4.81l-8.662.478c-3.241 0-6.589 2.832-6.589 5.957l-.274 3.777H9.505c-2.777 0-4.395-2.003-5.074-4.805-.917-3.765-.878-6.01 0-9.615.76-3.146 3.192-4.806 5.7-4.806h3.585s8.945-.035 0-.032V7.32z" fill="url(#h)"/>
    <path d="M16.373 6.722c0-1 .8-1.805 1.79-1.805.988 0 1.792.807 1.792 1.805 0 .994-.804 1.801-1.791 1.801-.99 0-1.79-.807-1.79-1.801z" fill="#fff"/>
    <path d="M22.717 1.996a26.87 26.87 0 0 0-3.971.407c-4.045.708-4.736 2.207-4.736 4.94l-.295 4.786h-3.32c-2.778 0-5.197 1.64-5.958 4.786-.517 2.123-.75 3.784-.662 5.55 6.292-7.131 13.044-7.652 16.396-7.637 6.638.029 9.764-1.603 12.934-5.194V7.342c0-2.565-2.192-4.51-4.786-4.939a30.475 30.475 0 0 0-5.602-.407z" opacity=".377" fill="url(#i)"/>
    <path d="M18.696 2.627c3.62-1.04 6.526-.881 9.551 0 2.527.736 4.779 2.24 4.777 4.806v9.731c0 1.366-1.974 4.53-4.772 4.53h-8.899c-2.498 0-5.997 2.721-5.997 5.98v3.794h-4.21c-2.781 0-4.09-2.066-4.777-4.806-.956-3.804-1-6.649 0-9.614.966-2.88 2-5.148 4.777-5.148h14.328v.019l-10.03-.034.02-4.873c-.027-1.997 2.414-3.553 5.232-4.385z" fill="none" stroke="#274e70" stroke-width="1.63"/>
    <path d="M12.534 30.654v-2.796c0-3.725 3.395-7.029 7.046-7.029h8.684c2.155 0 4.024-2.241 4.004-4.382l-.084-9.013c-.01-1.045-.372-1.824-1.12-2.495-.748-.672-1.872-1.183-3.055-1.528-2.917-.85-5.576-1.002-9.064 0-1.133.325-2.64.94-3.398 1.597-.758.656-1.307 1.296-1.307 2.426v3.63h10.052v1.68l-15.175-.05c-1.2 0-1.788.472-2.384 1.163-.596.69-1.115 2.046-1.587 3.455-.946 2.81-.934 5.45 0 9.166.325 1.298.797 2.346 1.425 3.055.628.71 1.357 1.12 2.546 1.12h3.417zm-1.63-1.63H9.117c-.52 0-1.2-.42-1.323-.56-.363-.41-.78-1.238-1.07-2.393-.89-3.542-.891-5.751-.05-8.25.451-1.346.92-2.613 1.273-2.99.318-.338.99-.508 1.17-.508l16.805.05V9.435H15.87v-2c0-.727.973-1.179 1.14-1.324.488-.422 1.351-.836 2.343-1.12 3.223-.926 5.5-.785 8.198 0 1.021.298 1.906.734 2.393 1.172.174.135.265.297.408.458.199.237.155.55.201.814v9.014c0 1.235-1.056 2.752-2.291 2.752h-8.684c-4.59 0-8.676 4.003-8.676 8.658v1.166z" opacity=".165" fill="#fff"/>
</svg>
