<svg version="1" viewBox="0 0 235 235" xmlns="http://www.w3.org/2000/svg">
	<circle cx="117.5" cy="117.5" r="117.5" fill="#ff4500"/>
	<path d="m183.57 34.286c-10.059 0-18.215 8.7936-18.215 19.643 0 10.848 8.1548 19.643 18.215 19.643s18.213-8.7946 18.213-19.643c0-10.849-8.1529-19.643-18.213-19.643zm-65.596 45.713c-23.656 0-45.064 6.7888-60.541 17.754-3.6126-6.3446-10.219-10.609-17.793-10.609-11.44 0-20.713 9.6981-20.713 21.662 0 9.8602 6.3014 18.178 14.922 20.799-0.8886 3.4892-1.3535 7.0822-1.3535 10.752 0 33.335 38.271 60.357 85.479 60.357 47.209 0 85.48-27.023 85.48-60.357 0-3.6168-0.45287-7.1599-1.3164-10.602 8.1102-2.9368 13.936-10.988 13.936-20.469 0-11.963-9.2738-21.662-20.715-21.662-7.2494 0-13.619 3.9014-17.32 9.7988-15.438-10.769-36.648-17.424-60.064-17.424zm28.098 34.645c6.74 0 12.203 5.597 12.203 12.5 0 6.904-5.4641 12.5-12.203 12.5-6.74 0-12.201-5.596-12.201-12.5 0-6.903 5.4622-12.5 12.201-12.5zm-63.512 1.0723c6.74 0 12.203 5.596 12.203 12.5 0 6.903-5.4641 12.5-12.203 12.5s-12.201-5.597-12.201-12.5c0-6.904 5.4622-12.5 12.201-12.5zm-0.77734 45.711c21.537 6.9956 44.171 5.2116 67.145 0.7129-19.6 10.885-40.035 18.437-67.145-0.7129z" fill="#fff"/>
	<path d="m173.92 50.715-44.113-14.393-11.601 57.25" fill="none" stroke="#fff" stroke-width="4.9"/>
</svg>
