<svg xmlns="http://www.w3.org/2000/svg" xmlns:xlink="http://www.w3.org/1999/xlink" width="256" height="256" version="1"><defs><linearGradient id="a"><stop offset="0" stop-color="#fff"/><stop offset="1" stop-color="#fff" stop-opacity="0"/></linearGradient><linearGradient xlink:href="#a" id="b" gradientUnits="userSpaceOnUse" gradientTransform="matrix(-.59146 0 0 .59146 210.022 142.232)" x1="-344.153" y1="274.711" x2="-395.849" y2="425.4"/></defs><g transform="translate(-373.642 -318.344)"><rect transform="scale(-1 1)" ry="35.488" rx="35.488" y="328.849" x="-619.146" height="234.99" width="235.008" fill="#6bc1ff" fill-rule="evenodd" stroke="#000" stroke-width=".5" stroke-linecap="square" stroke-dasharray=".5,1"/><path d="M557.057 338.895h-110.83c-29.337 0-52.954 23.81-52.954 53.385v108.128c.95 23.086 4.602 8.491 11.555-17.075 8.08-29.713 34.396-55.683 66.444-75.146 24.462-14.855 51.841-24.341 101.68-25.243 28.265-.512 25.77-36.683-15.895-44.049z" fill="url(#b)" fill-rule="evenodd"/><path d="M369.286 125.286c0 13.807-10.713 25-23.929 25-13.215 0-23.928-11.193-23.928-25s10.713-25 23.928-25c13.216 0 23.929 11.193 23.929 25z" transform="matrix(.86567 0 0 .8665 122.324 335.304)" fill="#fff" stroke="#000" stroke-width="9.237"/><path d="M369.286 125.286c0 13.807-10.713 25-23.929 25-13.215 0-23.928-11.193-23.928-25s10.713-25 23.928-25c13.216 0 23.929 11.193 23.929 25z" transform="matrix(.86567 0 0 .8665 278.038 335.784)" fill="#fff" stroke="#000" stroke-width="9.237"/><path d="M555.575 385.773c-15.654-6.425-31.604-14.038-43.571-5.715-13.857 6.381-13.196 27.28-12.143 48.572" fill="none" stroke="#000" stroke-width="10"/><path d="M497.857 154.214c0 32.151-36.936 58.215-82.5 58.215-45.563 0-82.5-26.064-82.5-58.215 0-32.15 36.937-58.214 82.5-58.214 45.564 0 82.5 26.063 82.5 58.214z" transform="matrix(1.03611 0 0 1.03681 69.269 315.525)" fill="#fff" stroke="#000" stroke-width="7.719" stroke-linecap="round"/><path d="M583.432 388.987c0 10.848-8.154 19.643-18.214 19.643-10.06 0-18.214-8.795-18.214-19.643 0-10.849 8.155-19.643 18.214-19.643 10.06 0 18.214 8.794 18.214 19.643z" fill="#fff" stroke="#000" stroke-width="8" stroke-linecap="round"/><path d="M476.409 463.273c0 6.903-5.464 12.5-12.203 12.5-6.739 0-12.202-5.597-12.202-12.5 0-6.904 5.463-12.5 12.202-12.5 6.74 0 12.203 5.596 12.203 12.5zM539.92 462.201c0 6.904-5.463 12.5-12.202 12.5-6.74 0-12.202-5.596-12.202-12.5 0-6.903 5.463-12.5 12.202-12.5 6.74 0 12.202 5.597 12.202 12.5z" fill="red"/><path d="M463.432 496.487c27.11 19.15 47.543 11.599 67.143.714" fill="none" stroke="#000" stroke-width="10" stroke-linecap="round"/></g></svg>