<!-- Created with Inkscape (http://www.inkscape.org/) -->
<svg xmlns:rdf="http://www.w3.org/1999/02/22-rdf-syntax-ns#" xmlns="http://www.w3.org/2000/svg" version="1.1" xmlns:cc="http://creativecommons.org/ns#" xmlns:xlink="http://www.w3.org/1999/xlink" viewBox="0 0 100 100" xmlns:dc="http://purl.org/dc/elements/1.1/">
<defs>
<linearGradient id="linearGradient12981" y2="700.21" gradientUnits="userSpaceOnUse" y1="601.65" gradientTransform="matrix(4.7719882,0,0,4.7719882,896.75599,-2714.7514)" x2="-144.29" x1="-113.21">
<stop stop-color="#FFF" offset="0"/>
<stop stop-color="#d2d5d8" offset="1"/>
</linearGradient>
<filter id="filter12971" color-interpolation-filters="sRGB">
<feGaussianBlur stdDeviation="3.2250001"/>
</filter>
</defs>
<metadata>
<rdf:RDF>
<cc:Work rdf:about="">
<dc:format>image/svg+xml</dc:format>
<dc:type rdf:resource="http://purl.org/dc/dcmitype/StillImage"/>
<dc:title/>
</cc:Work>
</rdf:RDF>
</metadata>
<g transform="translate(0,-952.36218)">
<g transform="matrix(0.19471351,0,0,0.19471351,-22.069915,940.07026)">
<rect ry="12.857" style="enable-background:accumulate;color:black;" fill-rule="nonzero" transform="matrix(4.7719883,0,0,4.7719883,896.75601,-2714.7514)" height="92.143" filter="url(#filter12971)" width="92.143" y="589.86" x="-156.43" fill="#000"/>
<rect style="enable-background:accumulate;color:black;" stroke-dasharray="none" fill-rule="nonzero" ry="61.354" height="439.7" width="439.7" stroke="#ccc" stroke-miterlimit="4" y="83.021" x="136.65" stroke-width="10.098" fill="url(#linearGradient12981)"/>
<path style="block-progression:tb;color:black;direction:ltr;text-indent:0;text-align:start;enable-background:accumulate;text-transform:none;" d="m254.94,194.09c-43.273,43.273-43.378,114.16-0.1054,157.43,36.663,36.663,93.201,42.25,135.92,16.766l76.344,74.235c10.507,10.198,27.085,9.8217,37.117-0.84359,10.033-10.665,9.7691-27.447-0.73813-37.645l-75.184-72.864c26.361-42.847,21.008-100.04-16.028-137.08-43.273-43.273-114.05-43.273-157.33,0zm31.74,31.74c26.102-26.102,67.746-26.102,93.848,0s26.102,67.746,0,93.848-67.746,26.102-93.848,0-26.102-67.746,0-93.848z" fill="#454040"/>
</g>
</g>
</svg>
