<svg viewBox="0 0 100 100" xmlns="http://www.w3.org/2000/svg">
    <path d="M46.518 99.943C27.966 98.91 10.611 86.585 3.672 69.318-.425 59.654-.953 48.619 1.177 38.413 4.81 22.708 16.415 9.162 31.517 3.406c16.505-6.541 36.396-3.614 50.105 7.76 16.98 13.44 23.119 38.464 14.497 58.29-7.538 18.372-26.865 31.177-46.78 30.534-.94.011-1.884.027-2.822-.048zm25.337-27.081c4.658-4.488-3.39-7.422-6.763-8.82-9.996-4.36-21.192-4.617-31.87-3.449-4.012.23-14.462 1.75-8.914 7.51 5.198.527 10.355-1.749 15.625-1.574 10.158-.659 20.534 1.486 29.282 6.782.863.48 1.953.191 2.64-.449zm5.93-12.902c4.646-4.538-2.41-8.393-6.262-9.713-15.112-6.66-32.746-7.866-48.54-2.978-6.202 3.604 1.24 10.181 5.976 6.572 14.965-3.244 31.236-1.22 44.612 6.38 1.298.594 3.025.585 4.215-.261zm5.598-14.377c5.362-2.676 2.079-9.363-2.753-10.334-16.18-7.593-34.771-8.96-52.297-6.42-4.711.354-13.892 2.529-10.179 9.072 4.217 4.838 10.766-.53 16.049-.062 14.605-1.458 30.002.055 43.262 6.71 1.77 1.021 3.882 2.104 5.918 1.034z" fill="#1db954"/>
</svg>
