<svg xmlns:rdf="http://www.w3.org/1999/02/22-rdf-syntax-ns#" xmlns="http://www.w3.org/2000/svg" height="100%" viewBox="0 0 100 100" width="100%" version="1.1" xmlns:cc="http://creativecommons.org/ns#" xmlns:xlink="http://www.w3.org/1999/xlink" xmlns:dc="http://purl.org/dc/elements/1.1/">
<defs>
<radialGradient id="radialGradient2462" gradientUnits="userSpaceOnUse" cy="47.401" cx="28.284" gradientTransform="scale(1.1642 .85894)" r="13.804">
<stop offset="0"/>
<stop stop-opacity="0" offset="1"/>
</radialGradient>
<radialGradient id="radialGradient15668" gradientUnits="userSpaceOnUse" cy="7.2679" cx="8.1436" gradientTransform="matrix(.97478 0 0 1.0341 3.1619 .55927)" r="38.159">
<stop stop-color="#FFF" offset="0"/>
<stop stop-color="#f8f8f8" offset="1"/>
</radialGradient>
<radialGradient id="radialGradient15658" gradientUnits="userSpaceOnUse" cy="35.737" cx="33.967" gradientTransform="matrix(.96384 0 0 1.0431 -.12482 -.15197)" r="86.708">
<stop stop-color="#fafafa" offset="0"/>
<stop stop-color="#BBB" offset="1"/>
</radialGradient>
<radialGradient id="radialGradient15656" gradientUnits="userSpaceOnUse" cy="3.7561" cx="8.8244" gradientTransform="matrix(.97165 0 0 1.0347 3.2404 .49568)" r="37.752">
<stop stop-color="#a3a3a3" offset="0"/>
<stop stop-color="#4c4c4c" offset="1"/>
</radialGradient>
<linearGradient id="linearGradient6738" y2="33.016" gradientUnits="userSpaceOnUse" x2="-14.36" y1="18.516" x1="-22.976">
<stop stop-color="#ff7171" offset="0"/>
<stop stop-color="#C00" offset="1"/>
</linearGradient>
<linearGradient id="linearGradient6740" y2="28.196" gradientUnits="userSpaceOnUse" x2="-9.7353" y1="24.454" x1="-16.387">
<stop stop-color="#5b8ccb" offset="0"/>
<stop stop-color="#3465a4" offset="1"/>
</linearGradient>
<linearGradient id="linearGradient6742" y2="25.015" gradientUnits="userSpaceOnUse" x2="-20.822" y1="30.828" x1="-17.863">
<stop stop-color="#73d216" offset="0"/>
<stop stop-color="#d5f7b3" offset="1"/>
</linearGradient>
<linearGradient id="linearGradient6744" x1="-20.75" gradientUnits="userSpaceOnUse" x2="-19.5" y1="29" y2="18.75">
<stop stop-color="#FFF" offset="0"/>
<stop stop-color="#FFF" stop-opacity="0" offset="1"/>
</linearGradient>
<linearGradient id="linearGradient6715" x1="302.86" gradientUnits="userSpaceOnUse" x2="302.86" gradientTransform="matrix(2.7744 0 0 1.9697 -1892.2 -872.89)" y1="366.65" y2="609.51">
<stop stop-opacity="0" offset="0"/>
<stop offset=".5"/>
<stop stop-opacity="0" offset="1"/>
</linearGradient>
<radialGradient id="radialGradient6717" cx="605.71" xlink:href="#linearGradient5060" gradientUnits="userSpaceOnUse" cy="486.65" r="117.14" gradientTransform="matrix(2.7744 0 0 1.9697 -1891.6 -872.89)"/>
<linearGradient id="linearGradient5060">
<stop offset="0"/>
<stop stop-opacity="0" offset="1"/>
</linearGradient>
<radialGradient id="radialGradient6719" cx="605.71" xlink:href="#linearGradient5060" gradientUnits="userSpaceOnUse" cy="486.65" r="117.14" gradientTransform="matrix(-2.7744 0 0 1.9697 112.76 -872.89)"/>
</defs>
<g transform="translate(0 -952.36)">
<g transform="matrix(2.2961 0 0 2.2223 -5.6815 945.71)">
<g transform="matrix(.021449 0 0 .020868 43.328 41.154)">
<rect opacity=".40206" style="color:black" height="478.36" width="1339.6" y="-150.7" x="-1559.3" fill="url(#linearGradient6715)"/>
<path opacity=".40206" style="color:black" fill="url(#radialGradient6717)" d="m-219.62-150.68v478.33c142.87 0.90045 345.4-107.17 345.4-239.2s-159.44-239.13-345.4-239.13z"/>
<path opacity=".40206" style="color:black" fill="url(#radialGradient6719)" d="m-1559.3-150.68v478.33c-142.87 0.90045-345.4-107.17-345.4-239.2s159.44-239.13 345.4-239.13z"/>
</g>
<rect stroke-linejoin="round" style="color:black" display="block" rx="1.149" ry="1.149" height="40.997" width="34.997" stroke="url(#radialGradient15656)" stroke-linecap="round" y="3.5013" x="6.5017" fill="url(#radialGradient15658)"/>
<rect stroke-linejoin="round" style="color:black" display="block" rx=".14905" ry=".14905" height="38.996" width="32.996" stroke="url(#radialGradient15668)" stroke-linecap="round" y="4.5018" x="7.5034" fill="none"/>
<g fill-rule="evenodd">
<path style="color:black" d="m10 6.0022v4.9641 30.036l10-0.002v-30h18v-4.9978h-28z" fill-opacity=".21053"/>
<g stroke-opacity=".19298" fill-opacity=".15789" stroke="#000" stroke-linecap="square">
<path d="m37.5 10.502h-27.001" stroke-width="1px"/>
<g stroke-width="1px">
<path d="m37.501 16.5h-27.002"/>
<path d="m37.501 22.5h-27.002"/>
<path d="m37.501 28.5h-27.002"/>
</g>
<path d="m37.501 34.5h-27.002" stroke-width="1px"/>
<path d="m37.501 40.5h-27.002" stroke-width="1px"/>
<path d="m37.512 13.5h-27.012" stroke-width="1px"/>
</g>
</g>
<path d="m37.501 19.5h-27.002" stroke-opacity=".19298" stroke="#000" stroke-linecap="square" stroke-width="1px" fill="none"/>
<g stroke-opacity=".19298" fill-rule="evenodd" fill-opacity=".15789" stroke="#000" stroke-linecap="square" stroke-width="1px">
<path d="m37.501 25.5h-27.002"/>
<path d="m37.501 31.5h-27.002"/>
<path d="m37.501 37.5h-27.002"/>
</g>
<g stroke="#000" stroke-linecap="square" stroke-opacity=".15789" fill="none">
<path d="m37.5 6.4997v34" stroke-width="1px"/>
<g stroke-width="1px">
<path d="m31.5 6.4997v34.001"/>
<path d="m25.5 6.4997v34.001"/>
<path d="m19.5 6.4997v34.001"/>
<path d="m10.5 6.4997v34.001"/>
</g>
</g>
<path d="m37.5 6.5022h-27.001" stroke-opacity=".19298" fill-rule="evenodd" fill-opacity=".15789" stroke="#000" stroke-linecap="square" stroke-width="1px"/>
<path fill-rule="evenodd" transform="matrix(.86167 0 0 .85148 3.7605 2.0917)" fill="url(#radialGradient2462)" d="m49 40.714c0 6.5485-7.1954 11.857-16.071 11.857-8.876 0-16.071-5.3086-16.071-11.857 0-6.5485 7.1954-11.857 16.071-11.857 8.876 0 16.071 5.3086 16.071 11.857z"/>
<g transform="translate(51 9.125)">
<g>
<path fill="#670000" d="m-27.529 18.093c-2.569 1.6983-3.9829 4.005-3.9829 6.4979v2.0693c0 2.4908 1.4139 4.7982 3.9829 6.4966 2.4265 1.6039 5.6331 2.4875 9.0292 2.4875 3.3948 0 6.6014-0.88356 9.0292-2.4875 2.5677-1.6983 3.9816-4.005 3.9816-6.4966v-2.0693c0-2.4929-1.4145-4.8002-3.9816-6.4979-2.4271-1.6026-5.6338-2.4868-9.0292-2.4868-3.3961 0-6.6027 0.88424-9.0292 2.4868z"/>
<path fill="#a40000" d="m-7.0244 24.454c-1.3786-3.3865-6.0531-5.8801-11.612-5.8801-5.5593 0-10.234 2.4935-11.612 5.8801h-0.4148v2.07c0 4.3902 5.3853 7.9487 12.027 7.9487 6.6425 0 12.026-3.5585 12.026-7.9487v-2.07h-0.41415z"/>
<path fill="url(#linearGradient6738)" d="m-6.6103 24.454c0 4.3908-5.384 7.9494-12.026 7.9494-6.6425 0-12.027-3.5585-12.027-7.9494 0-4.3908 5.3853-7.9494 12.027-7.9494 6.6425 0 12.026 3.5585 12.026 7.9494z"/>
<path fill="#204a87" d="m-6.6103 26.833-0.01541-2.1664c-1.3041 4.5008-4.2366 6.4075-7.9235 7.341v1.9944c3.9906-1.0036 7.562-3.2887 7.9389-7.169z"/>
<path fill="url(#linearGradient6740)" d="m-6.6103 24.454c-0.27546 5.0795-6.5577 7.3956-7.9614 7.484l-4.0658-7.484h12.027z"/>
<path fill="#4e9a06" d="m-21.154 34.298v-2.0693c2.2634 0.29475 4.3399 0.34668 6.5828-0.21381l0.02247 1.9877c-1.8794 0.61647-4.8196 0.64547-6.6053 0.2961v-0.000675z"/>
<path fill="url(#linearGradient6742)" d="m-18.637 24.454 4.0658 7.4833c-2.4894 0.94899-6.5828 0.29137-6.5828 0.29137l2.517-7.7747z"/>
</g>
<path opacity=".31111" style="color:black" d="m-6.875 24.375c0 4.2802-5.2607 7.75-11.75 7.75s-11.75-3.4698-11.75-7.75 5.2607-7.75 11.75-7.75 11.75 3.4698 11.75 7.75z" transform="matrix(.97959 0 0 .97959 -.38010 .49745)" display="block" stroke="url(#linearGradient6744)" stroke-width="1.0208" fill="none"/>
<path opacity=".13333" style="color:black" d="m-6.875 24.375c0 4.2802-5.2607 7.75-11.75 7.75s-11.75-3.4698-11.75-7.75 5.2607-7.75 11.75-7.75 11.75 3.4698 11.75 7.75z" transform="matrix(.97959 0 0 .97959 -.38010 2.4974)" stroke="url(#linearGradient6744)" stroke-width="1.0208" display="block" fill="none"/>
</g>
</g>
</g>
</svg>
