<svg xmlns="http://www.w3.org/2000/svg" xmlns:xlink="http://www.w3.org/1999/xlink" width="256" height="256">
    <defs>
        <linearGradient x2="1" gradientUnits="userSpaceOnUse" gradientTransform="matrix(0 -91.8907 -91.8907 0 85.88 161.434)" id="a">
            <stop offset="0" stop-color="#97d9f6"/>
            <stop offset=".92" stop-color="#0f80cc"/>
            <stop offset="1" stop-color="#0f80cc"/>
        </linearGradient>
        <linearGradient xlink:href="#a" id="b" gradientUnits="userSpaceOnUse" gradientTransform="matrix(0 -9.18907 -9.18907 0 8.588 16.143)" x1="-15.615" y1="-9.108" x2="-6.741" y2="-9.108"/>
    </defs>
    <path d="M137.926 195.603c-.11-1.4-.176-2.31-.176-2.31s-4.245-28.616-9.297-37.155c-.8-1.354.087-6.913 2.317-15.148 1.304 2.255 6.81 11.9 7.915 15.008 1.244 3.514 1.506 4.52 1.506 4.52s-3.019-15.534-7.973-24.599a329.828 329.828 0 0 1 3.85-12.045c1.878 3.292 6.37 11.264 7.36 14.029.2.568.368 1.05.52 1.493l.145-.797c-1.135-4.813-3.363-13.188-6.413-19.375C144.447 84 167.528 36.92 191.19 15.914H36.832c-10.345 0-18.81 8.467-18.81 18.812v170.228c0 10.344 8.465 18.808 18.81 18.808h101.665c-.733-8.873-.978-18.69-.57-28.159" fill="#0f80cc"/>
    <path d="M99.406 99.76c.672-1.162 3.511-6.136 4.081-7.739.642-1.812.777-2.331.777-2.331s-1.557 8.011-4.112 12.686c.56 1.89 1.229 3.979 1.986 6.212.885-1.553 2.896-5.12 3.623-6.81l.082.954c-.644 2.475-1.622 5.715-2.874 8.254 3.214 16.725 13.559 38.625 24.704 50.448H50.96a6.879 6.879 0 0 1-6.87-6.871V73.179c17.373 6.668 38.322 12.763 56.352 12.502-.67 2.581-1.431 4.915-2.232 6.268-.412.698.045 3.565 1.196 7.812" fill="url(#b)" transform="matrix(1.93905 0 0 -1.93905 -61.982 334.432)"/>
    <path d="M227.195 10.344c-10.572-9.428-23.372-5.64-36.005 5.57-1.875 1.667-3.746 3.514-5.607 5.488-21.611 22.926-41.67 65.391-47.903 97.822 2.428 4.923 4.324 11.206 5.573 16.005.32 1.231.609 2.387.84 3.37.548 2.327.843 3.835.843 3.835s-.194-.733-.989-3.038c-.151-.442-.32-.925-.52-1.493-.085-.235-.203-.52-.333-.824-1.41-3.277-5.31-10.194-7.025-13.205a329.828 329.828 0 0 0-3.851 12.045c4.954 9.065 7.973 24.6 7.973 24.6s-.262-1.007-1.506-4.521c-1.106-3.108-6.61-12.753-7.915-15.008-2.23 8.235-3.117 13.794-2.317 15.148 1.551 2.623 3.03 7.149 4.327 12.154 2.932 11.275 4.97 25.002 4.97 25.002s.066.91.176 2.309c-.407 9.469-.162 19.286.57 28.16.972 11.746 2.8 21.837 5.131 27.237l1.583-.863c-3.423-10.64-4.813-24.583-4.204-40.664.92-24.58 6.577-54.221 17.028-85.116 17.657-46.639 42.155-84.058 64.577-101.929-20.436 18.456-48.095 78.196-56.374 100.32-9.271 24.772-15.84 48.02-19.8 70.293 6.831-20.88 28.919-29.856 28.919-29.856s10.833-13.361 23.494-32.449c-7.584 1.73-20.037 4.69-24.208 6.443-6.152 2.581-7.81 3.462-7.81 3.462s19.93-12.137 37.028-17.632c23.515-37.036 49.134-89.65 23.335-112.665" fill="#003b57"/>
</svg>
