<svg width="88.969" height="113.43" preserveAspectRatio="xMidYMid" viewBox="0 0 88.969391 113.4281" xmlns="http://www.w3.org/2000/svg">
    <g fill="#e5712a">
        <path d="M63.277 72.606L19.852 62.073l2.107-8.685L65.384 63.92l-2.107 8.686M66.188 62.216l-39.79-20.332 4.066-7.958 39.79 20.332-4.066 7.958M72.317 51.452l-33.65-29.399 5.88-6.73 33.65 29.398-5.88 6.73M81.575 41.991L56.482 5.018 63.877 0 88.97 36.971l-7.395 5.019M62.582 83.469l-44.618-2.436.487-8.924 44.618 2.437-.487 8.923"/>
    </g>
    <path d="M71.833 104.49V67.467h8.929l.006 45.962H0l.002-46.001H8.94v37.062h62.894" fill="#999"/>
    <path d="M17.84 86.651h44.987v8.937H17.84z" fill="#e5712a"/>
</svg>
