<svg version="1.1" viewBox="0 0 225.63383 189.77277" xmlns="http://www.w3.org/2000/svg">
	<defs>
		<linearGradient id="a" x1="110.02" x2="109.24" y1="62.865" y2="163.21" gradientTransform="matrix(1 0 0 1.1192 3.5509 3.55)" gradientUnits="userSpaceOnUse" spreadMethod="reflect">
		<stop stop-color="#1a1a1a" offset="0"/>
		<stop stop-color="#505050" offset="1"/>
		</linearGradient>
	</defs>
	<path d="m123.82 65.568h-17.166l-4.955 22.05h17.283l4.837-22.05m-8.848-37.567-6.135 27.4h17.225l6.193-27.4h9.44l-6.077 27.4h18.404v10.167h-20.705l-4.837 22.05h18.76v10.102h-21.06l-6.135 27.333h-9.438l6.075-27.333h-17.281l-6.077 27.333h-9.498l6.135-27.333h-18.58v-10.1h20.763l4.955-22.052h-18.994v-10.168h21.296l6.015-27.4h9.557m-78.495-24.45-32.93 58.288 10.13 11.533l0.06-0.065 89.035 101.28-0.087 0.13 10.1 11.502 0.087-0.13 0.03 0.032 10.13-11.502-0.03-0.065 88.628-100.8 10.363-11.794v-0.034l0.088-0.097-5.78-10.194-0.29-0.327-17.896-31.562h0.175l-9.11-16.14h-0.174l-0.03-0.065h-10.362l-0.088 0.065h-127.92l-0.088-0.065h-14.04z" fill="url(#a)" stroke="#0FF" stroke-linecap="round" stroke-linejoin="round" stroke-width="7.1"/>
</svg>
