<svg viewBox="0 0 225.63383 189.77277" xmlns="http://www.w3.org/2000/svg">
    <defs>
        <linearGradient id="a" x1="110.02" x2="109.24" y1="62.865" y2="163.21" gradientTransform="matrix(1 0 0 1.1192 3.55 3.55)" gradientUnits="userSpaceOnUse" spreadMethod="reflect">
            <stop stop-color="#1a1a1a" offset="0"/>
            <stop stop-color="#505050" offset="1"/>
        </linearGradient>
    </defs>
    <path d="M123.82 65.568h-17.166l-4.955 22.05h17.283l4.837-22.05m-8.848-37.567l-6.135 27.4h17.225l6.193-27.4h9.44l-6.077 27.4h18.404v10.167h-20.705l-4.837 22.05h18.76V97.72h-21.06l-6.135 27.333h-9.438l6.075-27.333H99.4l-6.077 27.333h-9.498L89.96 97.72H71.38v-10.1h20.763l4.955-22.052H78.104V55.4H99.4l6.015-27.4h9.557M36.477 3.55L3.547 61.838l10.13 11.533.06-.065 89.035 101.28-.087.13 10.1 11.502.087-.13.03.032 10.13-11.502-.03-.065 88.628-100.8 10.363-11.794v-.034l.088-.097-5.78-10.194-.29-.327-17.896-31.562h.175l-9.11-16.14h-.174l-.03-.065h-10.362l-.088.065H50.606l-.088-.065h-14.04z" fill="url(#a)" stroke="#0FF" stroke-linecap="round" stroke-linejoin="round" stroke-width="7.1"/>
</svg>
