<svg xmlns:rdf="http://www.w3.org/1999/02/22-rdf-syntax-ns#" xmlns="http://www.w3.org/2000/svg" viewBox="0 0 43.131058 45.007999" height="45.008" width="43.131" version="1.1" xmlns:cc="http://creativecommons.org/ns#" xmlns:dc="http://purl.org/dc/elements/1.1/">
<radialGradient id="SVGID_1_" gradientUnits="userSpaceOnUse" cy="-1930.6" cx="1364.6" gradientTransform="matrix(.205 0 0 -.205 -257 -370.54)" r="90.997">
<stop offset="0"/>
<stop offset=".5"/>
<stop stop-opacity="0" offset="1"/>
</radialGradient>
<path fill="url(#SVGID_1_)" d="m41.465 25.323c0 10.306-8.354 18.659-18.652 18.659-10.299 0-18.663-8.354-18.663-18.659s8.354-18.659 18.659-18.659c10.304 0.001 18.656 8.354 18.656 18.659z"/>
<path fill="#340000" d="m6.2842 10.616-5.241 6.709 2.78 14.148 25.587 8.286 6.121-10.398-1.794-15.579-19.645-9.065-7.665 5.716-0.143 0.183z"/>
<radialGradient id="SVGID_2_" gradientUnits="userSpaceOnUse" cy="-1982.8" cx="1405.1" gradientTransform="matrix(.205 0 0 -.205 -257 -370.54)" r="126.3">
<stop stop-color="#F2BE7F" offset="0"/>
<stop stop-color="#FFFFDC" offset="1"/>
</radialGradient>
<path fill="url(#SVGID_2_)" d="m33.965 19.346-19.566 7.362-8.993-14.302-3.924 5.023 2.696 13.728 25.046 8.109 5.885-9.996-1.144-9.924z"/>
<linearGradient id="SVGID_3_" x1="1353.5" gradientUnits="userSpaceOnUse" y1="-1886.2" gradientTransform="matrix(.205 0 0 -.205 -257 -370.54)" x2="1347.8" y2="-1852.8">
<stop stop-color="#C3AD7B" offset="0"/>
<stop stop-color="#A25F00" offset="1"/>
</linearGradient>
<path fill="url(#SVGID_3_)" d="m14.16 28.501-7.4498-10.594c-4.168 3.69 0.272 8.406-0.336 9.092-0.411 0.455-1.37-0.069-2.875-1.573-2.258-2.255 0.41 2.665 1.64 4.374 0.82 1.14-0.159 1.071-2.938-0.205l-0.822-13.396 3.64-4.409 36.206 5.023-10.662 6.151-16.403 5.537z"/>
<path fill="#340000" d="m40.286 16.968-25.887 9.74-9.38-14.917-0.347 0.217 9.559 15.202 26.198-9.858-0.143-0.384z"/>
<radialGradient id="SVGID_4_" gradientUnits="userSpaceOnUse" cy="-1894.1" cx="1403.1" gradientTransform="matrix(.205 0 0 -.205 -257 -370.54)" r="90.871">
<stop stop-color="#F2BE7F" offset="0"/>
<stop stop-color="#FFFFDC" offset="1"/>
</radialGradient>
<path fill="url(#SVGID_4_)" d="m33.965 19.346-0.388-3.362-27.779-4.079-0.147 0.187-0.245 0.314 8.993 14.302 19.566-7.362z"/>
<linearGradient id="SVGID_5_" x1="1333.5" gradientUnits="userSpaceOnUse" y1="-1978.5" gradientTransform="matrix(.205 0 0 -.205 -257 -370.54)" x2="1335.8" y2="-1971.4">
<stop stop-color="#AA944B" offset="0"/>
<stop stop-color="#AA944B" stop-opacity="0" offset="1"/>
</linearGradient>
<path fill="url(#SVGID_5_)" d="m4.1782 31.157 25.046 8.109 0.692-1.18-26.076-8.653 0.338 1.724z"/>
<path fill="#7b5516" d="m33.969 15.791-0.392 0.193 0.388 3.362-4.589 1.727c2.264 4.849 0.556 10.915 0.562 10.915 3.508-1.876 4.428-7.259 4.598-11.351l-0.567-4.846z"/>
<path fill="#7b5516" d="m23.124 15.369c3.539 0.963 5.167 3.379 6.258 5.704l4.585-1.727-0.388-3.362-3.662-0.538-0.241 1.163-6.552-1.24z"/>
<linearGradient id="SVGID_6_" x1="1288.3" gradientUnits="userSpaceOnUse" y1="-1891.2" gradientTransform="matrix(.205 0 0 -.205 -257 -370.54)" x2="1288.3" y2="-1865.2">
<stop stop-color="#D2B170" offset=".01"/>
<stop stop-color="#A25F00" offset="1"/>
</linearGradient>
<path fill="url(#SVGID_6_)" d="m8.6072 12.317-2.809-0.412-0.147 0.187-0.245 0.314 3.033 4.823 0.017-0.002c0.133-0.812 0.392-1.454 0.397-1.454 0.006 0 0.015 0.039 0.051 0.103l-0.039-0.894c-0.016-0.726-0.213-1.712-0.252-2.664h-0.006z"/>
<linearGradient id="SVGID_7_" x1="1338.9" gradientUnits="userSpaceOnUse" y1="-1931.4" gradientTransform="matrix(.205 0 0 -.205 -257 -370.54)" x2="1338.9" y2="-1878.4">
<stop stop-color="#A25F00" stop-opacity="0" offset="0"/>
<stop stop-color="#A25F00" offset="1"/>
</linearGradient>
<path fill="url(#SVGID_7_)" d="m23.124 15.369s-2.778-0.605-4.72-0.742c-1.941-0.138-4.363 1.78-5.126 2.239-0.406 0.244-0.863 0.492-1.349 0.75 0.039 1.93 0.506 6.114 3.658 7.862-0.008-10.252 7.537-10.109 7.544-10.109h-0.007z"/>
<path d="m12.86 33.968-8.682-2.811-1.029-4.314-1.821-0.597s1.896 5.946 5.278 10.724c6.854 4.777 5.179 2.45 5.186 2.45 1.226 0.718 2.046 0.718 2.052 0.718-0.004-0.718-3.08-0.871-3.945-5.741 0.918 1.845 4.609 2.87 4.82 2.665 0.135-0.137-0.45-1.145-1.755-3.023l-0.104-0.071z"/>
<linearGradient id="SVGID_8_" x1="1282.6" gradientUnits="userSpaceOnUse" y1="-1994.8" gradientTransform="matrix(.205 0 0 -.205 -257 -370.54)" x2="1282.6" y2="-1973">
<stop stop-color="#A4D8E5" offset="0"/>
<stop stop-color="#0C418F" offset=".5"/>
<stop stop-color="#000060" offset="1"/>
</linearGradient>
<path fill="url(#SVGID_8_)" d="m10.299 38.806s-4.378-0.298-8.104-7.686c-2.2-7.643 2.903 4.396 8.109 7.686h-0.005z"/>
<linearGradient id="SVGID_9_" x1="1269.1" gradientUnits="userSpaceOnUse" y1="-1977.5" gradientTransform="matrix(.205 0 0 -.205 -257 -370.54)" x2="1269.1" y2="-1948.7">
<stop stop-color="#A4D8E5" offset="0"/>
<stop stop-color="#0C418F" offset=".5"/>
<stop stop-color="#000060" offset="1"/>
</linearGradient>
<path fill="url(#SVGID_9_)" d="m0.030158 21.948s0.529 11.525 6.379 13.422c-2.978-4.049-3.822-11.943-3.816-11.943l-2.563-1.479z"/>
<radialGradient id="SVGID_10_" gradientUnits="userSpaceOnUse" cy="-1874.1" cx="1295.1" gradientTransform="matrix(.205 0 0 -.205 -257 -370.54)" r="77.83">
<stop stop-color="#000060" offset="0"/>
<stop stop-color="#0C418F" offset=".5"/>
<stop stop-color="#A4D8E5" offset="1"/>
</radialGradient>
<path fill="url(#SVGID_10_)" d="m3.4812 29.271c-1.23 0.256-3.562-4.05-3.479-8.509 0.049-2.973 0.56-5.348 1.532-7.125l1.025 8.458s0 5.792 0.929 7.177h-0.007z"/>
<path d="m19.218 2.563s-14.046 2.256-17.679 11.072c-2.491 6.23 3.147 11.561 3.999 10.715-0.004 0-3.062-3.98-0.049-9.926 2.003-3.965 6.58-7.918 13.729-11.861z"/>
<radialGradient id="SVGID_11_" gradientUnits="userSpaceOnUse" cy="-1861.4" cx="1310.9" gradientTransform="matrix(.205 0 0 -.205 -257 -370.54)" r="71.42">
<stop stop-color="#000060" offset="0"/>
<stop stop-color="#0C418F" offset=".5"/>
<stop stop-color="#A4D8E5" offset="1"/>
</radialGradient>
<path fill="url(#SVGID_11_)" d="m19.218 2.563s-14.046 2.256-17.679 11.072c-2.491 6.23 3.147 11.561 3.999 10.715-0.004 0-3.9-4.614-0.459-10.868 2.288-4.169 7-7.809 14.139-10.919z"/>
<linearGradient id="SVGID_12_" x1="1300.1" gradientUnits="userSpaceOnUse" y1="-1832.5" gradientTransform="matrix(.205 0 0 -.205 -257 -370.54)" x2="1262.6" y2="-1897.4">
<stop stop-color="#1B609D" offset=".01"/>
<stop stop-color="#9FD2E5" offset=".5"/>
<stop stop-color="#4187B8" offset="1"/>
</linearGradient>
<path fill="url(#SVGID_12_)" d="m1.5172 15.311c-0.752 5.023 0.865 3.144 2.125-0.752-1.253 2.169-2.125 1.589-2.118 0.752h-0.007zm1.566-3.478c-2.237 4.563-0.127 3.261 2.253-0.075-1.852 1.691-2.507 0.874-2.247 0.076h-0.006zm4.47-4.664c-3.256 2.893-1.159 2.544 1.814 0.67-2.021 0.742-2.274-0.119-1.809-0.67h-0.005zm-2.307 2.06c-3.258 3.562-0.986 2.937 2.075 0.531-2.141 1.05-2.52 0.129-2.069-0.531h-0.006zm6.3258-2.88c-1.7708 0.496-1.9288-0.258-1.493-0.697-2.9868 2.248-1.1698 2.094 1.499 0.697h-0.006z"/>
<path d="m32.98 4.844c-1.066-0.997-3.541-1.663-4.943-1.948-1.208-0.242-2.494-0.32-3.711-0.41-0.842-0.06-3.236-0.015-4.253 0.09-2.567 0.266-3.595 1.214-5.659 2.673-1.893 1.331-4.677 2.781-5.5 5.108-0.652 1.292-0.065 3.354-0.035 4.624l0.035 0.894c-0.039-0.063-0.057-0.103-0.051-0.103s-1.14 2.828 0.133 4.101c0.012-0.115 0.039-0.228 0.084-0.338l-0.082 0.338s0.556-1.017 1.577-1.548 1.958-1 2.721-1.46c0.763-0.459 3.153-2.374 5.102-2.239 1.298 0.091 5.057 0.752 11.278 1.982l0.649-3.143-1.177-0.888c0.125-0.33 0.221-0.681 0.404-0.98 0.446-0.769 0.502-1.439 0.494-2.317 1.038-0.245 2.2-0.672 2.88-1.553 0.578-0.771 0.856-2.132 0.061-2.883h-0.007z"/>
<linearGradient id="SVGID_13_" x1="1319.8" gradientUnits="userSpaceOnUse" y1="-1831.5" gradientTransform="matrix(.205 0 0 -.205 -257 -370.54)" x2="1376.8" y2="-1888.5">
<stop stop-color="#A4D8E5" offset="0"/>
<stop stop-color="#0C418F" offset=".67"/>
<stop stop-color="#000040" offset="1"/>
</linearGradient>
<path fill="url(#SVGID_13_)" d="m32.98 4.844c-1.066-0.997-3.541-1.663-4.943-1.948-1.208-0.242-2.494-0.32-3.711-0.41-0.842-0.06-3.236-0.015-4.253 0.09-2.567 0.266-3.595 1.214-5.659 2.673-1.893 1.331-4.677 2.781-5.5 5.108-0.652 1.292-0.065 3.354-0.035 4.624l0.035 0.894c-0.039-0.063-0.057-0.103-0.051-0.103s-1.14 2.828 0.133 4.101c0.137-1.333 2.255-2.358 2.262-2.358l1.561-0.785c0.238-0.162 0.892-0.56 1.101-0.769 1.245-0.72 2.288-1.511 3.76-1.657 1.942-0.195 3.779 0.668 5.716 0.459 1.588-0.172 3.759-0.398 5.139-1.277 0.648-0.417 0.666-1.261 1.041-1.889 0.447-0.767 0.503-1.439 0.494-2.317 1.038-0.246 2.201-0.672 2.879-1.554 0.555-0.771 0.833-2.132 0.037-2.883h-0.006z"/>
<path fill="#484848" d="m18.398 1.436c-0.224 0.094-0.451 0.226-0.675 0.383 0.228-0.158 0.455-0.291 0.681-0.383h-0.006zc-1.975 1.281-2.701 3.931-2.694 3.931 0.201-0.086 0.498-0.463 0.898-0.925-0.24 0.277-0.445 0.525-0.607 0.695 0.01-0.049 0.814-2.184 2.409-3.701h-0.006zm-0.615-1.436c-4.408 3.221-4.206 5.807-4.199 5.807 0.063-0.033 0.146-0.092 0.246-0.172-0.008-0.002-0.125-1.991 3.959-5.635h-0.006zm1.092 2.563c-1.017 1.436-0.238 1.743-0.231 1.743 0.006 0.001-0.289-0.477 0.231-1.743zm-1.084 0.669c0.326-0.264 0.687-0.502 1.091-0.668-0.42 0.174-0.779 0.41-1.085 0.668h-0.006z"/>
<linearGradient id="SVGID_14_" x1="1324.9" gradientUnits="userSpaceOnUse" y1="-1843.6" gradientTransform="matrix(.205 0 0 -.205 -257 -370.54)" x2="1314.9" y2="-1816">
<stop stop-color="#A4D8E5" offset="0"/>
<stop stop-color="#0C418F" offset="1"/>
</linearGradient>
<path fill="url(#SVGID_14_)" d="m9.3682 9.414c2.7928-8.528 8.4148-9.414 8.4208-9.414-4.413 3.221-4.21 5.807-4.204 5.807 0.722-0.365 3.035-3.619 4.818-4.372-1.977 1.281-2.704 3.931-2.698 3.931 0.49-0.205 1.518-2.11 3.18-2.803-1.019 1.436-0.242 1.743-0.236 1.743l-9.2808 5.108z"/>
<path d="m42.781 18.551-8.954-3.736-0.769 8.663c0.098 0.561 0.164 1.165 0.207 1.805-0.01-0.106-0.017-0.209-0.019-0.313-0.744 11.907-7.808 18.005-11.353 19.577 4.455 0.308 7.192-1.242 7.198-1.242 0.007 0-0.597 0.73-2.186 1.703 1.999 0 6.972-1.896 7.952-3.895l0.508 0.205c-0.002 0 9.686-6.768 7.42-22.767h-0.004z"/>
<linearGradient id="SVGID_15_" x1="1368.6" gradientUnits="userSpaceOnUse" y1="-2029.2" gradientTransform="matrix(.205 0 0 -.205 -257 -370.54)" x2="1423.8" y2="-1933.7">
<stop stop-color="#B4B4DC" offset=".01"/>
<stop offset="1"/>
</linearGradient>
<path fill="url(#SVGID_15_)" d="m33.238 24.969c-0.74 11.907-7.803 18.005-11.349 19.577 8.743-1.902 11.845-12.848 11.355-19.577h-0.006z"/>
<linearGradient id="SVGID_16_" x1="1392.6" gradientUnits="userSpaceOnUse" y1="-2031.2" gradientTransform="matrix(.205 0 0 -.205 -257 -370.54)" x2="1421.6" y2="-1981">
<stop stop-color="#B4B4DC" offset=".01"/>
<stop offset="1"/>
</linearGradient>
<path fill="url(#SVGID_16_)" d="m26.907 45.007s7.022-2.768 7.849-9.072c3.275 0.461-3.44 8.1-7.843 9.072h-0.006z"/>
<path d="m28.14 14.2c-2.284-3.338-5.803-4.392-9.085-4.392 5.956 0.753 14.721 9.211 9.807 18.592 2.905-3.902 1.915-10.343-0.716-14.2h-0.006z"/>
<path d="m33.266 24.579c-1.594 3.437-4.41 3.82-4.404 3.82s2.354 0.41 4.302-1.948c0.278-0.341 0.289-0.997 0.108-1.872h-0.006z"/>
<linearGradient id="SVGID_17_" x1="1439.2" gradientUnits="userSpaceOnUse" y1="-1979" gradientTransform="matrix(.205 0 0 -.205 -257 -370.54)" x2="1439.2" y2="-1879.4">
<stop stop-color="#6498C1" offset="0"/>
<stop stop-color="#0C418F" offset=".2"/>
<stop stop-color="#000040" offset="1"/>
</linearGradient>
<path fill="url(#SVGID_17_)" d="m42.781 18.551-8.954-3.736-0.769 8.663c0.082 0.471 0.141 0.973 0.185 1.5-0.003-0.005-0.003-0.009 0.004-0.009 0.004 0.104 0.011 0.207 0.022 0.313-0.01-0.103-0.019-0.203-0.021-0.303-0.03 0.432-0.067 0.856-0.104 1.275-0.115 1.865-0.131 5.328 1.023 7.426 0.785-1.188 1.574-2.67 1.85-4.154 0.123 1.508-0.591 3.445-1.29 4.948 0.231 0.263 0.503 0.479 0.813 0.64 0.117 0.049 0.236 0.086 0.361 0.117 0.982-1.215 2.578-3.459 2.992-5.705 0.143 1.771-0.865 4.141-1.655 5.694 3.366-0.921 5.661-8.306 5.708-8.438-0.004-0.002-0.004-0.002 0.002-0.004 0.263-2.413 0.27-5.149-0.162-8.229h-0.005z"/>
<path fill="#0c418f" d="m38.051 33.382c-0.268 0.67-0.567 1.304-0.834 1.841 1.214-0.334 2.29-1.511 3.176-2.883-0.797 0.574-1.77 0.892-2.336 1.042h-0.006z"/>
<path fill="#0c418f" d="m35.041 33.726c-0.108 0.259-0.221 0.512-0.328 0.749 0.234 0.263 0.502 0.479 0.814 0.64 0.117 0.049 0.235 0.086 0.361 0.117 0.981-1.215 2.576-3.459 2.99-5.705-1.123 2.881-2.82 3.865-3.832 4.199h-0.005z"/>
<linearGradient id="SVGID_18_" x1="1438.7" gradientUnits="userSpaceOnUse" y1="-1956.9" gradientTransform="matrix(.205 0 0 -.205 -257 -370.54)" x2="1438.7" y2="-1867.8">
<stop stop-color="#A4D8E5" offset="0"/>
<stop stop-color="#0C418F" offset=".2"/>
<stop stop-color="#000040" offset=".5"/>
</linearGradient>
<path fill="url(#SVGID_18_)" d="m35.775 22.606c0.563 3.281-1.641 8.1-1.635 8.1s3.293-0.646 4.747-7.652-0.31 4.865-0.951 6.012c-0.005 0 3.174-1.486 3.847-7.535 0.672-6.049-3.695-9.74-5.079-9.022-0.923 0.478-1.232 3.844-0.929 10.097z"/>
<linearGradient id="SVGID_19_" x1="1404.6" gradientUnits="userSpaceOnUse" y1="-1941.9" gradientTransform="matrix(.205 0 0 -.205 -257 -370.54)" x2="1404.6" y2="-1890.6">
<stop stop-color="#A4D8E5" offset="0"/>
<stop stop-color="#0C418F" offset=".5"/>
<stop stop-color="#000060" offset="1"/>
</linearGradient>
<path fill="url(#SVGID_19_)" d="m42.898 19.252c0-0.002 0-0.002 0.006-0.004-0.332-2.147-0.908-4.187-1.684-6.022-1.994-4.679-5.309-7.536-9.143-8.714-8.719-0.82-13.024 5.296-13.018 5.296 3.285 0 6.803 1.054 9.094 4.392 2.633 3.857 3.623 10.297 0.717 14.2-0.004 0 6.045-0.82 5.436-10.868-0.004 0 2.149 4.204-0.613 9.996-0.004 0 5.584-1.384 3.848-12.148-0.004 0 1.277 2.46 0.873 8.15-0.004 0 2.303-1.604 2.309-6.51-0.004 0 1.586 5.177 0.002 8.458-0.004 0 0.023-0.091 0.145-0.181 0.494-0.419 2.434-2.075 2.035-6.045h-0.007z"/>
<linearGradient id="SVGID_20_" x1="1385.6" gradientUnits="userSpaceOnUse" y1="-1840.6" gradientTransform="matrix(.205 0 0 -.205 -257 -370.54)" x2="1424.6" y2="-1895.1">
<stop stop-color="#4187B8" offset="0"/>
<stop stop-color="#074E92" offset="1"/>
</linearGradient>
<path fill="url(#SVGID_20_)" d="m28.525 14.805c1.109 1.839 1.781 3.955 2.02 6.085 0.16 0.435 0.576 1.132 1.15 0.972 0.471-0.135 0.9-0.679 1.179-1.07 0.353-0.511 0.492-1.132 0.83-1.65 0.158-0.256 0.38-0.482 0.41-0.798 0.007-0.111-0.032-0.767 0.194-0.747-0.006-0.022-0.006-0.043-0.002-0.065-0.004 0 0.011 0.031 0.041 0.084 0.156 0.135 0.216 0.451 0.281 0.64 0.088 0.297 0.168 0.599 0.248 0.9 0.125 0.517 0.48 1.448 1.143 0.872 0.301-0.269 0.488-0.677 0.652-1.044 0.148-0.357 0.239-0.713 0.299-1.099 0.098-0.73 0.067-1.726 0.611-2.302-0.015-0.068-0.025-0.136-0.029-0.203-0.004 0 0.037 0.08 0.109 0.24 0.242 0.162 0.58 0.316 0.871 0.156 0.264-0.149 0.381-0.488 0.459-0.767 0.107-0.427 0.146-0.874 0.236-1.308 0.094-0.499 0.194-1.009 0.16-1.518 0.217 0.502 0.455 0.99 0.651 1.507 0.153 0.428 0.312 0.861 0.347 1.32 0.026 0.39 0.019 0.781 0.072 1.171 0.034 0.31 0.105 0.691 0.383 0.888 0.119-1.663 0.375-3.463-0.158-5.081-0.871-1.689-2.001-3.252-3.405-4.531-1.485-1.343-3.246-2.358-5.151-2.944-8.718-0.82-13.024 5.298-13.018 5.298 1.771 0 3.566 0.308 5.189 1.063 1.749 0.845 3.197 2.227 4.232 3.933h-0.004z"/>
<linearGradient id="SVGID_21_" x1="1415.6" gradientUnits="userSpaceOnUse" y1="-1878.2" gradientTransform="matrix(.205 0 0 -.205 -257 -370.54)" x2="1388.1" y2="-1830.5">
<stop stop-color="#1B609D" offset=".01"/>
<stop stop-color="#9FD2E5" offset=".5"/>
<stop stop-color="#4187B8" offset="1"/>
</linearGradient>
<path fill="url(#SVGID_21_)" d="m25.574 6.65c0.588 0.797-0.076 1.066-1.445 0.937 4.109 1.282 3.166 0.15 1.451-0.937h-0.006zm3.879-0.58c3.867 0.422 2.836-0.418 1.131-1.083 0.654 0.605 0.112 0.958-1.124 1.083h-0.007zm2.775 2.887c0.545 0.888-0.175 1.111-1.602 0.855 4.197 1.708 3.309 0.437 1.607-0.855h-0.005zm1.942-1.054c0.547 0.89-0.172 1.111-1.6 0.855 4.197 1.708 3.31 0.437 1.605-0.855h-0.005zm-8.733 0.847c4.203 1.708 3.314 0.437 1.613-0.855 0.539 0.888-0.181 1.109-1.605 0.855h-0.008zm3.924 0.424c0.545 0.888-0.174 1.109-1.602 0.855 4.197 1.708 3.31 0.437 1.607-0.855h-0.005zm3.554-2.155c-0.31-0.24-0.806-0.517-1.366-0.779 0.719 0.754 0.061 1.122-1.388 1.173 3.146 0.553 3.511 0.192 2.778-0.384 4.406 0.769 3.272-0.283 1.346-1.181 0.701 0.746 0.059 1.113-1.364 1.17h-0.006zm-4.515 1.673c4.469 0.785 3.332-0.271 1.396-1.173 0.715 0.752 0.057 1.122-1.391 1.173h-0.005zm0.01-2.302c0.283 0.511-0.293 0.74-1.385 0.74 3.645 0.775 2.929-0.058 1.426-0.861-0.043-0.256-0.578-0.738-1.253-1.22 0.488 0.746-0.123 0.956-1.351 0.775 1.66 0.619 2.396 0.73 2.568 0.566h-0.005zm6.44 4.273c4.044 2.52 3.353 1.045 1.821-0.597 0.401 1.017-0.385 1.117-1.815 0.597h-0.006zm-2.149 0.939c4.044 2.52 3.352 1.045 1.821-0.597 0.399 1.017-0.386 1.117-1.814 0.597h-0.007zm-9.074-3.64c0.547 0.888-0.173 1.111-1.6 0.855 4.197 1.708 3.309 0.437 1.605-0.855h-0.005zm13.45-0.008c0.388 0.968-0.358 1.064-1.72 0.568 3.844 2.399 3.184 0.995 1.727-0.568h-0.007zm-7.203 3.806c4.245 2.647 3.519 1.099 1.911-0.625 0.42 1.066-0.404 1.173-1.904 0.625h-0.007zm-4.367-2.327c0.546 0.888-0.175 1.109-1.602 0.855 4.197 1.708 3.31 0.437 1.607-0.855h-0.005zm2.903 1.605c0.547 0.89-0.172 1.111-1.6 0.855 4.197 1.708 3.31 0.437 1.605-0.855h-0.005zm-0.506 2.67c3.789 3.638 3.377 1.891 2.1-0.231 0.2 1.191-0.669 1.12-2.094 0.231h-0.006z"/>
<path fill="#4a6eaa" d="m31.76 22.008c-1.402-0.923-1.229-3.211-1.223-3.211 0.114 0.699 1.104 0.529 1.111 0.529-0.21-0.65-0.191-4.187-0.186-4.187 1.396 5.264 2.391 4.612 1.967-0.563-0.012 0 2.124 3.947-1.663 7.433h-0.006z"/>
<path fill="#4a6eaa" d="m35.109 19.002c0.358-0.872-0.24-3.966-0.234-3.966s0.476 0.923 1.158 0.685 0.17-1.505-0.951-2.255c-0.004 0 1.158 0.308 1.473-0.342-0.011 0 2.415 3.896-1.439 5.878h-0.007z"/>
<linearGradient id="SVGID_22_" x1="1303.7" gradientUnits="userSpaceOnUse" y1="-1882" gradientTransform="matrix(.205 0 0 -.205 -257 -370.54)" x2="1347.9" y2="-1837.8">
<stop stop-color="#A5B4D3" offset="0"/>
<stop stop-color="#A5B4D3" stop-opacity=".33" offset="1"/>
</linearGradient>
<path fill="url(#SVGID_22_)" d="m11.033 16.08c4.767-0.154 2.239-3.402 8.602-9.553-5.184 3.008-10.583 2.94-8.595 9.553h-0.007z"/>
<linearGradient id="SVGID_23_" x1="1301.5" gradientUnits="userSpaceOnUse" y1="-1879.9" gradientTransform="matrix(.205 0 0 -.205 -257 -370.54)" x2="1345.8" y2="-1835.6">
<stop stop-color="#264B92" offset="0"/>
<stop stop-color="#264B92" stop-opacity=".33" offset="1"/>
</linearGradient>
<path fill="url(#SVGID_23_)" d="m11.033 16.08c0.838-1.214 3.674-5.93 8.602-9.553-5.184 3.008-10.583 2.94-8.595 9.553h-0.007z"/>
<path fill="#000064" d="m13.489 14.184c-0.896 0.896-1.969 0.687-2.053-0.494-0.131-1.669 1.659-1.846 2.438-1.591 0.263 0.756-0.07 1.495-0.379 2.085"/>
<radialGradient id="SVGID_24_" gradientUnits="userSpaceOnUse" cy="-1874.3" cx="1311.9" gradientTransform="matrix(.205 0 0 -.205 -257 -370.54)" r="8.5095">
<stop stop-color="#600000" offset="0"/>
<stop stop-color="#C00000" offset=".5"/>
<stop stop-color="#F6AA00" offset="1"/>
</radialGradient>
<path fill="url(#SVGID_24_)" d="m13.575 13.96c-0.289 0.539-0.964 0.756-1.337 0.554-0.381-0.203-0.379-0.882-0.084-1.421 0.285-0.54 1.544-0.297 1.55-0.297 0.006-0.001 0.16 0.627-0.129 1.164z"/>
<radialGradient id="SVGID_25_" gradientUnits="userSpaceOnUse" cy="-1872.2" cx="1313" gradientTransform="matrix(.205 0 0 -.205 -257 -370.54)" r="3.7997">
<stop stop-color="#FFF" offset=".01"/>
<stop offset="1"/>
</radialGradient>
<path fill="url(#SVGID_25_)" d="m12.302 13.993c0.263 0.328 0.665 0.445 0.902 0.26 0.228-0.187 0.332-0.734 0.074-1.062-0.267-0.33-0.797-0.313-1.023-0.129-0.242 0.185-0.217 0.603 0.053 0.931h-0.006z"/>
<radialGradient id="SVGID_26_" gradientUnits="userSpaceOnUse" cy="-1894.6" cx="1304.9" gradientTransform="matrix(.205 0 0 -.205 -257 -370.54)" r="12.969">
<stop stop-color="#769EB8" offset="0"/>
<stop stop-color="#FFF" offset="1"/>
</radialGradient>
<path fill="url(#SVGID_26_)" d="m11.308 17.446s0-0.513-0.148-1.025c-1.765 0.599-2.311-0.648-2.305-0.648s-1.142 2.828 0.131 4.101c0.137-1.333 2.255-2.358 2.262-2.358"/>
<path fill="#484848" d="m11.238 17.515 0.07-0.069s0-0.513-0.148-1.025c-2.807 1.503-2.175 3.453-2.169 3.453 0.129-1.333 2.247-2.358 2.253-2.358h-0.006z"/>
<radialGradient id="SVGID_27_" gradientUnits="userSpaceOnUse" cy="-1889.6" cx="1300.6" gradientTransform="matrix(.205 0 0 -.205 -257 -370.54)" r="3.7782">
<stop stop-color="#FFF" offset=".01"/>
<stop offset="1"/>
</radialGradient>
<path fill="url(#SVGID_27_)" d="m8.9782 17.61s0.015-0.847 0.4-1.001c-0.004 0.167 0.193 0.295 0.392 0.295-0.537 0.053-0.792 0.706-0.785 0.706h-0.007z"/>
<path fill-opacity=".25" fill="#fff" d="m9.3682 9.414 0.004-0.002c-0.191 0.299-0.353 0.611-0.466 0.945-0.56 1.107-0.209 2.78-0.074 4.033 0.117 0.441 0.254 0.894 0.502 1.142l0.303 0.103c-0.006-0.699 0.242-1.347 0.211-2.051-0.047-0.853-0.271-1.708-0.099-2.563 0.142-0.752 0.589-1.404 0.771-2.151 0.22-0.929 0.193-1.929 0.324-2.876-0.552 0.976-1.05 2.105-1.472 3.42"/>
</svg>
