<svg xmlns="http://www.w3.org/2000/svg" viewBox="0 0 43.131058 45.007999" height="45.008" width="43.131">
    <radialGradient id="a" gradientUnits="userSpaceOnUse" cy="-1930.6" cx="1364.6" gradientTransform="matrix(.205 0 0 -.205 -257 -370.54)" r="90.997">
        <stop offset="0"/>
        <stop offset=".5"/>
        <stop stop-opacity="0" offset="1"/>
    </radialGradient>
    <path fill="url(#a)" d="M41.465 25.323c0 10.306-8.354 18.66-18.652 18.66-10.3 0-18.663-8.355-18.663-18.66s8.354-18.66 18.66-18.66c10.303.002 18.655 8.355 18.655 18.66z"/>
    <path fill="#340000" d="M6.284 10.616l-5.24 6.71 2.78 14.147L29.41 39.76l6.12-10.4-1.793-15.578-19.645-9.065-7.665 5.716-.143.183z"/>
    <radialGradient id="b" gradientUnits="userSpaceOnUse" cy="-1982.8" cx="1405.1" gradientTransform="matrix(.205 0 0 -.205 -257 -370.54)" r="126.3">
        <stop stop-color="#F2BE7F" offset="0"/>
        <stop stop-color="#FFFFDC" offset="1"/>
    </radialGradient>
    <path fill="url(#b)" d="M33.965 19.346L14.4 26.708 5.405 12.406 1.482 17.43l2.696 13.727 25.046 8.11 5.885-9.997-1.145-9.924z"/>
    <linearGradient id="c" x1="1353.5" gradientUnits="userSpaceOnUse" y1="-1886.2" gradientTransform="matrix(.205 0 0 -.205 -257 -370.54)" x2="1347.8" y2="-1852.8">
        <stop stop-color="#C3AD7B" offset="0"/>
        <stop stop-color="#A25F00" offset="1"/>
    </linearGradient>
    <path fill="url(#c)" d="M14.16 28.5L6.71 17.908c-4.168 3.69.272 8.406-.336 9.092-.41.454-1.37-.07-2.875-1.574-2.26-2.255.41 2.665 1.64 4.374.82 1.14-.16 1.07-2.94-.205L1.38 16.2l3.64-4.41 36.205 5.023-10.662 6.15-16.403 5.538z"/>
    <path fill="#340000" d="M40.286 16.968L14.4 26.708 5.02 11.79l-.348.218 9.56 15.202 26.197-9.858-.144-.384z"/>
    <radialGradient id="d" gradientUnits="userSpaceOnUse" cy="-1894.1" cx="1403.1" gradientTransform="matrix(.205 0 0 -.205 -257 -370.54)" r="90.871">
        <stop stop-color="#F2BE7F" offset="0"/>
        <stop stop-color="#FFFFDC" offset="1"/>
    </radialGradient>
    <path fill="url(#d)" d="M33.965 19.346l-.388-3.362-27.78-4.08-.146.188-.244.314L14.4 26.708l19.565-7.362z"/>
    <linearGradient id="e" x1="1333.5" gradientUnits="userSpaceOnUse" y1="-1978.5" gradientTransform="matrix(.205 0 0 -.205 -257 -370.54)" x2="1335.8" y2="-1971.4">
        <stop stop-color="#AA944B" offset="0"/>
        <stop stop-color="#AA944B" stop-opacity="0" offset="1"/>
    </linearGradient>
    <path fill="url(#e)" d="M4.178 31.157l25.046 8.11.692-1.18L3.84 29.432l.338 1.724z"/>
    <path fill="#7b5516" d="M33.97 15.79l-.393.194.388 3.362-4.59 1.727c2.265 4.85.557 10.915.563 10.915 3.508-1.876 4.428-7.26 4.598-11.35l-.567-4.847z"/>
    <path fill="#7b5516" d="M23.124 15.37c3.54.962 5.167 3.378 6.258 5.703l4.585-1.727-.388-3.362-3.663-.538-.24 1.163-6.553-1.24z"/>
    <linearGradient id="f" x1="1288.3" gradientUnits="userSpaceOnUse" y1="-1891.2" gradientTransform="matrix(.205 0 0 -.205 -257 -370.54)" x2="1288.3" y2="-1865.2">
        <stop stop-color="#D2B170" offset=".01"/>
        <stop stop-color="#A25F00" offset="1"/>
    </linearGradient>
    <path fill="url(#f)" d="M8.607 12.317l-2.81-.412-.146.187-.244.314L8.44 17.23l.016-.003a7.016 7.016 0 0 1 .397-1.454c.006 0 .015.04.05.103l-.038-.894c-.016-.726-.213-1.712-.252-2.664h-.006z"/>
    <linearGradient id="g" x1="1338.9" gradientUnits="userSpaceOnUse" y1="-1931.4" gradientTransform="matrix(.205 0 0 -.205 -257 -370.54)" x2="1338.9" y2="-1878.4">
        <stop stop-color="#A25F00" stop-opacity="0" offset="0"/>
        <stop stop-color="#A25F00" offset="1"/>
    </linearGradient>
    <path fill="url(#g)" d="M23.124 15.37s-2.778-.606-4.72-.743c-1.94-.138-4.363 1.78-5.126 2.24-.406.243-.863.49-1.35.75.04 1.93.507 6.113 3.66 7.86-.01-10.25 7.536-10.108 7.543-10.108h-.006z"/>
    <path d="M12.86 33.968l-8.682-2.81-1.03-4.315-1.82-.597s1.896 5.946 5.278 10.724c6.854 4.777 5.18 2.45 5.186 2.45 1.226.718 2.046.718 2.052.718-.004-.718-3.08-.87-3.945-5.74.917 1.844 4.608 2.87 4.82 2.664.134-.137-.45-1.145-1.756-3.023l-.104-.072z"/>
    <linearGradient id="h" x1="1282.6" gradientUnits="userSpaceOnUse" y1="-1994.8" gradientTransform="matrix(.205 0 0 -.205 -257 -370.54)" x2="1282.6" y2="-1973">
        <stop stop-color="#A4D8E5" offset="0"/>
        <stop stop-color="#0C418F" offset=".5"/>
        <stop stop-color="#000060" offset="1"/>
    </linearGradient>
    <path fill="url(#h)" d="M10.3 38.806s-4.38-.298-8.105-7.686c-2.2-7.643 2.903 4.396 8.11 7.686h-.006z"/>
    <linearGradient id="i" x1="1269.1" gradientUnits="userSpaceOnUse" y1="-1977.5" gradientTransform="matrix(.205 0 0 -.205 -257 -370.54)" x2="1269.1" y2="-1948.7">
        <stop stop-color="#A4D8E5" offset="0"/>
        <stop stop-color="#0C418F" offset=".5"/>
        <stop stop-color="#000060" offset="1"/>
    </linearGradient>
    <path fill="url(#i)" d="M.03 21.948S.56 33.473 6.41 35.37c-2.98-4.05-3.823-11.943-3.817-11.943L.03 21.947z"/>
    <radialGradient id="j" gradientUnits="userSpaceOnUse" cy="-1874.1" cx="1295.1" gradientTransform="matrix(.205 0 0 -.205 -257 -370.54)" r="77.83">
        <stop stop-color="#000060" offset="0"/>
        <stop stop-color="#0C418F" offset=".5"/>
        <stop stop-color="#A4D8E5" offset="1"/>
    </radialGradient>
    <path fill="url(#j)" d="M3.48 29.27c-1.23.257-3.56-4.05-3.478-8.508.05-2.973.56-5.348 1.532-7.125l1.025 8.458s0 5.792.928 7.177H3.48z"/>
    <path d="M19.218 2.563S5.172 4.82 1.538 13.635c-2.49 6.23 3.148 11.56 4 10.715-.004 0-3.062-3.98-.05-9.926 2.004-3.965 6.58-7.918 13.73-11.86z"/>
    <radialGradient id="k" gradientUnits="userSpaceOnUse" cy="-1861.4" cx="1310.9" gradientTransform="matrix(.205 0 0 -.205 -257 -370.54)" r="71.42">
        <stop stop-color="#000060" offset="0"/>
        <stop stop-color="#0C418F" offset=".5"/>
        <stop stop-color="#A4D8E5" offset="1"/>
    </radialGradient>
    <path fill="url(#k)" d="M19.218 2.563S5.172 4.82 1.538 13.635c-2.49 6.23 3.148 11.56 4 10.715-.004 0-3.9-4.614-.46-10.868 2.29-4.17 7-7.81 14.14-10.92z"/>
    <linearGradient id="l" x1="1300.1" gradientUnits="userSpaceOnUse" y1="-1832.5" gradientTransform="matrix(.205 0 0 -.205 -257 -370.54)" x2="1262.6" y2="-1897.4">
        <stop stop-color="#1B609D" offset=".01"/>
        <stop stop-color="#9FD2E5" offset=".5"/>
        <stop stop-color="#4187B8" offset="1"/>
    </linearGradient>
    <path fill="url(#l)" d="M1.517 15.31c-.752 5.024.865 3.145 2.125-.75-1.253 2.168-2.125 1.588-2.118.75h-.007zm1.566-3.477c-2.237 4.563-.127 3.26 2.253-.075-1.852 1.69-2.507.874-2.247.076h-.007zm4.47-4.664c-3.256 2.892-1.16 2.543 1.814.67-2.02.74-2.274-.12-1.81-.67h-.004zM5.246 9.23c-3.258 3.56-.986 2.936 2.075.53-2.14 1.05-2.52.13-2.068-.53h-.006zm6.326-2.88c-1.77.495-1.93-.26-1.493-.698C7.09 7.9 8.91 7.746 11.577 6.35h-.006z"/>
    <path d="M32.98 4.844c-1.066-.997-3.54-1.663-4.943-1.948-1.208-.242-2.494-.32-3.71-.41-.843-.06-3.237-.015-4.254.09-2.567.266-3.595 1.214-5.66 2.673-1.892 1.33-4.676 2.78-5.5 5.107-.65 1.292-.064 3.354-.034 4.624l.034.895c-.04-.063-.057-.103-.05-.103s-1.14 2.828.132 4.1c.012-.114.04-.227.084-.337l-.082.338s.556-1.017 1.577-1.548 1.958-1 2.72-1.46c.764-.46 3.154-2.374 5.103-2.24 1.298.092 5.057.753 11.278 1.983l.65-3.143-1.178-.888c.125-.33.22-.68.404-.98.446-.77.502-1.44.494-2.317 1.038-.245 2.2-.672 2.88-1.553.578-.77.856-2.132.06-2.883h-.006z"/>
    <linearGradient id="m" x1="1319.8" gradientUnits="userSpaceOnUse" y1="-1831.5" gradientTransform="matrix(.205 0 0 -.205 -257 -370.54)" x2="1376.8" y2="-1888.5">
        <stop stop-color="#A4D8E5" offset="0"/>
        <stop stop-color="#0C418F" offset=".67"/>
        <stop stop-color="#000040" offset="1"/>
    </linearGradient>
    <path fill="url(#m)" d="M32.98 4.844c-1.066-.997-3.54-1.663-4.943-1.948-1.208-.242-2.494-.32-3.71-.41-.843-.06-3.237-.015-4.254.09-2.567.266-3.595 1.214-5.66 2.673-1.892 1.33-4.676 2.78-5.5 5.107-.65 1.292-.064 3.354-.034 4.624l.034.895c-.04-.063-.057-.103-.05-.103s-1.14 2.828.132 4.1c.137-1.332 2.255-2.357 2.262-2.357l1.56-.785c.24-.162.893-.56 1.102-.77 1.245-.72 2.288-1.51 3.76-1.656 1.942-.195 3.78.668 5.716.46 1.588-.173 3.76-.4 5.14-1.278.647-.417.665-1.26 1.04-1.89.447-.766.503-1.438.494-2.316 1.038-.246 2.2-.672 2.88-1.554.554-.77.832-2.132.036-2.883h-.006z"/>
    <path fill="#484848" d="M18.398 1.436a3.67 3.67 0 0 0 .006 0h-.006zc-1.975 1.28-2.7 3.93-2.694 3.93.2-.085.498-.462.898-.924-.24.277-.445.525-.607.695.01-.05.814-2.184 2.41-3.7h-.007zM17.783 0c-4.408 3.22-4.206 5.807-4.2 5.807.064-.033.147-.092.247-.172-.008-.002-.125-1.99 3.96-5.635h-.007zm1.092 2.563c-1.017 1.436-.238 1.743-.23 1.743.005 0-.29-.477.23-1.743zm-1.084.67a4.41 4.41 0 0 1 1.092-.67c-.42.175-.78.41-1.085.67h-.006z"/>
    <linearGradient id="n" x1="1324.9" gradientUnits="userSpaceOnUse" y1="-1843.6" gradientTransform="matrix(.205 0 0 -.205 -257 -370.54)" x2="1314.9" y2="-1816">
        <stop stop-color="#A4D8E5" offset="0"/>
        <stop stop-color="#0C418F" offset="1"/>
    </linearGradient>
    <path fill="url(#n)" d="M9.368 9.414C12.16.886 17.783 0 17.788 0c-4.412 3.22-4.21 5.807-4.203 5.807.722-.365 3.035-3.62 4.818-4.372-1.977 1.28-2.704 3.93-2.698 3.93.49-.204 1.518-2.11 3.18-2.802-1.02 1.436-.242 1.743-.236 1.743L9.367 9.414z"/>
    <path d="M42.78 18.55l-8.953-3.735-.77 8.663c.1.56.165 1.165.208 1.805a4.17 4.17 0 0 1-.02-.313c-.743 11.907-7.807 18.005-11.352 19.577 4.455.308 7.192-1.242 7.198-1.242.008 0-.596.73-2.185 1.703 2 0 6.972-1.896 7.952-3.895l.508.205c-.002 0 9.686-6.768 7.42-22.767h-.004z"/>
    <linearGradient id="o" x1="1368.6" gradientUnits="userSpaceOnUse" y1="-2029.2" gradientTransform="matrix(.205 0 0 -.205 -257 -370.54)" x2="1423.8" y2="-1933.7">
        <stop stop-color="#B4B4DC" offset=".01"/>
        <stop offset="1"/>
    </linearGradient>
    <path fill="url(#o)" d="M33.238 24.97c-.74 11.906-7.803 18.004-11.35 19.576 8.744-1.902 11.846-12.848 11.356-19.577h-.006z"/>
    <linearGradient id="p" x1="1392.6" gradientUnits="userSpaceOnUse" y1="-2031.2" gradientTransform="matrix(.205 0 0 -.205 -257 -370.54)" x2="1421.6" y2="-1981">
        <stop stop-color="#B4B4DC" offset=".01"/>
        <stop offset="1"/>
    </linearGradient>
    <path fill="url(#p)" d="M26.907 45.007s7.022-2.768 7.85-9.072c3.274.46-3.44 8.1-7.844 9.072h-.006z"/>
    <path d="M28.14 14.2c-2.284-3.338-5.803-4.392-9.085-4.392 5.956.753 14.72 9.21 9.807 18.592 2.905-3.902 1.915-10.343-.716-14.2h-.006z"/>
    <path d="M33.266 24.58c-1.594 3.436-4.41 3.82-4.404 3.82s2.354.41 4.302-1.95c.278-.34.29-.996.108-1.87h-.006z"/>
    <linearGradient id="q" x1="1439.2" gradientUnits="userSpaceOnUse" y1="-1979" gradientTransform="matrix(.205 0 0 -.205 -257 -370.54)" x2="1439.2" y2="-1879.4">
        <stop stop-color="#6498C1" offset="0"/>
        <stop stop-color="#0C418F" offset=".2"/>
        <stop stop-color="#000040" offset="1"/>
    </linearGradient>
    <path fill="url(#q)" d="M42.78 18.55l-8.953-3.735-.77 8.663c.083.47.142.973.186 1.5-.003-.005-.003-.01.004-.01a4.797 4.797 0 0 0 0 .01c-.03.433-.066.857-.103 1.276-.115 1.865-.13 5.328 1.023 7.426.785-1.188 1.574-2.67 1.85-4.154.123 1.508-.59 3.445-1.29 4.948.23.263.503.48.813.64.117.05.236.086.36.117.983-1.214 2.58-3.458 2.993-5.704.143 1.77-.865 4.14-1.655 5.694 3.366-.92 5.66-8.306 5.708-8.438-.004-.002-.004-.002.002-.004.263-2.413.27-5.15-.162-8.23h-.005z"/>
    <path fill="#0c418f" d="M38.05 33.382c-.267.67-.566 1.304-.833 1.84 1.214-.333 2.29-1.51 3.176-2.882-.797.574-1.77.892-2.336 1.042h-.006zm-3.01.344c-.107.26-.22.512-.327.75.234.262.502.478.814.64.117.048.235.085.36.116.982-1.215 2.577-3.46 2.99-5.705-1.122 2.88-2.82 3.865-3.83 4.2h-.006z"/>
    <linearGradient id="r" x1="1438.7" gradientUnits="userSpaceOnUse" y1="-1956.9" gradientTransform="matrix(.205 0 0 -.205 -257 -370.54)" x2="1438.7" y2="-1867.8">
        <stop stop-color="#A4D8E5" offset="0"/>
        <stop stop-color="#0C418F" offset=".2"/>
        <stop stop-color="#000040" offset=".5"/>
    </linearGradient>
    <path fill="url(#r)" d="M35.775 22.606c.563 3.28-1.64 8.1-1.635 8.1s3.293-.646 4.747-7.652-.31 4.865-.95 6.012c-.006 0 3.173-1.486 3.846-7.535.672-6.048-3.695-9.74-5.08-9.02-.922.477-1.23 3.843-.928 10.096z"/>
    <linearGradient id="s" x1="1404.6" gradientUnits="userSpaceOnUse" y1="-1941.9" gradientTransform="matrix(.205 0 0 -.205 -257 -370.54)" x2="1404.6" y2="-1890.6">
        <stop stop-color="#A4D8E5" offset="0"/>
        <stop stop-color="#0C418F" offset=".5"/>
        <stop stop-color="#000060" offset="1"/>
    </linearGradient>
    <path fill="url(#s)" d="M42.898 19.252c0-.002 0-.002.006-.004-.332-2.147-.908-4.187-1.684-6.022-1.994-4.68-5.31-7.536-9.143-8.714-8.72-.82-13.024 5.296-13.018 5.296 3.284 0 6.802 1.054 9.093 4.392 2.633 3.857 3.623 10.297.717 14.2-.004 0 6.045-.82 5.436-10.868-.004 0 2.15 4.204-.613 9.996-.004 0 5.584-1.384 3.848-12.148-.003 0 1.278 2.46.874 8.15-.004 0 2.303-1.604 2.31-6.51-.005 0 1.585 5.177 0 8.458-.003 0 .024-.09.146-.18.494-.42 2.434-2.076 2.035-6.046h-.007z"/>
    <linearGradient id="t" x1="1385.6" gradientUnits="userSpaceOnUse" y1="-1840.6" gradientTransform="matrix(.205 0 0 -.205 -257 -370.54)" x2="1424.6" y2="-1895.1">
        <stop stop-color="#4187B8" offset="0"/>
        <stop stop-color="#074E92" offset="1"/>
    </linearGradient>
    <path fill="url(#t)" d="M28.525 14.805c1.11 1.84 1.78 3.955 2.02 6.085.16.435.576 1.132 1.15.972.47-.135.9-.68 1.18-1.07.352-.51.49-1.132.83-1.65.157-.256.38-.482.41-.798.006-.11-.033-.767.193-.747a.143.143 0 0 1-.002-.065c-.004 0 .01.03.04.084.157.135.217.45.282.64.088.297.168.6.248.9.125.517.48 1.448 1.143.872.3-.27.487-.677.65-1.044a4.69 4.69 0 0 0 .3-1.1c.098-.73.067-1.725.61-2.3a1.306 1.306 0 0 1-.028-.204c-.004 0 .037.08.11.24.24.162.58.316.87.156.264-.15.38-.488.46-.767.106-.428.145-.875.235-1.31.094-.498.194-1.008.16-1.517.217.502.455.99.65 1.507.154.428.313.86.348 1.32.026.39.02.78.072 1.17.034.31.105.692.383.89.12-1.664.375-3.464-.158-5.082-.87-1.69-2-3.252-3.405-4.53a13.717 13.717 0 0 0-5.15-2.945c-8.72-.82-13.025 5.298-13.02 5.298 1.772 0 3.567.31 5.19 1.064 1.75.845 3.197 2.227 4.232 3.933h-.005z"/>
    <linearGradient id="u" x1="1415.6" gradientUnits="userSpaceOnUse" y1="-1878.2" gradientTransform="matrix(.205 0 0 -.205 -257 -370.54)" x2="1388.1" y2="-1830.5">
        <stop stop-color="#1B609D" offset=".01"/>
        <stop stop-color="#9FD2E5" offset=".5"/>
        <stop stop-color="#4187B8" offset="1"/>
    </linearGradient>
    <path fill="url(#u)" d="M25.574 6.65c.588.797-.076 1.066-1.445.937 4.108 1.282 3.165.15 1.45-.937h-.006zm3.88-.58c3.866.422 2.835-.418 1.13-1.083.654.605.112.958-1.124 1.083h-.007zm2.774 2.887c.545.888-.175 1.11-1.602.855 4.197 1.708 3.31.437 1.607-.855h-.005zm1.942-1.054c.547.89-.172 1.11-1.6.855 4.197 1.708 3.31.437 1.605-.855h-.005zm-8.733.847c4.203 1.708 3.314.437 1.613-.855.54.888-.18 1.11-1.605.855h-.008zm3.924.424c.546.888-.173 1.11-1.6.855 4.196 1.707 3.31.436 1.606-.856h-.005zm3.555-2.155c-.31-.24-.806-.518-1.366-.78.718.754.06 1.122-1.39 1.173 3.147.553 3.512.192 2.78-.384 4.405.768 3.27-.284 1.345-1.182.7.746.06 1.113-1.364 1.17h-.005zM28.4 8.69c4.47.785 3.332-.27 1.396-1.173.715.75.057 1.12-1.39 1.172H28.4zm.01-2.302c.283.51-.293.74-1.385.74 3.645.775 2.93-.058 1.426-.86-.042-.257-.577-.74-1.252-1.22.488.745-.123.955-1.35.774 1.66.62 2.395.73 2.567.566h-.005zm6.44 4.273c4.044 2.52 3.353 1.045 1.82-.597.402 1.017-.384 1.117-1.814.597h-.006zm-2.15.94c4.045 2.52 3.353 1.044 1.822-.598.4 1.017-.386 1.117-1.814.597H32.7zm-9.073-3.64c.547.887-.173 1.11-1.6.854 4.197 1.708 3.31.437 1.605-.855h-.005zm13.45-.01c.388.97-.358 1.065-1.72.57 3.844 2.398 3.184.994 1.727-.57h-.007zm-7.203 3.807c4.245 2.647 3.52 1.1 1.91-.625.42 1.066-.403 1.173-1.903.625h-.006zm-4.367-2.327c.546.888-.175 1.11-1.602.855 4.197 1.708 3.31.437 1.607-.855h-.005zm2.903 1.605c.547.89-.172 1.11-1.6.855 4.197 1.708 3.31.437 1.605-.855h-.005zm-.506 2.67c3.79 3.638 3.377 1.89 2.1-.23.2 1.19-.67 1.12-2.094.23h-.006z"/>
    <path fill="#4a6eaa" d="M31.76 22.008c-1.402-.923-1.23-3.21-1.223-3.21.114.698 1.104.528 1.11.528-.21-.65-.19-4.187-.185-4.187 1.396 5.263 2.39 4.61 1.967-.564-.013 0 2.123 3.947-1.664 7.433h-.006zm3.35-3.006c.357-.872-.24-3.966-.235-3.966s.476.923 1.158.685.17-1.504-.95-2.254c-.005 0 1.157.308 1.472-.342-.01 0 2.415 3.896-1.44 5.878h-.006z"/>
    <linearGradient id="v" x1="1303.7" gradientUnits="userSpaceOnUse" y1="-1882" gradientTransform="matrix(.205 0 0 -.205 -257 -370.54)" x2="1347.9" y2="-1837.8">
        <stop stop-color="#A5B4D3" offset="0"/>
        <stop stop-color="#A5B4D3" stop-opacity=".33" offset="1"/>
    </linearGradient>
    <path fill="url(#v)" d="M11.033 16.08c4.767-.154 2.24-3.402 8.602-9.553-5.184 3.008-10.583 2.94-8.595 9.553h-.007z"/>
    <linearGradient id="w" x1="1301.5" gradientUnits="userSpaceOnUse" y1="-1879.9" gradientTransform="matrix(.205 0 0 -.205 -257 -370.54)" x2="1345.8" y2="-1835.6">
        <stop stop-color="#264B92" offset="0"/>
        <stop stop-color="#264B92" stop-opacity=".33" offset="1"/>
    </linearGradient>
    <path fill="url(#w)" d="M11.033 16.08c.838-1.214 3.674-5.93 8.602-9.553-5.184 3.008-10.583 2.94-8.595 9.553h-.007z"/>
    <path fill="#000064" d="M13.49 14.184c-.897.896-1.97.687-2.054-.494-.13-1.67 1.66-1.846 2.438-1.59.263.755-.07 1.494-.38 2.084"/>
    <radialGradient id="x" gradientUnits="userSpaceOnUse" cy="-1874.3" cx="1311.9" gradientTransform="matrix(.205 0 0 -.205 -257 -370.54)" r="8.509">
        <stop stop-color="#600000" offset="0"/>
        <stop stop-color="#C00000" offset=".5"/>
        <stop stop-color="#F6AA00" offset="1"/>
    </radialGradient>
    <path fill="url(#x)" d="M13.575 13.96c-.29.54-.964.756-1.337.554-.38-.203-.38-.882-.084-1.42.285-.54 1.544-.298 1.55-.298.006 0 .16.627-.13 1.164z"/>
    <radialGradient id="y" gradientUnits="userSpaceOnUse" cy="-1872.2" cx="1313" gradientTransform="matrix(.205 0 0 -.205 -257 -370.54)" r="3.8">
        <stop stop-color="#FFF" offset=".01"/>
        <stop offset="1"/>
    </radialGradient>
    <path fill="url(#y)" d="M12.302 13.993c.263.328.665.445.902.26.228-.187.332-.734.074-1.062-.267-.33-.797-.312-1.023-.128-.242.185-.217.603.053.93h-.006z"/>
    <radialGradient id="z" gradientUnits="userSpaceOnUse" cy="-1894.6" cx="1304.9" gradientTransform="matrix(.205 0 0 -.205 -257 -370.54)" r="12.969">
        <stop stop-color="#769EB8" offset="0"/>
        <stop stop-color="#FFF" offset="1"/>
    </radialGradient>
    <path fill="url(#z)" d="M11.308 17.446s0-.513-.148-1.025c-1.765.6-2.31-.647-2.305-.647s-1.142 2.828.13 4.1c.138-1.332 2.256-2.357 2.263-2.357"/>
    <path fill="#484848" d="M11.238 17.515l.07-.07s0-.512-.148-1.024c-2.807 1.504-2.175 3.454-2.17 3.454.13-1.333 2.248-2.358 2.254-2.358h-.006z"/>
    <radialGradient id="A" gradientUnits="userSpaceOnUse" cy="-1889.6" cx="1300.6" gradientTransform="matrix(.205 0 0 -.205 -257 -370.54)" r="3.778">
        <stop stop-color="#FFF" offset=".01"/>
        <stop offset="1"/>
    </radialGradient>
    <path fill="url(#A)" d="M8.978 17.61s.015-.847.4-1c-.004.166.193.294.392.294-.537.053-.792.706-.785.706h-.007z"/>
    <path fill-opacity=".25" fill="#fff" d="M9.368 9.414l.004-.002c-.19.3-.353.61-.466.945-.56 1.107-.21 2.78-.074 4.033.117.44.254.894.502 1.142l.303.103c-.006-.7.242-1.347.21-2.05-.046-.854-.27-1.71-.098-2.564.14-.75.588-1.403.77-2.15.22-.93.193-1.93.324-2.876a18.232 18.232 0 0 0-1.472 3.42"/>
</svg>
