<svg viewBox="0 0 65.532 65.605" xmlns="http://www.w3.org/2000/svg">
    <g fill="#e3712d">
        <path d="M21.064 53.852a10.517 10.705 0 1 1-21.034 0 10.517 10.705 0 1 1 21.034 0z" overflow="visible"/>
        <path d="M.081 13.878c26.138.14 53.16 25.09 53.16 51.695l12.293.031C65.534 33.087 32.11.002.164.002zm.192 8.183L0 34.475c22.586-.727 33.89 26.067 33.951 30.994l10.21.119C46.487 40.864 19.4 22.614.273 22.062z" overflow="visible"/>
    </g>
    <path d="M16.878 26.419l2.034-8.95 7.322-.243L29 7.219l16.353-3.092-2.522 12.936 11.308.407-1.952 9.763-12.285.081-4.543 18.99c-2.107 7.087 8.775 4.053 10.15 3.004-.406.082-1.865 10.467-1.865 10.467-32.684 7.037-26.506-10.428-20.42-32.38l-6.59-.162z" fill="#fff" stroke="#283c5d" stroke-linecap="round" stroke-linejoin="round" stroke-width="1.9"/>
</svg>
