<svg xmlns="http://www.w3.org/2000/svg" height="184.78" width="305.13" viewBox="0 0 305.12912 184.78299">
    <path fill="#abcd03" d="M172.215 13.794l-4.917 19.53C174.263 19.53 185.325 9.15 198.028 0c-9.288 10.79-17.755 21.58-22.945 32.368 8.74-12.292 20.486-19.12 33.733-23.627-17.618 15.707-31.602 32.56-42.255 49.495l-8.466-3.687c1.5-13.52 6.61-27.37 14.12-40.754z"/>
    <path fill="#fffcdb" d="M149.605 50.956l16.116 6.686c0 4.098-.332 16.597 2.23 20.284 26.803 34.52 22.293 103.71-5.43 105.49-42.216 0-58.316-28.68-58.316-55.038 0-24.037 28.816-40.016 46.025-54.22 4.37-3.823 3.61-12.274-.625-23.2z"/>
    <path fill="#7d4698" d="M165.725 57.406l5.808 2.963c-.546 3.822.273 12.29 4.096 14.475 16.935 10.516 32.913 21.988 39.196 33.46 22.398 40.426-15.706 77.846-48.62 74.295 17.89-13.248 23.08-40.425 16.39-70.062-2.732-11.61-6.967-22.125-14.48-34.007-3.253-5.832-2.117-13.065-2.39-21.124z"/>
    <path d="M162.935 56.406l12.018 1.64c-3.55 11.744 6.966 19.938 10.38 21.85 7.648 4.235 15.023 8.605 20.896 13.93a53.15 53.15 0 0 1 17.344 39.334c0 14.886-6.83 29.226-18.3 38.786-10.79 9.014-25.676 12.838-40.153 12.838-9.013 0-17.07-.41-25.81-3.278-19.94-6.692-34.827-23.763-36.056-44.25-1.093-15.98 2.458-28.134 14.887-40.835 6.42-6.69 19.394-14.34 28.272-20.485 4.37-3.005 9.014-11.473.136-27.45l1.776-1.367 13.157 8.812-11.107-4.578c.956 1.366 3.55 7.512 4.098 9.287 1.23 5.052.684 9.97-.41 12.154-5.598 10.107-15.158 12.838-22.123 18.574-12.292 10.106-25.676 18.164-24.174 45.888.683 13.657 11.336 30.32 27.314 38.104 9.014 4.37 19.394 6.146 29.91 6.692 9.423.41 27.45-5.19 37.284-13.384 10.517-8.74 16.39-21.988 16.39-35.508 0-13.658-5.463-26.632-15.706-35.783-5.873-5.326-15.57-11.745-21.578-15.16-6.01-3.414-13.52-12.974-11.063-22.124z"/>
    <path d="M159.245 76.616c-1.23 6.283-2.595 17.618-8.058 21.852-2.322 1.638-4.644 3.278-7.102 4.916-9.833 6.693-19.667 12.974-24.173 29.09-.956 3.415-.136 7.102.684 10.516 2.458 9.833 9.423 20.486 14.886 26.77 0 .272 1.093.955 1.093 1.228 4.507 5.327 5.873 6.83 22.944 10.652l-.41 1.913c-10.244-2.73-18.71-5.19-24.038-11.336 0-.136-.956-1.093-.956-1.093-5.736-6.556-12.702-17.48-15.296-27.724-.956-4.098-1.775-7.238-.683-11.473 4.643-16.66 14.75-23.217 24.993-30.182 2.322-1.502 5.053-2.87 7.238-4.644 4.233-3.14 6.554-12.7 8.877-20.484z"/>
    <path d="M163.615 102.566c.137 7.102-.556 10.665 1.22 15.72 1.09 3.003 4.78 7.1 5.874 11.06 1.5 5.328 3.137 11.2 3 14.75 0 4.1-.257 11.743-2.032 19.938-1.354 6.77-4.474 12.582-9.72 15.875-5.373-1.107-11.68-2.996-15.405-6.188-7.238-6.282-13.65-16.786-14.47-25.938-.68-7.51 6.274-18.588 15.97-24.188 8.194-4.78 10.1-10.228 11.875-18.97-2.458 7.65-4.767 14.06-12.688 18.157-11.472 6.01-17.358 16.096-16.812 25.656.82 12.29 5.74 20.62 15.438 27.31 4.097 2.87 11.75 5.9 16.53 6.72v-.626c3.626-.68 8.32-6.632 10.657-14.688 2.05-7.238 2.857-16.502 2.72-22.375-.138-3.413-1.644-10.807-4.376-17.5-1.502-3.686-3.81-7.372-5.313-9.967-1.637-2.597-1.65-8.195-2.47-14.75z"/>
    <path d="M162.795 129.346c.136 4.78 2.056 10.905 2.875 17.188.684 4.644.387 9.308.25 13.406-.135 4.743-1.715 13.242-3.875 17.375-2.037-.934-2.833-2-4.156-3.72-1.64-2.32-2.752-4.643-3.845-7.374-.82-2.048-1.776-4.393-2.187-7.124-.546-4.097-.393-10.506 4.25-17.062 3.55-5.19 4.364-5.585 5.593-11.594-1.64 5.326-2.86 5.87-6.686 10.375-4.233 4.917-4.938 12.16-4.938 18.03 0 2.46.98 5.188 1.938 7.782 1.092 2.732 2.03 5.452 3.53 7.5 2.26 3.32 5.15 5.21 6.564 5.563.01.002.022-.002.03 0 .03.007.066.025.094.03v-.155c2.65-2.955 4.245-5.89 4.782-8.844.683-3.55.84-7.11 1.25-11.343.41-3.55.112-8.334-.844-13.25-1.365-6.146-3.67-12.412-4.625-16.78z"/>
    <path d="M163.205 70.886c.137 7.1.683 20.35 2.595 25.54.546 1.774 5.6 9.56 9.15 18.982 2.458 6.556 3.004 12.565 3.414 14.34 1.64 7.785-.41 20.896-3.142 33.324-1.365 6.692-6.01 15.023-11.335 18.3l-1.092 1.913c3.005-.137 10.38-7.375 12.974-16.39 4.37-15.295 6.145-22.397 4.097-39.332-.273-1.64-.956-7.238-3.55-13.248-3.825-9.15-9.288-17.89-9.97-19.667-1.23-2.867-2.87-15.295-3.142-23.762z"/>
    <path d="M165.765 61.166c-.405 7.298-.514 9.986.85 15.312 1.503 5.873 9.152 14.34 12.293 24.037 6.01 18.574 4.507 42.884.136 61.867-1.638 6.69-9.424 16.39-17.208 19.53l5.736 1.365c3.14-.137 11.198-7.648 14.34-16.252 5.052-13.52 6.01-29.636 3.96-46.57-.137-1.64-2.87-16.253-5.463-22.4-3.69-9.15-10.245-17.344-10.927-19.118-1.228-3.005-3.926-9.244-3.718-17.77z"/>
    <path d="M161.425 56.036h.55v126.02h-.55z"/>
    <path fill="#7d4698" d="M7.648 17.89h109.67c4.096 0 7.647 3.415 7.647 7.65v32.366c0 4.234-3.55 7.65-7.647 7.65H94.784c-5.054 0-7.24 2.866-7.24 6.144v105.98a6.265 6.265 0 0 1-6.28 6.282H43.978c-3.416 0-6.147-2.73-6.147-6.282V70.74c0-3.278-3.005-5.19-5.326-5.19H7.65a7.636 7.636 0 0 1-7.648-7.648V25.534a7.627 7.627 0 0 1 7.644-7.643zM289.01 60.775h9.696c3.55 0 6.42 2.868 6.42 6.282v34.69c0 4.507.272 6.282-5.19 6.282-10.79 0-15.706 5.735-15.706 12.017v58.59c0 2.73-2.595 5.052-5.736 5.052h-34.827c-3.14 0-5.736-2.322-5.736-5.054V111.85c-.037-1.174-.014-2.908.138-3.823 1.912-24.72 21.308-44.5 45.888-46.982.824-.083 3.74-.273 5.054-.273z"/>
</svg>
