<svg xmlns="http://www.w3.org/2000/svg" height="115.54" width="168.17" viewBox="0 0 168.163 115.54">
    <path d="M88.28 0C73.612 0 60.36 3.694 49.909 10.523l-17.58.016s4.148 5.537 5.494 11.121l44.495 34.139 5.972 8.928 6.031-9.004 44.596-34.088c1.324-5.62 5.521-11.23 5.521-11.23l-18.734-.013C115.194 3.603 102.424 0 88.278 0zM30.448 81.868c-1.987-.002-2.984 2.4-1.58 3.805 1.403 1.406 3.806.414 3.808-1.573a2.236 2.236 0 0 0-2.228-2.232zm-23.06 1.989l-.26.094-3.378 1.158v4.41H.004v2.96h3.637v9.49c0 4.52 1.54 6.363 5.31 6.363.963 0 1.879-.123 2.799-.37l.143-.04-.038-3.06-.265.085c-.736.267-1.319.393-1.774.393-1.765 0-2.427-1-2.427-3.692v-9.17h4.326V89.52H7.389v-5.663zm38.177 5.229c-2.57 0-4.735 1.227-6.176 3.437v-3.004h-3.428v26.021h3.748v-10.093c1.354 1.842 3.297 2.848 5.713 2.848 4.74 0 7.797-3.886 7.797-9.89 0-5.576-3.07-9.32-7.654-9.32zm-21.73.107c-2.173 0-3.925 1.175-5.023 3.326v-3h-3.425v18.486h3.748v-9.277c0-3.896 1.634-6.033 4.595-6.033.427 0 .847.065 1.352.207l.242.07.121-3.65zm4.743.326v18.486h3.75V89.518h-3.75zm16.086 2.668c2.898 0 4.633 2.405 4.633 6.434 0 4.104-1.833 6.645-4.776 6.645-2.967 0-4.812-2.53-4.812-6.612 0-3.926 1.945-6.467 4.955-6.467z" fill="#000a12"/>
    <path d="M115.484 10.318a28.015 28.015 0 0 0-8.839 1.695c-7.039 2.605-12.639 7.787-15.777 14.603-1.418 3.075-2.22 6.326-2.475 9.597-1.044-14.34-12.878-25.716-27.414-26.003C69.02 6.77 78.257 4.9 88.27 4.9c10.08 0 19.18 1.817 27.213 5.418" fill="#fcc40f"/>
    <path d="M87.03 80.696V92.03c-1.381-1.924-3.303-2.945-5.783-2.945-4.578 0-7.653 3.777-7.653 9.388 0 5.783 3.113 9.823 7.584 9.823 2.647 0 4.706-1.173 6.14-3.452v3.16h3.464V80.697H87.03zm28.195 1.172c-1.986 0-2.981 2.399-1.579 3.804s3.804.413 3.807-1.572a2.236 2.236 0 0 0-2.228-2.232zm-51.06 7.217c-2.285 0-4.292.433-6.136 1.322l-.115.053.043 3.2.29-.165c1.765-.986 3.428-1.49 4.952-1.49 2.713 0 4.266 1.557 4.266 4.273v.156h-2.143c-6.167 0-9.568 2.236-9.568 6.293 0 3.256 2.452 5.531 5.96 5.531 2.582 0 4.581-1.013 6.003-2.923v2.67h3.39V96.814c0-5.124-2.331-7.729-6.941-7.729zm81.274 0c-5.635 0-9.137 3.708-9.137 9.68 0 5.967 3.502 9.673 9.137 9.673 5.659 0 9.176-3.706 9.176-9.674 0-5.97-3.517-9.68-9.176-9.68zm21.113.107c-2.165 0-3.922 1.175-5.024 3.326v-3h-3.421v18.486h3.748v-9.277c0-3.896 1.63-6.033 4.595-6.033.428 0 .844.064 1.348.207l.242.07.125-3.65-1.613-.13zm-38.26.113c-4.064 0-6.795 1.987-6.795 4.953 0 2.603 1.788 3.977 5.086 5.58 2.077 1.027 3.17 1.627 3.17 3.067 0 1.475-1.341 2.433-3.408 2.433-1.473 0-3.099-.418-4.707-1.205l-.276-.138-.123 3.26.13.052c1.538.61 3.177.92 4.831.918 4.586 0 7.549-2.189 7.549-5.57 0-2.823-1.879-4.249-5.125-5.764-2.38-1.114-3.38-1.775-3.38-2.955 0-1.122 1.111-1.853 2.825-1.853 1.55 0 3.065.342 4.496 1.023l.264.125.17-3.188-.145-.056c-1.562-.451-3.09-.682-4.562-.682zm-35.22.213l9.061 18.486 9.313-18.486h-3.918l-5.317 10.67-4.912-10.67h-4.226zm20.28 0v18.486h3.752V89.518h-3.753zm32.123 2.526c3.165 0 5.207 2.623 5.207 6.683 0 4.035-2.042 6.643-5.207 6.643-3.113 0-5.205-2.669-5.205-6.643 0-3.992 2.092-6.683 5.205-6.683zm-63.396.039c3.102 0 4.949 2.465 4.949 6.609 0 3.946-1.913 6.504-4.88 6.504-2.853 0-4.628-2.495-4.628-6.504 0-4.015 1.789-6.61 4.559-6.61zm-16.543 6.992h1.928v1.13c0 3.187-1.916 5.24-4.885 5.24-1.81 0-3.078-1.192-3.078-2.9 0-2.237 2.144-3.47 6.035-3.47z" fill="#00b087"/>
    <g transform="translate(303.132 52.1)">
        <circle cx="-243.06" stroke="#000a12" cy="-12.704" r="25.132" stroke-width="5.847" fill="#fff"/>
        <circle cx="-243.06" stroke="#000a12" cy="-12.704" r="11.3" stroke-width="5.102" fill="none"/>
        <circle cx="-243.06" cy="-12.704" r="4.667" fill="#ef6a45"/>
    </g>
    <g transform="translate(219.705 88.308)">
        <circle cx="-103.09" stroke="#000a12" cy="-48.962" r="25.132" stroke-width="5.847" fill="#fff"/>
        <circle cx="-103.09" stroke="#000a12" cy="-48.962" r="11.3" stroke-width="5.102" fill="none"/>
        <circle cx="-103.09" cy="-48.962" r="4.667" fill="#00b087"/>
    </g>
</svg>
