<svg xmlns:rdf="http://www.w3.org/1999/02/22-rdf-syntax-ns#" xmlns="http://www.w3.org/2000/svg" xml:space="preserve" height="100%" width="100%" version="1.1" xmlns:cc="http://creativecommons.org/ns#" xmlns:dc="http://purl.org/dc/elements/1.1/" viewBox="0 0 341.7375 277.725"><g transform="matrix(1.25 0 0 -1.25 0 277.72)"><g transform="scale(.1)"><path fill="#6babe1" d="m859.8 0c-316.75 0-611.57 92.852-859.8 251.99 43.879-5.179 88.527-7.828 133.8-7.828 262.78 0 504.63 89.672 696.59 240.1-245.44 4.527-452.58 166.69-523.95 389.53 34.246-6.551 69.382-10.059 105.53-10.059 51.148 0 100.7 6.852 147.77 19.668-256.59 51.524-449.93 278.22-449.93 549.98 0 2.37 0.008 4.71 0.047 7.05 75.628-42.01 162.11-67.24 254.05-70.15-150.5 100.58-249.52 272.26-249.52 466.85 0 102.8 27.652 199.14 75.933 281.98 276.64-339.34 689.93-562.64 1156.1-586.03-9.56 41.05-14.53 83.86-14.53 127.82 0 309.75 251.14 560.88 560.91 560.88 161.32 0 307.09-68.12 409.41-177.13 127.76 25.16 247.8 71.84 356.17 136.12-41.88-130.98-130.81-240.9-246.62-310.32 113.46 13.56 221.56 43.71 322.15 88.32-75.2-112.48-170.3-211.27-279.88-290.35 1.08-24.05 1.62-48.24 1.62-72.56 0-741.19-564.16-1595.9-1595.8-1595.9"/></g></g></svg>
