<svg xmlns="http://www.w3.org/2000/svg" viewBox="-0.866 -0.866 285 285"><path fill="#DD4814" d="M283.46 141.73c0 78.273-63.457 141.73-141.73 141.73S0 220.01 0 141.73C0 63.455 63.453 0 141.73 0s141.73 63.455 141.73 141.73z"/><path fill="#FFF" d="M45.356 122.81c-10.453 0-18.923 8.47-18.923 18.923 0 10.45 8.47 18.92 18.923 18.92 10.45 0 18.92-8.47 18.92-18.92 0-10.45-8.47-18.92-18.92-18.92zm135.1 86c-9.05 5.225-12.15 16.793-6.926 25.84 5.226 9.05 16.793 12.15 25.844 6.926 9.048-5.224 12.148-16.792 6.923-25.842-5.21-9.05-16.78-12.15-25.83-6.93zm-94.002-67.08c0-18.7 9.293-35.22 23.504-45.22L96.126 73.337c-16.56 11.064-28.878 27.978-33.995 47.788 5.978 4.872 9.797 12.29 9.797 20.608 0 8.315-3.82 15.734-9.797 20.605 5.116 19.81 17.435 36.725 33.995 47.788l13.835-23.175c-14.21-10.01-23.502-26.52-23.502-45.23zm55.272-55.273c28.877 0 52.564 22.14 55.047 50.373l26.968-.394c-1.326-20.844-10.43-39.562-24.424-53.32-7.194 2.72-15.505 2.307-22.688-1.84-7.192-4.153-11.705-11.157-12.94-18.758a82.205 82.205 0 0 0-21.96-2.99 81.837 81.837 0 0 0-36.432 8.512l13.146 23.56a54.98 54.98 0 0 1 23.28-5.147zm0 110.55a55.048 55.048 0 0 1-23.285-5.143l-13.14 23.56a81.875 81.875 0 0 0 36.434 8.51c7.61 0 14.968-1.054 21.96-2.99 1.237-7.6 5.75-14.604 12.944-18.76 7.183-4.145 15.494-4.557 22.688-1.838 13.992-13.758 23.097-32.476 24.422-53.32l-26.968-.394c-2.47 28.23-26.16 50.37-55.04 50.37zm38.73-122.36c9.05 5.227 20.62 2.126 25.842-6.92 5.226-9.052 2.128-20.62-6.923-25.846-9.05-5.223-20.617-2.123-25.843 6.928-5.23 9.047-2.13 20.616 6.92 25.84z"/></svg>