<svg version="1.1" viewBox="0 0 100 90" xmlns="http://www.w3.org/2000/svg">
	<rect y="-2.861e-6" width="100" height="90" fill="#6fda44" stroke-width=".94868"/>
	<path d="m72.791 20.518c-8.9288 0-15.749 5.8731-18.336 15.279-4.2257-6.5856-7.5194-14.103-9.4018-20.45h-9.4027v24.917c0 4.94-3.9977 8.9288-8.9288 8.9288-4.94 0-8.9288-3.9977-8.9288-8.9288v-24.917h-9.4018v24.917c0 10.344 8.2242 18.57 18.335 18.57 10.108 0 18.335-8.2242 18.335-18.57v-4.2275c1.8845 3.7599 4.2356 7.7576 6.8154 11.283l-5.8734 27.502h9.6375l4.2353-19.98c3.7597 2.3511 7.9959 3.7597 12.929 3.7597 10.342 0 18.805-8.4619 18.805-19.274 0-10.344-8.4619-18.806-18.805-18.806zm0 28.442c-3.7599 0-7.5197-1.6467-10.578-4.2356l0.94229-3.7599v-0.27444c0.73185-3.9977 2.8177-10.814 9.8722-10.814 5.1687 0 9.4027 4.2356 9.4027 9.4036-0.27444 5.4065-4.7021 9.6375-9.6375 9.6375z" fill="#fff" stroke-width="2.3506"/>
</svg>
