<svg xmlns="http://www.w3.org/2000/svg" version="1.1" viewBox="0 0 100 100">
	<rect width="100" fill="#6fda44" height="100"/>
	<path stroke-width="2.6834" fill="#fff" d="m76.018 21.955c-10.193 0-17.979 6.7046-20.932 17.442-4.824-7.518-8.584-16.1-10.733-23.345h-10.734v28.445c0 5.6394-4.5637 10.193-10.193 10.193-5.6394 0-10.193-4.5637-10.193-10.193v-28.445h-10.733v28.445c0 11.808 9.3886 21.199 20.931 21.199 11.539 0 20.931-9.3886 20.931-21.199v-4.826c2.1513 4.2922 4.8353 8.856 7.7803 12.881l-6.705 31.396h11.002l4.835-22.809c4.292 2.684 9.128 4.292 14.759 4.292 11.806 0 21.467-9.66 21.467-22.003 0-11.808-9.66-21.469-21.467-21.469zm0 32.469c-4.2922 0-8.5844-1.8798-12.076-4.8353l1.0757-4.2922v-0.3133c0.83547-4.5637 3.2166-12.345 11.27-12.345 5.9005 0 10.734 4.8353 10.734 10.735-0.3133 6.172-5.3679 11.002-11.002 11.002z"/>
</svg>
