<svg xmlns="http://www.w3.org/2000/svg" enable-background="new 0 0 378 414" xml:space="preserve" viewBox="0 0 378 414" version="1.1" y="0px" x="0px">
<g stroke-width="0.25" fill="none">
<circle r="22.564" cy="33.041" stroke="#B3B3B3" cx="152.21"/>
<circle r="22.541" cy="33.041" stroke="#B2B2B2" cx="152.21"/>
<circle r="22.519" cy="33.041" stroke="#B1B1B1" cx="152.21"/>
<circle r="22.496" cy="33.04" stroke="#B0B0B0" cx="152.21"/>
<circle r="22.473" cy="33.041" stroke="#AFAFAF" cx="152.21"/>
<circle r="22.451" cy="33.041" stroke="#AEAEAE" cx="152.21"/>
<circle r="22.428" cy="33.041" stroke="#ADADAD" cx="152.21"/>
<circle r="22.406" cy="33.041" stroke="#ACACAC" cx="152.21"/>
<circle r="22.383" cy="33.041" stroke="#ABABAB" cx="152.21"/>
<circle r="22.36" cy="33.041" stroke="#AAA" cx="152.21"/>
<circle r="22.338" cy="33.041" stroke="#A9A9A9" cx="152.21"/>
<circle r="22.315" cy="33.041" stroke="#A8A8A8" cx="152.21"/>
<circle r="22.292" cy="33.041" stroke="#A7A7A7" cx="152.21"/>
<circle r="22.27" cy="33.041" stroke="#A6A6A6" cx="152.21"/>
<circle r="22.247" cy="33.041" stroke="#A5A5A5" cx="152.21"/>
<circle r="22.225" cy="33.041" stroke="#A4A4A4" cx="152.21"/>
<circle r="22.202" cy="33.041" stroke="#A3A3A3" cx="152.21"/>
<circle r="22.179" cy="33.041" stroke="#A2A2A2" cx="152.21"/>
<circle r="22.157" cy="33.041" stroke="#A1A1A1" cx="152.21"/>
<circle r="22.134" cy="33.041" stroke="#A0A0A0" cx="152.21"/>
<circle r="22.111" cy="33.041" stroke="#9F9F9F" cx="152.21"/>
<circle r="22.089" cy="33.04" stroke="#9E9E9E" cx="152.21"/>
<circle r="22.066" cy="33.041" stroke="#9D9D9D" cx="152.21"/>
<circle r="22.044" cy="33.041" stroke="#9C9C9C" cx="152.21"/>
<circle r="22.021" cy="33.041" stroke="#9B9B9B" cx="152.21"/>
<circle r="21.998" cy="33.04" stroke="#9A9A9A" cx="152.21"/>
<circle r="21.976" cy="33.041" stroke="#999" cx="152.21"/>
<circle r="21.953" cy="33.041" stroke="#989898" cx="152.21"/>
<circle r="21.931" cy="33.04" stroke="#979797" cx="152.21"/>
<circle r="21.908" cy="33.04" stroke="#969696" cx="152.21"/>
<circle r="21.885" cy="33.041" stroke="#959595" cx="152.21"/>
<circle r="21.863" cy="33.041" stroke="#949494" cx="152.21"/>
<circle r="21.84" cy="33.041" stroke="#939393" cx="152.21"/>
<circle r="21.817" cy="33.04" stroke="#929292" cx="152.21"/>
<circle r="21.795" cy="33.041" stroke="#919191" cx="152.21"/>
<circle r="21.772" cy="33.041" stroke="#909090" cx="152.21"/>
<circle r="21.75" cy="33.041" stroke="#8F8F8F" cx="152.21"/>
<circle r="21.727" cy="33.04" stroke="#8E8E8E" cx="152.21"/>
<circle r="21.704" cy="33.041" stroke="#8D8D8D" cx="152.21"/>
<circle r="21.682" cy="33.041" stroke="#8C8C8C" cx="152.21"/>
<circle r="21.659" cy="33.041" stroke="#8B8B8B" cx="152.21"/>
<circle r="21.636" cy="33.04" stroke="#8A8A8A" cx="152.21"/>
<circle r="21.614" cy="33.041" stroke="#898989" cx="152.21"/>
<circle r="21.591" cy="33.041" stroke="#888" cx="152.21"/>
<circle r="21.569" cy="33.041" stroke="#878787" cx="152.21"/>
<circle r="21.546" cy="33.041" stroke="#868686" cx="152.21"/>
<circle r="21.523" cy="33.04" stroke="#858585" cx="152.21"/>
<circle r="21.501" cy="33.041" stroke="#848484" cx="152.21"/>
<circle r="21.478" cy="33.041" stroke="#838383" cx="152.21"/>
<circle r="21.455" cy="33.041" stroke="#828282" cx="152.21"/>
<circle r="21.433" cy="33.04" stroke="#818181" cx="152.21"/>
<circle r="21.41" cy="33.041" stroke="#808080" cx="152.21"/>
<circle r="21.387" cy="33.041" stroke="#7F7F7F" cx="152.21"/>
<circle r="21.365" cy="33.041" stroke="#7E7E7E" cx="152.21"/>
<circle r="21.342" cy="33.04" stroke="#7D7D7D" cx="152.21"/>
<circle r="21.32" cy="33.041" stroke="#7C7C7C" cx="152.21"/>
<circle r="21.297" cy="33.041" stroke="#7B7B7B" cx="152.21"/>
<circle r="21.274" cy="33.04" stroke="#7A7A7A" cx="152.21"/>
<circle r="21.252" cy="33.041" stroke="#797979" cx="152.21"/>
<circle r="21.229" cy="33.041" stroke="#787878" cx="152.21"/>
<circle r="21.207" cy="33.041" stroke="#777" cx="152.21"/>
<circle r="21.184" cy="33.04" stroke="#767676" cx="152.21"/>
<circle r="21.162" cy="33.041" stroke="#757575" cx="152.21"/>
<circle r="21.139" cy="33.041" stroke="#747474" cx="152.21"/>
<circle r="21.116" cy="33.041" stroke="#737373" cx="152.21"/>
<circle r="21.094" cy="33.04" stroke="#727272" cx="152.21"/>
<circle r="21.071" cy="33.041" stroke="#717171" cx="152.21"/>
<circle r="21.048" cy="33.041" stroke="#707070" cx="152.21"/>
<circle r="21.026" cy="33.04" stroke="#6F6F6F" cx="152.21"/>
<circle r="21.003" cy="33.04" stroke="#6E6E6E" cx="152.21"/>
<circle r="20.98" cy="33.041" stroke="#6D6D6D" cx="152.21"/>
<circle r="20.958" cy="33.041" stroke="#6C6C6C" cx="152.21"/>
<circle r="20.935" cy="33.04" stroke="#6B6B6B" cx="152.21"/>
<circle r="20.913" cy="33.04" stroke="#6A6A6A" cx="152.21"/>
<circle r="20.89" cy="33.041" stroke="#696969" cx="152.21"/>
<circle r="20.867" cy="33.041" stroke="#686868" cx="152.21"/>
<circle r="20.844" cy="33.04" stroke="#676767" cx="152.21"/>
<circle r="20.822" cy="33.04" stroke="#666" cx="152.21"/>
<circle r="20.799" cy="33.041" stroke="#656565" cx="152.21"/>
<circle r="20.777" cy="33.041" stroke="#646464" cx="152.21"/>
<circle r="20.754" cy="33.041" stroke="#636363" cx="152.21"/>
<circle r="20.731" cy="33.04" stroke="#626262" cx="152.21"/>
<circle r="20.709" cy="33.041" stroke="#616161" cx="152.21"/>
<circle r="20.686" cy="33.041" stroke="#606060" cx="152.21"/>
<circle r="20.664" cy="33.041" stroke="#5F5F5F" cx="152.21"/>
<circle r="20.641" cy="33.04" stroke="#5E5E5E" cx="152.21"/>
<circle r="20.619" cy="33.041" stroke="#5D5D5D" cx="152.21"/>
<circle r="20.596" cy="33.041" stroke="#5C5C5C" cx="152.21"/>
<circle r="20.573" cy="33.041" stroke="#5B5B5B" cx="152.21"/>
<circle r="20.551" cy="33.04" stroke="#5A5A5A" cx="152.21"/>
<circle r="20.528" cy="33.041" stroke="#595959" cx="152.21"/>
<circle r="20.505" cy="33.041" stroke="#585858" cx="152.21"/>
<circle r="20.483" cy="33.041" stroke="#575757" cx="152.21"/>
<circle r="20.46" cy="33.04" stroke="#565656" cx="152.21"/>
<circle r="20.437" cy="33.041" stroke="#555" cx="152.21"/>
<circle r="20.415" cy="33.041" stroke="#545454" cx="152.21"/>
<circle r="20.392" cy="33.041" stroke="#535353" cx="152.21"/>
<circle r="20.37" cy="33.04" stroke="#525252" cx="152.21"/>
<circle r="20.347" cy="33.041" stroke="#515151" cx="152.21"/>
<circle r="20.324" cy="33.041" stroke="#505050" cx="152.21"/>
<circle r="20.302" cy="33.041" stroke="#4F4F4F" cx="152.21"/>
<circle r="20.279" cy="33.04" stroke="#4E4E4E" cx="152.21"/>
<circle r="20.256" cy="33.041" stroke="#4D4D4D" cx="152.21"/>
<circle r="20.234" cy="33.041" stroke="#4C4C4C" cx="152.21"/>
<circle r="20.211" cy="33.041" stroke="#4B4B4B" cx="152.21"/>
<circle r="20.188" cy="33.04" stroke="#4A4A4A" cx="152.21"/>
<circle r="20.166" cy="33.041" stroke="#494949" cx="152.21"/>
<circle r="20.143" cy="33.041" stroke="#484848" cx="152.21"/>
<circle r="20.121" cy="33.041" stroke="#474747" cx="152.21"/>
<circle r="20.098" cy="33.04" stroke="#464646" cx="152.21"/>
<circle r="20.075" cy="33.041" stroke="#454545" cx="152.21"/>
<circle r="20.053" cy="33.041" stroke="#444" cx="152.21"/>
<circle r="20.03" cy="33.041" stroke="#434343" cx="152.21"/>
<circle r="20.008" cy="33.041" stroke="#424242" cx="152.21"/>
<circle r="19.985" cy="33.04" stroke="#414141" cx="152.21"/>
<circle r="19.962" cy="33.041" stroke="#404040" cx="152.21"/>
<circle r="19.94" cy="33.041" stroke="#3F3F3F" cx="152.21"/>
<circle r="19.917" cy="33.041" stroke="#3E3E3E" cx="152.21"/>
<circle r="19.894" cy="33.04" stroke="#3D3D3D" cx="152.21"/>
<circle r="19.872" cy="33.041" stroke="#3C3C3C" cx="152.21"/>
<circle r="19.849" cy="33.041" stroke="#3B3B3B" cx="152.21"/>
<circle r="19.827" cy="33.041" stroke="#3A3A3A" cx="152.21"/>
<circle r="19.804" cy="33.04" stroke="#393939" cx="152.21"/>
<circle r="19.781" cy="33.041" stroke="#383838" cx="152.21"/>
<circle r="19.759" cy="33.041" stroke="#373737" cx="152.21"/>
<circle r="19.736" cy="33.041" stroke="#363636" cx="152.21"/>
<circle r="19.713" cy="33.04" stroke="#353535" cx="152.21"/>
<circle r="19.691" cy="33.041" stroke="#343434" cx="152.21"/>
<circle r="19.668" cy="33.041" stroke="#333" cx="152.21"/>
<circle r="19.646" cy="33.041" stroke="#323232" cx="152.21"/>
<circle r="19.623" cy="33.04" stroke="#313131" cx="152.21"/>
<circle r="19.6" cy="33.041" stroke="#303030" cx="152.21"/>
<circle r="19.578" cy="33.041" stroke="#2F2F2F" cx="152.21"/>
<circle r="19.555" cy="33.041" stroke="#2E2E2E" cx="152.21"/>
<circle r="19.533" cy="33.041" stroke="#2D2D2D" cx="152.21"/>
<circle r="19.51" cy="33.04" stroke="#2C2C2C" cx="152.21"/>
<circle r="19.487" cy="33.041" stroke="#2B2B2B" cx="152.21"/>
<circle r="19.465" cy="33.041" stroke="#2A2A2A" cx="152.21"/>
<circle r="19.442" cy="33.041" stroke="#292929" cx="152.21"/>
<circle r="19.419" cy="33.04" stroke="#282828" cx="152.21"/>
<circle r="19.397" cy="33.041" stroke="#272727" cx="152.21"/>
<circle r="19.374" cy="33.041" stroke="#262626" cx="152.21"/>
<circle r="19.352" cy="33.041" stroke="#252525" cx="152.21"/>
<circle r="19.329" cy="33.04" stroke="#242424" cx="152.21"/>
<circle r="19.306" cy="33.041" stroke="#232323" cx="152.21"/>
<circle r="19.283" cy="33.041" stroke="#222" cx="152.21"/>
<circle r="19.261" cy="33.041" stroke="#212121" cx="152.21"/>
<circle r="19.238" cy="33.041" stroke="#202020" cx="152.21"/>
<circle r="19.216" cy="33.041" stroke="#1F1F1F" cx="152.21"/>
<circle r="19.193" cy="33.041" stroke="#1E1E1E" cx="152.21"/>
<circle r="19.17" cy="33.041" stroke="#1D1D1D" cx="152.21"/>
<circle r="19.148" cy="33.041" stroke="#1C1C1C" cx="152.21"/>
<circle r="19.125" cy="33.041" stroke="#1B1B1B" cx="152.21"/>
<circle r="19.103" cy="33.041" stroke="#1A1A1A" cx="152.21"/>
<circle r="19.08" cy="33.041" stroke="#191919" cx="152.21"/>
<circle r="19.057" cy="33.041" stroke="#181818" cx="152.21"/>
<circle r="19.035" cy="33.041" stroke="#171717" cx="152.21"/>
<circle r="19.012" cy="33.041" stroke="#161616" cx="152.21"/>
<circle r="18.99" cy="33.041" stroke="#151515" cx="152.21"/>
<circle r="18.967" cy="33.041" stroke="#141414" cx="152.21"/>
<circle r="18.944" cy="33.04" stroke="#131313" cx="152.21"/>
<circle r="18.922" cy="33.041" stroke="#121212" cx="152.21"/>
<circle r="18.899" cy="33.041" stroke="#111" cx="152.21"/>
<circle r="18.876" cy="33.041" stroke="#101010" cx="152.21"/>
<circle r="18.854" cy="33.041" stroke="#0F0F0F" cx="152.21"/>
<circle r="18.831" cy="33.041" stroke="#0E0E0E" cx="152.21"/>
<circle r="18.808" cy="33.041" stroke="#0D0D0D" cx="152.21"/>
<circle r="18.786" cy="33.041" stroke="#0C0C0C" cx="152.21"/>
<circle r="18.763" cy="33.041" stroke="#0B0B0B" cx="152.21"/>
<circle r="18.74" cy="33.041" stroke="#0A0A0A" cx="152.21"/>
<circle r="18.718" cy="33.041" stroke="#090909" cx="152.21"/>
<circle r="18.696" cy="33.041" stroke="#080808" cx="152.21"/>
<circle r="18.673" cy="33.041" stroke="#070707" cx="152.21"/>
<circle r="18.65" cy="33.041" stroke="#060606" cx="152.21"/>
<circle r="18.628" cy="33.041" stroke="#050505" cx="152.21"/>
<circle r="18.605" cy="33.041" stroke="#040404" cx="152.21"/>
<circle r="18.582" cy="33.041" stroke="#030303" cx="152.21"/>
<circle r="18.56" cy="33.041" stroke="#020202" cx="152.21"/>
<circle r="18.537" cy="33.041" stroke="#010101" cx="152.21"/>
<circle r="18.514" cy="33.041" stroke="#000" cx="152.21"/>
<circle r="18.522" cy="33.039" stroke="#010101" cx="152.21"/>
<circle r="18.53" cy="33.038" stroke="#020202" cx="152.21"/>
<circle r="18.538" cy="33.038" stroke="#030303" cx="152.21"/>
<circle r="18.546" cy="33.036" stroke="#040404" cx="152.21"/>
<circle r="18.554" cy="33.035" stroke="#050505" cx="152.21"/>
<circle r="18.562" cy="33.034" stroke="#060606" cx="152.22"/>
<circle r="18.57" cy="33.033" stroke="#070707" cx="152.22"/>
<circle r="18.578" cy="33.031" stroke="#080808" cx="152.22"/>
<circle r="18.586" cy="33.031" stroke="#090909" cx="152.22"/>
<circle r="18.594" cy="33.029" stroke="#0A0A0A" cx="152.22"/>
<circle r="18.602" cy="33.028" stroke="#0B0B0B" cx="152.22"/>
<circle r="18.61" cy="33.027" stroke="#0C0C0C" cx="152.22"/>
<circle r="18.618" cy="33.026" stroke="#0D0D0D" cx="152.22"/>
<circle r="18.625" cy="33.024" stroke="#0E0E0E" cx="152.22"/>
<circle r="18.633" cy="33.023" stroke="#0F0F0F" cx="152.22"/>
<circle r="18.641" cy="33.022" stroke="#101010" cx="152.23"/>
<circle r="18.649" cy="33.021" stroke="#111" cx="152.23"/>
<circle r="18.657" cy="33.02" stroke="#121212" cx="152.23"/>
<circle r="18.665" cy="33.019" stroke="#131313" cx="152.23"/>
<circle r="18.673" cy="33.018" stroke="#141414" cx="152.23"/>
<circle r="18.681" cy="33.017" stroke="#151515" cx="152.23"/>
<circle r="18.689" cy="33.016" stroke="#161616" cx="152.23"/>
<circle r="18.697" cy="33.015" stroke="#171717" cx="152.23"/>
<circle r="18.705" cy="33.013" stroke="#181818" cx="152.24"/>
<circle r="18.713" cy="33.012" stroke="#191919" cx="152.24"/>
<circle r="18.721" cy="33.011" stroke="#1A1A1A" cx="152.24"/>
<circle r="18.729" cy="33.01" stroke="#1B1B1B" cx="152.24"/>
<circle r="18.737" cy="33.009" stroke="#1C1C1C" cx="152.24"/>
<circle r="18.745" cy="33.008" stroke="#1D1D1D" cx="152.24"/>
<circle r="18.753" cy="33.007" stroke="#1E1E1E" cx="152.24"/>
<circle r="18.761" cy="33.005" stroke="#1F1F1F" cx="152.24"/>
<circle r="18.768" cy="33.004" stroke="#202020" cx="152.24"/>
<circle r="18.776" cy="33.003" stroke="#212121" cx="152.24"/>
<circle r="18.784" cy="33.002" stroke="#222" cx="152.25"/>
<circle r="18.792" cy="33.001" stroke="#232323" cx="152.25"/>
<circle r="18.8" cy="33" stroke="#242424" cx="152.25"/>
<circle r="18.808" cy="32.999" stroke="#252525" cx="152.25"/>
<circle r="18.816" cy="32.998" stroke="#262626" cx="152.25"/>
<circle r="18.824" cy="32.996" stroke="#272727" cx="152.25"/>
<circle r="18.832" cy="32.996" stroke="#282828" cx="152.25"/>
<circle r="18.84" cy="32.994" stroke="#292929" cx="152.25"/>
<circle r="18.848" cy="32.993" stroke="#2A2A2A" cx="152.26"/>
<circle r="18.856" cy="32.992" stroke="#2B2B2B" cx="152.26"/>
<circle r="18.864" cy="32.991" stroke="#2C2C2C" cx="152.26"/>
<circle r="18.872" cy="32.989" stroke="#2D2D2D" cx="152.26"/>
<circle r="18.88" cy="32.989" stroke="#2E2E2E" cx="152.26"/>
<circle r="18.887" cy="32.987" stroke="#2F2F2F" cx="152.26"/>
<circle r="18.895" cy="32.986" stroke="#303030" cx="152.26"/>
<circle r="18.904" cy="32.985" stroke="#313131" cx="152.26"/>
<circle r="18.911" cy="32.984" stroke="#323232" cx="152.26"/>
<circle r="18.919" cy="32.982" stroke="#333" cx="152.27"/>
<circle r="18.927" cy="32.982" stroke="#343434" cx="152.27"/>
<circle r="18.935" cy="32.98" stroke="#353535" cx="152.27"/>
<circle r="18.943" cy="32.979" stroke="#363636" cx="152.27"/>
<circle r="18.951" cy="32.979" stroke="#373737" cx="152.27"/>
<circle r="18.959" cy="32.977" stroke="#383838" cx="152.27"/>
<circle r="18.967" cy="32.976" stroke="#393939" cx="152.27"/>
<circle r="18.975" cy="32.975" stroke="#3A3A3A" cx="152.27"/>
<circle r="18.983" cy="32.974" stroke="#3B3B3B" cx="152.27"/>
<circle r="18.991" cy="32.973" stroke="#3C3C3C" cx="152.28"/>
<circle r="18.999" cy="32.972" stroke="#3D3D3D" cx="152.28"/>
<circle r="19.007" cy="32.97" stroke="#3E3E3E" cx="152.28"/>
<circle r="19.015" cy="32.969" stroke="#3F3F3F" cx="152.28"/>
<circle r="19.022" cy="32.968" stroke="#404040" cx="152.28"/>
<circle r="19.031" cy="32.967" stroke="#414141" cx="152.28"/>
<circle r="19.039" cy="32.966" stroke="#424242" cx="152.28"/>
<circle r="19.046" cy="32.965" stroke="#434343" cx="152.28"/>
<circle r="19.054" cy="32.963" stroke="#444" cx="152.28"/>
<circle r="19.062" cy="32.962" stroke="#454545" cx="152.29"/>
<circle r="19.07" cy="32.961" stroke="#464646" cx="152.29"/>
<circle r="19.078" cy="32.96" stroke="#474747" cx="152.29"/>
<circle r="19.086" cy="32.959" stroke="#484848" cx="152.29"/>
<circle r="19.094" cy="32.958" stroke="#494949" cx="152.29"/>
<circle r="19.102" cy="32.957" stroke="#4A4A4A" cx="152.29"/>
<circle r="19.11" cy="32.956" stroke="#4B4B4B" cx="152.29"/>
<circle r="19.118" cy="32.955" stroke="#4C4C4C" cx="152.29"/>
<circle r="19.125" cy="32.954" stroke="#4D4D4D" cx="152.3"/>
<circle r="19.134" cy="32.952" stroke="#4E4E4E" cx="152.3"/>
<circle r="19.142" cy="32.951" stroke="#4F4F4F" cx="152.3"/>
<circle r="19.149" cy="32.95" stroke="#505050" cx="152.3"/>
<circle r="19.157" cy="32.949" stroke="#515151" cx="152.3"/>
<circle r="19.165" cy="32.948" stroke="#525252" cx="152.3"/>
<circle r="19.173" cy="32.947" stroke="#535353" cx="152.3"/>
<circle r="19.181" cy="32.945" stroke="#545454" cx="152.3"/>
<circle r="19.189" cy="32.944" stroke="#555" cx="152.3"/>
<circle r="19.197" cy="32.943" stroke="#565656" cx="152.3"/>
<circle r="19.205" cy="32.942" stroke="#575757" cx="152.31"/>
<circle r="19.213" cy="32.941" stroke="#585858" cx="152.31"/>
<circle r="19.221" cy="32.94" stroke="#595959" cx="152.31"/>
<circle r="19.229" cy="32.938" stroke="#5A5A5A" cx="152.31"/>
<circle r="19.237" cy="32.938" stroke="#5B5B5B" cx="152.31"/>
<circle r="19.245" cy="32.937" stroke="#5C5C5C" cx="152.31"/>
<circle r="19.253" cy="32.935" stroke="#5D5D5D" cx="152.31"/>
<circle r="19.261" cy="32.934" stroke="#5E5E5E" cx="152.31"/>
<circle r="19.269" cy="32.933" stroke="#5F5F5F" cx="152.32"/>
<circle r="19.276" cy="32.932" stroke="#606060" cx="152.32"/>
<circle r="19.284" cy="32.931" stroke="#616161" cx="152.32"/>
<circle r="19.292" cy="32.93" stroke="#626262" cx="152.32"/>
<circle r="19.3" cy="32.928" stroke="#636363" cx="152.32"/>
<circle r="19.308" cy="32.927" stroke="#646464" cx="152.32"/>
<circle r="19.316" cy="32.927" stroke="#656565" cx="152.32"/>
<circle r="19.324" cy="32.925" stroke="#666" cx="152.32"/>
<circle r="19.332" cy="32.924" stroke="#676767" cx="152.32"/>
<circle r="19.34" cy="32.923" stroke="#686868" cx="152.33"/>
<circle r="19.348" cy="32.922" stroke="#696969" cx="152.33"/>
<circle r="19.356" cy="32.92" stroke="#6A6A6A" cx="152.33"/>
<circle r="19.364" cy="32.92" stroke="#6B6B6B" cx="152.33"/>
<circle r="19.372" cy="32.918" stroke="#6C6C6C" cx="152.33"/>
<circle r="19.38" cy="32.917" stroke="#6D6D6D" cx="152.33"/>
<circle r="19.388" cy="32.916" stroke="#6E6E6E" cx="152.33"/>
<circle r="19.396" cy="32.915" stroke="#6F6F6F" cx="152.33"/>
<circle r="19.403" cy="32.914" stroke="#707070" cx="152.34"/>
<circle r="19.412" cy="32.913" stroke="#717171" cx="152.34"/>
<circle r="19.42" cy="32.912" stroke="#727272" cx="152.34"/>
<circle r="19.427" cy="32.91" stroke="#737373" cx="152.34"/>
<circle r="19.436" cy="32.909" stroke="#747474" cx="152.34"/>
<circle r="19.443" cy="32.908" stroke="#757575" cx="152.34"/>
<circle r="19.451" cy="32.907" stroke="#767676" cx="152.34"/>
<circle r="19.459" cy="32.906" stroke="#777" cx="152.34"/>
<circle r="19.467" cy="32.905" stroke="#787878" cx="152.34"/>
<circle r="19.475" cy="32.903" stroke="#797979" cx="152.34"/>
<circle r="19.483" cy="32.902" stroke="#7A7A7A" cx="152.35"/>
<circle r="19.491" cy="32.901" stroke="#7B7B7B" cx="152.35"/>
<circle r="19.499" cy="32.9" stroke="#7C7C7C" cx="152.35"/>
<circle r="19.507" cy="32.899" stroke="#7D7D7D" cx="152.35"/>
<circle r="19.515" cy="32.898" stroke="#7E7E7E" cx="152.35"/>
<circle r="19.522" cy="32.896" stroke="#7F7F7F" cx="152.35"/>
<circle r="19.531" cy="32.896" stroke="#808080" cx="152.35"/>
<circle r="19.539" cy="32.895" stroke="#818181" cx="152.35"/>
<circle r="19.547" cy="32.894" stroke="#828282" cx="152.36"/>
<circle r="19.554" cy="32.893" stroke="#838383" cx="152.36"/>
<circle r="19.562" cy="32.891" stroke="#848484" cx="152.36"/>
<circle r="19.57" cy="32.89" stroke="#858585" cx="152.36"/>
<circle r="19.578" cy="32.889" stroke="#868686" cx="152.36"/>
<circle r="19.586" cy="32.888" stroke="#878787" cx="152.36"/>
<circle r="19.594" cy="32.887" stroke="#888" cx="152.36"/>
<circle r="19.602" cy="32.886" stroke="#898989" cx="152.36"/>
<circle r="19.61" cy="32.884" stroke="#8A8A8A" cx="152.36"/>
<circle r="19.618" cy="32.883" stroke="#8B8B8B" cx="152.36"/>
<circle r="19.626" cy="32.882" stroke="#8C8C8C" cx="152.37"/>
<circle r="19.634" cy="32.881" stroke="#8D8D8D" cx="152.37"/>
<circle r="19.642" cy="32.88" stroke="#8E8E8E" cx="152.37"/>
<circle r="19.649" cy="32.879" stroke="#8F8F8F" cx="152.37"/>
<circle r="19.658" cy="32.878" stroke="#909090" cx="152.37"/>
<circle r="19.666" cy="32.876" stroke="#919191" cx="152.37"/>
<circle r="19.673" cy="32.875" stroke="#929292" cx="152.37"/>
<circle r="19.682" cy="32.874" stroke="#939393" cx="152.37"/>
<circle r="19.689" cy="32.873" stroke="#949494" cx="152.38"/>
<circle r="19.697" cy="32.872" stroke="#959595" cx="152.38"/>
<circle r="19.705" cy="32.871" stroke="#969696" cx="152.38"/>
<circle r="19.713" cy="32.87" stroke="#979797" cx="152.38"/>
<circle r="19.721" cy="32.869" stroke="#989898" cx="152.38"/>
<circle r="19.729" cy="32.867" stroke="#999" cx="152.38"/>
<circle r="19.737" cy="32.866" stroke="#9A9A9A" cx="152.38"/>
<circle r="19.745" cy="32.865" stroke="#9B9B9B" cx="152.38"/>
<circle r="19.753" cy="32.864" stroke="#9C9C9C" cx="152.38"/>
<circle r="19.761" cy="32.863" stroke="#9D9D9D" cx="152.39"/>
<circle r="19.769" cy="32.862" stroke="#9E9E9E" cx="152.39"/>
<circle r="19.777" cy="32.86" stroke="#9F9F9F" cx="152.39"/>
<circle r="19.785" cy="32.859" stroke="#A0A0A0" cx="152.39"/>
<circle r="19.792" cy="32.858" stroke="#A1A1A1" cx="152.39"/>
<circle r="19.801" cy="32.857" stroke="#A2A2A2" cx="152.39"/>
<circle r="19.809" cy="32.856" stroke="#A3A3A3" cx="152.39"/>
<circle r="19.816" cy="32.855" stroke="#A4A4A4" cx="152.39"/>
<circle r="19.824" cy="32.854" stroke="#A5A5A5" cx="152.4"/>
<circle r="19.832" cy="32.853" stroke="#A6A6A6" cx="152.4"/>
<circle r="19.84" cy="32.852" stroke="#A7A7A7" cx="152.4"/>
<circle r="19.848" cy="32.851" stroke="#A8A8A8" cx="152.4"/>
<circle r="19.856" cy="32.849" stroke="#A9A9A9" cx="152.4"/>
<circle r="19.864" cy="32.848" stroke="#AAA" cx="152.4"/>
<circle r="19.872" cy="32.847" stroke="#ABABAB" cx="152.4"/>
<circle r="19.88" cy="32.846" stroke="#ACACAC" cx="152.4"/>
<circle r="19.888" cy="32.845" stroke="#ADADAD" cx="152.4"/>
<circle r="19.896" cy="32.844" stroke="#AEAEAE" cx="152.4"/>
<circle r="19.904" cy="32.843" stroke="#AFAFAF" cx="152.41"/>
<circle r="19.912" cy="32.841" stroke="#B0B0B0" cx="152.41"/>
<circle r="19.92" cy="32.84" stroke="#B1B1B1" cx="152.41"/>
<circle r="19.927" cy="32.839" stroke="#B2B2B2" cx="152.41"/>
<circle r="19.935" cy="32.838" stroke="#B3B3B3" cx="152.41"/>
<circle r="19.944" cy="32.837" stroke="#B4B4B4" cx="152.41"/>
<circle r="19.951" cy="32.836" stroke="#B5B5B5" cx="152.41"/>
<circle r="19.959" cy="32.834" stroke="#B6B6B6" cx="152.41"/>
<circle r="19.968" cy="32.833" stroke="#B7B7B7" cx="152.42"/>
<circle r="19.975" cy="32.832" stroke="#B8B8B8" cx="152.42"/>
<circle r="19.983" cy="32.831" stroke="#B9B9B9" cx="152.42"/>
<circle r="19.991" cy="32.83" stroke="#BABABA" cx="152.42"/>
<circle r="19.999" cy="32.829" stroke="#BBB" cx="152.42"/>
<circle r="20.007" cy="32.828" stroke="#BCBCBC" cx="152.42"/>
<circle r="20.015" cy="32.827" stroke="#BDBDBD" cx="152.42"/>
<circle r="20.023" cy="32.825" stroke="#BEBEBE" cx="152.42"/>
<circle r="20.031" cy="32.824" stroke="#BFBFBF" cx="152.42"/>
<circle r="20.039" cy="32.823" stroke="#C0C0C0" cx="152.42"/>
<circle r="20.047" cy="32.822" stroke="#C1C1C1" cx="152.43"/>
<circle r="20.055" cy="32.821" stroke="#C2C2C2" cx="152.43"/>
<circle r="20.062" cy="32.82" stroke="#C3C3C3" cx="152.43"/>
<circle r="20.07" cy="32.818" stroke="#C4C4C4" cx="152.43"/>
<circle r="20.079" cy="32.817" stroke="#C5C5C5" cx="152.43"/>
<circle r="20.086" cy="32.816" stroke="#C6C6C6" cx="152.43"/>
<circle r="20.094" cy="32.815" stroke="#C7C7C7" cx="152.43"/>
<circle r="20.102" cy="32.814" stroke="#C8C8C8" cx="152.43"/>
<circle r="20.11" cy="32.813" stroke="#C9C9C9" cx="152.44"/>
<circle r="20.118" cy="32.812" stroke="#CACACA" cx="152.44"/>
<circle r="20.126" cy="32.811" stroke="#CBCBCB" cx="152.44"/>
<circle r="20.134" cy="32.81" stroke="#CCC" cx="152.44"/>
<circle r="20.142" cy="32.809" stroke="#CDCDCD" cx="152.44"/>
<circle r="20.15" cy="32.808" stroke="#CECECE" cx="152.44"/>
<circle r="20.157" cy="32.806" stroke="#CFCFCF" cx="152.44"/>
<circle r="20.166" cy="32.805" stroke="#D0D0D0" cx="152.44"/>
<circle r="20.174" cy="32.804" stroke="#D1D1D1" cx="152.44"/>
<circle r="20.181" cy="32.803" stroke="#D2D2D2" cx="152.45"/>
<circle r="20.189" cy="32.802" stroke="#D3D3D3" cx="152.45"/>
<circle r="20.198" cy="32.801" stroke="#D4D4D4" cx="152.45"/>
<circle r="20.205" cy="32.799" stroke="#D5D5D5" cx="152.45"/>
<circle r="20.213" cy="32.798" stroke="#D6D6D6" cx="152.45"/>
<circle r="20.221" cy="32.797" stroke="#D7D7D7" cx="152.45"/>
<circle r="20.229" cy="32.796" stroke="#D8D8D8" cx="152.45"/>
<circle r="20.237" cy="32.795" stroke="#D9D9D9" cx="152.45"/>
<circle r="20.245" cy="32.794" stroke="#DADADA" cx="152.46"/>
<circle r="20.253" cy="32.792" stroke="#DBDBDB" cx="152.46"/>
<circle r="20.261" cy="32.792" stroke="#DCDCDC" cx="152.46"/>
<circle r="20.269" cy="32.79" stroke="#DDD" cx="152.46"/>
<circle r="20.277" cy="32.789" stroke="#DEDEDE" cx="152.46"/>
<circle r="20.285" cy="32.788" stroke="#DFDFDF" cx="152.46"/>
<circle r="20.293" cy="32.787" stroke="#E0E0E0" cx="152.46"/>
<circle r="20.301" cy="32.786" stroke="#E1E1E1" cx="152.46"/>
<circle r="20.309" cy="32.785" stroke="#E2E2E2" cx="152.46"/>
<circle r="20.316" cy="32.784" stroke="#E3E3E3" cx="152.46"/>
<circle r="20.324" cy="32.782" stroke="#E4E4E4" cx="152.47"/>
<circle r="20.333" cy="32.782" stroke="#E5E5E5" cx="152.47"/>
<circle r="20.34" cy="32.78" stroke="#E6E6E6" cx="152.47"/>
<circle r="20.348" cy="32.779" stroke="#E7E7E7" cx="152.47"/>
<circle r="20.356" cy="32.778" stroke="#E8E8E8" cx="152.47"/>
<circle r="20.364" cy="32.777" stroke="#E9E9E9" cx="152.47"/>
<circle r="20.372" cy="32.775" stroke="#EAEAEA" cx="152.47"/>
<circle r="20.38" cy="32.775" stroke="#EBEBEB" cx="152.47"/>
<circle r="20.388" cy="32.773" stroke="#ECECEC" cx="152.48"/>
<circle r="20.396" cy="32.772" stroke="#EDEDED" cx="152.48"/>
<circle r="20.404" cy="32.771" stroke="#EEE" cx="152.48"/>
<circle r="20.412" cy="32.77" stroke="#EFEFEF" cx="152.48"/>
<circle r="20.42" cy="32.769" stroke="#F0F0F0" cx="152.48"/>
<circle r="20.428" cy="32.768" stroke="#F1F1F1" cx="152.48"/>
<circle r="20.436" cy="32.767" stroke="#F2F2F2" cx="152.48"/>
<circle r="20.444" cy="32.766" stroke="#F3F3F3" cx="152.48"/>
<circle r="20.451" cy="32.764" stroke="#F4F4F4" cx="152.48"/>
<circle r="20.459" cy="32.763" stroke="#F5F5F5" cx="152.49"/>
<circle r="20.467" cy="32.762" stroke="#F6F6F6" cx="152.49"/>
<circle r="20.475" cy="32.761" stroke="#F7F7F7" cx="152.49"/>
<circle r="20.483" cy="32.76" stroke="#F8F8F8" cx="152.49"/>
<circle r="20.491" cy="32.759" stroke="#F9F9F9" cx="152.49"/>
<circle r="20.499" cy="32.757" stroke="#FAFAFA" cx="152.49"/>
<circle r="20.507" cy="32.756" stroke="#FBFBFB" cx="152.49"/>
<circle r="20.515" cy="32.755" stroke="#FCFCFC" cx="152.49"/>
<circle r="20.523" cy="32.754" stroke="#FDFDFD" cx="152.5"/>
<circle r="20.531" cy="32.753" stroke="#FEFEFE" cx="152.5"/>
<circle r="20.539" cy="32.752" stroke="#FFF" cx="152.5"/>
</g>
<radialGradient id="SVGID_1_" gradientUnits="userSpaceOnUse" cy="121.15" cx="170.65" gradientTransform="matrix(1.8609 0 0 1.8609 -164.4307 -177.5255)" r="9.8491">
<stop stop-color="#FFF" offset="0"/>
<stop stop-color="#E7B400" offset="1"/>
</radialGradient>
<path d="M172.92,74.72c1.281,6.469-2.924,12.752-9.394,14.034-6.468,1.281-12.752-2.925-14.033-9.395l-4.037-20.383c-1.282-6.469,2.924-12.752,9.393-14.033,6.47-1.282,12.753,2.924,14.034,9.393l4.04,20.384z" fill="url(#SVGID_1_)"/>
<g>
<linearGradient id="SVGID_2_" y2="461.77" gradientUnits="userSpaceOnUse" x2="309.58" y1="75.828" x1="113.51">
<stop stop-color="#E9F1F2" offset="0"/>
<stop stop-color="#1E88BC" offset="0.5"/>
<stop stop-color="#161B88" offset="1"/>
</linearGradient>
<circle cy="227.94" cx="190.79" r="172.33" fill="url(#SVGID_2_)"/>
</g>
<g>
<linearGradient id="SVGID_3_" y2="56.608" gradientUnits="userSpaceOnUse" x2="190.05" y1="428.79" x1="190.05">
<stop stop-color="#B98B00" offset="0"/>
<stop stop-color="#D09000" offset="1"/>
</linearGradient>
<circle cy="228.44" cx="190.05" r="172.83" fill="url(#SVGID_3_)"/>
</g>
<g>
<defs>
<filter id="Adobe_OpacityMaskFilter" height="301.469" width="301.471" y="73.36" x="44.893" filterUnits="userSpaceOnUse">
<feFlood result="back" flood-color="white" flood-opacity="1"/>
<feBlend mode="normal" in2="back" in="SourceGraphic"/>
</filter>
</defs>
<mask id="SVGID_4_" height="301.469" width="301.471" y="73.36" x="44.893" maskUnits="userSpaceOnUse">
<g filter="url(#Adobe_OpacityMaskFilter)">
</g>
</mask>
<g mask="url(#SVGID_4_)">
<circle cy="224.1" cx="195.63" r="150.74" fill="#FFF"/>
</g>
</g>
<g>
<defs>
<filter id="Adobe_OpacityMaskFilter_1_" height="275.884" width="275.885" y="88.247" x="55.593" filterUnits="userSpaceOnUse">
<feFlood result="back" flood-color="white" flood-opacity="1"/>
<feBlend mode="normal" in2="back" in="SourceGraphic"/>
</filter>
</defs>
<mask id="SVGID_5_" height="275.884" width="275.885" y="88.247" x="55.593" maskUnits="userSpaceOnUse">
<g filter="url(#Adobe_OpacityMaskFilter_1_)">
</g>
</mask>
<g mask="url(#SVGID_5_)">
<linearGradient id="SVGID_6_" y2="52.576" gradientUnits="userSpaceOnUse" x2="193.54" y1="288.92" x1="193.54">
<stop stop-color="#FFF" offset="0"/>
<stop stop-color="#4D4D4D" offset="1"/>
</linearGradient>
<circle cy="226.19" cx="193.54" r="137.94" fill="url(#SVGID_6_)"/>
</g>
</g>
<g>
<defs>
<filter id="Adobe_OpacityMaskFilter_2_" height="310.776" width="310.778" y="71.499" x="35.588" filterUnits="userSpaceOnUse">
<feFlood result="back" flood-color="white" flood-opacity="1"/>
<feBlend mode="normal" in2="back" in="SourceGraphic"/>
</filter>
</defs>
<mask id="SVGID_7_" height="310.776" width="310.778" y="71.499" x="35.588" maskUnits="userSpaceOnUse">
<g filter="url(#Adobe_OpacityMaskFilter_2_)">
</g>
</mask>
<g mask="url(#SVGID_7_)">
<linearGradient id="SVGID_8_" y2="31.316" gradientUnits="userSpaceOnUse" x2="190.98" y1="297.56" x1="190.98">
<stop stop-color="#FFF" offset="0"/>
<stop stop-color="#D09000" offset="1"/>
</linearGradient>
<circle cy="226.89" cx="190.98" r="155.39" fill="url(#SVGID_8_)"/>
</g>
</g>
<g>
<defs>
<filter id="Adobe_OpacityMaskFilter_3_" height="268.126" width="268.128" y="92.823" x="59.24" filterUnits="userSpaceOnUse">
<feFlood result="back" flood-color="white" flood-opacity="1"/>
<feBlend mode="normal" in2="back" in="SourceGraphic"/>
</filter>
</defs>
<mask id="SVGID_9_" height="268.126" width="268.128" y="92.823" x="59.24" maskUnits="userSpaceOnUse">
<g filter="url(#Adobe_OpacityMaskFilter_3_)">
</g>
</mask>
<g mask="url(#SVGID_9_)">
<circle cy="226.89" cx="193.3" r="134.06" fill="#4D4D4D"/>
</g>
</g>
<radialGradient id="SVGID_10_" gradientUnits="userSpaceOnUse" cy="279.16" cx="209.82" gradientTransform="matrix(1.8609 0 0 1.8609 -164.4307 -177.5255)" r="135.94">
<stop stop-color="#4CC2F8" offset="0"/>
<stop stop-color="#4ABEF5" offset="0.125"/>
<stop stop-color="#46B4EB" offset="0.2364"/>
<stop stop-color="#3EA1DB" offset="0.3426"/>
<stop stop-color="#3288C4" offset="0.4449"/>
<stop stop-color="#2B77B5" offset="0.5"/>
<stop stop-color="#082B6C" offset="1"/>
</radialGradient>
<circle cy="226.69" cx="193.03" r="129.92" fill="url(#SVGID_10_)"/>
<linearGradient id="SVGID_11_" y2="311.64" gradientUnits="userSpaceOnUse" x2="226.72" y1="335.21" x1="203.15">
<stop stop-color="#1286EF" offset="0"/>
<stop stop-color="#126BE4" offset="1"/>
</linearGradient>
<circle cy="323.93" cx="214.43" r="21.052" fill="url(#SVGID_11_)"/>
<circle cy="205.76" cx="291.2" r="21.052" fill="#082B97"/>
<circle cy="128.06" cx="174.42" r="21.052" fill="#123062"/>
<linearGradient id="SVGID_12_" y2="228" gradientUnits="userSpaceOnUse" x2="86.595" y1="276.39" x1="112.19">
<stop stop-color="#126BE4" offset="0"/>
<stop stop-color="#082B6C" offset="1"/>
</linearGradient>
<circle cy="247.16" cx="96.729" r="21.052" fill="url(#SVGID_12_)"/>
<polygon points="163.84,100.03,170.82,113.53,172.21,98.173" fill="#FFF"/>
<polygon points="323.08,196.66,309,202.36,324.16,205.17" fill="#FFF"/>
<polygon points="225.79,354.09,217.54,341.33,217.64,356.74" fill="#FFF"/>
<polygon points="65.417,257.02,78.95,250.12,63.606,248.63" fill="#FFF"/>
<g>
<path d="M235.64,228.15l42.178-19.254-45.916-0.464c-6.45-13.924-20.421-23.642-36.704-23.941l1.204-0.252-19.074-41.871-0.931,46.058,0.72-0.151c-6.13,2.836-11.446,7.126-15.504,12.434l1.293-2.048-21.866-8.375,16.283,17.214,0.365-0.578c-2.65,5.156-4.249,10.939-4.508,17.07l-0.044-0.209-41.406,19.075,45.323,0.462c6.339,13.466,19.733,22.95,35.421,23.681l-0.259,0.05,19.54,41.871v-45.594l-0.352,0.067c5.682-2.567,10.677-6.377,14.639-11.089l21.07,9.161-15.329-18.117c2.21-4.65,3.56-9.79,3.87-15.2zm-41.21,34.25c-19.977,0-36.172-16.194-36.172-36.172s16.195-36.172,36.172-36.172c19.978,0,36.172,16.195,36.172,36.172s-16.2,36.17-36.17,36.17z" fill="#FFF"/>
<circle cy="226.23" cx="194.43" r="36.172" fill="none"/>
</g>
<path stroke="#000" stroke-width="0.25" d="M70.326,229.37" fill="none"/>
<linearGradient id="SVGID_13_" y2="140.27" gradientUnits="userSpaceOnUse" x2="111.64" y1="305.9" x1="291.54">
<stop stop-color="#4CC2F8" offset="0"/>
<stop stop-color="#4ABEF5" offset="0.125"/>
<stop stop-color="#46B4EB" offset="0.2364"/>
<stop stop-color="#3EA1DB" offset="0.3426"/>
<stop stop-color="#3288C4" offset="0.4449"/>
<stop stop-color="#2B77B5" offset="0.5"/>
<stop stop-color="#082B6C" offset="1"/>
</linearGradient>
<path opacity="0.27" d="M196.87,243.33s-1.861,4.188,1.86,6.514l0.466,4.187,1.86,3.257,1.396,0.931s8.374,6.979,13.957,9.77c5.582,2.792,7.443,3.723,7.443,3.723s4.188,0,4.188,1.86c0,1.861,5.582-0.465,3.722,6.048-1.861,6.514,1.86,8.375,1.86,8.375s1.861,6.048,1.861,8.374,1.861,6.513,2.791,8.839c0.931,2.326,0.931,6.049,4.188,6.514s2.791,4.188,1.396,6.048c-1.396,1.861,3.722,5.583,3.722,5.583s3.723,6.513,6.514,5.583c2.791-0.931,3.722,5.582,6.979,2.791s6.048-1.396,6.048-1.396-6.513-1.396-6.513-4.188c0-2.791-4.188,1.861,0.93-6.513,1.861-2.792-5.117-1.396-5.117-1.396l1.861-3.723,1.86-1.86-2.791-5.118h1.86l3.723,0.466-1.396-2.326-0.465-1.861,3.722-1.86,3.257-0.931,0.465-4.652-2.326-0.931-2.326-1.396v-1.396l3.722,1.86,2.326-0.931,4.188-0.93-0.931-2.326,3.722-5.583,1.861-2.326,0.465-2.326s-2.791-7.444-0.93-7.909c1.86-0.465,1.86-0.465,1.86-0.465l1.396-3.257,2.792-1.396,2.791-1.396,1.396-0.93,0.931-3.257,1.396-2.326-1.86-3.257,1.86-2.326-0.93-7.909,1.396-5.583,1.396-4.187,1.396-2.792-1.86-2.791-3.257-0.931-1.861,0.466-5.117,0.465-3.257-1.861-6.048,0.931-2.792,0.466-3.722-0.931h-2.326l-1.86,0.931s-0.931,3.256-3.722,3.722c-2.792,0.465-5.583-6.514-0.931-6.514s-3.257-3.257-3.257-3.257l-5.583,0.931-2.791-1.86-3.722-0.466h-2.792l-8.839-0.465-3.723-1.396-3.256,0.93-4.652-0.93h-3.257l-2.326,1.396-35.823-3.722-0.465-3.257-4.652,1.396-1.861,3.257-2.326,1.86h-6.513l-2.792-2.791-0.465-3.722,1.861-6.514,5.117-2.326,2.792,0.465,0.465-1.861,2.792-1.396,6.513,0.465,3.722,2.326,1.861,2.326,2.792-1.396-4.187-5.583v-3.257l2.326-2.326,2.326-3.257,3.722-3.722,1.861-13.026,2.326-2.792,2.326-3.257,4.652-3.722-0.931,4.652,6.048-4.652,1.861-1.861-3.722-0.465-2.792-0.465-1.86-1.861v-2.792l-1.861,0.931-2.791,2.326-2.792,1.396-1.861,2.326,2.326-6.048,2.792-1.861,1.861-1.396,6.048-0.465,3.722,0.465,1.861-0.465v-1.861l1.86-2.326v4.187l0.466,2.326,4.652-0.93h2.326l2.791-0.465,0.465-1.861-1.86-1.861h-1.861l-4.652-3.722-0.465-2.792v-2.326h-2.326l-2.326,0.931-2.792,1.861-1.86-0.93,2.326-1.861,2.791-2.326v-1.396l-6.048,0.931-4.652-1.861-4.188-3.722-2.791-0.931-8.374,0.465h-4.652l-4.652,0.931-1.861,5.118-1.861,4.187,1.396,2.326,2.326,4.187-0.931,6.513-1.861,3.722-1.861,1.861-1.861-2.792-1.861-4.187-1.861,0.465-2.792,0.931-0.465,1.396-4.188-1.861-5.583,0.931h-2.326l-4.652-6.513,1.861-3.257,1.861-2.326,1.861-2.326,2.326-4.652,4.188-6.979,3.256-1.396,3.257-4.187v-1.861l-4.187-7.909-2.792,1.861-0.931,1.861v1.861l-2.792,2.326h-1.396l-1.861,1.861-1.396-0.931-1.861-3.722-3.256-1.861-1.861,2.792-0.465,3.257-1.861,1.861-4.652,5.583v2.791l-2.326,1.861h-3.722l-2.792,2.326-0.465,2.791-3.722,1.396h-4.187l-4.652,0.93-3.722,1.861-5.117,2.791-5.118,2.326-0.465,3.257-1.861,1.861-0.931,2.326h-1.861l-1.861-0.465-3.257,0.465-2.326,1.861-3.722,2.326-1.861,2.792-6.513,9.77-0.465,5.118-0.465,7.443,0.931,2.326s-0.465,2.792,2.326-0.93,5.117-5.583,5.117-5.583l1.396-0.93,2.326-0.931,1.861-1.396,6.048-2.326,1.861,1.861h4.187l0.465,2.326,5.118,3.256v1.396l4.652,1.396,1.861,1.861,0.465,1.861-1.396,1.861v3.722l3.256,4.187,4.652,5.118h2.792l2.326,0.465,3.257,3.723,1.861,1.396,2.326,1.86,3.722,0.931v1.861l3.722,2.791,2.792,0.466,2.326-0.466-3.257-1.396-1.861-1.396-3.722-4.188-3.256-3.257,6.979,4.652,4.187,1.396,3.722,3.256s-1.861,0.931,0.931,1.396,9.77,3.256,9.77,3.256l4.187,0.466,2.326,0.465,5.118,0.931,2.791-2.326,2.326,1.396,25.08,16.29z" fill="url(#SVGID_13_)"/>
<g>
<defs>
<filter id="Adobe_OpacityMaskFilter_4_" height="322.562" width="322.563" y="69.947" x="30.934" filterUnits="userSpaceOnUse">
<feFlood result="back" flood-color="white" flood-opacity="1"/>
<feBlend mode="normal" in2="back" in="SourceGraphic"/>
</filter>
</defs>
<mask id="SVGID_14_" height="322.562" width="322.563" y="69.947" x="30.934" maskUnits="userSpaceOnUse">
<g filter="url(#Adobe_OpacityMaskFilter_4_)">
</g>
</mask>
<g mask="url(#SVGID_14_)">
<g>
<linearGradient id="SVGID_15_" y2="384.35" gradientUnits="userSpaceOnUse" x2="192.22" y1="76.978" x1="192.22">
<stop stop-color="#FFF" offset="0"/>
<stop stop-color="#D09000" offset="1"/>
</linearGradient>
<path d="M192.22,69.947c-89.072,0-161.28,72.209-161.28,161.28,0,89.07,72.209,161.28,161.28,161.28s161.28-72.208,161.28-161.28-72.21-161.28-161.28-161.28zm0,310.91c-82.638,0-149.63-66.994-149.63-149.63,0-82.638,66.993-149.63,149.63-149.63,82.641,0,149.63,66.993,149.63,149.63,0,82.64-66.99,149.63-149.63,149.63z" fill="url(#SVGID_15_)"/>
</g>
</g>
</g>
<g>
<defs>
<filter id="Adobe_OpacityMaskFilter_5_" height="322.562" width="322.564" y="70.566" x="31.555" filterUnits="userSpaceOnUse">
<feFlood result="back" flood-color="white" flood-opacity="1"/>
<feBlend mode="normal" in2="back" in="SourceGraphic"/>
</filter>
</defs>
<mask id="SVGID_16_" height="322.562" width="322.564" y="70.566" x="31.555" maskUnits="userSpaceOnUse">
<g filter="url(#Adobe_OpacityMaskFilter_5_)">
</g>
</mask>
<g mask="url(#SVGID_16_)">
<g>
<linearGradient id="SVGID_17_" y2="350.27" gradientUnits="userSpaceOnUse" x2="114.16" gradientTransform="matrix(-1 0 0 -1 306.9971 428.9961)" y1="42.9" x1="114.16">
<stop stop-color="#FFF" offset="0"/>
<stop stop-color="#D09000" offset="1"/>
</linearGradient>
<path d="M192.84,393.13c89.072,0,161.28-72.209,161.28-161.28,0-89.072-72.21-161.28-161.28-161.28-89.072,0-161.28,72.208-161.28,161.28-0.005,89.07,72.2,161.28,161.28,161.28zm0-310.92c82.637,0,149.63,66.993,149.63,149.63s-66.99,149.63-149.63,149.63c-82.641,0-149.63-66.992-149.63-149.63-0.006-82.63,66.99-149.62,149.63-149.62z" fill="url(#SVGID_17_)"/>
</g>
</g>
</g>
<linearGradient id="SVGID_18_" y2="231.78" gradientUnits="userSpaceOnUse" x2="58.4" gradientTransform="matrix(0.9999 -0.0155 0.0155 0.9944 -2.8414 3.4177)" y1="231.78" x1="11.885">
<stop stop-color="#FFF" offset="0"/>
<stop stop-color="#D09000" offset="1"/>
</linearGradient>
<path d="M32.458,231.34c-1.191-76.74,47.311-142.74,115.92-167.68-74.263,20.216-128.32,88.375-127.08,168.48,1.32,84.95,64.397,154.53,146.06,167.15-76.374-18.36-133.63-86.19-134.9-167.94z" fill="url(#SVGID_18_)"/>
<linearGradient id="SVGID_19_" y2="142.73" gradientUnits="userSpaceOnUse" x2="65.932" gradientTransform="matrix(-0.9684 0.2493 -0.2493 -0.9684 417.6006 315.713)" y1="142.73" x1="19.414">
<stop stop-color="#FFF" offset="0"/>
<stop stop-color="#D09000" offset="1"/>
</linearGradient>
<path d="M344.51,189.32c19.238,74.738-12.366,150.61-73.198,191.06,67.439-37.147,103.94-116.43,83.858-194.44-21.3-82.75-99.02-136-181.38-129.21,78.58,0.066,150.23,52.971,170.72,132.59z" fill="url(#SVGID_19_)"/>
<linearGradient id="SVGID_20_" y2="142.74" gradientUnits="userSpaceOnUse" x2="68.489" gradientTransform="matrix(-0.9684 0.2493 -0.2493 -0.9684 417.6006 315.713)" y1="142.74" x1="21.971">
<stop stop-color="#FFF" offset="0"/>
<stop stop-color="#D09000" offset="1"/>
</linearGradient>
<path d="M342.03,189.94c19.238,74.737-12.367,150.61-73.198,191.06,67.439-37.146,103.94-116.43,83.858-194.44-21.3-82.75-99.02-136-181.38-129.21,78.58,0.066,150.22,52.97,170.72,132.59z" fill="url(#SVGID_20_)"/>
<path d="M181.52,227.16c0-3.325,1.357-6.333,3.545-8.503l-4.683-3.956-69.157,105.77,3.145-2.721,71.135-81.688c-2.44-2.19-3.98-5.36-3.98-8.9z" fill="#FFFEFE"/>
<g stroke="#4D4D4D" stroke-width="0.65" fill="none">
<g>
<line y2="355.92" x1="175.31" x2="172.53" y1="339.75"/>
<line y2="356.38" x1="185.04" x2="184.58" y1="348.99"/>
<line y2="357.31" x1="194.77" x2="195.7" y1="341.14"/>
<line y2="355.92" x1="206.35" x2="207.28" y1="348.53"/>
<line y2="351.76" x1="163.26" x2="161.41" y1="345.3"/>
<line y2="348.53" x1="155.85" x2="150.76" y1="335.13"/>
<line y2="344.37" x1="143.81" x2="141.03" y1="338.37"/>
<line y2="339.29" x1="137.32" x2="130.37" y1="327.28"/>
<line y2="333.75" x1="124.35" x2="120.64" y1="327.74"/>
<line y2="326.82" x1="120.64" x2="111.84" y1="315.27"/>
<line y2="319.89" x1="107.67" x2="102.11" y1="314.81"/>
<line y2="312.04" x1="105.82" x2="94.697" y1="302.34"/>
<line y2="303.26" x1="93.771" x2="87.284" y1="298.18"/>
<line y2="292.63" x1="94.697" x2="82.188" y1="285.24"/>
<line y2="282.94" x1="82.65" x2="76.165" y1="279.7"/>
<line y2="272.77" x1="84.504" x2="71.995" y1="267.69"/>
<line y2="263.07" x1="73.848" x2="67.362" y1="261.22"/>
</g>
<g>
<line y2="243.48" x1="305.46" x2="321.72" y1="240.99"/>
<line y2="231.47" x1="314.55" x2="321.97" y1="231.14"/>
<line y2="220.37" x1="306.51" x2="322.7" y1="221.57"/>
<line y2="208.84" x1="313.72" x2="321.12" y1="209.9"/>
<line y2="254.64" x1="311.22" x2="317.74" y1="252.9"/>
<line y2="265.32" x1="301.16" x2="314.68" y1="260.47"/>
<line y2="275.09" x1="304.61" x2="310.68" y1="272.42"/>
<line y2="285.8" x1="293.6" x2="305.77" y1="279.08"/>
<line y2="295.6" x1="294.29" x2="300.38" y1="292"/>
<line y2="304.49" x1="281.85" x2="293.58" y1="295.92"/>
<line y2="314.31" x1="281.61" x2="286.8" y1="308.86"/>
<line y2="321.84" x1="269.13" x2="279.05" y1="310.92"/>
<line y2="329.38" x1="265.17" x2="270.38" y1="323"/>
<line y2="334.64" x1="252.18" x2="259.81" y1="322.3"/>
<line y2="340.81" x1="246.83" x2="250.19" y1="334.4"/>
<line y2="345.15" x1="234.76" x2="240.07" y1="332.76"/>
<line y2="349.93" x1="228.46" x2="230.42" y1="343.5"/>
</g>
<g>
<line y2="97.126" x1="208.65" x2="211.33" y1="113.31"/>
<line y2="96.736" x1="198.86" x2="199.28" y1="104.13"/>
<line y2="95.876" x1="189.18" x2="188.16" y1="112.04"/>
<line y2="97.329" x1="177.55" x2="176.59" y1="104.72"/>
<line y2="101.22" x1="220.66" x2="222.48" y1="107.7"/>
<line y2="104.39" x1="228.13" x2="233.15" y1="117.82"/>
<line y2="108.5" x1="240.16" x2="242.9" y1="114.51"/>
<line y2="113.51" x1="246.71" x2="253.59" y1="125.56"/>
<line y2="119" x1="259.68" x2="263.35" y1="125.03"/>
<line y2="125.88" x1="263.46" x2="272.2" y1="137.48"/>
<line y2="132.75" x1="276.43" x2="281.96" y1="137.86"/>
<line y2="140.56" x1="278.36" x2="289.42" y1="150.33"/>
<line y2="149.3" x1="290.43" x2="296.88" y1="154.41"/>
<line y2="159.89" x1="289.58" x2="302.04" y1="167.35"/>
<line y2="169.55" x1="301.66" x2="308.12" y1="172.83"/>
<line y2="179.69" x1="299.87" x2="312.35" y1="184.85"/>
<line y2="189.37" x1="310.57" x2="317.04" y1="191.25"/>
</g>
<g>
<line y2="204.62" x1="82.158" x2="65.423" y1="208.05"/>
<line y2="217.07" x1="72.209" x2="64.532" y1="217.8"/>
<line y2="228.54" x1="80.045" x2="63.187" y1="228.14"/>
<line y2="240.57" x1="71.958" x2="64.229" y1="239.87"/>
<line y2="193.25" x1="76.803" x2="70.136" y1="195.4"/>
<line y2="182.34" x1="87.636" x2="73.867" y1="188.08"/>
<line y2="172.42" x1="84.682" x2="78.53" y1="175.5"/>
<line y2="161.56" x1="96.445" x2="84.184" y1="169.16"/>
<line y2="151.69" x1="96.41" x2="90.282" y1="155.73"/>
<line y2="142.82" x1="109.52" x2="97.802" y1="152.32"/>
<line y2="132.99" x1="110.45" x2="105.35" y1="138.92"/>
<line y2="125.59" x1="123.5" x2="113.78" y1="137.42"/>
<line y2="118.22" x1="128.23" x2="123.17" y1="125.1"/>
<line y2="113.31" x1="141.67" x2="134.4" y1="126.51"/>
<line y2="107.41" x1="147.85" x2="144.71" y1="114.23"/>
<line y2="103.44" x1="160.29" x2="155.43" y1="116.56"/>
<line y2="98.984" x1="167.38" x2="165.68" y1="105.76"/>
</g>
</g>
<g>
<g>
<path d="M203.28,234.05c-2.168,3.073-5.739,5.087-9.788,5.087-3.077,0-5.874-1.171-7.995-3.075l-71.135,81.688,93.429-80.859-0.28-0.233-0.41,0.618-3.82-3.23z" fill="#B8B9B8"/>
</g>
</g>
<g>
<g>
<path d="M206.02,227.16c0,6.702-5.434,12.131-12.134,12.131-6.699,0-12.134-5.431-12.134-12.133,0-6.704,5.436-12.136,12.135-12.136,6.68,0.01,12.12,5.44,12.12,12.14z" fill="#FFF"/>
</g>
<defs>
<filter id="Adobe_OpacityMaskFilter_6_" height="24.269" width="24.269" y="215.025" x="181.75" filterUnits="userSpaceOnUse">
<feColorMatrix values="-1 0 0 0 1  0 -1 0 0 1  0 0 -1 0 1  0 0 0 1 0" type="matrix" color-interpolation-filters="sRGB" result="source"/>
</filter>
</defs>
<mask id="SVGID_21_" height="24.269" width="24.269" y="215.025" x="181.75" maskUnits="userSpaceOnUse">
<g filter="url(#Adobe_OpacityMaskFilter_6_)">
</g>
</mask>
<g opacity="0.75" mask="url(#SVGID_21_)">
<path d="M206.02,227.16c0,6.702-5.434,12.131-12.134,12.131-6.699,0-12.134-5.431-12.134-12.133,0-6.704,5.436-12.136,12.135-12.136,6.68,0.01,12.12,5.44,12.12,12.14z"/>
</g>
</g>
<g>
<defs>
<filter id="Adobe_OpacityMaskFilter_7_" height="13.335" width="13.334" y="220.492" x="187.683" filterUnits="userSpaceOnUse">
<feFlood result="back" flood-color="white" flood-opacity="1"/>
<feBlend mode="normal" in2="back" in="SourceGraphic"/>
</filter>
</defs>
<mask id="SVGID_22_" height="13.335" width="13.334" y="220.492" x="187.683" maskUnits="userSpaceOnUse">
<g filter="url(#Adobe_OpacityMaskFilter_7_)">
</g>
</mask>
<g mask="url(#SVGID_22_)">
<path d="M201.02,227.16c0,3.684-2.985,6.666-6.666,6.666s-6.668-2.984-6.668-6.666c0-3.686,2.987-6.669,6.668-6.669,3.68,0,6.67,2.99,6.67,6.67z" fill="#4D4D4D"/>
</g>
</g>
<radialGradient id="SVGID_23_" gradientUnits="userSpaceOnUse" cy="216.76" cx="191.45" gradientTransform="matrix(1.8609 0 0 1.8609 -164.4307 -177.5255)" r="8.2747">
<stop stop-color="#FFF" offset="0"/>
<stop stop-color="#F7F7F7" offset="0.1106"/>
<stop stop-color="#E1E1E1" offset="0.2816"/>
<stop stop-color="#BEBEBE" offset="0.4916"/>
<stop stop-color="#8C8C8C" offset="0.7324"/>
<stop stop-color="#4E4E4E" offset="0.9964"/>
<stop stop-color="#4D4D4D" offset="1"/>
</radialGradient>
<path d="M200.32,227.04c0,3.17-2.57,5.735-5.735,5.735-3.168,0-5.737-2.567-5.737-5.735,0-3.171,2.569-5.739,5.737-5.739,3.17,0,5.74,2.57,5.74,5.74z" fill="url(#SVGID_23_)"/>
<g>
<defs>
<filter id="Adobe_OpacityMaskFilter_8_" height="309.8" width="158.961" y="66.767" x="193.527" filterUnits="userSpaceOnUse">
<feFlood result="back" flood-color="white" flood-opacity="1"/>
<feBlend mode="normal" in2="back" in="SourceGraphic"/>
</filter>
</defs>
<mask id="SVGID_24_" height="309.8" width="158.961" y="66.767" x="193.527" maskUnits="userSpaceOnUse">
<g filter="url(#Adobe_OpacityMaskFilter_8_)">
</g>
</mask>
<g mask="url(#SVGID_24_)">
<linearGradient id="SVGID_25_" y2="221.67" gradientUnits="userSpaceOnUse" x2="414.59" y1="221.67" x1="257.35">
<stop stop-color="#FFF" offset="0"/>
<stop stop-color="#D09000" offset="1"/>
</linearGradient>
<path d="M340.31,205.5c11.136,71.245-25.114,138.95-85.342,171.07,66.074-28.45,107.19-98.888,95.562-173.25-12.331-78.87-79.795-135.42-157-136.55,73.07,7.16,134.91,62.83,146.78,138.73z" fill="url(#SVGID_25_)"/>
</g>
</g>
<g>
<defs>
<filter id="Adobe_OpacityMaskFilter_9_" height="225.825" width="270.164" y="162.558" x="26.377" filterUnits="userSpaceOnUse">
<feFlood result="back" flood-color="white" flood-opacity="1"/>
<feBlend mode="normal" in2="back" in="SourceGraphic"/>
</filter>
</defs>
<mask id="SVGID_26_" height="225.825" width="270.164" y="162.558" x="26.377" maskUnits="userSpaceOnUse">
<g filter="url(#Adobe_OpacityMaskFilter_9_)">
</g>
</mask>
<g mask="url(#SVGID_26_)">
<linearGradient id="SVGID_27_" y2="275.47" gradientUnits="userSpaceOnUse" x2="296.54" y1="275.47" x1="26.377">
<stop stop-color="#FFF" offset="0"/>
<stop stop-color="#D09000" offset="1"/>
</linearGradient>
<path d="M94.574,345.69c-56.882-44.32-76.792-118.49-54.864-183.13-28.701,65.965-10.464,145.46,48.907,191.72,62.97,49.064,150.86,44.115,207.92-7.901-58.18,44.78-141.37,46.52-201.97-0.69z" fill="url(#SVGID_27_)"/>
</g>
</g>
<g>
<defs>
<filter id="Adobe_OpacityMaskFilter_10_" height="171.334" width="269.415" y="70.951" x="40.049" filterUnits="userSpaceOnUse">
<feFlood result="back" flood-color="white" flood-opacity="1"/>
<feBlend mode="normal" in2="back" in="SourceGraphic"/>
</filter>
</defs>
<mask id="SVGID_28_" height="171.334" width="269.415" y="70.951" x="40.049" maskUnits="userSpaceOnUse">
<g filter="url(#Adobe_OpacityMaskFilter_10_)">
</g>
</mask>
<g mask="url(#SVGID_28_)">
<linearGradient id="SVGID_29_" y2="27.419" gradientUnits="userSpaceOnUse" x2="95.507" y1="136.28" x1="149.47">
<stop stop-color="#FFF" offset="0"/>
<stop stop-color="#D09000" offset="1"/>
</linearGradient>
<path d="M142.23,88.03c61.983-21.677,128.58-0.33,167.24,48.34-36.332-54.508-106.18-79.762-170.87-57.136-68.618,23.997-108.18,93.713-96.518,163.05-5.592-66.62,34.114-131.16,100.15-154.25z" fill="url(#SVGID_29_)"/>
</g>
</g>
<g>
<defs>
<filter id="Adobe_OpacityMaskFilter_11_" height="142.011" width="283.101" y="67.404" x="47.462" filterUnits="userSpaceOnUse">
<feFlood result="back" flood-color="white" flood-opacity="1"/>
<feBlend mode="normal" in2="back" in="SourceGraphic"/>
</filter>
</defs>
<mask id="SVGID_30_" height="142.011" width="283.101" y="67.404" x="47.462" maskUnits="userSpaceOnUse">
<g filter="url(#Adobe_OpacityMaskFilter_11_)">
</g>
</mask>
<g mask="url(#SVGID_30_)">
<linearGradient id="SVGID_31_" y2="19.179" gradientUnits="userSpaceOnUse" x2="111.45" gradientTransform="matrix(0.9801 0.1987 -0.1987 0.9801 37.1039 -31.4952)" y1="128.03" x1="165.41">
<stop stop-color="#FFF" offset="0"/>
<stop stop-color="#D09000" offset="1"/>
</linearGradient>
<path d="M176.26,78.131c65.056-8.932,126.08,25.221,154.3,80.601-24.779-60.639-88.214-99.266-156.11-89.944-72.018,9.887-124.65,70.353-126.99,140.63,7.764-66.41,59.5-121.78,128.8-131.29z" fill="url(#SVGID_31_)"/>
</g>
</g>
<g>
<defs>
<filter id="Adobe_OpacityMaskFilter_12_" height="142.011" width="283.101" y="66.164" x="47.462" filterUnits="userSpaceOnUse">
<feFlood result="back" flood-color="white" flood-opacity="1"/>
<feBlend mode="normal" in2="back" in="SourceGraphic"/>
</filter>
</defs>
<mask id="SVGID_32_" height="142.011" width="283.101" y="66.164" x="47.462" maskUnits="userSpaceOnUse">
<g filter="url(#Adobe_OpacityMaskFilter_12_)">
</g>
</mask>
<g mask="url(#SVGID_32_)">
<linearGradient id="SVGID_33_" y2="17.964" gradientUnits="userSpaceOnUse" x2="111.2" gradientTransform="matrix(0.9801 0.1987 -0.1987 0.9801 37.1039 -31.4952)" y1="126.82" x1="165.16">
<stop stop-color="#FFF" offset="0"/>
<stop stop-color="#D09000" offset="1"/>
</linearGradient>
<path d="M176.26,76.891c65.056-8.931,126.08,25.221,154.3,80.601-24.779-60.639-88.214-99.266-156.11-89.944-72.018,9.887-124.65,70.353-126.99,140.63,7.764-66.41,59.5-121.78,128.8-131.29z" fill="url(#SVGID_33_)"/>
</g>
</g>
<g>
<defs>
<filter id="Adobe_OpacityMaskFilter_13_" height="142.011" width="283.101" y="66.164" x="47.462" filterUnits="userSpaceOnUse">
<feFlood result="back" flood-color="white" flood-opacity="1"/>
<feBlend mode="normal" in2="back" in="SourceGraphic"/>
</filter>
</defs>
<mask id="SVGID_34_" height="142.011" width="283.101" y="66.164" x="47.462" maskUnits="userSpaceOnUse">
<g filter="url(#Adobe_OpacityMaskFilter_13_)">
</g>
</mask>
<g mask="url(#SVGID_34_)">
<path d="M176.26,76.891c65.056-8.931,126.08,25.221,154.3,80.601-24.779-60.639-88.214-99.266-156.11-89.944-72.018,9.887-124.65,70.353-126.99,140.63,7.764-66.41,59.5-121.78,128.8-131.29z" fill="url(#SVGID_33_)"/>
</g>
</g>
<g>
<defs>
<filter id="Adobe_OpacityMaskFilter_14_" height="142.011" width="283.101" y="74.848" x="47.462" filterUnits="userSpaceOnUse">
<feFlood result="back" flood-color="white" flood-opacity="1"/>
<feBlend mode="normal" in2="back" in="SourceGraphic"/>
</filter>
</defs>
<mask id="SVGID_36_" height="142.011" width="283.101" y="74.848" x="47.462" maskUnits="userSpaceOnUse">
<g filter="url(#Adobe_OpacityMaskFilter_14_)">
</g>
</mask>
<g mask="url(#SVGID_36_)">
<linearGradient id="SVGID_37_" y2="26.474" gradientUnits="userSpaceOnUse" x2="112.92" gradientTransform="matrix(0.9801 0.1987 -0.1987 0.9801 37.1039 -31.4952)" y1="135.33" x1="166.89">
<stop stop-color="#FFF" offset="0"/>
<stop stop-color="#D09000" offset="1"/>
</linearGradient>
<path d="M176.26,85.575c65.056-8.931,126.08,25.221,154.3,80.601-24.779-60.639-88.214-99.266-156.11-89.944-72.018,9.887-124.65,70.353-126.99,140.63,7.764-66.42,59.5-121.78,128.8-131.3z" fill="url(#SVGID_37_)"/>
</g>
</g>
<g>
<defs>
<filter id="Adobe_OpacityMaskFilter_15_" height="142.011" width="283.101" y="63.062" x="46.842" filterUnits="userSpaceOnUse">
<feFlood result="back" flood-color="white" flood-opacity="1"/>
<feBlend mode="normal" in2="back" in="SourceGraphic"/>
</filter>
</defs>
<mask id="SVGID_38_" height="142.011" width="283.101" y="63.062" x="46.842" maskUnits="userSpaceOnUse">
<g filter="url(#Adobe_OpacityMaskFilter_15_)">
</g>
</mask>
<g mask="url(#SVGID_38_)">
<linearGradient id="SVGID_39_" y2="15.046" gradientUnits="userSpaceOnUse" x2="109.98" gradientTransform="matrix(0.9801 0.1987 -0.1987 0.9801 37.1039 -31.4952)" y1="123.9" x1="163.94">
<stop stop-color="#FFF" offset="0"/>
<stop stop-color="#D09000" offset="1"/>
</linearGradient>
<path d="M175.64,73.789c65.056-8.931,126.08,25.221,154.3,80.601-24.779-60.639-88.215-99.266-156.11-89.944-72.018,9.887-124.65,70.353-126.99,140.63,7.764-66.41,59.5-121.78,128.8-131.29z" fill="url(#SVGID_39_)"/>
</g>
</g>
<path d="M185.44,218.31c2.128-1.938,4.948-3.131,8.053-3.131,3.006,0,5.746,1.114,7.849,2.942l75.243-85.3,0.767-1.152-97.234,82.811,0.258,0.219,0.254-0.389,4.81,4z" fill="#FD5D00"/>
<g>
<g>
<path d="M201.35,218.12c2.526,2.197,4.131,5.427,4.131,9.037,0,2.315-0.688,4.454-1.828,6.286l3.867,3.215,69.073-103.84-75.24,85.3z" fill="#C93B02"/>
</g>
</g>
<g>
<defs>
<filter id="Adobe_OpacityMaskFilter_16_" height="273.884" width="221.121" y="65.07" x="19.223" filterUnits="userSpaceOnUse">
<feFlood result="back" flood-color="white" flood-opacity="1"/>
<feBlend mode="normal" in2="back" in="SourceGraphic"/>
</filter>
</defs>
<mask id="SVGID_40_" height="273.884" width="221.121" y="65.07" x="19.223" maskUnits="userSpaceOnUse">
<g filter="url(#Adobe_OpacityMaskFilter_16_)">
</g>
</mask>
<g mask="url(#SVGID_40_)">
<linearGradient id="SVGID_41_" y2="248.27" gradientUnits="userSpaceOnUse" x2="388.33" gradientTransform="matrix(-0.7071 -0.7071 0.7071 -0.7071 116.9757 523.2479)" y1="248.27" x1="231.09">
<stop stop-color="#FFF" offset="0"/>
<stop stop-color="#D09000" offset="1"/>
</linearGradient>
<path d="M59.036,137.06c42.503-58.25,116.01-80.492,181.31-60.614-66.837-26.604-145.72-5.869-190.08,54.933-47.056,64.49-39.337,152.18,14.455,207.57-46.603-56.73-50.969-139.83-5.689-201.89z" fill="url(#SVGID_41_)"/>
</g>
</g>
<g>
<defs>
<filter id="Adobe_OpacityMaskFilter_17_" height="273.884" width="221.121" y="64.45" x="18.602" filterUnits="userSpaceOnUse">
<feFlood result="back" flood-color="white" flood-opacity="1"/>
<feBlend mode="normal" in2="back" in="SourceGraphic"/>
</filter>
</defs>
<mask id="SVGID_42_" height="273.884" width="221.121" y="64.45" x="18.602" maskUnits="userSpaceOnUse">
<g filter="url(#Adobe_OpacityMaskFilter_17_)">
</g>
</mask>
<g mask="url(#SVGID_42_)">
<linearGradient id="SVGID_43_" y2="248.27" gradientUnits="userSpaceOnUse" x2="389.21" gradientTransform="matrix(-0.7071 -0.7071 0.7071 -0.7071 116.9757 523.2479)" y1="248.27" x1="231.96">
<stop stop-color="#FFF" offset="0"/>
<stop stop-color="#D09000" offset="1"/>
</linearGradient>
<path d="M58.416,136.44c42.503-58.25,116.01-80.492,181.31-60.614-66.837-26.605-145.72-5.869-190.08,54.933-47.057,64.49-39.338,152.18,14.454,207.57-46.603-56.73-50.969-139.83-5.688-201.89z" fill="url(#SVGID_43_)"/>
</g>
</g>
<g>
<defs>
<filter id="Adobe_OpacityMaskFilter_18_" height="209.577" width="282.367" y="59.89" x="79.937" filterUnits="userSpaceOnUse">
<feFlood result="back" flood-color="white" flood-opacity="1"/>
<feBlend mode="normal" in2="back" in="SourceGraphic"/>
</filter>
</defs>
<mask id="SVGID_44_" height="209.577" width="282.367" y="59.89" x="79.937" maskUnits="userSpaceOnUse">
<g filter="url(#Adobe_OpacityMaskFilter_18_)">
</g>
</mask>
<g mask="url(#SVGID_44_)">
<linearGradient id="SVGID_45_" y2="279.5" gradientUnits="userSpaceOnUse" x2="531.23" gradientTransform="matrix(0.6515 -0.7587 0.7587 0.6515 -216.6724 268.4041)" y1="279.5" x1="373.99">
<stop stop-color="#FFF" offset="0"/>
<stop stop-color="#D09000" offset="1"/>
</linearGradient>
<path d="M280.81,93.278c61.308,37.964,89.06,109.57,74.19,176.19,21.459-68.663-5.197-145.74-69.188-185.37-67.87-42.025-154.72-27.679-205.88,30.159,53.04-50.77,135.57-61.426,200.88-20.982z" fill="url(#SVGID_45_)"/>
</g>
</g>
<g>
<defs>
<filter id="Adobe_OpacityMaskFilter_19_" height="225.826" width="270.162" y="160.696" x="26.998" filterUnits="userSpaceOnUse">
<feFlood result="back" flood-color="white" flood-opacity="1"/>
<feBlend mode="normal" in2="back" in="SourceGraphic"/>
</filter>
</defs>
<mask id="SVGID_46_" height="225.826" width="270.162" y="160.696" x="26.998" maskUnits="userSpaceOnUse">
<g filter="url(#Adobe_OpacityMaskFilter_19_)">
</g>
</mask>
<g mask="url(#SVGID_46_)">
<linearGradient id="SVGID_47_" y2="230.94" gradientUnits="userSpaceOnUse" x2="59.735" y1="356.25" x1="201.8">
<stop stop-color="#FFF" offset="0"/>
<stop stop-color="#D09000" offset="1"/>
</linearGradient>
<path d="M95.194,343.83c-56.882-44.321-76.792-118.49-54.864-183.13-28.7,65.96-10.463,145.45,48.907,191.72,62.97,49.063,150.86,44.115,207.92-7.902-58.18,44.78-141.37,46.52-201.97-0.69z" fill="url(#SVGID_47_)"/>
</g>
</g>
<g>
<defs>
<filter id="Adobe_OpacityMaskFilter_20_" height="191.217" width="294.089" y="194.457" x="27.964" filterUnits="userSpaceOnUse">
<feFlood result="back" flood-color="white" flood-opacity="1"/>
<feBlend mode="normal" in2="back" in="SourceGraphic"/>
</filter>
</defs>
<mask id="SVGID_48_" height="191.217" width="294.089" y="194.457" x="27.964" maskUnits="userSpaceOnUse">
<g filter="url(#Adobe_OpacityMaskFilter_20_)">
</g>
</mask>
<g mask="url(#SVGID_48_)">
<linearGradient id="SVGID_49_" y2="366.1" gradientUnits="userSpaceOnUse" x2="210.96" gradientTransform="matrix(0.9748 -0.2229 0.2229 0.9748 -56.9301 20.5676)" y1="278.29" x1="57.942">
<stop stop-color="#FFF" offset="0"/>
<stop stop-color="#D09000" offset="1"/>
</linearGradient>
<path d="M125.02,360.75c-65.33-30.527-101.27-98.396-94.302-166.3-13.276,70.703,22.22,144.13,90.408,175.99,72.321,33.795,156.9,9.381,200.93-54.045-46.73,56.64-127.45,76.88-197.04,44.35z" fill="url(#SVGID_49_)"/>
</g>
</g>
<g>
<defs>
<filter id="Adobe_OpacityMaskFilter_21_" height="191.217" width="294.089" y="194.457" x="26.723" filterUnits="userSpaceOnUse">
<feFlood result="back" flood-color="white" flood-opacity="1"/>
<feBlend mode="normal" in2="back" in="SourceGraphic"/>
</filter>
</defs>
<mask id="SVGID_50_" height="191.217" width="294.089" y="194.457" x="26.723" maskUnits="userSpaceOnUse">
<g filter="url(#Adobe_OpacityMaskFilter_21_)">
</g>
</mask>
<g mask="url(#SVGID_50_)">
<linearGradient id="SVGID_51_" y2="365.82" gradientUnits="userSpaceOnUse" x2="209.75" gradientTransform="matrix(0.9748 -0.2229 0.2229 0.9748 -56.9301 20.5676)" y1="278.01" x1="56.732">
<stop stop-color="#FFF" offset="0"/>
<stop stop-color="#D09000" offset="1"/>
</linearGradient>
<path d="M123.78,360.75c-65.33-30.527-101.27-98.396-94.302-166.3-13.276,70.703,22.22,144.13,90.408,175.99,72.321,33.795,156.9,9.381,200.93-54.045-46.73,56.64-127.45,76.88-197.04,44.35z" fill="url(#SVGID_51_)"/>
</g>
</g>
<g>
<defs>
<filter id="Adobe_OpacityMaskFilter_22_" height="191.218" width="294.09" y="197.379" x="32.615" filterUnits="userSpaceOnUse">
<feFlood result="back" flood-color="white" flood-opacity="1"/>
<feBlend mode="normal" in2="back" in="SourceGraphic"/>
</filter>
</defs>
<mask id="SVGID_52_" height="191.218" width="294.09" y="197.379" x="32.615" maskUnits="userSpaceOnUse">
<g filter="url(#Adobe_OpacityMaskFilter_22_)">
</g>
</mask>
<g mask="url(#SVGID_52_)">
<linearGradient id="SVGID_53_" y2="369.98" gradientUnits="userSpaceOnUse" x2="214.85" gradientTransform="matrix(0.9748 -0.2229 0.2229 0.9748 -56.9301 20.5676)" y1="282.17" x1="61.825">
<stop stop-color="#FFF" offset="0"/>
<stop stop-color="#D09000" offset="1"/>
</linearGradient>
<path d="M129.67,363.68c-65.33-30.527-101.27-98.396-94.301-166.3-13.276,70.703,22.219,144.13,90.408,176,72.321,33.795,156.9,9.381,200.93-54.046-46.73,56.63-127.45,76.87-197.04,44.35z" fill="url(#SVGID_53_)"/>
</g>
</g>
<g>
<defs>
<filter id="Adobe_OpacityMaskFilter_23_" height="296.682" width="186.663" y="68.264" x="30.858" filterUnits="userSpaceOnUse">
<feFlood result="back" flood-color="white" flood-opacity="1"/>
<feBlend mode="normal" in2="back" in="SourceGraphic"/>
</filter>
</defs>
<mask id="SVGID_54_" height="296.682" width="186.663" y="68.264" x="30.858" maskUnits="userSpaceOnUse">
<g filter="url(#Adobe_OpacityMaskFilter_23_)">
</g>
</mask>
<g mask="url(#SVGID_54_)">
<linearGradient id="SVGID_55_" y2="254.22" gradientUnits="userSpaceOnUse" x2="78.342" gradientTransform="matrix(0.2507 0.9681 -0.9681 0.2507 296.855 133.2003)" y1="135.84" x1="-61.294">
<stop stop-color="#FFF" offset="0"/>
<stop stop-color="#D09000" offset="1"/>
</linearGradient>
<path d="M53.992,169.26c28.645-66.177,95.457-104.05,163.53-99.024-71.05-11.249-143.44,26.335-173.33,95.404-31.71,73.26-4.885,157.1,59.775,199.3-57.943-45.08-80.484-125.19-49.968-195.68z" fill="url(#SVGID_55_)"/>
</g>
</g>
<g>
<defs>
<filter id="Adobe_OpacityMaskFilter_24_" height="296.682" width="186.662" y="68.264" x="33.96" filterUnits="userSpaceOnUse">
<feFlood result="back" flood-color="white" flood-opacity="1"/>
<feBlend mode="normal" in2="back" in="SourceGraphic"/>
</filter>
</defs>
<mask id="SVGID_56_" height="296.682" width="186.662" y="68.264" x="33.96" maskUnits="userSpaceOnUse">
<g filter="url(#Adobe_OpacityMaskFilter_24_)">
</g>
</mask>
<g mask="url(#SVGID_56_)">
<linearGradient id="SVGID_57_" y2="251.22" gradientUnits="userSpaceOnUse" x2="79.12" gradientTransform="matrix(0.2507 0.9681 -0.9681 0.2507 296.855 133.2003)" y1="132.84" x1="-60.517">
<stop stop-color="#FFF" offset="0"/>
<stop stop-color="#D09000" offset="1"/>
</linearGradient>
<path d="M57.094,169.26c28.645-66.177,95.457-104.05,163.53-99.024-71.05-11.249-143.43,26.335-173.33,95.404-31.71,73.26-4.885,157.1,59.775,199.3-57.941-45.08-80.482-125.19-49.966-195.68z" fill="url(#SVGID_57_)"/>
</g>
</g>
<g>
<defs>
<filter id="Adobe_OpacityMaskFilter_25_" height="296.682" width="186.662" y="68.264" x="38.302" filterUnits="userSpaceOnUse">
<feFlood result="back" flood-color="white" flood-opacity="1"/>
<feBlend mode="normal" in2="back" in="SourceGraphic"/>
</filter>
</defs>
<mask id="SVGID_58_" height="296.682" width="186.662" y="68.264" x="38.302" maskUnits="userSpaceOnUse">
<g filter="url(#Adobe_OpacityMaskFilter_25_)">
</g>
</mask>
<g mask="url(#SVGID_58_)">
<linearGradient id="SVGID_59_" y2="247.02" gradientUnits="userSpaceOnUse" x2="80.209" gradientTransform="matrix(0.2507 0.9681 -0.9681 0.2507 296.855 133.2003)" y1="128.63" x1="-59.427">
<stop stop-color="#FFF" offset="0"/>
<stop stop-color="#D09000" offset="1"/>
</linearGradient>
<path d="M61.436,169.26c28.645-66.177,95.457-104.05,163.53-99.024-71.06-11.249-143.44,26.335-173.34,95.404-31.71,73.26-4.885,157.1,59.775,199.3-57.939-45.08-80.481-125.19-49.964-195.68z" fill="url(#SVGID_59_)"/>
</g>
</g>
<g>
<defs>
<filter id="Adobe_OpacityMaskFilter_26_" height="296.681" width="186.661" y="71.366" x="25.896" filterUnits="userSpaceOnUse">
<feFlood result="back" flood-color="white" flood-opacity="1"/>
<feBlend mode="normal" in2="back" in="SourceGraphic"/>
</filter>
</defs>
<mask id="SVGID_60_" height="296.681" width="186.661" y="71.366" x="25.896" maskUnits="userSpaceOnUse">
<g filter="url(#Adobe_OpacityMaskFilter_26_)">
</g>
</mask>
<g mask="url(#SVGID_60_)">
<linearGradient id="SVGID_61_" y2="259.8" gradientUnits="userSpaceOnUse" x2="80.101" gradientTransform="matrix(0.2507 0.9681 -0.9681 0.2507 296.855 133.2003)" y1="141.42" x1="-59.535">
<stop stop-color="#FFF" offset="0"/>
<stop stop-color="#D09000" offset="1"/>
</linearGradient>
<path d="M49.03,172.36c28.645-66.177,95.457-104.05,163.53-99.024-71.052-11.247-143.43,26.337-173.33,95.41-31.71,73.259-4.885,157.1,59.775,199.3-57.95-45.09-80.491-125.19-49.975-195.69z" fill="url(#SVGID_61_)"/>
</g>
</g>
<g>
<defs>
<filter id="Adobe_OpacityMaskFilter_27_" height="296.683" width="186.661" y="71.986" x="22.174" filterUnits="userSpaceOnUse">
<feFlood result="back" flood-color="white" flood-opacity="1"/>
<feBlend mode="normal" in2="back" in="SourceGraphic"/>
</filter>
</defs>
<mask id="SVGID_62_" height="296.683" width="186.661" y="71.986" x="22.174" maskUnits="userSpaceOnUse">
<g filter="url(#Adobe_OpacityMaskFilter_27_)">
</g>
</mask>
<g mask="url(#SVGID_62_)">
<linearGradient id="SVGID_63_" y2="263.56" gradientUnits="userSpaceOnUse" x2="79.77" gradientTransform="matrix(0.2507 0.9681 -0.9681 0.2507 296.855 133.2003)" y1="145.18" x1="-59.866">
<stop stop-color="#FFF" offset="0"/>
<stop stop-color="#D09000" offset="1"/>
</linearGradient>
<path d="M45.308,172.98c28.645-66.177,95.457-104.05,163.53-99.024-71.06-11.247-143.44,26.334-173.34,95.414-31.71,73.261-4.885,157.1,59.775,199.3-57.944-45.09-80.485-125.19-49.969-195.69z" fill="url(#SVGID_63_)"/>
</g>
</g>
<g>
<defs>
<filter id="Adobe_OpacityMaskFilter_28_" height="197.359" width="290.402" y="62.636" x="60.115" filterUnits="userSpaceOnUse">
<feFlood result="back" flood-color="white" flood-opacity="1"/>
<feBlend mode="normal" in2="back" in="SourceGraphic"/>
</filter>
</defs>
<mask id="SVGID_64_" height="197.359" width="290.402" y="62.636" x="60.115" maskUnits="userSpaceOnUse">
<g filter="url(#Adobe_OpacityMaskFilter_28_)">
</g>
</mask>
<g mask="url(#SVGID_64_)">
<linearGradient id="SVGID_65_" y2="224.24" gradientUnits="userSpaceOnUse" x2="51.667" gradientTransform="matrix(-0.9828 0.1848 -0.1848 -0.9828 246.5557 310.367)" y1="105.86" x1="-87.97">
<stop stop-color="#FFF" offset="0"/>
<stop stop-color="#D09000" offset="1"/>
</linearGradient>
<path d="M258.73,90.161c64.094,33.043,97.37,102.26,87.768,169.83,16.015-70.133-16.601-144.88-83.5-179.37-70.955-36.581-156.41-15.472-202.88,46.194,48.89-54.765,130.33-71.852,198.61-36.649z" fill="url(#SVGID_65_)"/>
</g>
</g>
<g>
<defs>
<filter id="Adobe_OpacityMaskFilter_29_" height="197.36" width="290.402" y="65.117" x="58.254" filterUnits="userSpaceOnUse">
<feFlood result="back" flood-color="white" flood-opacity="1"/>
<feBlend mode="normal" in2="back" in="SourceGraphic"/>
</filter>
</defs>
<mask id="SVGID_66_" height="197.36" width="290.402" y="65.117" x="58.254" maskUnits="userSpaceOnUse">
<g filter="url(#Adobe_OpacityMaskFilter_29_)">
</g>
</mask>
<g mask="url(#SVGID_66_)">
<linearGradient id="SVGID_67_" y2="222.15" gradientUnits="userSpaceOnUse" x2="53.954" gradientTransform="matrix(-0.9828 0.1848 -0.1848 -0.9828 246.5557 310.367)" y1="103.76" x1="-85.685">
<stop stop-color="#FFF" offset="0"/>
<stop stop-color="#D09000" offset="1"/>
</linearGradient>
<path d="M256.87,92.643c64.093,33.043,97.37,102.26,87.768,169.84,16.014-70.134-16.602-144.89-83.501-179.38-70.954-36.581-156.41-15.472-202.88,46.194,48.89-54.764,130.33-71.85,198.61-36.647z" fill="url(#SVGID_67_)"/>
</g>
</g>
<g>
<defs>
<filter id="Adobe_OpacityMaskFilter_30_" height="197.36" width="290.402" y="59.534" x="61.976" filterUnits="userSpaceOnUse">
<feFlood result="back" flood-color="white" flood-opacity="1"/>
<feBlend mode="normal" in2="back" in="SourceGraphic"/>
</filter>
</defs>
<mask id="SVGID_68_" height="197.36" width="290.402" y="59.534" x="61.976" maskUnits="userSpaceOnUse">
<g filter="url(#Adobe_OpacityMaskFilter_30_)">
</g>
</mask>
<g mask="url(#SVGID_68_)">
<linearGradient id="SVGID_69_" y2="226.95" gradientUnits="userSpaceOnUse" x2="49.265" gradientTransform="matrix(-0.9828 0.1848 -0.1848 -0.9828 246.5557 310.367)" y1="108.56" x1="-90.373">
<stop stop-color="#FFF" offset="0"/>
<stop stop-color="#D09000" offset="1"/>
</linearGradient>
<path d="M260.59,87.06c64.093,33.043,97.37,102.26,87.768,169.84,16.014-70.134-16.602-144.89-83.501-179.38-70.954-36.581-156.41-15.472-202.88,46.194,48.89-54.766,130.33-71.853,198.61-36.65z" fill="url(#SVGID_69_)"/>
</g>
</g>
<g>
<defs>
<filter id="Adobe_OpacityMaskFilter_31_" height="197.359" width="290.402" y="60.774" x="59.495" filterUnits="userSpaceOnUse">
<feFlood result="back" flood-color="white" flood-opacity="1"/>
<feBlend mode="normal" in2="back" in="SourceGraphic"/>
</filter>
</defs>
<mask id="SVGID_70_" height="197.359" width="290.402" y="60.774" x="59.495" maskUnits="userSpaceOnUse">
<g filter="url(#Adobe_OpacityMaskFilter_31_)">
</g>
</mask>
<g mask="url(#SVGID_70_)">
<linearGradient id="SVGID_71_" y2="226.19" gradientUnits="userSpaceOnUse" x2="51.931" gradientTransform="matrix(-0.9828 0.1848 -0.1848 -0.9828 246.5557 310.367)" y1="107.8" x1="-87.707">
<stop stop-color="#FFF" offset="0"/>
<stop stop-color="#D09000" offset="1"/>
</linearGradient>
<path d="M258.11,88.3c64.093,33.043,97.37,102.26,87.768,169.83,16.014-70.133-16.602-144.88-83.501-179.37-70.954-36.581-156.41-15.472-202.88,46.195,48.89-54.776,130.33-71.862,198.61-36.66z" fill="url(#SVGID_71_)"/>
</g>
</g>
<g>
<defs>
<filter id="Adobe_OpacityMaskFilter_32_" height="309.802" width="158.962" y="72.97" x="195.389" filterUnits="userSpaceOnUse">
<feFlood result="back" flood-color="white" flood-opacity="1"/>
<feBlend mode="normal" in2="back" in="SourceGraphic"/>
</filter>
</defs>
<mask id="SVGID_72_" height="309.802" width="158.962" y="72.97" x="195.389" maskUnits="userSpaceOnUse">
<g filter="url(#Adobe_OpacityMaskFilter_32_)">
</g>
</mask>
<g mask="url(#SVGID_72_)">
<linearGradient id="SVGID_73_" y2="227.87" gradientUnits="userSpaceOnUse" x2="416.46" y1="227.87" x1="259.21">
<stop stop-color="#FFF" offset="0"/>
<stop stop-color="#D09000" offset="1"/>
</linearGradient>
<path d="M342.17,211.7c11.137,71.246-25.115,138.95-85.341,171.07,66.073-28.452,107.18-98.888,95.562-173.25-12.332-78.87-79.795-135.42-157-136.55,73.07,7.163,134.92,62.84,146.78,138.73z" fill="url(#SVGID_73_)"/>
</g>
</g>
<g>
<defs>
<filter id="Adobe_OpacityMaskFilter_33_" height="309.802" width="158.962" y="71.729" x="194.77" filterUnits="userSpaceOnUse">
<feFlood result="back" flood-color="white" flood-opacity="1"/>
<feBlend mode="normal" in2="back" in="SourceGraphic"/>
</filter>
</defs>
<mask id="SVGID_74_" height="309.802" width="158.962" y="71.729" x="194.77" maskUnits="userSpaceOnUse">
<g filter="url(#Adobe_OpacityMaskFilter_33_)">
</g>
</mask>
<g mask="url(#SVGID_74_)">
<linearGradient id="SVGID_75_" y2="226.63" gradientUnits="userSpaceOnUse" x2="415.84" y1="226.63" x1="258.59">
<stop stop-color="#FFF" offset="0"/>
<stop stop-color="#D09000" offset="1"/>
</linearGradient>
<path d="M341.55,210.46c11.136,71.246-25.116,138.95-85.342,171.07,66.074-28.452,107.19-98.888,95.562-173.25-12.33-78.87-79.79-135.42-157-136.55,73.07,7.163,134.92,62.831,146.78,138.73z" fill="url(#SVGID_75_)"/>
</g>
</g>
<g>
<defs>
<filter id="Adobe_OpacityMaskFilter_34_" height="309.801" width="158.962" y="68.626" x="194.149" filterUnits="userSpaceOnUse">
<feFlood result="back" flood-color="white" flood-opacity="1"/>
<feBlend mode="normal" in2="back" in="SourceGraphic"/>
</filter>
</defs>
<mask id="SVGID_76_" height="309.801" width="158.962" y="68.626" x="194.149" maskUnits="userSpaceOnUse">
<g filter="url(#Adobe_OpacityMaskFilter_34_)">
</g>
</mask>
<g mask="url(#SVGID_76_)">
<linearGradient id="SVGID_77_" y2="223.53" gradientUnits="userSpaceOnUse" x2="415.22" y1="223.53" x1="257.97">
<stop stop-color="#FFF" offset="0"/>
<stop stop-color="#D09000" offset="1"/>
</linearGradient>
<path d="M340.93,207.36c11.137,71.247-25.115,138.95-85.342,171.07,66.074-28.452,107.19-98.888,95.562-173.25-12.332-78.869-79.795-135.42-157-136.55,73.07,7.16,134.92,62.83,146.78,138.73z" fill="url(#SVGID_77_)"/>
</g>
</g>
<g>
<defs>
<filter id="Adobe_OpacityMaskFilter_35_" height="309.802" width="158.962" y="69.246" x="191.667" filterUnits="userSpaceOnUse">
<feFlood result="back" flood-color="white" flood-opacity="1"/>
<feBlend mode="normal" in2="back" in="SourceGraphic"/>
</filter>
</defs>
<mask id="SVGID_78_" height="309.802" width="158.962" y="69.246" x="191.667" maskUnits="userSpaceOnUse">
<g filter="url(#Adobe_OpacityMaskFilter_35_)">
</g>
</mask>
<g mask="url(#SVGID_78_)">
<linearGradient id="SVGID_79_" y2="224.15" gradientUnits="userSpaceOnUse" x2="412.74" y1="224.15" x1="255.49">
<stop stop-color="#FFF" offset="0"/>
<stop stop-color="#D09000" offset="1"/>
</linearGradient>
<path d="M338.45,207.98c11.137,71.246-25.115,138.95-85.342,171.07,66.074-28.452,107.19-98.888,95.562-173.25-12.333-78.869-79.795-135.42-157-136.55,73.07,7.159,134.91,62.83,146.78,138.73z" fill="url(#SVGID_79_)"/>
</g>
</g>
<g>
<defs>
<filter id="Adobe_OpacityMaskFilter_36_" height="309.801" width="158.962" y="71.107" x="186.084" filterUnits="userSpaceOnUse">
<feFlood result="back" flood-color="white" flood-opacity="1"/>
<feBlend mode="normal" in2="back" in="SourceGraphic"/>
</filter>
</defs>
<mask id="SVGID_80_" height="309.801" width="158.962" y="71.107" x="186.084" maskUnits="userSpaceOnUse">
<g filter="url(#Adobe_OpacityMaskFilter_36_)">
</g>
</mask>
<g mask="url(#SVGID_80_)">
<linearGradient id="SVGID_81_" y2="226.01" gradientUnits="userSpaceOnUse" x2="407.15" y1="226.01" x1="249.91">
<stop stop-color="#FFF" offset="0"/>
<stop stop-color="#D09000" offset="1"/>
</linearGradient>
<path d="M332.86,209.84c11.137,71.246-25.115,138.95-85.341,171.07,66.073-28.452,107.19-98.888,95.562-173.25-12.332-78.869-79.795-135.42-157-136.55,73.08,7.16,134.92,62.83,146.78,138.73z" fill="url(#SVGID_81_)"/>
</g>
</g>
<g>
<defs>
<filter id="Adobe_OpacityMaskFilter_37_" height="309.801" width="158.962" y="69.866" x="189.187" filterUnits="userSpaceOnUse">
<feFlood result="back" flood-color="white" flood-opacity="1"/>
<feBlend mode="normal" in2="back" in="SourceGraphic"/>
</filter>
</defs>
<mask id="SVGID_82_" height="309.801" width="158.962" y="69.866" x="189.187" maskUnits="userSpaceOnUse">
<g filter="url(#Adobe_OpacityMaskFilter_37_)">
</g>
</mask>
<g mask="url(#SVGID_82_)">
<linearGradient id="SVGID_83_" y2="224.77" gradientUnits="userSpaceOnUse" x2="410.25" y1="224.77" x1="253.01">
<stop stop-color="#FFF" offset="0"/>
<stop stop-color="#D09000" offset="1"/>
</linearGradient>
<path d="M335.97,208.6c11.136,71.246-25.115,138.95-85.342,171.07,66.074-28.452,107.19-98.888,95.562-173.25-12.333-78.869-79.795-135.42-157-136.55,73.07,7.159,134.91,62.83,146.78,138.73z" fill="url(#SVGID_83_)"/>
</g>
</g>
<g>
<defs>
<filter id="Adobe_OpacityMaskFilter_38_" height="149.714" width="312.807" y="57.235" x="30.644" filterUnits="userSpaceOnUse">
<feFlood result="back" flood-color="white" flood-opacity="1"/>
<feBlend mode="normal" in2="back" in="SourceGraphic"/>
</filter>
</defs>
<mask id="SVGID_84_" height="149.714" width="312.807" y="57.235" x="30.644" maskUnits="userSpaceOnUse">
<g filter="url(#Adobe_OpacityMaskFilter_38_)">
</g>
</mask>
<g mask="url(#SVGID_84_)">
<linearGradient id="SVGID_85_" y2="290.55" gradientUnits="userSpaceOnUse" x2="463.92" gradientTransform="matrix(0.0572 -0.9984 0.9984 0.0572 -118.6877 441.6633)" y1="290.55" x1="306.68">
<stop stop-color="#FFF" offset="0"/>
<stop stop-color="#D09000" offset="1"/>
</linearGradient>
<path d="M177.55,68.347c71.765-7.041,137.28,33.021,165.9,94.989-24.623-67.593-92.593-112.67-167.5-105.32-79.446,7.797-139.76,71.916-145.31,148.93,11.336-72.54,70.46-131.1,146.91-138.6z" fill="url(#SVGID_85_)"/>
</g>
</g>
<g>
<defs>
<filter id="Adobe_OpacityMaskFilter_39_" height="151.756" width="277.287" y="79.833" x="50.143" filterUnits="userSpaceOnUse">
<feFlood result="back" flood-color="white" flood-opacity="1"/>
<feBlend mode="normal" in2="back" in="SourceGraphic"/>
</filter>
</defs>
<mask id="SVGID_86_" height="151.756" width="277.287" y="79.833" x="50.143" maskUnits="userSpaceOnUse">
<g filter="url(#Adobe_OpacityMaskFilter_39_)">
</g>
</mask>
<g mask="url(#SVGID_86_)">
<linearGradient id="SVGID_87_" y2="173.03" gradientUnits="userSpaceOnUse" x2="47.634" gradientTransform="matrix(-0.6446 0.7645 -0.7645 -0.6446 263.7292 233.6228)" y1="65.824" x1="-78.822">
<stop stop-color="#B98500" offset="0"/>
<stop stop-color="#FFBE2E" offset="1"/>
</linearGradient>
<path d="M168.61,92.165c63.886-13.511,126.86,16,158.82,68.911-28.921-58.376-94.599-92.15-161.28-78.047-70.729,14.952-118.6,78.687-115.9,148.56,2.947-66.42,50.309-125.03,118.36-139.42z" fill="url(#SVGID_87_)"/>
</g>
</g>
<g>
<defs>
<filter id="Adobe_OpacityMaskFilter_40_" height="158.069" width="274.36" y="223.855" x="66.595" filterUnits="userSpaceOnUse">
<feFlood result="back" flood-color="white" flood-opacity="1"/>
<feBlend mode="normal" in2="back" in="SourceGraphic"/>
</filter>
</defs>
<mask id="SVGID_88_" height="158.069" width="274.36" y="223.855" x="66.595" maskUnits="userSpaceOnUse">
<g filter="url(#Adobe_OpacityMaskFilter_40_)">
</g>
</mask>
<g mask="url(#SVGID_88_)">
<linearGradient id="SVGID_89_" y2="246.87" gradientUnits="userSpaceOnUse" x2="158.21" gradientTransform="matrix(0.611 -0.7917 0.7917 0.611 1.0706 273.4757)" y1="139.67" x1="31.767">
<stop stop-color="#B98500" offset="0"/>
<stop stop-color="#FFBE2E" offset="1"/>
</linearGradient>
<path d="M228.24,368.26c-63.242,16.258-127.43-10.506-161.64-61.985,31.415,57.071,98.49,87.977,164.5,71.006,70.014-17.996,115.09-83.743,109.37-153.43-0.07,66.48-44.86,127.09-112.23,144.4z" fill="url(#SVGID_89_)"/>
</g>
</g>
<g>
<g>
<path d="M132.75,315.22l-1.507,0.598,0.534-1.507s0.162-0.711-0.416-0.306c-0.062-0.089-3.501,1.538-3.501,1.538l-0.751,0.065-0.021,0.345,0.772,0.722,0.266-0.188s-0.313-0.443,0.345-0.642c0.657-0.198,1.906-0.88,1.906-0.88l-0.462,1.325-1.512,0.399-0.292,0.34,2.156,1.735,0.191-0.201-0.181-0.536,0.634-1.646,0.956-0.34-0.974,2.482-0.311,0.22-0.203,0.276,1.294,1.081,0.236-0.234-0.087-0.403,1.316-3.787c-0.01,0.01,0.41-0.62-0.4-0.45zm-3.23,2.21l-0.476-0.394,0.594-0.287-0.11,0.68z" fill="#FFF"/>
</g>
<path d="M133.03,319.73l-0.578,0.817s1.417,2.453,3.185,0.925c0.85-0.843-0.407-1.904-0.654-2.339-0.248-0.437-0.313-1.478,1.049-1.026,1.169,0.479,0.422,1.597,0.422,1.597l0.372,0.251s1.324-1.128-0.395-2.137c-1.719-1.007-3.178-0.271-2.623,1.717,0,0,1.221,1.828,0.298,1.785-1.229-0.061-0.705-1.342-0.705-1.342l-0.39-0.25z" fill="#FFF"/>
</g>
<g>
<g>
<path d="M109.01,162.35l-0.848-1.522,1.68,0.357s0.782,0.073,0.267-0.485c0.086-0.079-2.131-3.516-2.131-3.516l-0.175-0.792-0.374,0.026-0.657,0.923,0.238,0.258s0.429-0.396,0.732,0.278c0.304,0.673,1.204,1.908,1.204,1.908l-1.475-0.307-0.641-1.556-0.403-0.263-1.549,2.541,0.242,0.175,0.548-0.267,1.842,0.446,0.499,0.97-2.784-0.69-0.277-0.301-0.324-0.177-0.97,1.531,0.28,0.218,0.419-0.149,4.223,0.873c0.01,0,0.74,0.36,0.44-0.48zm-2.8-3.13l0.354-0.564,0.389,0.594-0.74-0.03z" fill="#FFF"/>
</g>
<path d="M105.16,169.22l0.827-1.468-0.297-0.282s-0.104,0.706-0.986,0.193c-0.882-0.514-2.353-1.422-2.353-1.422l4.738-0.42,0.319-0.422-3.911-2.495,0.069-0.497-0.294-0.199-0.785,1.509,0.29,0.034,0.404-0.342,2.018,1.266-3.42,0.301-0.905,1.637,0.252,0.158,0.651-0.348,2.817,1.781s0.584,0.232,0.186,0.739l0.37,0.28z" fill="#FFF"/>
</g>
<g opacity="0.8" fill="#FFF">
<path d="M245.73,136.38l1.801,0.803,0.295-0.376s-0.834-0.044-0.333-1.127c0.502-1.082,1.401-2.892,1.401-2.892l1.003,5.472,0.527,0.324,2.479-4.824,0.587,0.026,0.198-0.365-1.841-0.75-0.007,0.342,0.441,0.434-1.254,2.486-0.722-3.95-2.005-0.876-0.158,0.312,0.479,0.72-1.769,3.474s-0.205,0.705-0.84,0.295l-0.28,0.48z"/>
<path d="M251.39,138.92l0.218-0.353s0.648,0.294,0.887-0.496c0.398-0.559,1.732-3.021,1.732-3.021s0.165-0.397-0.246-0.758c-0.005-0.095,0.271-0.308,0.271-0.308l3.451,1.655-0.495,1.292-0.443-0.116s0.27-1.034-0.469-1.226c0.095-0.007-0.843-0.282-0.996,0.308-0.152,0.592-0.469,0.952-0.469,0.952s0.689,0.874,1.267,0.108c0.198,0.084,0.405,0.264,0.405,0.264l-0.917,1.466-0.354-0.218s0.34-0.7-0.656-1.118c0.045-0.052-0.865,1.511-0.865,1.511s-0.347,0.603,0.353,0.944c0.701,0.339,1.42-0.483,1.42-0.483l0.554,0.302-0.933,1.272-3.7-1.96z"/>
</g>
<g fill="#FFF">
<path d="M287.37,285.27l0.905,0.583s2.559-1.624,0.844-3.447c-0.94-0.872-2.02,0.52-2.476,0.805-0.452,0.286-1.562,0.402-1.14-1.077,0.46-1.275,1.688-0.523,1.688-0.523l0.247-0.409s-1.267-1.366-2.267,0.519c-1.001,1.886-0.145,3.416,1.956,2.729,0,0,1.904-1.389,1.897-0.402-0.01,1.32-1.403,0.816-1.403,0.816l-0.26,0.41z"/>
<path d="M284.15,283.74l0.284,0.215s-0.304,0.525,0.351,0.791c0.443,0.381,2.428,1.7,2.428,1.7s0.325,0.173,0.663-0.146c0.078,0.001,0.24,0.252,0.24,0.252l-1.672,2.799-1.057-0.514,0.131-0.371s0.856,0.309,1.076-0.306c0,0.082,0.308-0.69-0.186-0.866-0.488-0.177-0.772-0.473-0.772-0.473s-0.788,0.516-0.187,1.068c-0.084,0.158-0.253,0.321-0.253,0.321l-1.176-0.896,0.218-0.278s0.563,0.342,0.994-0.473c0.042,0.044-1.212-0.849-1.212-0.849s-0.49-0.342-0.829,0.224c-0.343,0.567,0.299,1.241,0.299,1.241l-0.299,0.447-1.008-0.891,1.98-2.99z"/>
</g>
<g>
<path d="M188.31,137.54c0.331,1.297,0.094,2.045-0.711,2.251-0.432,0.111-0.835,0.047-1.208-0.188-0.373-0.236-0.792-0.553-1.255-0.951l-18.728-15.551c-0.198-0.123-0.357-0.168-0.481-0.137-0.093,0.024-0.091,0.225,0.005,0.6l3.418,13.397c0.316,1.237,0.632,2.152,0.948,2.745,0.316,0.592,0.764,0.931,1.343,1.01,0.344,0.056,0.674,0.057,0.991,0.005,0.314-0.051,0.6-0.102,0.852-0.152,0.249-0.049,0.465-0.047,0.645,0.008,0.177,0.055,0.299,0.205,0.36,0.443,0.152,0.595-0.175,0.993-0.98,1.199-0.34,0.086-0.814,0.165-1.424,0.232-0.607,0.069-1.33,0.209-2.164,0.421-0.838,0.213-1.507,0.427-2.011,0.642-0.505,0.218-0.898,0.36-1.176,0.432-0.68,0.172-1.097-0.036-1.248-0.629-0.055-0.214-0.049-0.382,0.02-0.499,0.07-0.119,0.193-0.214,0.372-0.288,0.18-0.075,0.39-0.157,0.63-0.248,0.239-0.09,0.502-0.226,0.784-0.413,0.483-0.296,0.719-0.786,0.711-1.471-0.011-0.686-0.182-1.675-0.512-2.964l-3.736-14.646c-0.227-0.889-0.458-1.574-0.698-2.058-0.238-0.482-0.599-0.764-1.081-0.841-0.238-0.025-0.473-0.017-0.708,0.029-0.234,0.047-0.457,0.083-0.666,0.108-0.208,0.022-0.385,0.003-0.534-0.058-0.146-0.064-0.251-0.217-0.312-0.459-0.151-0.592,0.066-0.962,0.654-1.112,0.124-0.032,0.533-0.107,1.226-0.227,0.696-0.119,1.721-0.353,3.082-0.7,0.803-0.205,1.457-0.385,1.96-0.542,0.502-0.155,0.848-0.26,1.032-0.307,0.371-0.095,0.646-0.113,0.825-0.058,0.178,0.054,0.432,0.212,0.763,0.473l13.774,11.228c0.247,0.194,0.433,0.276,0.557,0.244,0.247-0.063,0.323-0.282,0.227-0.659l-2.194-8.595c-0.316-1.237-0.638-2.145-0.966-2.719-0.327-0.574-0.781-0.903-1.365-0.986-0.374-0.046-0.721-0.043-1.035,0.006-0.318,0.055-0.595,0.096-0.833,0.128-0.24,0.032-0.44,0.02-0.603-0.04-0.165-0.059-0.276-0.209-0.338-0.452-0.152-0.593,0.16-0.985,0.933-1.182,0.434-0.112,0.819-0.173,1.162-0.19,0.344-0.014,0.62-0.05,0.838-0.104,0.062-0.018,0.226-0.049,0.493-0.104,0.266-0.054,0.647-0.143,1.143-0.269,0.525-0.135,0.909-0.239,1.154-0.316,0.244-0.075,0.397-0.124,0.459-0.14,0.153-0.039,0.361-0.126,0.623-0.267,0.262-0.137,0.577-0.254,0.95-0.349,0.678-0.174,1.095,0.035,1.246,0.627,0.055,0.216,0.046,0.375-0.025,0.479-0.073,0.104-0.188,0.199-0.348,0.28-0.16,0.086-0.369,0.174-0.625,0.27-0.255,0.092-0.525,0.233-0.806,0.419-0.485,0.296-0.722,0.786-0.712,1.471,0.01,0.686,0.179,1.674,0.51,2.963l4.8,18.77z" fill="#FFF"/>
</g>
<g>
<path d="M302.26,210.1c-0.386,0.126-0.698,0.194-0.935,0.211s-0.41-0.142-0.516-0.473c-0.116-0.356,0.025-0.729,0.418-1.113,0.391-0.385,0.893-0.947,1.503-1.69,0.845-1.059,0.998-2.429,0.46-4.107-0.384-1.184-0.833-1.897-1.349-2.141-0.513-0.245-1.127-0.251-1.836-0.024l-5.864,1.883c-0.382,0.122-0.604,0.337-0.672,0.648-0.065,0.311,0.003,0.781,0.205,1.415,0.267,0.826,0.532,1.465,0.802,1.93,0.271,0.458,0.617,0.739,1.045,0.846,0.494,0.114,0.929,0.17,1.31,0.171,0.38,0,0.698,0.002,0.958,0.011,0.264,0.007,0.479,0.043,0.65,0.109,0.173,0.066,0.297,0.209,0.365,0.429,0.063,0.193,0.035,0.387-0.089,0.574-0.12,0.19-0.331,0.337-0.632,0.435-0.166,0.053-0.521,0.134-1.058,0.249-0.542,0.112-1.28,0.32-2.212,0.62-1.007,0.323-1.878,0.614-2.613,0.879-0.734,0.268-1.334,0.479-1.803,0.629-0.605,0.194-0.983,0.055-1.135-0.412-0.131-0.413-0.005-0.751,0.384-1.009,0.386-0.262,0.812-0.604,1.283-1.029,0.62-0.533,1.009-1.045,1.169-1.537,0.161-0.49,0.102-1.176-0.183-2.057-0.053-0.165-0.106-0.332-0.159-0.497-0.053-0.164-0.124-0.336-0.213-0.521l-0.23-0.429c-0.158-0.313-0.405-0.416-0.734-0.31l-6.482,2.082c-0.69,0.221-1.287,0.442-1.792,0.666-0.505,0.223-0.899,0.494-1.178,0.81-0.278,0.316-0.437,0.718-0.478,1.202-0.042,0.483,0.051,1.084,0.279,1.8,0.268,0.823,0.688,1.534,1.256,2.123,0.569,0.59,1.229,1.022,1.986,1.297,0.583,0.209,1.106,0.352,1.572,0.431,0.465,0.077,0.87,0.139,1.22,0.177,0.345,0.042,0.634,0.109,0.861,0.203,0.227,0.093,0.376,0.249,0.448,0.469,0.166,0.522-0.176,0.922-1.03,1.194-0.376,0.061-0.736,0.116-1.085,0.167l-3.624,0.618c-0.461,0.087-0.836,0.086-1.123-0.002-0.285-0.093-0.492-0.33-0.616-0.714-0.104-0.331-0.339-1.355-0.693-3.08-0.354-1.72-1.015-4.085-1.979-7.088-0.587-1.823-1.106-3.225-1.56-4.205-0.448-0.983-0.714-1.582-0.781-1.803-0.186-0.577,0.022-0.961,0.625-1.157,0.304-0.097,0.527-0.055,0.677,0.126,0.148,0.18,0.345,0.501,0.585,0.97,0.316,0.598,0.638,0.967,0.967,1.104,0.331,0.135,0.843,0.092,1.528-0.125l18.656-5.995c0.602-0.192,1.018-0.434,1.245-0.718,0.228-0.286,0.312-0.706,0.253-1.268-0.065-0.584-0.116-1.023-0.149-1.315-0.034-0.292,0.14-0.5,0.523-0.624,0.578-0.185,0.963,0.022,1.159,0.629,0.042,0.14,0.186,0.751,0.433,1.847,0.244,1.088,0.718,2.729,1.421,4.909,0.776,2.425,1.473,4.375,2.081,5.848,0.61,1.476,1.011,2.501,1.194,3.078,0.135,0.413,0.173,0.705,0.12,0.873-0.051,0.168-0.246,0.307-0.58,0.412l-4.24,1.36z" fill="#FFF"/>
</g>
<g>
<path d="M208.97,332.96c-0.149-0.595,0.013-0.933,0.485-1.014,0.439-0.078,0.812,0.078,1.121,0.465,0.308,0.389,0.684,0.896,1.123,1.524,0.771,1.104,1.518,1.908,2.243,2.414,0.727,0.505,1.748,0.643,3.062,0.412,1.218-0.215,2.136-0.73,2.757-1.547,0.624-0.815,0.798-1.759,0.531-2.831-0.186-0.734-0.473-1.288-0.865-1.661-0.393-0.372-0.871-0.67-1.438-0.896-0.563-0.226-1.205-0.407-1.927-0.544-0.72-0.138-1.492-0.312-2.316-0.52-1.385-0.347-2.619-0.741-3.693-1.183-1.077-0.445-2.016-0.958-2.812-1.54-0.796-0.581-1.455-1.254-1.98-2.014-0.525-0.763-0.916-1.649-1.172-2.667-0.331-1.327-0.371-2.61-0.115-3.846,0.255-1.237,0.77-2.359,1.545-3.366,0.774-1.005,1.769-1.862,2.98-2.576,1.212-0.715,2.613-1.213,4.198-1.494,0.809-0.14,1.59-0.218,2.344-0.232,0.757-0.013,1.467,0.018,2.138,0.091,0.671,0.074,1.26,0.18,1.77,0.312,0.508,0.133,0.905,0.276,1.192,0.435,0.367,0.201,0.625,0.488,0.772,0.861,0.146,0.37,0.309,0.923,0.494,1.657l0.893,3.557c0.156,0.621-0.069,0.984-0.676,1.092-0.471,0.084-0.831-0.156-1.078-0.716-0.247-0.562-0.659-1.292-1.239-2.193-1.55-2.526-3.658-3.555-6.322-3.086-1.688,0.298-2.926,0.936-3.72,1.915-0.793,0.979-1.027,2.117-0.7,3.415,0.177,0.705,0.458,1.298,0.842,1.773,0.383,0.479,0.872,0.895,1.47,1.245,0.598,0.349,1.315,0.66,2.153,0.925,0.842,0.264,1.8,0.523,2.883,0.774,1.271,0.306,2.411,0.65,3.42,1.032,1.009,0.384,1.879,0.84,2.609,1.376,0.73,0.534,1.344,1.155,1.838,1.862,0.492,0.711,0.865,1.558,1.114,2.546,0.303,1.213,0.321,2.381,0.056,3.504-0.267,1.122-0.765,2.13-1.495,3.026-0.73,0.894-1.645,1.65-2.739,2.273-1.098,0.617-2.304,1.045-3.62,1.275-1.383,0.244-2.633,0.314-3.751,0.213-1.117-0.1-1.897-0.26-2.339-0.479-0.327-0.182-0.558-0.386-0.683-0.614-0.13-0.229-0.244-0.542-0.342-0.938l-0.105-0.423-0.87-3.58z" fill="#FFF"/>
</g>
<g>
<path d="M107.12,248.28c0.197-0.144,0.286-0.256,0.262-0.34-0.03-0.11-0.165-0.176-0.41-0.198l-4.669-0.638c-0.062-0.015-0.154-0.016-0.272-0.015-0.117,0-0.244,0.022-0.384,0.061-0.359,0.098-0.589,0.178-0.692,0.234l-8.439,5.603c-0.554,0.358-0.904,0.709-1.05,1.043-0.145,0.338-0.241,0.644-0.282,0.924-0.042,0.277-0.087,0.521-0.135,0.727-0.048,0.205-0.237,0.354-0.57,0.445-0.227,0.062-0.446,0.049-0.655-0.042-0.208-0.093-0.343-0.249-0.403-0.471-0.046-0.165-0.153-0.752-0.325-1.759-0.171-1.007-0.51-2.434-1.015-4.283-0.521-1.907-0.963-3.366-1.33-4.378-0.365-1.013-0.579-1.631-0.639-1.853-0.106-0.387-0.116-0.665-0.029-0.838,0.087-0.171,0.283-0.3,0.585-0.381,0.303-0.084,0.529-0.078,0.672,0.016,0.145,0.095,0.292,0.231,0.446,0.411,0.155,0.18,0.366,0.359,0.637,0.538,0.271,0.18,0.699,0.309,1.284,0.383l6.495,0.808c0.244,0.021,0.476,0.001,0.696-0.059,0.111-0.029,0.206-0.062,0.284-0.098,0.079-0.037,0.171-0.086,0.273-0.143l6.571-4.29c0.253-0.158,0.364-0.293,0.334-0.403-0.03-0.111-0.194-0.168-0.494-0.175l-11.979-0.687c-0.785-0.053-1.463-0.061-2.031-0.025-0.569,0.039-1.005,0.098-1.309,0.18-0.495,0.138-0.837,0.329-1.022,0.57-0.186,0.243-0.317,0.496-0.395,0.753-0.077,0.26-0.155,0.496-0.23,0.71-0.075,0.215-0.25,0.358-0.528,0.435-0.552,0.148-0.899-0.036-1.043-0.562-0.014-0.055-0.053-0.283-0.118-0.68-0.064-0.398-0.194-0.958-0.392-1.674-0.219-0.8-0.41-1.423-0.577-1.868-0.165-0.443-0.259-0.707-0.282-0.791-0.083-0.303-0.07-0.528,0.036-0.68,0.109-0.145,0.3-0.258,0.575-0.332,0.249-0.071,0.438-0.084,0.568-0.046,0.129,0.04,0.246,0.113,0.348,0.217,0.103,0.107,0.21,0.226,0.32,0.357,0.111,0.135,0.262,0.278,0.453,0.433,0.304,0.246,0.828,0.449,1.571,0.618,0.744,0.167,1.719,0.293,2.929,0.38l15.004,0.836c1.238,0.078,2.317,0.116,3.237,0.118,0.921,0,1.689,0.02,2.309,0.058,0.619,0.039,1.092,0.117,1.42,0.235,0.33,0.116,0.539,0.341,0.629,0.672,0.069,0.249,0.056,0.477-0.037,0.68-0.093,0.202-0.273,0.407-0.542,0.614-0.27,0.207-0.626,0.454-1.067,0.739-0.442,0.282-0.992,0.633-1.649,1.049l-5.586,3.666c-0.15,0.1-0.21,0.205-0.182,0.317,0.016,0.055,0.132,0.097,0.347,0.128l6.027,0.71c0.765,0.086,1.45,0.151,2.055,0.194,0.607,0.044,1.134,0.099,1.581,0.169,0.452,0.069,0.807,0.179,1.07,0.329,0.264,0.155,0.438,0.38,0.521,0.684,0.127,0.469-0.063,0.907-0.573,1.312-0.512,0.408-1.407,1.039-2.685,1.892l-13.221,9.048c-1.419,0.983-2.558,1.783-3.412,2.403-0.854,0.617-1.393,1.106-1.622,1.466-0.167,0.253-0.273,0.513-0.319,0.778-0.046,0.266-0.083,0.513-0.11,0.741-0.026,0.23-0.082,0.429-0.17,0.604-0.085,0.171-0.267,0.296-0.542,0.369-0.228,0.065-0.449,0.043-0.66-0.063-0.213-0.105-0.35-0.27-0.41-0.489-0.061-0.22-0.134-0.688-0.224-1.408-0.089-0.716-0.296-1.67-0.621-2.857-0.197-0.718-0.392-1.322-0.589-1.818-0.195-0.496-0.348-0.937-0.453-1.323-0.105-0.388-0.13-0.671-0.071-0.849,0.058-0.18,0.244-0.311,0.556-0.396,0.248-0.069,0.443-0.063,0.584,0.019,0.14,0.078,0.273,0.186,0.397,0.314s0.27,0.23,0.438,0.303c0.169,0.071,0.392,0.069,0.667-0.005,0.139-0.038,0.32-0.109,0.542-0.215,0.224-0.105,0.458-0.251,0.704-0.438l12.996-8.7zm-16.357-2.85c-0.295,0.01-0.582,0.05-0.857,0.126-0.498,0.136-0.855,0.372-1.073,0.716-0.219,0.342-0.265,0.745-0.135,1.216,0.12,0.443,0.351,0.765,0.688,0.969,0.338,0.205,0.702,0.254,1.086,0.147,0.112-0.029,0.327-0.131,0.65-0.312,0.324-0.176,0.73-0.45,1.222-0.823l1.486-1.073c0.227-0.151,0.328-0.268,0.305-0.35-0.015-0.056-0.151-0.121-0.411-0.199l-2.142-0.352c-0.251-0.08-0.524-0.1-0.819-0.09z" fill="#FFF"/>
</g>
<g opacity="0.59">
<radialGradient id="SVGID_90_" gradientUnits="userSpaceOnUse" cy="114.82" cx="185.82" gradientTransform="matrix(1.8609 0 0 1.8609 -164.4307 -177.5255)" r="190.59">
<stop stop-color="#FFF" offset="0"/>
<stop stop-color="#000" offset="1"/>
</radialGradient>
<path stroke="#000" stroke-width="0.25" d="M317.64,226.27c0.006-0.479,0.036-0.954,0.036-1.436,0-68.326-55.39-123.71-123.71-123.71-68.324,0-123.71,55.388-123.71,123.71,0,1.667,0.06,3.316,0.125,4.967,36.886-20.918,80.329-32.997,126.84-32.997,43.84,0,84.96,10.72,120.42,29.47z" fill="url(#SVGID_90_)"/>
</g>
</svg>
