<svg xmlns="http://www.w3.org/2000/svg" height="424.5" width="459.9" viewBox="-230 -171 459.89999 424.5"><defs><clipPath id="a"><path d="M178 176v-364L12.2-22.2 12.19 110h-24.38V-22.2L-177.99-188v364"/></clipPath></defs><path fill="#484848" d="M192.6 199.3h15.1l22.2 53.4h-14.2l-4-10h-23.1l-4 10h-14.3zm-.5 33.9h16l-8-20.6zm-41.1-33h13.1v52.5H151zm-62.1 0h19.8c10.7 0 18.9 2.2 24.2 6.5 5.4 4.4 8 10.9 8 19.6 0 8.8-2.6 15.4-7.7 19.7-5.2 4.4-12.9 6.8-23.2 6.7H88.9zm12.9 42.8h8.2c5.8 0 10-1.5 12.9-4.2s4.3-6.8 4.3-12.4c0-5.5-1.6-9.7-4.7-12.4-2.9-2.8-7.6-4.2-13.8-4.2h-6.9zm-61.6 9.7v-52.5h38.7v9.4H53.3v11.3h24v9.4h-24v12.8h25.6v9.6zm-55 0h-13.1v-52.5h11.8L.3 219.1l16.3-18.9h11.8v52.5H15.2v-32.3L1.4 236.5H-.9l-13.9-16.1zm-38.3-52.5h13.2v52.5h-13.2zm-55.6 52.5v-52.5h13v24.9l16.8-24.9h14.7l-18.2 25.1 23.8 27.4h-16.7l-20.4-25.1v25.1zm-25.1-52.5h13.1v52.5h-13.1zm-73.2 53.3l-23-53.4h14.4l11.9 29.5 13.6-29.5h10.2l13.5 29.5 11.9-29.5h14.4l-22.9 53.4h-5.7l-16.3-33.2-16.4 33.2z"/><g transform="translate(0 2.5)" clip-path="url(#a)"><circle stroke-width="46" stroke="#069" r="150.5" fill="none"/><circle r="104.3" fill="#396"/></g><circle cy="-110.5" r="57.3" fill="#900"/></svg>