<svg xmlns:rdf="http://www.w3.org/1999/02/22-rdf-syntax-ns#" xmlns="http://www.w3.org/2000/svg" height="100%" viewBox="0 0 100 99.148132" width="100%" version="1.1" y="0px" x="0px" xmlns:cc="http://creativecommons.org/ns#" xmlns:dc="http://purl.org/dc/elements/1.1/">
<path d="m84.184 0h-69.211c-8.2694 0-14.973 6.7036-14.973 14.973v69.203c0 8.2694 6.7036 14.973 14.973 14.973h69.21c8.2698 0 14.973-6.7036 15.817-14.691v-69.202c-0.84344-8.5508-7.5475-15.255-15.816-15.255z" fill="#e5e5e5"/>
<g transform="matrix(.42193 0 0 .42193 -162.08 -138.75)">
<path d="m433.28 353.76h15.304l1.97 7.879 1.667 5.818 1.364 5.697 1.364 5.939 1.061 4.97h0.606l1.061-4.97 1.212-5.939 1.515-5.697 1.515-5.818 2.121-7.879h14.849l-15.758 47.274v33.577h-14.091v-33.577l-15.76-47.274z"/>
<path d="m497.83 373.64c11.97 0 18.031 5.697 18.031 16.97v27.88c0 11.273-6.061 16.97-18.031 16.97s-18.031-5.697-18.031-16.97v-27.88c0-11.272 6.06-16.97 18.031-16.97zm0 9.698c-3.182 0-4.849 1.939-4.849 5.576v31.272c0 3.515 1.818 5.576 4.849 5.576s4.849-2.061 4.849-5.576v-31.272c-0.001-3.637-1.819-5.576-4.849-5.576z"/>
<path d="m553.43 434.61-1.061-5.212c-5.455 4.485-8.638 6.061-12.426 6.061-3.182 0-6.515-1.455-8.029-3.394-1.668-2.061-2.121-4.243-2.121-10.425v-47.274h13.182v46.911c0 3.03 1.061 4.485 3.484 4.485 1.668 0 3.183-0.606 5.91-2.424v-48.972h13.183v60.244h-12.122z"/>
</g>
<path d="m21.2 49.254h56.148c8.2698 0 14.973 6.707 14.973 14.977v13.055c0 8.2698-6.7044 14.973-14.973 14.973h-56.148c-8.2694 0-14.973-6.7044-14.973-14.973v-13.055c0-8.2698 6.7036-14.977 14.973-14.977z" fill="#cb322c"/>
<g transform="matrix(.42193 0 0 .42193 -4.4286 -4.4324)" fill="#linearGradient3805">
<g fill="#FFF">
<path d="m56.337 150.48h-11.983v-9.588h37.328v9.588h-12.535v63.914h-12.81v-63.914z"/>
<path d="m105.37 214.4-0.964-4.737c-4.958 4.077-7.851 5.51-11.294 5.51-2.893 0-5.923-1.321-7.3-3.086-1.515-1.873-1.929-3.856-1.929-9.478v-42.978h11.984v42.646c0 2.756 0.964 4.078 3.168 4.078 1.515 0 2.893-0.552 5.372-2.203v-44.521h11.984v54.77h-11.021v-0.001z"/>
<path d="m129.34 140.9h11.983v23.914c4.683-4.188 7.851-5.841 11.433-5.841 2.756 0 5.785 1.322 7.162 3.085 1.516 1.983 1.93 3.969 1.93 9.809v30.414c0 5.73-0.414 7.715-1.93 9.697-1.377 1.875-4.406 3.196-7.3 3.196-3.582 0-6.612-1.653-11.295-5.951v5.181h-11.983v-73.504zm17.355 65.459c2.203 0 3.168-1.322 3.168-4.078v-30.416c0-2.864-0.965-4.076-3.168-4.076-1.516 0-2.894 0.551-5.372 2.203v34.162c2.48 1.653 3.857 2.205 5.372 2.205z"/>
<path d="m207.16 195.22v1.983c0.138 1.433 0.138 2.425 0.138 2.976 0 9.697-5.923 14.987-16.805 14.987-10.33 0-16.115-5.51-16.115-15.428v-25.456c0-10.358 5.51-15.317 16.666-15.317 9.918 0 16.116 5.179 16.116 13.664v16.089h-20.799v12.012c0 3.969 1.239 5.621 4.407 5.621 1.516 0 2.893-0.662 3.58-1.652 0.689-0.992 0.828-2.204 0.828-6.171v-3.308h11.984zm-11.983-14.216v-9.257c0-2.534-1.652-3.967-4.408-3.967-2.754 0-4.406 1.433-4.406 3.967v9.257h8.814z"/>
</g>
</g>
</svg>
