<svg xmlns="http://www.w3.org/2000/svg" viewBox="0 0 100 99.148132">
    <path d="M84.184 0h-69.21C6.703 0 0 6.704 0 14.973v69.203c0 8.27 6.704 14.973 14.973 14.973h69.21c8.27 0 14.973-6.705 15.817-14.692V15.256C99.157 6.706 92.452 0 84.184 0z" fill="#e5e5e5"/>
    <path d="M20.734 10.512h6.457l.832 3.324.704 2.455.575 2.405.577 2.506.447 2.098h.256l.448-2.097.51-2.505.64-2.404.64-2.454.894-3.324h6.266l-6.65 19.946v14.167h-5.945V30.458l-6.65-19.946zM47.97 18.9c5.05 0 7.607 2.404 7.607 7.16v11.763c0 4.757-2.557 7.16-7.608 7.16s-7.608-2.403-7.608-7.16V26.06c0-4.756 2.556-7.16 7.607-7.16zm0 4.092c-1.343 0-2.047.818-2.047 2.352V38.54c0 1.482.768 2.352 2.046 2.352s2.045-.87 2.045-2.353V25.343c0-1.534-.767-2.352-2.046-2.352zm23.46 21.633l-.45-2.2c-2.3 1.893-3.644 2.558-5.242 2.558-1.342 0-2.75-.614-3.388-1.432-.703-.868-.894-1.79-.894-4.397V19.206h5.56V39c0 1.278.45 1.892 1.47 1.892.705 0 1.344-.256 2.495-1.023V19.205h5.563v25.42H71.43z"/>
    <path d="M21.2 49.254h56.148c8.27 0 14.973 6.707 14.973 14.977v13.056c0 8.27-6.703 14.973-14.972 14.973H21.2c-8.27 0-14.973-6.705-14.973-14.974V64.23c0-8.27 6.704-14.976 14.973-14.976z" fill="#cb322c"/>
    <path d="M19.342 59.06h-5.056v-4.046h15.75v4.046h-5.29v26.967h-5.404V59.06zM40.03 86.03l-.407-2c-2.092 1.72-3.312 2.326-4.765 2.326-1.22 0-2.5-.558-3.08-1.303-.64-.79-.814-1.626-.814-4V62.922h5.057v17.994c0 1.163.407 1.72 1.337 1.72.64 0 1.22-.232 2.267-.93V62.922h5.056v23.11h-4.65zm10.114-31.012H55.2v10.09c1.976-1.767 3.312-2.465 4.824-2.465 1.163 0 2.44.558 3.022 1.302.64.836.814 1.674.814 4.138v12.833c0 2.418-.175 3.255-.814 4.09-.58.793-1.86 1.35-3.08 1.35-1.512 0-2.79-.697-4.766-2.51v2.185h-5.056V55.02zm7.322 27.62c.93 0 1.337-.56 1.337-1.722V68.083c0-1.21-.407-1.72-1.337-1.72-.64 0-1.22.232-2.266.93v14.413c1.046.698 1.627.93 2.266.93zm25.512-4.701v.836c.06.605.06 1.024.06 1.256 0 4.09-2.5 6.323-7.092 6.323-4.358 0-6.8-2.325-6.8-6.51v-10.74c0-4.37 2.326-6.463 7.033-6.463 4.183 0 6.798 2.185 6.798 5.765v6.788h-8.775v5.07c0 1.673.522 2.37 1.86 2.37.64 0 1.22-.28 1.51-.697.29-.418.35-.93.35-2.603v-1.396h5.055zm-5.056-5.998v-3.907c0-1.07-.697-1.674-1.86-1.674-1.16 0-1.858.604-1.858 1.673v3.906h3.718z" fill="#FFF"/>
</svg>
