<svg xmlns="http://www.w3.org/2000/svg" viewBox="0 0 256 180" version="1.1" preserveAspectRatio="xMidYMid">
	<path d="m101.6 123.2l69.2-35.8-69.2-36.1v71.9z" fill="#FFF"/>
	<path opacity=".12" d="m101.6 51.3l60.7 40.5 8.5-4.4-69.2-36.1z" fill="#420000"/>
	<path fill="#bf171d" d="m253.3 38.8c-1.88-13.981-8.42-29.299-23.02-33.835-16.05-4.2161-32.96-2.9887-49.4-4.1201-49.07-1.2709-98.277-1.4605-147.24 2.2613-14.07 1.1629-26.069 12.107-28.842 25.919-4.7102 19.159-4.5895 39.155-4.798 58.786.044311 20.409-.026870 41.079 4.26 61.099 2.4268 13.2 12.368 24.88 26.024 26.94 27.447 4.096 55.358 3.0724 83.032 3.9746 36.322.27585 72.726-.11654 108.94-3.0267 14.925-1.1556 26.962-13.363 29.48-27.882 5.0811-24.421 4.2467-49.587 4.1702-74.419-.32-11.935-1.22-23.848-2.6-35.7zm-151.74 84.4v-71.9l69.172 36.1-69.172 35.8z"/>
</svg>
