<svg xmlns="http://www.w3.org/2000/svg" version="1.1" viewBox="0 0 266.893 266.895">
	<path d="m18.811 4.5918c-7.857 0-14.225 6.3672-14.225 14.224l-.0001 229.27c0 7.85 6.3671 14.22 14.225 14.22h163.6l-.02-.01h-40.15v-99.8h-33.58v-38.9h33.58v-28.682c0-33.287 20.34-51.412 50.03-51.412 14.22 0 26.45 1.057 30.01 1.531v34.787l-20.59.010c-16.15 0-19.28 7.674-19.28 18.936v24.84h38.52l-5.02 38.9h-33.5v99.8h65.67c7.85 0 14.22-6.37 14.22-14.22v-229.28c0-7.853-6.36-14.218-14.22-14.218l-229.27-.0002z"/>
</svg>
