<svg xmlns="http://www.w3.org/2000/svg" version="1.1" viewBox="0 0 64 64">
	<path d="m16.961 12.801c-2.624 0-4.354 1.792-4.354 4.16 0 2.304 1.665 4.158 4.225 4.158 2.752 0 4.48-1.854 4.416-4.158 0-2.368-1.663-4.16-4.287-4.16zm24.574 11.008c-4.416 0-7.103 2.559-8.191 4.351h-.127l-.385-3.775h-7.103c.064 2.432.191 5.248.191 8.576v18.238h8.191v-15.424c0-.768.064-1.535.256-2.111.640-1.536 1.985-3.137 4.225-3.137 3.008 0 4.16 2.369 4.16 5.825v14.847h8.256v-15.806c0-7.936-4.097-11.584-9.473-11.584zm-28.734.576v26.814h8.191v-26.814h-8.191z"/>
</svg>
