<svg version="1" viewBox="0 0 235 235" xmlns="http://www.w3.org/2000/svg">
	<path d="m117.5 0c-64.893 0-117.5 52.607-117.5 117.5 0 64.893 52.607 117.5 117.5 117.5 64.893 0 117.5-52.607 117.5-117.5 0-64.893-52.607-117.5-117.5-117.5zm66.07 34.285c10.06 0 18.209 8.7955 18.209 19.645 0 10.848-8.149 19.643-18.209 19.643-9.0567 0-16.544-7.1357-17.951-16.473l-26.194-7.8652-5.034 31.889c16.839 2.316 31.913 8.1135 43.648 16.299 3.7-5.898 10.07-9.7988 17.32-9.7988 11.44 0 20.711 9.698 20.711 21.666 0 9.48-5.8197 17.531-13.93 20.471 0.86001 3.44 1.3203 6.9796 1.3203 10.6 0 33.33-38.28 60.352-85.49 60.352-47.203 0-85.475-27.022-85.475-60.352 0-3.67 0.46452-7.27 1.3535-10.75-8.621-2.63-14.922-10.939-14.922-20.799 0-11.967 9.2729-21.666 20.713-21.666 7.574 0 14.18 4.2644 17.793 10.609 15.477-10.965 36.886-17.756 60.537-17.756 0.99789 0 1.985 0.02877 2.9746 0.05273l8.8613-43.729 36.35 11.859c2.2784-8.0443 9.2091-13.896 17.414-13.896zm-37.5 80.355c-6.74 0-12.201 5.6-12.201 12.5 0 6.91 5.4612 12.5 12.201 12.5s12.209-5.59 12.209-12.5c0-6.9-5.469-12.5-12.209-12.5zm-63.51 1.0801c-6.739 0-12.201 5.59-12.201 12.5 0 6.9 5.4622 12.5 12.201 12.5 6.738 0 12.203-5.6 12.203-12.5 0-6.91-5.4631-12.5-12.203-12.5zm-0.77734 45.709c27.107 19.15 47.546 11.601 67.146 0.71093-22.98 4.5-45.609 6.2791-67.146-0.71093z"/>
</svg>
