<svg xmlns="http://www.w3.org/2000/svg" version="1" viewBox="0 0 235 235">
	<path d="m117.5 0a117.5 117.5 0 0 0 -117.5 117.5 117.5 117.5 0 0 0 117.5 117.5 117.5 117.5 0 0 0 117.5 -117.5 117.5 117.5 0 0 0 -117.5 -117.5zm66.07 34.285c10.06 0 18.21 8.796 18.21 19.645 0 10.848-8.15 19.642-18.21 19.642s-18.21-8.794-18.21-19.642c0-10.85 8.15-19.645 18.21-19.645zm-65.6 45.713c23.42 0 44.63 6.655 60.07 17.424 3.7-5.898 10.07-9.799 17.32-9.799 11.44 0 20.71 9.699 20.71 21.667 0 9.48-5.82 17.53-13.93 20.47.86 3.44 1.32 6.98 1.32 10.6 0 33.33-38.28 60.35-85.49 60.35-47.203 0-85.474-27.02-85.474-60.35 0-3.67.465-7.27 1.354-10.75-8.621-2.63-14.922-10.94-14.922-20.8 0-11.967 9.273-21.665 20.713-21.665 7.574 0 14.18 4.264 17.793 10.609 15.477-10.965 36.885-17.756 60.536-17.756zm28.1 34.642c-6.74 0-12.2 5.6-12.2 12.5 0 6.91 5.46 12.5 12.2 12.5s12.21-5.59 12.21-12.5c0-6.9-5.47-12.5-12.21-12.5zm-63.509 1.08c-6.739 0-12.202 5.59-12.202 12.5 0 6.9 5.463 12.5 12.202 12.5 6.738 0 12.203-5.6 12.203-12.5 0-6.91-5.463-12.5-12.203-12.5zm-.778 45.71c27.107 19.15 47.547 11.6 67.147.71-22.98 4.5-45.61 6.28-67.147-.71z"/>
	<path stroke="#fff" stroke-width="4.9" d="m173.92 50.715-44.113-14.393-11.601 57.25" fill="none"/>
</svg>
