<svg xmlns="http://www.w3.org/2000/svg" version="1" viewBox="0 0 256 256">
	<path d="m106.22 25.799c-20.643.110-35.572 9.006-48.667 20.724l55.737 76.547c3.23 2.48 6.94 1.49 8.18-2.97v-92.901c-5.42-.983-10.49-1.426-15.25-1.4zm66.68 54.539l-36.64 49.212c-.34 5.3 2.36 7.55 5.95 8.92l62.23-10.08c-4.1-23.8-18.59-39.965-31.54-48.052zm-125.82 38.812c-6.128 16.65-6.746 34.14 0 52.77l57.222-20.07c3.9-4.55 2.23-8.31-.74-11.89l-56.482-20.81zm96.992 40.87c-4.02.90-6.14 3.32-5.2 8.18l31.47 53.28c14-6.42 27.97-21.41 34.3-43.62l-60.57-17.84zm-29.3 7.18c-.97.01-1.99.12-3.03.25l-37.91 43.11c11.545 16.3 28.6 21.58 49.06 20.06l-1.86-59.45c-.93-3.25-3.35-4.02-6.26-3.97z"/>
</svg>
