<svg xmlns="http://www.w3.org/2000/svg" fill="#fefefe" version="1.1" viewBox="0 0 134.658 131.646">
	<path d="m8.1406 4.1094a3.938 3.938 0 0 0 -3.9414 3.9375v115.55a3.94 3.94 0 0 0 3.9414 3.94h118.37a3.94 3.94 0 0 0 3.94 -3.94v-115.54c0-2.1794-1.77-3.9428-3.94-3.9428l.01-.0078h-118.38zm52.277 19.246h21.779l-7.189 4.516h-6.85c2.54 2.102 7.84 6.532 7.84 14.955 0 8.19-4.633 12.079-9.273 15.731-1.44 1.437-3.102 2.989-3.102 5.429 0 2.431 1.66 3.76 2.873 4.766l3.984 3.094-.001.004c4.864 4.098 9.283 7.861 9.283 15.511 0 10.412-10.063 20.929-29.073 20.929-16.032 0-23.761-7.64-23.761-15.839 0-3.985 1.985-9.63 8.508-13.51 6.849-4.21 16.14-4.759 21.117-5.101-1.554-1.993-3.319-4.098-3.319-7.528 0-1.882.555-2.99 1.102-4.32-1.218.112-2.428.221-3.535.221-11.713 0-18.348-8.759-18.348-17.399 0-5.088 2.318-10.739 7.07-14.839 6.305-5.206 14.919-6.62 20.895-6.62zm-8.064 4.184c-2.884 0-5.972 1.439-7.745 3.656-1.881 2.33-2.427 5.312-2.427 8.2 0 7.418 4.308 19.712 13.818 19.712v-.002c2.762 0 5.738-1.32 7.516-3.095 2.542-2.556 2.761-6.093 2.761-8.09 0-7.977-4.755-20.381-13.923-20.381zm40.57 20.324h5.469v11.075h11.117v5.533h-11.117v11.14h-5.469v-11.142h-11.059v-5.531h11.059v-11.075zm-35.154 29.078c-.996 0-6.97.222-11.61 1.782-2.434.881-9.504 3.54-9.504 11.404 0 7.866 7.626 13.523 19.453 13.523 10.613 0 16.254-5.108 16.254-11.966 0-5.665-3.649-8.646-12.056-14.629-.880-.112-1.432-.114-2.537-.114z"/>
</svg>
