<svg xmlns="http://www.w3.org/2000/svg" fill="#fefefe" viewBox="0 0 256 180" version="1.1" preserveAspectRatio="xMidYMid">
	<path d="m253.3 38.8s-2.499-17.6-10.196-25.4c-9.696-10.2-20.592-10.2-25.69-10.8-35.68-2.6-89.36-2.6-89.36-2.6h-.1s-53.679 0-89.565 2.6c-4.998.6-15.894.6-25.69 10.8-7.597 7.8-10.096 25.4-10.096 25.4s-2.599 20.8-2.599 41.5v19.4c0 20.7 2.599 41.4 2.599 41.4s2.499 17.6 10.196 25.4c9.696 10.2 22.491 9.9 28.189 10.9 20.492 2 86.966 2.6 86.966 2.6s53.779-.1 89.565-2.7c4.998-.6 15.894-.6 25.69-10.8 7.697-7.8 10.196-25.4 10.196-25.4s2.59-20.7 2.59-41.4v-19.4c-.1-20.7-2.699-41.5-2.699-41.5zm-151.74 84.4v-71.9l69.172 36.1-69.173 35.8z"/>
</svg>
