<svg version="1.1" viewBox="0 0 132 132" xmlns="http://www.w3.org/2000/svg">
	<circle cx="65.244" cy="65.5" r="26.379"/>
	<path d="m39.824 3.8535c-20.383 0-36.98 16.597-36.98 36.98v50.33c0 20.383 16.597 36.979 36.98 36.979h50.84c20.383 0 36.979-16.595 36.979-36.979v-50.33c0-20.383-16.595-36.98-36.979-36.98zm0 11.959h50.84c13.965 0 25.02 11.057 25.02 25.021v50.33c0 13.965-11.055 25.02-25.02 25.02h-50.84c-13.965 0-25.021-11.055-25.021-25.02v-50.33c0-13.965 11.057-25.021 25.021-25.021z" />
	<circle cx="98.814" cy="33.094" r="7.4945"/>
</svg>
