<svg width="157.74" height="189.83" preserveAspectRatio="xMidYMid" version="1.1" viewBox="0 0 173.52 208.81" xmlns="http://www.w3.org/2000/svg">
	<path d="m91.982.5c-60.816 0-91.482 43.6-91.482 79.961 0 22.016 8.3289 41.601 26.213 48.902 2.93 1.197 5.5582.0369 6.4102-3.2051.584-2.247 1.9934-7.9165 2.6074-10.271.857-3.212.52816-4.3378-1.8398-7.1348-5.15-6.09-8.4375-13.953-8.4375-25.105 0-32.344 24.188-61.301 63.016-61.301 34.367 0 53.264 20.999 53.264 49.053 0 36.906-16.336 68.055-40.588 68.055-13.395 0-23.408-11.074-20.201-24.652 3.839-16.215 11.303-33.722 11.303-45.426 0-10.472-5.6246-19.217-17.268-19.217-13.692 0-24.686 14.166-24.686 33.135 0 12.079 4.0879 20.252 4.0879 20.252s-14.008 59.357-16.469 69.748c-2.292 9.725-2.5885 20.455-2.2285 29.393l15.109 5.5176c4.857-7.688 10.169-17.551 12.883-27.42 1.574-5.695 9.0039-35.188 9.0039-35.188 4.453 8.485 17.452 15.955 31.271 15.955 41.15 0 69.066-37.514 69.066-87.727 0-37.961-32.165-73.324-81.035-73.324z" stroke="#000" stroke-width="1px"/>
</svg>
