<svg version="1" viewBox="0 0 235 235" xmlns="http://www.w3.org/2000/svg">
	<path d="m183.57 34.285c-8.2049 0-15.136 5.8522-17.414 13.896l-36.35-11.859-8.8613 43.729c-.9896-.02396-1.9767-.05273-2.9746-.05273-23.651 0-45.06 6.7928-60.537 17.758-3.613-6.3446-10.219-10.609-17.793-10.609-11.44 0-20.713 9.699-20.713 21.666 0 9.86 6.3009 18.169 14.922 20.799-.88898 3.48-1.3535 7.08-1.3535 10.75 0 33.33 38.272 60.352 85.475 60.352 47.21 0 85.49-27.022 85.49-60.352 0-3.6204-.4603-7.1596-1.3203-10.6 8.1103-2.94 13.93-10.993 13.93-20.473 0-11.968-9.271-21.666-20.711-21.666-7.25 0-13.62 3.9008-17.32 9.7988-11.735-8.1855-26.809-13.983-43.648-16.299l5.0352-31.889 26.193 7.8652c1.407 9.3373 8.8945 16.473 17.951 16.473 10.06 0 18.209-8.7946 18.209-19.643 0-10.85-8.149-19.645-18.209-19.645zm-37.5 80.355c6.74 0 12.209 5.6 12.209 12.5 0 6.91-5.4692 12.5-12.209 12.5s-12.201-5.59-12.201-12.5c0-6.9 5.4612-12.5 12.201-12.5zm-63.51 1.0801c6.7399 0 12.203 5.59 12.203 12.5 0 6.9-5.4651 12.5-12.203 12.5-6.7388 0-12.201-5.6-12.201-12.5 0-6.91 5.4622-12.5 12.201-12.5zm-.77734 45.709c21.537 6.99 44.165 5.2109 67.145.71093-19.6 10.89-40.038 18.439-67.145-.71093z" fill-rule="evenodd"/>
</svg>
